<svg width="178" height="25" fill="none" xmlns="http://www.w3.org/2000/svg"><path d="M0 6.519h3.224c.286 0 .533.065.741.195.208.13.334.299.377.507l1.352 6.045c.104.46.2.906.286 1.339.087.433.165.862.234 1.287.121-.425.247-.85.377-1.274.139-.433.273-.884.403-1.352l1.69-6.058a.837.837 0 0 1 .377-.494c.2-.139.429-.208.689-.208h1.794c.286 0 .529.07.728.208.208.13.338.295.39.494l1.612 6.058c.121.46.243.906.364 1.339.13.433.251.871.364 1.313.07-.433.152-.862.247-1.287l.325-1.365 1.43-6.045a.786.786 0 0 1 .364-.507c.208-.13.442-.195.702-.195h3.068L16.952 20h-3.276a.656.656 0 0 1-.442-.156c-.121-.104-.217-.277-.286-.52l-1.924-6.721a47.263 47.263 0 0 1-.247-.897c-.078-.295-.147-.59-.208-.884-.06.303-.13.607-.208.91-.07.295-.152.594-.247.897l-1.95 6.695c-.13.45-.416.676-.858.676h-3.12L0 6.519zm28.742-.208c.893 0 1.708.139 2.444.416.746.277 1.383.68 1.911 1.209a5.378 5.378 0 0 1 1.248 1.95c.304.763.455 1.63.455 2.6 0 .303-.013.55-.039.741-.026.19-.073.342-.143.455a.542.542 0 0 1-.286.234c-.112.043-.26.065-.442.065h-7.774c.13 1.127.473 1.946 1.027 2.457.555.503 1.27.754 2.145.754.468 0 .871-.056 1.21-.169a5.82 5.82 0 0 0 .896-.377c.27-.139.512-.264.728-.377a1.55 1.55 0 0 1 .702-.169c.321 0 .564.117.728.351l1.17 1.443a6.068 6.068 0 0 1-1.352 1.17c-.476.295-.97.529-1.482.702a7.846 7.846 0 0 1-1.52.338c-.503.07-.984.104-1.444.104a7.72 7.72 0 0 1-2.665-.455 6.264 6.264 0 0 1-2.17-1.378c-.616-.607-1.106-1.36-1.47-2.262-.355-.901-.533-1.95-.533-3.146 0-.901.152-1.755.455-2.561a6.447 6.447 0 0 1 1.326-2.119 6.403 6.403 0 0 1 2.093-1.443c.824-.355 1.751-.533 2.782-.533zm.078 2.782c-.77 0-1.373.221-1.807.663-.433.433-.719 1.062-.858 1.885h5.031c0-.32-.043-.633-.13-.936a2.078 2.078 0 0 0-.403-.806 1.961 1.961 0 0 0-.728-.585c-.303-.147-.671-.221-1.105-.221zM37.373 20V.539h4.03v7.41a6.068 6.068 0 0 1 1.703-1.183c.641-.303 1.391-.455 2.249-.455.702 0 1.352.152 1.95.455.598.303 1.114.75 1.547 1.339.433.58.771 1.296 1.014 2.145.251.85.377 1.816.377 2.899 0 1.014-.143 1.95-.429 2.808a6.89 6.89 0 0 1-1.183 2.236 5.366 5.366 0 0 1-1.82 1.482c-.702.355-1.482.533-2.34.533-.399 0-.758-.039-1.079-.117a4.011 4.011 0 0 1-.871-.325 4.282 4.282 0 0 1-.728-.52 9.055 9.055 0 0 1-.637-.65l-.143.676c-.06.277-.173.468-.338.572-.156.104-.364.156-.624.156h-2.678zm6.578-10.66c-.295 0-.563.03-.806.091-.234.052-.455.13-.663.234-.2.104-.386.238-.559.403a5.273 5.273 0 0 0-.52.546v5.72c.303.338.633.576.988.715.355.13.728.195 1.118.195.373 0 .715-.074 1.027-.221.312-.147.58-.381.806-.702.234-.33.416-.754.546-1.274.13-.52.195-1.153.195-1.898 0-.71-.052-1.309-.156-1.794-.104-.485-.251-.875-.442-1.17-.182-.303-.403-.52-.663-.65a1.92 1.92 0 0 0-.871-.195zM67.466 20c-.251 0-.463-.056-.637-.169a.915.915 0 0 1-.35-.507l-.313-1.027c-.268.286-.55.546-.845.78a5.483 5.483 0 0 1-.962.611 4.88 4.88 0 0 1-1.105.377 5.36 5.36 0 0 1-1.274.143 4.152 4.152 0 0 1-1.95-.468 4.494 4.494 0 0 1-1.547-1.352c-.433-.59-.775-1.309-1.027-2.158-.242-.858-.364-1.833-.364-2.925 0-1.005.139-1.937.416-2.795.278-.867.668-1.612 1.17-2.236a5.496 5.496 0 0 1 1.833-1.482 5.192 5.192 0 0 1 2.353-.533c.694 0 1.279.104 1.755.312.486.2.923.464 1.313.793V.539h4.03V20h-2.496zm-4.082-2.886c.295 0 .56-.026.793-.078.243-.06.464-.143.663-.247a2.7 2.7 0 0 0 .56-.39c.181-.156.359-.338.532-.546v-5.72c-.312-.338-.645-.572-1-.702a2.947 2.947 0 0 0-1.106-.208c-.372 0-.715.074-1.027.221a2.123 2.123 0 0 0-.819.715c-.225.32-.403.741-.533 1.261-.13.52-.195 1.148-.195 1.885 0 .71.052 1.309.156 1.794.104.485.247.88.43 1.183.19.295.415.507.675.637.26.13.55.195.871.195zM79.116 6.311c.893 0 1.708.139 2.444.416.746.277 1.383.68 1.911 1.209a5.378 5.378 0 0 1 1.248 1.95c.304.763.455 1.63.455 2.6 0 .303-.013.55-.039.741-.026.19-.073.342-.143.455a.542.542 0 0 1-.286.234c-.112.043-.26.065-.442.065H76.49c.13 1.127.473 1.946 1.027 2.457.555.503 1.27.754 2.145.754.468 0 .871-.056 1.21-.169a5.82 5.82 0 0 0 .896-.377c.269-.139.512-.264.728-.377a1.55 1.55 0 0 1 .702-.169c.321 0 .564.117.728.351l1.17 1.443a6.068 6.068 0 0 1-1.352 1.17c-.476.295-.97.529-1.482.702a7.846 7.846 0 0 1-1.52.338c-.503.07-.984.104-1.444.104a7.72 7.72 0 0 1-2.665-.455 6.264 6.264 0 0 1-2.17-1.378c-.616-.607-1.106-1.36-1.47-2.262-.355-.901-.533-1.95-.533-3.146 0-.901.152-1.755.455-2.561a6.447 6.447 0 0 1 1.326-2.119 6.402 6.402 0 0 1 2.093-1.443c.824-.355 1.751-.533 2.782-.533zm.078 2.782c-.771 0-1.373.221-1.807.663-.433.433-.719 1.062-.858 1.885h5.031c0-.32-.043-.633-.13-.936a2.08 2.08 0 0 0-.403-.806 1.961 1.961 0 0 0-.728-.585c-.303-.147-.671-.221-1.105-.221zM94.701 20h-3.666L85.81 6.519h3.354c.286 0 .525.07.715.208.2.13.334.295.403.494l1.872 6.045c.147.494.286.975.416 1.443.139.468.256.936.351 1.404.096-.468.212-.936.351-1.404.139-.468.286-.949.442-1.443l1.95-6.045c.07-.2.2-.364.39-.494.19-.139.416-.208.676-.208h3.198L94.701 20zm12.433-13.689c.893 0 1.708.139 2.444.416.746.277 1.383.68 1.911 1.209a5.373 5.373 0 0 1 1.248 1.95c.304.763.455 1.63.455 2.6 0 .303-.013.55-.039.741-.026.19-.073.342-.143.455a.538.538 0 0 1-.286.234 1.25 1.25 0 0 1-.442.065h-7.774c.13 1.127.473 1.946 1.027 2.457.555.503 1.27.754 2.145.754.468 0 .871-.056 1.209-.169a5.82 5.82 0 0 0 .897-.377c.269-.139.512-.264.728-.377a1.55 1.55 0 0 1 .702-.169c.321 0 .564.117.728.351l1.17 1.443a6.052 6.052 0 0 1-1.352 1.17c-.476.295-.97.529-1.482.702a7.823 7.823 0 0 1-1.521.338c-.502.07-.983.104-1.443.104a7.723 7.723 0 0 1-2.665-.455 6.267 6.267 0 0 1-2.171-1.378c-.615-.607-1.105-1.36-1.469-2.262-.355-.901-.533-1.95-.533-3.146 0-.901.152-1.755.455-2.561a6.447 6.447 0 0 1 1.326-2.119 6.414 6.414 0 0 1 2.093-1.443c.824-.355 1.751-.533 2.782-.533zm.078 2.782c-.771 0-1.373.221-1.807.663-.433.433-.719 1.062-.858 1.885h5.031c0-.32-.043-.633-.13-.936a2.074 2.074 0 0 0-.403-.806 1.956 1.956 0 0 0-.728-.585c-.303-.147-.671-.221-1.105-.221zM119.925.539V20h-4.03V.539h4.03zm9.52 5.772c1.023 0 1.954.16 2.795.481.841.32 1.56.78 2.158 1.378a6.069 6.069 0 0 1 1.404 2.184c.338.85.507 1.807.507 2.873 0 1.075-.169 2.045-.507 2.912a6.199 6.199 0 0 1-1.404 2.197 6.212 6.212 0 0 1-2.158 1.391c-.841.32-1.772.481-2.795.481-1.031 0-1.972-.16-2.821-.481a6.485 6.485 0 0 1-2.184-1.391 6.355 6.355 0 0 1-1.417-2.197c-.329-.867-.494-1.837-.494-2.912 0-1.066.165-2.024.494-2.873a6.22 6.22 0 0 1 1.417-2.184 6.325 6.325 0 0 1 2.184-1.378c.849-.32 1.79-.481 2.821-.481zm0 10.907c.927 0 1.608-.325 2.041-.975.442-.659.663-1.655.663-2.99 0-1.335-.221-2.327-.663-2.977-.433-.65-1.114-.975-2.041-.975-.953 0-1.651.325-2.093.975-.442.65-.663 1.642-.663 2.977s.221 2.331.663 2.99c.442.65 1.14.975 2.093.975zm9.336 7.059V6.519h2.496c.251 0 .459.056.624.169a.892.892 0 0 1 .364.507l.299.988c.26-.286.537-.546.832-.78.303-.234.624-.433.962-.598a5.256 5.256 0 0 1 1.105-.403 5.586 5.586 0 0 1 1.3-.143c.702 0 1.352.156 1.95.468a4.49 4.49 0 0 1 1.547 1.352c.433.59.771 1.313 1.014 2.171.251.85.377 1.816.377 2.899 0 1.014-.143 1.95-.429 2.808a6.886 6.886 0 0 1-1.183 2.236 5.365 5.365 0 0 1-1.82 1.482c-.702.355-1.482.533-2.34.533-.702 0-1.291-.1-1.768-.299-.477-.2-.91-.468-1.3-.806v5.174h-4.03zm6.578-14.937c-.295 0-.563.03-.806.091-.234.052-.455.13-.663.234a2.469 2.469 0 0 0-.559.403 5.284 5.284 0 0 0-.52.546v5.72c.303.338.633.576.988.715.355.13.728.195 1.118.195.373 0 .715-.074 1.027-.221a2.06 2.06 0 0 0 .806-.702c.234-.33.416-.754.546-1.274.13-.52.195-1.153.195-1.898 0-.71-.052-1.309-.156-1.794-.104-.485-.251-.875-.442-1.17-.182-.303-.403-.52-.663-.65a1.92 1.92 0 0 0-.871-.195zm14.485-3.029c.893 0 1.708.139 2.444.416.746.277 1.383.68 1.911 1.209a5.373 5.373 0 0 1 1.248 1.95c.304.763.455 1.63.455 2.6 0 .303-.013.55-.039.741-.026.19-.073.342-.143.455a.538.538 0 0 1-.286.234 1.25 1.25 0 0 1-.442.065h-7.774c.13 1.127.473 1.946 1.027 2.457.555.503 1.27.754 2.145.754.468 0 .871-.056 1.209-.169a5.82 5.82 0 0 0 .897-.377c.269-.139.512-.264.728-.377a1.55 1.55 0 0 1 .702-.169c.321 0 .564.117.728.351l1.17 1.443a6.052 6.052 0 0 1-1.352 1.17c-.476.295-.97.529-1.482.702a7.823 7.823 0 0 1-1.521.338c-.502.07-.983.104-1.443.104a7.723 7.723 0 0 1-2.665-.455 6.267 6.267 0 0 1-2.171-1.378c-.615-.607-1.105-1.36-1.469-2.262-.355-.901-.533-1.95-.533-3.146 0-.901.152-1.755.455-2.561a6.447 6.447 0 0 1 1.326-2.119 6.414 6.414 0 0 1 2.093-1.443c.824-.355 1.751-.533 2.782-.533zm.078 2.782c-.771 0-1.373.221-1.807.663-.433.433-.719 1.062-.858 1.885h5.031c0-.32-.043-.633-.13-.936a2.074 2.074 0 0 0-.403-.806 1.956 1.956 0 0 0-.728-.585c-.303-.147-.671-.221-1.105-.221zM168.475 20V6.519h2.392c.199 0 .364.017.494.052a.777.777 0 0 1 .338.169c.095.07.165.165.208.286.052.121.095.269.13.442l.221 1.261c.494-.763 1.049-1.365 1.664-1.807a3.38 3.38 0 0 1 2.015-.663c.615 0 1.109.147 1.482.442l-.52 2.964c-.035.182-.104.312-.208.39a.74.74 0 0 1-.416.104c-.147 0-.321-.017-.52-.052a3.64 3.64 0 0 0-.754-.065c-1.057 0-1.889.563-2.496 1.69V20h-4.03z" fill="#121111"/></svg>