<svg width="201" height="25" fill="none" xmlns="http://www.w3.org/2000/svg"><path d="M4.72.539V20H.69V.539h4.03zM17.542 20c-.381 0-.672-.052-.87-.156-.192-.104-.352-.32-.482-.65l-.286-.741a13 13 0 0 1-.975.754 6.431 6.431 0 0 1-.975.559c-.33.147-.685.256-1.066.325a6.11 6.11 0 0 1-1.248.117 5.642 5.642 0 0 1-1.677-.234 3.642 3.642 0 0 1-1.287-.715 3.162 3.162 0 0 1-.806-1.157c-.19-.468-.286-1.005-.286-1.612 0-.477.121-.966.364-1.469.243-.503.663-.958 1.261-1.365.598-.416 1.404-.763 2.418-1.04 1.014-.277 2.292-.433 3.835-.468v-.572c0-.789-.165-1.356-.494-1.703-.32-.355-.78-.533-1.378-.533-.477 0-.867.052-1.17.156a5.532 5.532 0 0 0-.819.351c-.234.13-.464.247-.689.351a1.91 1.91 0 0 1-.806.156 1.28 1.28 0 0 1-.715-.195 1.588 1.588 0 0 1-.455-.507l-.728-1.261a8.118 8.118 0 0 1 2.704-1.599 9.453 9.453 0 0 1 3.198-.533c.815 0 1.547.134 2.197.403a4.55 4.55 0 0 1 1.664 1.105 4.71 4.71 0 0 1 1.053 1.677c.243.65.364 1.36.364 2.132V20h-1.846zm-4.628-2.457c.52 0 .975-.091 1.365-.273.39-.182.784-.477 1.183-.884v-1.872c-.806.035-1.469.104-1.989.208s-.932.234-1.235.39c-.303.156-.516.334-.637.533-.113.2-.169.416-.169.65 0 .46.126.784.377.975.251.182.62.273 1.105.273zM22.51 20V6.519h2.496c.251 0 .459.056.624.169a.892.892 0 0 1 .364.507l.234.78c.26-.243.528-.468.806-.676a4.928 4.928 0 0 1 1.911-.858c.372-.087.775-.13 1.209-.13.736 0 1.386.13 1.95.39a3.946 3.946 0 0 1 1.443 1.066c.39.45.684.992.884 1.625.199.624.299 1.304.299 2.041V20H30.7v-8.567c0-.659-.152-1.17-.455-1.534-.304-.373-.75-.559-1.34-.559-.441 0-.857.095-1.247.286-.39.19-.763.446-1.118.767V20h-4.03zm20.1-13.715c.572 0 1.11.056 1.612.169.511.113.983.273 1.417.481h4.069v1.469c0 .225-.065.403-.195.533-.122.13-.334.23-.637.299l-.988.221c.121.39.182.793.182 1.209 0 .676-.143 1.283-.43 1.82a4.103 4.103 0 0 1-1.156 1.378 5.492 5.492 0 0 1-1.73.871 7.46 7.46 0 0 1-2.144.299c-.425 0-.824-.026-1.196-.078-.295.173-.442.373-.442.598 0 .225.117.39.35.494.243.095.56.165.95.208.39.035.836.06 1.339.078a18.66 18.66 0 0 1 1.534.091c.52.043 1.031.121 1.534.234.502.113.949.295 1.339.546.39.251.702.59.936 1.014.242.416.364.949.364 1.599 0 .607-.148 1.2-.442 1.781-.295.58-.728 1.096-1.3 1.547-.572.45-1.274.81-2.106 1.079-.832.277-1.786.416-2.86.416-1.058 0-1.972-.1-2.743-.299-.763-.2-1.4-.464-1.911-.793-.503-.32-.876-.693-1.118-1.118a2.637 2.637 0 0 1-.364-1.326c0-.598.182-1.1.546-1.508.364-.416.862-.741 1.495-.975a2.282 2.282 0 0 1-.728-.767c-.182-.312-.273-.706-.273-1.183 0-.2.034-.407.104-.624.07-.225.177-.442.325-.65a3.23 3.23 0 0 1 .559-.598c.225-.19.494-.36.806-.507a4.458 4.458 0 0 1-1.664-1.482c-.399-.615-.598-1.33-.598-2.145 0-.676.143-1.283.429-1.82a4.074 4.074 0 0 1 1.17-1.378 5.44 5.44 0 0 1 1.768-.871 7.437 7.437 0 0 1 2.197-.312zm2.99 14.209a.68.68 0 0 0-.208-.52 1.373 1.373 0 0 0-.546-.312 3.75 3.75 0 0 0-.806-.169c-.304-.035-.633-.06-.988-.078-.356-.017-.724-.03-1.105-.039a16.134 16.134 0 0 1-1.131-.091c-.252.173-.46.368-.624.585a1.16 1.16 0 0 0-.234.715c0 .19.039.364.117.52.086.156.234.29.442.403.208.113.485.2.832.26.355.07.801.104 1.339.104.58 0 1.057-.035 1.43-.104.372-.07.667-.165.884-.286.225-.121.381-.269.468-.442.086-.165.13-.347.13-.546zm-2.99-7.943c.667 0 1.148-.165 1.443-.494.303-.338.455-.771.455-1.3 0-.546-.152-.975-.455-1.287-.295-.312-.776-.468-1.443-.468-.668 0-1.153.156-1.456.468-.295.312-.442.741-.442 1.287 0 .26.034.498.104.715.078.217.195.407.35.572.157.156.352.282.586.377.242.087.528.13.858.13zm12.88-6.032v8.554c0 .667.152 1.183.455 1.547.303.364.75.546 1.34.546a2.83 2.83 0 0 0 1.234-.273 4.58 4.58 0 0 0 1.131-.767V6.519h4.03V20h-2.496c-.503 0-.832-.225-.988-.676l-.247-.78c-.26.251-.529.481-.806.689a5.38 5.38 0 0 1-.897.52c-.312.139-.65.247-1.014.325a5.16 5.16 0 0 1-1.196.13c-.737 0-1.39-.126-1.963-.377a4.11 4.11 0 0 1-1.43-1.079 4.677 4.677 0 0 1-.884-1.625 6.722 6.722 0 0 1-.299-2.054V6.519h4.03zM76.371 20c-.381 0-.671-.052-.87-.156-.192-.104-.352-.32-.482-.65l-.286-.741a13 13 0 0 1-.975.754 6.431 6.431 0 0 1-.975.559c-.33.147-.684.256-1.066.325a6.11 6.11 0 0 1-1.248.117 5.643 5.643 0 0 1-1.677-.234 3.643 3.643 0 0 1-1.287-.715 3.163 3.163 0 0 1-.806-1.157c-.19-.468-.286-1.005-.286-1.612 0-.477.121-.966.364-1.469.243-.503.663-.958 1.261-1.365.598-.416 1.404-.763 2.418-1.04 1.014-.277 2.293-.433 3.835-.468v-.572c0-.789-.165-1.356-.494-1.703-.32-.355-.78-.533-1.378-.533-.477 0-.867.052-1.17.156a5.541 5.541 0 0 0-.819.351c-.234.13-.464.247-.689.351a1.91 1.91 0 0 1-.806.156 1.28 1.28 0 0 1-.715-.195 1.59 1.59 0 0 1-.455-.507l-.728-1.261a8.119 8.119 0 0 1 2.704-1.599 9.453 9.453 0 0 1 3.198-.533c.815 0 1.547.134 2.197.403.659.26 1.214.628 1.664 1.105a4.71 4.71 0 0 1 1.053 1.677c.243.65.364 1.36.364 2.132V20h-1.846zm-4.628-2.457c.52 0 .975-.091 1.365-.273.39-.182.784-.477 1.183-.884v-1.872c-.806.035-1.469.104-1.989.208s-.931.234-1.235.39c-.303.156-.515.334-.637.533a1.3 1.3 0 0 0-.169.65c0 .46.126.784.377.975.251.182.62.273 1.105.273zM86.097 6.285c.572 0 1.11.056 1.612.169.511.113.983.273 1.417.481h4.069v1.469c0 .225-.065.403-.195.533-.122.13-.334.23-.637.299l-.988.221c.121.39.182.793.182 1.209 0 .676-.143 1.283-.43 1.82a4.103 4.103 0 0 1-1.156 1.378 5.492 5.492 0 0 1-1.73.871 7.46 7.46 0 0 1-2.144.299c-.425 0-.824-.026-1.196-.078-.295.173-.442.373-.442.598 0 .225.117.39.35.494.243.095.56.165.95.208.39.035.836.06 1.339.078a18.66 18.66 0 0 1 1.534.091c.52.043 1.031.121 1.534.234.502.113.949.295 1.339.546.39.251.702.59.936 1.014.242.416.364.949.364 1.599 0 .607-.148 1.2-.442 1.781-.295.58-.728 1.096-1.3 1.547-.572.45-1.274.81-2.106 1.079-.832.277-1.786.416-2.86.416-1.058 0-1.972-.1-2.743-.299-.763-.2-1.4-.464-1.911-.793-.503-.32-.876-.693-1.118-1.118a2.637 2.637 0 0 1-.364-1.326c0-.598.182-1.1.546-1.508.364-.416.862-.741 1.495-.975a2.282 2.282 0 0 1-.728-.767c-.182-.312-.273-.706-.273-1.183 0-.2.034-.407.104-.624.07-.225.177-.442.325-.65a3.23 3.23 0 0 1 .559-.598c.225-.19.494-.36.806-.507a4.458 4.458 0 0 1-1.664-1.482c-.399-.615-.598-1.33-.598-2.145 0-.676.143-1.283.429-1.82a4.074 4.074 0 0 1 1.17-1.378 5.44 5.44 0 0 1 1.768-.871 7.437 7.437 0 0 1 2.197-.312zm2.99 14.209a.68.68 0 0 0-.208-.52 1.373 1.373 0 0 0-.546-.312 3.75 3.75 0 0 0-.806-.169c-.304-.035-.633-.06-.988-.078-.356-.017-.724-.03-1.105-.039a16.134 16.134 0 0 1-1.131-.091c-.252.173-.46.368-.624.585a1.16 1.16 0 0 0-.234.715c0 .19.039.364.117.52.086.156.234.29.442.403.208.113.485.2.832.26.355.07.801.104 1.339.104.58 0 1.057-.035 1.43-.104.372-.07.667-.165.884-.286.225-.121.381-.269.468-.442.086-.165.13-.347.13-.546zm-2.99-7.943c.667 0 1.148-.165 1.443-.494.303-.338.455-.771.455-1.3 0-.546-.152-.975-.455-1.287-.295-.312-.776-.468-1.443-.468-.668 0-1.153.156-1.456.468-.295.312-.442.741-.442 1.287 0 .26.034.498.104.715.078.217.195.407.35.572.157.156.352.282.586.377.242.087.528.13.858.13zm14.883-6.24c.893 0 1.707.139 2.444.416a5.25 5.25 0 0 1 1.911 1.209 5.405 5.405 0 0 1 1.248 1.95c.303.763.455 1.63.455 2.6 0 .303-.013.55-.039.741-.026.19-.074.342-.143.455a.542.542 0 0 1-.286.234c-.113.043-.26.065-.442.065h-7.774c.13 1.127.472 1.946 1.027 2.457.555.503 1.27.754 2.145.754.468 0 .871-.056 1.209-.169a5.82 5.82 0 0 0 .897-.377l.728-.377c.225-.113.459-.169.702-.169.321 0 .563.117.728.351l1.17 1.443a6.074 6.074 0 0 1-1.352 1.17 7.236 7.236 0 0 1-1.482.702 7.856 7.856 0 0 1-1.521.338c-.503.07-.984.104-1.443.104a7.719 7.719 0 0 1-2.665-.455 6.264 6.264 0 0 1-2.17-1.378c-.616-.607-1.106-1.36-1.47-2.262-.355-.901-.533-1.95-.533-3.146 0-.901.152-1.755.455-2.561a6.447 6.447 0 0 1 1.326-2.119 6.404 6.404 0 0 1 2.093-1.443c.824-.355 1.75-.533 2.782-.533zm.078 2.782c-.771 0-1.374.221-1.807.663-.433.433-.72 1.062-.858 1.885h5.031c0-.32-.043-.633-.13-.936a2.074 2.074 0 0 0-.403-.806 1.963 1.963 0 0 0-.728-.585c-.303-.147-.672-.221-1.105-.221zm18-8.554V20h-4.03V.539h4.03zm9.286 5.772c.893 0 1.707.139 2.444.416a5.25 5.25 0 0 1 1.911 1.209 5.405 5.405 0 0 1 1.248 1.95c.303.763.455 1.63.455 2.6 0 .303-.013.55-.039.741-.026.19-.074.342-.143.455a.542.542 0 0 1-.286.234c-.113.043-.26.065-.442.065h-7.774c.13 1.127.472 1.946 1.027 2.457.555.503 1.27.754 2.145.754.468 0 .871-.056 1.209-.169a5.82 5.82 0 0 0 .897-.377l.728-.377c.225-.113.459-.169.702-.169.321 0 .563.117.728.351l1.17 1.443a6.074 6.074 0 0 1-1.352 1.17 7.236 7.236 0 0 1-1.482.702 7.856 7.856 0 0 1-1.521.338c-.503.07-.984.104-1.443.104a7.72 7.72 0 0 1-2.665-.455 6.267 6.267 0 0 1-2.171-1.378c-.615-.607-1.105-1.36-1.469-2.262-.355-.901-.533-1.95-.533-3.146 0-.901.152-1.755.455-2.561a6.447 6.447 0 0 1 1.326-2.119 6.403 6.403 0 0 1 2.093-1.443c.823-.355 1.751-.533 2.782-.533zm.078 2.782c-.771 0-1.374.221-1.807.663-.433.433-.719 1.062-.858 1.885h5.031c0-.32-.043-.633-.13-.936a2.074 2.074 0 0 0-.403-.806 1.963 1.963 0 0 0-.728-.585c-.303-.147-.672-.221-1.105-.221zM146.283 20c-.382 0-.672-.052-.871-.156-.191-.104-.351-.32-.481-.65l-.286-.741a13 13 0 0 1-.975.754 6.431 6.431 0 0 1-.975.559c-.33.147-.685.256-1.066.325a6.115 6.115 0 0 1-1.248.117 5.636 5.636 0 0 1-1.677-.234 3.636 3.636 0 0 1-1.287-.715 3.15 3.15 0 0 1-.806-1.157c-.191-.468-.286-1.005-.286-1.612 0-.477.121-.966.364-1.469.242-.503.663-.958 1.261-1.365.598-.416 1.404-.763 2.418-1.04 1.014-.277 2.292-.433 3.835-.468v-.572c0-.789-.165-1.356-.494-1.703-.321-.355-.78-.533-1.378-.533-.477 0-.867.052-1.17.156a5.478 5.478 0 0 0-.819.351c-.234.13-.464.247-.689.351a1.912 1.912 0 0 1-.806.156c-.278 0-.516-.065-.715-.195a1.576 1.576 0 0 1-.455-.507l-.728-1.261a8.112 8.112 0 0 1 2.704-1.599 9.448 9.448 0 0 1 3.198-.533c.814 0 1.547.134 2.197.403.658.26 1.213.628 1.664 1.105.459.468.81 1.027 1.053 1.677.242.65.364 1.36.364 2.132V20h-1.846zm-4.628-2.457c.52 0 .975-.091 1.365-.273.39-.182.784-.477 1.183-.884v-1.872c-.806.035-1.469.104-1.989.208s-.932.234-1.235.39c-.304.156-.516.334-.637.533-.113.2-.169.416-.169.65 0 .46.125.784.377.975.251.182.619.273 1.105.273zM151.25 20V6.519h2.392c.2 0 .364.017.494.052a.772.772 0 0 1 .338.169c.096.07.165.165.208.286.052.121.096.269.13.442l.221 1.261c.494-.763 1.049-1.365 1.664-1.807a3.382 3.382 0 0 1 2.015-.663c.616 0 1.11.147 1.482.442l-.52 2.964c-.034.182-.104.312-.208.39a.738.738 0 0 1-.416.104c-.147 0-.32-.017-.52-.052a3.634 3.634 0 0 0-.754-.065c-1.057 0-1.889.563-2.496 1.69V20h-4.03zm11.001 0V6.519h2.496c.251 0 .459.056.624.169a.896.896 0 0 1 .364.507l.234.78a9.68 9.68 0 0 1 .806-.676 4.928 4.928 0 0 1 1.911-.858c.372-.087.775-.13 1.209-.13.736 0 1.386.13 1.95.39a3.946 3.946 0 0 1 1.443 1.066c.39.45.684.992.884 1.625.199.624.299 1.304.299 2.041V20h-4.03v-8.567c0-.659-.152-1.17-.455-1.534-.304-.373-.75-.559-1.339-.559a2.8 2.8 0 0 0-1.248.286c-.39.19-.763.446-1.118.767V20h-4.03zm21.114-13.689c.892 0 1.707.139 2.444.416a5.25 5.25 0 0 1 1.911 1.209 5.405 5.405 0 0 1 1.248 1.95c.303.763.455 1.63.455 2.6 0 .303-.013.55-.039.741-.026.19-.074.342-.143.455a.545.545 0 0 1-.286.234c-.113.043-.26.065-.442.065h-7.774c.13 1.127.472 1.946 1.027 2.457.554.503 1.269.754 2.145.754.468 0 .871-.056 1.209-.169a5.82 5.82 0 0 0 .897-.377l.728-.377c.225-.113.459-.169.702-.169.32 0 .563.117.728.351l1.17 1.443a6.074 6.074 0 0 1-1.352 1.17 7.236 7.236 0 0 1-1.482.702 7.856 7.856 0 0 1-1.521.338c-.503.07-.984.104-1.443.104a7.72 7.72 0 0 1-2.665-.455 6.258 6.258 0 0 1-2.171-1.378c-.616-.607-1.105-1.36-1.469-2.262-.356-.901-.533-1.95-.533-3.146 0-.901.151-1.755.455-2.561a6.447 6.447 0 0 1 1.326-2.119 6.393 6.393 0 0 1 2.093-1.443c.823-.355 1.75-.533 2.782-.533zm.078 2.782c-.772 0-1.374.221-1.807.663-.434.433-.72 1.062-.858 1.885h5.031c0-.32-.044-.633-.13-.936a2.088 2.088 0 0 0-.403-.806 1.963 1.963 0 0 0-.728-.585c-.304-.147-.672-.221-1.105-.221zM191.995 20V6.519h2.392c.199 0 .364.017.494.052a.777.777 0 0 1 .338.169c.095.07.165.165.208.286.052.121.095.269.13.442l.221 1.261c.494-.763 1.049-1.365 1.664-1.807a3.38 3.38 0 0 1 2.015-.663c.615 0 1.109.147 1.482.442l-.52 2.964c-.035.182-.104.312-.208.39a.74.74 0 0 1-.416.104c-.147 0-.321-.017-.52-.052a3.64 3.64 0 0 0-.754-.065c-1.057 0-1.889.563-2.496 1.69V20h-4.03z" fill="#121111"/></svg>