<svg width="144" height="25" fill="none" xmlns="http://www.w3.org/2000/svg"><path d="M6.292 20.208c-.641 0-1.209-.091-1.703-.273a3.564 3.564 0 0 1-1.235-.793 3.49 3.49 0 0 1-.754-1.248 4.806 4.806 0 0 1-.26-1.625V9.301H1.196a.778.778 0 0 1-.533-.195c-.147-.139-.221-.338-.221-.598V6.935l2.145-.416.793-3.289c.104-.416.399-.624.884-.624H6.37v3.939h3.276v2.756H6.37v6.695c0 .312.074.572.221.78.156.2.377.299.663.299.147 0 .269-.013.364-.039.104-.035.19-.07.26-.104a2.36 2.36 0 0 1 .208-.104.516.516 0 0 1 .234-.052.42.42 0 0 1 .286.091.878.878 0 0 1 .234.26l1.222 1.911c-.52.39-1.105.685-1.755.884a7.12 7.12 0 0 1-2.015.286zm11.71-13.897c.893 0 1.707.139 2.444.416a5.25 5.25 0 0 1 1.911 1.209 5.378 5.378 0 0 1 1.248 1.95c.303.763.455 1.63.455 2.6 0 .303-.013.55-.039.741-.026.19-.073.342-.143.455a.542.542 0 0 1-.286.234c-.112.043-.26.065-.442.065h-7.774c.13 1.127.473 1.946 1.027 2.457.555.503 1.27.754 2.145.754.468 0 .871-.056 1.21-.169a5.82 5.82 0 0 0 .896-.377c.269-.139.512-.264.728-.377a1.55 1.55 0 0 1 .702-.169c.32 0 .564.117.728.351l1.17 1.443a6.068 6.068 0 0 1-1.352 1.17c-.476.295-.97.529-1.482.702a7.846 7.846 0 0 1-1.52.338c-.503.07-.985.104-1.444.104a7.72 7.72 0 0 1-2.665-.455 6.264 6.264 0 0 1-2.17-1.378c-.616-.607-1.106-1.36-1.47-2.262-.355-.901-.533-1.95-.533-3.146 0-.901.152-1.755.455-2.561a6.447 6.447 0 0 1 1.326-2.119 6.402 6.402 0 0 1 2.093-1.443c.824-.355 1.75-.533 2.782-.533zm.078 2.782c-.771 0-1.373.221-1.807.663-.433.433-.72 1.062-.858 1.885h5.031c0-.32-.043-.633-.13-.936a2.08 2.08 0 0 0-.403-.806 1.961 1.961 0 0 0-.728-.585c-.303-.147-.671-.221-1.105-.221zM35.94 20c-.38 0-.67-.052-.87-.156-.19-.104-.351-.32-.481-.65l-.286-.741a13 13 0 0 1-.975.754 6.431 6.431 0 0 1-.975.559c-.33.147-.685.256-1.066.325a6.11 6.11 0 0 1-1.248.117 5.643 5.643 0 0 1-1.677-.234 3.643 3.643 0 0 1-1.287-.715 3.163 3.163 0 0 1-.806-1.157c-.19-.468-.286-1.005-.286-1.612 0-.477.121-.966.364-1.469.242-.503.663-.958 1.26-1.365.599-.416 1.405-.763 2.419-1.04s2.292-.433 3.835-.468v-.572c0-.789-.165-1.356-.494-1.703-.32-.355-.78-.533-1.378-.533-.477 0-.867.052-1.17.156a5.541 5.541 0 0 0-.82.351c-.233.13-.463.247-.688.351a1.91 1.91 0 0 1-.806.156 1.28 1.28 0 0 1-.715-.195 1.59 1.59 0 0 1-.455-.507l-.728-1.261a8.119 8.119 0 0 1 2.704-1.599 9.453 9.453 0 0 1 3.198-.533c.814 0 1.547.134 2.197.403.658.26 1.213.628 1.664 1.105a4.71 4.71 0 0 1 1.053 1.677c.242.65.364 1.36.364 2.132V20H35.94zm-4.627-2.457c.52 0 .975-.091 1.365-.273.39-.182.784-.477 1.183-.884v-1.872c-.806.035-1.47.104-1.99.208s-.93.234-1.234.39c-.304.156-.516.334-.637.533a1.3 1.3 0 0 0-.17.65c0 .46.126.784.378.975.251.182.62.273 1.105.273zM40.908 20V6.519h2.496c.252 0 .46.056.624.169a.892.892 0 0 1 .364.507l.221.728c.226-.234.46-.446.702-.637.243-.2.503-.368.78-.507.286-.147.59-.26.91-.338.33-.087.69-.13 1.08-.13.814 0 1.486.212 2.014.637.538.416.945.975 1.222 1.677a4.07 4.07 0 0 1 .82-1.066c.329-.295.68-.533 1.052-.715.382-.182.78-.316 1.196-.403.425-.087.845-.13 1.261-.13.772 0 1.456.117 2.054.351A3.762 3.762 0 0 1 59.2 7.663c.408.433.715.97.923 1.612.208.633.312 1.352.312 2.158V20h-4.03v-8.567c0-1.395-.598-2.093-1.794-2.093-.546 0-1 .182-1.365.546-.355.355-.533.871-.533 1.547V20h-4.03v-8.567c0-.771-.151-1.313-.455-1.625-.303-.312-.75-.468-1.339-.468-.364 0-.71.082-1.04.247a3.84 3.84 0 0 0-.91.663V20h-4.03zm27.942 4.277V6.519h2.496c.252 0 .46.056.624.169a.891.891 0 0 1 .364.507l.3.988a7.05 7.05 0 0 1 .831-.78c.304-.234.624-.433.962-.598a5.25 5.25 0 0 1 1.105-.403 5.584 5.584 0 0 1 1.3-.143c.702 0 1.352.156 1.95.468a4.493 4.493 0 0 1 1.547 1.352c.434.59.772 1.313 1.014 2.171.252.85.377 1.816.377 2.899 0 1.014-.143 1.95-.429 2.808-.277.858-.671 1.603-1.183 2.236a5.364 5.364 0 0 1-1.82 1.482c-.702.355-1.482.533-2.34.533-.702 0-1.291-.1-1.768-.299a4.8 4.8 0 0 1-1.3-.806v5.174h-4.03zM75.428 9.34c-.294 0-.563.03-.806.091-.234.052-.455.13-.663.234-.2.104-.385.238-.559.403a5.294 5.294 0 0 0-.52.546v5.72c.304.338.633.576.988.715.356.13.728.195 1.118.195.373 0 .715-.074 1.027-.221.312-.147.58-.381.806-.702.234-.33.416-.754.546-1.274.13-.52.195-1.153.195-1.898 0-.71-.052-1.309-.156-1.794-.104-.485-.251-.875-.442-1.17-.182-.303-.403-.52-.663-.65a1.92 1.92 0 0 0-.87-.195zM88.302.539V20h-4.03V.539h4.03zM101.124 20c-.382 0-.672-.052-.871-.156-.191-.104-.352-.32-.481-.65l-.287-.741a13 13 0 0 1-.975.754 6.431 6.431 0 0 1-.975.559 4.612 4.612 0 0 1-1.066.325 6.11 6.11 0 0 1-1.247.117 5.643 5.643 0 0 1-1.677-.234 3.643 3.643 0 0 1-1.288-.715 3.163 3.163 0 0 1-.806-1.157c-.19-.468-.285-1.005-.285-1.612 0-.477.12-.966.364-1.469.242-.503.662-.958 1.26-1.365.598-.416 1.404-.763 2.418-1.04 1.014-.277 2.293-.433 3.835-.468v-.572c0-.789-.164-1.356-.494-1.703-.32-.355-.78-.533-1.378-.533-.476 0-.866.052-1.17.156a5.541 5.541 0 0 0-.819.351c-.234.13-.463.247-.689.351a1.91 1.91 0 0 1-.805.156 1.28 1.28 0 0 1-.716-.195 1.59 1.59 0 0 1-.454-.507l-.728-1.261a8.119 8.119 0 0 1 2.703-1.599 9.453 9.453 0 0 1 3.199-.533c.814 0 1.547.134 2.197.403a4.56 4.56 0 0 1 1.664 1.105c.459.468.81 1.027 1.053 1.677.242.65.364 1.36.364 2.132V20h-1.846zm-4.628-2.457c.52 0 .975-.091 1.365-.273.39-.182.784-.477 1.182-.884v-1.872c-.806.035-1.469.104-1.989.208s-.931.234-1.234.39c-.304.156-.516.334-.637.533a1.3 1.3 0 0 0-.17.65c0 .46.126.784.377.975.252.182.62.273 1.106.273zm14.599 5.954c-.121.269-.268.464-.442.585-.173.13-.45.195-.832.195h-3.016l2.6-5.46-5.382-12.298h3.562c.312 0 .555.07.728.208.174.139.295.303.364.494l2.21 5.811c.208.537.377 1.075.507 1.612.087-.277.182-.55.286-.819.104-.269.204-.542.299-.819l2.002-5.785c.07-.2.204-.364.403-.494.208-.139.429-.208.663-.208h3.25l-7.202 16.978zm14.384-17.186c.892 0 1.707.139 2.444.416a5.25 5.25 0 0 1 1.911 1.209 5.405 5.405 0 0 1 1.248 1.95c.303.763.455 1.63.455 2.6 0 .303-.013.55-.039.741-.026.19-.074.342-.143.455a.545.545 0 0 1-.286.234c-.113.043-.26.065-.442.065h-7.774c.13 1.127.472 1.946 1.027 2.457.554.503 1.269.754 2.145.754.468 0 .871-.056 1.209-.169a5.82 5.82 0 0 0 .897-.377l.728-.377c.225-.113.459-.169.702-.169.32 0 .563.117.728.351l1.17 1.443a6.074 6.074 0 0 1-1.352 1.17 7.236 7.236 0 0 1-1.482.702 7.856 7.856 0 0 1-1.521.338c-.503.07-.984.104-1.443.104a7.72 7.72 0 0 1-2.665-.455 6.258 6.258 0 0 1-2.171-1.378c-.616-.607-1.105-1.36-1.469-2.262-.356-.901-.533-1.95-.533-3.146 0-.901.151-1.755.455-2.561a6.447 6.447 0 0 1 1.326-2.119 6.393 6.393 0 0 1 2.093-1.443c.823-.355 1.75-.533 2.782-.533zm.078 2.782c-.772 0-1.374.221-1.807.663-.434.433-.72 1.062-.858 1.885h5.031c0-.32-.044-.633-.13-.936a2.088 2.088 0 0 0-.403-.806 1.963 1.963 0 0 0-.728-.585c-.304-.147-.672-.221-1.105-.221zM134.109 20V6.519h2.392c.2 0 .364.017.494.052a.772.772 0 0 1 .338.169c.096.07.165.165.208.286.052.121.096.269.13.442l.221 1.261c.494-.763 1.049-1.365 1.664-1.807a3.382 3.382 0 0 1 2.015-.663c.616 0 1.11.147 1.482.442l-.52 2.964c-.034.182-.104.312-.208.39a.738.738 0 0 1-.416.104c-.147 0-.32-.017-.52-.052a3.634 3.634 0 0 0-.754-.065c-1.057 0-1.889.563-2.496 1.69V20h-4.03z" fill="#121111"/></svg>