<svg fill="none" height="25" viewBox="0 0 144 25" width="144" xmlns="http://www.w3.org/2000/svg"><path d="m6.292 20.208c-.64133 0-1.209-.091-1.703-.273-.48533-.1907-.897-.455-1.235-.793-.32933-.3467-.58067-.7627-.754-1.248s-.26-1.027-.26-1.625v-6.968h-1.144c-.208 0-.385667-.065-.533-.195-.147333-.13867-.221-.338-.221-.598v-1.573l2.145-.416.793-3.289c.104-.416.39867-.624.884-.624h2.106v3.939h3.276v2.756h-3.276v6.695c0 .312.07367.572.221.78.156.1993.377.299.663.299.14733 0 .26867-.013.364-.039.104-.0347.19067-.0693.26-.104.078-.0433.14733-.078.208-.104.06933-.0347.14733-.052.234-.052.12133 0 .21667.0303.286.091.078.052.156.1387.234.26l1.222 1.911c-.52.39-1.105.6847-1.755.884-.65.1907-1.32167.286-2.015.286zm11.7102-13.897c.8926 0 1.7073.13867 2.444.416.7453.27733 1.3823.68033 1.911 1.209.5373.52867.9533 1.17867 1.248 1.95.3033.7627.455 1.6293.455 2.6 0 .3033-.013.5503-.039.741s-.0737.3423-.143.455c-.0694.1127-.1647.1907-.286.234-.1127.0433-.26.065-.442.065h-7.774c.13 1.1267.4723 1.9457 1.027 2.457.5546.5027 1.2696.754 2.145.754.468 0 .871-.0563 1.209-.169s.637-.2383.897-.377c.2686-.1387.5113-.2643.728-.377.2253-.1127.4593-.169.702-.169.3206 0 .5633.117.728.351l1.17 1.443c-.416.4767-.8667.8667-1.352 1.17-.4767.2947-.9707.5287-1.482.702-.5027.1647-1.0097.2773-1.521.338-.5027.0693-.9837.104-1.443.104-.9447 0-1.833-.1517-2.665-.455-.8234-.312-1.547-.7713-2.171-1.378-.6154-.6067-1.105-1.3607-1.469-2.262-.3554-.9013-.533-1.95-.533-3.146 0-.9013.1516-1.755.455-2.561.312-.806.754-1.51233 1.326-2.119.5806-.60667 1.2783-1.08767 2.093-1.443.8233-.35533 1.7506-.533 2.782-.533zm.078 2.782c-.7714 0-1.3737.221-1.807.663-.4334.4333-.7194 1.0617-.858 1.885h5.031c0-.3207-.0434-.6327-.13-.936-.078-.3033-.2124-.572-.403-.806-.182-.24267-.4247-.43767-.728-.585-.3034-.14733-.6717-.221-1.105-.221zm17.8605 10.907c-.3813 0-.6716-.052-.871-.156-.1906-.104-.351-.3207-.481-.65l-.286-.741c-.338.286-.663.5373-.975.754s-.637.403-.975.559c-.3293.1473-.6846.2557-1.066.325-.3726.078-.7886.117-1.248.117-.6153 0-1.1743-.078-1.677-.234-.5026-.1647-.9316-.403-1.287-.715-.3466-.312-.6153-.6977-.806-1.157-.1906-.468-.286-1.0053-.286-1.612 0-.4767.1214-.9663.364-1.469.2427-.5027.663-.9577 1.261-1.365.598-.416 1.404-.7627 2.418-1.04s2.2924-.4333 3.835-.468v-.572c0-.7887-.1646-1.3563-.494-1.703-.3206-.35533-.78-.533-1.378-.533-.4766 0-.8666.052-1.17.156-.3033.104-.5763.221-.819.351-.234.13-.4636.247-.689.351-.2253.104-.494.156-.806.156-.2773 0-.5156-.065-.715-.195-.1906-.1387-.3423-.30767-.455-.507l-.728-1.261c.8147-.71933 1.716-1.25233 2.704-1.599.9967-.35533 2.0627-.533 3.198-.533.8147 0 1.547.13433 2.197.403.6587.26 1.2134.62833 1.664 1.105.4594.468.8104 1.027 1.053 1.677.2427.65.364 1.3607.364 2.132v8.424zm-4.628-2.457c.52 0 .975-.091 1.365-.273s.7844-.4767 1.183-.884v-1.872c-.806.0347-1.469.104-1.989.208s-.9316.234-1.235.39c-.3033.156-.5156.3337-.637.533-.1126.1993-.169.416-.169.65 0 .4593.1257.7843.377.975.2514.182.6197.273 1.105.273zm9.5957 2.457v-13.481h2.496c.2513 0 .4593.05633.624.169.1733.11267.2946.28167.364.507l.221.728c.2253-.234.4593-.44633.702-.637.2426-.19933.5026-.36833.78-.507.286-.14733.5893-.26.91-.338.3293-.08667.689-.13 1.079-.13.8146 0 1.4863.21233 2.015.637.5373.416.9446.975 1.222 1.677.2253-.416.4983-.77133.819-1.066.3293-.29467.6803-.533 1.053-.715.3813-.182.78-.31633 1.196-.403.4246-.08667.845-.13 1.261-.13.7713 0 1.456.117 2.054.351.598.22533 1.0963.559 1.495 1.001.4073.43333.715.97067.923 1.612.208.63267.312 1.352.312 2.158v8.567h-4.03v-8.567c0-1.3953-.598-2.093-1.794-2.093-.546 0-1.001.182-1.365.546-.3554.3553-.533.871-.533 1.547v8.567h-4.03v-8.567c0-.7713-.1517-1.313-.455-1.625-.3034-.312-.7497-.468-1.339-.468-.364 0-.7107.08233-1.04.247-.3207.16467-.624.38567-.91.663v9.75zm27.9418 4.277v-17.758h2.496c.2514 0 .4594.05633.624.169.1734.11267.2947.28167.364.507l.299.988c.26-.286.5374-.546.832-.78.3034-.234.624-.43333.962-.598.3467-.17333.715-.30767 1.105-.403.3987-.09533.832-.143 1.3-.143.702 0 1.352.156 1.95.468s1.1137.76267 1.547 1.352c.4334.58933.7714 1.313 1.014 2.171.2514.8493.377 1.8157.377 2.899 0 1.014-.143 1.95-.429 2.808-.2773.858-.6716 1.6033-1.183 2.236-.5026.6327-1.1093 1.1267-1.82 1.482-.702.3553-1.482.533-2.34.533-.702 0-1.2913-.0997-1.768-.299-.4766-.1993-.91-.468-1.3-.806v5.174zm6.578-14.937c-.2946 0-.5633.03033-.806.091-.234.052-.455.13-.663.234-.1993.104-.3856.23833-.559.403-.1733.156-.3466.338-.52.546v5.72c.3034.338.6327.5763.988.715.3554.13.728.195 1.118.195.3727 0 .715-.0737 1.027-.221s.5807-.3813.806-.702c.234-.3293.416-.754.546-1.274s.195-1.1527.195-1.898c0-.7107-.052-1.3087-.156-1.794s-.2513-.8753-.442-1.17c-.182-.30333-.403-.52-.663-.65s-.5503-.195-.871-.195zm12.8733-8.801001v19.461001h-4.03v-19.461001zm12.8225 19.461001c-.382 0-.672-.052-.871-.156-.191-.104-.3515-.3207-.4815-.65l-.286-.741c-.338.286-.663.5373-.975.754s-.637.403-.975.559c-.3293.1473-.6846.2557-1.066.325-.3726.078-.7886.117-1.248.117-.6153 0-1.1743-.078-1.677-.234-.5026-.1647-.9316-.403-1.287-.715-.3466-.312-.6153-.6977-.806-1.157-.1906-.468-.286-1.0053-.286-1.612 0-.4767.1214-.9663.364-1.469.2427-.5027.663-.9577 1.261-1.365.598-.416 1.404-.7627 2.418-1.04s2.2924-.4333 3.835-.468v-.572c0-.7887-.1646-1.3563-.494-1.703-.3206-.35533-.78-.533-1.378-.533-.4766 0-.8666.052-1.17.156-.3033.104-.5763.221-.819.351-.234.13-.4636.247-.689.351-.2253.104-.494.156-.806.156-.2773 0-.5156-.065-.715-.195-.1906-.1387-.3423-.30767-.455-.507l-.728-1.261c.8147-.71933 1.716-1.25233 2.704-1.599.9967-.35533 2.0627-.533 3.198-.533.8147 0 1.547.13433 2.197.403.6585.26 1.2135.62833 1.6645 1.105.459.468.81 1.027 1.053 1.677.242.65.364 1.3607.364 2.132v8.424zm-4.6285-2.457c.52 0 .975-.091 1.365-.273s.7844-.4767 1.183-.884v-1.872c-.806.0347-1.469.104-1.989.208s-.9316.234-1.235.39c-.3033.156-.5156.3337-.637.533-.1126.1993-.169.416-.169.65 0 .4593.1257.7843.377.975.2514.182.6197.273 1.105.273zm14.5995 5.954c-.121.2687-.268.4637-.442.585-.173.13-.45.195-.832.195h-3.016l2.6-5.46-5.382-12.298h3.562c.312 0 .555.06933.728.208.174.13867.295.30333.364.494l2.21 5.811c.208.5373.377 1.0747.507 1.612.087-.2773.182-.5503.286-.819s.204-.5417.299-.819l2.002-5.785c.07-.19933.204-.364.403-.494.208-.13867.429-.208.663-.208h3.25zm14.384-17.186c.892 0 1.707.13867 2.444.416.745.27733 1.382.68033 1.911 1.209.537.52867.953 1.17867 1.248 1.95.303.7627.455 1.6293.455 2.6 0 .3033-.013.5503-.039.741s-.074.3423-.143.455c-.07.1127-.165.1907-.286.234-.113.0433-.26.065-.442.065h-7.774c.13 1.1267.472 1.9457 1.027 2.457.554.5027 1.269.754 2.145.754.468 0 .871-.0563 1.209-.169s.637-.2383.897-.377c.268-.1387.511-.2643.728-.377.225-.1127.459-.169.702-.169.32 0 .563.117.728.351l1.17 1.443c-.416.4767-.867.8667-1.352 1.17-.477.2947-.971.5287-1.482.702-.503.1647-1.01.2773-1.521.338-.503.0693-.984.104-1.443.104-.945 0-1.833-.1517-2.665-.455-.824-.312-1.547-.7713-2.171-1.378-.616-.6067-1.105-1.3607-1.469-2.262-.356-.9013-.533-1.95-.533-3.146 0-.9013.151-1.755.455-2.561.312-.806.754-1.51233 1.326-2.119.58-.60667 1.278-1.08767 2.093-1.443.823-.35533 1.75-.533 2.782-.533zm.078 2.782c-.772 0-1.374.221-1.807.663-.434.4333-.72 1.0617-.858 1.885h5.031c0-.3207-.044-.6327-.13-.936-.078-.3033-.213-.572-.403-.806-.182-.24267-.425-.43767-.728-.585-.304-.14733-.672-.221-1.105-.221zm8.552 10.907v-13.481h2.392c.2 0 .364.01733.494.052.139.03467.252.091.338.169.096.06933.165.16467.208.286.052.12133.096.26867.13.442l.221 1.261c.494-.76267 1.049-1.365 1.664-1.807.616-.442 1.287-.663 2.015-.663.616 0 1.11.14733 1.482.442l-.52 2.964c-.034.182-.104.312-.208.39-.104.0693-.242.104-.416.104-.147 0-.32-.0173-.52-.052-.199-.0433-.45-.065-.754-.065-1.057 0-1.889.5633-2.496 1.69v8.268z" fill="#121111"/></svg>