<svg width="334" height="64" fill="none" xmlns="http://www.w3.org/2000/svg"><path d="M74.096 59h-4.42v-8.008H61.98V59h-4.42V40.059h4.42v7.917h7.696v-7.917h4.42V59zm15.57-18.941v3.38h-7.774v4.42h5.954v3.25h-5.954v4.511h7.774V59H77.472V40.059h12.194zm7.162 11.934V59h-4.395V40.059h6.162c1.37 0 2.536.143 3.498.429.97.277 1.759.667 2.366 1.17a4.44 4.44 0 0 1 1.339 1.781c.277.685.416 1.43.416 2.236 0 .615-.083 1.196-.247 1.742a5.288 5.288 0 0 1-.741 1.521c-.321.46-.72.871-1.196 1.235a6.243 6.243 0 0 1-1.625.897 4 4 0 0 1 .819.546c.26.217.485.481.676.793L107.93 59h-3.978c-.737 0-1.266-.277-1.586-.832l-3.147-5.499c-.138-.243-.303-.416-.493-.52-.183-.104-.442-.156-.78-.156h-1.118zm0-3.029h1.767c.599 0 1.106-.074 1.522-.221a2.828 2.828 0 0 0 1.04-.637c.268-.269.463-.58.585-.936.121-.364.182-.754.182-1.17 0-.832-.273-1.482-.819-1.95-.538-.468-1.374-.702-2.51-.702h-1.767v5.616zm25.351-8.905v3.38h-7.774v4.42h5.954v3.25h-5.954v4.511h7.774V59h-12.194V40.059h12.194zM147.861 59h-3.406c-.381 0-.698-.087-.949-.26a1.421 1.421 0 0 1-.507-.689l-1.118-3.302h-7.202l-1.118 3.302c-.087.243-.256.464-.507.663-.251.19-.559.286-.923.286h-3.432l7.332-18.941h4.498L147.861 59zm-12.168-7.241h5.174l-1.742-5.187c-.113-.33-.247-.715-.403-1.157-.147-.45-.295-.936-.442-1.456a26.395 26.395 0 0 1-.429 1.469c-.147.45-.286.84-.416 1.17l-1.742 5.161zm18.364.234V59h-4.394V40.059h6.162c1.369 0 2.535.143 3.497.429.971.277 1.759.667 2.366 1.17.615.503 1.062 1.096 1.339 1.781.277.685.416 1.43.416 2.236 0 .615-.082 1.196-.247 1.742a5.288 5.288 0 0 1-.741 1.521 5.54 5.54 0 0 1-1.196 1.235 6.243 6.243 0 0 1-1.625.897c.295.147.568.33.819.546.26.217.485.481.676.793l4.03 6.591h-3.978c-.737 0-1.265-.277-1.586-.832l-3.146-5.499c-.139-.243-.303-.416-.494-.52-.182-.104-.442-.156-.78-.156h-1.118zm0-3.029h1.768c.598 0 1.105-.074 1.521-.221a2.82 2.82 0 0 0 1.04-.637c.269-.269.464-.58.585-.936.121-.364.182-.754.182-1.17 0-.832-.273-1.482-.819-1.95-.537-.468-1.374-.702-2.509-.702h-1.768v5.616zm25.351-8.905v3.38h-7.774v4.42h5.954v3.25h-5.954v4.511h7.774V59h-12.194V40.059h12.194zm17.739 10.283c.174.33.338.672.494 1.027.165.355.321.72.468 1.092a24.626 24.626 0 0 1 .975-2.158l4.862-9.568c.087-.165.174-.29.26-.377a.908.908 0 0 1 .312-.208c.113-.043.239-.07.377-.078a8.74 8.74 0 0 1 .507-.013h3.354V59h-3.874V48.106c0-.529.026-1.1.078-1.716l-5.018 9.737a1.637 1.637 0 0 1-.637.689 1.71 1.71 0 0 1-.897.234h-.598a1.78 1.78 0 0 1-.91-.234 1.668 1.668 0 0 1-.624-.689l-5.044-9.75a15.508 15.508 0 0 1 .104 1.729V59h-3.874V40.059h3.354c.191 0 .356.004.494.013.148.009.278.035.39.078a.772.772 0 0 1 .299.208c.096.087.187.212.273.377l4.875 9.607zm24.439 1.456V59h-4.394v-7.202l-6.864-11.739h3.874c.382 0 .685.091.91.273.226.173.408.399.546.676l2.678 5.512.598 1.222c.182.373.343.741.481 1.105.13-.373.286-.745.468-1.118.182-.373.377-.776.585-1.209l2.652-5.512c.052-.113.122-.225.208-.338.096-.113.2-.212.312-.299.122-.095.256-.169.403-.221a1.4 1.4 0 0 1 .507-.091h3.9l-6.864 11.739zm12.275-11.739h3.692c.382 0 .698.087.949.26.26.173.429.403.507.689l2.6 9.88c.087.32.174.663.26 1.027.087.364.152.745.195 1.144.087-.407.182-.789.286-1.144.104-.364.204-.706.299-1.027l3.068-9.88c.078-.243.243-.46.494-.65.26-.2.572-.299.936-.299h1.3c.382 0 .694.087.936.26.252.165.425.394.52.689l3.042 9.88c.096.303.195.628.299.975.104.338.195.702.273 1.092.07-.381.139-.745.208-1.092.078-.347.156-.672.234-.975l2.6-9.88c.07-.251.234-.472.494-.663.26-.19.572-.286.936-.286h3.458L255.597 59h-3.978l-3.562-11.739-.195-.598c-.06-.217-.121-.446-.182-.689-.06.243-.125.472-.195.689-.06.217-.121.416-.182.598L243.689 59h-3.978l-5.85-18.941zm48.238 9.464c0 1.37-.238 2.643-.715 3.822a9.2 9.2 0 0 1-1.989 3.081c-.858.867-1.894 1.547-3.107 2.041-1.205.494-2.544.741-4.017.741-1.473 0-2.817-.247-4.03-.741s-2.253-1.174-3.12-2.041a9.373 9.373 0 0 1-2.002-3.081c-.468-1.179-.702-2.453-.702-3.822 0-1.37.234-2.643.702-3.822a9.228 9.228 0 0 1 2.002-3.068c.867-.867 1.907-1.547 3.12-2.041s2.557-.741 4.03-.741c1.473 0 2.812.251 4.017.754 1.213.494 2.249 1.174 3.107 2.041a9.06 9.06 0 0 1 1.989 3.068c.477 1.179.715 2.448.715 3.809zm-4.498 0c0-.936-.121-1.777-.364-2.522-.243-.754-.594-1.391-1.053-1.911a4.455 4.455 0 0 0-1.664-1.196c-.659-.277-1.408-.416-2.249-.416-.849 0-1.608.139-2.275.416a4.566 4.566 0 0 0-1.677 1.196c-.451.52-.797 1.157-1.04 1.911-.243.745-.364 1.586-.364 2.522 0 .945.121 1.794.364 2.548.243.745.589 1.378 1.04 1.898.459.52 1.018.919 1.677 1.196.667.269 1.426.403 2.275.403.841 0 1.59-.134 2.249-.403a4.455 4.455 0 0 0 1.664-1.196c.459-.52.81-1.153 1.053-1.898.243-.754.364-1.603.364-2.548zm11.253 2.47V59h-4.394V40.059h6.162c1.369 0 2.535.143 3.497.429.97.277 1.759.667 2.366 1.17a4.44 4.44 0 0 1 1.339 1.781c.277.685.416 1.43.416 2.236 0 .615-.083 1.196-.247 1.742a5.288 5.288 0 0 1-.741 1.521c-.321.46-.72.871-1.196 1.235a6.243 6.243 0 0 1-1.625.897 4 4 0 0 1 .819.546c.26.217.485.481.676.793l4.03 6.591h-3.978c-.737 0-1.266-.277-1.586-.832l-3.146-5.499c-.139-.243-.304-.416-.494-.52-.182-.104-.442-.156-.78-.156h-1.118zm0-3.029h1.768c.598 0 1.105-.074 1.521-.221a2.828 2.828 0 0 0 1.04-.637c.268-.269.463-.58.585-.936.121-.364.182-.754.182-1.17 0-.832-.273-1.482-.819-1.95-.538-.468-1.374-.702-2.509-.702h-1.768v5.616zm17.551-1.235h.702c.65 0 1.118-.204 1.404-.611l4.264-6.188c.234-.338.498-.568.793-.689.303-.121.671-.182 1.105-.182h3.822l-5.616 7.657c-.2.277-.408.507-.624.689a3.957 3.957 0 0 1-.663.455c.329.121.628.29.897.507.277.208.528.49.754.845l5.72 8.788h-3.926c-.252 0-.468-.017-.65-.052a1.646 1.646 0 0 1-.455-.156 1.41 1.41 0 0 1-.338-.247 2.766 2.766 0 0 1-.273-.351l-4.29-6.591a1.25 1.25 0 0 0-.598-.507c-.234-.104-.555-.156-.962-.156h-1.066V59h-4.394V40.059h4.394v7.67zm24.982-3.822a1.59 1.59 0 0 1-.416.468c-.138.104-.32.156-.546.156-.199 0-.416-.06-.65-.182-.225-.13-.485-.273-.78-.429a5.827 5.827 0 0 0-.988-.416 3.853 3.853 0 0 0-1.274-.195c-.823 0-1.438.178-1.846.533-.398.347-.598.819-.598 1.417 0 .381.122.698.364.949.243.251.559.468.949.65.399.182.85.351 1.352.507a24.69 24.69 0 0 1 1.56.507c.529.182 1.045.399 1.547.65a5.03 5.03 0 0 1 1.352.962c.399.39.72.867.962 1.43.243.555.364 1.226.364 2.015 0 .875-.151 1.694-.455 2.457a5.765 5.765 0 0 1-1.326 2.002c-.572.563-1.282 1.01-2.132 1.339-.84.32-1.798.481-2.873.481-.589 0-1.191-.06-1.807-.182a11.175 11.175 0 0 1-1.768-.507 10.728 10.728 0 0 1-1.612-.793 6.878 6.878 0 0 1-1.313-1.014l1.3-2.054a1.145 1.145 0 0 1 .962-.52c.26 0 .52.082.78.247.269.165.568.347.897.546.338.2.724.381 1.157.546.434.165.945.247 1.534.247.798 0 1.417-.173 1.859-.52.442-.355.663-.914.663-1.677 0-.442-.121-.802-.364-1.079a2.79 2.79 0 0 0-.962-.689 8.541 8.541 0 0 0-1.339-.481 50.02 50.02 0 0 1-1.547-.455 12.597 12.597 0 0 1-1.547-.624 5.185 5.185 0 0 1-1.352-.975 4.72 4.72 0 0 1-.949-1.508c-.242-.607-.364-1.352-.364-2.236a5.379 5.379 0 0 1 1.69-3.887c.555-.529 1.235-.949 2.041-1.261.806-.32 1.729-.481 2.769-.481a9.81 9.81 0 0 1 1.69.143 8.197 8.197 0 0 1 1.573.403c.494.173.954.386 1.378.637.434.243.819.52 1.157.832l-1.092 2.041z" fill="#4263EB" fill-opacity=".35"/><path d="M46.096 43h-4.42v-8.008H33.98V43h-4.42V24.059h4.42v7.917h7.696v-7.917h4.42V43zm15.57-18.941v3.38h-7.774v4.42h5.954v3.25h-5.954v4.511h7.774V43H49.472V24.059h12.194zm7.162 11.934V43h-4.395V24.059h6.162c1.37 0 2.535.143 3.498.429.97.277 1.759.667 2.365 1.17a4.43 4.43 0 0 1 1.34 1.781 5.9 5.9 0 0 1 .415 2.236c0 .615-.082 1.196-.246 1.742a5.268 5.268 0 0 1-.742 1.521c-.32.46-.719.871-1.195 1.235a6.236 6.236 0 0 1-1.626.897c.295.147.568.33.82.546.26.217.485.481.675.793L79.93 43h-3.978c-.736 0-1.265-.277-1.585-.832l-3.147-5.499c-.138-.243-.303-.416-.493-.52-.183-.104-.442-.156-.78-.156h-1.118zm0-3.029h1.767c.599 0 1.106-.074 1.522-.221a2.82 2.82 0 0 0 1.04-.637c.268-.269.463-.58.585-.936.12-.364.181-.754.181-1.17 0-.832-.273-1.482-.819-1.95-.537-.468-1.373-.702-2.508-.702h-1.769v5.616zm25.35-8.905v3.38h-7.773v4.42h5.954v3.25h-5.954v4.511h7.773V43H81.984V24.059H94.18zM119.862 43h-3.406c-.381 0-.698-.087-.949-.26a1.421 1.421 0 0 1-.507-.689l-1.118-3.302h-7.202l-1.118 3.302c-.087.243-.256.464-.507.663-.251.19-.559.286-.923.286H100.7l7.332-18.941h4.498L119.861 43zm-12.168-7.241h5.174l-1.742-5.187c-.113-.33-.247-.715-.403-1.157-.147-.45-.295-.936-.442-1.456a26.395 26.395 0 0 1-.429 1.469c-.147.45-.286.84-.416 1.17l-1.742 5.161zm18.364.234V43h-4.394V24.059h6.162c1.369 0 2.535.143 3.497.429.971.277 1.759.667 2.366 1.17.615.503 1.062 1.096 1.339 1.781.277.685.416 1.43.416 2.236 0 .615-.082 1.196-.247 1.742a5.288 5.288 0 0 1-.741 1.521 5.54 5.54 0 0 1-1.196 1.235 6.243 6.243 0 0 1-1.625.897c.295.147.568.33.819.546.26.217.485.481.676.793L137.16 43h-3.978c-.737 0-1.265-.277-1.586-.832l-3.146-5.499c-.139-.243-.303-.416-.494-.52-.182-.104-.442-.156-.78-.156h-1.118zm0-3.029h1.768c.598 0 1.105-.074 1.521-.221a2.82 2.82 0 0 0 1.04-.637c.269-.269.464-.58.585-.936.121-.364.182-.754.182-1.17 0-.832-.273-1.482-.819-1.95-.537-.468-1.374-.702-2.509-.702h-1.768v5.616zm25.351-8.905v3.38h-7.774v4.42h5.954v3.25h-5.954v4.511h7.774V43h-12.194V24.059h12.194zm17.739 10.283c.174.33.338.672.494 1.027.165.355.321.72.468 1.092a24.626 24.626 0 0 1 .975-2.158l4.862-9.568c.087-.165.174-.29.26-.377a.908.908 0 0 1 .312-.208c.113-.043.239-.07.377-.078a8.74 8.74 0 0 1 .507-.013h3.354V43h-3.874V32.106c0-.529.026-1.1.078-1.716l-5.018 9.737a1.637 1.637 0 0 1-.637.689 1.71 1.71 0 0 1-.897.234h-.598a1.78 1.78 0 0 1-.91-.234 1.668 1.668 0 0 1-.624-.689l-5.044-9.75a15.508 15.508 0 0 1 .104 1.729V43h-3.874V24.059h3.354c.191 0 .356.004.494.013.148.009.278.035.39.078a.772.772 0 0 1 .299.208c.096.087.187.212.273.377l4.875 9.607zm24.439 1.456V43h-4.394v-7.202l-6.864-11.739h3.874c.382 0 .685.091.91.273.226.173.408.399.546.676l2.678 5.512.598 1.222c.182.373.343.741.481 1.105.13-.373.286-.745.468-1.118.182-.373.377-.776.585-1.209l2.652-5.512c.052-.113.122-.225.208-.338.096-.113.2-.212.312-.299.122-.095.256-.169.403-.221a1.4 1.4 0 0 1 .507-.091h3.9l-6.864 11.739zm12.275-11.739h3.692c.382 0 .698.087.949.26.26.173.429.403.507.689l2.6 9.88c.087.32.174.663.26 1.027.087.364.152.745.195 1.144.087-.407.182-.789.286-1.144.104-.364.204-.706.299-1.027l3.068-9.88c.078-.243.243-.46.494-.65.26-.2.572-.299.936-.299h1.3c.382 0 .694.087.936.26.252.165.425.394.52.689l3.042 9.88c.096.303.195.628.299.975.104.338.195.702.273 1.092.07-.381.139-.745.208-1.092.078-.347.156-.672.234-.975l2.6-9.88c.07-.251.234-.472.494-.663.26-.19.572-.286.936-.286h3.458L227.597 43h-3.978l-3.562-11.739-.195-.598c-.06-.217-.121-.446-.182-.689-.06.243-.125.472-.195.689-.06.217-.121.416-.182.598L215.689 43h-3.978l-5.85-18.941zm48.238 9.464c0 1.37-.238 2.643-.715 3.822a9.2 9.2 0 0 1-1.989 3.081c-.858.867-1.894 1.547-3.107 2.041-1.205.494-2.544.741-4.017.741-1.473 0-2.817-.247-4.03-.741s-2.253-1.174-3.12-2.041a9.373 9.373 0 0 1-2.002-3.081c-.468-1.179-.702-2.453-.702-3.822 0-1.37.234-2.643.702-3.822a9.228 9.228 0 0 1 2.002-3.068c.867-.867 1.907-1.547 3.12-2.041s2.557-.741 4.03-.741c1.473 0 2.812.251 4.017.754 1.213.494 2.249 1.174 3.107 2.041a9.06 9.06 0 0 1 1.989 3.068c.477 1.179.715 2.448.715 3.809zm-4.498 0c0-.936-.121-1.777-.364-2.522-.243-.754-.594-1.391-1.053-1.911a4.455 4.455 0 0 0-1.664-1.196c-.659-.277-1.408-.416-2.249-.416-.849 0-1.608.139-2.275.416a4.566 4.566 0 0 0-1.677 1.196c-.451.52-.797 1.157-1.04 1.911-.243.745-.364 1.586-.364 2.522 0 .945.121 1.794.364 2.548.243.745.589 1.378 1.04 1.898.459.52 1.018.919 1.677 1.196.667.269 1.426.403 2.275.403.841 0 1.59-.134 2.249-.403a4.455 4.455 0 0 0 1.664-1.196c.459-.52.81-1.153 1.053-1.898.243-.754.364-1.603.364-2.548zm11.253 2.47V43h-4.394V24.059h6.162c1.369 0 2.535.143 3.497.429.97.277 1.759.667 2.366 1.17a4.44 4.44 0 0 1 1.339 1.781c.277.685.416 1.43.416 2.236 0 .615-.083 1.196-.247 1.742a5.288 5.288 0 0 1-.741 1.521c-.321.46-.72.871-1.196 1.235a6.243 6.243 0 0 1-1.625.897 4 4 0 0 1 .819.546c.26.217.485.481.676.793l4.03 6.591h-3.978c-.737 0-1.266-.277-1.586-.832l-3.146-5.499c-.139-.243-.304-.416-.494-.52-.182-.104-.442-.156-.78-.156h-1.118zm0-3.029h1.768c.598 0 1.105-.074 1.521-.221a2.828 2.828 0 0 0 1.04-.637c.268-.269.463-.58.585-.936.121-.364.182-.754.182-1.17 0-.832-.273-1.482-.819-1.95-.538-.468-1.374-.702-2.509-.702h-1.768v5.616zm17.551-1.235h.702c.65 0 1.118-.204 1.404-.611l4.264-6.188c.234-.338.498-.568.793-.689.303-.121.671-.182 1.105-.182h3.822l-5.616 7.657c-.2.277-.408.507-.624.689a3.957 3.957 0 0 1-.663.455c.329.121.628.29.897.507.277.208.528.49.754.845l5.72 8.788h-3.926c-.252 0-.468-.017-.65-.052a1.646 1.646 0 0 1-.455-.156 1.41 1.41 0 0 1-.338-.247 2.766 2.766 0 0 1-.273-.351l-4.29-6.591a1.25 1.25 0 0 0-.598-.507c-.234-.104-.555-.156-.962-.156h-1.066V43h-4.394V24.059h4.394v7.67zm24.982-3.822a1.59 1.59 0 0 1-.416.468c-.138.104-.32.156-.546.156-.199 0-.416-.06-.65-.182-.225-.13-.485-.273-.78-.429a5.827 5.827 0 0 0-.988-.416 3.853 3.853 0 0 0-1.274-.195c-.823 0-1.438.178-1.846.533-.398.347-.598.819-.598 1.417 0 .381.122.698.364.949.243.251.559.468.949.65.399.182.85.351 1.352.507a24.69 24.69 0 0 1 1.56.507c.529.182 1.045.399 1.547.65a5.03 5.03 0 0 1 1.352.962c.399.39.72.867.962 1.43.243.555.364 1.226.364 2.015 0 .875-.151 1.694-.455 2.457a5.765 5.765 0 0 1-1.326 2.002c-.572.563-1.282 1.01-2.132 1.339-.84.32-1.798.481-2.873.481-.589 0-1.191-.06-1.807-.182a11.175 11.175 0 0 1-1.768-.507 10.728 10.728 0 0 1-1.612-.793 6.878 6.878 0 0 1-1.313-1.014l1.3-2.054a1.145 1.145 0 0 1 .962-.52c.26 0 .52.082.78.247.269.165.568.347.897.546.338.2.724.381 1.157.546.434.165.945.247 1.534.247.798 0 1.417-.173 1.859-.52.442-.355.663-.914.663-1.677 0-.442-.121-.802-.364-1.079a2.79 2.79 0 0 0-.962-.689 8.541 8.541 0 0 0-1.339-.481 50.02 50.02 0 0 1-1.547-.455 12.597 12.597 0 0 1-1.547-.624 5.185 5.185 0 0 1-1.352-.975 4.72 4.72 0 0 1-.949-1.508c-.242-.607-.364-1.352-.364-2.236a5.379 5.379 0 0 1 1.69-3.887c.555-.529 1.235-.949 2.041-1.261.806-.32 1.729-.481 2.769-.481a9.81 9.81 0 0 1 1.69.143 8.197 8.197 0 0 1 1.573.403c.494.173.954.386 1.378.637.434.243.819.52 1.157.832l-1.092 2.041z" fill="#47F6CB" fill-opacity=".9"/><path d="M18.096 26h-4.42v-8.008H5.98V26H1.56V7.059h4.42v7.917h7.696V7.059h4.42V26zm15.57-18.941v3.38h-7.774v4.42h5.954v3.25h-5.954v4.511h7.774V26H21.472V7.059h12.194zm7.162 11.934V26h-4.395V7.059h6.163c1.369 0 2.535.143 3.497.429.97.277 1.759.667 2.365 1.17a4.43 4.43 0 0 1 1.34 1.781 5.9 5.9 0 0 1 .416 2.236c0 .615-.083 1.196-.247 1.742a5.268 5.268 0 0 1-.742 1.521c-.32.46-.719.871-1.196 1.235a6.236 6.236 0 0 1-1.625.897c.295.147.568.33.82.546.26.217.485.481.676.793L51.93 26h-3.978c-.737 0-1.266-.277-1.587-.832l-3.146-5.499c-.138-.243-.303-.416-.494-.52-.181-.104-.442-.156-.78-.156h-1.117zm0-3.029h1.767c.599 0 1.105-.074 1.522-.221a2.82 2.82 0 0 0 1.04-.637c.268-.269.463-.58.585-.936.12-.364.181-.754.181-1.17 0-.832-.273-1.482-.819-1.95-.537-.468-1.373-.702-2.508-.702h-1.768v5.616zm25.35-8.905v3.38h-7.773v4.42h5.954v3.25h-5.954v4.511h7.773V26H53.984V7.059h12.194zM91.862 26h-3.406c-.381 0-.698-.087-.949-.26a1.426 1.426 0 0 1-.507-.689l-1.118-3.302H78.68l-1.118 3.302c-.087.243-.256.464-.507.663-.251.19-.559.286-.923.286H72.7l7.332-18.941h4.498L91.861 26zm-12.168-7.241h5.174l-1.742-5.187c-.113-.33-.247-.715-.403-1.157a38.12 38.12 0 0 1-.442-1.456 25.891 25.891 0 0 1-.429 1.469c-.147.45-.286.84-.416 1.17l-1.742 5.161zm18.364.234V26h-4.394V7.059h6.162c1.369 0 2.535.143 3.497.429.971.277 1.759.667 2.366 1.17.615.503 1.062 1.096 1.339 1.781.277.685.416 1.43.416 2.236 0 .615-.082 1.196-.247 1.742a5.288 5.288 0 0 1-.741 1.521 5.54 5.54 0 0 1-1.196 1.235 6.243 6.243 0 0 1-1.625.897c.295.147.568.33.819.546.26.217.485.481.676.793L109.16 26h-3.978c-.737 0-1.265-.277-1.586-.832l-3.146-5.499c-.139-.243-.303-.416-.494-.52-.182-.104-.442-.156-.78-.156h-1.118zm0-3.029h1.768c.598 0 1.105-.074 1.521-.221a2.82 2.82 0 0 0 1.04-.637c.269-.269.464-.58.585-.936.121-.364.182-.754.182-1.17 0-.832-.273-1.482-.819-1.95-.537-.468-1.374-.702-2.509-.702h-1.768v5.616zm25.351-8.905v3.38h-7.774v4.42h5.954v3.25h-5.954v4.511h7.774V26h-12.194V7.059h12.194zm17.739 10.283c.174.33.338.672.494 1.027.165.355.321.72.468 1.092a24.626 24.626 0 0 1 .975-2.158l4.862-9.568c.087-.165.174-.29.26-.377a.908.908 0 0 1 .312-.208c.113-.043.239-.07.377-.078a8.48 8.48 0 0 1 .507-.013h3.354V26h-3.874V15.106c0-.529.026-1.1.078-1.716l-5.018 9.737a1.637 1.637 0 0 1-.637.689 1.71 1.71 0 0 1-.897.234h-.598a1.78 1.78 0 0 1-.91-.234 1.668 1.668 0 0 1-.624-.689l-5.044-9.75a15.508 15.508 0 0 1 .104 1.729V26h-3.874V7.059h3.354c.191 0 .356.004.494.013.148.009.278.035.39.078a.772.772 0 0 1 .299.208c.096.087.187.212.273.377l4.875 9.607zm24.439 1.456V26h-4.394v-7.202l-6.864-11.739h3.874c.382 0 .685.091.91.273.226.173.408.399.546.676l2.678 5.512.598 1.222c.182.373.343.741.481 1.105.13-.373.286-.745.468-1.118.182-.373.377-.776.585-1.209l2.652-5.512c.052-.113.122-.225.208-.338.096-.113.2-.212.312-.299.122-.095.256-.169.403-.221a1.4 1.4 0 0 1 .507-.091h3.9l-6.864 11.739zm12.275-11.739h3.692c.382 0 .698.087.949.26.26.173.429.403.507.689l2.6 9.88c.087.32.174.663.26 1.027.087.364.152.745.195 1.144.087-.407.182-.789.286-1.144.104-.364.204-.706.299-1.027l3.068-9.88c.078-.243.243-.46.494-.65.26-.2.572-.299.936-.299h1.3c.382 0 .694.087.936.26.252.165.425.394.52.689l3.042 9.88c.096.303.195.628.299.975.104.338.195.702.273 1.092.07-.381.139-.745.208-1.092.078-.347.156-.672.234-.975l2.6-9.88c.07-.251.234-.472.494-.663.26-.19.572-.286.936-.286h3.458L199.597 26h-3.978l-3.562-11.739-.195-.598c-.06-.217-.121-.446-.182-.689-.06.243-.125.472-.195.689-.06.217-.121.416-.182.598L187.689 26h-3.978l-5.85-18.941zm48.238 9.464c0 1.37-.238 2.643-.715 3.822a9.2 9.2 0 0 1-1.989 3.081c-.858.867-1.894 1.547-3.107 2.041-1.205.494-2.544.741-4.017.741-1.473 0-2.817-.247-4.03-.741s-2.253-1.174-3.12-2.041a9.373 9.373 0 0 1-2.002-3.081c-.468-1.179-.702-2.453-.702-3.822 0-1.37.234-2.643.702-3.822a9.228 9.228 0 0 1 2.002-3.068c.867-.867 1.907-1.547 3.12-2.041s2.557-.741 4.03-.741c1.473 0 2.812.251 4.017.754 1.213.494 2.249 1.174 3.107 2.041a9.06 9.06 0 0 1 1.989 3.068c.477 1.179.715 2.448.715 3.809zm-4.498 0c0-.936-.121-1.777-.364-2.522-.243-.754-.594-1.391-1.053-1.911a4.455 4.455 0 0 0-1.664-1.196c-.659-.277-1.408-.416-2.249-.416-.849 0-1.608.139-2.275.416a4.566 4.566 0 0 0-1.677 1.196c-.451.52-.797 1.157-1.04 1.911-.243.745-.364 1.586-.364 2.522 0 .945.121 1.794.364 2.548.243.745.589 1.378 1.04 1.898.459.52 1.018.919 1.677 1.196.667.269 1.426.403 2.275.403.841 0 1.59-.134 2.249-.403a4.455 4.455 0 0 0 1.664-1.196c.459-.52.81-1.153 1.053-1.898.243-.754.364-1.603.364-2.548zm11.253 2.47V26h-4.394V7.059h6.162c1.369 0 2.535.143 3.497.429.97.277 1.759.667 2.366 1.17a4.44 4.44 0 0 1 1.339 1.781c.277.685.416 1.43.416 2.236 0 .615-.083 1.196-.247 1.742a5.288 5.288 0 0 1-.741 1.521c-.321.46-.72.871-1.196 1.235a6.243 6.243 0 0 1-1.625.897 4 4 0 0 1 .819.546c.26.217.485.481.676.793l4.03 6.591h-3.978c-.737 0-1.266-.277-1.586-.832l-3.146-5.499c-.139-.243-.304-.416-.494-.52-.182-.104-.442-.156-.78-.156h-1.118zm0-3.029h1.768c.598 0 1.105-.074 1.521-.221a2.828 2.828 0 0 0 1.04-.637c.268-.269.463-.58.585-.936.121-.364.182-.754.182-1.17 0-.832-.273-1.482-.819-1.95-.538-.468-1.374-.702-2.509-.702h-1.768v5.616zm17.551-1.235h.702c.65 0 1.118-.204 1.404-.611l4.264-6.188c.234-.338.498-.568.793-.689.303-.121.671-.182 1.105-.182h3.822l-5.616 7.657c-.2.277-.408.507-.624.689a3.957 3.957 0 0 1-.663.455c.329.121.628.29.897.507.277.208.528.49.754.845l5.72 8.788h-3.926c-.252 0-.468-.017-.65-.052a1.646 1.646 0 0 1-.455-.156 1.41 1.41 0 0 1-.338-.247 2.766 2.766 0 0 1-.273-.351l-4.29-6.591a1.25 1.25 0 0 0-.598-.507c-.234-.104-.555-.156-.962-.156h-1.066V26h-4.394V7.059h4.394v7.67zm24.982-3.822a1.59 1.59 0 0 1-.416.468c-.138.104-.32.156-.546.156-.199 0-.416-.06-.65-.182-.225-.13-.485-.273-.78-.429a5.827 5.827 0 0 0-.988-.416 3.853 3.853 0 0 0-1.274-.195c-.823 0-1.438.178-1.846.533-.398.347-.598.819-.598 1.417 0 .381.122.698.364.949.243.251.559.468.949.65.399.182.85.351 1.352.507a24.69 24.69 0 0 1 1.56.507c.529.182 1.045.399 1.547.65a5.03 5.03 0 0 1 1.352.962c.399.39.72.867.962 1.43.243.555.364 1.226.364 2.015 0 .875-.151 1.694-.455 2.457a5.765 5.765 0 0 1-1.326 2.002c-.572.563-1.282 1.01-2.132 1.339-.84.32-1.798.481-2.873.481-.589 0-1.191-.06-1.807-.182a11.175 11.175 0 0 1-1.768-.507 10.728 10.728 0 0 1-1.612-.793 6.878 6.878 0 0 1-1.313-1.014l1.3-2.054a1.145 1.145 0 0 1 .962-.52c.26 0 .52.082.78.247.269.165.568.347.897.546.338.2.724.381 1.157.546.434.165.945.247 1.534.247.798 0 1.417-.173 1.859-.52.442-.355.663-.914.663-1.677 0-.442-.121-.802-.364-1.079a2.79 2.79 0 0 0-.962-.689 8.541 8.541 0 0 0-1.339-.481 50.02 50.02 0 0 1-1.547-.455 12.597 12.597 0 0 1-1.547-.624 5.185 5.185 0 0 1-1.352-.975 4.72 4.72 0 0 1-.949-1.508c-.242-.607-.364-1.352-.364-2.236a5.379 5.379 0 0 1 1.69-3.887c.555-.529 1.235-.949 2.041-1.261.806-.32 1.729-.481 2.769-.481a9.84 9.84 0 0 1 1.69.143 8.195 8.195 0 0 1 1.573.403c.494.173.954.386 1.378.637.434.243.819.52 1.157.832l-1.092 2.041z" fill="#121111"/></svg>