<svg width="483" height="81" fill="none" xmlns="http://www.w3.org/2000/svg"><path d="M83.84 72h-6.8V59.68H65.2V72h-6.8V42.86h6.8v12.18h11.84V42.86h6.8V72zm23.954-29.14v5.2h-11.96v6.8h9.16v5h-9.16v6.94h11.96V72h-18.76V42.86h18.76zm11.018 18.36V72h-6.76V42.86h9.48c2.106 0 3.9.22 5.38.66 1.493.427 2.706 1.027 3.64 1.8.946.773 1.633 1.687 2.06 2.74.426 1.053.64 2.2.64 3.44 0 .947-.127 1.84-.38 2.68a8.144 8.144 0 0 1-1.14 2.34 8.567 8.567 0 0 1-1.84 1.9 9.607 9.607 0 0 1-2.5 1.38c.453.227.873.507 1.26.84.4.333.746.74 1.04 1.22l6.2 10.14h-6.12c-1.134 0-1.947-.427-2.44-1.28l-4.84-8.46c-.214-.373-.467-.64-.76-.8-.28-.16-.68-.24-1.2-.24h-1.72zm0-4.66h2.72c.92 0 1.7-.113 2.34-.34.653-.24 1.186-.567 1.6-.98.413-.413.713-.893.9-1.44.186-.56.28-1.16.28-1.8 0-1.28-.42-2.28-1.26-3-.827-.72-2.114-1.08-3.86-1.08h-2.72v8.64zm39.001-13.7v5.2h-11.96v6.8h9.16v5h-9.16v6.94h11.96V72h-18.76V42.86h18.76zM197.325 72h-5.24c-.587 0-1.074-.133-1.46-.4a2.184 2.184 0 0 1-.78-1.06l-1.72-5.08h-11.08l-1.72 5.08c-.134.373-.394.713-.78 1.02-.387.293-.86.44-1.42.44h-5.28l11.28-29.14h6.92L197.325 72zm-18.72-11.14h7.96l-2.68-7.98c-.174-.507-.38-1.1-.62-1.78a57.116 57.116 0 0 1-.68-2.24 40.874 40.874 0 0 1-.66 2.26c-.227.693-.44 1.293-.64 1.8l-2.68 7.94zm28.252.36V72h-6.76V42.86h9.48c2.107 0 3.9.22 5.38.66 1.493.427 2.707 1.027 3.64 1.8.947.773 1.633 1.687 2.06 2.74.427 1.053.64 2.2.64 3.44 0 .947-.127 1.84-.38 2.68a8.093 8.093 0 0 1-1.14 2.34 8.545 8.545 0 0 1-1.84 1.9 9.59 9.59 0 0 1-2.5 1.38c.453.227.873.507 1.26.84.4.333.747.74 1.04 1.22l6.2 10.14h-6.12c-1.133 0-1.947-.427-2.44-1.28l-4.84-8.46c-.213-.373-.467-.64-.76-.8-.28-.16-.68-.24-1.2-.24h-1.72zm0-4.66h2.72c.92 0 1.7-.113 2.34-.34.653-.24 1.187-.567 1.6-.98.413-.413.713-.893.9-1.44.187-.56.28-1.16.28-1.8 0-1.28-.42-2.28-1.26-3-.827-.72-2.113-1.08-3.86-1.08h-2.72v8.64zm39.001-13.7v5.2h-11.96v6.8h9.16v5h-9.16v6.94h11.96V72h-18.76V42.86h18.76zm27.292 15.82c.267.507.52 1.033.76 1.58a32.4 32.4 0 0 1 .72 1.68c.227-.587.467-1.153.72-1.7.253-.56.513-1.1.78-1.62l7.48-14.72c.133-.253.267-.447.4-.58.147-.147.307-.253.48-.32s.367-.107.58-.12c.227-.013.487-.02.78-.02h5.16V72h-5.96V55.24c0-.813.04-1.693.12-2.64l-7.72 14.98c-.24.467-.567.82-.98 1.06-.4.24-.86.36-1.38.36h-.92c-.52 0-.987-.12-1.4-.36-.4-.24-.72-.593-.96-1.06l-7.76-15a25.41 25.41 0 0 1 .16 2.66V72h-5.96V42.86h5.16c.293 0 .547.007.76.02.227.013.427.053.6.12s.327.173.46.32c.147.133.287.327.42.58l7.5 14.78zm37.598 2.24V72h-6.76V60.92l-10.56-18.06h5.96c.587 0 1.053.14 1.4.42.347.267.627.613.84 1.04l4.12 8.48.92 1.88c.28.573.527 1.14.74 1.7.2-.573.44-1.147.72-1.72.28-.573.58-1.193.9-1.86l4.08-8.48c.08-.173.187-.347.32-.52.147-.173.307-.327.48-.46a2.16 2.16 0 0 1 .62-.34c.24-.093.5-.14.78-.14h6l-10.56 18.06zm18.885-18.06h5.68c.586 0 1.073.133 1.46.4.4.267.66.62.78 1.06l4 15.2c.133.493.266 1.02.4 1.58.133.56.233 1.147.3 1.76.133-.627.28-1.213.44-1.76.16-.56.313-1.087.46-1.58l4.72-15.2c.12-.373.373-.707.76-1 .4-.307.88-.46 1.44-.46h2c.586 0 1.066.133 1.44.4.386.253.653.607.8 1.06l4.68 15.2c.146.467.3.967.46 1.5.16.52.3 1.08.42 1.68.106-.587.213-1.147.32-1.68.12-.533.24-1.033.36-1.5l4-15.2c.106-.387.36-.727.76-1.02.4-.293.88-.44 1.44-.44h5.32l-9 29.14h-6.12l-5.48-18.06a62.04 62.04 0 0 1-.3-.92 35.807 35.807 0 0 1-.28-1.06c-.094.373-.194.727-.3 1.06-.094.333-.187.64-.28.92L344.753 72h-6.12l-9-29.14zm74.211 14.56c0 2.107-.366 4.067-1.1 5.88a14.154 14.154 0 0 1-3.06 4.74c-1.32 1.333-2.913 2.38-4.78 3.14-1.853.76-3.913 1.14-6.18 1.14-2.266 0-4.333-.38-6.2-1.14-1.866-.76-3.466-1.807-4.8-3.14-1.32-1.347-2.346-2.927-3.08-4.74-.72-1.813-1.08-3.773-1.08-5.88 0-2.107.36-4.067 1.08-5.88.734-1.813 1.76-3.387 3.08-4.72 1.334-1.333 2.934-2.38 4.8-3.14 1.867-.76 3.934-1.14 6.2-1.14 2.267 0 4.327.387 6.18 1.16 1.867.76 3.46 1.807 4.78 3.14 1.32 1.333 2.34 2.907 3.06 4.72.734 1.813 1.1 3.767 1.1 5.86zm-6.92 0c0-1.44-.186-2.733-.56-3.88-.373-1.16-.913-2.14-1.62-2.94a6.846 6.846 0 0 0-2.56-1.84c-1.013-.427-2.166-.64-3.46-.64-1.306 0-2.473.213-3.5.64a7.04 7.04 0 0 0-2.58 1.84c-.693.8-1.226 1.78-1.6 2.94-.373 1.147-.56 2.44-.56 3.88 0 1.453.187 2.76.56 3.92.374 1.147.907 2.12 1.6 2.92a7.04 7.04 0 0 0 2.58 1.84c1.027.413 2.194.62 3.5.62 1.294 0 2.447-.207 3.46-.62a6.846 6.846 0 0 0 2.56-1.84c.707-.8 1.247-1.773 1.62-2.92.374-1.16.56-2.467.56-3.92zm17.313 3.8V72h-6.76V42.86h9.48c2.106 0 3.9.22 5.38.66 1.493.427 2.706 1.027 3.64 1.8.946.773 1.633 1.687 2.06 2.74.426 1.053.64 2.2.64 3.44 0 .947-.127 1.84-.38 2.68a8.144 8.144 0 0 1-1.14 2.34 8.567 8.567 0 0 1-1.84 1.9 9.607 9.607 0 0 1-2.5 1.38c.453.227.873.507 1.26.84.4.333.746.74 1.04 1.22l6.2 10.14h-6.12c-1.134 0-1.947-.427-2.44-1.28l-4.84-8.46c-.214-.373-.467-.64-.76-.8-.28-.16-.68-.24-1.2-.24h-1.72zm0-4.66h2.72c.92 0 1.7-.113 2.34-.34.653-.24 1.186-.567 1.6-.98.413-.413.713-.893.9-1.44.186-.56.28-1.16.28-1.8 0-1.28-.42-2.28-1.26-3-.827-.72-2.114-1.08-3.86-1.08h-2.72v8.64zm27.001-1.9h1.08c1 0 1.72-.313 2.16-.94l6.56-9.52c.36-.52.767-.873 1.22-1.06.467-.187 1.033-.28 1.7-.28h5.88l-8.64 11.78c-.307.427-.627.78-.96 1.06-.333.28-.673.513-1.02.7a4.85 4.85 0 0 1 1.38.78c.427.32.813.753 1.16 1.3l8.8 13.52h-6.04a5.42 5.42 0 0 1-1-.08 2.535 2.535 0 0 1-.7-.24 2.186 2.186 0 0 1-.52-.38 4.385 4.385 0 0 1-.42-.54l-6.6-10.14a1.92 1.92 0 0 0-.92-.78c-.36-.16-.853-.24-1.48-.24h-1.64V72h-6.76V42.86h6.76v11.8zm38.435-5.88c-.2.32-.414.56-.64.72-.214.16-.494.24-.84.24-.307 0-.64-.093-1-.28-.347-.2-.747-.42-1.2-.66a9 9 0 0 0-1.52-.64c-.574-.2-1.227-.3-1.96-.3-1.267 0-2.214.273-2.84.82-.614.533-.92 1.26-.92 2.18 0 .587.186 1.073.56 1.46.373.387.86.72 1.46 1 .613.28 1.306.54 2.08.78a39.23 39.23 0 0 1 2.4.78c.813.28 1.606.613 2.38 1 .786.387 1.48.88 2.08 1.48.613.6 1.106 1.333 1.48 2.2.373.853.56 1.887.56 3.1 0 1.347-.234 2.607-.7 3.78a8.894 8.894 0 0 1-2.04 3.08c-.88.867-1.974 1.553-3.28 2.06-1.294.493-2.767.74-4.42.74a14.34 14.34 0 0 1-2.78-.28 17.159 17.159 0 0 1-2.72-.78 16.464 16.464 0 0 1-2.48-1.22 10.51 10.51 0 0 1-2.02-1.56l2-3.16a1.62 1.62 0 0 1 .62-.58 1.75 1.75 0 0 1 .86-.22c.4 0 .8.127 1.2.38.413.253.873.533 1.38.84.52.307 1.113.587 1.78.84.666.253 1.453.38 2.36.38 1.226 0 2.18-.267 2.86-.8.68-.547 1.02-1.407 1.02-2.58 0-.68-.187-1.233-.56-1.66-.374-.427-.867-.78-1.48-1.06-.6-.28-1.287-.527-2.06-.74a74.942 74.942 0 0 1-2.38-.7 19.245 19.245 0 0 1-2.38-.96 7.938 7.938 0 0 1-2.08-1.5c-.6-.627-1.087-1.4-1.46-2.32-.374-.933-.56-2.08-.56-3.44 0-1.093.22-2.16.66-3.2a8.25 8.25 0 0 1 1.94-2.78c.853-.813 1.9-1.46 3.14-1.94 1.24-.493 2.66-.74 4.26-.74.893 0 1.76.073 2.6.22.853.133 1.66.34 2.42.62.76.267 1.466.593 2.12.98.666.373 1.26.8 1.78 1.28l-1.68 3.14z" fill="#4263EB" fill-opacity=".35"/><path d="M55.84 56h-6.8V43.68H37.2V56h-6.8V26.86h6.8v12.18h11.84V26.86h6.8V56zm23.954-29.14v5.2h-11.96v6.8h9.16v5h-9.16v6.94h11.96V56h-18.76V26.86h18.76zm11.018 18.36V56h-6.76V26.86h9.48c2.106 0 3.9.22 5.38.66 1.493.427 2.706 1.027 3.64 1.8.946.773 1.633 1.687 2.06 2.74.426 1.053.64 2.2.64 3.44 0 .947-.127 1.84-.38 2.68a8.144 8.144 0 0 1-1.14 2.34 8.567 8.567 0 0 1-1.84 1.9 9.603 9.603 0 0 1-2.5 1.38c.453.227.873.507 1.26.84.4.333.746.74 1.04 1.22l6.2 10.14h-6.12c-1.134 0-1.947-.427-2.44-1.28l-4.84-8.46c-.214-.373-.467-.64-.76-.8-.28-.16-.68-.24-1.2-.24h-1.72zm0-4.66h2.72c.92 0 1.7-.113 2.34-.34.653-.24 1.186-.567 1.6-.98.413-.413.713-.893.9-1.44.186-.56.28-1.16.28-1.8 0-1.28-.42-2.28-1.26-3-.827-.72-2.114-1.08-3.86-1.08h-2.72v8.64zm39.001-13.7v5.2h-11.96v6.8h9.16v5h-9.16v6.94h11.96V56h-18.76V26.86h18.76zM169.325 56h-5.24c-.587 0-1.074-.133-1.46-.4a2.184 2.184 0 0 1-.78-1.06l-1.72-5.08h-11.08l-1.72 5.08c-.134.373-.394.713-.78 1.02-.387.293-.86.44-1.42.44h-5.28l11.28-29.14h6.92L169.325 56zm-18.72-11.14h7.96l-2.68-7.98c-.174-.507-.38-1.1-.62-1.78a57.116 57.116 0 0 1-.68-2.24 40.874 40.874 0 0 1-.66 2.26c-.227.693-.44 1.293-.64 1.8l-2.68 7.94zm28.252.36V56h-6.76V26.86h9.48c2.107 0 3.9.22 5.38.66 1.493.427 2.707 1.027 3.64 1.8.947.773 1.633 1.687 2.06 2.74.427 1.053.64 2.2.64 3.44 0 .947-.127 1.84-.38 2.68a8.093 8.093 0 0 1-1.14 2.34 8.545 8.545 0 0 1-1.84 1.9 9.59 9.59 0 0 1-2.5 1.38c.453.227.873.507 1.26.84.4.333.747.74 1.04 1.22l6.2 10.14h-6.12c-1.133 0-1.947-.427-2.44-1.28l-4.84-8.46c-.213-.373-.467-.64-.76-.8-.28-.16-.68-.24-1.2-.24h-1.72zm0-4.66h2.72c.92 0 1.7-.113 2.34-.34.653-.24 1.187-.567 1.6-.98.413-.413.713-.893.9-1.44.187-.56.28-1.16.28-1.8 0-1.28-.42-2.28-1.26-3-.827-.72-2.113-1.08-3.86-1.08h-2.72v8.64zm39.001-13.7v5.2h-11.96v6.8h9.16v5h-9.16v6.94h11.96V56h-18.76V26.86h18.76zm27.292 15.82c.267.507.52 1.033.76 1.58a32.4 32.4 0 0 1 .72 1.68c.227-.587.467-1.153.72-1.7.253-.56.513-1.1.78-1.62l7.48-14.72c.133-.253.267-.447.4-.58.147-.147.307-.253.48-.32s.367-.107.58-.12c.227-.013.487-.02.78-.02h5.16V56h-5.96V39.24c0-.813.04-1.693.12-2.64l-7.72 14.98c-.24.467-.567.82-.98 1.06-.4.24-.86.36-1.38.36h-.92c-.52 0-.987-.12-1.4-.36-.4-.24-.72-.593-.96-1.06l-7.76-15a25.41 25.41 0 0 1 .16 2.66V56h-5.96V26.86h5.16c.293 0 .547.007.76.02.227.013.427.053.6.12s.327.173.46.32c.147.133.287.327.42.58l7.5 14.78zm37.598 2.24V56h-6.76V44.92l-10.56-18.06h5.96c.587 0 1.053.14 1.4.42.347.267.627.613.84 1.04l4.12 8.48.92 1.88c.28.573.527 1.14.74 1.7.2-.573.44-1.147.72-1.72.28-.573.58-1.193.9-1.86l4.08-8.48c.08-.173.187-.347.32-.52.147-.173.307-.327.48-.46a2.16 2.16 0 0 1 .62-.34c.24-.093.5-.14.78-.14h6l-10.56 18.06zm18.885-18.06h5.68c.586 0 1.073.133 1.46.4.4.267.66.62.78 1.06l4 15.2c.133.493.266 1.02.4 1.58.133.56.233 1.147.3 1.76.133-.627.28-1.213.44-1.76.16-.56.313-1.087.46-1.58l4.72-15.2c.12-.373.373-.707.76-1 .4-.307.88-.46 1.44-.46h2c.586 0 1.066.133 1.44.4.386.253.653.607.8 1.06l4.68 15.2c.146.467.3.967.46 1.5.16.52.3 1.08.42 1.68.106-.587.213-1.147.32-1.68.12-.533.24-1.033.36-1.5l4-15.2c.106-.387.36-.727.76-1.02.4-.293.88-.44 1.44-.44h5.32l-9 29.14h-6.12l-5.48-18.06a62.04 62.04 0 0 1-.3-.92 35.807 35.807 0 0 1-.28-1.06c-.094.373-.194.727-.3 1.06-.094.333-.187.64-.28.92L316.753 56h-6.12l-9-29.14zm74.211 14.56c0 2.107-.366 4.067-1.1 5.88a14.154 14.154 0 0 1-3.06 4.74c-1.32 1.333-2.913 2.38-4.78 3.14-1.853.76-3.913 1.14-6.18 1.14-2.266 0-4.333-.38-6.2-1.14-1.866-.76-3.466-1.807-4.8-3.14-1.32-1.347-2.346-2.927-3.08-4.74-.72-1.813-1.08-3.773-1.08-5.88 0-2.107.36-4.067 1.08-5.88.734-1.813 1.76-3.387 3.08-4.72 1.334-1.333 2.934-2.38 4.8-3.14 1.867-.76 3.934-1.14 6.2-1.14 2.267 0 4.327.387 6.18 1.16 1.867.76 3.46 1.807 4.78 3.14 1.32 1.333 2.34 2.907 3.06 4.72.734 1.813 1.1 3.767 1.1 5.86zm-6.92 0c0-1.44-.186-2.733-.56-3.88-.373-1.16-.913-2.14-1.62-2.94a6.846 6.846 0 0 0-2.56-1.84c-1.013-.427-2.166-.64-3.46-.64-1.306 0-2.473.213-3.5.64a7.04 7.04 0 0 0-2.58 1.84c-.693.8-1.226 1.78-1.6 2.94-.373 1.147-.56 2.44-.56 3.88 0 1.453.187 2.76.56 3.92.374 1.147.907 2.12 1.6 2.92a7.04 7.04 0 0 0 2.58 1.84c1.027.413 2.194.62 3.5.62 1.294 0 2.447-.207 3.46-.62a6.846 6.846 0 0 0 2.56-1.84c.707-.8 1.247-1.773 1.62-2.92.374-1.16.56-2.467.56-3.92zm17.313 3.8V56h-6.76V26.86h9.48c2.106 0 3.9.22 5.38.66 1.493.427 2.706 1.027 3.64 1.8.946.773 1.633 1.687 2.06 2.74.426 1.053.64 2.2.64 3.44 0 .947-.127 1.84-.38 2.68a8.144 8.144 0 0 1-1.14 2.34 8.567 8.567 0 0 1-1.84 1.9 9.607 9.607 0 0 1-2.5 1.38c.453.227.873.507 1.26.84.4.333.746.74 1.04 1.22l6.2 10.14h-6.12c-1.134 0-1.947-.427-2.44-1.28l-4.84-8.46c-.214-.373-.467-.64-.76-.8-.28-.16-.68-.24-1.2-.24h-1.72zm0-4.66h2.72c.92 0 1.7-.113 2.34-.34.653-.24 1.186-.567 1.6-.98.413-.413.713-.893.9-1.44.186-.56.28-1.16.28-1.8 0-1.28-.42-2.28-1.26-3-.827-.72-2.114-1.08-3.86-1.08h-2.72v8.64zm27.001-1.9h1.08c1 0 1.72-.313 2.16-.94l6.56-9.52c.36-.52.767-.873 1.22-1.06.467-.187 1.033-.28 1.7-.28h5.88l-8.64 11.78c-.307.427-.627.78-.96 1.06-.333.28-.673.513-1.02.7a4.85 4.85 0 0 1 1.38.78c.427.32.813.753 1.16 1.3l8.8 13.52h-6.04a5.42 5.42 0 0 1-1-.08 2.535 2.535 0 0 1-.7-.24 2.186 2.186 0 0 1-.52-.38 4.385 4.385 0 0 1-.42-.54l-6.6-10.14a1.92 1.92 0 0 0-.92-.78c-.36-.16-.853-.24-1.48-.24h-1.64V56h-6.76V26.86h6.76v11.8zm38.435-5.88c-.2.32-.414.56-.64.72-.214.16-.494.24-.84.24-.307 0-.64-.093-1-.28-.347-.2-.747-.42-1.2-.66a9 9 0 0 0-1.52-.64c-.574-.2-1.227-.3-1.96-.3-1.267 0-2.214.273-2.84.82-.614.533-.92 1.26-.92 2.18 0 .587.186 1.073.56 1.46.373.387.86.72 1.46 1 .613.28 1.306.54 2.08.78a39.23 39.23 0 0 1 2.4.78c.813.28 1.606.613 2.38 1 .786.387 1.48.88 2.08 1.48.613.6 1.106 1.333 1.48 2.2.373.853.56 1.887.56 3.1 0 1.347-.234 2.607-.7 3.78a8.894 8.894 0 0 1-2.04 3.08c-.88.867-1.974 1.553-3.28 2.06-1.294.493-2.767.74-4.42.74a14.34 14.34 0 0 1-2.78-.28 17.159 17.159 0 0 1-2.72-.78 16.464 16.464 0 0 1-2.48-1.22 10.51 10.51 0 0 1-2.02-1.56l2-3.16a1.62 1.62 0 0 1 .62-.58 1.75 1.75 0 0 1 .86-.22c.4 0 .8.127 1.2.38.413.253.873.533 1.38.84.52.307 1.113.587 1.78.84.666.253 1.453.38 2.36.38 1.226 0 2.18-.267 2.86-.8.68-.547 1.02-1.407 1.02-2.58 0-.68-.187-1.233-.56-1.66-.374-.427-.867-.78-1.48-1.06-.6-.28-1.287-.527-2.06-.74a74.942 74.942 0 0 1-2.38-.7 19.245 19.245 0 0 1-2.38-.96 7.938 7.938 0 0 1-2.08-1.5c-.6-.627-1.087-1.4-1.46-2.32-.374-.933-.56-2.08-.56-3.44 0-1.093.22-2.16.66-3.2a8.25 8.25 0 0 1 1.94-2.78c.853-.813 1.9-1.46 3.14-1.94 1.24-.493 2.66-.74 4.26-.74.893 0 1.76.073 2.6.22.853.133 1.66.34 2.42.62.76.267 1.466.593 2.12.98.666.373 1.26.8 1.78 1.28l-1.68 3.14z" fill="#47F6CB" fill-opacity=".9"/><path d="M27.84 39h-6.8V26.68H9.2V39H2.4V9.86h6.8v12.18h11.84V9.86h6.8V39zM51.794 9.86v5.2h-11.96v6.8h9.16v5h-9.16v6.94h11.96V39h-18.76V9.86h18.76zm11.018 18.36V39h-6.76V9.86h9.48c2.106 0 3.9.22 5.38.66 1.493.427 2.706 1.027 3.64 1.8.946.773 1.633 1.687 2.06 2.74.426 1.053.64 2.2.64 3.44 0 .947-.127 1.84-.38 2.68a8.113 8.113 0 0 1-1.14 2.34 8.547 8.547 0 0 1-1.84 1.9 9.597 9.597 0 0 1-2.5 1.38c.453.227.873.507 1.26.84.4.333.746.74 1.04 1.22l6.2 10.14h-6.12c-1.134 0-1.947-.427-2.44-1.28l-4.84-8.46c-.214-.373-.467-.64-.76-.8-.28-.16-.68-.24-1.2-.24h-1.72zm0-4.66h2.72c.92 0 1.7-.113 2.34-.34.653-.24 1.186-.567 1.6-.98.413-.413.713-.893.9-1.44.186-.56.28-1.16.28-1.8 0-1.28-.42-2.28-1.26-3-.827-.72-2.114-1.08-3.86-1.08h-2.72v8.64zm39.001-13.7v5.2h-11.96v6.8h9.16v5h-9.16v6.94h11.96V39h-18.76V9.86h18.76zM141.325 39h-5.24c-.587 0-1.074-.133-1.46-.4a2.184 2.184 0 0 1-.78-1.06l-1.72-5.08h-11.08l-1.72 5.08c-.134.373-.394.713-.78 1.02-.387.293-.86.44-1.42.44h-5.28l11.28-29.14h6.92L141.325 39zm-18.72-11.14h7.96l-2.68-7.98c-.174-.507-.38-1.1-.62-1.78a57.116 57.116 0 0 1-.68-2.24 40.874 40.874 0 0 1-.66 2.26c-.227.693-.44 1.293-.64 1.8l-2.68 7.94zm28.252.36V39h-6.76V9.86h9.48c2.107 0 3.9.22 5.38.66 1.493.427 2.707 1.027 3.64 1.8.947.773 1.633 1.687 2.06 2.74.427 1.053.64 2.2.64 3.44 0 .947-.127 1.84-.38 2.68a8.093 8.093 0 0 1-1.14 2.34 8.545 8.545 0 0 1-1.84 1.9 9.59 9.59 0 0 1-2.5 1.38c.453.227.873.507 1.26.84.4.333.747.74 1.04 1.22l6.2 10.14h-6.12c-1.133 0-1.947-.427-2.44-1.28l-4.84-8.46c-.213-.373-.467-.64-.76-.8-.28-.16-.68-.24-1.2-.24h-1.72zm0-4.66h2.72c.92 0 1.7-.113 2.34-.34.653-.24 1.187-.567 1.6-.98.413-.413.713-.893.9-1.44.187-.56.28-1.16.28-1.8 0-1.28-.42-2.28-1.26-3-.827-.72-2.113-1.08-3.86-1.08h-2.72v8.64zm39.001-13.7v5.2h-11.96v6.8h9.16v5h-9.16v6.94h11.96V39h-18.76V9.86h18.76zm27.292 15.82c.267.507.52 1.033.76 1.58a32.4 32.4 0 0 1 .72 1.68c.227-.587.467-1.153.72-1.7.253-.56.513-1.1.78-1.62l7.48-14.72c.133-.253.267-.447.4-.58.147-.147.307-.253.48-.32s.367-.107.58-.12c.227-.013.487-.02.78-.02h5.16V39h-5.96V22.24c0-.813.04-1.693.12-2.64l-7.72 14.98c-.24.467-.567.82-.98 1.06-.4.24-.86.36-1.38.36h-.92c-.52 0-.987-.12-1.4-.36-.4-.24-.72-.593-.96-1.06l-7.76-15a25.41 25.41 0 0 1 .16 2.66V39h-5.96V9.86h5.16c.293 0 .547.007.76.02.227.013.427.053.6.12s.327.173.46.32c.147.133.287.327.42.58l7.5 14.78zm37.598 2.24V39h-6.76V27.92l-10.56-18.06h5.96c.587 0 1.053.14 1.4.42.347.267.627.613.84 1.04l4.12 8.48.92 1.88c.28.573.527 1.14.74 1.7.2-.573.44-1.147.72-1.72.28-.573.58-1.193.9-1.86l4.08-8.48c.08-.173.187-.347.32-.52.147-.173.307-.327.48-.46a2.16 2.16 0 0 1 .62-.34c.24-.093.5-.14.78-.14h6l-10.56 18.06zm18.885-18.06h5.68c.586 0 1.073.133 1.46.4.4.267.66.62.78 1.06l4 15.2c.133.493.266 1.02.4 1.58.133.56.233 1.147.3 1.76.133-.627.28-1.213.44-1.76.16-.56.313-1.087.46-1.58l4.72-15.2c.12-.373.373-.707.76-1 .4-.307.88-.46 1.44-.46h2c.586 0 1.066.133 1.44.4.386.253.653.607.8 1.06l4.68 15.2c.146.467.3.967.46 1.5.16.52.3 1.08.42 1.68.106-.587.213-1.147.32-1.68.12-.533.24-1.033.36-1.5l4-15.2c.106-.387.36-.727.76-1.02.4-.293.88-.44 1.44-.44h5.32l-9 29.14h-6.12l-5.48-18.06a62.04 62.04 0 0 1-.3-.92 35.807 35.807 0 0 1-.28-1.06c-.094.373-.194.727-.3 1.06-.094.333-.187.64-.28.92L288.753 39h-6.12l-9-29.14zm74.211 14.56c0 2.107-.366 4.067-1.1 5.88a14.154 14.154 0 0 1-3.06 4.74c-1.32 1.333-2.913 2.38-4.78 3.14-1.853.76-3.913 1.14-6.18 1.14-2.266 0-4.333-.38-6.2-1.14-1.866-.76-3.466-1.807-4.8-3.14-1.32-1.347-2.346-2.927-3.08-4.74-.72-1.813-1.08-3.773-1.08-5.88 0-2.107.36-4.067 1.08-5.88.734-1.813 1.76-3.387 3.08-4.72 1.334-1.333 2.934-2.38 4.8-3.14 1.867-.76 3.934-1.14 6.2-1.14 2.267 0 4.327.387 6.18 1.16 1.867.76 3.46 1.807 4.78 3.14 1.32 1.333 2.34 2.907 3.06 4.72.734 1.813 1.1 3.767 1.1 5.86zm-6.92 0c0-1.44-.186-2.733-.56-3.88-.373-1.16-.913-2.14-1.62-2.94a6.846 6.846 0 0 0-2.56-1.84c-1.013-.427-2.166-.64-3.46-.64-1.306 0-2.473.213-3.5.64a7.04 7.04 0 0 0-2.58 1.84c-.693.8-1.226 1.78-1.6 2.94-.373 1.147-.56 2.44-.56 3.88 0 1.453.187 2.76.56 3.92.374 1.147.907 2.12 1.6 2.92a7.04 7.04 0 0 0 2.58 1.84c1.027.413 2.194.62 3.5.62 1.294 0 2.447-.207 3.46-.62a6.846 6.846 0 0 0 2.56-1.84c.707-.8 1.247-1.773 1.62-2.92.374-1.16.56-2.467.56-3.92zm17.313 3.8V39h-6.76V9.86h9.48c2.106 0 3.9.22 5.38.66 1.493.427 2.706 1.027 3.64 1.8.946.773 1.633 1.687 2.06 2.74.426 1.053.64 2.2.64 3.44 0 .947-.127 1.84-.38 2.68a8.144 8.144 0 0 1-1.14 2.34 8.567 8.567 0 0 1-1.84 1.9 9.607 9.607 0 0 1-2.5 1.38c.453.227.873.507 1.26.84.4.333.746.74 1.04 1.22l6.2 10.14h-6.12c-1.134 0-1.947-.427-2.44-1.28l-4.84-8.46c-.214-.373-.467-.64-.76-.8-.28-.16-.68-.24-1.2-.24h-1.72zm0-4.66h2.72c.92 0 1.7-.113 2.34-.34.653-.24 1.186-.567 1.6-.98.413-.413.713-.893.9-1.44.186-.56.28-1.16.28-1.8 0-1.28-.42-2.28-1.26-3-.827-.72-2.114-1.08-3.86-1.08h-2.72v8.64zm27.001-1.9h1.08c1 0 1.72-.313 2.16-.94l6.56-9.52c.36-.52.767-.873 1.22-1.06.467-.187 1.033-.28 1.7-.28h5.88l-8.64 11.78c-.307.427-.627.78-.96 1.06-.333.28-.673.513-1.02.7a4.85 4.85 0 0 1 1.38.78c.427.32.813.753 1.16 1.3l8.8 13.52h-6.04a5.42 5.42 0 0 1-1-.08 2.535 2.535 0 0 1-.7-.24 2.186 2.186 0 0 1-.52-.38 4.385 4.385 0 0 1-.42-.54l-6.6-10.14a1.92 1.92 0 0 0-.92-.78c-.36-.16-.853-.24-1.48-.24h-1.64V39h-6.76V9.86h6.76v11.8zm38.435-5.88c-.2.32-.414.56-.64.72-.214.16-.494.24-.84.24-.307 0-.64-.093-1-.28-.347-.2-.747-.42-1.2-.66a9 9 0 0 0-1.52-.64c-.574-.2-1.227-.3-1.96-.3-1.267 0-2.214.273-2.84.82-.614.533-.92 1.26-.92 2.18 0 .587.186 1.073.56 1.46.373.387.86.72 1.46 1 .613.28 1.306.54 2.08.78a39.23 39.23 0 0 1 2.4.78c.813.28 1.606.613 2.38 1 .786.387 1.48.88 2.08 1.48.613.6 1.106 1.333 1.48 2.2.373.853.56 1.887.56 3.1 0 1.347-.234 2.607-.7 3.78a8.894 8.894 0 0 1-2.04 3.08c-.88.867-1.974 1.553-3.28 2.06-1.294.493-2.767.74-4.42.74a14.34 14.34 0 0 1-2.78-.28 17.159 17.159 0 0 1-2.72-.78 16.464 16.464 0 0 1-2.48-1.22 10.51 10.51 0 0 1-2.02-1.56l2-3.16a1.62 1.62 0 0 1 .62-.58 1.75 1.75 0 0 1 .86-.22c.4 0 .8.127 1.2.38.413.253.873.533 1.38.84.52.307 1.113.587 1.78.84.666.253 1.453.38 2.36.38 1.226 0 2.18-.267 2.86-.8.68-.547 1.02-1.407 1.02-2.58 0-.68-.187-1.233-.56-1.66-.374-.427-.867-.78-1.48-1.06-.6-.28-1.287-.527-2.06-.74a74.942 74.942 0 0 1-2.38-.7 19.245 19.245 0 0 1-2.38-.96 7.938 7.938 0 0 1-2.08-1.5c-.6-.627-1.087-1.4-1.46-2.32-.374-.933-.56-2.08-.56-3.44 0-1.093.22-2.16.66-3.2a8.25 8.25 0 0 1 1.94-2.78c.853-.813 1.9-1.46 3.14-1.94 1.24-.493 2.66-.74 4.26-.74.893 0 1.76.073 2.6.22.853.133 1.66.34 2.42.62.76.267 1.466.593 2.12.98.666.373 1.26.8 1.78 1.28l-1.68 3.14z" fill="#121111"/></svg>