<svg width="588" height="218" fill="none" xmlns="http://www.w3.org/2000/svg"><path d="M47.61 21.435v11.7H20.7V49.74h22.41v11.745H20.7V87H5.4V21.435h42.21zm23.998 41.31V87h-15.21V21.435h21.33c4.74 0 8.775.495 12.105 1.485 3.36.96 6.09 2.31 8.19 4.05 2.13 1.74 3.675 3.795 4.635 6.165s1.44 4.95 1.44 7.74c0 2.13-.285 4.14-.855 6.03a18.247 18.247 0 0 1-2.565 5.265c-1.11 1.59-2.49 3.015-4.14 4.275-1.62 1.26-3.495 2.295-5.625 3.105 1.02.51 1.965 1.14 2.835 1.89.9.75 1.68 1.665 2.34 2.745L110.038 87h-13.77c-2.55 0-4.38-.96-5.49-2.88l-10.89-19.035c-.48-.84-1.05-1.44-1.71-1.8-.63-.36-1.53-.54-2.7-.54h-3.87zm0-10.485h6.12c2.07 0 3.825-.255 5.265-.765 1.47-.54 2.67-1.275 3.6-2.205a8.338 8.338 0 0 0 2.025-3.24c.42-1.26.63-2.61.63-4.05 0-2.88-.945-5.13-2.835-6.75-1.86-1.62-4.755-2.43-8.685-2.43h-6.12v19.44zm107.968 1.935c0 4.74-.825 9.15-2.475 13.23-1.62 4.08-3.915 7.635-6.885 10.665-2.97 3-6.555 5.355-10.755 7.065-4.17 1.71-8.805 2.565-13.905 2.565s-9.75-.855-13.95-2.565c-4.2-1.71-7.8-4.065-10.8-7.065-2.97-3.03-5.28-6.585-6.93-10.665-1.62-4.08-2.43-8.49-2.43-13.23s.81-9.15 2.43-13.23c1.65-4.08 3.96-7.62 6.93-10.62 3-3 6.6-5.355 10.8-7.065 4.2-1.71 8.85-2.565 13.95-2.565s9.735.87 13.905 2.61c4.2 1.71 7.785 4.065 10.755 7.065 2.97 3 5.265 6.54 6.885 10.62 1.65 4.08 2.475 8.475 2.475 13.185zm-15.57 0c0-3.24-.42-6.15-1.26-8.73-.84-2.61-2.055-4.815-3.645-6.615-1.56-1.8-3.48-3.18-5.76-4.14-2.28-.96-4.875-1.44-7.785-1.44-2.94 0-5.565.48-7.875 1.44-2.28.96-4.215 2.34-5.805 4.14-1.56 1.8-2.76 4.005-3.6 6.615-.84 2.58-1.26 5.49-1.26 8.73 0 3.27.42 6.21 1.26 8.82.84 2.58 2.04 4.77 3.6 6.57 1.59 1.8 3.525 3.18 5.805 4.14 2.31.93 4.935 1.395 7.875 1.395 2.91 0 5.505-.465 7.785-1.395 2.28-.96 4.2-2.34 5.76-4.14 1.59-1.8 2.805-3.99 3.645-6.57.84-2.61 1.26-5.55 1.26-8.82zm57.267 2.835a55.74 55.74 0 0 1 1.71 3.555 71.57 71.57 0 0 1 1.62 3.78 63.67 63.67 0 0 1 1.62-3.825 82.564 82.564 0 0 1 1.755-3.645l16.83-33.12c.3-.57.6-1.005.9-1.305a3.1 3.1 0 0 1 1.08-.72c.39-.15.825-.24 1.305-.27.51-.03 1.095-.045 1.755-.045h11.61V87h-13.41V49.29c0-1.83.09-3.81.27-5.94l-17.37 33.705c-.54 1.05-1.275 1.845-2.205 2.385-.9.54-1.935.81-3.105.81h-2.07c-1.17 0-2.22-.27-3.15-.81-.9-.54-1.62-1.335-2.16-2.385l-17.46-33.75c.12 1.05.21 2.1.27 3.15.06 1.02.09 1.965.09 2.835V87h-13.41V21.435h11.61c.66 0 1.23.015 1.71.045.51.03.96.12 1.35.27.39.15.735.39 1.035.72.33.3.645.735.945 1.305l16.875 33.255zM291.502 87V21.435h24.12c4.53 0 8.385.42 11.565 1.26 3.18.84 5.775 2.025 7.785 3.555 2.01 1.53 3.465 3.39 4.365 5.58.93 2.19 1.395 4.635 1.395 7.335 0 1.47-.21 2.895-.63 4.275a12.576 12.576 0 0 1-1.98 3.825c-.9 1.2-2.055 2.295-3.465 3.285-1.41.96-3.105 1.8-5.085 2.52 4.32 1.05 7.515 2.76 9.585 5.13 2.07 2.34 3.105 5.355 3.105 9.045 0 2.79-.54 5.385-1.62 7.785-1.08 2.4-2.67 4.5-4.77 6.3-2.07 1.77-4.635 3.165-7.695 4.185-3.06.99-6.555 1.485-10.485 1.485h-26.19zm15.21-27.81v16.335h10.71c2.01 0 3.645-.255 4.905-.765 1.29-.51 2.295-1.17 3.015-1.98a6.642 6.642 0 0 0 1.485-2.745c.27-1.02.405-2.055.405-3.105 0-1.2-.165-2.28-.495-3.24-.3-.96-.84-1.77-1.62-2.43-.75-.66-1.755-1.17-3.015-1.53-1.26-.36-2.85-.54-4.77-.54h-10.62zm0-10.17h7.92c1.68 0 3.195-.12 4.545-.36s2.49-.66 3.42-1.26c.96-.6 1.68-1.425 2.16-2.475.51-1.05.765-2.37.765-3.96 0-1.56-.195-2.85-.585-3.87-.39-1.05-.99-1.89-1.8-2.52-.81-.63-1.845-1.08-3.105-1.35-1.23-.27-2.7-.405-4.41-.405h-8.91v16.2zm59.962 25.83h24.3V87h-39.51V21.435h15.21V74.85zm93.466-20.655c0 4.74-.825 9.15-2.475 13.23-1.62 4.08-3.915 7.635-6.885 10.665-2.97 3-6.555 5.355-10.755 7.065-4.17 1.71-8.805 2.565-13.905 2.565s-9.75-.855-13.95-2.565c-4.2-1.71-7.8-4.065-10.8-7.065-2.97-3.03-5.28-6.585-6.93-10.665-1.62-4.08-2.43-8.49-2.43-13.23s.81-9.15 2.43-13.23c1.65-4.08 3.96-7.62 6.93-10.62 3-3 6.6-5.355 10.8-7.065 4.2-1.71 8.85-2.565 13.95-2.565s9.735.87 13.905 2.61c4.2 1.71 7.785 4.065 10.755 7.065 2.97 3 5.265 6.54 6.885 10.62 1.65 4.08 2.475 8.475 2.475 13.185zm-15.57 0c0-3.24-.42-6.15-1.26-8.73-.84-2.61-2.055-4.815-3.645-6.615-1.56-1.8-3.48-3.18-5.76-4.14-2.28-.96-4.875-1.44-7.785-1.44-2.94 0-5.565.48-7.875 1.44-2.28.96-4.215 2.34-5.805 4.14-1.56 1.8-2.76 4.005-3.6 6.615-.84 2.58-1.26 5.49-1.26 8.73 0 3.27.42 6.21 1.26 8.82.84 2.58 2.04 4.77 3.6 6.57 1.59 1.8 3.525 3.18 5.805 4.14 2.31.93 4.935 1.395 7.875 1.395 2.91 0 5.505-.465 7.785-1.395 2.28-.96 4.2-2.34 5.76-4.14 1.59-1.8 2.805-3.99 3.645-6.57.84-2.61 1.26-5.55 1.26-8.82zm67.798 15.84c.36 0 .72.075 1.08.225.36.12.705.345 1.035.675l6.03 6.345c-2.64 3.45-5.955 6.06-9.945 7.83-3.96 1.74-8.655 2.61-14.085 2.61-4.98 0-9.45-.84-13.41-2.52-3.93-1.71-7.275-4.05-10.035-7.02-2.73-3-4.83-6.54-6.3-10.62-1.47-4.11-2.205-8.565-2.205-13.365 0-4.89.84-9.375 2.52-13.455 1.68-4.11 4.02-7.65 7.02-10.62 3.03-2.97 6.645-5.28 10.845-6.93 4.2-1.65 8.835-2.475 13.905-2.475 2.46 0 4.77.225 6.93.675 2.19.42 4.23 1.02 6.12 1.8 1.89.75 3.63 1.665 5.22 2.745 1.59 1.05 3 2.22 4.23 3.51l-5.13 6.885c-.33.42-.72.81-1.17 1.17-.45.33-1.08.495-1.89.495-.54 0-1.05-.12-1.53-.36s-.99-.525-1.53-.855c-.54-.36-1.14-.735-1.8-1.125-.63-.42-1.395-.795-2.295-1.125-.87-.36-1.905-.66-3.105-.9-1.17-.24-2.55-.36-4.14-.36-2.76 0-5.28.495-7.56 1.485a16.421 16.421 0 0 0-5.895 4.185c-1.62 1.8-2.895 3.99-3.825 6.57-.9 2.58-1.35 5.475-1.35 8.685 0 3.36.45 6.345 1.35 8.955.93 2.61 2.175 4.815 3.735 6.615 1.59 1.77 3.435 3.12 5.535 4.05 2.1.93 4.35 1.395 6.75 1.395 1.38 0 2.64-.06 3.78-.18 1.14-.15 2.19-.39 3.15-.72.99-.33 1.92-.75 2.79-1.26.9-.54 1.8-1.2 2.7-1.98.36-.3.75-.54 1.17-.72.42-.21.855-.315 1.305-.315zm31.205-22.05h2.43c2.25 0 3.87-.705 4.86-2.115l14.76-21.42c.81-1.17 1.725-1.965 2.745-2.385 1.05-.42 2.325-.63 3.825-.63h13.23l-19.44 26.505c-.69.96-1.41 1.755-2.16 2.385a13.61 13.61 0 0 1-2.295 1.575c1.14.42 2.175 1.005 3.105 1.755.96.72 1.83 1.695 2.61 2.925l19.8 30.42h-13.59c-.87 0-1.62-.06-2.25-.18-.6-.12-1.125-.3-1.575-.54-.45-.24-.84-.525-1.17-.855-.33-.36-.645-.765-.945-1.215l-14.85-22.815c-.54-.84-1.23-1.425-2.07-1.755-.81-.36-1.92-.54-3.33-.54h-3.69V87h-15.21V21.435h15.21v26.55zM53.01 126.435v12.06H34.56V192H19.35v-53.505H.9v-12.06h52.11zm69.152 32.76c0 4.74-.825 9.15-2.475 13.23-1.62 4.08-3.915 7.635-6.885 10.665-2.97 3-6.555 5.355-10.755 7.065-4.17 1.71-8.805 2.565-13.905 2.565s-9.75-.855-13.95-2.565c-4.2-1.71-7.8-4.065-10.8-7.065-2.97-3.03-5.28-6.585-6.93-10.665-1.62-4.08-2.43-8.49-2.43-13.23s.81-9.15 2.43-13.23c1.65-4.08 3.96-7.62 6.93-10.62 3-3 6.6-5.355 10.8-7.065 4.2-1.71 8.85-2.565 13.95-2.565s9.735.87 13.905 2.61c4.2 1.71 7.785 4.065 10.755 7.065 2.97 3 5.265 6.54 6.885 10.62 1.65 4.08 2.475 8.475 2.475 13.185zm-15.57 0c0-3.24-.42-6.15-1.26-8.73-.84-2.61-2.055-4.815-3.645-6.615-1.56-1.8-3.48-3.18-5.76-4.14-2.28-.96-4.875-1.44-7.785-1.44-2.94 0-5.565.48-7.875 1.44-2.28.96-4.215 2.34-5.805 4.14-1.56 1.8-2.76 4.005-3.6 6.615-.84 2.58-1.26 5.49-1.26 8.73 0 3.27.42 6.21 1.26 8.82.84 2.58 2.04 4.77 3.6 6.57 1.59 1.8 3.525 3.18 5.805 4.14 2.31.93 4.935 1.395 7.875 1.395 2.91 0 5.505-.465 7.785-1.395 2.28-.96 4.2-2.34 5.76-4.14 1.59-1.8 2.805-3.99 3.645-6.57.84-2.61 1.26-5.55 1.26-8.82zM148.637 192v-65.565h24.12c4.53 0 8.385.42 11.565 1.26 3.18.84 5.775 2.025 7.785 3.555 2.01 1.53 3.465 3.39 4.365 5.58.93 2.19 1.395 4.635 1.395 7.335 0 1.47-.21 2.895-.63 4.275a12.576 12.576 0 0 1-1.98 3.825c-.9 1.2-2.055 2.295-3.465 3.285-1.41.96-3.105 1.8-5.085 2.52 4.32 1.05 7.515 2.76 9.585 5.13 2.07 2.34 3.105 5.355 3.105 9.045 0 2.79-.54 5.385-1.62 7.785-1.08 2.4-2.67 4.5-4.77 6.3-2.07 1.77-4.635 3.165-7.695 4.185-3.06.99-6.555 1.485-10.485 1.485h-26.19zm15.21-27.81v16.335h10.71c2.01 0 3.645-.255 4.905-.765 1.29-.51 2.295-1.17 3.015-1.98a6.642 6.642 0 0 0 1.485-2.745c.27-1.02.405-2.055.405-3.105 0-1.2-.165-2.28-.495-3.24-.3-.96-.84-1.77-1.62-2.43-.75-.66-1.755-1.17-3.015-1.53-1.26-.36-2.85-.54-4.77-.54h-10.62zm0-10.17h7.92c1.68 0 3.195-.12 4.545-.36s2.49-.66 3.42-1.26c.96-.6 1.68-1.425 2.16-2.475.51-1.05.765-2.37.765-3.96 0-1.56-.195-2.85-.585-3.87-.39-1.05-.99-1.89-1.8-2.52-.81-.63-1.845-1.08-3.105-1.35-1.23-.27-2.7-.405-4.41-.405h-8.91v16.2zm109.463 5.175c0 4.74-.825 9.15-2.475 13.23-1.62 4.08-3.915 7.635-6.885 10.665-2.97 3-6.555 5.355-10.755 7.065-4.17 1.71-8.805 2.565-13.905 2.565s-9.75-.855-13.95-2.565c-4.2-1.71-7.8-4.065-10.8-7.065-2.97-3.03-5.28-6.585-6.93-10.665-1.62-4.08-2.43-8.49-2.43-13.23s.81-9.15 2.43-13.23c1.65-4.08 3.96-7.62 6.93-10.62 3-3 6.6-5.355 10.8-7.065 4.2-1.71 8.85-2.565 13.95-2.565s9.735.87 13.905 2.61c4.2 1.71 7.785 4.065 10.755 7.065 2.97 3 5.265 6.54 6.885 10.62 1.65 4.08 2.475 8.475 2.475 13.185zm-15.57 0c0-3.24-.42-6.15-1.26-8.73-.84-2.61-2.055-4.815-3.645-6.615-1.56-1.8-3.48-3.18-5.76-4.14-2.28-.96-4.875-1.44-7.785-1.44-2.94 0-5.565.48-7.875 1.44-2.28.96-4.215 2.34-5.805 4.14-1.56 1.8-2.76 4.005-3.6 6.615-.84 2.58-1.26 5.49-1.26 8.73 0 3.27.42 6.21 1.26 8.82.84 2.58 2.04 4.77 3.6 6.57 1.59 1.8 3.525 3.18 5.805 4.14 2.31.93 4.935 1.395 7.875 1.395 2.91 0 5.505-.465 7.785-1.395 2.28-.96 4.2-2.34 5.76-4.14 1.59-1.8 2.805-3.99 3.645-6.57.84-2.61 1.26-5.55 1.26-8.82zm83.232 0c0 4.74-.825 9.12-2.475 13.14-1.62 3.99-3.915 7.455-6.885 10.395-2.97 2.91-6.555 5.19-10.755 6.84-4.17 1.62-8.805 2.43-13.905 2.43h-25.47v-65.565h25.47c5.1 0 9.735.825 13.905 2.475 4.2 1.65 7.785 3.93 10.755 6.84 2.97 2.91 5.265 6.375 6.885 10.395 1.65 3.99 2.475 8.34 2.475 13.05zm-15.57 0c0-3.24-.42-6.165-1.26-8.775-.84-2.61-2.055-4.815-3.645-6.615-1.56-1.83-3.48-3.225-5.76-4.185-2.28-.99-4.875-1.485-7.785-1.485h-10.17V180.3h10.17c2.91 0 5.505-.48 7.785-1.44 2.28-.99 4.2-2.385 5.76-4.185 1.59-1.83 2.805-4.05 3.645-6.66.84-2.61 1.26-5.55 1.26-8.82zm52.843 7.875V192h-15.21v-24.93l-23.76-40.635h13.41c1.32 0 2.37.315 3.15.945.78.6 1.41 1.38 1.89 2.34l9.27 19.08c.75 1.53 1.44 2.94 2.07 4.23a46.212 46.212 0 0 1 1.665 3.825c.45-1.29.99-2.58 1.62-3.87.63-1.29 1.305-2.685 2.025-4.185l9.18-19.08c.18-.39.42-.78.72-1.17.33-.39.69-.735 1.08-1.035a4.86 4.86 0 0 1 1.395-.765 4.8 4.8 0 0 1 1.755-.315h13.5l-23.76 40.635zm32.901 8.162h18.055v13.904c0 5.119-1.066 9.159-3.196 12.119-2.131 2.961-5.769 5.576-10.916 7.845l-3.943-7.388c3.21-1.494 5.41-2.988 6.6-4.483 1.217-1.466 1.895-3.209 2.033-5.229h-8.633v-16.768z" fill="#121111"/></svg>