<svg width="268" height="364" fill="none" xmlns="http://www.w3.org/2000/svg"><path d="M42.32 16.72v10.4H18.4v14.76h19.92v10.44H18.4V75H4.8V16.72h37.52zm21.331 36.72V75h-13.52V16.72h18.96c4.214 0 7.8.44 10.76 1.32 2.987.853 5.414 2.053 7.28 3.6 1.894 1.547 3.267 3.373 4.12 5.48.854 2.107 1.28 4.4 1.28 6.88 0 1.893-.253 3.68-.76 5.36a16.218 16.218 0 0 1-2.28 4.68c-.986 1.413-2.213 2.68-3.68 3.8-1.44 1.12-3.106 2.04-5 2.76a12.207 12.207 0 0 1 2.52 1.68 9.78 9.78 0 0 1 2.08 2.44L97.811 75h-12.24c-2.266 0-3.893-.853-4.88-2.56l-9.68-16.92c-.426-.747-.933-1.28-1.52-1.6-.56-.32-1.36-.48-2.4-.48h-3.44zm0-9.32h5.44c1.84 0 3.4-.227 4.68-.68 1.307-.48 2.374-1.133 3.2-1.96a7.412 7.412 0 0 0 1.8-2.88c.374-1.12.56-2.32.56-3.6 0-2.56-.84-4.56-2.52-6-1.653-1.44-4.226-2.16-7.72-2.16h-5.44v17.28zm95.972 1.72c0 4.213-.733 8.133-2.2 11.76-1.44 3.627-3.48 6.787-6.12 9.48-2.64 2.667-5.827 4.76-9.56 6.28-3.707 1.52-7.827 2.28-12.36 2.28-4.533 0-8.667-.76-12.4-2.28-3.733-1.52-6.933-3.613-9.6-6.28-2.64-2.693-4.693-5.853-6.16-9.48-1.44-3.627-2.16-7.547-2.16-11.76s.72-8.133 2.16-11.76c1.467-3.627 3.52-6.773 6.16-9.44 2.667-2.667 5.867-4.76 9.6-6.28 3.733-1.52 7.867-2.28 12.4-2.28s8.653.773 12.36 2.32c3.733 1.52 6.92 3.613 9.56 6.28 2.64 2.667 4.68 5.813 6.12 9.44 1.467 3.627 2.2 7.533 2.2 11.72zm-13.84 0c0-2.88-.373-5.467-1.12-7.76-.747-2.32-1.827-4.28-3.24-5.88-1.387-1.6-3.093-2.827-5.12-3.68-2.027-.853-4.333-1.28-6.92-1.28-2.613 0-4.947.427-7 1.28-2.027.853-3.747 2.08-5.16 3.68-1.387 1.6-2.453 3.56-3.2 5.88-.747 2.293-1.12 4.88-1.12 7.76 0 2.907.373 5.52 1.12 7.84.747 2.293 1.813 4.24 3.2 5.84 1.413 1.6 3.133 2.827 5.16 3.68 2.053.827 4.387 1.24 7 1.24 2.587 0 4.893-.413 6.92-1.24 2.027-.853 3.733-2.08 5.12-3.68 1.413-1.6 2.493-3.547 3.24-5.84.747-2.32 1.12-4.933 1.12-7.84zm50.904 2.52a49.19 49.19 0 0 1 1.52 3.16 63.043 63.043 0 0 1 1.44 3.36 57.474 57.474 0 0 1 1.44-3.4c.507-1.12 1.027-2.2 1.56-3.24l14.96-29.44c.267-.507.534-.893.8-1.16.294-.293.614-.507.96-.64a3.903 3.903 0 0 1 1.16-.24c.454-.027.974-.04 1.56-.04h10.32V75h-11.92V41.48c0-1.627.08-3.387.24-5.28l-15.44 29.96c-.48.933-1.133 1.64-1.96 2.12-.8.48-1.72.72-2.76.72h-1.84c-1.04 0-1.973-.24-2.8-.72-.8-.48-1.44-1.187-1.92-2.12l-15.52-30c.107.933.187 1.867.24 2.8.054.907.08 1.747.08 2.52V75h-11.92V16.72h10.32c.587 0 1.094.013 1.52.04.454.027.854.107 1.2.24.347.133.654.347.92.64.294.267.574.653.84 1.16l15 29.56zM4.8 163v-58.28h21.44c4.027 0 7.453.373 10.28 1.12 2.827.747 5.133 1.8 6.92 3.16s3.08 3.013 3.88 4.96c.827 1.947 1.24 4.12 1.24 6.52a12.98 12.98 0 0 1-.56 3.8c-.373 1.2-.96 2.333-1.76 3.4-.8 1.067-1.827 2.04-3.08 2.92-1.253.853-2.76 1.6-4.52 2.24 3.84.933 6.68 2.453 8.52 4.56 1.84 2.08 2.76 4.76 2.76 8.04 0 2.48-.48 4.787-1.44 6.92s-2.373 4-4.24 5.6c-1.84 1.573-4.12 2.813-6.84 3.72-2.72.88-5.827 1.32-9.32 1.32H4.8zm13.52-24.72v14.52h9.52c1.787 0 3.24-.227 4.36-.68 1.147-.453 2.04-1.04 2.68-1.76a5.902 5.902 0 0 0 1.32-2.44c.24-.907.36-1.827.36-2.76 0-1.067-.147-2.027-.44-2.88a4.565 4.565 0 0 0-1.44-2.16c-.667-.587-1.56-1.04-2.68-1.36-1.12-.32-2.533-.48-4.24-.48h-9.44zm0-9.04h7.04c1.493 0 2.84-.107 4.04-.32 1.2-.213 2.213-.587 3.04-1.12a4.973 4.973 0 0 0 1.92-2.2c.453-.933.68-2.107.68-3.52 0-1.387-.173-2.533-.52-3.44-.347-.933-.88-1.68-1.6-2.24-.72-.56-1.64-.96-2.76-1.2-1.093-.24-2.4-.36-3.92-.36h-7.92v14.4zm53.3 22.96h21.6V163H58.1v-58.28h13.52v47.48zm83.081-18.36c0 4.213-.733 8.133-2.2 11.76-1.44 3.627-3.48 6.787-6.12 9.48-2.64 2.667-5.826 4.76-9.56 6.28-3.706 1.52-7.826 2.28-12.36 2.28-4.533 0-8.666-.76-12.4-2.28-3.733-1.52-6.933-3.613-9.6-6.28-2.64-2.693-4.693-5.853-6.16-9.48-1.44-3.627-2.16-7.547-2.16-11.76s.72-8.133 2.16-11.76c1.467-3.627 3.52-6.773 6.16-9.44 2.667-2.667 5.867-4.76 9.6-6.28 3.734-1.52 7.867-2.28 12.4-2.28 4.534 0 8.654.773 12.36 2.32 3.734 1.52 6.92 3.613 9.56 6.28 2.64 2.667 4.68 5.813 6.12 9.44 1.467 3.627 2.2 7.533 2.2 11.72zm-13.84 0c0-2.88-.373-5.467-1.12-7.76-.746-2.32-1.826-4.28-3.24-5.88-1.386-1.6-3.093-2.827-5.12-3.68-2.026-.853-4.333-1.28-6.92-1.28-2.613 0-4.946.427-7 1.28-2.026.853-3.746 2.08-5.16 3.68-1.386 1.6-2.453 3.56-3.2 5.88-.746 2.293-1.12 4.88-1.12 7.76 0 2.907.374 5.52 1.12 7.84.747 2.293 1.814 4.24 3.2 5.84 1.414 1.6 3.134 2.827 5.16 3.68 2.054.827 4.387 1.24 7 1.24 2.587 0 4.894-.413 6.92-1.24 2.027-.853 3.734-2.08 5.12-3.68 1.414-1.6 2.494-3.547 3.24-5.84.747-2.32 1.12-4.933 1.12-7.84zm60.265 14.08c.32 0 .64.067.96.2.32.107.626.307.92.6l5.36 5.64c-2.347 3.067-5.294 5.387-8.84 6.96-3.52 1.547-7.694 2.32-12.52 2.32-4.427 0-8.4-.747-11.92-2.24-3.494-1.52-6.467-3.6-8.92-6.24-2.427-2.667-4.294-5.813-5.6-9.44-1.307-3.653-1.96-7.613-1.96-11.88 0-4.347.746-8.333 2.24-11.96 1.493-3.653 3.573-6.8 6.24-9.44 2.693-2.64 5.906-4.693 9.64-6.16 3.733-1.467 7.853-2.2 12.36-2.2 2.186 0 4.24.2 6.16.6 1.946.373 3.76.907 5.44 1.6 1.68.667 3.226 1.48 4.64 2.44a21.663 21.663 0 0 1 3.76 3.12l-4.56 6.12c-.294.373-.64.72-1.04 1.04-.4.293-.96.44-1.68.44-.48 0-.934-.107-1.36-.32-.427-.213-.88-.467-1.36-.76-.48-.32-1.014-.653-1.6-1-.56-.373-1.24-.707-2.04-1-.774-.32-1.694-.587-2.76-.8-1.04-.213-2.267-.32-3.68-.32-2.454 0-4.694.44-6.72 1.32a14.58 14.58 0 0 0-5.24 3.72c-1.44 1.6-2.574 3.547-3.4 5.84-.8 2.293-1.2 4.867-1.2 7.72 0 2.987.4 5.64 1.2 7.96.826 2.32 1.933 4.28 3.32 5.88 1.413 1.573 3.053 2.773 4.92 3.6 1.866.827 3.866 1.24 6 1.24a32.2 32.2 0 0 0 3.36-.16 14.389 14.389 0 0 0 2.8-.64c.88-.293 1.706-.667 2.48-1.12.8-.48 1.6-1.067 2.4-1.76.32-.267.666-.48 1.04-.64.373-.187.76-.28 1.16-.28zm27.738-19.6h2.16c2 0 3.44-.627 4.32-1.88l13.12-19.04c.72-1.04 1.533-1.747 2.44-2.12.933-.373 2.066-.56 3.4-.56h11.76l-17.28 23.56c-.614.853-1.254 1.56-1.92 2.12a12.105 12.105 0 0 1-2.04 1.4 9.707 9.707 0 0 1 2.76 1.56c.853.64 1.626 1.507 2.32 2.6l17.6 27.04h-12.08c-.774 0-1.44-.053-2-.16-.534-.107-1-.267-1.4-.48a4.352 4.352 0 0 1-1.04-.76 8.77 8.77 0 0 1-.84-1.08l-13.2-20.28c-.48-.747-1.094-1.267-1.84-1.56-.72-.32-1.707-.48-2.96-.48h-3.28V163h-13.52v-58.28h13.52v23.6zM47.12 192.72v10.72h-16.4V251H17.2v-47.56H.8v-10.72h46.32zm61.469 29.12c0 4.213-.734 8.133-2.2 11.76-1.44 3.627-3.48 6.787-6.12 9.48-2.64 2.667-5.827 4.76-9.56 6.28-3.707 1.52-7.827 2.28-12.36 2.28-4.534 0-8.667-.76-12.4-2.28-3.734-1.52-6.934-3.613-9.6-6.28-2.64-2.693-4.694-5.853-6.16-9.48-1.44-3.627-2.16-7.547-2.16-11.76s.72-8.133 2.16-11.76c1.466-3.627 3.52-6.773 6.16-9.44 2.666-2.667 5.866-4.76 9.6-6.28 3.733-1.52 7.866-2.28 12.4-2.28 4.533 0 8.653.773 12.36 2.32 3.733 1.52 6.92 3.613 9.56 6.28 2.64 2.667 4.68 5.813 6.12 9.44 1.466 3.627 2.2 7.533 2.2 11.72zm-13.84 0c0-2.88-.374-5.467-1.12-7.76-.747-2.32-1.827-4.28-3.24-5.88-1.387-1.6-3.094-2.827-5.12-3.68-2.027-.853-4.334-1.28-6.92-1.28-2.614 0-4.947.427-7 1.28-2.027.853-3.747 2.08-5.16 3.68-1.387 1.6-2.454 3.56-3.2 5.88-.747 2.293-1.12 4.88-1.12 7.76 0 2.907.373 5.52 1.12 7.84.746 2.293 1.813 4.24 3.2 5.84 1.413 1.6 3.133 2.827 5.16 3.68 2.053.827 4.386 1.24 7 1.24 2.586 0 4.893-.413 6.92-1.24 2.026-.853 3.733-2.08 5.12-3.68 1.413-1.6 2.493-3.547 3.24-5.84.746-2.32 1.12-4.933 1.12-7.84zM4.8 339v-58.28h21.44c4.027 0 7.453.373 10.28 1.12 2.827.747 5.133 1.8 6.92 3.16s3.08 3.013 3.88 4.96c.827 1.947 1.24 4.12 1.24 6.52a12.98 12.98 0 0 1-.56 3.8c-.373 1.2-.96 2.333-1.76 3.4-.8 1.067-1.827 2.04-3.08 2.92-1.253.853-2.76 1.6-4.52 2.24 3.84.933 6.68 2.453 8.52 4.56 1.84 2.08 2.76 4.76 2.76 8.04 0 2.48-.48 4.787-1.44 6.92s-2.373 4-4.24 5.6c-1.84 1.573-4.12 2.813-6.84 3.72-2.72.88-5.827 1.32-9.32 1.32H4.8zm13.52-24.72v14.52h9.52c1.787 0 3.24-.227 4.36-.68 1.147-.453 2.04-1.04 2.68-1.76a5.902 5.902 0 0 0 1.32-2.44c.24-.907.36-1.827.36-2.76 0-1.067-.147-2.027-.44-2.88a4.565 4.565 0 0 0-1.44-2.16c-.667-.587-1.56-1.04-2.68-1.36-1.12-.32-2.533-.48-4.24-.48h-9.44zm0-9.04h7.04c1.493 0 2.84-.107 4.04-.32 1.2-.213 2.213-.587 3.04-1.12a4.973 4.973 0 0 0 1.92-2.2c.453-.933.68-2.107.68-3.52 0-1.387-.173-2.533-.52-3.44-.347-.933-.88-1.68-1.6-2.24-.72-.56-1.64-.96-2.76-1.2-1.093-.24-2.4-.36-3.92-.36h-7.92v14.4zm97.3 4.6c0 4.213-.733 8.133-2.2 11.76-1.44 3.627-3.48 6.787-6.12 9.48-2.64 2.667-5.827 4.76-9.56 6.28-3.707 1.52-7.827 2.28-12.36 2.28-4.533 0-8.667-.76-12.4-2.28-3.733-1.52-6.933-3.613-9.6-6.28-2.64-2.693-4.693-5.853-6.16-9.48-1.44-3.627-2.16-7.547-2.16-11.76s.72-8.133 2.16-11.76c1.467-3.627 3.52-6.773 6.16-9.44 2.667-2.667 5.867-4.76 9.6-6.28 3.733-1.52 7.867-2.28 12.4-2.28s8.653.773 12.36 2.32c3.733 1.52 6.92 3.613 9.56 6.28 2.64 2.667 4.68 5.813 6.12 9.44 1.467 3.627 2.2 7.533 2.2 11.72zm-13.84 0c0-2.88-.373-5.467-1.12-7.76-.747-2.32-1.827-4.28-3.24-5.88-1.387-1.6-3.093-2.827-5.12-3.68-2.027-.853-4.333-1.28-6.92-1.28-2.613 0-4.947.427-7 1.28-2.027.853-3.747 2.08-5.16 3.68-1.387 1.6-2.453 3.56-3.2 5.88-.747 2.293-1.12 4.88-1.12 7.76 0 2.907.373 5.52 1.12 7.84.747 2.293 1.813 4.24 3.2 5.84 1.413 1.6 3.133 2.827 5.16 3.68 2.053.827 4.387 1.24 7 1.24 2.587 0 4.893-.413 6.92-1.24 2.027-.853 3.733-2.08 5.12-3.68 1.413-1.6 2.493-3.547 3.24-5.84.747-2.32 1.12-4.933 1.12-7.84zm73.984 0c0 4.213-.733 8.107-2.2 11.68-1.44 3.547-3.48 6.627-6.12 9.24-2.64 2.587-5.826 4.613-9.56 6.08-3.706 1.44-7.826 2.16-12.36 2.16h-22.64v-58.28h22.64c4.534 0 8.654.733 12.36 2.2 3.734 1.467 6.92 3.493 9.56 6.08 2.64 2.587 4.68 5.667 6.12 9.24 1.467 3.547 2.2 7.413 2.2 11.6zm-13.84 0c0-2.88-.373-5.48-1.12-7.8-.746-2.32-1.826-4.28-3.24-5.88-1.386-1.627-3.093-2.867-5.12-3.72-2.026-.88-4.333-1.32-6.92-1.32h-9.04v37.48h9.04c2.587 0 4.894-.427 6.92-1.28 2.027-.88 3.734-2.12 5.12-3.72 1.414-1.627 2.494-3.6 3.24-5.92.747-2.32 1.12-4.933 1.12-7.84zm46.972 7V339h-13.52v-22.16l-21.12-36.12h11.92c1.174 0 2.107.28 2.8.84.694.533 1.254 1.227 1.68 2.08l8.24 16.96c.667 1.36 1.28 2.613 1.84 3.76a40.902 40.902 0 0 1 1.48 3.4c.4-1.147.88-2.293 1.44-3.44a631.57 631.57 0 0 0 1.8-3.72l8.16-16.96c.16-.347.374-.693.64-1.04.294-.347.614-.653.96-.92.374-.293.787-.52 1.24-.68.48-.187 1-.28 1.56-.28h12l-21.12 36.12zm31.948 6.379h16.992v13.086c0 4.817-1.003 8.619-3.008 11.406-2.005 2.786-5.43 5.247-10.273 7.383l-3.711-6.953c3.021-1.407 5.091-2.813 6.211-4.219 1.146-1.38 1.784-3.021 1.914-4.922h-8.125v-15.781z" fill="#121111"/></svg>