<svg width="317" height="20" fill="none" xmlns="http://www.w3.org/2000/svg"><path d="M3.9 16H.5V1.43h3.4V16zm6.973 0V1.03h3.1v5.7a4.67 4.67 0 0 1 1.31-.91c.494-.233 1.07-.35 1.73-.35.54 0 1.04.117 1.5.35.46.233.857.577 1.19 1.03.334.447.594.997.78 1.65.194.653.29 1.397.29 2.23 0 .78-.11 1.5-.33 2.16a5.295 5.295 0 0 1-.91 1.72 4.126 4.126 0 0 1-1.4 1.14c-.54.273-1.14.41-1.8.41a3.087 3.087 0 0 1-1.5-.34 3.297 3.297 0 0 1-.56-.4 6.984 6.984 0 0 1-.49-.5l-.11.52c-.046.213-.133.36-.26.44-.12.08-.28.12-.48.12h-2.06zm5.06-8.2c-.226 0-.433.023-.62.07-.18.04-.35.1-.51.18-.153.08-.296.183-.43.31-.133.12-.266.26-.4.42v4.4c.234.26.487.443.76.55.274.1.56.15.86.15.287 0 .55-.057.79-.17.24-.113.447-.293.62-.54.18-.253.32-.58.42-.98.1-.4.15-.887.15-1.46 0-.547-.04-1.007-.12-1.38-.08-.373-.193-.673-.34-.9-.14-.233-.31-.4-.51-.5-.2-.1-.423-.15-.67-.15zm9.642-2.17v6.58c0 .513.117.91.35 1.19.233.28.577.42 1.03.42.34 0 .657-.07.95-.21.3-.14.59-.337.87-.59V5.63h3.1V16h-1.92c-.387 0-.64-.173-.76-.52l-.19-.6c-.2.193-.407.37-.62.53a4.138 4.138 0 0 1-.69.4c-.24.107-.5.19-.78.25-.28.067-.587.1-.92.1-.567 0-1.07-.097-1.51-.29-.433-.2-.8-.477-1.1-.83a3.59 3.59 0 0 1-.68-1.25 5.171 5.171 0 0 1-.23-1.58V5.63h3.1zm12.102 0V16h-3.1V5.63h3.1zm.36-2.84c0 .247-.05.48-.15.7a1.91 1.91 0 0 1-.41.57c-.174.16-.377.29-.61.39-.227.093-.47.14-.73.14-.254 0-.49-.047-.71-.14-.22-.1-.417-.23-.59-.39a2 2 0 0 1-.4-.57 1.773 1.773 0 0 1-.14-.7c0-.253.046-.49.14-.71.1-.22.233-.413.4-.58.173-.167.37-.297.59-.39.22-.093.456-.14.71-.14.26 0 .503.047.73.14a1.875 1.875 0 0 1 1.02.97c.1.22.15.457.15.71zm5.543-1.76V16h-3.1V1.03h3.1zM53.563 16a.88.88 0 0 1-.49-.13.703.703 0 0 1-.27-.39l-.24-.79a6.08 6.08 0 0 1-.65.6 4.22 4.22 0 0 1-.74.47c-.26.127-.544.223-.85.29-.3.073-.627.11-.98.11-.54 0-1.04-.12-1.5-.36a3.457 3.457 0 0 1-1.19-1.04c-.334-.453-.597-1.007-.79-1.66-.187-.66-.28-1.41-.28-2.25 0-.773.107-1.49.32-2.15a5.27 5.27 0 0 1 .9-1.72 4.226 4.226 0 0 1 1.41-1.14 3.99 3.99 0 0 1 1.81-.41c.533 0 .983.08 1.35.24.373.153.71.357 1.01.61V1.03h3.1V16h-1.92zm-3.14-2.22c.227 0 .43-.02.61-.06a2.31 2.31 0 0 0 .51-.19c.153-.08.297-.18.43-.3.14-.12.276-.26.41-.42v-4.4a1.99 1.99 0 0 0-.77-.54 2.267 2.267 0 0 0-.85-.16c-.287 0-.55.057-.79.17-.24.113-.45.297-.63.55-.174.247-.31.57-.41.97-.1.4-.15.883-.15 1.45 0 .547.04 1.007.12 1.38.08.373.19.677.33.91.147.227.32.39.52.49.2.1.423.15.67.15zm14.629-8.15v6.58c0 .513.116.91.35 1.19.233.28.576.42 1.03.42.34 0 .656-.07.95-.21.3-.14.59-.337.87-.59V5.63h3.1V16h-1.92c-.387 0-.64-.173-.76-.52l-.19-.6c-.2.193-.407.37-.62.53a4.146 4.146 0 0 1-.69.4c-.24.107-.5.19-.78.25-.28.067-.587.1-.92.1-.567 0-1.07-.097-1.51-.29a3.16 3.16 0 0 1-1.1-.83 3.59 3.59 0 0 1-.68-1.25 5.168 5.168 0 0 1-.23-1.58V5.63h3.1zm8.901 13.66V5.63h1.92c.194 0 .353.043.48.13a.685.685 0 0 1 .28.39l.23.76c.2-.22.413-.42.64-.6a4.276 4.276 0 0 1 1.59-.77c.307-.073.64-.11 1-.11.54 0 1.04.12 1.5.36.46.24.857.587 1.19 1.04.334.453.593 1.01.78 1.67.194.653.29 1.397.29 2.23 0 .78-.11 1.5-.33 2.16a5.295 5.295 0 0 1-.91 1.72 4.126 4.126 0 0 1-1.4 1.14c-.54.273-1.14.41-1.8.41-.54 0-.993-.077-1.36-.23-.367-.153-.7-.36-1-.62v3.98h-3.1zm5.06-11.49a2.54 2.54 0 0 0-.62.07c-.18.04-.35.1-.51.18-.153.08-.296.183-.43.31-.133.12-.267.26-.4.42v4.4c.234.26.487.443.76.55.273.1.56.15.86.15.287 0 .55-.057.79-.17.24-.113.447-.293.62-.54.18-.253.32-.58.42-.98.1-.4.15-.887.15-1.46 0-.547-.04-1.007-.12-1.38-.08-.373-.193-.673-.34-.9-.14-.233-.31-.4-.51-.5-.2-.1-.423-.15-.67-.15zm17.93 8.2c-.293 0-.517-.04-.67-.12-.147-.08-.27-.247-.37-.5l-.22-.57c-.26.22-.51.413-.75.58-.24.167-.49.31-.75.43a3.56 3.56 0 0 1-.82.25 4.7 4.7 0 0 1-.96.09 4.34 4.34 0 0 1-1.29-.18 2.8 2.8 0 0 1-.99-.55 2.433 2.433 0 0 1-.62-.89 3.265 3.265 0 0 1-.22-1.24c0-.367.093-.743.28-1.13.186-.387.51-.737.97-1.05.46-.32 1.08-.587 1.86-.8.78-.213 1.763-.333 2.95-.36v-.44c0-.607-.127-1.043-.38-1.31-.247-.273-.6-.41-1.06-.41-.367 0-.667.04-.9.12a4.2 4.2 0 0 0-.63.27c-.18.1-.357.19-.53.27-.174.08-.38.12-.62.12a.984.984 0 0 1-.55-.15 1.221 1.221 0 0 1-.35-.39l-.56-.97a6.245 6.245 0 0 1 2.08-1.23 7.272 7.272 0 0 1 2.46-.41c.627 0 1.19.103 1.69.31.507.2.933.483 1.28.85.353.36.623.79.81 1.29.186.5.28 1.047.28 1.64V16h-1.42zm-3.56-1.89c.4 0 .75-.07 1.05-.21.3-.14.603-.367.91-.68v-1.44c-.62.027-1.13.08-1.53.16-.4.08-.717.18-.95.3-.234.12-.397.257-.49.41a.999.999 0 0 0-.13.5c0 .353.097.603.29.75.193.14.477.21.85.21zm7.381 1.89V5.63h1.92a.83.83 0 0 1 .48.13.686.686 0 0 1 .28.39l.18.6c.2-.187.407-.36.62-.52a3.792 3.792 0 0 1 1.47-.66c.287-.067.597-.1.93-.1.567 0 1.067.1 1.5.3.44.193.81.467 1.11.82.3.347.527.763.68 1.25.153.48.23 1.003.23 1.57V16h-3.1V9.41c0-.507-.117-.9-.35-1.18-.233-.287-.577-.43-1.03-.43-.34 0-.66.073-.96.22-.3.147-.587.343-.86.59V16h-3.1zm19.082 0a.878.878 0 0 1-.49-.13.7.7 0 0 1-.27-.39l-.24-.79c-.207.22-.424.42-.65.6a4.24 4.24 0 0 1-.74.47c-.26.127-.544.223-.85.29-.3.073-.627.11-.98.11-.54 0-1.04-.12-1.5-.36a3.454 3.454 0 0 1-1.19-1.04c-.334-.453-.597-1.007-.79-1.66-.187-.66-.28-1.41-.28-2.25 0-.773.106-1.49.32-2.15.213-.667.513-1.24.9-1.72a4.22 4.22 0 0 1 1.41-1.14 3.988 3.988 0 0 1 1.81-.41c.533 0 .983.08 1.35.24.373.153.71.357 1.01.61V1.03h3.1V16h-1.92zm-3.14-2.22c.226 0 .43-.02.61-.06a2.106 2.106 0 0 0 .94-.49c.14-.12.276-.26.41-.42v-4.4a1.99 1.99 0 0 0-.77-.54 2.268 2.268 0 0 0-.85-.16c-.287 0-.55.057-.79.17-.24.113-.45.297-.63.55-.174.247-.31.57-.41.97-.1.4-.15.883-.15 1.45 0 .547.04 1.007.12 1.38.08.373.19.677.33.91.146.227.32.39.52.49.2.1.423.15.67.15zM128.434 16V5.63h1.92c.194 0 .354.043.48.13a.681.681 0 0 1 .28.39l.17.56c.174-.18.354-.343.54-.49.187-.153.387-.283.6-.39.22-.113.454-.2.7-.26.254-.067.53-.1.83-.1.627 0 1.144.163 1.55.49.414.32.727.75.94 1.29.174-.32.384-.593.63-.82.254-.227.524-.41.81-.55.294-.14.6-.243.92-.31.327-.067.65-.1.97-.1.594 0 1.12.09 1.58.27.46.173.844.43 1.15.77.314.333.55.747.71 1.24.16.487.24 1.04.24 1.66V16h-3.1V9.41c0-1.073-.46-1.61-1.38-1.61-.42 0-.77.14-1.05.42-.273.273-.41.67-.41 1.19V16h-3.1V9.41c0-.593-.116-1.01-.35-1.25-.233-.24-.576-.36-1.03-.36-.28 0-.546.063-.8.19-.246.127-.48.297-.7.51V16h-3.1zm24.587 0c-.293 0-.517-.04-.67-.12-.147-.08-.27-.247-.37-.5l-.22-.57c-.26.22-.51.413-.75.58-.24.167-.49.31-.75.43a3.56 3.56 0 0 1-.82.25c-.287.06-.607.09-.96.09-.473 0-.903-.06-1.29-.18a2.795 2.795 0 0 1-.99-.55 2.433 2.433 0 0 1-.62-.89 3.26 3.26 0 0 1-.22-1.24c0-.367.093-.743.28-1.13.187-.387.51-.737.97-1.05.46-.32 1.08-.587 1.86-.8.78-.213 1.763-.333 2.95-.36v-.44c0-.607-.127-1.043-.38-1.31-.247-.273-.6-.41-1.06-.41-.367 0-.667.04-.9.12a4.29 4.29 0 0 0-.63.27c-.18.1-.357.19-.53.27-.173.08-.38.12-.62.12a.984.984 0 0 1-.55-.15 1.221 1.221 0 0 1-.35-.39l-.56-.97a6.248 6.248 0 0 1 2.08-1.23 7.274 7.274 0 0 1 2.46-.41c.627 0 1.19.103 1.69.31.507.2.933.483 1.28.85.353.36.623.79.81 1.29.187.5.28 1.047.28 1.64V16h-1.42zm-3.56-1.89c.4 0 .75-.07 1.05-.21.3-.14.603-.367.91-.68v-1.44c-.62.027-1.13.08-1.53.16-.4.08-.717.18-.95.3-.233.12-.397.257-.49.41a.996.996 0 0 0-.13.5c0 .353.097.603.29.75.193.14.477.21.85.21zm10.481-13.08v8.39h.46c.194 0 .34-.027.44-.08a.813.813 0 0 0 .3-.29l1.96-2.92c.114-.173.247-.3.4-.38.16-.08.36-.12.6-.12h2.84l-2.68 3.69a2.723 2.723 0 0 1-.42.46 3.156 3.156 0 0 1-.48.36c.3.227.56.527.78.9l2.92 4.96h-2.8c-.233 0-.436-.037-.61-.11a.94.94 0 0 1-.41-.41l-1.96-3.67c-.093-.167-.19-.273-.29-.32-.1-.053-.25-.08-.45-.08h-.6V16h-3.1V1.03h3.1zM172.4 5.47c.687 0 1.313.107 1.88.32a4.046 4.046 0 0 1 1.47.93c.413.407.733.907.96 1.5.233.587.35 1.253.35 2 0 .233-.01.423-.03.57a.908.908 0 0 1-.11.35.417.417 0 0 1-.22.18.966.966 0 0 1-.34.05h-5.98c.1.867.363 1.497.79 1.89.427.387.977.58 1.65.58.36 0 .67-.043.93-.13.26-.087.49-.183.69-.29l.56-.29a1.19 1.19 0 0 1 .54-.13c.247 0 .433.09.56.27l.9 1.11c-.32.367-.667.667-1.04.9a5.569 5.569 0 0 1-1.14.54 6.045 6.045 0 0 1-1.17.26c-.387.053-.757.08-1.11.08-.727 0-1.41-.117-2.05-.35a4.822 4.822 0 0 1-1.67-1.06c-.473-.467-.85-1.047-1.13-1.74-.273-.693-.41-1.5-.41-2.42 0-.693.117-1.35.35-1.97a4.96 4.96 0 0 1 1.02-1.63 4.926 4.926 0 0 1 1.61-1.11c.633-.273 1.347-.41 2.14-.41zm.06 2.14c-.593 0-1.057.17-1.39.51-.333.333-.553.817-.66 1.45h3.87c0-.247-.033-.487-.1-.72a1.594 1.594 0 0 0-.31-.62 1.511 1.511 0 0 0-.56-.45c-.233-.113-.517-.17-.85-.17zm14.286 8.55c-.493 0-.93-.07-1.31-.21a2.745 2.745 0 0 1-.95-.61 2.7 2.7 0 0 1-.58-.96c-.133-.373-.2-.79-.2-1.25V7.77h-.88a.6.6 0 0 1-.41-.15c-.113-.107-.17-.26-.17-.46V5.95l1.65-.32.61-2.53c.08-.32.307-.48.68-.48h1.62v3.03h2.52v2.12h-2.52v5.15c0 .24.057.44.17.6.12.153.29.23.51.23.114 0 .207-.01.28-.03.08-.027.147-.053.2-.08.06-.033.114-.06.16-.08a.4.4 0 0 1 .18-.04.32.32 0 0 1 .22.07c.06.04.12.107.18.2l.94 1.47c-.4.3-.85.527-1.35.68-.5.147-1.016.22-1.55.22zm4.568-.16V1.03h3.1v5.51c.373-.32.777-.577 1.21-.77.44-.2.963-.3 1.57-.3.567 0 1.067.1 1.5.3.44.193.81.467 1.11.82.3.347.527.763.68 1.25.153.48.23 1.003.23 1.57V16h-3.1V9.41c0-.507-.117-.9-.35-1.18-.233-.287-.577-.43-1.03-.43-.34 0-.66.073-.96.22-.3.147-.587.343-.86.59V16h-3.1zm15.002-10.37V16h-3.1V5.63h3.1zm.36-2.84c0 .247-.05.48-.15.7-.1.213-.237.403-.41.57-.174.16-.377.29-.61.39a1.9 1.9 0 0 1-.73.14c-.254 0-.49-.047-.71-.14-.22-.1-.417-.23-.59-.39a1.995 1.995 0 0 1-.4-.57 1.762 1.762 0 0 1-.14-.7c0-.253.046-.49.14-.71.1-.22.233-.413.4-.58a1.93 1.93 0 0 1 .59-.39c.22-.093.456-.14.71-.14.26 0 .503.047.73.14a1.877 1.877 0 0 1 1.02.97c.1.22.15.457.15.71zM209.019 16V5.63h1.92a.83.83 0 0 1 .48.13.69.69 0 0 1 .28.39l.18.6c.2-.187.406-.36.62-.52a3.773 3.773 0 0 1 1.47-.66c.286-.067.596-.1.93-.1.566 0 1.066.1 1.5.3.44.193.81.467 1.11.82.3.347.526.763.68 1.25.153.48.23 1.003.23 1.57V16h-3.1V9.41c0-.507-.117-.9-.35-1.18-.234-.287-.577-.43-1.03-.43-.34 0-.66.073-.96.22-.3.147-.587.343-.86.59V16h-3.1zM224.48 5.45c.44 0 .854.043 1.24.13.394.087.757.21 1.09.37h3.13v1.13c0 .173-.05.31-.15.41-.093.1-.256.177-.49.23l-.76.17c.094.3.14.61.14.93 0 .52-.11.987-.33 1.4-.213.413-.51.767-.89 1.06-.373.287-.816.51-1.33.67a5.736 5.736 0 0 1-1.65.23c-.326 0-.633-.02-.92-.06-.226.133-.34.287-.34.46 0 .173.09.3.27.38.187.073.43.127.73.16.3.027.644.047 1.03.06.387.007.78.03 1.18.07.4.033.794.093 1.18.18.387.087.73.227 1.03.42.3.193.54.453.72.78.187.32.28.73.28 1.23 0 .467-.113.923-.34 1.37a3.57 3.57 0 0 1-1 1.19c-.44.347-.98.623-1.62.83-.64.213-1.373.32-2.2.32-.813 0-1.516-.077-2.11-.23-.586-.153-1.076-.357-1.47-.61-.386-.247-.673-.533-.86-.86a2.035 2.035 0 0 1-.28-1.02c0-.46.14-.847.42-1.16.28-.32.664-.57 1.15-.75a1.759 1.759 0 0 1-.56-.59c-.14-.24-.21-.543-.21-.91a1.784 1.784 0 0 1 .33-.98 2.54 2.54 0 0 1 .43-.46c.174-.147.38-.277.62-.39a3.434 3.434 0 0 1-1.28-1.14c-.306-.473-.46-1.023-.46-1.65 0-.52.11-.987.33-1.4.22-.42.52-.773.9-1.06.387-.293.84-.517 1.36-.67.52-.16 1.084-.24 1.69-.24zm2.3 10.93a.52.52 0 0 0-.16-.4c-.1-.1-.24-.18-.42-.24a2.881 2.881 0 0 0-.62-.13 11.666 11.666 0 0 0-.76-.06 32.858 32.858 0 0 0-.85-.03 12.441 12.441 0 0 1-.87-.07 2.087 2.087 0 0 0-.48.45.892.892 0 0 0-.18.55c0 .147.03.28.09.4a.82.82 0 0 0 .34.31c.16.087.374.153.64.2.274.053.617.08 1.03.08.447 0 .814-.027 1.1-.08a2.25 2.25 0 0 0 .68-.22.807.807 0 0 0 .46-.76zm-2.3-6.11c.514 0 .884-.127 1.11-.38.234-.26.35-.593.35-1 0-.42-.116-.75-.35-.99-.226-.24-.596-.36-1.11-.36-.513 0-.886.12-1.12.36-.226.24-.34.57-.34.99 0 .2.027.383.08.55.06.167.15.313.27.44.12.12.27.217.45.29.187.067.407.1.66.1zm13.349-2.37a.783.783 0 0 1-.26.27.643.643 0 0 1-.34.08c-.147 0-.293-.03-.44-.09a21.152 21.152 0 0 0-.48-.21 4.369 4.369 0 0 0-.57-.2 2.447 2.447 0 0 0-.73-.1c-.393 0-.697.077-.91.23a.715.715 0 0 0-.31.62c0 .193.067.353.2.48.14.127.323.24.55.34.227.093.483.183.77.27.287.087.58.183.88.29.3.107.593.233.88.38.287.14.543.317.77.53.227.207.407.46.54.76.14.3.21.66.21 1.08 0 .513-.093.987-.28 1.42a3 3 0 0 1-.84 1.12c-.367.313-.823.557-1.37.73-.54.173-1.163.26-1.87.26-.353 0-.707-.033-1.06-.1a7.545 7.545 0 0 1-1.03-.27 5.94 5.94 0 0 1-.91-.4c-.28-.16-.52-.33-.72-.51l.72-1.14a.986.986 0 0 1 .31-.31c.12-.08.277-.12.47-.12.18 0 .34.04.48.12.147.08.303.167.47.26.167.093.36.18.58.26.227.08.51.12.85.12.24 0 .443-.023.61-.07.167-.053.3-.123.4-.21a.81.81 0 0 0 .29-.62.673.673 0 0 0-.21-.51 1.756 1.756 0 0 0-.55-.34c-.227-.1-.487-.19-.78-.27a19.17 19.17 0 0 1-.88-.29 7.903 7.903 0 0 1-.89-.38 3.248 3.248 0 0 1-.77-.57 2.704 2.704 0 0 1-.55-.85c-.14-.333-.21-.737-.21-1.21 0-.44.083-.857.25-1.25.173-.4.43-.75.77-1.05.34-.3.767-.537 1.28-.71.513-.18 1.113-.27 1.8-.27a5.713 5.713 0 0 1 2.07.38c.307.12.587.263.84.43.253.16.477.337.67.53l-.7 1.09zm6.736 8.1V1.03h3.1v5.51c.373-.32.777-.577 1.21-.77.44-.2.963-.3 1.57-.3.567 0 1.067.1 1.5.3.44.193.81.467 1.11.82.3.347.527.763.68 1.25.153.48.23 1.003.23 1.57V16h-3.1V9.41c0-.507-.117-.9-.35-1.18-.233-.287-.577-.43-1.03-.43-.34 0-.66.073-.96.22-.3.147-.587.343-.86.59V16h-3.1zm18.961 0c-.293 0-.516-.04-.67-.12-.146-.08-.27-.247-.37-.5l-.22-.57c-.26.22-.51.413-.75.58-.24.167-.49.31-.75.43a3.544 3.544 0 0 1-.82.25 4.69 4.69 0 0 1-.96.09c-.473 0-.903-.06-1.29-.18a2.813 2.813 0 0 1-.99-.55 2.444 2.444 0 0 1-.62-.89 3.279 3.279 0 0 1-.22-1.24 2.6 2.6 0 0 1 .28-1.13c.187-.387.51-.737.97-1.05.46-.32 1.08-.587 1.86-.8.78-.213 1.764-.333 2.95-.36v-.44c0-.607-.126-1.043-.38-1.31-.246-.273-.6-.41-1.06-.41-.366 0-.666.04-.9.12a4.29 4.29 0 0 0-.63.27c-.18.1-.356.19-.53.27-.173.08-.38.12-.62.12a.987.987 0 0 1-.55-.15 1.233 1.233 0 0 1-.35-.39l-.56-.97a6.248 6.248 0 0 1 2.08-1.23 7.274 7.274 0 0 1 2.46-.41c.627 0 1.19.103 1.69.31.507.2.934.483 1.28.85.354.36.624.79.81 1.29.187.5.28 1.047.28 1.64V16h-1.42zm-3.56-1.89c.4 0 .75-.07 1.05-.21.3-.14.604-.367.91-.68v-1.44c-.62.027-1.13.08-1.53.16-.4.08-.716.18-.95.3-.233.12-.396.257-.49.41-.086.153-.13.32-.13.5 0 .353.097.603.29.75.194.14.477.21.85.21zm7.382 5.18V5.63h1.92a.83.83 0 0 1 .48.13.69.69 0 0 1 .28.39l.23.76c.2-.22.413-.42.64-.6a4.261 4.261 0 0 1 1.59-.77 4.31 4.31 0 0 1 1-.11c.54 0 1.04.12 1.5.36.46.24.856.587 1.19 1.04.333.453.593 1.01.78 1.67.193.653.29 1.397.29 2.23 0 .78-.11 1.5-.33 2.16a5.316 5.316 0 0 1-.91 1.72 4.136 4.136 0 0 1-1.4 1.14c-.54.273-1.14.41-1.8.41-.54 0-.994-.077-1.36-.23-.367-.153-.7-.36-1-.62v3.98h-3.1zm5.06-11.49a2.55 2.55 0 0 0-.62.07 1.867 1.867 0 0 0-.94.49 3.96 3.96 0 0 0-.4.42v4.4c.233.26.486.443.76.55.273.1.56.15.86.15.286 0 .55-.057.79-.17a1.59 1.59 0 0 0 .62-.54c.18-.253.32-.58.42-.98.1-.4.15-.887.15-1.46 0-.547-.04-1.007-.12-1.38-.08-.373-.194-.673-.34-.9-.14-.233-.31-.4-.51-.5-.2-.1-.424-.15-.67-.15zm6.702 11.49V5.63h1.92a.83.83 0 0 1 .48.13.686.686 0 0 1 .28.39l.23.76c.2-.22.413-.42.64-.6a4.261 4.261 0 0 1 1.59-.77c.307-.073.64-.11 1-.11.54 0 1.04.12 1.5.36.46.24.857.587 1.19 1.04.333.453.593 1.01.78 1.67.193.653.29 1.397.29 2.23 0 .78-.11 1.5-.33 2.16a5.297 5.297 0 0 1-.91 1.72 4.127 4.127 0 0 1-1.4 1.14c-.54.273-1.14.41-1.8.41-.54 0-.993-.077-1.36-.23-.367-.153-.7-.36-1-.62v3.98h-3.1zm5.06-11.49a2.54 2.54 0 0 0-.62.07c-.18.04-.35.1-.51.18-.153.08-.297.183-.43.31-.133.12-.267.26-.4.42v4.4c.233.26.487.443.76.55.273.1.56.15.86.15.287 0 .55-.057.79-.17.24-.113.447-.293.62-.54.18-.253.32-.58.42-.98.1-.4.15-.887.15-1.46 0-.547-.04-1.007-.12-1.38-.08-.373-.193-.673-.34-.9-.14-.233-.31-.4-.51-.5-.2-.1-.423-.15-.67-.15zm11.143-2.33a5.31 5.31 0 0 1 1.88.32 4.046 4.046 0 0 1 1.47.93c.413.407.733.907.96 1.5.233.587.35 1.253.35 2 0 .233-.01.423-.03.57a.908.908 0 0 1-.11.35.42.42 0 0 1-.22.18.966.966 0 0 1-.34.05h-5.98c.1.867.363 1.497.79 1.89.426.387.976.58 1.65.58.36 0 .67-.043.93-.13.26-.087.49-.183.69-.29l.56-.29a1.19 1.19 0 0 1 .54-.13c.246 0 .433.09.56.27l.9 1.11c-.32.367-.667.667-1.04.9a5.569 5.569 0 0 1-1.14.54 6.045 6.045 0 0 1-1.17.26c-.387.053-.757.08-1.11.08-.727 0-1.41-.117-2.05-.35a4.812 4.812 0 0 1-1.67-1.06c-.474-.467-.85-1.047-1.13-1.74-.274-.693-.41-1.5-.41-2.42 0-.693.116-1.35.35-1.97a4.96 4.96 0 0 1 1.02-1.63 4.915 4.915 0 0 1 1.61-1.11c.633-.273 1.346-.41 2.14-.41zm.06 2.14c-.594 0-1.057.17-1.39.51-.334.333-.554.817-.66 1.45h3.87a2.63 2.63 0 0 0-.1-.72 1.608 1.608 0 0 0-.31-.62 1.511 1.511 0 0 0-.56-.45 1.94 1.94 0 0 0-.85-.17zm6.579 8.39V5.63h1.92a.83.83 0 0 1 .48.13.69.69 0 0 1 .28.39l.18.6c.2-.187.406-.36.62-.52a3.773 3.773 0 0 1 1.47-.66c.286-.067.596-.1.93-.1.566 0 1.066.1 1.5.3.44.193.81.467 1.11.82.3.347.526.763.68 1.25.153.48.23 1.003.23 1.57V16h-3.1V9.41c0-.507-.117-.9-.35-1.18-.234-.287-.577-.43-1.03-.43-.34 0-.66.073-.96.22-.3.147-.587.343-.86.59V16h-3.1zm11.201-1.57c0-.24.043-.463.13-.67a1.8 1.8 0 0 1 .37-.54 1.76 1.76 0 0 1 .56-.36c.213-.093.447-.14.7-.14a1.7 1.7 0 0 1 .69.14c.213.087.4.207.56.36.16.153.283.333.37.54.093.207.14.43.14.67 0 .24-.047.467-.14.68-.087.207-.21.387-.37.54a1.76 1.76 0 0 1-.56.36c-.213.087-.443.13-.69.13-.253 0-.487-.043-.7-.13a1.76 1.76 0 0 1-.56-.36 1.807 1.807 0 0 1-.37-.54 1.783 1.783 0 0 1-.13-.68z" fill="#121111"/></svg>