<svg width="90" height="21" fill="none" xmlns="http://www.w3.org/2000/svg"><path d="M14.287 15.099c.104 0 .208.022.312.065.104.035.204.1.299.195l1.742 1.833a7.275 7.275 0 0 1-2.873 2.262c-1.144.503-2.5.754-4.069.754-1.439 0-2.73-.243-3.874-.728a8.57 8.57 0 0 1-2.899-2.028c-.789-.867-1.395-1.89-1.82-3.068C.68 13.197.468 11.91.468 10.523c0-1.413.243-2.708.728-3.887a9.114 9.114 0 0 1 2.028-3.068c.875-.858 1.92-1.525 3.133-2.002C7.57 1.089 8.909.851 10.374.851c.71 0 1.378.065 2.002.195a9.131 9.131 0 0 1 1.768.52 7.78 7.78 0 0 1 1.508.793c.46.303.867.641 1.222 1.014l-1.482 1.989a2.076 2.076 0 0 1-.338.338c-.13.095-.312.143-.546.143a.975.975 0 0 1-.442-.104 5.987 5.987 0 0 1-.442-.247c-.156-.104-.33-.212-.52-.325a3.15 3.15 0 0 0-.663-.325 4.847 4.847 0 0 0-.897-.26 6.021 6.021 0 0 0-1.196-.104c-.797 0-1.525.143-2.184.429a4.744 4.744 0 0 0-1.703 1.209c-.468.52-.836 1.153-1.105 1.898-.26.745-.39 1.582-.39 2.509 0 .97.13 1.833.39 2.587.269.754.628 1.391 1.079 1.911.46.511.992.901 1.599 1.17a4.76 4.76 0 0 0 1.95.403c.399 0 .763-.017 1.092-.052a4.67 4.67 0 0 0 .91-.208 4.23 4.23 0 0 0 .806-.364c.26-.156.52-.347.78-.572.104-.087.217-.156.338-.208a.833.833 0 0 1 .377-.091zm9.015 1.391h7.02V20H18.908V1.059h4.394V16.49zM37.46 20h-4.42V1.059h4.42V20zm8.172-6.331V20h-4.394V1.059h6.682c1.335 0 2.48.16 3.432.481.962.312 1.751.745 2.366 1.3a5.063 5.063 0 0 1 1.378 1.963 6.65 6.65 0 0 1 .442 2.444c0 .945-.151 1.811-.455 2.6a5.217 5.217 0 0 1-1.39 2.028c-.625.563-1.418 1.005-2.38 1.326-.953.312-2.084.468-3.393.468h-2.288zm0-3.315h2.288c1.144 0 1.968-.273 2.47-.819.503-.546.754-1.309.754-2.288 0-.433-.065-.828-.195-1.183a2.317 2.317 0 0 0-.598-.91 2.55 2.55 0 0 0-1-.598c-.4-.139-.876-.208-1.43-.208h-2.289v6.006zm16.84 6.136h7.02V20H58.079V1.059h4.394V16.49zM89.45 20h-3.406c-.381 0-.698-.087-.95-.26a1.426 1.426 0 0 1-.506-.689l-1.118-3.302h-7.202l-1.118 3.302c-.087.243-.256.464-.507.663-.251.19-.56.286-.923.286h-3.432L77.62 1.059h4.498L89.449 20zm-12.17-7.241h5.174l-1.742-5.187c-.113-.33-.247-.715-.403-1.157-.147-.45-.295-.936-.442-1.456a25.727 25.727 0 0 1-.43 1.469c-.146.45-.285.84-.415 1.17l-1.742 5.161z" fill="#121111"/></svg>