<svg width="78" height="19" fill="none" xmlns="http://www.w3.org/2000/svg"><path d="M6.292 18.208c-.641 0-1.209-.091-1.703-.273a3.564 3.564 0 0 1-1.235-.793 3.49 3.49 0 0 1-.754-1.248 4.806 4.806 0 0 1-.26-1.625V7.301H1.196a.778.778 0 0 1-.533-.195c-.147-.139-.221-.338-.221-.598V4.935l2.145-.416.793-3.289c.104-.416.399-.624.884-.624H6.37v3.939h3.276v2.756H6.37v6.695c0 .312.074.572.221.78.156.2.377.299.663.299.147 0 .269-.013.364-.039.104-.035.19-.07.26-.104a2.36 2.36 0 0 1 .208-.104.516.516 0 0 1 .234-.052.42.42 0 0 1 .286.091.878.878 0 0 1 .234.26l1.222 1.911c-.52.39-1.105.685-1.755.884a7.12 7.12 0 0 1-2.015.286zM12.23 18V4.519h2.392c.2 0 .364.017.494.052a.778.778 0 0 1 .338.169c.095.07.165.165.208.286.052.121.095.269.13.442l.221 1.261c.494-.763 1.049-1.365 1.664-1.807a3.38 3.38 0 0 1 2.015-.663c.616 0 1.11.147 1.482.442l-.52 2.964c-.035.182-.104.312-.208.39a.74.74 0 0 1-.416.104 3.09 3.09 0 0 1-.52-.052c-.2-.043-.45-.065-.754-.065-1.057 0-1.89.563-2.496 1.69V18h-4.03zM29.236 4.311c1.023 0 1.955.16 2.795.481.841.32 1.56.78 2.158 1.378a6.077 6.077 0 0 1 1.404 2.184c.338.85.507 1.807.507 2.873 0 1.075-.169 2.045-.507 2.912a6.207 6.207 0 0 1-1.404 2.197 6.214 6.214 0 0 1-2.158 1.391c-.84.32-1.772.481-2.795.481-1.03 0-1.971-.16-2.82-.481a6.491 6.491 0 0 1-2.185-1.391 6.359 6.359 0 0 1-1.417-2.197c-.329-.867-.494-1.837-.494-2.912 0-1.066.165-2.024.494-2.873a6.223 6.223 0 0 1 1.417-2.184 6.33 6.33 0 0 1 2.184-1.378c.85-.32 1.79-.481 2.821-.481zm0 10.907c.928 0 1.608-.325 2.041-.975.442-.659.663-1.655.663-2.99 0-1.335-.22-2.327-.663-2.977-.433-.65-1.113-.975-2.04-.975-.954 0-1.652.325-2.094.975-.442.65-.663 1.642-.663 2.977s.221 2.331.663 2.99c.442.65 1.14.975 2.093.975zm19.06-7.501a2.226 2.226 0 0 1-.35.351c-.113.087-.274.13-.482.13-.199 0-.38-.048-.546-.143-.156-.095-.333-.2-.533-.312a3.764 3.764 0 0 0-.702-.325c-.268-.095-.602-.143-1-.143-.495 0-.924.091-1.288.273-.355.182-.65.442-.884.78-.234.338-.407.754-.52 1.248a7.333 7.333 0 0 0-.169 1.651c0 1.291.247 2.284.741 2.977.503.693 1.192 1.04 2.067 1.04.468 0 .837-.056 1.105-.169.278-.121.512-.251.702-.39l.52-.403c.165-.121.369-.182.611-.182.321 0 .564.117.728.351l1.17 1.443a6.533 6.533 0 0 1-1.313 1.17 6.893 6.893 0 0 1-1.417.702 7.109 7.109 0 0 1-1.443.338c-.485.07-.957.104-1.417.104a6.128 6.128 0 0 1-2.366-.468 5.91 5.91 0 0 1-1.976-1.352c-.563-.598-1.014-1.33-1.352-2.197-.329-.867-.494-1.855-.494-2.964 0-.97.143-1.876.43-2.717a6.237 6.237 0 0 1 1.286-2.197 6.022 6.022 0 0 1 2.106-1.469c.841-.355 1.812-.533 2.912-.533 1.058 0 1.985.169 2.782.507A6.674 6.674 0 0 1 49.362 6.3l-1.066 1.417zm12.905 0a2.234 2.234 0 0 1-.351.351c-.113.087-.273.13-.481.13-.2 0-.381-.048-.546-.143-.156-.095-.334-.2-.533-.312-.2-.121-.433-.23-.702-.325-.269-.095-.602-.143-1.001-.143-.494 0-.923.091-1.287.273-.355.182-.65.442-.884.78-.234.338-.407.754-.52 1.248a7.327 7.327 0 0 0-.169 1.651c0 1.291.247 2.284.741 2.977.503.693 1.192 1.04 2.067 1.04.468 0 .836-.056 1.105-.169a3.75 3.75 0 0 0 .702-.39l.52-.403c.165-.121.368-.182.611-.182.32 0 .563.117.728.351l1.17 1.443a6.536 6.536 0 0 1-1.313 1.17c-.46.295-.932.529-1.417.702a7.112 7.112 0 0 1-1.443.338c-.485.07-.958.104-1.417.104a6.128 6.128 0 0 1-2.366-.468 5.909 5.909 0 0 1-1.976-1.352c-.563-.598-1.014-1.33-1.352-2.197-.33-.867-.494-1.855-.494-2.964 0-.97.143-1.876.429-2.717a6.234 6.234 0 0 1 1.287-2.197 6.022 6.022 0 0 1 2.106-1.469c.84-.355 1.811-.533 2.912-.533 1.057 0 1.985.169 2.782.507A6.676 6.676 0 0 1 62.267 6.3l-1.066 1.417zm9.187-3.406c1.022 0 1.954.16 2.794.481.841.32 1.56.78 2.159 1.378a6.077 6.077 0 0 1 1.404 2.184c.337.85.506 1.807.506 2.873 0 1.075-.169 2.045-.507 2.912a6.207 6.207 0 0 1-1.403 2.197 6.214 6.214 0 0 1-2.158 1.391c-.841.32-1.773.481-2.796.481-1.03 0-1.971-.16-2.82-.481a6.491 6.491 0 0 1-2.184-1.391 6.359 6.359 0 0 1-1.417-2.197c-.33-.867-.495-1.837-.495-2.912 0-1.066.165-2.024.495-2.873a6.223 6.223 0 0 1 1.416-2.184 6.33 6.33 0 0 1 2.184-1.378c.85-.32 1.79-.481 2.822-.481zm0 10.907c.927 0 1.607-.325 2.04-.975.443-.659.663-1.655.663-2.99 0-1.335-.22-2.327-.662-2.977-.434-.65-1.114-.975-2.041-.975-.954 0-1.651.325-2.094.975-.441.65-.662 1.642-.662 2.977s.22 2.331.662 2.99c.443.65 1.14.975 2.094.975z" fill="#121111"/></svg>