<svg width="266" height="25" fill="none" xmlns="http://www.w3.org/2000/svg"><path d="M.92 24V7.408h3.072c.31 0 .565.07.768.208a1.1 1.1 0 0 1 .448.624l.272.896c.277-.288.565-.55.864-.784a5.16 5.16 0 0 1 .96-.624c.352-.181.725-.32 1.12-.416.405-.107.848-.16 1.328-.16 1.003 0 1.83.261 2.48.784.661.512 1.163 1.2 1.504 2.064a4.99 4.99 0 0 1 1.008-1.312 5.678 5.678 0 0 1 1.296-.88c.47-.224.96-.39 1.472-.496a7.746 7.746 0 0 1 1.552-.16c.95 0 1.792.144 2.528.432a4.63 4.63 0 0 1 1.84 1.232c.501.533.88 1.195 1.136 1.984.256.779.384 1.664.384 2.656V24h-4.96V13.456c0-1.717-.736-2.576-2.208-2.576-.672 0-1.232.224-1.68.672-.437.437-.656 1.072-.656 1.904V24h-4.96V13.456c0-.95-.187-1.616-.56-2-.373-.384-.923-.576-1.648-.576a2.82 2.82 0 0 0-1.28.304A4.69 4.69 0 0 0 5.88 12v12H.92zm39.338 0c-.469 0-.826-.064-1.072-.192-.234-.128-.431-.395-.592-.8l-.352-.912c-.415.352-.816.661-1.2.928a7.916 7.916 0 0 1-1.2.688 5.695 5.695 0 0 1-1.311.4 7.52 7.52 0 0 1-1.536.144 6.945 6.945 0 0 1-2.064-.288 4.481 4.481 0 0 1-1.585-.88 3.892 3.892 0 0 1-.991-1.424c-.235-.576-.352-1.237-.352-1.984 0-.587.149-1.19.448-1.808.298-.619.816-1.179 1.552-1.68.735-.512 1.727-.939 2.975-1.28 1.248-.341 2.822-.533 4.72-.576v-.704c0-.97-.202-1.67-.608-2.096-.394-.437-.96-.656-1.696-.656-.586 0-1.066.064-1.44.192a6.82 6.82 0 0 0-1.008.432c-.288.16-.57.304-.847.432-.278.128-.608.192-.992.192-.342 0-.635-.08-.88-.24a1.955 1.955 0 0 1-.56-.624l-.897-1.552a9.993 9.993 0 0 1 3.33-1.968c1.226-.437 2.538-.656 3.936-.656 1.002 0 1.904.165 2.704.496.81.32 1.493.773 2.047 1.36a5.804 5.804 0 0 1 1.297 2.064c.298.8.448 1.675.448 2.624V24h-2.273zm-5.696-3.024c.64 0 1.2-.112 1.68-.336.48-.224.966-.587 1.457-1.088v-2.304c-.992.043-1.808.128-2.448.256-.64.128-1.147.288-1.52.48-.374.192-.635.41-.785.656a1.598 1.598 0 0 0-.207.8c0 .565.154.965.464 1.2.309.224.762.336 1.36.336zM46.373 24V.048h4.96v8.816a7.93 7.93 0 0 1 1.937-1.232c.703-.32 1.54-.48 2.512-.48.906 0 1.706.16 2.4.48.704.31 1.296.747 1.776 1.312.48.555.842 1.221 1.087 2 .246.768.369 1.605.369 2.512V24h-4.96V13.456c0-.81-.187-1.44-.56-1.888-.374-.459-.923-.688-1.648-.688a3.45 3.45 0 0 0-1.536.352c-.48.235-.94.55-1.377.944V24h-4.96zm18.883 0V7.408h3.072c.31 0 .565.07.768.208a1.1 1.1 0 0 1 .448.624l.288.96c.32-.299.65-.576.992-.832.341-.256.704-.47 1.088-.64.395-.181.816-.32 1.264-.416.459-.107.955-.16 1.488-.16.907 0 1.707.16 2.4.48.704.31 1.296.747 1.776 1.312.48.555.843 1.221 1.088 2 .245.768.368 1.605.368 2.512V24h-4.96V13.456c0-.81-.187-1.44-.56-1.888-.373-.459-.923-.688-1.648-.688a3.45 3.45 0 0 0-1.536.352c-.48.235-.939.55-1.376.944V24h-4.96zm30.339 0c-.47 0-.827-.064-1.072-.192-.235-.128-.433-.395-.593-.8l-.352-.912c-.415.352-.816.661-1.2.928a7.916 7.916 0 0 1-1.2.688 5.695 5.695 0 0 1-1.312.4 7.52 7.52 0 0 1-1.535.144 6.945 6.945 0 0 1-2.064-.288 4.481 4.481 0 0 1-1.585-.88 3.892 3.892 0 0 1-.992-1.424c-.234-.576-.351-1.237-.351-1.984 0-.587.149-1.19.448-1.808.298-.619.816-1.179 1.552-1.68.736-.512 1.728-.939 2.976-1.28 1.248-.341 2.82-.533 4.72-.576v-.704c0-.97-.203-1.67-.609-2.096-.394-.437-.96-.656-1.695-.656-.587 0-1.067.064-1.44.192a6.82 6.82 0 0 0-1.009.432c-.288.16-.57.304-.848.432-.277.128-.608.192-.992.192-.34 0-.634-.08-.88-.24a1.955 1.955 0 0 1-.56-.624l-.895-1.552a9.993 9.993 0 0 1 3.328-1.968c1.226-.437 2.538-.656 3.936-.656 1.002 0 1.903.165 2.703.496.811.32 1.494.773 2.049 1.36a5.804 5.804 0 0 1 1.296 2.064c.298.8.447 1.675.447 2.624V24h-2.271zm-5.697-3.024c.64 0 1.2-.112 1.68-.336.48-.224.966-.587 1.457-1.088v-2.304c-.993.043-1.809.128-2.449.256-.64.128-1.146.288-1.52.48-.373.192-.634.41-.784.656a1.598 1.598 0 0 0-.208.8c0 .565.155.965.465 1.2.309.224.762.336 1.36.336zM108.215 24V7.408h3.072c.309 0 .565.07.768.208a1.1 1.1 0 0 1 .448.624l.272.896c.277-.288.565-.55.864-.784a5.16 5.16 0 0 1 .96-.624c.352-.181.725-.32 1.12-.416.405-.107.848-.16 1.328-.16 1.003 0 1.829.261 2.48.784.661.512 1.163 1.2 1.504 2.064.277-.512.613-.95 1.008-1.312a5.665 5.665 0 0 1 1.296-.88 6.43 6.43 0 0 1 1.472-.496 7.748 7.748 0 0 1 1.552-.16c.949 0 1.792.144 2.528.432a4.632 4.632 0 0 1 1.84 1.232c.501.533.88 1.195 1.136 1.984.256.779.384 1.664.384 2.656V24h-4.96V13.456c0-1.717-.736-2.576-2.208-2.576-.672 0-1.232.224-1.68.672-.437.437-.656 1.072-.656 1.904V24h-4.96V13.456c0-.95-.187-1.616-.56-2-.373-.384-.923-.576-1.648-.576a2.82 2.82 0 0 0-1.28.304 4.683 4.683 0 0 0-1.12.816v12h-4.96zm39.339 0c-.47 0-.827-.064-1.072-.192-.235-.128-.432-.395-.592-.8l-.352-.912c-.416.352-.816.661-1.2.928a7.916 7.916 0 0 1-1.2.688 5.71 5.71 0 0 1-1.312.4 7.525 7.525 0 0 1-1.536.144 6.938 6.938 0 0 1-2.064-.288 4.476 4.476 0 0 1-1.584-.88 3.88 3.88 0 0 1-.992-1.424c-.235-.576-.352-1.237-.352-1.984 0-.587.149-1.19.448-1.808.298-.619.816-1.179 1.552-1.68.736-.512 1.728-.939 2.976-1.28 1.248-.341 2.821-.533 4.72-.576v-.704c0-.97-.203-1.67-.608-2.096-.395-.437-.96-.656-1.696-.656-.587 0-1.067.064-1.44.192-.374.128-.71.272-1.008.432-.288.16-.571.304-.848.432-.278.128-.608.192-.992.192-.342 0-.635-.08-.88-.24a1.943 1.943 0 0 1-.56-.624l-.896-1.552a9.986 9.986 0 0 1 3.328-1.968c1.226-.437 2.538-.656 3.936-.656 1.002 0 1.904.165 2.704.496.81.32 1.493.773 2.048 1.36a5.812 5.812 0 0 1 1.296 2.064c.298.8.448 1.675.448 2.624V24h-2.272zm-5.696-3.024c.64 0 1.2-.112 1.68-.336.48-.224.965-.587 1.456-1.088v-2.304c-.992.043-1.808.128-2.448.256-.64.128-1.147.288-1.52.48-.374.192-.635.41-.784.656a1.595 1.595 0 0 0-.208.8c0 .565.154.965.464 1.2.309.224.762.336 1.36.336zM153.667 24V.048h4.96v8.816a7.948 7.948 0 0 1 1.936-1.232c.704-.32 1.542-.48 2.512-.48.907 0 1.707.16 2.4.48.704.31 1.296.747 1.776 1.312.48.555.843 1.221 1.088 2 .246.768.368 1.605.368 2.512V24h-4.96V13.456c0-.81-.186-1.44-.56-1.888-.373-.459-.922-.688-1.648-.688a3.45 3.45 0 0 0-1.536.352c-.48.235-.938.55-1.376.944V24h-4.96zm18.883 0V7.408h3.072c.309 0 .565.07.768.208a1.1 1.1 0 0 1 .448.624l.288.96c.32-.299.651-.576.992-.832.341-.256.704-.47 1.088-.64.395-.181.816-.32 1.264-.416.459-.107.955-.16 1.488-.16.907 0 1.707.16 2.4.48.704.31 1.296.747 1.776 1.312.48.555.843 1.221 1.088 2 .245.768.368 1.605.368 2.512V24h-4.96V13.456c0-.81-.187-1.44-.56-1.888-.373-.459-.923-.688-1.648-.688a3.45 3.45 0 0 0-1.536.352c-.48.235-.939.55-1.376.944V24h-4.96zm30.338 0c-.469 0-.826-.064-1.072-.192-.234-.128-.432-.395-.592-.8l-.352-.912c-.416.352-.816.661-1.2.928a7.916 7.916 0 0 1-1.2.688 5.68 5.68 0 0 1-1.312.4c-.458.096-.97.144-1.536.144a6.948 6.948 0 0 1-2.064-.288 4.493 4.493 0 0 1-1.584-.88 3.904 3.904 0 0 1-.992-1.424c-.234-.576-.352-1.237-.352-1.984 0-.587.15-1.19.448-1.808.299-.619.816-1.179 1.552-1.68.736-.512 1.728-.939 2.976-1.28 1.248-.341 2.822-.533 4.72-.576v-.704c0-.97-.202-1.67-.608-2.096-.394-.437-.96-.656-1.696-.656-.586 0-1.066.064-1.44.192a6.847 6.847 0 0 0-1.008.432c-.288.16-.57.304-.848.432-.277.128-.608.192-.992.192-.341 0-.634-.08-.88-.24a1.967 1.967 0 0 1-.56-.624l-.896-1.552a9.995 9.995 0 0 1 3.328-1.968c1.227-.437 2.539-.656 3.936-.656 1.003 0 1.904.165 2.704.496.811.32 1.494.773 2.048 1.36a5.785 5.785 0 0 1 1.296 2.064c.299.8.448 1.675.448 2.624V24h-2.272zm-5.696-3.024c.64 0 1.2-.112 1.68-.336.48-.224.966-.587 1.456-1.088v-2.304c-.992.043-1.808.128-2.448.256-.64.128-1.146.288-1.52.48-.373.192-.634.41-.784.656a1.605 1.605 0 0 0-.208.8c0 .565.155.965.464 1.2.31.224.763.336 1.36.336zM221.43 24h-5.44V.688h5.44V24zm4.65 0V7.408h3.072c.309 0 .565.07.768.208a1.1 1.1 0 0 1 .448.624l.288.96c.32-.299.651-.576.992-.832.341-.256.704-.47 1.088-.64.395-.181.816-.32 1.264-.416.459-.107.955-.16 1.488-.16.907 0 1.707.16 2.4.48.704.31 1.296.747 1.776 1.312.48.555.843 1.221 1.088 2 .245.768.368 1.605.368 2.512V24h-4.96V13.456c0-.81-.187-1.44-.56-1.888-.373-.459-.923-.688-1.648-.688a3.45 3.45 0 0 0-1.536.352c-.48.235-.939.55-1.376.944V24h-4.96zm30.85-12.656a2.718 2.718 0 0 1-.432.432c-.138.107-.336.16-.592.16a1.32 1.32 0 0 1-.672-.176 21.79 21.79 0 0 0-.656-.384 4.637 4.637 0 0 0-.864-.4c-.33-.117-.741-.176-1.232-.176-.608 0-1.136.112-1.584.336-.437.224-.8.544-1.088.96-.288.416-.501.928-.64 1.536a9.06 9.06 0 0 0-.208 2.032c0 1.59.304 2.81.912 3.664.619.853 1.467 1.28 2.544 1.28.576 0 1.03-.07 1.36-.208.342-.15.63-.31.864-.48l.64-.496c.203-.15.454-.224.752-.224.395 0 .694.144.896.432l1.44 1.776a8.025 8.025 0 0 1-1.616 1.44 8.528 8.528 0 0 1-1.744.864 8.731 8.731 0 0 1-1.776.416c-.597.085-1.178.128-1.744.128a7.544 7.544 0 0 1-2.912-.576 7.276 7.276 0 0 1-2.432-1.664c-.693-.736-1.248-1.637-1.664-2.704-.405-1.067-.608-2.283-.608-3.648 0-1.195.176-2.31.528-3.344.363-1.045.891-1.947 1.584-2.704.704-.768 1.568-1.37 2.592-1.808 1.035-.437 2.23-.656 3.584-.656 1.302 0 2.443.208 3.424.624a8.205 8.205 0 0 1 2.656 1.824l-1.312 1.744zm2.955 10.144c0-.384.069-.741.208-1.072.149-.33.347-.619.592-.864.256-.245.555-.437.896-.576.341-.15.715-.224 1.12-.224.395 0 .763.075 1.104.224.341.139.64.33.896.576.256.245.453.533.592.864.149.33.224.688.224 1.072 0 .384-.075.747-.224 1.088-.139.33-.336.619-.592.864a2.814 2.814 0 0 1-.896.576 2.902 2.902 0 0 1-1.104.208c-.405 0-.779-.07-1.12-.208a2.814 2.814 0 0 1-.896-.576 2.892 2.892 0 0 1-.592-.864 2.856 2.856 0 0 1-.208-1.088z" fill="#121111"/></svg>