<svg width="140" height="21" fill="none" xmlns="http://www.w3.org/2000/svg"><path d="M4.72 6.519V20H.69V6.519h4.03zm.468-3.692c0 .32-.065.624-.195.91-.13.277-.308.524-.533.741a2.76 2.76 0 0 1-.793.507 2.468 2.468 0 0 1-.949.182c-.33 0-.637-.06-.923-.182a2.878 2.878 0 0 1-.767-.507 2.602 2.602 0 0 1-.52-.741 2.306 2.306 0 0 1-.182-.91c0-.33.06-.637.182-.923.13-.286.303-.537.52-.754a2.5 2.5 0 0 1 .767-.507c.286-.121.594-.182.923-.182.338 0 .654.06.949.182a2.436 2.436 0 0 1 1.326 1.261c.13.286.195.594.195.923zm8.818 3.484c.893 0 1.707.139 2.444.416a5.25 5.25 0 0 1 1.911 1.209 5.405 5.405 0 0 1 1.248 1.95c.303.763.455 1.63.455 2.6 0 .303-.013.55-.039.741-.026.19-.074.342-.143.455a.542.542 0 0 1-.286.234c-.113.043-.26.065-.442.065H11.38c.13 1.127.472 1.946 1.027 2.457.555.503 1.27.754 2.145.754.468 0 .871-.056 1.21-.169a5.82 5.82 0 0 0 .896-.377l.728-.377a1.55 1.55 0 0 1 .702-.169c.32 0 .563.117.728.351l1.17 1.443a6.068 6.068 0 0 1-1.352 1.17 7.18 7.18 0 0 1-1.482.702 7.846 7.846 0 0 1-1.52.338c-.504.07-.985.104-1.444.104a7.72 7.72 0 0 1-2.665-.455 6.264 6.264 0 0 1-2.17-1.378c-.616-.607-1.106-1.36-1.47-2.262-.355-.901-.533-1.95-.533-3.146 0-.901.152-1.755.455-2.561a6.447 6.447 0 0 1 1.326-2.119 6.403 6.403 0 0 1 2.093-1.443c.823-.355 1.75-.533 2.782-.533zm.078 2.782c-.771 0-1.374.221-1.807.663-.433.433-.72 1.062-.858 1.885h5.031c0-.32-.043-.633-.13-.936a2.08 2.08 0 0 0-.403-.806 1.961 1.961 0 0 0-.728-.585c-.303-.147-.672-.221-1.105-.221zm8.293 1.378h7.02v3.25h-7.02v-3.25zm15.915-4.16c.892 0 1.707.139 2.444.416.745.277 1.382.68 1.91 1.209.538.529.954 1.179 1.249 1.95.303.763.455 1.63.455 2.6a5.5 5.5 0 0 1-.04.741c-.025.19-.073.342-.142.455a.542.542 0 0 1-.286.234c-.113.043-.26.065-.442.065h-7.774c.13 1.127.472 1.946 1.027 2.457.554.503 1.27.754 2.145.754.468 0 .87-.056 1.209-.169a5.82 5.82 0 0 0 .897-.377l.728-.377a1.55 1.55 0 0 1 .702-.169c.32 0 .563.117.728.351l1.17 1.443a6.068 6.068 0 0 1-1.352 1.17 7.205 7.205 0 0 1-1.482.702 7.846 7.846 0 0 1-1.521.338c-.503.07-.984.104-1.443.104a7.72 7.72 0 0 1-2.665-.455 6.264 6.264 0 0 1-2.171-1.378c-.616-.607-1.105-1.36-1.47-2.262-.355-.901-.532-1.95-.532-3.146 0-.901.151-1.755.455-2.561a6.447 6.447 0 0 1 1.326-2.119 6.403 6.403 0 0 1 2.093-1.443c.823-.355 1.75-.533 2.782-.533zm.078 2.782c-.772 0-1.374.221-1.807.663-.434.433-.72 1.062-.858 1.885h5.03c0-.32-.043-.633-.13-.936a2.078 2.078 0 0 0-.402-.806 1.961 1.961 0 0 0-.728-.585c-.304-.147-.672-.221-1.105-.221zM46.922 20V6.519h2.392c.2 0 .364.017.494.052a.778.778 0 0 1 .338.169c.096.07.165.165.208.286.052.121.096.269.13.442l.221 1.261c.494-.763 1.049-1.365 1.664-1.807a3.38 3.38 0 0 1 2.015-.663c.616 0 1.11.147 1.482.442l-.52 2.964c-.034.182-.104.312-.208.39a.74.74 0 0 1-.416.104c-.147 0-.32-.017-.52-.052-.2-.043-.45-.065-.754-.065-1.057 0-1.89.563-2.496 1.69V20h-4.03zm20.055 0c-.382 0-.672-.052-.871-.156-.191-.104-.351-.32-.481-.65l-.286-.741a13 13 0 0 1-.975.754 6.431 6.431 0 0 1-.975.559c-.33.147-.685.256-1.066.325a6.11 6.11 0 0 1-1.248.117 5.643 5.643 0 0 1-1.677-.234 3.641 3.641 0 0 1-1.287-.715 3.162 3.162 0 0 1-.806-1.157c-.191-.468-.286-1.005-.286-1.612 0-.477.12-.966.364-1.469.242-.503.663-.958 1.26-1.365.599-.416 1.405-.763 2.419-1.04s2.292-.433 3.835-.468v-.572c0-.789-.165-1.356-.494-1.703-.321-.355-.78-.533-1.378-.533-.477 0-.867.052-1.17.156a5.541 5.541 0 0 0-.82.351c-.233.13-.463.247-.688.351a1.91 1.91 0 0 1-.806.156 1.28 1.28 0 0 1-.715-.195 1.588 1.588 0 0 1-.455-.507l-.728-1.261a8.119 8.119 0 0 1 2.704-1.599 9.453 9.453 0 0 1 3.198-.533c.814 0 1.547.134 2.197.403.658.26 1.213.628 1.664 1.105.459.468.81 1.027 1.053 1.677.242.65.364 1.36.364 2.132V20h-1.846zm-4.628-2.457c.52 0 .975-.091 1.365-.273.39-.182.784-.477 1.183-.884v-1.872c-.806.035-1.47.104-1.99.208s-.931.234-1.234.39c-.304.156-.516.334-.637.533-.113.2-.17.416-.17.65 0 .46.126.784.378.975.25.182.62.273 1.105.273zM71.944 20V.539h4.03v7.41a6.071 6.071 0 0 1 1.703-1.183c.642-.303 1.391-.455 2.25-.455.701 0 1.351.152 1.95.455.597.303 1.113.75 1.546 1.339.434.58.772 1.296 1.014 2.145.252.85.377 1.816.377 2.899 0 1.014-.143 1.95-.429 2.808-.277.858-.671 1.603-1.183 2.236a5.364 5.364 0 0 1-1.82 1.482c-.702.355-1.482.533-2.34.533a4.58 4.58 0 0 1-1.079-.117 4.013 4.013 0 0 1-.87-.325 4.282 4.282 0 0 1-.729-.52 9.055 9.055 0 0 1-.637-.65l-.143.676c-.06.277-.173.468-.338.572-.156.104-.364.156-.624.156h-2.678zm6.578-10.66c-.294 0-.563.03-.806.091-.234.052-.455.13-.663.234-.2.104-.385.238-.559.403a5.284 5.284 0 0 0-.52.546v5.72c.303.338.633.576.988.715.356.13.728.195 1.118.195.373 0 .715-.074 1.027-.221.312-.147.58-.381.806-.702.234-.33.416-.754.546-1.274.13-.52.195-1.153.195-1.898 0-.71-.052-1.309-.156-1.794-.104-.485-.251-.875-.442-1.17-.182-.303-.403-.52-.663-.65a1.92 1.92 0 0 0-.87-.195zm12.924-2.821V20h-4.03V6.519h4.03zm.468-3.692c0 .32-.065.624-.195.91a2.48 2.48 0 0 1-.533.741 2.76 2.76 0 0 1-.793.507 2.468 2.468 0 0 1-.949.182c-.33 0-.637-.06-.923-.182a2.88 2.88 0 0 1-.767-.507 2.603 2.603 0 0 1-.52-.741 2.306 2.306 0 0 1-.182-.91c0-.33.06-.637.182-.923.13-.286.304-.537.52-.754.226-.217.481-.386.767-.507.286-.121.594-.182.923-.182.338 0 .655.06.95.182a2.436 2.436 0 0 1 1.325 1.261c.13.286.195.594.195.923zm2.266 15.132c0-.312.057-.602.17-.871a2.35 2.35 0 0 1 .48-.702c.208-.2.451-.355.728-.468.278-.121.581-.182.91-.182.321 0 .62.06.897.182.278.113.52.269.728.468.208.2.369.433.481.702.122.269.182.559.182.871 0 .312-.06.607-.182.884a2.07 2.07 0 0 1-.48.702c-.209.2-.451.355-.729.468a2.36 2.36 0 0 1-.897.169c-.329 0-.632-.056-.91-.169a2.284 2.284 0 0 1-.728-.468c-.199-.2-.36-.433-.48-.702a2.325 2.325 0 0 1-.17-.884zM101.365 20V6.519h2.496c.251 0 .459.056.624.169a.892.892 0 0 1 .364.507l.234.78a9.78 9.78 0 0 1 .806-.676 4.928 4.928 0 0 1 1.911-.858c.373-.087.776-.13 1.209-.13.737 0 1.387.13 1.95.39a3.946 3.946 0 0 1 1.443 1.066c.39.45.685.992.884 1.625.199.624.299 1.304.299 2.041V20h-4.03v-8.567c0-.659-.152-1.17-.455-1.534-.303-.373-.75-.559-1.339-.559a2.8 2.8 0 0 0-1.248.286c-.39.19-.763.446-1.118.767V20h-4.03zm21.114-13.689c.893 0 1.707.139 2.444.416a5.25 5.25 0 0 1 1.911 1.209 5.405 5.405 0 0 1 1.248 1.95c.303.763.455 1.63.455 2.6 0 .303-.013.55-.039.741-.026.19-.074.342-.143.455a.542.542 0 0 1-.286.234c-.113.043-.26.065-.442.065h-7.774c.13 1.127.472 1.946 1.027 2.457.555.503 1.27.754 2.145.754.468 0 .871-.056 1.209-.169a5.82 5.82 0 0 0 .897-.377l.728-.377c.225-.113.459-.169.702-.169.321 0 .563.117.728.351l1.17 1.443a6.074 6.074 0 0 1-1.352 1.17 7.236 7.236 0 0 1-1.482.702 7.856 7.856 0 0 1-1.521.338c-.503.07-.984.104-1.443.104a7.72 7.72 0 0 1-2.665-.455 6.267 6.267 0 0 1-2.171-1.378c-.615-.607-1.105-1.36-1.469-2.262-.355-.901-.533-1.95-.533-3.146 0-.901.152-1.755.455-2.561a6.447 6.447 0 0 1 1.326-2.119 6.403 6.403 0 0 1 2.093-1.443c.823-.355 1.751-.533 2.782-.533zm.078 2.782c-.771 0-1.374.221-1.807.663-.433.433-.719 1.062-.858 1.885h5.031c0-.32-.043-.633-.13-.936a2.074 2.074 0 0 0-.403-.806 1.963 1.963 0 0 0-.728-.585c-.303-.147-.672-.221-1.105-.221zm13.284 11.115c-.641 0-1.209-.091-1.703-.273a3.567 3.567 0 0 1-1.235-.793 3.505 3.505 0 0 1-.754-1.248 4.814 4.814 0 0 1-.26-1.625V9.301h-1.144a.779.779 0 0 1-.533-.195c-.147-.139-.221-.338-.221-.598V6.935l2.145-.416.793-3.289c.104-.416.399-.624.884-.624h2.106v3.939h3.276v2.756h-3.276v6.695c0 .312.074.572.221.78.156.2.377.299.663.299.148 0 .269-.013.364-.039.104-.035.191-.07.26-.104.078-.043.148-.078.208-.104a.52.52 0 0 1 .234-.052c.122 0 .217.03.286.091a.878.878 0 0 1 .234.26l1.222 1.911c-.52.39-1.105.685-1.755.884-.65.19-1.321.286-2.015.286z" fill="#121111"/></svg>