<svg width="216" height="21" fill="none" xmlns="http://www.w3.org/2000/svg"><path d="M.56 20V6.519h2.496c.251 0 .46.056.624.169a.892.892 0 0 1 .364.507l.221.728a6.93 6.93 0 0 1 .702-.637c.243-.2.503-.368.78-.507.286-.147.59-.26.91-.338.33-.087.689-.13 1.079-.13.815 0 1.486.212 2.015.637.537.416.945.975 1.222 1.677.225-.416.498-.771.819-1.066.33-.295.68-.533 1.053-.715.381-.182.78-.316 1.196-.403.425-.087.845-.13 1.261-.13.771 0 1.456.117 2.054.351a3.762 3.762 0 0 1 1.495 1.001c.407.433.715.97.923 1.612.208.633.312 1.352.312 2.158V20h-4.03v-8.567c0-1.395-.598-2.093-1.794-2.093-.546 0-1.001.182-1.365.546-.355.355-.533.871-.533 1.547V20h-4.03v-8.567c0-.771-.152-1.313-.455-1.625-.303-.312-.75-.468-1.339-.468-.364 0-.71.082-1.04.247a3.81 3.81 0 0 0-.91.663V20H.56zm31.963 0c-.382 0-.672-.052-.872-.156-.19-.104-.35-.32-.48-.65l-.287-.741a13 13 0 0 1-.974.754 6.431 6.431 0 0 1-.976.559 4.612 4.612 0 0 1-1.066.325 6.11 6.11 0 0 1-1.247.117 5.643 5.643 0 0 1-1.677-.234 3.643 3.643 0 0 1-1.287-.715 3.163 3.163 0 0 1-.806-1.157c-.191-.468-.287-1.005-.287-1.612 0-.477.122-.966.364-1.469.243-.503.663-.958 1.261-1.365.599-.416 1.404-.763 2.419-1.04 1.014-.277 2.292-.433 3.834-.468v-.572c0-.789-.164-1.356-.494-1.703-.32-.355-.78-.533-1.378-.533-.476 0-.866.052-1.17.156a5.541 5.541 0 0 0-.819.351c-.233.13-.463.247-.689.351a1.91 1.91 0 0 1-.805.156 1.28 1.28 0 0 1-.715-.195 1.59 1.59 0 0 1-.456-.507l-.727-1.261a8.119 8.119 0 0 1 2.703-1.599 9.453 9.453 0 0 1 3.198-.533c.815 0 1.547.134 2.198.403.658.26 1.213.628 1.664 1.105.459.468.81 1.027 1.053 1.677.242.65.363 1.36.363 2.132V20h-1.846zm-4.629-2.457c.52 0 .976-.091 1.366-.273.39-.182.784-.477 1.182-.884v-1.872c-.805.035-1.468.104-1.989.208-.52.104-.931.234-1.235.39-.303.156-.515.334-.637.533a1.3 1.3 0 0 0-.168.65c0 .46.125.784.377.975.25.182.62.273 1.105.273zM37.49 20V.539h4.03v7.163a6.44 6.44 0 0 1 1.573-1.001c.572-.26 1.252-.39 2.041-.39.737 0 1.387.13 1.95.39a3.946 3.946 0 0 1 1.443 1.066c.39.45.685.992.884 1.625.2.624.3 1.304.3 2.041V20h-4.03v-8.567c0-.659-.152-1.17-.456-1.534-.303-.373-.75-.559-1.339-.559a2.8 2.8 0 0 0-1.248.286c-.39.19-.762.446-1.118.767V20h-4.03zm15.342 0V6.519h2.496c.252 0 .46.056.624.169a.892.892 0 0 1 .364.507l.234.78a9.78 9.78 0 0 1 .806-.676 4.928 4.928 0 0 1 1.911-.858 5.32 5.32 0 0 1 1.21-.13c.736 0 1.386.13 1.95.39a3.946 3.946 0 0 1 1.442 1.066c.39.45.685.992.884 1.625.2.624.3 1.304.3 2.041V20h-4.03v-8.567c0-.659-.153-1.17-.456-1.534-.303-.373-.75-.559-1.339-.559a2.8 2.8 0 0 0-1.248.286c-.39.19-.762.446-1.118.767V20h-4.03zm24.65 0c-.381 0-.671-.052-.87-.156-.191-.104-.352-.32-.482-.65l-.286-.741a13 13 0 0 1-.975.754 6.431 6.431 0 0 1-.975.559c-.33.147-.684.256-1.066.325a6.11 6.11 0 0 1-1.248.117 5.643 5.643 0 0 1-1.677-.234 3.643 3.643 0 0 1-1.287-.715 3.163 3.163 0 0 1-.806-1.157c-.19-.468-.286-1.005-.286-1.612 0-.477.122-.966.364-1.469.243-.503.663-.958 1.261-1.365.598-.416 1.404-.763 2.418-1.04 1.014-.277 2.293-.433 3.835-.468v-.572c0-.789-.164-1.356-.494-1.703-.32-.355-.78-.533-1.378-.533-.476 0-.866.052-1.17.156a5.541 5.541 0 0 0-.819.351c-.234.13-.463.247-.689.351a1.91 1.91 0 0 1-.806.156 1.28 1.28 0 0 1-.715-.195 1.59 1.59 0 0 1-.455-.507l-.728-1.261a8.119 8.119 0 0 1 2.704-1.599 9.453 9.453 0 0 1 3.198-.533c.815 0 1.547.134 2.197.403.659.26 1.214.628 1.664 1.105a4.71 4.71 0 0 1 1.053 1.677c.243.65.364 1.36.364 2.132V20h-1.846zm-4.628-2.457c.52 0 .975-.091 1.365-.273.39-.182.785-.477 1.183-.884v-1.872c-.806.035-1.469.104-1.989.208s-.931.234-1.235.39c-.303.156-.515.334-.637.533a1.3 1.3 0 0 0-.169.65c0 .46.126.784.377.975.252.182.62.273 1.105.273zM87.737 20V6.519h2.496c.251 0 .46.056.624.169a.892.892 0 0 1 .364.507l.221.728c.226-.234.46-.446.702-.637.243-.2.503-.368.78-.507.286-.147.59-.26.91-.338.33-.087.69-.13 1.08-.13.814 0 1.486.212 2.014.637.538.416.945.975 1.222 1.677.225-.416.498-.771.82-1.066.329-.295.68-.533 1.052-.715.382-.182.78-.316 1.196-.403.425-.087.845-.13 1.261-.13.772 0 1.456.117 2.054.351a3.757 3.757 0 0 1 1.495 1.001c.408.433.715.97.923 1.612.208.633.312 1.352.312 2.158V20h-4.03v-8.567c0-1.395-.598-2.093-1.794-2.093-.546 0-1.001.182-1.365.546-.355.355-.533.871-.533 1.547V20h-4.03v-8.567c0-.771-.151-1.313-.455-1.625-.303-.312-.75-.468-1.339-.468-.364 0-.71.082-1.04.247a3.84 3.84 0 0 0-.91.663V20h-4.03zm31.963 0c-.382 0-.672-.052-.871-.156-.191-.104-.351-.32-.481-.65l-.286-.741a13 13 0 0 1-.975.754 6.431 6.431 0 0 1-.975.559c-.33.147-.685.256-1.066.325a6.115 6.115 0 0 1-1.248.117 5.636 5.636 0 0 1-1.677-.234 3.636 3.636 0 0 1-1.287-.715 3.15 3.15 0 0 1-.806-1.157c-.191-.468-.286-1.005-.286-1.612 0-.477.121-.966.364-1.469.242-.503.663-.958 1.261-1.365.598-.416 1.404-.763 2.418-1.04 1.014-.277 2.292-.433 3.835-.468v-.572c0-.789-.165-1.356-.494-1.703-.321-.355-.78-.533-1.378-.533-.477 0-.867.052-1.17.156a5.478 5.478 0 0 0-.819.351c-.234.13-.464.247-.689.351a1.912 1.912 0 0 1-.806.156c-.278 0-.516-.065-.715-.195a1.576 1.576 0 0 1-.455-.507l-.728-1.261a8.112 8.112 0 0 1 2.704-1.599 9.448 9.448 0 0 1 3.198-.533c.814 0 1.547.134 2.197.403.658.26 1.213.628 1.664 1.105.459.468.81 1.027 1.053 1.677.242.65.364 1.36.364 2.132V20H119.7zm-4.628-2.457c.52 0 .975-.091 1.365-.273.39-.182.784-.477 1.183-.884v-1.872c-.806.035-1.469.104-1.989.208s-.932.234-1.235.39c-.304.156-.516.334-.637.533-.113.2-.169.416-.169.65 0 .46.125.784.377.975.251.182.619.273 1.105.273zM124.667 20V.539h4.03v7.163a6.461 6.461 0 0 1 1.573-1.001c.572-.26 1.253-.39 2.041-.39.737 0 1.387.13 1.95.39a3.946 3.946 0 0 1 1.443 1.066c.39.45.685.992.884 1.625.2.624.299 1.304.299 2.041V20h-4.03v-8.567c0-.659-.151-1.17-.455-1.534-.303-.373-.749-.559-1.339-.559a2.8 2.8 0 0 0-1.248.286c-.39.19-.762.446-1.118.767V20h-4.03zm15.342 0V6.519h2.496c.252 0 .46.056.624.169a.887.887 0 0 1 .364.507l.234.78a9.78 9.78 0 0 1 .806-.676 4.928 4.928 0 0 1 1.911-.858c.373-.087.776-.13 1.209-.13.737 0 1.387.13 1.95.39a3.946 3.946 0 0 1 1.443 1.066c.39.45.685.992.884 1.625.2.624.299 1.304.299 2.041V20h-4.03v-8.567c0-.659-.151-1.17-.455-1.534-.303-.373-.749-.559-1.339-.559a2.8 2.8 0 0 0-1.248.286c-.39.19-.762.446-1.118.767V20h-4.03zm24.65 0c-.381 0-.671-.052-.871-.156-.19-.104-.351-.32-.481-.65l-.286-.741a13 13 0 0 1-.975.754 6.431 6.431 0 0 1-.975.559 4.612 4.612 0 0 1-1.066.325 6.101 6.101 0 0 1-1.248.117 5.646 5.646 0 0 1-1.677-.234 3.653 3.653 0 0 1-1.287-.715 3.174 3.174 0 0 1-.806-1.157c-.19-.468-.286-1.005-.286-1.612 0-.477.122-.966.364-1.469.243-.503.663-.958 1.261-1.365.598-.416 1.404-.763 2.418-1.04 1.014-.277 2.293-.433 3.835-.468v-.572c0-.789-.164-1.356-.494-1.703-.32-.355-.78-.533-1.378-.533-.476 0-.866.052-1.17.156a5.569 5.569 0 0 0-.819.351c-.234.13-.463.247-.689.351a1.91 1.91 0 0 1-.806.156c-.277 0-.515-.065-.715-.195a1.6 1.6 0 0 1-.455-.507l-.728-1.261a8.122 8.122 0 0 1 2.704-1.599 9.456 9.456 0 0 1 3.198-.533c.815 0 1.547.134 2.197.403.659.26 1.214.628 1.664 1.105.46.468.811 1.027 1.053 1.677.243.65.364 1.36.364 2.132V20h-1.846zm-4.628-2.457c.52 0 .975-.091 1.365-.273.39-.182.785-.477 1.183-.884v-1.872c-.806.035-1.469.104-1.989.208s-.931.234-1.235.39c-.303.156-.515.334-.637.533-.112.2-.169.416-.169.65 0 .46.126.784.377.975.252.182.62.273 1.105.273zM179.724 20h-4.42V1.059h4.42V20zm3.779 0V6.519h2.496c.251 0 .459.056.624.169a.896.896 0 0 1 .364.507l.234.78a9.68 9.68 0 0 1 .806-.676 4.928 4.928 0 0 1 1.911-.858c.372-.087.775-.13 1.209-.13.736 0 1.386.13 1.95.39a3.946 3.946 0 0 1 1.443 1.066c.39.45.684.992.884 1.625.199.624.299 1.304.299 2.041V20h-4.03v-8.567c0-.659-.152-1.17-.455-1.534-.304-.373-.75-.559-1.339-.559a2.8 2.8 0 0 0-1.248.286c-.39.19-.763.446-1.118.767V20h-4.03zm25.066-10.283a2.287 2.287 0 0 1-.351.351c-.113.087-.273.13-.481.13-.2 0-.382-.048-.546-.143-.156-.095-.334-.2-.533-.312-.2-.121-.434-.23-.702-.325-.269-.095-.603-.143-1.001-.143-.494 0-.923.091-1.287.273a2.38 2.38 0 0 0-.884.78c-.234.338-.408.754-.52 1.248a7.31 7.31 0 0 0-.169 1.651c0 1.291.247 2.284.741 2.977.502.693 1.191 1.04 2.067 1.04.468 0 .836-.056 1.105-.169a3.77 3.77 0 0 0 .702-.39l.52-.403a1 1 0 0 1 .611-.182c.32 0 .563.117.728.351l1.17 1.443a6.544 6.544 0 0 1-1.313 1.17c-.46.295-.932.529-1.417.702a7.121 7.121 0 0 1-1.443.338 9.93 9.93 0 0 1-1.417.104 6.126 6.126 0 0 1-2.366-.468 5.903 5.903 0 0 1-1.976-1.352c-.564-.598-1.014-1.33-1.352-2.197-.33-.867-.494-1.855-.494-2.964 0-.97.143-1.876.429-2.717a6.216 6.216 0 0 1 1.287-2.197 6.022 6.022 0 0 1 2.106-1.469c.84-.355 1.811-.533 2.912-.533 1.057 0 1.984.169 2.782.507a6.686 6.686 0 0 1 2.158 1.482l-1.066 1.417zm2.4 8.242c0-.312.056-.602.169-.871a2.35 2.35 0 0 1 .481-.702c.208-.2.451-.355.728-.468.277-.121.581-.182.91-.182.321 0 .62.06.897.182.277.113.52.269.728.468.208.2.368.433.481.702.121.269.182.559.182.871 0 .312-.061.607-.182.884a2.075 2.075 0 0 1-.481.702 2.28 2.28 0 0 1-.728.468 2.357 2.357 0 0 1-.897.169 2.39 2.39 0 0 1-.91-.169 2.287 2.287 0 0 1-.728-.468 2.35 2.35 0 0 1-.481-.702 2.32 2.32 0 0 1-.169-.884z" fill="#121111"/></svg>