<svg fill="none" height="19" viewBox="0 0 78 19" width="78" xmlns="http://www.w3.org/2000/svg"><path d="m6.292 18.208c-.64133 0-1.209-.091-1.703-.273-.48533-.1907-.897-.455-1.235-.793-.32933-.3467-.58067-.7627-.754-1.248s-.26-1.027-.26-1.625v-6.968h-1.144c-.208 0-.385667-.065-.533-.195-.147333-.13867-.221-.338-.221-.598v-1.573l2.145-.416.793-3.289c.104-.416001.39867-.624001.884-.624001h2.106v3.939001h3.276v2.756h-3.276v6.695c0 .312.07367.572.221.78.156.1993.377.299.663.299.14733 0 .26867-.013.364-.039.104-.0347.19067-.0693.26-.104.078-.0433.14733-.078.208-.104.06933-.0347.14733-.052.234-.052.12133 0 .21667.0303.286.091.078.052.156.1387.234.26l1.222 1.911c-.52.39-1.105.6847-1.755.884-.65.1907-1.32167.286-2.015.286zm5.9382-.208v-13.481h2.392c.1993 0 .364.01733.494.052.1386.03467.2513.091.338.169.0953.06933.1646.16467.208.286.052.12133.0953.26867.13.442l.221 1.261c.494-.76267 1.0486-1.365 1.664-1.807.6153-.442 1.287-.663 2.015-.663.6153 0 1.1093.14733 1.482.442l-.52 2.964c-.0347.182-.104.312-.208.39-.104.06933-.2427.104-.416.104-.1474 0-.3207-.01733-.52-.052-.1994-.04333-.4507-.065-.754-.065-1.0574 0-1.8894.56333-2.496 1.69v8.268zm17.0062-13.689c1.0227 0 1.9543.16033 2.795.481s1.56.78 2.158 1.378c.6067.598 1.0747 1.326 1.404 2.184.338.84933.507 1.807.507 2.873 0 1.0747-.169 2.0453-.507 2.912-.3293.858-.7973 1.5903-1.404 2.197-.598.598-1.3173 1.0617-2.158 1.391-.8407.3207-1.7723.481-2.795.481-1.0313 0-1.9717-.1603-2.821-.481-.8407-.3293-1.5687-.793-2.184-1.391-.6067-.6067-1.079-1.339-1.417-2.197-.3293-.8667-.494-1.8373-.494-2.912 0-1.066.1647-2.02367.494-2.873.338-.858.8103-1.586 1.417-2.184.6153-.598 1.3433-1.05733 2.184-1.378.8493-.32067 1.7897-.481 2.821-.481zm0 10.907c.9273 0 1.6077-.325 2.041-.975.442-.6587.663-1.6553.663-2.99 0-1.33467-.221-2.327-.663-2.977-.4333-.65-1.1137-.975-2.041-.975-.9533 0-1.651.325-2.093.975s-.663 1.64233-.663 2.977c0 1.3347.221 2.3313.663 2.99.442.65 1.1397.975 2.093.975zm19.06-7.501c-.1213.14733-.2383.26433-.351.351-.1126.08667-.273.13-.481.13-.1993 0-.3813-.04767-.546-.143-.156-.09533-.3336-.19933-.533-.312-.1993-.12133-.4333-.22967-.702-.325-.2686-.09533-.6023-.143-1.001-.143-.494 0-.923.091-1.287.273-.3553.182-.65.442-.884.78s-.4073.754-.52 1.248c-.1126.4853-.169 1.0357-.169 1.651 0 1.2913.247 2.2837.741 2.977.5027.6933 1.1917 1.04 2.067 1.04.468 0 .8364-.0563 1.105-.169.2774-.1213.5114-.2513.702-.39.1907-.1473.364-.2817.52-.403.1647-.1213.3684-.182.611-.182.3207 0 .5634.117.728.351l1.17 1.443c-.416.4767-.8536.8667-1.313 1.17-.4593.2947-.9316.5287-1.417.702-.4766.1647-.9576.2773-1.443.338-.4853.0693-.9576.104-1.417.104-.8233 0-1.612-.156-2.366-.468-.7453-.312-1.404-.7627-1.976-1.352-.5633-.598-1.014-1.3303-1.352-2.197-.3293-.8667-.494-1.8547-.494-2.964 0-.9707.143-1.87633.429-2.717.2947-.84933.7237-1.58167 1.287-2.197.572-.624 1.274-1.11367 2.106-1.469.8407-.35533 1.8114-.533 2.912-.533 1.0574 0 1.9847.169 2.782.507.7974.338 1.5167.832 2.158 1.482zm12.9046 0c-.1214.14733-.2384.26433-.351.351-.1127.08667-.273.13-.481.13-.1994 0-.3814-.04767-.546-.143-.156-.09533-.3337-.19933-.533-.312-.1994-.12133-.4334-.22967-.702-.325-.2687-.09533-.6024-.143-1.001-.143-.494 0-.923.091-1.287.273-.3554.182-.65.442-.884.78s-.4074.754-.52 1.248c-.1127.4853-.169 1.0357-.169 1.651 0 1.2913.247 2.2837.741 2.977.5026.6933 1.1916 1.04 2.067 1.04.468 0 .8363-.0563 1.105-.169.2773-.1213.5113-.2513.702-.39.1906-.1473.364-.2817.52-.403.1646-.1213.3683-.182.611-.182.3206 0 .5633.117.728.351l1.17 1.443c-.416.4767-.8537.8667-1.313 1.17-.4594.2947-.9317.5287-1.417.702-.4767.1647-.9577.2773-1.443.338-.4854.0693-.9577.104-1.417.104-.8234 0-1.612-.156-2.366-.468-.7454-.312-1.404-.7627-1.976-1.352-.5634-.598-1.014-1.3303-1.352-2.197-.3294-.8667-.494-1.8547-.494-2.964 0-.9707.143-1.87633.429-2.717.2946-.84933.7236-1.58167 1.287-2.197.572-.624 1.274-1.11367 2.106-1.469.8406-.35533 1.8113-.533 2.912-.533 1.0573 0 1.9846.169 2.782.507.7973.338 1.5166.832 2.158 1.482zm9.1865-3.406c1.0227 0 1.9543.16033 2.795.481s1.56.78 2.158 1.378c.6067.598 1.0747 1.326 1.404 2.184.338.84933.507 1.807.507 2.873 0 1.0747-.169 2.0453-.507 2.912-.3293.858-.7973 1.5903-1.404 2.197-.598.598-1.3173 1.0617-2.158 1.391-.8407.3207-1.7723.481-2.795.481-1.0313 0-1.9717-.1603-2.821-.481-.8407-.3293-1.5687-.793-2.184-1.391-.6067-.6067-1.079-1.339-1.417-2.197-.3293-.8667-.494-1.8373-.494-2.912 0-1.066.1647-2.02367.494-2.873.338-.858.8103-1.586 1.417-2.184.6153-.598 1.3433-1.05733 2.184-1.378.8493-.32067 1.7897-.481 2.821-.481zm0 10.907c.9273 0 1.6077-.325 2.041-.975.442-.6587.663-1.6553.663-2.99 0-1.33467-.221-2.327-.663-2.977-.4333-.65-1.1137-.975-2.041-.975-.9533 0-1.651.325-2.093.975s-.663 1.64233-.663 2.977c0 1.3347.221 2.3313.663 2.99.442.65 1.1397.975 2.093.975z" fill="#121111"/></svg>