<svg width="196" height="25" fill="none" xmlns="http://www.w3.org/2000/svg"><path d="M14.536 15.136V24H9.128v-8.864L.68.688h4.768c.47 0 .843.112 1.12.336.277.213.501.49.672.832l3.296 6.784.736 1.504c.224.459.421.912.592 1.36.16-.459.352-.917.576-1.376.224-.459.464-.955.72-1.488l3.264-6.784c.064-.139.15-.277.256-.416.117-.139.245-.261.384-.368A1.75 1.75 0 0 1 17.56.8a1.7 1.7 0 0 1 .624-.112h4.8l-8.448 14.448zm15.19-7.984c1.258 0 2.405.197 3.44.592 1.034.395 1.92.96 2.656 1.696.746.736 1.322 1.632 1.728 2.688.416 1.045.624 2.224.624 3.536 0 1.323-.208 2.517-.624 3.584-.406 1.056-.982 1.957-1.728 2.704a7.65 7.65 0 0 1-2.656 1.712c-1.035.395-2.182.592-3.44.592-1.27 0-2.427-.197-3.472-.592a7.992 7.992 0 0 1-2.688-1.712c-.747-.747-1.328-1.648-1.744-2.704-.406-1.067-.608-2.261-.608-3.584 0-1.312.202-2.49.608-3.536.416-1.056.997-1.952 1.744-2.688a7.793 7.793 0 0 1 2.688-1.696c1.045-.395 2.202-.592 3.472-.592zm0 13.424c1.141 0 1.978-.4 2.512-1.2.544-.81.816-2.037.816-3.68 0-1.643-.272-2.864-.816-3.664-.534-.8-1.37-1.2-2.512-1.2-1.174 0-2.032.4-2.576 1.2-.544.8-.816 2.021-.816 3.664 0 1.643.272 2.87.816 3.68.544.8 1.402 1.2 2.576 1.2zM46.176.048v13.424h.736c.31 0 .544-.043.704-.128.17-.085.33-.24.48-.464l3.136-4.672a1.73 1.73 0 0 1 .64-.608c.256-.128.576-.192.96-.192h4.544l-4.288 5.904a4.45 4.45 0 0 1-.672.736 5.13 5.13 0 0 1-.768.576c.48.363.896.843 1.248 1.44L57.568 24h-4.48c-.373 0-.698-.059-.976-.176-.266-.128-.485-.347-.656-.656l-3.136-5.872c-.15-.267-.304-.437-.464-.512-.16-.085-.4-.128-.72-.128h-.96V24h-4.96V.048h4.96zm20.221 7.104c1.259 0 2.405.197 3.44.592 1.035.395 1.92.96 2.656 1.696.747.736 1.323 1.632 1.728 2.688.416 1.045.624 2.224.624 3.536 0 1.323-.208 2.517-.624 3.584-.405 1.056-.981 1.957-1.728 2.704a7.649 7.649 0 0 1-2.656 1.712c-1.035.395-2.181.592-3.44.592-1.27 0-2.427-.197-3.472-.592a7.99 7.99 0 0 1-2.688-1.712c-.747-.747-1.328-1.648-1.744-2.704-.405-1.067-.608-2.261-.608-3.584 0-1.312.203-2.49.608-3.536.416-1.056.997-1.952 1.744-2.688a7.791 7.791 0 0 1 2.688-1.696c1.045-.395 2.203-.592 3.472-.592zm0 13.424c1.141 0 1.979-.4 2.512-1.2.544-.81.816-2.037.816-3.68 0-1.643-.272-2.864-.816-3.664-.533-.8-1.37-1.2-2.512-1.2-1.173 0-2.032.4-2.576 1.2-.544.8-.816 2.021-.816 3.664 0 1.643.272 2.87.816 3.68.544.8 1.403 1.2 2.576 1.2zm21.634-9.536c-.128.203-.266.347-.416.432-.138.085-.32.128-.543.128-.235 0-.47-.048-.704-.144a30.486 30.486 0 0 0-.768-.336 6.942 6.942 0 0 0-.912-.32 3.914 3.914 0 0 0-1.169-.16c-.629 0-1.114.123-1.456.368-.33.235-.496.565-.496.992 0 .31.107.565.32.768.225.203.518.384.88.544.363.15.774.293 1.233.432.458.139.927.293 1.407.464.48.17.95.373 1.409.608.458.224.869.507 1.231.848a3.6 3.6 0 0 1 .865 1.216c.223.48.335 1.056.335 1.728 0 .821-.149 1.579-.448 2.272a4.79 4.79 0 0 1-1.344 1.792c-.586.501-1.317.89-2.192 1.168-.864.277-1.86.416-2.992.416a9.09 9.09 0 0 1-1.695-.16 12.067 12.067 0 0 1-1.648-.432 9.524 9.524 0 0 1-1.456-.64 6.642 6.642 0 0 1-1.152-.816l1.152-1.824c.138-.213.303-.379.496-.496.191-.128.442-.192.751-.192.288 0 .544.064.769.192.234.128.485.267.752.416.266.15.576.288.928.416.362.128.816.192 1.36.192.383 0 .709-.037.975-.112.267-.085.48-.197.64-.336a1.31 1.31 0 0 0 .353-.464c.074-.17.112-.347.112-.528 0-.33-.112-.603-.337-.816a2.815 2.815 0 0 0-.88-.544 8.918 8.918 0 0 0-1.248-.432 30.875 30.875 0 0 1-1.407-.464 12.57 12.57 0 0 1-1.425-.608 5.199 5.199 0 0 1-1.232-.912 4.336 4.336 0 0 1-.88-1.36c-.224-.533-.335-1.179-.335-1.936 0-.704.133-1.37.4-2a4.73 4.73 0 0 1 1.232-1.68c.544-.48 1.226-.859 2.047-1.136.822-.288 1.782-.432 2.88-.432.598 0 1.174.053 1.728.16a8.835 8.835 0 0 1 1.585.448c.49.192.938.421 1.343.688.406.256.763.539 1.073.848l-1.12 1.744zm8.91-3.632v10.528c0 .821.187 1.456.56 1.904.374.448.923.672 1.648.672.544 0 1.051-.112 1.52-.336.48-.224.944-.539 1.392-.944V7.408h4.96V24h-3.072c-.618 0-1.024-.277-1.216-.832l-.304-.96c-.32.31-.65.592-.992.848a6.598 6.598 0 0 1-1.104.64c-.384.17-.8.304-1.248.4a6.35 6.35 0 0 1-1.472.16c-.906 0-1.712-.155-2.416-.464a5.057 5.057 0 0 1-1.76-1.328 5.758 5.758 0 0 1-1.088-2c-.245-.768-.368-1.61-.368-2.528V7.408h4.96zm19.203-7.36v13.424h.736c.309 0 .544-.043.704-.128.17-.085.33-.24.48-.464l3.136-4.672c.181-.277.394-.48.64-.608.256-.128.576-.192.96-.192h4.544l-4.288 5.904a4.477 4.477 0 0 1-.672.736 5.193 5.193 0 0 1-.768.576c.48.363.896.843 1.248 1.44L127.536 24h-4.48c-.374 0-.699-.059-.976-.176-.267-.128-.486-.347-.656-.656l-3.136-5.872c-.15-.267-.304-.437-.464-.512-.16-.085-.4-.128-.72-.128h-.96V24h-4.96V.048h4.96zM141.397 24c-.469 0-.826-.064-1.072-.192-.234-.128-.432-.395-.592-.8l-.352-.912c-.416.352-.816.661-1.2.928a7.916 7.916 0 0 1-1.2.688 5.68 5.68 0 0 1-1.312.4c-.458.096-.97.144-1.536.144a6.948 6.948 0 0 1-2.064-.288 4.493 4.493 0 0 1-1.584-.88 3.904 3.904 0 0 1-.992-1.424c-.234-.576-.352-1.237-.352-1.984 0-.587.15-1.19.448-1.808.299-.619.816-1.179 1.552-1.68.736-.512 1.728-.939 2.976-1.28 1.248-.341 2.822-.533 4.72-.576v-.704c0-.97-.202-1.67-.608-2.096-.394-.437-.96-.656-1.696-.656-.586 0-1.066.064-1.44.192a6.847 6.847 0 0 0-1.008.432c-.288.16-.57.304-.848.432-.277.128-.608.192-.992.192-.341 0-.634-.08-.88-.24a1.967 1.967 0 0 1-.56-.624l-.896-1.552a9.995 9.995 0 0 1 3.328-1.968c1.227-.437 2.539-.656 3.936-.656 1.003 0 1.904.165 2.704.496.811.32 1.494.773 2.048 1.36a5.785 5.785 0 0 1 1.296 2.064c.299.8.448 1.675.448 2.624V24h-2.272zm-5.696-3.024c.64 0 1.2-.112 1.68-.336.48-.224.966-.587 1.456-1.088v-2.304c-.992.043-1.808.128-2.448.256-.64.128-1.146.288-1.52.48-.373.192-.634.41-.784.656a1.605 1.605 0 0 0-.208.8c0 .565.155.965.464 1.2.31.224.763.336 1.36.336zm28.238-5.424c0 1.301-.166 2.485-.496 3.552-.32 1.067-.811 1.984-1.472 2.752-.651.757-1.472 1.35-2.464 1.776-.992.416-2.16.624-3.504.624a15.373 15.373 0 0 1-3.648-.416l.288-3.152a.96.96 0 0 1 .32-.672c.202-.17.48-.256.832-.256.181 0 .405.032.672.096.266.053.586.08.96.08.522 0 .976-.07 1.36-.208.394-.15.72-.39.976-.72.256-.341.448-.784.576-1.328.128-.544.192-1.216.192-2.016V.688h5.408v14.864zm19.814 2.416c.128 0 .256.027.384.08.128.043.25.123.368.24l2.144 2.256a8.96 8.96 0 0 1-3.536 2.784c-1.408.619-3.078.928-5.008.928-1.771 0-3.36-.299-4.768-.896-1.398-.608-2.587-1.44-3.568-2.496-.971-1.067-1.718-2.325-2.24-3.776-.523-1.461-.784-3.045-.784-4.752 0-1.739.298-3.333.896-4.784.597-1.461 1.429-2.72 2.496-3.776 1.077-1.056 2.362-1.877 3.856-2.464 1.493-.587 3.141-.88 4.944-.88.874 0 1.696.08 2.464.24.778.15 1.504.363 2.176.64.672.267 1.29.592 1.856.976a8.7 8.7 0 0 1 1.504 1.248l-1.824 2.448c-.118.15-.256.288-.416.416-.16.117-.384.176-.672.176-.192 0-.374-.043-.544-.128a7.309 7.309 0 0 1-.544-.304 14.35 14.35 0 0 0-.64-.4 3.878 3.878 0 0 0-.816-.4 5.999 5.999 0 0 0-1.104-.32 7.412 7.412 0 0 0-1.472-.128c-.982 0-1.878.176-2.688.528a5.83 5.83 0 0 0-2.096 1.488c-.576.64-1.03 1.419-1.36 2.336-.32.917-.48 1.947-.48 3.088 0 1.195.16 2.256.48 3.184.33.928.773 1.712 1.328 2.352a5.753 5.753 0 0 0 1.968 1.44c.746.33 1.546.496 2.4.496.49 0 .938-.021 1.344-.064a5.766 5.766 0 0 0 1.12-.256c.352-.117.682-.267.992-.448.32-.192.64-.427.96-.704a1.67 1.67 0 0 1 .416-.256 1.02 1.02 0 0 1 .464-.112zM195.36 24h-5.44V.688h5.44V24z" fill="#121111"/></svg>