<svg width="111" height="25" fill="none" xmlns="http://www.w3.org/2000/svg"><path d="M17.584 17.968c.128 0 .256.027.384.08.128.043.25.123.368.24l2.144 2.256a8.954 8.954 0 0 1-3.536 2.784c-1.408.619-3.077.928-5.008.928-1.77 0-3.36-.299-4.768-.896-1.397-.608-2.587-1.44-3.568-2.496-.97-1.067-1.717-2.325-2.24-3.776-.523-1.461-.784-3.045-.784-4.752 0-1.739.299-3.333.896-4.784.597-1.461 1.43-2.72 2.496-3.776C5.045 2.72 6.331 1.899 7.824 1.312c1.493-.587 3.141-.88 4.944-.88.875 0 1.696.08 2.464.24.779.15 1.504.363 2.176.64.672.267 1.29.592 1.856.976.565.373 1.067.79 1.504 1.248l-1.824 2.448c-.117.15-.256.288-.416.416-.16.117-.384.176-.672.176a1.2 1.2 0 0 1-.544-.128 7.37 7.37 0 0 1-.544-.304 13.957 13.957 0 0 0-.64-.4 3.878 3.878 0 0 0-.816-.4 5.966 5.966 0 0 0-1.104-.32 7.41 7.41 0 0 0-1.472-.128c-.981 0-1.877.176-2.688.528a5.83 5.83 0 0 0-2.096 1.488c-.576.64-1.03 1.419-1.36 2.336-.32.917-.48 1.947-.48 3.088 0 1.195.16 2.256.48 3.184.33.928.773 1.712 1.328 2.352a5.76 5.76 0 0 0 1.968 1.44 5.86 5.86 0 0 0 2.4.496c.49 0 .939-.021 1.344-.064a5.749 5.749 0 0 0 1.12-.256c.352-.117.683-.267.992-.448.32-.192.64-.427.96-.704.128-.107.267-.192.416-.256.15-.075.304-.112.464-.112zm11.095 1.712h8.64V24H23.271V.688h5.408V19.68zM46.105 24h-5.44V.688h5.44V24zm10.058-7.792V24h-5.408V.688h8.224c1.643 0 3.05.197 4.224.592 1.184.384 2.155.917 2.912 1.6a6.233 6.233 0 0 1 1.696 2.416 8.19 8.19 0 0 1 .544 3.008c0 1.163-.187 2.23-.56 3.2A6.42 6.42 0 0 1 66.083 14c-.768.693-1.744 1.237-2.928 1.632-1.173.384-2.565.576-4.176.576h-2.816zm0-4.08h2.816c1.408 0 2.421-.336 3.04-1.008.619-.672.928-1.61.928-2.816 0-.533-.08-1.019-.24-1.456a2.851 2.851 0 0 0-.736-1.12c-.32-.32-.73-.565-1.232-.736-.49-.17-1.077-.256-1.76-.256h-2.816v7.392zm20.726 7.552h8.64V24H71.481V.688h5.408V19.68zM110.091 24h-4.192c-.469 0-.859-.107-1.168-.32a1.75 1.75 0 0 1-.624-.848l-1.376-4.064h-8.864l-1.376 4.064c-.107.299-.315.57-.624.816-.31.235-.688.352-1.136.352h-4.224L95.531.688h5.536L110.091 24zm-14.976-8.912h6.368l-2.144-6.384c-.139-.405-.304-.88-.496-1.424a47.12 47.12 0 0 1-.544-1.792c-.17.65-.347 1.253-.528 1.808a25.855 25.855 0 0 1-.512 1.44l-2.144 6.352z" fill="#121111"/></svg>