<svg width="342" height="31" fill="none" xmlns="http://www.w3.org/2000/svg"><path d="M24.928 13.336c0 1.685-.293 3.253-.88 4.704a11.322 11.322 0 0 1-2.448 3.792c-1.056 1.067-2.33 1.904-3.824 2.512-1.483.608-3.13.912-4.944.912-1.813 0-3.467-.304-4.96-.912-1.493-.608-2.773-1.445-3.84-2.512a11.53 11.53 0 0 1-2.464-3.792c-.576-1.45-.864-3.019-.864-4.704 0-1.685.288-3.253.864-4.704a11.352 11.352 0 0 1 2.464-3.776c1.067-1.067 2.347-1.904 3.84-2.512 1.493-.608 3.147-.912 4.96-.912 1.813 0 3.461.31 4.944.928 1.493.608 2.768 1.445 3.824 2.512a11.15 11.15 0 0 1 2.448 3.776c.587 1.45.88 3.013.88 4.688zm-5.536 0c0-1.152-.15-2.187-.448-3.104-.299-.928-.73-1.712-1.296-2.352A5.483 5.483 0 0 0 15.6 6.408c-.81-.341-1.733-.512-2.768-.512-1.045 0-1.979.17-2.8.512A5.627 5.627 0 0 0 7.968 7.88c-.555.64-.981 1.424-1.28 2.352-.299.917-.448 1.952-.448 3.104 0 1.163.15 2.208.448 3.136.299.917.725 1.696 1.28 2.336a5.627 5.627 0 0 0 2.064 1.472c.821.33 1.755.496 2.8.496 1.035 0 1.957-.165 2.768-.496a5.483 5.483 0 0 0 2.048-1.472c.565-.64.997-1.419 1.296-2.336.299-.928.448-1.973.448-3.136zM27.834 25V8.408h2.944c.245 0 .448.021.608.064a.96.96 0 0 1 .416.208.723.723 0 0 1 .256.352c.064.15.117.33.16.544l.272 1.552c.608-.939 1.29-1.68 2.048-2.224.757-.544 1.584-.816 2.48-.816.757 0 1.365.181 1.824.544l-.64 3.648c-.043.224-.128.384-.256.48-.128.085-.299.128-.512.128a3.76 3.76 0 0 1-.64-.064 4.479 4.479 0 0 0-.928-.08c-1.302 0-2.326.693-3.072 2.08V25h-4.96zM46.493 8.408V25h-4.96V8.408h4.96zm.575-4.544c0 .395-.08.768-.24 1.12-.16.341-.378.645-.656.912a3.397 3.397 0 0 1-.975.624c-.363.15-.753.224-1.169.224-.405 0-.783-.075-1.136-.224a3.542 3.542 0 0 1-.944-.624 3.202 3.202 0 0 1-.64-.912 2.839 2.839 0 0 1-.224-1.12c0-.405.075-.784.224-1.136.16-.352.374-.661.64-.928.278-.267.593-.475.944-.624.352-.15.731-.224 1.136-.224.416 0 .806.075 1.169.224a2.999 2.999 0 0 1 1.631 1.552c.16.352.24.73.24 1.136zm9.605 4.256c.704 0 1.366.07 1.984.208.63.139 1.211.336 1.745.592h5.007v1.808c0 .277-.08.496-.24.656-.149.16-.41.283-.784.368l-1.216.272c.15.48.225.976.225 1.488 0 .832-.176 1.579-.529 2.24a5.05 5.05 0 0 1-1.424 1.696c-.597.459-1.306.816-2.128 1.072a9.182 9.182 0 0 1-2.64.368 10.65 10.65 0 0 1-1.471-.096c-.363.213-.544.459-.544.736 0 .277.143.48.431.608.3.117.689.203 1.169.256.48.043 1.029.075 1.648.096.618.01 1.248.048 1.888.112.64.053 1.269.15 1.888.288a5.055 5.055 0 0 1 1.648.672c.48.31.864.725 1.151 1.248.3.512.449 1.168.449 1.968a4.79 4.79 0 0 1-.545 2.192c-.362.715-.896 1.35-1.6 1.904-.703.555-1.567.997-2.591 1.328-1.025.341-2.198.512-3.52.512-1.302 0-2.427-.123-3.377-.368-.938-.245-1.722-.57-2.351-.976-.62-.395-1.078-.853-1.377-1.376a3.245 3.245 0 0 1-.448-1.632c0-.736.224-1.355.672-1.856.449-.512 1.062-.912 1.84-1.2a2.81 2.81 0 0 1-.896-.944c-.224-.384-.336-.87-.336-1.456 0-.245.043-.501.128-.768a2.87 2.87 0 0 1 .4-.8 4.05 4.05 0 0 1 .688-.736 4.5 4.5 0 0 1 .992-.624c-.864-.459-1.546-1.067-2.047-1.824-.491-.757-.736-1.637-.736-2.64 0-.832.175-1.579.527-2.24a5.014 5.014 0 0 1 1.44-1.696c.62-.47 1.345-.827 2.176-1.072a9.153 9.153 0 0 1 2.704-.384zm3.68 17.488c0-.267-.085-.48-.256-.64-.16-.16-.383-.288-.672-.384a4.616 4.616 0 0 0-.991-.208 18.785 18.785 0 0 0-1.216-.096 55.663 55.663 0 0 0-1.36-.048 19.79 19.79 0 0 1-1.392-.112 3.32 3.32 0 0 0-.769.72 1.43 1.43 0 0 0-.288.88c0 .235.049.448.145.64.106.192.288.357.543.496.256.139.598.245 1.024.32.438.085.987.128 1.648.128.715 0 1.302-.043 1.76-.128.46-.085.822-.203 1.088-.352.278-.15.47-.33.577-.544a1.42 1.42 0 0 0 .16-.672zm-3.68-9.776c.822 0 1.414-.203 1.776-.608.374-.416.56-.95.56-1.6 0-.672-.186-1.2-.56-1.584-.362-.384-.954-.576-1.776-.576-.82 0-1.418.192-1.791.576-.363.384-.544.912-.544 1.584 0 .32.042.613.127.88.096.267.24.501.432.704.193.192.433.347.72.464.3.107.651.16 1.056.16zm16.334-7.424V25h-4.96V8.408h4.96zm.576-4.544c0 .395-.08.768-.24 1.12-.16.341-.378.645-.656.912a3.397 3.397 0 0 1-.975.624c-.363.15-.752.224-1.169.224-.405 0-.784-.075-1.136-.224a3.542 3.542 0 0 1-.944-.624 3.202 3.202 0 0 1-.64-.912 2.839 2.839 0 0 1-.223-1.12c0-.405.074-.784.224-1.136.16-.352.373-.661.64-.928.277-.267.591-.475.944-.624.352-.15.73-.224 1.135-.224.416 0 .806.075 1.168.224a2.999 2.999 0 0 1 1.633 1.552c.16.352.24.73.24 1.136zM77.334 25V8.408h3.072c.309 0 .565.07.767.208.214.139.363.347.449.624l.288.96c.32-.299.65-.576.991-.832a6.103 6.103 0 0 1 2.352-1.056c.46-.107.955-.16 1.489-.16.906 0 1.706.16 2.4.48.703.31 1.295.747 1.775 1.312.48.555.843 1.221 1.088 2 .246.768.368 1.605.368 2.512V25h-4.96V14.456c0-.81-.186-1.44-.56-1.888-.373-.459-.922-.688-1.648-.688a3.45 3.45 0 0 0-1.535.352c-.48.235-.94.55-1.376.944V25h-4.96zm30.338 0c-.469 0-.827-.064-1.072-.192-.235-.128-.432-.395-.592-.8l-.352-.912c-.416.352-.816.661-1.2.928a7.916 7.916 0 0 1-1.2.688 5.695 5.695 0 0 1-1.312.4 7.525 7.525 0 0 1-1.536.144 6.945 6.945 0 0 1-2.064-.288 4.481 4.481 0 0 1-1.584-.88 3.892 3.892 0 0 1-.992-1.424c-.235-.576-.352-1.237-.352-1.984 0-.587.15-1.19.448-1.808.299-.619.816-1.179 1.552-1.68.736-.512 1.728-.939 2.976-1.28 1.248-.341 2.821-.533 4.72-.576v-.704c0-.97-.203-1.67-.608-2.096-.395-.437-.96-.656-1.696-.656-.587 0-1.067.064-1.44.192a6.847 6.847 0 0 0-1.008.432c-.288.16-.57.304-.848.432-.277.128-.608.192-.992.192-.341 0-.635-.08-.88-.24a1.955 1.955 0 0 1-.56-.624l-.896-1.552a9.993 9.993 0 0 1 3.328-1.968c1.227-.437 2.539-.656 3.936-.656 1.003 0 1.904.165 2.704.496a5.6 5.6 0 0 1 2.048 1.36 5.812 5.812 0 0 1 1.296 2.064c.299.8.448 1.675.448 2.624V25h-2.272zm-5.696-3.024c.64 0 1.2-.112 1.68-.336.48-.224.965-.587 1.456-1.088v-2.304c-.992.043-1.808.128-2.448.256-.64.128-1.147.288-1.52.48s-.635.41-.784.656a1.595 1.595 0 0 0-.208.8c0 .565.155.965.464 1.2.309.224.763.336 1.36.336zm16.93-20.928V25h-4.96V1.048h4.96zM129.737 25V1.688h8.576c1.611 0 2.982.15 4.112.448 1.131.299 2.054.72 2.768 1.264.715.544 1.232 1.205 1.552 1.984.331.779.496 1.648.496 2.608a5.17 5.17 0 0 1-.224 1.52c-.149.48-.384.933-.704 1.36-.32.427-.73.816-1.232 1.168-.501.341-1.104.64-1.808.896 1.536.373 2.672.981 3.408 1.824.736.832 1.104 1.904 1.104 3.216 0 .992-.192 1.915-.576 2.768a6.37 6.37 0 0 1-1.696 2.24c-.736.63-1.648 1.125-2.736 1.488-1.088.352-2.33.528-3.728.528h-9.312zm5.408-9.888v5.808h3.808c.715 0 1.296-.09 1.744-.272.459-.181.816-.416 1.072-.704a2.36 2.36 0 0 0 .528-.976c.096-.363.144-.73.144-1.104 0-.427-.058-.81-.176-1.152a1.815 1.815 0 0 0-.576-.864c-.266-.235-.624-.416-1.072-.544-.448-.128-1.013-.192-1.696-.192h-3.776zm0-3.616h2.816c.598 0 1.136-.043 1.616-.128.48-.085.886-.235 1.216-.448a1.98 1.98 0 0 0 .768-.88c.182-.373.272-.843.272-1.408 0-.555-.069-1.013-.208-1.376a1.973 1.973 0 0 0-.64-.896c-.288-.224-.656-.384-1.104-.48a7.407 7.407 0 0 0-1.568-.144h-3.168v5.76zM162.513 25c-.469 0-.826-.064-1.072-.192-.234-.128-.432-.395-.592-.8l-.352-.912c-.416.352-.816.661-1.2.928a7.916 7.916 0 0 1-1.2.688 5.68 5.68 0 0 1-1.312.4c-.458.096-.97.144-1.536.144a6.948 6.948 0 0 1-2.064-.288 4.493 4.493 0 0 1-1.584-.88 3.904 3.904 0 0 1-.992-1.424c-.234-.576-.352-1.237-.352-1.984 0-.587.15-1.19.448-1.808.299-.619.816-1.179 1.552-1.68.736-.512 1.728-.939 2.976-1.28 1.248-.341 2.822-.533 4.72-.576v-.704c0-.97-.202-1.67-.608-2.096-.394-.437-.96-.656-1.696-.656-.586 0-1.066.064-1.44.192a6.847 6.847 0 0 0-1.008.432c-.288.16-.57.304-.848.432-.277.128-.608.192-.992.192-.341 0-.634-.08-.88-.24a1.967 1.967 0 0 1-.56-.624l-.896-1.552a9.995 9.995 0 0 1 3.328-1.968c1.227-.437 2.539-.656 3.936-.656 1.003 0 1.904.165 2.704.496.811.32 1.494.773 2.048 1.36a5.785 5.785 0 0 1 1.296 2.064c.299.8.448 1.675.448 2.624V25h-2.272zm-5.696-3.024c.64 0 1.2-.112 1.68-.336.48-.224.966-.587 1.456-1.088v-2.304c-.992.043-1.808.128-2.448.256-.64.128-1.146.288-1.52.48-.373.192-.634.41-.784.656a1.605 1.605 0 0 0-.208.8c0 .565.155.965.464 1.2.31.224.763.336 1.36.336zM174.484 8.12a9.1 9.1 0 0 1 1.984.208c.629.139 1.21.336 1.744.592h5.008v1.808c0 .277-.08.496-.24.656-.15.16-.411.283-.784.368l-1.216.272c.149.48.224.976.224 1.488 0 .832-.176 1.579-.528 2.24a5.058 5.058 0 0 1-1.424 1.696c-.598.459-1.307.816-2.128 1.072a9.19 9.19 0 0 1-2.64.368c-.523 0-1.014-.032-1.472-.096-.363.213-.544.459-.544.736 0 .277.144.48.432.608.298.117.688.203 1.168.256.48.043 1.029.075 1.648.096.618.01 1.248.048 1.888.112.64.053 1.269.15 1.888.288a5.062 5.062 0 0 1 1.648.672c.48.31.864.725 1.152 1.248.298.512.448 1.168.448 1.968 0 .747-.182 1.477-.544 2.192-.363.715-.896 1.35-1.6 1.904-.704.555-1.568.997-2.592 1.328-1.024.341-2.198.512-3.52.512-1.302 0-2.427-.123-3.376-.368-.939-.245-1.723-.57-2.352-.976-.619-.395-1.078-.853-1.376-1.376a3.242 3.242 0 0 1-.448-1.632c0-.736.224-1.355.672-1.856.448-.512 1.061-.912 1.84-1.2a2.802 2.802 0 0 1-.896-.944c-.224-.384-.336-.87-.336-1.456a2.5 2.5 0 0 1 .128-.768 2.79 2.79 0 0 1 .4-.8c.181-.256.41-.501.688-.736a4.47 4.47 0 0 1 .992-.624c-.864-.459-1.547-1.067-2.048-1.824-.491-.757-.736-1.637-.736-2.64 0-.832.176-1.579.528-2.24a5.014 5.014 0 0 1 1.44-1.696c.618-.47 1.344-.827 2.176-1.072a9.152 9.152 0 0 1 2.704-.384zm3.68 17.488c0-.267-.086-.48-.256-.64-.16-.16-.384-.288-.672-.384a4.625 4.625 0 0 0-.992-.208 18.842 18.842 0 0 0-1.216-.096 52.807 52.807 0 0 0-1.36-.048 19.79 19.79 0 0 1-1.392-.112 3.28 3.28 0 0 0-.768.72 1.43 1.43 0 0 0-.288.88c0 .235.048.448.144.64.106.192.288.357.544.496.256.139.597.245 1.024.32.437.085.986.128 1.648.128.714 0 1.301-.043 1.76-.128.458-.085.821-.203 1.088-.352.277-.15.469-.33.576-.544a1.43 1.43 0 0 0 .16-.672zm-3.68-9.776c.821 0 1.413-.203 1.776-.608.373-.416.56-.95.56-1.6 0-.672-.187-1.2-.56-1.584-.363-.384-.955-.576-1.776-.576-.822 0-1.419.192-1.792.576-.363.384-.544.912-.544 1.584 0 .32.042.613.128.88.096.267.24.501.432.704.192.192.432.347.72.464.298.107.65.16 1.056.16zm33.385 3.136c.128 0 .256.027.384.08a.95.95 0 0 1 .368.24l2.144 2.256a8.954 8.954 0 0 1-3.536 2.784c-1.408.619-3.077.928-5.008.928-1.771 0-3.36-.299-4.768-.896-1.397-.608-2.587-1.44-3.568-2.496-.971-1.067-1.717-2.325-2.24-3.776-.523-1.461-.784-3.045-.784-4.752 0-1.739.299-3.333.896-4.784.597-1.461 1.429-2.72 2.496-3.776 1.077-1.056 2.363-1.877 3.856-2.464 1.493-.587 3.141-.88 4.944-.88.875 0 1.696.08 2.464.24.779.15 1.504.363 2.176.64a9.567 9.567 0 0 1 1.856.976c.565.373 1.067.79 1.504 1.248l-1.824 2.448c-.117.15-.256.288-.416.416-.16.117-.384.176-.672.176-.192 0-.373-.043-.544-.128a7.309 7.309 0 0 1-.544-.304 13.795 13.795 0 0 0-.64-.4 3.878 3.878 0 0 0-.816-.4 5.953 5.953 0 0 0-1.104-.32 7.412 7.412 0 0 0-1.472-.128c-.981 0-1.877.176-2.688.528a5.839 5.839 0 0 0-2.096 1.488c-.576.64-1.029 1.419-1.36 2.336-.32.917-.48 1.947-.48 3.088 0 1.195.16 2.256.48 3.184.331.928.773 1.712 1.328 2.352a5.753 5.753 0 0 0 1.968 1.44c.747.33 1.547.496 2.4.496.491 0 .939-.021 1.344-.064a5.749 5.749 0 0 0 1.12-.256c.352-.117.683-.267.992-.448.32-.192.64-.427.96-.704.128-.107.267-.192.416-.256a1.02 1.02 0 0 1 .464-.112zm13.079-10.816c1.259 0 2.406.197 3.44.592 1.035.395 1.92.96 2.656 1.696.747.736 1.323 1.632 1.728 2.688.416 1.045.624 2.224.624 3.536 0 1.323-.208 2.517-.624 3.584-.405 1.056-.981 1.957-1.728 2.704a7.646 7.646 0 0 1-2.656 1.712c-1.034.395-2.181.592-3.44.592-1.269 0-2.426-.197-3.472-.592a8.004 8.004 0 0 1-2.688-1.712c-.746-.747-1.328-1.648-1.744-2.704-.405-1.067-.608-2.261-.608-3.584 0-1.312.203-2.49.608-3.536.416-1.056.998-1.952 1.744-2.688a7.805 7.805 0 0 1 2.688-1.696c1.046-.395 2.203-.592 3.472-.592zm0 13.424c1.142 0 1.979-.4 2.512-1.2.544-.81.816-2.037.816-3.68 0-1.643-.272-2.864-.816-3.664-.533-.8-1.37-1.2-2.512-1.2-1.173 0-2.032.4-2.576 1.2-.544.8-.816 2.021-.816 3.664 0 1.643.272 2.87.816 3.68.544.8 1.403 1.2 2.576 1.2zm16.611-20.528V25h-4.96V1.048h4.96zm9.445 0V25h-4.96V1.048h4.96zm11.429 7.104c1.098 0 2.101.17 3.008.512a6.471 6.471 0 0 1 2.352 1.488c.661.65 1.173 1.45 1.536 2.4.373.939.56 2.005.56 3.2 0 .373-.016.677-.048.912a1.45 1.45 0 0 1-.176.56.67.67 0 0 1-.352.288 1.55 1.55 0 0 1-.544.08h-9.568c.16 1.387.581 2.395 1.264 3.024.682.619 1.562.928 2.64.928.576 0 1.072-.07 1.488-.208a7.164 7.164 0 0 0 1.104-.464l.896-.464c.277-.139.565-.208.864-.208.394 0 .693.144.896.432l1.44 1.776a7.475 7.475 0 0 1-1.664 1.44 8.903 8.903 0 0 1-1.824.864 9.666 9.666 0 0 1-1.872.416 13.07 13.07 0 0 1-1.776.128 9.5 9.5 0 0 1-3.28-.56A7.704 7.704 0 0 1 252.705 23c-.758-.747-1.36-1.675-1.808-2.784-.438-1.11-.656-2.4-.656-3.872 0-1.11.186-2.16.56-3.152a7.935 7.935 0 0 1 1.632-2.608 7.87 7.87 0 0 1 2.576-1.776c1.013-.437 2.154-.656 3.424-.656zm.096 3.424c-.95 0-1.691.272-2.224.816-.534.533-.886 1.307-1.056 2.32h6.192c0-.395-.054-.779-.16-1.152a2.568 2.568 0 0 0-.496-.992 2.415 2.415 0 0 0-.896-.72c-.374-.181-.827-.272-1.36-.272zm22.494.768a2.718 2.718 0 0 1-.432.432c-.139.107-.336.16-.592.16a1.32 1.32 0 0 1-.672-.176 23.117 23.117 0 0 0-.656-.384 4.637 4.637 0 0 0-.864-.4c-.331-.117-.741-.176-1.232-.176-.608 0-1.136.112-1.584.336-.437.224-.8.544-1.088.96-.288.416-.501.928-.64 1.536a9.001 9.001 0 0 0-.208 2.032c0 1.59.304 2.81.912 3.664.619.853 1.467 1.28 2.544 1.28.576 0 1.029-.07 1.36-.208.341-.15.629-.31.864-.48l.64-.496c.203-.15.453-.224.752-.224.395 0 .693.144.896.432l1.44 1.776a8.052 8.052 0 0 1-1.616 1.44 8.553 8.553 0 0 1-1.744.864 8.763 8.763 0 0 1-1.776.416c-.597.085-1.179.128-1.744.128a7.544 7.544 0 0 1-2.912-.576 7.276 7.276 0 0 1-2.432-1.664c-.693-.736-1.248-1.637-1.664-2.704-.405-1.067-.608-2.283-.608-3.648 0-1.195.176-2.31.528-3.344.363-1.045.891-1.947 1.584-2.704.704-.768 1.568-1.37 2.592-1.808 1.035-.437 2.229-.656 3.584-.656 1.301 0 2.443.208 3.424.624a8.216 8.216 0 0 1 2.656 1.824l-1.312 1.744zm9.738 12.912c-.789 0-1.488-.112-2.096-.336a4.39 4.39 0 0 1-1.52-.976 4.31 4.31 0 0 1-.928-1.536c-.213-.597-.32-1.264-.32-2v-8.576h-1.408a.959.959 0 0 1-.656-.24c-.181-.17-.272-.416-.272-.736V8.92l2.64-.512.976-4.048c.128-.512.491-.768 1.088-.768h2.592V8.44h4.032v3.392h-4.032v8.24c0 .384.091.704.272.96.192.245.464.368.816.368.182 0 .331-.016.448-.048.128-.043.235-.085.32-.128.096-.053.182-.096.256-.128a.639.639 0 0 1 .288-.064c.15 0 .267.037.352.112.096.064.192.17.288.32l1.504 2.352a6.97 6.97 0 0 1-2.16 1.088 8.76 8.76 0 0 1-2.48.352zM303.19 8.408V25h-4.96V8.408h4.96zm.576-4.544c0 .395-.08.768-.24 1.12a3.07 3.07 0 0 1-.656.912 3.397 3.397 0 0 1-.976.624c-.363.15-.752.224-1.168.224a2.88 2.88 0 0 1-1.136-.224 3.537 3.537 0 0 1-.944-.624 3.196 3.196 0 0 1-.64-.912 2.844 2.844 0 0 1-.224-1.12c0-.405.075-.784.224-1.136.16-.352.373-.661.64-.928a3.08 3.08 0 0 1 .944-.624 2.88 2.88 0 0 1 1.136-.224c.416 0 .805.075 1.168.224a2.999 2.999 0 0 1 1.632 1.552c.16.352.24.73.24 1.136zm11.141 4.288c1.259 0 2.405.197 3.44.592 1.035.395 1.92.96 2.656 1.696.747.736 1.323 1.632 1.728 2.688.416 1.045.624 2.224.624 3.536 0 1.323-.208 2.517-.624 3.584-.405 1.056-.981 1.957-1.728 2.704a7.646 7.646 0 0 1-2.656 1.712c-1.035.395-2.181.592-3.44.592-1.269 0-2.427-.197-3.472-.592a7.984 7.984 0 0 1-2.688-1.712c-.747-.747-1.328-1.648-1.744-2.704-.405-1.067-.608-2.261-.608-3.584 0-1.312.203-2.49.608-3.536.416-1.056.997-1.952 1.744-2.688a7.786 7.786 0 0 1 2.688-1.696c1.045-.395 2.203-.592 3.472-.592zm0 13.424c1.141 0 1.979-.4 2.512-1.2.544-.81.816-2.037.816-3.68 0-1.643-.272-2.864-.816-3.664-.533-.8-1.371-1.2-2.512-1.2-1.173 0-2.032.4-2.576 1.2-.544.8-.816 2.021-.816 3.664 0 1.643.272 2.87.816 3.68.544.8 1.403 1.2 2.576 1.2zM326.398 25V8.408h3.072c.309 0 .565.07.768.208.213.139.362.347.448.624l.288.96c.32-.299.65-.576.992-.832.341-.256.704-.47 1.088-.64.394-.181.816-.32 1.264-.416.458-.107.954-.16 1.488-.16.906 0 1.706.16 2.4.48.704.31 1.296.747 1.776 1.312.48.555.842 1.221 1.088 2 .245.768.368 1.605.368 2.512V25h-4.96V14.456c0-.81-.187-1.44-.56-1.888-.374-.459-.923-.688-1.648-.688a3.45 3.45 0 0 0-1.536.352c-.48.235-.939.55-1.376.944V25h-4.96z" fill="#121111"/></svg>