<svg fill="none" height="21" viewBox="0 0 216 21" width="216" xmlns="http://www.w3.org/2000/svg"><path d="m.56 20v-13.481h2.496c.25133 0 .45933.05633.624.169.17333.11267.29467.28167.364.507l.221.728c.22533-.234.45933-.44633.702-.637.24267-.19933.50267-.36833.78-.507.286-.14733.58933-.26.91-.338.32933-.08667.689-.13 1.079-.13.81467 0 1.48633.21233 2.015.637.5373.416.9447.975 1.222 1.677.2253-.416.4983-.77133.819-1.066.3293-.29467.6803-.533 1.053-.715.3813-.182.78-.31633 1.196-.403.4247-.08667.845-.13 1.261-.13.7713 0 1.456.117 2.054.351.598.22533 1.0963.559 1.495 1.001.4073.43333.715.97067.923 1.612.208.63267.312 1.352.312 2.158v8.567h-4.03v-8.567c0-1.3953-.598-2.093-1.794-2.093-.546 0-1.001.182-1.365.546-.3553.3553-.533.871-.533 1.547v8.567h-4.03v-8.567c0-.7713-.15167-1.313-.455-1.625s-.74967-.468-1.339-.468c-.364 0-.71067.08233-1.04.247-.32067.16467-.624.38567-.91.663v9.75zm31.9625 0c-.3813 0-.6716-.052-.871-.156-.1906-.104-.351-.3207-.481-.65l-.286-.741c-.338.286-.663.5373-.975.754s-.637.403-.975.559c-.3293.1473-.6846.2557-1.066.325-.3726.078-.7886.117-1.248.117-.6153 0-1.1743-.078-1.677-.234-.5026-.1647-.9316-.403-1.287-.715-.3466-.312-.6153-.6977-.806-1.157-.1906-.468-.286-1.0053-.286-1.612 0-.4767.1214-.9663.364-1.469.2427-.5027.663-.9577 1.261-1.365.598-.416 1.404-.7627 2.418-1.04s2.2924-.4333 3.835-.468v-.572c0-.7887-.1646-1.3563-.494-1.703-.3206-.35533-.78-.533-1.378-.533-.4766 0-.8666.052-1.17.156-.3033.104-.5763.221-.819.351-.234.13-.4636.247-.689.351-.2253.104-.494.156-.806.156-.2773 0-.5156-.065-.715-.195-.1906-.1387-.3423-.30767-.455-.507l-.728-1.261c.8147-.71933 1.716-1.25233 2.704-1.599.9967-.35533 2.0627-.533 3.198-.533.8147 0 1.547.13433 2.197.403.6587.26 1.2134.62833 1.664 1.105.4594.468.8104 1.027 1.053 1.677.2427.65.364 1.3607.364 2.132v8.424zm-4.628-2.457c.52 0 .975-.091 1.365-.273s.7844-.4767 1.183-.884v-1.872c-.806.0347-1.469.104-1.989.208s-.9316.234-1.235.39c-.3033.156-.5156.3337-.637.533-.1126.1993-.169.416-.169.65 0 .4593.1257.7843.377.975.2514.182.6197.273 1.105.273zm9.5957 2.457v-19.461001h4.03v7.163001c.4853-.416 1.0096-.74967 1.573-1.001.572-.26 1.2523-.39 2.041-.39.7366 0 1.3866.13 1.95.39.572.25133 1.053.60667 1.443 1.066.39.45067.6846.99233.884 1.625.1993.624.299 1.3043.299 2.041v8.567h-4.03v-8.567c0-.6587-.1517-1.17-.455-1.534-.3034-.37267-.7497-.559-1.339-.559-.442 0-.858.09533-1.248.286s-.7627.4463-1.118.767v9.607zm15.342 0v-13.481h2.496c.2513 0 .4593.05633.624.169.1733.11267.2947.28167.364.507l.234.78c.26-.24267.5287-.468.806-.676s.572-.38133.884-.52c.3207-.14733.663-.26 1.027-.338.3727-.08667.7757-.13 1.209-.13.7367 0 1.3867.13 1.95.39.572.25133 1.053.60667 1.443 1.066.39.45067.6847.99233.884 1.625.1993.624.299 1.3043.299 2.041v8.567h-4.03v-8.567c0-.6587-.1517-1.17-.455-1.534-.3033-.37267-.7497-.559-1.339-.559-.442 0-.858.09533-1.248.286s-.7627.4463-1.118.767v9.607zm24.65 0c-.3813 0-.6716-.052-.871-.156-.1906-.104-.351-.3207-.481-.65l-.286-.741c-.338.286-.663.5373-.975.754s-.637.403-.975.559c-.3293.1473-.6846.2557-1.066.325-.3726.078-.7886.117-1.248.117-.6153 0-1.1743-.078-1.677-.234-.5026-.1647-.9316-.403-1.287-.715-.3466-.312-.6153-.6977-.806-1.157-.1906-.468-.286-1.0053-.286-1.612 0-.4767.1214-.9663.364-1.469.2427-.5027.663-.9577 1.261-1.365.598-.416 1.404-.7627 2.418-1.04s2.2924-.4333 3.835-.468v-.572c0-.7887-.1646-1.3563-.494-1.703-.3206-.35533-.78-.533-1.378-.533-.4766 0-.8666.052-1.17.156-.3033.104-.5763.221-.819.351-.234.13-.4636.247-.689.351-.2253.104-.494.156-.806.156-.2773 0-.5156-.065-.715-.195-.1906-.1387-.3423-.30767-.455-.507l-.728-1.261c.8147-.71933 1.716-1.25233 2.704-1.599.9967-.35533 2.0627-.533 3.198-.533.8147 0 1.547.13433 2.197.403.6587.26 1.2134.62833 1.664 1.105.4594.468.8104 1.027 1.053 1.677.2427.65.364 1.3607.364 2.132v8.424zm-4.628-2.457c.52 0 .975-.091 1.365-.273s.7844-.4767 1.183-.884v-1.872c-.806.0347-1.469.104-1.989.208s-.9316.234-1.235.39c-.3033.156-.5156.3337-.637.533-.1126.1993-.169.416-.169.65 0 .4593.1257.7843.377.975.2514.182.6197.273 1.105.273zm14.883 2.457v-13.481h2.496c.2513 0 .4593.05633.624.169.1733.11267.2947.28167.364.507l.221.728c.2253-.234.4593-.44633.702-.637.2427-.19933.5027-.36833.78-.507.286-.14733.5893-.26.91-.338.3293-.08667.689-.13 1.079-.13.8147 0 1.4863.21233 2.015.637.5373.416.9447.975 1.222 1.677.2253-.416.4983-.77133.819-1.066.3293-.29467.6803-.533 1.0528-.715.382-.182.78-.31633 1.196-.403.425-.08667.845-.13 1.261-.13.772 0 1.456.117 2.054.351.598.22533 1.097.559 1.495 1.001.408.43333.715.97067.923 1.612.208.63267.312 1.352.312 2.158v8.567h-4.03v-8.567c0-1.3953-.598-2.093-1.794-2.093-.546 0-1.001.182-1.365.546-.3551.3553-.5328.871-.5328 1.547v8.567h-4.03v-8.567c0-.7713-.1517-1.313-.455-1.625s-.7497-.468-1.339-.468c-.364 0-.7107.08233-1.04.247-.3207.16467-.624.38567-.91.663v9.75zm31.9628 0c-.382 0-.672-.052-.871-.156-.191-.104-.351-.3207-.481-.65l-.286-.741c-.338.286-.663.5373-.975.754s-.637.403-.975.559c-.33.1473-.685.2557-1.066.325-.373.078-.789.117-1.248.117-.616 0-1.175-.078-1.677-.234-.503-.1647-.932-.403-1.287-.715-.347-.312-.616-.6977-.806-1.157-.191-.468-.286-1.0053-.286-1.612 0-.4767.121-.9663.364-1.469.242-.5027.663-.9577 1.261-1.365.598-.416 1.404-.7627 2.418-1.04s2.292-.4333 3.835-.468v-.572c0-.7887-.165-1.3563-.494-1.703-.321-.35533-.78-.533-1.378-.533-.477 0-.867.052-1.17.156-.304.104-.577.221-.819.351-.234.13-.464.247-.689.351-.226.104-.494.156-.806.156-.278 0-.516-.065-.715-.195-.191-.1387-.343-.30767-.455-.507l-.728-1.261c.814-.71933 1.716-1.25233 2.704-1.599.996-.35533 2.062-.533 3.198-.533.814 0 1.547.13433 2.197.403.658.26 1.213.62833 1.664 1.105.459.468.81 1.027 1.053 1.677.242.65.364 1.3607.364 2.132v8.424zm-4.628-2.457c.52 0 .975-.091 1.365-.273s.784-.4767 1.183-.884v-1.872c-.806.0347-1.469.104-1.989.208s-.932.234-1.235.39c-.304.156-.516.3337-.637.533-.113.1993-.169.416-.169.65 0 .4593.125.7843.377.975.251.182.619.273 1.105.273zm9.595 2.457v-19.461001h4.03v7.163001c.486-.416 1.01-.74967 1.573-1.001.572-.26 1.253-.39 2.041-.39.737 0 1.387.13 1.95.39.572.25133 1.053.60667 1.443 1.066.39.45067.685.99233.884 1.625.2.624.299 1.3043.299 2.041v8.567h-4.03v-8.567c0-.6587-.151-1.17-.455-1.534-.303-.37267-.749-.559-1.339-.559-.442 0-.858.09533-1.248.286s-.762.4463-1.118.767v9.607zm15.342 0v-13.481h2.496c.252 0 .46.05633.624.169.174.11267.295.28167.364.507l.234.78c.26-.24267.529-.468.806-.676.278-.208.572-.38133.884-.52.321-.14733.663-.26 1.027-.338.373-.08667.776-.13 1.209-.13.737 0 1.387.13 1.95.39.572.25133 1.053.60667 1.443 1.066.39.45067.685.99233.884 1.625.2.624.299 1.3043.299 2.041v8.567h-4.03v-8.567c0-.6587-.151-1.17-.455-1.534-.303-.37267-.749-.559-1.339-.559-.442 0-.858.09533-1.248.286s-.762.4463-1.118.767v9.607zm24.65 0c-.381 0-.671-.052-.871-.156-.19-.104-.351-.3207-.481-.65l-.286-.741c-.338.286-.663.5373-.975.754s-.637.403-.975.559c-.329.1473-.684.2557-1.066.325-.372.078-.788.117-1.248.117-.615 0-1.174-.078-1.677-.234-.502-.1647-.931-.403-1.287-.715-.346-.312-.615-.6977-.806-1.157-.19-.468-.286-1.0053-.286-1.612 0-.4767.122-.9663.364-1.469.243-.5027.663-.9577 1.261-1.365.598-.416 1.404-.7627 2.418-1.04s2.293-.4333 3.835-.468v-.572c0-.7887-.164-1.3563-.494-1.703-.32-.35533-.78-.533-1.378-.533-.476 0-.866.052-1.17.156-.303.104-.576.221-.819.351-.234.13-.463.247-.689.351-.225.104-.494.156-.806.156-.277 0-.515-.065-.715-.195-.19-.1387-.342-.30767-.455-.507l-.728-1.261c.815-.71933 1.716-1.25233 2.704-1.599.997-.35533 2.063-.533 3.198-.533.815 0 1.547.13433 2.197.403.659.26 1.214.62833 1.664 1.105.46.468.811 1.027 1.053 1.677.243.65.364 1.3607.364 2.132v8.424zm-4.628-2.457c.52 0 .975-.091 1.365-.273s.785-.4767 1.183-.884v-1.872c-.806.0347-1.469.104-1.989.208s-.931.234-1.235.39c-.303.156-.515.3337-.637.533-.112.1993-.169.416-.169.65 0 .4593.126.7843.377.975.252.182.62.273 1.105.273zm19.693 2.457h-4.42v-18.941h4.42zm3.779 0v-13.481h2.496c.251 0 .459.05633.624.169.173.11267.294.28167.364.507l.234.78c.26-.24267.528-.468.806-.676.277-.208.572-.38133.884-.52.32-.14733.663-.26 1.027-.338.372-.08667.775-.13 1.209-.13.736 0 1.386.13 1.95.39.572.25133 1.053.60667 1.443 1.066.39.45067.684.99233.884 1.625.199.624.299 1.3043.299 2.041v8.567h-4.03v-8.567c0-.6587-.152-1.17-.455-1.534-.304-.37267-.75-.559-1.339-.559-.442 0-.858.09533-1.248.286s-.763.4463-1.118.767v9.607zm25.066-10.283c-.122.14733-.239.26433-.351.351-.113.0867-.273.13-.481.13-.2 0-.382-.0477-.546-.143-.156-.09533-.334-.19933-.533-.312-.2-.12133-.434-.22967-.702-.325-.269-.09533-.603-.143-1.001-.143-.494 0-.923.091-1.287.273-.356.182-.65.442-.884.78s-.408.754-.52 1.248c-.113.4853-.169 1.0357-.169 1.651 0 1.2913.247 2.2837.741 2.977.502.6933 1.191 1.04 2.067 1.04.468 0 .836-.0563 1.105-.169.277-.1213.511-.2513.702-.39.19-.1473.364-.2817.52-.403.164-.1213.368-.182.611-.182.32 0 .563.117.728.351l1.17 1.443c-.416.4767-.854.8667-1.313 1.17-.46.2947-.932.5287-1.417.702-.477.1647-.958.2773-1.443.338-.486.0693-.958.104-1.417.104-.824 0-1.612-.156-2.366-.468-.746-.312-1.404-.7627-1.976-1.352-.564-.598-1.014-1.3303-1.352-2.197-.33-.8667-.494-1.8547-.494-2.964 0-.9707.143-1.8763.429-2.717.294-.84933.723-1.58167 1.287-2.197.572-.624 1.274-1.11367 2.106-1.469.84-.35533 1.811-.533 2.912-.533 1.057 0 1.984.169 2.782.507.797.338 1.516.832 2.158 1.482zm2.4 8.242c0-.312.056-.6023.169-.871.121-.2687.282-.5027.481-.702.208-.1993.451-.3553.728-.468.277-.1213.581-.182.91-.182.321 0 .62.0607.897.182.277.1127.52.2687.728.468s.368.4333.481.702c.121.2687.182.559.182.871s-.061.6067-.182.884c-.113.2687-.273.5027-.481.702s-.451.3553-.728.468-.576.169-.897.169c-.329 0-.633-.0563-.91-.169s-.52-.2687-.728-.468c-.199-.1993-.36-.4333-.481-.702-.113-.2773-.169-.572-.169-.884z" fill="#121111"/></svg>