<svg width="95" height="20" fill="none" xmlns="http://www.w3.org/2000/svg"><path d="M4.954 8.729h.702c.65 0 1.118-.204 1.404-.611l4.264-6.188c.234-.338.498-.568.793-.689.303-.121.672-.182 1.105-.182h3.822l-5.616 7.657a3.752 3.752 0 0 1-1.287 1.144c.33.121.628.29.897.507.277.208.529.49.754.845L17.512 20h-3.926a3.52 3.52 0 0 1-.65-.052 1.654 1.654 0 0 1-.455-.156 1.416 1.416 0 0 1-.338-.247 2.9 2.9 0 0 1-.273-.351l-4.29-6.591a1.247 1.247 0 0 0-.598-.507c-.234-.104-.555-.156-.962-.156H4.954V20H.56V1.059h4.394v7.67zm18.587-2.21V20h-4.03V6.519h4.03zm.468-3.692c0 .32-.066.624-.195.91-.13.277-.308.524-.534.741a2.76 2.76 0 0 1-.793.507 2.468 2.468 0 0 1-.948.182c-.33 0-.638-.06-.924-.182a2.88 2.88 0 0 1-.766-.507 2.603 2.603 0 0 1-.52-.741 2.306 2.306 0 0 1-.183-.91c0-.33.061-.637.182-.923.13-.286.304-.537.52-.754.226-.217.482-.386.768-.507.285-.121.593-.182.922-.182.338 0 .655.06.95.182a2.435 2.435 0 0 1 1.326 1.261c.13.286.195.594.195.923zM27.055 20V1.059h6.968c1.308 0 2.422.121 3.34.364.92.243 1.669.585 2.25 1.027.58.442 1 .98 1.26 1.612.27.633.404 1.339.404 2.119 0 .425-.061.836-.182 1.235-.122.39-.312.758-.572 1.105-.26.347-.594.663-1.001.949-.408.277-.897.52-1.47.728 1.249.303 2.172.797 2.77 1.482.598.676.897 1.547.897 2.613 0 .806-.156 1.556-.468 2.249a5.179 5.179 0 0 1-1.378 1.82c-.598.511-1.34.914-2.223 1.209-.884.286-1.894.429-3.03.429h-7.565zm4.394-8.034v4.719h3.094c.58 0 1.053-.074 1.417-.221.372-.147.663-.338.87-.572.209-.234.352-.498.43-.793.078-.295.117-.594.117-.897a2.87 2.87 0 0 0-.143-.936 1.483 1.483 0 0 0-.468-.702c-.217-.19-.507-.338-.871-.442-.364-.104-.824-.156-1.378-.156h-3.068zm0-2.938h2.288a7.54 7.54 0 0 0 1.313-.104c.39-.07.719-.19.988-.364a1.62 1.62 0 0 0 .624-.715c.147-.303.22-.685.22-1.144 0-.45-.056-.823-.168-1.118a1.607 1.607 0 0 0-.52-.728c-.234-.182-.533-.312-.897-.39a6.02 6.02 0 0 0-1.274-.117h-2.574v4.68zM56.57 1.059v3.38h-7.774v4.42h5.954v3.25h-5.954v4.511h7.774V20H44.377V1.059h12.194zm7.161 11.934V20h-4.394V1.059H65.5c1.37 0 2.535.143 3.497.429.97.277 1.76.667 2.366 1.17a4.431 4.431 0 0 1 1.34 1.781 5.9 5.9 0 0 1 .415 2.236c0 .615-.082 1.196-.247 1.742a5.273 5.273 0 0 1-.74 1.521c-.321.46-.72.871-1.197 1.235a6.238 6.238 0 0 1-1.625.897c.295.147.568.33.82.546.26.217.485.481.675.793L74.834 20h-3.978c-.736 0-1.265-.277-1.586-.832l-3.146-5.499c-.138-.243-.303-.416-.494-.52-.182-.104-.442-.156-.78-.156h-1.118zm0-3.029H65.5c.598 0 1.105-.074 1.521-.221a2.82 2.82 0 0 0 1.04-.637 2.41 2.41 0 0 0 .585-.936c.122-.364.182-.754.182-1.17 0-.832-.273-1.482-.819-1.95-.537-.468-1.373-.702-2.509-.702h-1.768v5.616zM94.517 20h-3.406c-.381 0-.697-.087-.949-.26a1.425 1.425 0 0 1-.507-.689l-1.118-3.302h-7.202l-1.118 3.302c-.086.243-.255.464-.507.663-.251.19-.559.286-.923.286h-3.432l7.332-18.941h4.498L94.517 20zM82.35 12.759h5.174l-1.742-5.187c-.112-.33-.247-.715-.403-1.157a39.79 39.79 0 0 1-.442-1.456 25.891 25.891 0 0 1-.429 1.469c-.147.45-.286.84-.416 1.17l-1.742 5.161z" fill="#121111"/></svg>