<svg fill="none" height="25" viewBox="0 0 278 25" width="278" xmlns="http://www.w3.org/2000/svg"><path d="m20.254 10.523c0 1.3693-.2383 2.6433-.715 3.822-.468 1.1787-1.131 2.2057-1.989 3.081-.858.8667-1.8937 1.547-3.107 2.041-1.2047.494-2.5437.741-4.017.741-1.47333 0-2.81667-.247-4.03-.741s-2.25333-1.1743-3.12-2.041c-.858-.8753-1.52533-1.9023-2.002-3.081-.468-1.1787-.702-2.4527-.702-3.822 0-1.36933.234-2.64333.702-3.822.47667-1.17867 1.144-2.20133 2.002-3.068.86667-.86667 1.90667-1.547 3.12-2.041s2.55667-.741001 4.03-.741001c1.4733 0 2.8123.251331 4.017.754001 1.2133.494 2.249 1.17433 3.107 2.041s1.521 1.88933 1.989 3.068c.4767 1.17867.715 2.44833.715 3.809zm-4.498 0c0-.936-.1213-1.77667-.364-2.522-.2427-.754-.5937-1.391-1.053-1.911-.4507-.52-1.0053-.91867-1.664-1.196s-1.4083-.416-2.249-.416c-.84933 0-1.60767.13867-2.275.416-.65867.27733-1.21767.676-1.677 1.196-.45067.52-.79733 1.157-1.04 1.911-.24267.74533-.364 1.586-.364 2.522 0 .9447.12133 1.794.364 2.548.24267.7453.58933 1.378 1.04 1.898.45933.52 1.01833.9187 1.677 1.196.66733.2687 1.42567.403 2.275.403.8407 0 1.5903-.1343 2.249-.403.6587-.2773 1.2133-.676 1.664-1.196.4593-.52.8103-1.1527 1.053-1.898.2427-.754.364-1.6033.364-2.548zm6.8589 9.477v-13.481h2.392c.1994 0 .364.01733.494.052.1387.03467.2514.091.338.169.0954.06933.1647.16467.208.286.052.12133.0954.26867.13.442l.221 1.261c.494-.76267 1.0487-1.365 1.664-1.807.6154-.442 1.287-.663 2.015-.663.6154 0 1.1094.14733 1.482.442l-.52 2.964c-.0346.182-.104.312-.208.39-.104.0693-.2426.104-.416.104-.1473 0-.3206-.0173-.52-.052-.1993-.0433-.4506-.065-.754-.065-1.0573 0-1.8893.5633-2.496 1.69v8.268zm15.1603-13.481v13.481h-4.03v-13.481zm.468-3.692c0 .32067-.065.624-.195.91-.13.27733-.3077.52433-.533.741-.2254.208-.4897.377-.793.507-.2947.12133-.611.182-.949.182-.3294 0-.637-.06067-.923-.182-.286-.13-.5417-.299-.767-.507-.2167-.21667-.39-.46367-.52-.741-.1214-.286-.182-.58933-.182-.91 0-.32933.0606-.637.182-.923.13-.286.3033-.53733.52-.754.2253-.216667.481-.385667.767-.507001.286-.121333.5936-.181999.923-.181999.338 0 .6543.060666.949.181999.3033.121334.5676.290334.793.507001.2253.21667.403.468.533.754s.195.59367.195.923zm7.804 3.458c.572 0 1.1094.05633 1.612.169.5114.11267.9837.273 1.417.481h4.069v1.469c0 .22533-.065.403-.195.533-.1213.13-.3336.22967-.637.299l-.988.221c.1214.39.182.793.182 1.209 0 .676-.143 1.2827-.429 1.82-.2773.5373-.663.9967-1.157 1.378-.4853.3727-1.0616.663-1.729.871-.6673.1993-1.3823.299-2.145.299-.4246 0-.8233-.026-1.196-.078-.2946.1733-.442.3727-.442.598s.117.39.351.494c.2427.0953.559.1647.949.208.39.0347.8364.0607 1.339.078.5027.0087 1.014.039 1.534.091.52.0433 1.0314.1213 1.534.234.5027.1127.949.2947 1.339.546s.702.5893.936 1.014c.2427.416.364.949.364 1.599 0 .6067-.1473 1.2003-.442 1.781-.2946.5807-.728 1.0963-1.3 1.547s-1.274.8103-2.106 1.079c-.832.2773-1.7853.416-2.86.416-1.0573 0-1.9716-.0997-2.743-.299-.7626-.1993-1.3996-.4637-1.911-.793-.5026-.3207-.8753-.6933-1.118-1.118-.2426-.4247-.364-.8667-.364-1.326 0-.598.182-1.1007.546-1.508.364-.416.8624-.741 1.495-.975-.3033-.1993-.546-.455-.728-.767s-.273-.7063-.273-1.183c0-.1993.0347-.4073.104-.624.0694-.2253.1777-.442.325-.65.1474-.208.3337-.4073.559-.598.2254-.1907.494-.3597.806-.507-.702-.3727-1.2566-.8667-1.664-1.482-.3986-.6153-.598-1.3303-.598-2.145 0-.676.143-1.28267.429-1.82.286-.546.676-1.00533 1.17-1.378.5027-.38133 1.092-.67167 1.768-.871.676-.208 1.4084-.312 2.197-.312zm2.99 14.209c0-.2167-.0693-.39-.208-.52-.13-.13-.312-.234-.546-.312-.2253-.078-.494-.1343-.806-.169-.3033-.0347-.6326-.0607-.988-.078-.3553-.0173-.7236-.0303-1.105-.039-.3813-.0173-.7583-.0477-1.131-.091-.2513.1733-.4593.3683-.624.585-.156.208-.234.4463-.234.715 0 .1907.039.364.117.52.0867.156.234.2903.442.403s.4854.1993.832.26c.3554.0693.8017.104 1.339.104.5807 0 1.0574-.0347 1.43-.104.3727-.0693.6674-.1647.884-.286.2254-.1213.3814-.2687.468-.442.0867-.1647.13-.3467.13-.546zm-2.99-7.943c.6674 0 1.1484-.1647 1.443-.494.3034-.338.455-.7713.455-1.3 0-.546-.1516-.975-.455-1.287-.2946-.312-.7756-.468-1.443-.468-.6673 0-1.1526.156-1.456.468-.2946.312-.442.741-.442 1.287 0 .26.0347.4983.104.715.078.2167.195.4073.351.572.156.156.351.2817.585.377.2427.0867.5287.13.858.13zm13.2714-6.032v13.481h-4.03v-13.481zm.468-3.692c0 .32067-.065.624-.195.91-.13.27733-.3077.52433-.533.741-.2253.208-.4897.377-.793.507-.2947.12133-.611.182-.949.182-.3293 0-.637-.06067-.923-.182-.286-.13-.5417-.299-.767-.507-.2167-.21667-.39-.46367-.52-.741-.1213-.286-.182-.58933-.182-.91 0-.32933.0607-.637.182-.923.13-.286.3033-.53733.52-.754.2253-.216667.481-.385667.767-.507001.286-.121333.5937-.181999.923-.181999.338 0 .6543.060666.949.181999.3033.121334.5677.290334.793.507001.2253.21667.403.468.533.754s.195.59367.195.923zm3.0461 17.173v-13.481h2.496c.2513 0 .4593.05633.624.169.1733.11267.2946.28167.364.507l.234.78c.26-.24267.5286-.468.806-.676.2773-.208.572-.38133.884-.52.3206-.14733.663-.26 1.027-.338.3726-.08667.7756-.13 1.209-.13.7366 0 1.3866.13 1.95.39.572.25133 1.053.60667 1.443 1.066.39.45067.6846.99233.884 1.625.1993.624.299 1.3043.299 2.041v8.567h-4.03v-8.567c0-.6587-.1517-1.17-.455-1.534-.3034-.37267-.7497-.559-1.339-.559-.442 0-.858.09533-1.248.286s-.7627.4463-1.118.767v9.607zm24.65 0c-.3813 0-.6717-.052-.871-.156-.1907-.104-.351-.3207-.481-.65l-.286-.741c-.338.286-.663.5373-.975.754s-.637.403-.975.559c-.3293.1473-.6847.2557-1.066.325-.3727.078-.7887.117-1.248.117-.6153 0-1.1743-.078-1.677-.234-.5027-.1647-.9317-.403-1.287-.715-.3467-.312-.6153-.6977-.806-1.157-.1907-.468-.286-1.0053-.286-1.612 0-.4767.1213-.9663.364-1.469s.663-.9577 1.261-1.365c.598-.416 1.404-.7627 2.418-1.04s2.2923-.4333 3.835-.468v-.572c0-.7887-.1647-1.3563-.494-1.703-.3207-.35533-.78-.533-1.378-.533-.4767 0-.8667.052-1.17.156s-.5763.221-.819.351c-.234.13-.4637.247-.689.351s-.494.156-.806.156c-.2773 0-.5157-.065-.715-.195-.1907-.1387-.3423-.30767-.455-.507l-.728-1.261c.8147-.71933 1.716-1.25233 2.704-1.599.9967-.35533 2.0627-.533 3.198-.533.8147 0 1.547.13433 2.197.403.6587.26 1.2133.62833 1.664 1.105.4593.468.8103 1.027 1.053 1.677s.364 1.3607.364 2.132v8.424zm-4.628-2.457c.52 0 .975-.091 1.365-.273s.7843-.4767 1.183-.884v-1.872c-.806.0347-1.469.104-1.989.208s-.9317.234-1.235.39-.5157.3337-.637.533c-.1127.1993-.169.416-.169.65 0 .4593.1257.7843.377.975.2513.182.6197.273 1.105.273zm13.7556-17.004001v19.461001h-4.03v-19.461001zm8.8017 19.461001v-18.941h6.968c1.308 0 2.422.12133 3.341.364.918.24267 1.668.585 2.249 1.027.58.442 1.001.97933 1.261 1.612.268.63267.403 1.339.403 2.119 0 .42467-.061.83633-.182 1.235-.122.39-.312.75833-.572 1.105s-.594.663-1.001.949c-.408.27733-.897.52-1.469.728 1.248.3033 2.171.7973 2.769 1.482.598.676.897 1.547.897 2.613 0 .806-.156 1.5557-.468 2.249s-.772 1.3-1.378 1.82c-.598.5113-1.339.9143-2.223 1.209-.884.286-1.894.429-3.029.429zm4.394-8.034v4.719h3.094c.58 0 1.053-.0737 1.417-.221.372-.1473.663-.338.871-.572s.351-.4983.429-.793.117-.5937.117-.897c0-.3467-.048-.6587-.143-.936-.087-.2773-.243-.5113-.468-.702-.217-.1907-.507-.338-.871-.442s-.824-.156-1.378-.156zm0-2.938h2.288c.485 0 .923-.03467 1.313-.104s.719-.19067.988-.364c.277-.17333.485-.41167.624-.715.147-.30333.221-.68467.221-1.144 0-.45067-.057-.82333-.169-1.118-.113-.30333-.286-.546-.52-.728s-.533-.312-.897-.39c-.356-.078-.78-.117-1.274-.117h-2.574zm22.236 10.972c-.381 0-.671-.052-.871-.156-.19-.104-.351-.3207-.481-.65l-.286-.741c-.338.286-.663.5373-.975.754s-.637.403-.975.559c-.329.1473-.684.2557-1.066.325-.372.078-.788.117-1.248.117-.615 0-1.174-.078-1.677-.234-.502-.1647-.931-.403-1.287-.715-.346-.312-.615-.6977-.806-1.157-.19-.468-.286-1.0053-.286-1.612 0-.4767.122-.9663.364-1.469.243-.5027.663-.9577 1.261-1.365.598-.416 1.404-.7627 2.418-1.04s2.293-.4333 3.835-.468v-.572c0-.7887-.164-1.3563-.494-1.703-.32-.35533-.78-.533-1.378-.533-.476 0-.866.052-1.17.156-.303.104-.576.221-.819.351-.234.13-.463.247-.689.351-.225.104-.494.156-.806.156-.277 0-.515-.065-.715-.195-.19-.1387-.342-.30767-.455-.507l-.728-1.261c.815-.71933 1.716-1.25233 2.704-1.599.997-.35533 2.063-.533 3.198-.533.815 0 1.547.13433 2.197.403.659.26 1.214.62833 1.664 1.105.46.468.811 1.027 1.053 1.677.243.65.364 1.3607.364 2.132v8.424zm-4.628-2.457c.52 0 .975-.091 1.365-.273s.785-.4767 1.183-.884v-1.872c-.806.0347-1.469.104-1.989.208s-.931.234-1.235.39c-.303.156-.515.3337-.637.533-.112.1993-.169.416-.169.65 0 .4593.126.7843.377.975.252.182.62.273 1.105.273zm14.354-11.258c.572 0 1.109.05633 1.612.169.511.11267.984.273 1.417.481h4.069v1.469c0 .22533-.065.403-.195.533-.121.13-.334.22967-.637.299l-.988.221c.121.39.182.793.182 1.209 0 .676-.143 1.2827-.429 1.82-.277.5373-.663.9967-1.157 1.378-.485.3727-1.062.663-1.729.871-.667.1993-1.382.299-2.145.299-.425 0-.823-.026-1.196-.078-.295.1733-.442.3727-.442.598s.117.39.351.494c.243.0953.559.1647.949.208.39.0347.836.0607 1.339.078.503.0087 1.014.039 1.534.091.52.0433 1.031.1213 1.534.234s.949.2947 1.339.546.702.5893.936 1.014c.243.416.364.949.364 1.599 0 .6067-.147 1.2003-.442 1.781s-.728 1.0963-1.3 1.547-1.274.8103-2.106 1.079c-.832.2773-1.785.416-2.86.416-1.057 0-1.972-.0997-2.743-.299-.763-.1993-1.4-.4637-1.911-.793-.503-.3207-.875-.6933-1.118-1.118s-.364-.8667-.364-1.326c0-.598.182-1.1007.546-1.508.364-.416.862-.741 1.495-.975-.303-.1993-.546-.455-.728-.767s-.273-.7063-.273-1.183c0-.1993.035-.4073.104-.624.069-.2253.178-.442.325-.65s.334-.4073.559-.598.494-.3597.806-.507c-.702-.3727-1.257-.8667-1.664-1.482-.399-.6153-.598-1.3303-.598-2.145 0-.676.143-1.28267.429-1.82.286-.546.676-1.00533 1.17-1.378.503-.38133 1.092-.67167 1.768-.871.676-.208 1.408-.312 2.197-.312zm2.99 14.209c0-.2167-.069-.39-.208-.52-.13-.13-.312-.234-.546-.312-.225-.078-.494-.1343-.806-.169-.303-.0347-.633-.0607-.988-.078s-.724-.0303-1.105-.039c-.381-.0173-.758-.0477-1.131-.091-.251.1733-.459.3683-.624.585-.156.208-.234.4463-.234.715 0 .1907.039.364.117.52.087.156.234.2903.442.403s.485.1993.832.26c.355.0693.802.104 1.339.104.581 0 1.057-.0347 1.43-.104s.667-.1647.884-.286c.225-.1213.381-.2687.468-.442.087-.1647.13-.3467.13-.546zm-2.99-7.943c.667 0 1.148-.1647 1.443-.494.303-.338.455-.7713.455-1.3 0-.546-.152-.975-.455-1.287-.295-.312-.776-.468-1.443-.468s-1.153.156-1.456.468c-.295.312-.442.741-.442 1.287 0 .26.035.4983.104.715.078.2167.195.4073.351.572.156.156.351.2817.585.377.243.0867.529.13.858.13zm27.126 2.548c.104 0 .208.0217.312.065.104.0347.203.0997.299.195l1.742 1.833c-.763.9967-1.721 1.7507-2.873 2.262-1.144.5027-2.501.754-4.069.754-1.439 0-2.73-.2427-3.874-.728-1.136-.494-2.102-1.17-2.899-2.028-.789-.8667-1.396-1.8893-1.82-3.068-.425-1.1873-.637-2.4743-.637-3.861 0-1.41267.242-2.70833.728-3.887.485-1.18733 1.161-2.21 2.028-3.068.875-.858 1.919-1.52533 3.133-2.002 1.213-.47667 2.552-.715001 4.017-.715001.71 0 1.378.065 2.002.195001.632.12133 1.222.29467 1.768.52.546.21667 1.048.481 1.508.793.459.30333.866.64133 1.222 1.014l-1.482 1.989c-.096.12133-.208.234-.338.338-.13.09533-.312.143-.546.143-.156 0-.304-.03467-.442-.104-.139-.06933-.286-.15167-.442-.247-.156-.104-.33-.21233-.52-.325-.182-.12133-.403-.22967-.663-.325-.252-.104-.551-.19067-.897-.26-.338-.06933-.737-.104-1.196-.104-.798 0-1.526.143-2.184.429-.659.27733-1.227.68033-1.703 1.209-.468.52-.837 1.15267-1.105 1.898-.26.74533-.39 1.58167-.39 2.509 0 .9707.13 1.833.39 2.587.268.754.628 1.391 1.079 1.911.459.5113.992.9013 1.599 1.17.606.2687 1.256.403 1.95.403.398 0 .762-.0173 1.092-.052.329-.0433.632-.1127.91-.208.286-.0953.554-.2167.806-.364.26-.156.52-.3467.78-.572.104-.0867.216-.156.338-.208.121-.0607.247-.091.377-.091zm10.626-8.788c1.023 0 1.955.16033 2.795.481.841.32067 1.56.78 2.158 1.378.607.598 1.075 1.326 1.404 2.184.338.8493.507 1.807.507 2.873 0 1.0747-.169 2.0453-.507 2.912-.329.858-.797 1.5903-1.404 2.197-.598.598-1.317 1.0617-2.158 1.391-.84.3207-1.772.481-2.795.481-1.031 0-1.971-.1603-2.821-.481-.84-.3293-1.568-.793-2.184-1.391-.606-.6067-1.079-1.339-1.417-2.197-.329-.8667-.494-1.8373-.494-2.912 0-1.066.165-2.0237.494-2.873.338-.858.811-1.586 1.417-2.184.616-.598 1.344-1.05733 2.184-1.378.85-.32067 1.79-.481 2.821-.481zm0 10.907c.928 0 1.608-.325 2.041-.975.442-.6587.663-1.6553.663-2.99s-.221-2.327-.663-2.977c-.433-.65-1.113-.975-2.041-.975-.953 0-1.651.325-2.093.975s-.663 1.6423-.663 2.977.221 2.3313.663 2.99c.442.65 1.14.975 2.093.975zm13.496-16.679001v19.461001h-4.03v-19.461001zm7.675 0v19.461001h-4.03v-19.461001zm9.286 5.772001c.892 0 1.707.13867 2.444.416.745.27733 1.382.68033 1.911 1.209.537.52867.953 1.17867 1.248 1.95.303.7627.455 1.6293.455 2.6 0 .3033-.013.5503-.039.741s-.074.3423-.143.455c-.07.1127-.165.1907-.286.234-.113.0433-.26.065-.442.065h-7.774c.13 1.1267.472 1.9457 1.027 2.457.554.5027 1.269.754 2.145.754.468 0 .871-.0563 1.209-.169s.637-.2383.897-.377c.268-.1387.511-.2643.728-.377.225-.1127.459-.169.702-.169.32 0 .563.117.728.351l1.17 1.443c-.416.4767-.867.8667-1.352 1.17-.477.2947-.971.5287-1.482.702-.503.1647-1.01.2773-1.521.338-.503.0693-.984.104-1.443.104-.945 0-1.833-.1517-2.665-.455-.824-.312-1.547-.7713-2.171-1.378-.616-.6067-1.105-1.3607-1.469-2.262-.356-.9013-.533-1.95-.533-3.146 0-.9013.151-1.755.455-2.561.312-.806.754-1.51233 1.326-2.119.58-.60667 1.278-1.08767 2.093-1.443.823-.35533 1.75-.533 2.782-.533zm.078 2.782c-.772 0-1.374.221-1.807.663-.434.4333-.72 1.0617-.858 1.885h5.031c0-.3207-.044-.6327-.13-.936-.078-.3033-.213-.572-.403-.806-.182-.24267-.425-.43767-.728-.585-.304-.14733-.672-.221-1.105-.221zm18.276.624c-.121.14733-.238.26433-.351.351-.112.0867-.273.13-.481.13-.199 0-.381-.0477-.546-.143-.156-.09533-.333-.19933-.533-.312-.199-.12133-.433-.22967-.702-.325-.268-.09533-.602-.143-1.001-.143-.494 0-.923.091-1.287.273-.355.182-.65.442-.884.78s-.407.754-.52 1.248c-.112.4853-.169 1.0357-.169 1.651 0 1.2913.247 2.2837.741 2.977.503.6933 1.192 1.04 2.067 1.04.468 0 .837-.0563 1.105-.169.278-.1213.512-.2513.702-.39.191-.1473.364-.2817.52-.403.165-.1213.369-.182.611-.182.321 0 .564.117.728.351l1.17 1.443c-.416.4767-.853.8667-1.313 1.17-.459.2947-.931.5287-1.417.702-.476.1647-.957.2773-1.443.338-.485.0693-.957.104-1.417.104-.823 0-1.612-.156-2.366-.468-.745-.312-1.404-.7627-1.976-1.352-.563-.598-1.014-1.3303-1.352-2.197-.329-.8667-.494-1.8547-.494-2.964 0-.9707.143-1.8763.429-2.717.295-.84933.724-1.58167 1.287-2.197.572-.624 1.274-1.11367 2.106-1.469.841-.35533 1.812-.533 2.912-.533 1.058 0 1.985.169 2.782.507.798.338 1.517.832 2.158 1.482zm7.913 10.491c-.642 0-1.209-.091-1.703-.273-.486-.1907-.897-.455-1.235-.793-.33-.3467-.581-.7627-.754-1.248-.174-.4853-.26-1.027-.26-1.625v-6.968h-1.144c-.208 0-.386-.065-.533-.195-.148-.13867-.221-.338-.221-.598v-1.573l2.145-.416.793-3.289c.104-.416.398-.624.884-.624h2.106v3.939h3.276v2.756h-3.276v6.695c0 .312.073.572.221.78.156.1993.377.299.663.299.147 0 .268-.013.364-.039.104-.0347.19-.0693.26-.104.078-.0433.147-.078.208-.104.069-.0347.147-.052.234-.052.121 0 .216.0303.286.091.078.052.156.1387.234.26l1.222 1.911c-.52.39-1.105.6847-1.755.884-.65.1907-1.322.286-2.015.286zm10.098-13.689v13.481h-4.03v-13.481zm.468-3.692c0 .32067-.065.624-.195.91-.13.27733-.308.52433-.533.741-.225.208-.49.377-.793.507-.295.12133-.611.182-.949.182-.329 0-.637-.06067-.923-.182-.286-.13-.542-.299-.767-.507-.217-.21667-.39-.46367-.52-.741-.121-.286-.182-.58933-.182-.91 0-.32933.061-.637.182-.923.13-.286.303-.53733.52-.754.225-.216667.481-.385667.767-.507001.286-.121333.594-.181999.923-.181999.338 0 .654.060666.949.181999.303.121334.568.290334.793.507001.225.21667.403.468.533.754s.195.59367.195.923zm9.052 3.484c1.023 0 1.954.16033 2.795.481s1.56.78 2.158 1.378c.607.598 1.075 1.326 1.404 2.184.338.8493.507 1.807.507 2.873 0 1.0747-.169 2.0453-.507 2.912-.329.858-.797 1.5903-1.404 2.197-.598.598-1.317 1.0617-2.158 1.391-.841.3207-1.772.481-2.795.481-1.031 0-1.972-.1603-2.821-.481-.841-.3293-1.569-.793-2.184-1.391-.607-.6067-1.079-1.339-1.417-2.197-.329-.8667-.494-1.8373-.494-2.912 0-1.066.165-2.0237.494-2.873.338-.858.81-1.586 1.417-2.184.615-.598 1.343-1.05733 2.184-1.378.849-.32067 1.79-.481 2.821-.481zm0 10.907c.927 0 1.608-.325 2.041-.975.442-.6587.663-1.6553.663-2.99s-.221-2.327-.663-2.977c-.433-.65-1.114-.975-2.041-.975-.953 0-1.651.325-2.093.975s-.663 1.6423-.663 2.977.221 2.3313.663 2.99c.442.65 1.14.975 2.093.975zm9.336 2.782v-13.481h2.496c.251 0 .459.05633.624.169.173.11267.295.28167.364.507l.234.78c.26-.24267.529-.468.806-.676s.572-.38133.884-.52c.321-.14733.663-.26 1.027-.338.373-.08667.776-.13 1.209-.13.737 0 1.387.13 1.95.39.572.25133 1.053.60667 1.443 1.066.39.45067.685.99233.884 1.625.199.624.299 1.3043.299 2.041v8.567h-4.03v-8.567c0-.6587-.152-1.17-.455-1.534-.303-.37267-.75-.559-1.339-.559-.442 0-.858.09533-1.248.286s-.763.4463-1.118.767v9.607z" fill="#121111"/></svg>