<svg width="159" height="21" fill="none" xmlns="http://www.w3.org/2000/svg"><path d="M11.998 12.798V20H7.604v-7.202L.74 1.059h3.874c.381 0 .685.091.91.273.225.173.407.399.546.676L8.748 7.52l.598 1.222c.182.373.342.741.481 1.105.13-.373.286-.745.468-1.118.182-.373.377-.776.585-1.209l2.652-5.512a1.78 1.78 0 0 1 .208-.338c.095-.113.2-.212.312-.299.121-.095.256-.169.403-.221a1.4 1.4 0 0 1 .507-.091h3.9l-6.864 11.739zM24.34 6.311c1.022 0 1.954.16 2.795.481.84.32 1.56.78 2.158 1.378a6.08 6.08 0 0 1 1.404 2.184c.338.85.507 1.807.507 2.873 0 1.075-.17 2.045-.507 2.912a6.21 6.21 0 0 1-1.404 2.197 6.215 6.215 0 0 1-2.158 1.391c-.841.32-1.773.481-2.795.481-1.032 0-1.972-.16-2.821-.481a6.491 6.491 0 0 1-2.184-1.391 6.359 6.359 0 0 1-1.417-2.197c-.33-.867-.494-1.837-.494-2.912 0-1.066.164-2.024.494-2.873a6.223 6.223 0 0 1 1.417-2.184 6.33 6.33 0 0 1 2.184-1.378c.849-.32 1.79-.481 2.82-.481zm0 10.907c.927 0 1.607-.325 2.04-.975.443-.659.664-1.655.664-2.99 0-1.335-.221-2.327-.663-2.977-.434-.65-1.114-.975-2.041-.975-.954 0-1.651.325-2.093.975-.442.65-.663 1.642-.663 2.977s.22 2.331.663 2.99c.442.65 1.14.975 2.093.975zM37.706.539v10.907h.598c.251 0 .442-.035.572-.104.138-.07.268-.195.39-.377l2.548-3.796a1.4 1.4 0 0 1 .52-.494c.208-.104.468-.156.78-.156h3.692l-3.484 4.797a3.617 3.617 0 0 1-.546.598c-.191.173-.399.33-.624.468.39.295.728.685 1.014 1.17L46.962 20h-3.64c-.304 0-.568-.048-.793-.143a1.216 1.216 0 0 1-.533-.533l-2.548-4.771c-.122-.217-.247-.355-.377-.416-.13-.07-.325-.104-.585-.104h-.78V20h-4.03V.539h4.03zm16.43 5.772c1.022 0 1.953.16 2.794.481.84.32 1.56.78 2.158 1.378a6.08 6.08 0 0 1 1.404 2.184c.338.85.507 1.807.507 2.873 0 1.075-.169 2.045-.507 2.912a6.21 6.21 0 0 1-1.404 2.197 6.215 6.215 0 0 1-2.158 1.391c-.84.32-1.772.481-2.795.481-1.031 0-1.972-.16-2.82-.481a6.491 6.491 0 0 1-2.185-1.391 6.359 6.359 0 0 1-1.417-2.197c-.33-.867-.494-1.837-.494-2.912 0-1.066.165-2.024.494-2.873A6.223 6.223 0 0 1 49.13 8.17a6.33 6.33 0 0 1 2.184-1.378c.85-.32 1.79-.481 2.821-.481zm0 10.907c.926 0 1.607-.325 2.04-.975.442-.659.663-1.655.663-2.99 0-1.335-.22-2.327-.663-2.977-.433-.65-1.114-.975-2.04-.975-.954 0-1.652.325-2.094.975-.442.65-.663 1.642-.663 2.977s.221 2.331.663 2.99c.442.65 1.14.975 2.093.975zM71.712 9.47a1.014 1.014 0 0 1-.338.351.834.834 0 0 1-.442.104 1.5 1.5 0 0 1-.572-.117 26.02 26.02 0 0 0-.624-.273 5.638 5.638 0 0 0-.74-.26 3.18 3.18 0 0 0-.95-.13c-.511 0-.906.1-1.183.299-.269.19-.403.46-.403.806 0 .251.087.46.26.624.182.165.42.312.715.442.295.121.628.238 1.001.351.373.113.754.238 1.144.377.39.139.771.303 1.144.494.373.182.706.412 1.001.689.295.269.529.598.702.988.182.39.273.858.273 1.404a4.61 4.61 0 0 1-.364 1.846 3.892 3.892 0 0 1-1.092 1.456c-.477.407-1.07.724-1.78.949-.703.225-1.513.338-2.432.338a7.38 7.38 0 0 1-1.378-.13 9.806 9.806 0 0 1-1.339-.351 7.738 7.738 0 0 1-1.183-.52 5.396 5.396 0 0 1-.936-.663l.936-1.482a1.28 1.28 0 0 1 .403-.403c.156-.104.36-.156.611-.156.234 0 .442.052.624.156l.611.338c.217.121.468.234.754.338.295.104.663.156 1.105.156.312 0 .576-.03.793-.091.217-.07.39-.16.52-.273.13-.113.225-.238.286-.377a1.06 1.06 0 0 0 .091-.429.876.876 0 0 0-.273-.663 2.287 2.287 0 0 0-.715-.442 7.246 7.246 0 0 0-1.014-.351 25.083 25.083 0 0 1-1.144-.377c-.39-.139-.776-.303-1.157-.494a4.224 4.224 0 0 1-1-.741 3.523 3.523 0 0 1-.716-1.105c-.182-.433-.273-.958-.273-1.573 0-.572.108-1.114.325-1.625a3.85 3.85 0 0 1 1.001-1.365c.442-.39.997-.698 1.664-.923.667-.234 1.447-.351 2.34-.351.485 0 .953.043 1.404.13.46.087.888.208 1.287.364.399.156.763.342 1.092.559.33.208.62.438.871.689l-.91 1.417zm7.24-2.951v8.554c0 .667.15 1.183.454 1.547.304.364.75.546 1.34.546a2.83 2.83 0 0 0 1.234-.273 4.58 4.58 0 0 0 1.131-.767V6.519h4.03V20h-2.496c-.502 0-.832-.225-.988-.676l-.247-.78c-.26.251-.528.481-.806.689-.277.2-.576.373-.897.52-.312.139-.65.247-1.014.325a5.16 5.16 0 0 1-1.196.13c-.736 0-1.39-.126-1.963-.377a4.108 4.108 0 0 1-1.43-1.079 4.677 4.677 0 0 1-.884-1.625 6.72 6.72 0 0 1-.299-2.054V6.519h4.03zM94.553.539v10.907h.598c.252 0 .442-.035.572-.104.139-.07.269-.195.39-.377l2.548-3.796c.148-.225.321-.39.52-.494.208-.104.468-.156.78-.156h3.692l-3.484 4.797a3.585 3.585 0 0 1-.546.598c-.19.173-.398.33-.624.468.39.295.728.685 1.014 1.17L103.81 20h-3.64c-.303 0-.567-.048-.793-.143a1.216 1.216 0 0 1-.533-.533l-2.548-4.771c-.121-.217-.247-.355-.377-.416-.13-.07-.325-.104-.585-.104h-.78V20h-4.03V.539h4.03zM115.073 20c-.382 0-.672-.052-.871-.156-.191-.104-.351-.32-.481-.65l-.286-.741a13 13 0 0 1-.975.754 6.431 6.431 0 0 1-.975.559c-.33.147-.685.256-1.066.325a6.115 6.115 0 0 1-1.248.117 5.636 5.636 0 0 1-1.677-.234 3.636 3.636 0 0 1-1.287-.715 3.15 3.15 0 0 1-.806-1.157c-.191-.468-.286-1.005-.286-1.612 0-.477.121-.966.364-1.469.242-.503.663-.958 1.261-1.365.598-.416 1.404-.763 2.418-1.04 1.014-.277 2.292-.433 3.835-.468v-.572c0-.789-.165-1.356-.494-1.703-.321-.355-.78-.533-1.378-.533-.477 0-.867.052-1.17.156a5.478 5.478 0 0 0-.819.351c-.234.13-.464.247-.689.351a1.912 1.912 0 0 1-.806.156c-.278 0-.516-.065-.715-.195a1.576 1.576 0 0 1-.455-.507l-.728-1.261a8.112 8.112 0 0 1 2.704-1.599 9.448 9.448 0 0 1 3.198-.533c.814 0 1.547.134 2.197.403.658.26 1.213.628 1.664 1.105.459.468.81 1.027 1.053 1.677.242.65.364 1.36.364 2.132V20h-1.846zm-4.628-2.457c.52 0 .975-.091 1.365-.273.39-.182.784-.477 1.183-.884v-1.872c-.806.035-1.469.104-1.989.208s-.932.234-1.235.39c-.304.156-.516.334-.637.533-.113.2-.169.416-.169.65 0 .46.125.784.377.975.251.182.619.273 1.105.273zm22.943-4.407c0 1.057-.135 2.02-.403 2.886-.26.867-.659 1.612-1.196 2.236-.529.615-1.196 1.096-2.002 1.443-.806.338-1.755.507-2.847.507a12.604 12.604 0 0 1-2.964-.338l.234-2.561a.78.78 0 0 1 .26-.546c.164-.139.39-.208.676-.208.147 0 .329.026.546.078.216.043.476.065.78.065a3.25 3.25 0 0 0 1.105-.169c.32-.121.585-.316.793-.585.208-.277.364-.637.468-1.079.104-.442.156-.988.156-1.638V1.059h4.394v12.077zm16.099 1.963c.104 0 .208.022.312.065.104.035.203.1.299.195l1.742 1.833a7.282 7.282 0 0 1-2.873 2.262c-1.144.503-2.501.754-4.069.754-1.439 0-2.73-.243-3.874-.728a8.56 8.56 0 0 1-2.899-2.028c-.789-.867-1.396-1.89-1.82-3.068-.425-1.187-.637-2.474-.637-3.861 0-1.413.242-2.708.728-3.887a9.104 9.104 0 0 1 2.028-3.068c.875-.858 1.919-1.525 3.133-2.002 1.213-.477 2.552-.715 4.017-.715.71 0 1.378.065 2.002.195a9.146 9.146 0 0 1 1.768.52 7.8 7.8 0 0 1 1.508.793c.459.303.866.641 1.222 1.014l-1.482 1.989a2.104 2.104 0 0 1-.338.338c-.13.095-.312.143-.546.143a.973.973 0 0 1-.442-.104 5.926 5.926 0 0 1-.442-.247c-.156-.104-.33-.212-.52-.325a3.15 3.15 0 0 0-.663-.325 4.88 4.88 0 0 0-.897-.26 6.023 6.023 0 0 0-1.196-.104c-.798 0-1.526.143-2.184.429a4.735 4.735 0 0 0-1.703 1.209c-.468.52-.837 1.153-1.105 1.898-.26.745-.39 1.582-.39 2.509 0 .97.13 1.833.39 2.587.268.754.628 1.391 1.079 1.911a4.674 4.674 0 0 0 3.549 1.573c.398 0 .762-.017 1.092-.052.329-.043.632-.113.91-.208.286-.095.554-.217.806-.364.26-.156.52-.347.78-.572.104-.087.216-.156.338-.208a.832.832 0 0 1 .377-.091zM158.918 20h-4.42V1.059h4.42V20z" fill="#121111"/></svg>