<svg fill="none" height="19" viewBox="0 0 72 19" width="72" xmlns="http://www.w3.org/2000/svg"><path d="m0 .0589998h3.536c.38133 0 .69333.0866662.936.2600002.24267.173333.416.402999.52.689l3.666 10.14c.16467.442.32933.923.494 1.443.17333.52.33367 1.066.481 1.638.12133-.572.26-1.118.416-1.638.1647-.52.325-1.001.481-1.443l3.64-10.14c.0867-.242667.2557-.459334.507-.65.2513-.199334.559-.2990002.923-.2990002h3.562l-7.592 18.9410002h-3.978zm36.0281 18.9410002h-3.406c-.3814 0-.6977-.0867-.949-.26-.2427-.182-.4117-.4117-.507-.689l-1.118-3.302h-7.202l-1.118 3.302c-.0867.2427-.2557.4637-.507.663-.2514.1907-.559.286-.923.286h-3.432l7.332-18.9410002h4.498zm-12.168-7.241h5.174l-1.742-5.187c-.1127-.32933-.247-.715-.403-1.157-.1474-.45067-.2947-.936-.442-1.456-.1387.52867-.2817 1.01833-.429 1.469-.1474.45067-.286.84067-.416 1.17zm18.3639.234v7.007h-4.394v-18.9410002h6.162c1.3693 0 2.535.1430002 3.497.4290002.9707.277333 1.7593.66733 2.366 1.17.6153.50267 1.0617 1.09633 1.339 1.781s.416 1.43.416 2.236c0 .61533-.0823 1.196-.247 1.742s-.4117 1.053-.741 1.521c-.3207.45933-.7193.871-1.196 1.235-.468.364-1.0097.663-1.625.897.2947.1473.5677.3293.819.546.26.2167.4853.481.676.793l4.03 6.591h-3.978c-.7367 0-1.2653-.2773-1.586-.832l-3.146-5.499c-.1387-.2427-.3033-.416-.494-.52-.182-.104-.442-.156-.78-.156zm0-3.029h1.768c.598 0 1.105-.07367 1.521-.221.4247-.156.7713-.36833 1.04-.637s.4637-.58067.585-.936c.1213-.364.182-.754.182-1.17 0-.832-.273-1.482-.819-1.95-.5373-.468-1.3737-.702-2.509-.702h-1.768zm22.595 2.834v7.202h-4.394v-7.202l-6.864-11.7390002h3.874c.3813 0 .6847.0909992.91.2729992.2253.173334.4073.398667.546.676001l2.678 5.512c.2167.442.416.84933.598 1.222s.3423.741.481 1.105c.13-.37267.286-.74533.468-1.118s.377-.77567.585-1.209l2.652-5.512c.052-.112668.1213-.225334.208-.338001.0953-.112667.1993-.212334.312-.299.1213-.095334.2557-.169.403-.221.156-.060666.325-.0909992.507-.0909992h3.9z" fill="#121111"/></svg>