<svg fill="none" height="25" viewBox="0 0 113 25" width="113" xmlns="http://www.w3.org/2000/svg"><path d="m.92 24v-23.312h8.576c1.6107 0 2.9813.149333 4.112.448 1.1307.29867 2.0533.72 2.768 1.264s1.232 1.20533 1.552 1.984c.3307.77867.496 1.648.496 2.608 0 .52267-.0747 1.02933-.224 1.52-.1493.48-.384.93333-.704 1.36-.32.4267-.7307.816-1.232 1.168-.5013.3413-1.104.64-1.808.896 1.536.3733 2.672.9813 3.408 1.824.736.832 1.104 1.904 1.104 3.216 0 .992-.192 1.9147-.576 2.768s-.9493 1.6-1.696 2.24c-.736.6293-1.648 1.1253-2.736 1.488-1.088.352-2.3307.528-3.728.528zm5.408-9.888v5.808h3.808c.7147 0 1.296-.0907 1.744-.272.4587-.1813.816-.416 1.072-.704s.432-.6133.528-.976.144-.7307.144-1.104c0-.4267-.0587-.8107-.176-1.152-.1067-.3413-.2987-.6293-.576-.864-.2667-.2347-.624-.416-1.072-.544s-1.0133-.192-1.696-.192zm0-3.616h2.816c.59733 0 1.136-.0427 1.616-.128s.8853-.2347 1.216-.448c.3413-.21333.5973-.50667.768-.88.1813-.37333.272-.84267.272-1.408 0-.55467-.0693-1.01333-.208-1.376-.1387-.37333-.352-.672-.64-.896s-.656-.384-1.104-.48c-.4373-.096-.96-.144-1.568-.144h-3.168zm15.592 1.776h8.64v4h-8.64zm17.8917 3.936v7.792h-5.408v-23.312h8.224c1.6427 0 3.0507.197333 4.2241.592 1.184.384 2.1546.91733 2.912 1.6.768.68267 1.3333 1.488 1.696 2.416.3626.928.5439 1.93067.5439 3.008 0 1.16267-.1866 2.2293-.5599 3.2-.3734.9707-.944 1.8027-1.712 2.496s-1.744 1.2373-2.928 1.632c-1.1734.384-2.5654.576-4.1761.576zm0-4.08h2.816c1.408 0 2.4214-.336 3.0401-1.008.6186-.672.9279-1.61067.9279-2.816 0-.53333-.08-1.01867-.2399-1.456-.16-.43733-.4054-.81067-.736-1.12-.3201-.32-.7307-.56533-1.2321-.736-.4906-.17067-1.0773-.256-1.76-.256h-2.816zm15.3183 11.872v-16.592h2.944c.2453 0 .448.02133.608.064.1707.04267.3093.112.416.208.1173.08533.2027.20267.256.352.064.14933.1173.33067.16.544l.272 1.552c.608-.93867 1.2907-1.68 2.048-2.224s1.584-.816 2.48-.816c.7573 0 1.3653.18133 1.824.544l-.64 3.648c-.0427.224-.128.384-.256.48-.128.0853-.2987.128-.512.128-.1813 0-.3947-.0213-.64-.064-.2453-.0533-.5547-.08-.928-.08-1.3013 0-2.3253.6933-3.072 2.08v10.176zm20.9307-16.848c1.2587 0 2.4054.19733 3.44.592 1.0347.39467 1.92.96 2.656 1.696.7467.736 1.3227 1.632 1.7281 2.688.4159 1.0453.6239 2.224.6239 3.536 0 1.3227-.208 2.5173-.6239 3.584-.4054 1.056-.9814 1.9573-1.7281 2.704-.736.736-1.6213 1.3067-2.656 1.712-1.0346.3947-2.1813.592-3.44.592-1.2693 0-2.4266-.1973-3.472-.592-1.0346-.4053-1.9306-.976-2.688-1.712-.7466-.7467-1.328-1.648-1.744-2.704-.4053-1.0667-.608-2.2613-.608-3.584 0-1.312.2027-2.4907.608-3.536.416-1.056.9974-1.952 1.744-2.688.7574-.736 1.6534-1.30133 2.688-1.696 1.0454-.39467 2.2027-.592 3.472-.592zm0 13.424c1.1414 0 1.9787-.4 2.512-1.2.544-.8107.816-2.0373.816-3.68s-.272-2.864-.816-3.664c-.5333-.8-1.3706-1.2-2.512-1.2-1.1733 0-2.032.4-2.576 1.2s-.816 2.0213-.816 3.664.272 2.8693.816 3.68c.544.8 1.4027 1.2 2.576 1.2zm21.6345-9.536c-.128.2027-.2666.3467-.416.432-.1386.0853-.32.128-.544.128-.2346 0-.4693-.048-.704-.144-.2346-.1067-.4906-.2187-.768-.336-.2666-.1173-.5706-.224-.912-.32-.3413-.1067-.7306-.16-1.168-.16-.6293 0-1.1146.1227-1.456.368-.3306.2347-.496.5653-.496.992 0 .3093.1067.5653.32.768.224.2027.5174.384.88.544.3627.1493.7734.2933 1.232.432.4587.1387.928.2933 1.408.464s.9494.3733 1.408.608c.4587.224.8694.5067 1.232.848.3627.3307.6507.736.864 1.216.224.48.336 1.056.336 1.728 0 .8213-.1493 1.5787-.448 2.272-.2986.6933-.7466 1.2907-1.344 1.792-.5866.5013-1.3173.8907-2.192 1.168-.864.2773-1.8613.416-2.992.416-.5653 0-1.1306-.0533-1.696-.16-.5653-.1067-1.1146-.2507-1.648-.432-.5226-.1813-1.008-.3947-1.456-.64-.448-.256-.832-.528-1.152-.816l1.152-1.824c.1387-.2133.304-.3787.496-.496.192-.128.4427-.192.752-.192.288 0 .544.064.768.192.2347.128.4854.2667.752.416.2667.1493.576.288.928.416.3627.128.816.192 1.36.192.384 0 .7094-.0373.976-.112.2667-.0853.48-.1973.64-.336s.2774-.2933.352-.464c.0747-.1707.112-.3467.112-.528 0-.3307-.112-.6027-.336-.816s-.5173-.3947-.88-.544c-.3626-.16-.7786-.304-1.248-.432-.4586-.1387-.928-.2933-1.408-.464s-.9546-.3733-1.424-.608c-.4586-.2453-.8693-.5493-1.232-.912-.3626-.3733-.656-.8267-.88-1.36s-.336-1.1787-.336-1.936c0-.704.1334-1.3707.4-2 .2774-.64.688-1.2 1.232-1.68s1.2267-.85867 2.048-1.136c.8214-.288 1.7814-.432 2.88-.432.5974 0 1.1734.05333 1.728.16.5654.10667 1.0934.256 1.584.448.4907.192.9387.42133 1.344.688.4054.256.7627.53867 1.072.848zm10.0938 13.216c-.789 0-1.488-.112-2.096-.336-.597-.2347-1.104-.56-1.52-.976-.405-.4267-.715-.9387-.928-1.536s-.32-1.264-.32-2v-8.576h-1.408c-.256 0-.475-.08-.656-.24-.181-.1707-.272-.416-.272-.736v-1.936l2.64-.512.976-4.048c.128-.512.491-.768 1.088-.768h2.592v4.848h4.032v3.392h-4.032v8.24c0 .384.091.704.272.96.192.2453.464.368.816.368.181 0 .331-.016.448-.048.128-.0427.235-.0853.32-.128.096-.0533.181-.096.256-.128.085-.0427.181-.064.288-.064.149 0 .267.0373.352.112.096.064.192.1707.288.32l1.504 2.352c-.64.48-1.36.8427-2.16 1.088-.8.2347-1.627.352-2.48.352z" fill="#121111"/></svg>