<svg width="96" height="23" fill="none" xmlns="http://www.w3.org/2000/svg"><path d="M7.744 22.256c-.79 0-1.488-.112-2.096-.336a4.386 4.386 0 0 1-1.52-.976 4.296 4.296 0 0 1-.928-1.536c-.213-.597-.32-1.264-.32-2V8.832H1.472a.957.957 0 0 1-.656-.24c-.181-.17-.272-.416-.272-.736V5.92l2.64-.512.976-4.048c.128-.512.49-.768 1.088-.768H7.84V5.44h4.032v3.392H7.84v8.24c0 .384.09.704.272.96.192.245.464.368.816.368.181 0 .33-.016.448-.048.128-.043.235-.085.32-.128.096-.053.181-.096.256-.128a.634.634 0 0 1 .288-.064c.15 0 .267.037.352.112.096.064.192.17.288.32l1.504 2.352a6.97 6.97 0 0 1-2.16 1.088c-.8.235-1.627.352-2.48.352zM15.053 22V5.408h2.944c.245 0 .448.021.608.064.17.043.309.112.415.208a.723.723 0 0 1 .256.352c.064.15.118.33.16.544l.273 1.552c.608-.939 1.29-1.68 2.047-2.224.758-.544 1.584-.816 2.48-.816.758 0 1.366.181 1.825.544l-.64 3.648c-.043.224-.128.384-.256.48-.128.085-.3.128-.512.128a3.76 3.76 0 0 1-.64-.064 4.478 4.478 0 0 0-.929-.08c-1.3 0-2.325.693-3.072 2.08V22h-4.96zm20.93-16.848c1.259 0 2.406.197 3.44.592 1.035.395 1.92.96 2.656 1.696.747.736 1.323 1.632 1.728 2.688.416 1.045.624 2.224.624 3.536 0 1.323-.208 2.517-.624 3.584-.405 1.056-.981 1.957-1.728 2.704a7.65 7.65 0 0 1-2.656 1.712c-1.034.395-2.181.592-3.44.592-1.27 0-2.426-.197-3.472-.592a7.992 7.992 0 0 1-2.688-1.712c-.746-.747-1.328-1.648-1.744-2.704-.405-1.067-.608-2.261-.608-3.584 0-1.312.203-2.49.608-3.536.416-1.056.998-1.952 1.744-2.688a7.793 7.793 0 0 1 2.688-1.696c1.046-.395 2.203-.592 3.472-.592zm0 13.424c1.142 0 1.979-.4 2.512-1.2.544-.81.816-2.037.816-3.68 0-1.643-.272-2.864-.816-3.664-.533-.8-1.37-1.2-2.512-1.2-1.173 0-2.032.4-2.576 1.2-.544.8-.816 2.021-.816 3.664 0 1.643.272 2.87.816 3.68.544.8 1.403 1.2 2.576 1.2zm23.459-9.232a2.74 2.74 0 0 1-.432.432c-.139.107-.336.16-.592.16-.246 0-.47-.059-.672-.176a22.43 22.43 0 0 0-.656-.384 4.655 4.655 0 0 0-.864-.4c-.33-.117-.742-.176-1.232-.176-.608 0-1.136.112-1.584.336a2.93 2.93 0 0 0-1.088.96c-.288.416-.502.928-.64 1.536a9.024 9.024 0 0 0-.208 2.032c0 1.59.304 2.81.912 3.664.618.853 1.466 1.28 2.544 1.28.576 0 1.03-.07 1.36-.208.341-.15.63-.31.864-.48l.64-.496c.202-.15.453-.224.752-.224.394 0 .693.144.896.432l1.44 1.776a8.045 8.045 0 0 1-1.616 1.44 8.55 8.55 0 0 1-1.744.864 8.75 8.75 0 0 1-1.776.416c-.598.085-1.179.128-1.744.128a7.543 7.543 0 0 1-2.912-.576 7.273 7.273 0 0 1-2.432-1.664c-.694-.736-1.248-1.637-1.664-2.704-.406-1.067-.608-2.283-.608-3.648 0-1.195.176-2.31.528-3.344.362-1.045.89-1.947 1.584-2.704.704-.768 1.568-1.37 2.592-1.808 1.034-.437 2.23-.656 3.584-.656 1.301 0 2.442.208 3.424.624A8.215 8.215 0 0 1 60.754 7.6l-1.312 1.744zm15.882 0a2.74 2.74 0 0 1-.432.432c-.138.107-.336.16-.592.16a1.32 1.32 0 0 1-.672-.176 22.43 22.43 0 0 0-.656-.384 4.655 4.655 0 0 0-.864-.4c-.33-.117-.741-.176-1.232-.176-.608 0-1.136.112-1.584.336-.437.224-.8.544-1.088.96-.288.416-.501.928-.64 1.536a9.024 9.024 0 0 0-.208 2.032c0 1.59.304 2.81.912 3.664.619.853 1.467 1.28 2.544 1.28.576 0 1.03-.07 1.36-.208.342-.15.63-.31.864-.48l.64-.496c.203-.15.454-.224.752-.224.395 0 .694.144.896.432l1.44 1.776a8.041 8.041 0 0 1-1.616 1.44 8.55 8.55 0 0 1-1.744.864 8.75 8.75 0 0 1-1.776.416c-.597.085-1.178.128-1.744.128a7.543 7.543 0 0 1-2.912-.576 7.273 7.273 0 0 1-2.432-1.664c-.693-.736-1.248-1.637-1.664-2.704-.405-1.067-.608-2.283-.608-3.648 0-1.195.176-2.31.528-3.344.363-1.045.89-1.947 1.584-2.704.704-.768 1.568-1.37 2.592-1.808 1.035-.437 2.23-.656 3.584-.656 1.302 0 2.443.208 3.424.624A8.215 8.215 0 0 1 76.636 7.6l-1.312 1.744zm11.307-4.192c1.258 0 2.405.197 3.44.592 1.034.395 1.92.96 2.656 1.696.746.736 1.322 1.632 1.728 2.688.416 1.045.624 2.224.624 3.536 0 1.323-.208 2.517-.624 3.584-.406 1.056-.982 1.957-1.728 2.704a7.649 7.649 0 0 1-2.656 1.712c-1.035.395-2.182.592-3.44.592-1.27 0-2.427-.197-3.472-.592a7.992 7.992 0 0 1-2.688-1.712c-.747-.747-1.328-1.648-1.744-2.704-.406-1.067-.608-2.261-.608-3.584 0-1.312.202-2.49.608-3.536.416-1.056.997-1.952 1.744-2.688a7.793 7.793 0 0 1 2.688-1.696c1.045-.395 2.202-.592 3.472-.592zm0 13.424c1.141 0 1.978-.4 2.512-1.2.544-.81.816-2.037.816-3.68 0-1.643-.272-2.864-.816-3.664-.534-.8-1.37-1.2-2.512-1.2-1.174 0-2.032.4-2.576 1.2-.544.8-.816 2.021-.816 3.664 0 1.643.272 2.87.816 3.68.544.8 1.402 1.2 2.576 1.2z" fill="#121111"/></svg>