<svg width="173" height="26" fill="none" xmlns="http://www.w3.org/2000/svg"><path d="M6.04 8.408V25H1.08V8.408h4.96zm.576-4.544c0 .395-.08.768-.24 1.12a3.07 3.07 0 0 1-.656.912 3.397 3.397 0 0 1-.976.624c-.363.15-.752.224-1.168.224-.405 0-.784-.075-1.136-.224a3.543 3.543 0 0 1-.944-.624 3.202 3.202 0 0 1-.64-.912 2.838 2.838 0 0 1-.224-1.12c0-.405.075-.784.224-1.136.16-.352.373-.661.64-.928a3.08 3.08 0 0 1 .944-.624c.352-.15.73-.224 1.136-.224.416 0 .805.075 1.168.224a2.999 2.999 0 0 1 1.632 1.552c.16.352.24.73.24 1.136zm10.853 4.288c1.099 0 2.101.17 3.008.512a6.466 6.466 0 0 1 2.352 1.488c.661.65 1.173 1.45 1.536 2.4.373.939.56 2.005.56 3.2 0 .373-.016.677-.048.912s-.09.421-.176.56a.667.667 0 0 1-.352.288 1.55 1.55 0 0 1-.544.08h-9.568c.16 1.387.581 2.395 1.264 3.024.683.619 1.563.928 2.64.928.576 0 1.072-.07 1.488-.208a7.164 7.164 0 0 0 1.104-.464c.33-.17.63-.325.896-.464.277-.139.565-.208.864-.208.395 0 .693.144.896.432l1.44 1.776a7.468 7.468 0 0 1-1.664 1.44 8.888 8.888 0 0 1-1.824.864 9.656 9.656 0 0 1-1.872.416 13.06 13.06 0 0 1-1.776.128 9.502 9.502 0 0 1-3.28-.56A7.71 7.71 0 0 1 11.741 23c-.757-.747-1.36-1.675-1.808-2.784-.437-1.11-.656-2.4-.656-3.872 0-1.11.187-2.16.56-3.152a7.935 7.935 0 0 1 1.632-2.608 7.88 7.88 0 0 1 2.576-1.776c1.013-.437 2.155-.656 3.424-.656zm.096 3.424c-.95 0-1.69.272-2.224.816-.533.533-.885 1.307-1.056 2.32h6.192c0-.395-.053-.779-.16-1.152a2.558 2.558 0 0 0-.496-.992 2.413 2.413 0 0 0-.896-.72c-.373-.181-.827-.272-1.36-.272zm10.206 1.696h8.64v4h-8.64v-4zm19.588-5.12c1.099 0 2.101.17 3.008.512a6.466 6.466 0 0 1 2.352 1.488c.661.65 1.173 1.45 1.536 2.4.373.939.56 2.005.56 3.2 0 .373-.016.677-.048.912s-.09.421-.176.56a.667.667 0 0 1-.352.288 1.55 1.55 0 0 1-.544.08h-9.568c.16 1.387.581 2.395 1.264 3.024.683.619 1.563.928 2.64.928.576 0 1.072-.07 1.488-.208a7.164 7.164 0 0 0 1.104-.464c.33-.17.63-.325.896-.464.277-.139.565-.208.864-.208.395 0 .693.144.896.432l1.44 1.776a7.468 7.468 0 0 1-1.664 1.44 8.888 8.888 0 0 1-1.824.864 9.656 9.656 0 0 1-1.872.416 13.06 13.06 0 0 1-1.776.128 9.502 9.502 0 0 1-3.28-.56A7.71 7.71 0 0 1 41.631 23c-.757-.747-1.36-1.675-1.808-2.784-.437-1.11-.656-2.4-.656-3.872 0-1.11.187-2.16.56-3.152a7.935 7.935 0 0 1 1.632-2.608 7.88 7.88 0 0 1 2.576-1.776c1.013-.437 2.155-.656 3.424-.656zm.096 3.424c-.95 0-1.69.272-2.224.816-.533.533-.885 1.307-1.056 2.32h6.192c0-.395-.053-.779-.16-1.152a2.558 2.558 0 0 0-.496-.992 2.413 2.413 0 0 0-.896-.72c-.373-.181-.827-.272-1.36-.272zM57.981 25V8.408h2.944c.246 0 .448.021.608.064a.96.96 0 0 1 .416.208.722.722 0 0 1 .256.352c.064.15.118.33.16.544l.272 1.552c.608-.939 1.29-1.68 2.048-2.224.758-.544 1.584-.816 2.48-.816.758 0 1.366.181 1.824.544l-.64 3.648c-.042.224-.128.384-.256.48-.128.085-.298.128-.512.128a3.78 3.78 0 0 1-.64-.064 4.48 4.48 0 0 0-.928-.08c-1.301 0-2.325.693-3.072 2.08V25h-4.96zm24.682 0c-.469 0-.826-.064-1.072-.192-.234-.128-.431-.395-.591-.8l-.353-.912c-.416.352-.816.661-1.2.928a7.916 7.916 0 0 1-1.2.688 5.695 5.695 0 0 1-1.311.4 7.52 7.52 0 0 1-1.537.144 6.945 6.945 0 0 1-2.064-.288 4.481 4.481 0 0 1-1.584-.88 3.892 3.892 0 0 1-.992-1.424c-.234-.576-.352-1.237-.352-1.984 0-.587.15-1.19.449-1.808.298-.619.816-1.179 1.552-1.68.736-.512 1.727-.939 2.975-1.28 1.249-.341 2.822-.533 4.72-.576v-.704c0-.97-.202-1.67-.607-2.096-.395-.437-.96-.656-1.697-.656-.586 0-1.066.064-1.44.192a6.82 6.82 0 0 0-1.007.432c-.288.16-.571.304-.849.432-.277.128-.608.192-.992.192-.34 0-.634-.08-.88-.24a1.955 1.955 0 0 1-.56-.624l-.895-1.552a9.993 9.993 0 0 1 3.328-1.968c1.226-.437 2.538-.656 3.935-.656 1.003 0 1.905.165 2.705.496.81.32 1.493.773 2.047 1.36a5.804 5.804 0 0 1 1.296 2.064c.3.8.449 1.675.449 2.624V25h-2.273zm-5.695-3.024c.64 0 1.2-.112 1.68-.336.48-.224.965-.587 1.456-1.088v-2.304c-.992.043-1.808.128-2.448.256-.64.128-1.147.288-1.52.48-.374.192-.635.41-.784.656a1.598 1.598 0 0 0-.209.8c0 .565.155.965.465 1.2.309.224.762.336 1.36.336zM88.778 25V1.048h4.96v9.12a7.47 7.47 0 0 1 2.096-1.456c.789-.373 1.712-.56 2.767-.56a5.23 5.23 0 0 1 2.4.56c.736.373 1.371.923 1.904 1.648.534.715.95 1.595 1.248 2.64.31 1.045.464 2.235.464 3.568 0 1.248-.176 2.4-.528 3.456-.341 1.056-.826 1.973-1.456 2.752a6.594 6.594 0 0 1-2.24 1.824c-.864.437-1.823.656-2.88.656a5.63 5.63 0 0 1-1.328-.144 4.94 4.94 0 0 1-1.072-.4 5.27 5.27 0 0 1-.895-.64 11.148 11.148 0 0 1-.785-.8l-.176.832c-.074.341-.213.576-.416.704-.191.128-.447.192-.767.192h-3.296zm8.096-13.12c-.363 0-.694.037-.992.112-.288.064-.56.16-.817.288a3.038 3.038 0 0 0-.688.496 6.503 6.503 0 0 0-.64.672v7.04c.374.416.78.71 1.217.88.437.16.896.24 1.376.24.458 0 .88-.09 1.264-.272.384-.181.714-.47.992-.864.288-.405.511-.928.671-1.568.16-.64.24-1.419.24-2.336 0-.875-.064-1.61-.192-2.208-.128-.597-.309-1.077-.544-1.44-.224-.373-.495-.64-.816-.8-.32-.16-.677-.24-1.071-.24zm15.906-3.472V25h-4.96V8.408h4.96zm.576-4.544c0 .395-.08.768-.24 1.12a3.07 3.07 0 0 1-.656.912 3.397 3.397 0 0 1-.976.624c-.363.15-.752.224-1.168.224a2.88 2.88 0 0 1-1.136-.224 3.537 3.537 0 0 1-.944-.624 3.196 3.196 0 0 1-.64-.912 2.844 2.844 0 0 1-.224-1.12c0-.405.075-.784.224-1.136.16-.352.373-.661.64-.928a3.08 3.08 0 0 1 .944-.624 2.88 2.88 0 0 1 1.136-.224c.416 0 .805.075 1.168.224a2.999 2.999 0 0 1 1.632 1.552c.16.352.24.73.24 1.136zm2.789 18.624c0-.384.069-.741.208-1.072.149-.33.347-.619.592-.864.256-.245.555-.437.896-.576.341-.15.715-.224 1.12-.224.395 0 .763.075 1.104.224.341.139.64.33.896.576.256.245.453.533.592.864.149.33.224.688.224 1.072 0 .384-.075.747-.224 1.088-.139.33-.336.619-.592.864a2.814 2.814 0 0 1-.896.576 2.902 2.902 0 0 1-1.104.208c-.405 0-.779-.07-1.12-.208a2.814 2.814 0 0 1-.896-.576 2.892 2.892 0 0 1-.592-.864 2.856 2.856 0 0 1-.208-1.088zM124.987 25V8.408h3.072c.31 0 .566.07.768.208.214.139.363.347.448.624l.288.96c.32-.299.651-.576.992-.832.342-.256.704-.47 1.088-.64.395-.181.816-.32 1.264-.416.459-.107.955-.16 1.488-.16.907 0 1.707.16 2.4.48.704.31 1.296.747 1.776 1.312.48.555.843 1.221 1.088 2 .246.768.368 1.605.368 2.512V25h-4.96V14.456c0-.81-.186-1.44-.56-1.888-.373-.459-.922-.688-1.648-.688a3.45 3.45 0 0 0-1.536.352c-.48.235-.938.55-1.376.944V25h-4.96zm25.987-16.848c1.099 0 2.101.17 3.008.512a6.471 6.471 0 0 1 2.352 1.488c.661.65 1.173 1.45 1.536 2.4.373.939.56 2.005.56 3.2 0 .373-.016.677-.048.912a1.45 1.45 0 0 1-.176.56.667.667 0 0 1-.352.288 1.55 1.55 0 0 1-.544.08h-9.568c.16 1.387.581 2.395 1.264 3.024.683.619 1.563.928 2.64.928.576 0 1.072-.07 1.488-.208a7.164 7.164 0 0 0 1.104-.464c.331-.17.629-.325.896-.464.277-.139.565-.208.864-.208.395 0 .693.144.896.432l1.44 1.776a7.475 7.475 0 0 1-1.664 1.44 8.903 8.903 0 0 1-1.824.864 9.666 9.666 0 0 1-1.872.416 13.07 13.07 0 0 1-1.776.128 9.5 9.5 0 0 1-3.28-.56A7.713 7.713 0 0 1 145.246 23c-.757-.747-1.36-1.675-1.808-2.784-.437-1.11-.656-2.4-.656-3.872 0-1.11.187-2.16.56-3.152a7.935 7.935 0 0 1 1.632-2.608 7.88 7.88 0 0 1 2.576-1.776c1.013-.437 2.155-.656 3.424-.656zm.096 3.424c-.949 0-1.691.272-2.224.816-.533.533-.885 1.307-1.056 2.32h6.192a4.16 4.16 0 0 0-.16-1.152 2.554 2.554 0 0 0-.496-.992 2.415 2.415 0 0 0-.896-.72c-.373-.181-.827-.272-1.36-.272zm16.35 13.68c-.789 0-1.488-.112-2.096-.336a4.39 4.39 0 0 1-1.52-.976 4.31 4.31 0 0 1-.928-1.536c-.213-.597-.32-1.264-.32-2v-8.576h-1.408a.959.959 0 0 1-.656-.24c-.181-.17-.272-.416-.272-.736V8.92l2.64-.512.976-4.048c.128-.512.491-.768 1.088-.768h2.592V8.44h4.032v3.392h-4.032v8.24c0 .384.091.704.272.96.192.245.464.368.816.368.182 0 .331-.016.448-.048.128-.043.235-.085.32-.128.096-.053.182-.096.256-.128a.639.639 0 0 1 .288-.064c.15 0 .267.037.352.112.096.064.192.17.288.32l1.504 2.352a6.97 6.97 0 0 1-2.16 1.088 8.76 8.76 0 0 1-2.48.352z" fill="#121111"/></svg>