<svg fill="none" height="21" viewBox="0 0 214 21" width="214" xmlns="http://www.w3.org/2000/svg"><path d="m4.954 12.993v7.007h-4.394v-18.941h6.162c1.36933 0 2.535.143 3.497.429.9707.27733 1.7593.66733 2.366 1.17.6153.50267 1.0617 1.09633 1.339 1.781s.416 1.43.416 2.236c0 .61533-.0823 1.196-.247 1.742s-.4117 1.053-.741 1.521c-.3207.4593-.7193.871-1.196 1.235-.468.364-1.0097.663-1.625.897.2947.1473.5677.3293.819.546.26.2167.4853.481.676.793l4.03 6.591h-3.978c-.7367 0-1.2653-.2773-1.586-.832l-3.146-5.499c-.13867-.2427-.30333-.416-.494-.52-.182-.104-.442-.156-.78-.156zm0-3.029h1.768c.598 0 1.105-.07367 1.521-.221.42467-.156.77133-.36833 1.04-.637s.46367-.58067.585-.936c.12133-.364.182-.754.182-1.17 0-.832-.273-1.482-.819-1.95-.53733-.468-1.37367-.702-2.509-.702h-1.768zm22.465 10.036c-.3813 0-.6717-.052-.871-.156-.1907-.104-.351-.3207-.481-.65l-.286-.741c-.338.286-.663.5373-.975.754s-.637.403-.975.559c-.3293.1473-.6847.2557-1.066.325-.3727.078-.7887.117-1.248.117-.6153 0-1.1743-.078-1.677-.234-.5027-.1647-.9317-.403-1.287-.715-.3467-.312-.6153-.6977-.806-1.157-.1907-.468-.286-1.0053-.286-1.612 0-.4767.1213-.9663.364-1.469s.663-.9577 1.261-1.365c.598-.416 1.404-.7627 2.418-1.04s2.2923-.4333 3.835-.468v-.572c0-.7887-.1647-1.3563-.494-1.703-.3207-.35533-.78-.533-1.378-.533-.4767 0-.8667.052-1.17.156s-.5763.221-.819.351c-.234.13-.4637.247-.689.351s-.494.156-.806.156c-.2773 0-.5157-.065-.715-.195-.1907-.1387-.3423-.30767-.455-.507l-.728-1.261c.8147-.71933 1.716-1.25233 2.704-1.599.9967-.35533 2.0627-.533 3.198-.533.8147 0 1.547.13433 2.197.403.6587.26 1.2133.62833 1.664 1.105.4593.468.8103 1.027 1.053 1.677s.364 1.3607.364 2.132v8.424zm-4.628-2.457c.52 0 .975-.091 1.365-.273s.7843-.4767 1.183-.884v-1.872c-.806.0347-1.469.104-1.989.208s-.9317.234-1.235.39-.5157.3337-.637.533c-.1127.1993-.169.416-.169.65 0 .4593.1257.7843.377.975.2513.182.6197.273 1.105.273zm9.5956 2.457v-13.481h2.496c.2514 0 .4594.05633.624.169.1734.11267.2947.28167.364.507l.234.78c.26-.24267.5287-.468.806-.676.2774-.208.572-.38133.884-.52.3207-.14733.663-.26 1.027-.338.3727-.08667.7757-.13 1.209-.13.7367 0 1.3867.13 1.95.39.572.25133 1.053.60667 1.443 1.066.39.45067.6847.99233.884 1.625.1994.624.299 1.3043.299 2.041v8.567h-4.03v-8.567c0-.6587-.1516-1.17-.455-1.534-.3033-.37267-.7496-.559-1.339-.559-.442 0-.858.09533-1.248.286s-.7626.4463-1.118.767v9.607zm25.0661-10.283c-.1214.14733-.2384.26433-.351.351-.1127.0867-.273.13-.481.13-.1994 0-.3814-.0477-.546-.143-.156-.09533-.3337-.19933-.533-.312-.1994-.12133-.4334-.22967-.702-.325-.2687-.09533-.6024-.143-1.001-.143-.494 0-.923.091-1.287.273-.3554.182-.65.442-.884.78s-.4074.754-.52 1.248c-.1127.4853-.169 1.0357-.169 1.651 0 1.2913.247 2.2837.741 2.977.5026.6933 1.1916 1.04 2.067 1.04.468 0 .8363-.0563 1.105-.169.2773-.1213.5113-.2513.702-.39.1906-.1473.364-.2817.52-.403.1646-.1213.3683-.182.611-.182.3206 0 .5633.117.728.351l1.17 1.443c-.416.4767-.8537.8667-1.313 1.17-.4594.2947-.9317.5287-1.417.702-.4767.1647-.9577.2773-1.443.338-.4854.0693-.9577.104-1.417.104-.8234 0-1.612-.156-2.366-.468-.7454-.312-1.404-.7627-1.976-1.352-.5634-.598-1.014-1.3303-1.352-2.197-.3294-.8667-.494-1.8547-.494-2.964 0-.9707.143-1.8763.429-2.717.2946-.84933.7236-1.58167 1.287-2.197.572-.624 1.274-1.11367 2.106-1.469.8406-.35533 1.8113-.533 2.912-.533 1.0573 0 1.9846.169 2.782.507.7973.338 1.5166.832 2.158 1.482zm3.1805 10.283v-19.461001h4.03v7.163001c.4853-.416 1.0097-.74967 1.573-1.001.572-.26 1.2523-.39 2.041-.39.7367 0 1.3867.13 1.95.39.572.25133 1.053.60667 1.443 1.066.39.45067.6847.99233.884 1.625.1993.624.299 1.3043.299 2.041v8.567h-4.03v-8.567c0-.6587-.1517-1.17-.455-1.534-.3033-.37267-.7497-.559-1.339-.559-.442 0-.858.09533-1.248.286s-.7627.4463-1.118.767v9.607zm21.348-13.689c1.0227 0 1.9544.16033 2.795.481.8407.32067 1.56.78 2.158 1.378.6067.598 1.0747 1.326 1.404 2.184.338.8493.507 1.807.507 2.873 0 1.0747-.169 2.0453-.507 2.912-.3293.858-.7973 1.5903-1.404 2.197-.598.598-1.3173 1.0617-2.158 1.391-.8406.3207-1.7723.481-2.795.481-1.0313 0-1.9716-.1603-2.821-.481-.8406-.3293-1.5686-.793-2.184-1.391-.6066-.6067-1.079-1.339-1.417-2.197-.3293-.8667-.494-1.8373-.494-2.912 0-1.066.1647-2.0237.494-2.873.338-.858.8104-1.586 1.417-2.184.6154-.598 1.3434-1.05733 2.184-1.378.8494-.32067 1.7897-.481 2.821-.481zm0 10.907c.9274 0 1.6077-.325 2.041-.975.442-.6587.663-1.6553.663-2.99s-.221-2.327-.663-2.977c-.4333-.65-1.1136-.975-2.041-.975-.9533 0-1.651.325-2.093.975s-.663 1.6423-.663 2.977.221 2.3313.663 2.99c.442.65 1.1397.975 2.093.975zm25.1798-12.311c-.13.208-.269.364-.416.468-.139.104-.321.156-.546.156-.2 0-.416-.06067-.65-.182-.226-.13-.486-.273-.78-.429-.286-.156-.616-.29467-.988-.416-.373-.13-.798-.195-1.274-.195-.824 0-1.439.17767-1.846.533-.399.34667-.598.819-.598 1.417 0 .38133.121.69767.364.949.242.25133.559.468.949.65.398.182.849.351 1.352.507.511.14733 1.031.31633 1.56.507.528.182 1.044.39867 1.547.65.511.25133.962.572 1.352.962.398.39.719.8667.962 1.43.242.5547.364 1.2263.364 2.015 0 .8753-.152 1.6943-.455 2.457-.304.7627-.746 1.43-1.326 2.002-.572.5633-1.283 1.0097-2.132 1.339-.841.3207-1.799.481-2.873.481-.59 0-1.192-.0607-1.8074-.182-.6067-.1213-1.196-.2903-1.768-.507-.572-.2253-1.1093-.4897-1.612-.793s-.9403-.6413-1.313-1.014l1.3-2.054c.0953-.156.2297-.2817.403-.377s.3597-.143.559-.143c.26 0 .52.0823.78.247.2687.1647.5677.3467.897.546.338.1993.7237.3813 1.1574.546.433.1647.944.247 1.534.247.797 0 1.417-.1733 1.859-.52.442-.3553.663-.9143.663-1.677 0-.442-.122-.8017-.364-1.079-.243-.2773-.564-.507-.962-.689-.39-.182-.837-.3423-1.339-.481-.503-.1387-1.019-.2903-1.547-.455-.5291-.1733-1.0447-.3813-1.5474-.624-.5027-.2513-.9533-.5763-1.352-.975-.39-.40733-.7063-.91-.949-1.508-.2427-.60667-.364-1.352-.364-2.236 0-.71067.143-1.404.429-2.08s.7063-1.27833 1.261-1.807 1.235-.949 2.041-1.261c.8064-.32067 1.7294-.481001 2.7694-.481001.58 0 1.144.047667 1.69.143001.554.08667 1.079.221 1.573.403.494.17333.953.38567 1.378.637.433.24267.819.52 1.157.832zm9.801 1.404c1.023 0 1.955.16033 2.795.481.841.32067 1.56.78 2.158 1.378.607.598 1.075 1.326 1.404 2.184.338.8493.507 1.807.507 2.873 0 1.0747-.169 2.0453-.507 2.912-.329.858-.797 1.5903-1.404 2.197-.598.598-1.317 1.0617-2.158 1.391-.84.3207-1.772.481-2.795.481-1.031 0-1.971-.1603-2.821-.481-.84-.3293-1.568-.793-2.184-1.391-.606-.6067-1.079-1.339-1.417-2.197-.329-.8667-.494-1.8373-.494-2.912 0-1.066.165-2.0237.494-2.873.338-.858.811-1.586 1.417-2.184.616-.598 1.344-1.05733 2.184-1.378.85-.32067 1.79-.481 2.821-.481zm0 10.907c.928 0 1.608-.325 2.041-.975.442-.6587.663-1.6553.663-2.99s-.221-2.327-.663-2.977c-.433-.65-1.113-.975-2.041-.975-.953 0-1.651.325-2.093.975s-.663 1.6423-.663 2.977.221 2.3313.663 2.99c.442.65 1.14.975 2.093.975zm9.336 2.782v-13.481h2.496c.252 0 .46.05633.624.169.174.11267.295.28167.364.507l.221.728c.226-.234.46-.44633.702-.637.243-.19933.503-.36833.78-.507.286-.14733.59-.26.91-.338.33-.08667.689-.13 1.079-.13.815 0 1.487.21233 2.015.637.538.416.945.975 1.222 1.677.226-.416.499-.77133.819-1.066.33-.29467.681-.533 1.053-.715.382-.182.78-.31633 1.196-.403.425-.08667.845-.13 1.261-.13.772 0 1.456.117 2.054.351.598.22533 1.097.559 1.495 1.001.408.43333.715.97067.923 1.612.208.63267.312 1.352.312 2.158v8.567h-4.03v-8.567c0-1.3953-.598-2.093-1.794-2.093-.546 0-1.001.182-1.365.546-.355.3553-.533.871-.533 1.547v8.567h-4.03v-8.567c0-.7713-.151-1.313-.455-1.625-.303-.312-.749-.468-1.339-.468-.364 0-.71.08233-1.04.247-.32.16467-.624.38567-.91.663v9.75zm22.655 0v-19.461001h4.03v7.410001c.503-.494 1.07-.88833 1.703-1.183.641-.30333 1.391-.455 2.249-.455.702 0 1.352.15167 1.95.455s1.114.74967 1.547 1.339c.433.58067.771 1.29567 1.014 2.145.251.8493.377 1.8157.377 2.899 0 1.014-.143 1.95-.429 2.808-.277.858-.672 1.6033-1.183 2.236-.503.6327-1.109 1.1267-1.82 1.482-.702.3553-1.482.533-2.34.533-.399 0-.758-.039-1.079-.117-.312-.078-.602-.1863-.871-.325-.26-.1473-.503-.3207-.728-.52-.217-.1993-.429-.416-.637-.65l-.143.676c-.061.2773-.173.468-.338.572-.156.104-.364.156-.624.156zm6.578-10.66c-.295 0-.563.03033-.806.091-.234.052-.455.13-.663.234-.199.104-.386.23833-.559.403-.173.156-.347.338-.52.546v5.72c.303.338.633.5763.988.715.355.13.728.195 1.118.195.373 0 .715-.0737 1.027-.221s.581-.3813.806-.702c.234-.3293.416-.754.546-1.274s.195-1.1527.195-1.898c0-.7107-.052-1.3087-.156-1.794s-.251-.8753-.442-1.17c-.182-.30333-.403-.52-.663-.65s-.55-.195-.871-.195zm8.764 10.66v-13.481h2.392c.199 0 .364.01733.494.052.139.03467.251.091.338.169.095.06933.165.16467.208.286.052.12133.095.26867.13.442l.221 1.261c.494-.76267 1.049-1.365 1.664-1.807s1.287-.663 2.015-.663c.615 0 1.109.14733 1.482.442l-.52 2.964c-.035.182-.104.312-.208.39-.104.0693-.243.104-.416.104-.147 0-.321-.0173-.52-.052-.199-.0433-.451-.065-.754-.065-1.057 0-1.889.5633-2.496 1.69v8.268zm16.772-13.689c.893 0 1.708.13867 2.444.416.746.27733 1.383.68033 1.911 1.209.538.52867.954 1.17867 1.248 1.95.304.7627.455 1.6293.455 2.6 0 .3033-.013.5503-.039.741s-.073.3423-.143.455c-.069.1127-.164.1907-.286.234-.112.0433-.26.065-.442.065h-7.774c.13 1.1267.473 1.9457 1.027 2.457.555.5027 1.27.754 2.145.754.468 0 .871-.0563 1.209-.169s.637-.2383.897-.377c.269-.1387.512-.2643.728-.377.226-.1127.46-.169.702-.169.321 0 .564.117.728.351l1.17 1.443c-.416.4767-.866.8667-1.352 1.17-.476.2947-.97.5287-1.482.702-.502.1647-1.009.2773-1.521.338-.502.0693-.983.104-1.443.104-.944 0-1.833-.1517-2.665-.455-.823-.312-1.547-.7713-2.171-1.378-.615-.6067-1.105-1.3607-1.469-2.262-.355-.9013-.533-1.95-.533-3.146 0-.9013.152-1.755.455-2.561.312-.806.754-1.51233 1.326-2.119.581-.60667 1.279-1.08767 2.093-1.443.824-.35533 1.751-.533 2.782-.533zm.078 2.782c-.771 0-1.373.221-1.807.663-.433.4333-.719 1.0617-.858 1.885h5.031c0-.3207-.043-.6327-.13-.936-.078-.3033-.212-.572-.403-.806-.182-.24267-.424-.43767-.728-.585-.303-.14733-.671-.221-1.105-.221zm8.553 10.907v-13.481h2.392c.199 0 .364.01733.494.052.138.03467.251.091.338.169.095.06933.164.16467.208.286.052.12133.095.26867.13.442l.221 1.261c.494-.76267 1.048-1.365 1.664-1.807.615-.442 1.287-.663 2.015-.663.615 0 1.109.14733 1.482.442l-.52 2.964c-.035.182-.104.312-.208.39-.104.0693-.243.104-.416.104-.148 0-.321-.0173-.52-.052-.2-.0433-.451-.065-.754-.065-1.058 0-1.89.5633-2.496 1.69v8.268zm17.006-13.689c1.023 0 1.954.16033 2.795.481s1.56.78 2.158 1.378c.607.598 1.075 1.326 1.404 2.184.338.8493.507 1.807.507 2.873 0 1.0747-.169 2.0453-.507 2.912-.329.858-.797 1.5903-1.404 2.197-.598.598-1.317 1.0617-2.158 1.391-.841.3207-1.772.481-2.795.481-1.031 0-1.972-.1603-2.821-.481-.841-.3293-1.569-.793-2.184-1.391-.607-.6067-1.079-1.339-1.417-2.197-.329-.8667-.494-1.8373-.494-2.912 0-1.066.165-2.0237.494-2.873.338-.858.81-1.586 1.417-2.184.615-.598 1.343-1.05733 2.184-1.378.849-.32067 1.79-.481 2.821-.481zm0 10.907c.927 0 1.608-.325 2.041-.975.442-.6587.663-1.6553.663-2.99s-.221-2.327-.663-2.977c-.433-.65-1.114-.975-2.041-.975-.953 0-1.651.325-2.093.975s-.663 1.6423-.663 2.977.221 2.3313.663 2.99c.442.65 1.14.975 2.093.975z" fill="#121111"/></svg>