<svg width="300" height="30" fill="none" xmlns="http://www.w3.org/2000/svg"><path d="M3.768.688c.235 0 .432.01.592.032.16.021.304.064.432.128.128.053.25.133.368.24.117.107.25.25.4.432l11.072 14a28.75 28.75 0 0 1-.096-1.296 24.152 24.152 0 0 1-.032-1.2V.688h4.768V24h-2.816c-.416 0-.768-.064-1.056-.192-.288-.128-.565-.363-.832-.704L5.576 9.216c.032.405.059.805.08 1.2.021.384.032.747.032 1.088V24H.92V.688h2.848zM36.883 24c-.469 0-.826-.064-1.072-.192-.234-.128-.431-.395-.592-.8l-.352-.912c-.415.352-.816.661-1.2.928a7.916 7.916 0 0 1-1.2.688 5.695 5.695 0 0 1-1.311.4 7.52 7.52 0 0 1-1.537.144 6.945 6.945 0 0 1-2.064-.288 4.481 4.481 0 0 1-1.584-.88 3.892 3.892 0 0 1-.991-1.424c-.235-.576-.352-1.237-.352-1.984 0-.587.149-1.19.448-1.808.298-.619.816-1.179 1.552-1.68.735-.512 1.727-.939 2.976-1.28 1.248-.341 2.82-.533 4.72-.576v-.704c0-.97-.203-1.67-.608-2.096-.395-.437-.96-.656-1.697-.656-.586 0-1.066.064-1.44.192a6.82 6.82 0 0 0-1.008.432c-.288.16-.57.304-.848.432-.277.128-.607.192-.991.192-.342 0-.635-.08-.88-.24a1.955 1.955 0 0 1-.56-.624l-.897-1.552a9.993 9.993 0 0 1 3.329-1.968c1.226-.437 2.538-.656 3.936-.656 1.002 0 1.904.165 2.704.496.81.32 1.493.773 2.047 1.36a5.804 5.804 0 0 1 1.297 2.064c.298.8.448 1.675.448 2.624V24h-2.273zm-5.696-3.024c.64 0 1.2-.112 1.68-.336.48-.224.966-.587 1.457-1.088v-2.304c-.992.043-1.808.128-2.448.256-.64.128-1.147.288-1.52.48-.374.192-.635.41-.785.656a1.598 1.598 0 0 0-.208.8c0 .565.155.965.465 1.2.309.224.762.336 1.36.336zM48.853 7.12c.704 0 1.366.07 1.984.208.63.139 1.211.336 1.744.592h5.008v1.808c0 .277-.08.496-.24.656-.149.16-.41.283-.783.368l-1.217.272c.15.48.225.976.225 1.488 0 .832-.176 1.579-.529 2.24a5.05 5.05 0 0 1-1.424 1.696c-.597.459-1.306.816-2.128 1.072a9.182 9.182 0 0 1-2.64.368 10.65 10.65 0 0 1-1.471-.096c-.363.213-.544.459-.544.736 0 .277.143.48.431.608.3.117.689.203 1.169.256.48.043 1.029.075 1.648.096.618.01 1.248.048 1.888.112.64.053 1.269.15 1.888.288a5.055 5.055 0 0 1 1.648.672c.48.31.864.725 1.151 1.248.3.512.448 1.168.448 1.968 0 .747-.18 1.477-.544 2.192-.362.715-.895 1.35-1.6 1.904-.704.555-1.568.997-2.592 1.328-1.023.341-2.197.512-3.52.512-1.3 0-2.426-.123-3.376-.368-.938-.245-1.722-.57-2.351-.976-.62-.395-1.078-.853-1.377-1.376a3.245 3.245 0 0 1-.448-1.632c0-.736.224-1.355.672-1.856.449-.512 1.062-.912 1.84-1.2a2.81 2.81 0 0 1-.896-.944c-.224-.384-.336-.87-.336-1.456 0-.245.043-.501.128-.768a2.87 2.87 0 0 1 .4-.8 4.05 4.05 0 0 1 .688-.736 4.5 4.5 0 0 1 .992-.624c-.864-.459-1.546-1.067-2.047-1.824-.491-.757-.736-1.637-.736-2.64 0-.832.175-1.579.527-2.24a5.014 5.014 0 0 1 1.44-1.696c.62-.47 1.345-.827 2.177-1.072a9.153 9.153 0 0 1 2.703-.384zm3.68 17.488c0-.267-.085-.48-.255-.64-.16-.16-.384-.288-.672-.384a4.616 4.616 0 0 0-.992-.208 18.785 18.785 0 0 0-1.216-.096 55.663 55.663 0 0 0-1.36-.048 19.79 19.79 0 0 1-1.392-.112 3.32 3.32 0 0 0-.769.72 1.43 1.43 0 0 0-.288.88c0 .235.049.448.145.64.106.192.288.357.544.496.255.139.597.245 1.023.32.438.085.987.128 1.648.128.715 0 1.302-.043 1.76-.128.46-.085.822-.203 1.088-.352.278-.15.47-.33.577-.544a1.42 1.42 0 0 0 .16-.672zm-3.68-9.776c.822 0 1.414-.203 1.776-.608.374-.416.56-.95.56-1.6 0-.672-.186-1.2-.56-1.584-.362-.384-.954-.576-1.776-.576-.82 0-1.418.192-1.791.576-.363.384-.544.912-.544 1.584 0 .32.042.613.127.88.096.267.24.501.432.704.193.192.433.347.72.464.3.107.651.16 1.056.16zM71.523 24c-.469 0-.826-.064-1.072-.192-.234-.128-.431-.395-.591-.8l-.353-.912c-.416.352-.816.661-1.2.928a7.916 7.916 0 0 1-1.2.688 5.695 5.695 0 0 1-1.311.4 7.52 7.52 0 0 1-1.537.144 6.945 6.945 0 0 1-2.063-.288 4.481 4.481 0 0 1-1.584-.88 3.892 3.892 0 0 1-.992-1.424c-.235-.576-.352-1.237-.352-1.984 0-.587.149-1.19.447-1.808.3-.619.816-1.179 1.552-1.68.736-.512 1.728-.939 2.976-1.28 1.249-.341 2.822-.533 4.72-.576v-.704c0-.97-.202-1.67-.607-2.096-.395-.437-.96-.656-1.697-.656-.586 0-1.066.064-1.44.192a6.82 6.82 0 0 0-1.007.432c-.289.16-.571.304-.849.432-.277.128-.608.192-.992.192-.34 0-.634-.08-.88-.24a1.955 1.955 0 0 1-.56-.624l-.895-1.552a9.993 9.993 0 0 1 3.328-1.968c1.226-.437 2.538-.656 3.935-.656 1.003 0 1.904.165 2.704.496.811.32 1.494.773 2.049 1.36a5.804 5.804 0 0 1 1.295 2.064c.3.8.449 1.675.449 2.624V24h-2.273zm-5.695-3.024c.64 0 1.2-.112 1.68-.336.48-.224.965-.587 1.456-1.088v-2.304c-.992.043-1.808.128-2.448.256-.64.128-1.147.288-1.52.48-.374.192-.635.41-.784.656a1.598 1.598 0 0 0-.209.8c0 .565.155.965.465 1.2.309.224.762.336 1.36.336zM85.029 7.152c1.26 0 2.406.197 3.44.592 1.035.395 1.92.96 2.657 1.696.746.736 1.322 1.632 1.727 2.688.416 1.045.625 2.224.625 3.536 0 1.323-.209 2.517-.624 3.584-.406 1.056-.982 1.957-1.728 2.704a7.649 7.649 0 0 1-2.657 1.712c-1.034.395-2.18.592-3.44.592-1.269 0-2.426-.197-3.471-.592a7.99 7.99 0 0 1-2.689-1.712c-.746-.747-1.328-1.648-1.743-2.704-.406-1.067-.609-2.261-.609-3.584 0-1.312.203-2.49.609-3.536.415-1.056.997-1.952 1.743-2.688a7.791 7.791 0 0 1 2.689-1.696c1.045-.395 2.202-.592 3.471-.592zm0 13.424c1.142 0 1.98-.4 2.513-1.2.543-.81.816-2.037.816-3.68 0-1.643-.273-2.864-.817-3.664-.533-.8-1.37-1.2-2.511-1.2-1.174 0-2.032.4-2.576 1.2-.544.8-.816 2.021-.816 3.664 0 1.643.271 2.87.816 3.68.544.8 1.402 1.2 2.576 1.2zM101.48.048v13.424h.736c.309 0 .544-.043.704-.128.171-.085.331-.24.48-.464l3.136-4.672a1.73 1.73 0 0 1 .64-.608c.256-.128.576-.192.96-.192h4.544l-4.288 5.904a4.477 4.477 0 0 1-.672.736 5.193 5.193 0 0 1-.768.576c.48.363.896.843 1.248 1.44L112.872 24h-4.48c-.373 0-.699-.059-.976-.176-.267-.128-.485-.347-.656-.656l-3.136-5.872c-.149-.267-.304-.437-.464-.512-.16-.085-.4-.128-.72-.128h-.96V24h-4.96V.048h4.96zM126.733 24c-.469 0-.826-.064-1.072-.192-.234-.128-.432-.395-.592-.8l-.352-.912c-.416.352-.816.661-1.2.928a7.916 7.916 0 0 1-1.2.688 5.68 5.68 0 0 1-1.312.4c-.458.096-.97.144-1.536.144a6.948 6.948 0 0 1-2.064-.288 4.493 4.493 0 0 1-1.584-.88 3.904 3.904 0 0 1-.992-1.424c-.234-.576-.352-1.237-.352-1.984 0-.587.15-1.19.448-1.808.299-.619.816-1.179 1.552-1.68.736-.512 1.728-.939 2.976-1.28 1.248-.341 2.822-.533 4.72-.576v-.704c0-.97-.202-1.67-.608-2.096-.394-.437-.96-.656-1.696-.656-.586 0-1.066.064-1.44.192a6.847 6.847 0 0 0-1.008.432c-.288.16-.57.304-.848.432-.277.128-.608.192-.992.192-.341 0-.634-.08-.88-.24a1.967 1.967 0 0 1-.56-.624l-.896-1.552a9.995 9.995 0 0 1 3.328-1.968c1.227-.437 2.539-.656 3.936-.656 1.003 0 1.904.165 2.704.496.811.32 1.494.773 2.048 1.36a5.785 5.785 0 0 1 1.296 2.064c.299.8.448 1.675.448 2.624V24h-2.272zm-5.696-3.024c.64 0 1.2-.112 1.68-.336.48-.224.966-.587 1.456-1.088v-2.304c-.992.043-1.808.128-2.448.256-.64.128-1.146.288-1.52.48-.373.192-.634.41-.784.656a1.605 1.605 0 0 0-.208.8c0 .565.155.965.464 1.2.31.224.763.336 1.36.336zm23.726-10.848h.864c.8 0 1.376-.25 1.728-.752l5.248-7.616c.288-.416.613-.699.976-.848.373-.15.827-.224 1.36-.224h4.704l-6.912 9.424a4.598 4.598 0 0 1-1.584 1.408c.405.15.773.357 1.104.624.341.256.651.603.928 1.04L160.219 24h-4.832a4.31 4.31 0 0 1-.8-.064 2.039 2.039 0 0 1-.56-.192 1.737 1.737 0 0 1-.416-.304 3.628 3.628 0 0 1-.336-.432l-5.28-8.112a1.533 1.533 0 0 0-.736-.624c-.288-.128-.683-.192-1.184-.192h-1.312V24h-5.408V.688h5.408v9.44zm24.335-2.976c1.259 0 2.406.197 3.44.592 1.035.395 1.92.96 2.656 1.696.747.736 1.323 1.632 1.728 2.688.416 1.045.624 2.224.624 3.536 0 1.323-.208 2.517-.624 3.584-.405 1.056-.981 1.957-1.728 2.704a7.646 7.646 0 0 1-2.656 1.712c-1.034.395-2.181.592-3.44.592-1.269 0-2.426-.197-3.472-.592a8.004 8.004 0 0 1-2.688-1.712c-.746-.747-1.328-1.648-1.744-2.704-.405-1.067-.608-2.261-.608-3.584 0-1.312.203-2.49.608-3.536.416-1.056.998-1.952 1.744-2.688a7.805 7.805 0 0 1 2.688-1.696c1.046-.395 2.203-.592 3.472-.592zm0 13.424c1.142 0 1.979-.4 2.512-1.2.544-.81.816-2.037.816-3.68 0-1.643-.272-2.864-.816-3.664-.533-.8-1.37-1.2-2.512-1.2-1.173 0-2.032.4-2.576 1.2-.544.8-.816 2.021-.816 3.664 0 1.643.272 2.87.816 3.68.544.8 1.403 1.2 2.576 1.2zm21.635-9.536a1.25 1.25 0 0 1-.416.432c-.139.085-.32.128-.544.128-.235 0-.47-.048-.704-.144a32.838 32.838 0 0 0-.768-.336 6.974 6.974 0 0 0-.912-.32 3.918 3.918 0 0 0-1.168-.16c-.63 0-1.115.123-1.456.368-.331.235-.496.565-.496.992 0 .31.106.565.32.768.224.203.517.384.88.544.362.15.773.293 1.232.432.458.139.928.293 1.408.464.48.17.949.373 1.408.608.458.224.869.507 1.232.848.362.33.65.736.864 1.216.224.48.336 1.056.336 1.728 0 .821-.15 1.579-.448 2.272a4.796 4.796 0 0 1-1.344 1.792c-.587.501-1.318.89-2.192 1.168-.864.277-1.862.416-2.992.416a9.118 9.118 0 0 1-1.696-.16 12.029 12.029 0 0 1-1.648-.432 9.511 9.511 0 0 1-1.456-.64 6.642 6.642 0 0 1-1.152-.816l1.152-1.824c.138-.213.304-.379.496-.496.192-.128.442-.192.752-.192.288 0 .544.064.768.192.234.128.485.267.752.416.266.15.576.288.928.416.362.128.816.192 1.36.192.384 0 .709-.037.976-.112.266-.085.48-.197.64-.336.16-.139.277-.293.352-.464.074-.17.112-.347.112-.528 0-.33-.112-.603-.336-.816a2.823 2.823 0 0 0-.88-.544 8.945 8.945 0 0 0-1.248-.432 30.753 30.753 0 0 1-1.408-.464 12.66 12.66 0 0 1-1.424-.608 5.179 5.179 0 0 1-1.232-.912 4.33 4.33 0 0 1-.88-1.36c-.224-.533-.336-1.179-.336-1.936 0-.704.133-1.37.4-2 .277-.64.688-1.2 1.232-1.68s1.226-.859 2.048-1.136c.821-.288 1.781-.432 2.88-.432a9.11 9.11 0 0 1 1.728.16 8.849 8.849 0 0 1 1.584.448c.49.192.938.421 1.344.688.405.256.762.539 1.072.848l-1.12 1.744zM206.459 24c-.47 0-.827-.064-1.072-.192-.235-.128-.432-.395-.592-.8l-.352-.912c-.416.352-.816.661-1.2.928a7.916 7.916 0 0 1-1.2.688 5.71 5.71 0 0 1-1.312.4 7.525 7.525 0 0 1-1.536.144 6.938 6.938 0 0 1-2.064-.288 4.476 4.476 0 0 1-1.584-.88 3.88 3.88 0 0 1-.992-1.424c-.235-.576-.352-1.237-.352-1.984 0-.587.149-1.19.448-1.808.298-.619.816-1.179 1.552-1.68.736-.512 1.728-.939 2.976-1.28 1.248-.341 2.821-.533 4.72-.576v-.704c0-.97-.203-1.67-.608-2.096-.395-.437-.96-.656-1.696-.656-.587 0-1.067.064-1.44.192-.374.128-.71.272-1.008.432-.288.16-.571.304-.848.432-.278.128-.608.192-.992.192-.342 0-.635-.08-.88-.24a1.943 1.943 0 0 1-.56-.624l-.896-1.552a9.986 9.986 0 0 1 3.328-1.968c1.226-.437 2.538-.656 3.936-.656 1.002 0 1.904.165 2.704.496.81.32 1.493.773 2.048 1.36a5.812 5.812 0 0 1 1.296 2.064c.298.8.448 1.675.448 2.624V24h-2.272zm-5.696-3.024c.64 0 1.2-.112 1.68-.336.48-.224.965-.587 1.456-1.088v-2.304c-.992.043-1.808.128-2.448.256-.64.128-1.147.288-1.52.48-.374.192-.635.41-.784.656a1.595 1.595 0 0 0-.208.8c0 .565.154.965.464 1.2.309.224.762.336 1.36.336zM217.532.048v13.424h.736c.31 0 .544-.043.704-.128.171-.085.331-.24.48-.464l3.136-4.672a1.74 1.74 0 0 1 .64-.608c.256-.128.576-.192.96-.192h4.544l-4.288 5.904a4.39 4.39 0 0 1-.672.736 5.09 5.09 0 0 1-.768.576c.48.363.896.843 1.248 1.44L228.924 24h-4.48c-.373 0-.698-.059-.976-.176-.266-.128-.485-.347-.656-.656l-3.136-5.872c-.149-.267-.304-.437-.464-.512-.16-.085-.4-.128-.72-.128h-.96V24h-4.96V.048h4.96zm18.438 7.36v10.528c0 .821.187 1.456.56 1.904.373.448.923.672 1.648.672.544 0 1.051-.112 1.52-.336.48-.224.944-.539 1.392-.944V7.408h4.96V24h-3.072c-.619 0-1.024-.277-1.216-.832l-.304-.96c-.32.31-.651.592-.992.848a6.598 6.598 0 0 1-1.104.64c-.384.17-.8.304-1.248.4-.448.107-.939.16-1.472.16-.907 0-1.712-.155-2.416-.464a5.06 5.06 0 0 1-1.76-1.328 5.751 5.751 0 0 1-1.088-2c-.245-.768-.368-1.61-.368-2.528V7.408h4.96zm24.386 3.632c-.128.203-.266.347-.416.432-.138.085-.32.128-.544.128a1.85 1.85 0 0 1-.704-.144c-.234-.107-.49-.219-.768-.336a6.87 6.87 0 0 0-.912-.32 3.909 3.909 0 0 0-1.168-.16c-.629 0-1.114.123-1.456.368-.33.235-.496.565-.496.992 0 .31.107.565.32.768.224.203.518.384.88.544.363.15.774.293 1.232.432.459.139.928.293 1.408.464.48.17.95.373 1.408.608.459.224.87.507 1.232.848.363.33.651.736.864 1.216.224.48.336 1.056.336 1.728 0 .821-.149 1.579-.448 2.272a4.775 4.775 0 0 1-1.344 1.792c-.586.501-1.317.89-2.192 1.168-.864.277-1.861.416-2.992.416-.565 0-1.13-.053-1.696-.16a12.105 12.105 0 0 1-1.648-.432 9.555 9.555 0 0 1-1.456-.64 6.642 6.642 0 0 1-1.152-.816l1.152-1.824c.139-.213.304-.379.496-.496.192-.128.443-.192.752-.192.288 0 .544.064.768.192.235.128.486.267.752.416.267.15.576.288.928.416.363.128.816.192 1.36.192.384 0 .71-.037.976-.112.267-.085.48-.197.64-.336.16-.139.278-.293.352-.464a1.3 1.3 0 0 0 .112-.528c0-.33-.112-.603-.336-.816a2.811 2.811 0 0 0-.88-.544 8.855 8.855 0 0 0-1.248-.432 31.162 31.162 0 0 1-1.408-.464 12.74 12.74 0 0 1-1.424-.608 5.219 5.219 0 0 1-1.232-.912 4.348 4.348 0 0 1-.88-1.36c-.224-.533-.336-1.179-.336-1.936 0-.704.134-1.37.4-2 .278-.64.688-1.2 1.232-1.68s1.227-.859 2.048-1.136c.822-.288 1.782-.432 2.88-.432.598 0 1.174.053 1.728.16a8.802 8.802 0 0 1 1.584.448c.491.192.939.421 1.344.688.406.256.763.539 1.072.848l-1.12 1.744zm4.27 12.96V.048h4.96v8.816a7.948 7.948 0 0 1 1.936-1.232c.704-.32 1.542-.48 2.512-.48.907 0 1.707.16 2.4.48.704.31 1.296.747 1.776 1.312.48.555.843 1.221 1.088 2 .246.768.368 1.605.368 2.512V24h-4.96V13.456c0-.81-.186-1.44-.56-1.888-.373-.459-.922-.688-1.648-.688a3.45 3.45 0 0 0-1.536.352c-.48.235-.938.55-1.376.944V24h-4.96zm26.275-16.848c1.258 0 2.405.197 3.44.592a7.47 7.47 0 0 1 2.656 1.696c.746.736 1.322 1.632 1.728 2.688.416 1.045.624 2.224.624 3.536 0 1.323-.208 2.517-.624 3.584-.406 1.056-.982 1.957-1.728 2.704a7.655 7.655 0 0 1-2.656 1.712c-1.035.395-2.182.592-3.44.592-1.27 0-2.427-.197-3.472-.592a7.984 7.984 0 0 1-2.688-1.712c-.747-.747-1.328-1.648-1.744-2.704-.406-1.067-.608-2.261-.608-3.584 0-1.312.202-2.49.608-3.536.416-1.056.997-1.952 1.744-2.688a7.786 7.786 0 0 1 2.688-1.696c1.045-.395 2.202-.592 3.472-.592zm0 13.424c1.141 0 1.978-.4 2.512-1.2.544-.81.816-2.037.816-3.68 0-1.643-.272-2.864-.816-3.664-.534-.8-1.371-1.2-2.512-1.2-1.174 0-2.032.4-2.576 1.2-.544.8-.816 2.021-.816 3.664 0 1.643.272 2.87.816 3.68.544.8 1.402 1.2 2.576 1.2z" fill="#121111"/></svg>