<svg width="214" height="21" fill="none" xmlns="http://www.w3.org/2000/svg"><path d="M4.954 12.993V20H.56V1.059h6.162c1.37 0 2.535.143 3.497.429.97.277 1.76.667 2.366 1.17a4.43 4.43 0 0 1 1.339 1.781 5.9 5.9 0 0 1 .416 2.236c0 .615-.082 1.196-.247 1.742a5.273 5.273 0 0 1-.741 1.521c-.32.46-.72.871-1.196 1.235a6.238 6.238 0 0 1-1.625.897c.295.147.568.33.819.546.26.217.485.481.676.793L16.056 20h-3.978c-.737 0-1.265-.277-1.586-.832l-3.146-5.499c-.139-.243-.303-.416-.494-.52-.182-.104-.442-.156-.78-.156H4.954zm0-3.029h1.768c.598 0 1.105-.074 1.521-.221a2.82 2.82 0 0 0 1.04-.637c.269-.269.464-.58.585-.936.121-.364.182-.754.182-1.17 0-.832-.273-1.482-.819-1.95-.537-.468-1.374-.702-2.509-.702H4.954v5.616zM27.419 20c-.381 0-.672-.052-.871-.156-.19-.104-.351-.32-.481-.65l-.286-.741a13 13 0 0 1-.975.754 6.431 6.431 0 0 1-.975.559c-.33.147-.685.256-1.066.325a6.11 6.11 0 0 1-1.248.117 5.643 5.643 0 0 1-1.677-.234 3.641 3.641 0 0 1-1.287-.715 3.162 3.162 0 0 1-.806-1.157c-.19-.468-.286-1.005-.286-1.612 0-.477.121-.966.364-1.469.243-.503.663-.958 1.261-1.365.598-.416 1.404-.763 2.418-1.04 1.014-.277 2.292-.433 3.835-.468v-.572c0-.789-.165-1.356-.494-1.703-.32-.355-.78-.533-1.378-.533-.477 0-.867.052-1.17.156a5.541 5.541 0 0 0-.819.351c-.234.13-.464.247-.689.351a1.91 1.91 0 0 1-.806.156 1.28 1.28 0 0 1-.715-.195 1.588 1.588 0 0 1-.455-.507l-.728-1.261a8.119 8.119 0 0 1 2.704-1.599 9.453 9.453 0 0 1 3.198-.533c.815 0 1.547.134 2.197.403a4.55 4.55 0 0 1 1.664 1.105 4.71 4.71 0 0 1 1.053 1.677c.243.65.364 1.36.364 2.132V20h-1.846zm-4.628-2.457c.52 0 .975-.091 1.365-.273.39-.182.784-.477 1.183-.884v-1.872c-.806.035-1.469.104-1.989.208s-.932.234-1.235.39c-.303.156-.516.334-.637.533-.113.2-.169.416-.169.65 0 .46.126.784.377.975.251.182.62.273 1.105.273zM32.387 20V6.519h2.496c.251 0 .459.056.624.169a.891.891 0 0 1 .364.507l.234.78c.26-.243.528-.468.806-.676a4.55 4.55 0 0 1 .884-.52c.32-.147.663-.26 1.027-.338.372-.087.775-.13 1.209-.13.736 0 1.386.13 1.95.39a3.946 3.946 0 0 1 1.443 1.066c.39.45.684.992.884 1.625.199.624.299 1.304.299 2.041V20h-4.03v-8.567c0-.659-.152-1.17-.455-1.534-.304-.373-.75-.559-1.34-.559-.441 0-.857.095-1.247.286-.39.19-.763.446-1.118.767V20h-4.03zM57.453 9.717a2.234 2.234 0 0 1-.351.351c-.113.087-.273.13-.481.13-.2 0-.382-.048-.546-.143-.156-.095-.334-.2-.533-.312-.2-.121-.434-.23-.702-.325-.269-.095-.603-.143-1.001-.143-.494 0-.923.091-1.287.273a2.38 2.38 0 0 0-.884.78c-.234.338-.408.754-.52 1.248a7.327 7.327 0 0 0-.17 1.651c0 1.291.248 2.284.742 2.977.502.693 1.191 1.04 2.067 1.04.468 0 .836-.056 1.105-.169a3.75 3.75 0 0 0 .702-.39l.52-.403a1 1 0 0 1 .61-.182c.321 0 .564.117.729.351l1.17 1.443a6.536 6.536 0 0 1-1.313 1.17c-.46.295-.932.529-1.417.702a7.112 7.112 0 0 1-1.443.338 9.93 9.93 0 0 1-1.417.104 6.128 6.128 0 0 1-2.366-.468 5.909 5.909 0 0 1-1.976-1.352c-.564-.598-1.014-1.33-1.352-2.197-.33-.867-.494-1.855-.494-2.964 0-.97.143-1.876.429-2.717a6.234 6.234 0 0 1 1.287-2.197 6.022 6.022 0 0 1 2.106-1.469c.84-.355 1.811-.533 2.912-.533 1.057 0 1.984.169 2.782.507A6.676 6.676 0 0 1 58.519 8.3l-1.066 1.417zM60.633 20V.539h4.03v7.163a6.442 6.442 0 0 1 1.573-1.001c.572-.26 1.252-.39 2.041-.39.737 0 1.387.13 1.95.39a3.946 3.946 0 0 1 1.443 1.066c.39.45.685.992.884 1.625.2.624.3 1.304.3 2.041V20h-4.03v-8.567c0-.659-.153-1.17-.456-1.534-.303-.373-.75-.559-1.339-.559a2.8 2.8 0 0 0-1.248.286c-.39.19-.763.446-1.118.767V20h-4.03zM81.981 6.311c1.023 0 1.955.16 2.795.481.84.32 1.56.78 2.158 1.378a6.077 6.077 0 0 1 1.404 2.184c.338.85.507 1.807.507 2.873 0 1.075-.169 2.045-.507 2.912a6.207 6.207 0 0 1-1.404 2.197 6.214 6.214 0 0 1-2.158 1.391c-.84.32-1.772.481-2.795.481-1.031 0-1.971-.16-2.82-.481a6.493 6.493 0 0 1-2.185-1.391 6.36 6.36 0 0 1-1.417-2.197c-.33-.867-.494-1.837-.494-2.912 0-1.066.165-2.024.494-2.873a6.225 6.225 0 0 1 1.417-2.184 6.332 6.332 0 0 1 2.184-1.378c.85-.32 1.79-.481 2.821-.481zm0 10.907c.928 0 1.608-.325 2.041-.975.442-.659.663-1.655.663-2.99 0-1.335-.22-2.327-.663-2.977-.433-.65-1.113-.975-2.04-.975-.954 0-1.652.325-2.094.975-.442.65-.663 1.642-.663 2.977s.221 2.331.663 2.99c.442.65 1.14.975 2.093.975zm25.18-12.311c-.13.208-.269.364-.416.468-.139.104-.321.156-.546.156-.2 0-.416-.06-.65-.182-.226-.13-.486-.273-.78-.429a5.864 5.864 0 0 0-.988-.416 3.861 3.861 0 0 0-1.274-.195c-.824 0-1.439.178-1.846.533-.399.347-.598.819-.598 1.417 0 .381.121.698.364.949.242.251.559.468.949.65.398.182.849.351 1.352.507.511.147 1.031.316 1.56.507.528.182 1.044.399 1.547.65.511.251.962.572 1.352.962.398.39.719.867.962 1.43.242.555.364 1.226.364 2.015 0 .875-.152 1.694-.455 2.457a5.793 5.793 0 0 1-1.326 2.002c-.572.563-1.283 1.01-2.132 1.339-.841.32-1.799.481-2.873.481a9.33 9.33 0 0 1-1.807-.182 11.154 11.154 0 0 1-1.768-.507 10.68 10.68 0 0 1-1.612-.793 6.847 6.847 0 0 1-1.313-1.014l1.3-2.054a1.142 1.142 0 0 1 .962-.52c.26 0 .52.082.78.247.268.165.567.347.897.546.338.2.723.381 1.157.546.433.165.944.247 1.534.247.797 0 1.417-.173 1.859-.52.442-.355.663-.914.663-1.677 0-.442-.122-.802-.364-1.079a2.809 2.809 0 0 0-.962-.689 8.578 8.578 0 0 0-1.339-.481 48.443 48.443 0 0 1-1.547-.455 12.514 12.514 0 0 1-1.547-.624 5.168 5.168 0 0 1-1.352-.975 4.715 4.715 0 0 1-.95-1.508c-.242-.607-.363-1.352-.363-2.236a5.369 5.369 0 0 1 1.69-3.887c.554-.529 1.235-.949 2.04-1.261.807-.32 1.73-.481 2.77-.481.58 0 1.144.048 1.69.143a8.214 8.214 0 0 1 1.573.403c.494.173.953.386 1.378.637.433.243.819.52 1.157.832l-1.092 2.041zm9.801 1.404c1.023 0 1.955.16 2.795.481.841.32 1.56.78 2.158 1.378a6.069 6.069 0 0 1 1.404 2.184c.338.85.507 1.807.507 2.873 0 1.075-.169 2.045-.507 2.912a6.199 6.199 0 0 1-1.404 2.197 6.212 6.212 0 0 1-2.158 1.391c-.84.32-1.772.481-2.795.481-1.031 0-1.971-.16-2.821-.481a6.505 6.505 0 0 1-2.184-1.391 6.369 6.369 0 0 1-1.417-2.197c-.329-.867-.494-1.837-.494-2.912 0-1.066.165-2.024.494-2.873a6.233 6.233 0 0 1 1.417-2.184 6.344 6.344 0 0 1 2.184-1.378c.85-.32 1.79-.481 2.821-.481zm0 10.907c.928 0 1.608-.325 2.041-.975.442-.659.663-1.655.663-2.99 0-1.335-.221-2.327-.663-2.977-.433-.65-1.113-.975-2.041-.975-.953 0-1.651.325-2.093.975-.442.65-.663 1.642-.663 2.977s.221 2.331.663 2.99c.442.65 1.14.975 2.093.975zM126.298 20V6.519h2.496c.252 0 .46.056.624.169a.887.887 0 0 1 .364.507l.221.728c.226-.234.46-.446.702-.637.243-.2.503-.368.78-.507.286-.147.59-.26.91-.338.33-.087.689-.13 1.079-.13.815 0 1.487.212 2.015.637.538.416.945.975 1.222 1.677.226-.416.499-.771.819-1.066.33-.295.681-.533 1.053-.715.382-.182.78-.316 1.196-.403.425-.087.845-.13 1.261-.13.772 0 1.456.117 2.054.351a3.757 3.757 0 0 1 1.495 1.001c.408.433.715.97.923 1.612.208.633.312 1.352.312 2.158V20h-4.03v-8.567c0-1.395-.598-2.093-1.794-2.093-.546 0-1.001.182-1.365.546-.355.355-.533.871-.533 1.547V20h-4.03v-8.567c0-.771-.151-1.313-.455-1.625-.303-.312-.749-.468-1.339-.468-.364 0-.71.082-1.04.247a3.84 3.84 0 0 0-.91.663V20h-4.03zm22.655 0V.539h4.03v7.41a6.07 6.07 0 0 1 1.703-1.183c.641-.303 1.391-.455 2.249-.455.702 0 1.352.152 1.95.455.598.303 1.114.75 1.547 1.339.433.58.771 1.296 1.014 2.145.251.85.377 1.816.377 2.899 0 1.014-.143 1.95-.429 2.808a6.886 6.886 0 0 1-1.183 2.236 5.365 5.365 0 0 1-1.82 1.482c-.702.355-1.482.533-2.34.533-.399 0-.758-.039-1.079-.117a4.02 4.02 0 0 1-.871-.325 4.27 4.27 0 0 1-.728-.52 8.992 8.992 0 0 1-.637-.65l-.143.676c-.061.277-.173.468-.338.572-.156.104-.364.156-.624.156h-2.678zm6.578-10.66c-.295 0-.563.03-.806.091-.234.052-.455.13-.663.234a2.469 2.469 0 0 0-.559.403 5.284 5.284 0 0 0-.52.546v5.72c.303.338.633.576.988.715.355.13.728.195 1.118.195.373 0 .715-.074 1.027-.221a2.06 2.06 0 0 0 .806-.702c.234-.33.416-.754.546-1.274.13-.52.195-1.153.195-1.898 0-.71-.052-1.309-.156-1.794-.104-.485-.251-.875-.442-1.17-.182-.303-.403-.52-.663-.65a1.92 1.92 0 0 0-.871-.195zM164.295 20V6.519h2.392c.199 0 .364.017.494.052a.777.777 0 0 1 .338.169c.095.07.165.165.208.286.052.121.095.269.13.442l.221 1.261c.494-.763 1.049-1.365 1.664-1.807a3.38 3.38 0 0 1 2.015-.663c.615 0 1.109.147 1.482.442l-.52 2.964c-.035.182-.104.312-.208.39a.74.74 0 0 1-.416.104c-.147 0-.321-.017-.52-.052a3.64 3.64 0 0 0-.754-.065c-1.057 0-1.889.563-2.496 1.69V20h-4.03zm16.772-13.689c.893 0 1.708.139 2.444.416.746.277 1.383.68 1.911 1.209a5.373 5.373 0 0 1 1.248 1.95c.304.763.455 1.63.455 2.6 0 .303-.013.55-.039.741-.026.19-.073.342-.143.455a.538.538 0 0 1-.286.234 1.25 1.25 0 0 1-.442.065h-7.774c.13 1.127.473 1.946 1.027 2.457.555.503 1.27.754 2.145.754.468 0 .871-.056 1.209-.169a5.82 5.82 0 0 0 .897-.377c.269-.139.512-.264.728-.377a1.55 1.55 0 0 1 .702-.169c.321 0 .564.117.728.351l1.17 1.443a6.052 6.052 0 0 1-1.352 1.17c-.476.295-.97.529-1.482.702a7.823 7.823 0 0 1-1.521.338c-.502.07-.983.104-1.443.104a7.723 7.723 0 0 1-2.665-.455 6.267 6.267 0 0 1-2.171-1.378c-.615-.607-1.105-1.36-1.469-2.262-.355-.901-.533-1.95-.533-3.146 0-.901.152-1.755.455-2.561a6.447 6.447 0 0 1 1.326-2.119 6.414 6.414 0 0 1 2.093-1.443c.824-.355 1.751-.533 2.782-.533zm.078 2.782c-.771 0-1.373.221-1.807.663-.433.433-.719 1.062-.858 1.885h5.031c0-.32-.043-.633-.13-.936a2.074 2.074 0 0 0-.403-.806 1.956 1.956 0 0 0-.728-.585c-.303-.147-.671-.221-1.105-.221zM189.698 20V6.519h2.392c.199 0 .364.017.494.052a.783.783 0 0 1 .338.169c.095.07.164.165.208.286.052.121.095.269.13.442l.221 1.261c.494-.763 1.048-1.365 1.664-1.807a3.38 3.38 0 0 1 2.015-.663c.615 0 1.109.147 1.482.442l-.52 2.964c-.035.182-.104.312-.208.39a.74.74 0 0 1-.416.104c-.148 0-.321-.017-.52-.052a3.647 3.647 0 0 0-.754-.065c-1.058 0-1.89.563-2.496 1.69V20h-4.03zm17.006-13.689c1.023 0 1.954.16 2.795.481.841.32 1.56.78 2.158 1.378a6.069 6.069 0 0 1 1.404 2.184c.338.85.507 1.807.507 2.873 0 1.075-.169 2.045-.507 2.912a6.199 6.199 0 0 1-1.404 2.197 6.212 6.212 0 0 1-2.158 1.391c-.841.32-1.772.481-2.795.481-1.031 0-1.972-.16-2.821-.481a6.485 6.485 0 0 1-2.184-1.391 6.355 6.355 0 0 1-1.417-2.197c-.329-.867-.494-1.837-.494-2.912 0-1.066.165-2.024.494-2.873a6.22 6.22 0 0 1 1.417-2.184 6.325 6.325 0 0 1 2.184-1.378c.849-.32 1.79-.481 2.821-.481zm0 10.907c.927 0 1.608-.325 2.041-.975.442-.659.663-1.655.663-2.99 0-1.335-.221-2.327-.663-2.977-.433-.65-1.114-.975-2.041-.975-.953 0-1.651.325-2.093.975-.442.65-.663 1.642-.663 2.977s.221 2.331.663 2.99c.442.65 1.14.975 2.093.975z" fill="#121111"/></svg>