<svg width="117" height="25" fill="none" xmlns="http://www.w3.org/2000/svg"><path d="M6.328 11.128h.864c.8 0 1.376-.25 1.728-.752l5.248-7.616c.288-.416.613-.699.976-.848.373-.15.827-.224 1.36-.224h4.704l-6.912 9.424a4.62 4.62 0 0 1-1.584 1.408c.405.15.773.357 1.104.624.341.256.65.603.928 1.04L21.784 25h-4.832c-.31 0-.576-.021-.8-.064a2.035 2.035 0 0 1-.56-.192 1.743 1.743 0 0 1-.416-.304 3.567 3.567 0 0 1-.336-.432l-5.28-8.112a1.535 1.535 0 0 0-.736-.624c-.288-.128-.683-.192-1.184-.192H6.328V25H.92V1.688h5.408v9.44zm22.876-2.72V25h-4.96V8.408h4.96zm.576-4.544c0 .395-.08.768-.24 1.12a3.07 3.07 0 0 1-.656.912 3.397 3.397 0 0 1-.976.624c-.363.15-.752.224-1.168.224-.406 0-.784-.075-1.136-.224a3.544 3.544 0 0 1-.944-.624 3.204 3.204 0 0 1-.64-.912 2.839 2.839 0 0 1-.224-1.12c0-.405.074-.784.224-1.136.16-.352.373-.661.64-.928a3.08 3.08 0 0 1 .944-.624c.352-.15.73-.224 1.136-.224.416 0 .805.075 1.168.224a2.998 2.998 0 0 1 1.632 1.552c.16.352.24.73.24 1.136zM33.529 25V1.688h8.576c1.61 0 2.981.15 4.112.448 1.13.299 2.053.72 2.768 1.264.714.544 1.232 1.205 1.552 1.984.33.779.496 1.648.496 2.608 0 .523-.075 1.03-.224 1.52a4.49 4.49 0 0 1-.704 1.36c-.32.427-.73.816-1.232 1.168a8.191 8.191 0 0 1-1.808.896c1.536.373 2.672.981 3.408 1.824.736.832 1.104 1.904 1.104 3.216 0 .992-.192 1.915-.576 2.768-.384.853-.95 1.6-1.696 2.24-.736.63-1.648 1.125-2.736 1.488-1.088.352-2.33.528-3.728.528h-9.312zm5.408-9.888v5.808h3.808c.714 0 1.296-.09 1.744-.272.458-.181.816-.416 1.072-.704a2.36 2.36 0 0 0 .528-.976c.096-.363.144-.73.144-1.104 0-.427-.059-.81-.176-1.152a1.825 1.825 0 0 0-.576-.864c-.267-.235-.624-.416-1.072-.544-.448-.128-1.014-.192-1.696-.192h-3.776zm0-3.616h2.816c.597 0 1.136-.043 1.616-.128.48-.085.885-.235 1.216-.448.341-.213.597-.507.768-.88.181-.373.272-.843.272-1.408 0-.555-.07-1.013-.208-1.376a1.978 1.978 0 0 0-.64-.896c-.288-.224-.656-.384-1.104-.48a7.408 7.408 0 0 0-1.568-.144h-3.168v5.76zm30.92-9.808v4.16h-9.568v5.44h7.328v4h-7.328v5.552h9.568V25H54.849V1.688h15.008zm8.814 14.688V25h-5.409V1.688h7.585c1.685 0 3.12.176 4.303.528 1.195.341 2.166.821 2.912 1.44.758.619 1.307 1.35 1.648 2.192.342.843.513 1.76.513 2.752 0 .757-.102 1.472-.305 2.144a6.49 6.49 0 0 1-.912 1.872 6.837 6.837 0 0 1-1.472 1.52 7.677 7.677 0 0 1-2 1.104c.363.181.7.405 1.008.672.32.267.598.592.832.976L92.334 25H87.44c-.907 0-1.558-.341-1.952-1.024l-3.872-6.768c-.171-.299-.374-.512-.608-.64-.225-.128-.544-.192-.96-.192H78.67zm0-3.728h2.175c.736 0 1.36-.09 1.873-.272.522-.192.949-.453 1.28-.784.33-.33.57-.715.72-1.152.149-.448.224-.928.224-1.44 0-1.024-.337-1.824-1.008-2.4-.662-.576-1.691-.864-3.088-.864H78.67v6.912zM116.56 25h-4.192c-.47 0-.859-.107-1.168-.32a1.75 1.75 0 0 1-.624-.848l-1.376-4.064h-8.864l-1.376 4.064c-.107.299-.315.57-.624.816-.31.235-.688.352-1.136.352h-4.224L102 1.688h5.536L116.56 25zm-14.976-8.912h6.368l-2.144-6.384c-.139-.405-.304-.88-.496-1.424a45.368 45.368 0 0 1-.544-1.792c-.171.65-.347 1.253-.528 1.808a26.437 26.437 0 0 1-.512 1.44l-2.144 6.352z" fill="#121111"/></svg>