<svg fill="none" height="30" viewBox="0 0 157 30" width="157" xmlns="http://www.w3.org/2000/svg"><g fill="#121111"><path d="m26.032.783991v23.216009h-4.24v-14.25601c0-.29866.0053-.61866.016-.96.0213-.34133.0533-.688.096-1.04l-6.64 12.59201c-.3627.6933-.9227 1.04-1.68 1.04h-.672c-.3733 0-.704-.0853-.992-.256-.288-.1813-.5173-.4427-.688-.784l-6.67199-12.64001c.032.37334.05866.736.08 1.088.02133.34134.032.66134.032.96v14.25601h-4.240003v-23.216009h3.648003c.20266 0 .384.005333.544.016001.16.010666.29866.042665.416.095998.128.042668.24.11733.336.224.10666.096.208.23467.304.416l6.49599 12.38401c.2027.3733.3893.7573.56 1.152.1813.3947.352.8.512 1.216.16-.4267.3253-.8427.496-1.248.1813-.4053.3733-.7947.576-1.168l6.448-12.33601c.096-.18133.1973-.32.304-.416.1067-.10667.2187-.181332.336-.224.128-.053333.2667-.085332.416-.095998.16-.010668.3467-.016001.56-.016001z"/><path d="m44.8938 7.50399-8.896 20.92801c-.1387.2987-.3094.5227-.512.672-.192.1493-.5014.224-.928.224h-3.28l3.12-6.656-6.624-15.16801h3.872c.352 0 .624.08.816.24s.3306.34667.416.56l3.136 7.88801c.1173.3093.2186.624.304.944.096.3093.1866.6187.272.928.192-.6293.4106-1.2587.656-1.888l2.912-7.87201c.0853-.23466.24-.42666.464-.576.224-.14933.4693-.224.736-.224z"/><path d="m53.8998 11.776c.7786 0 1.4506-.096 2.016-.288.5653-.2027 1.0293-.4747 1.392-.816.3626-.352.6293-.76268.8-1.23201.1706-.46933.256-.98133.256-1.536 0-1.09867-.368-1.952-1.104-2.56-.7254-.608-1.8347-.912-3.328-.912h-2.496v7.34401zm11.248 12.224h-4.336c-.8107 0-1.3974-.3093-1.76-.928l-4.416-7.12c-.1814-.2773-.384-.48-.608-.608-.2134-.128-.5334-.192-.96-.192h-1.632v8.848h-4.8v-23.216009h7.296c1.6213 0 3.008.170667 4.16.511999 1.152.33067 2.096.79467 2.832 1.392.736.59734 1.2746 1.312 1.616 2.144.3413.82133.512 1.728.512 2.72 0 .768-.112 1.49867-.336 2.192-.2134.68271-.528 1.30671-.944 1.87201s-.928 1.0667-1.536 1.504-1.3014.7893-2.08 1.056c.3093.1707.5973.3787.864.624.2666.2347.5066.5173.72.848z"/><path d="m75.8593 13.808c0-.4587-.064-.896-.192-1.312-.1174-.416-.3094-.784-.576-1.104-.2667-.32-.6027-.5707-1.008-.752-.4054-.192-.8907-.288-1.456-.288-1.056 0-1.8827.2987-2.48.896-.5974.5973-.9867 1.4507-1.168 2.56zm-6.944 2.624c.1386 1.5467.576 2.6773 1.312 3.392.7466.7147 1.7173 1.072 2.912 1.072.608 0 1.1306-.0693 1.568-.208.448-.1493.8373-.3093 1.168-.48.3413-.1813.6453-.3413.912-.48.2773-.1493.5493-.224.816-.224.3413 0 .608.128.8.384l1.28 1.6c-.4694.544-.9867.9973-1.552 1.36-.5654.352-1.152.6347-1.76.848-.608.2027-1.2214.3413-1.84.416-.6187.0853-1.216.128-1.792.128-1.152 0-2.2294-.1867-3.232-.56-.992-.384-1.8614-.944-2.608-1.68-.736-.7467-1.3174-1.6693-1.744-2.768-.4267-1.0987-.64-2.3733-.64-3.824 0-1.12.1813-2.176.544-3.168.3733-.992.9066-1.856 1.6-2.59201.6933-.736 1.536-1.31733 2.528-1.744.992-.43733 2.112-.656 3.36-.656 1.056 0 2.0266.17067 2.912.512.896.33067 1.664.816 2.304 1.456.6506.64 1.152 1.42931 1.504 2.36801.3626.928.544 1.9893.544 3.184 0 .3307-.016.6027-.048.816s-.0854.384-.16.512c-.0747.128-.176.2187-.304.272-.128.0427-.2934.064-.496.064z"/><path d="m90.8555 17.104c-1.0773.0533-1.9733.1493-2.688.288-.7147.128-1.2853.2987-1.712.512-.416.2133-.7147.4587-.896.736-.1707.2667-.256.56-.256.88 0 .64.176 1.0933.528 1.36.3627.2667.864.4 1.504.4.736 0 1.3707-.128 1.904-.384.544-.2667 1.0827-.6773 1.616-1.232zm-8.992-7.31201c.9707-.87466 2.0427-1.52533 3.216-1.952 1.1733-.43733 2.4427-.656 3.808-.656.9813 0 1.856.16 2.624.48.7787.32 1.4347.768 1.968 1.344.544.56533.96 1.24271 1.248 2.03201s.432 1.6533.432 2.592v10.368h-2.016c-.416 0-.736-.0587-.96-.176-.2133-.1173-.3893-.3627-.528-.736l-.352-1.056c-.416.3627-.8213.6827-1.216.96-.384.2773-.784.512-1.2.704-.416.1813-.864.32-1.344.416-.4693.096-.9973.144-1.584.144-.7253 0-1.3867-.096-1.984-.288s-1.1147-.4747-1.552-.848c-.4267-.384-.7573-.8587-.992-1.424s-.352-1.216-.352-1.952c0-.608.1547-1.216.464-1.824s.8373-1.1573 1.584-1.648c.7573-.5013 1.76-.912 3.008-1.232 1.2587-.3307 2.832-.5173 4.72-.56v-.848c0-1.0347-.2187-1.792-.656-2.272-.4373-.4907-1.0667-.736-1.888-.736-.608 0-1.1147.0747-1.52.224-.4053.1387-.7627.2933-1.072.464-.2987.16-.5813.3147-.848.464-.2667.1387-.576.208-.928.208-.3093 0-.5707-.0747-.784-.224-.2027-.16-.3733-.3467-.512-.56z"/><path d="m102.735.143991v23.856009h-4.4165v-23.856009z"/><path d="m122.85 4.65599h-6.784v19.34401h-4.816v-19.34401h-6.784v-3.871999h18.384z"/><path d="m125.853 10.224c.523-.93868 1.125-1.68001 1.808-2.22401s1.483-.816 2.4-.816c.747 0 1.355.176 1.824.528l-.288 3.26401c-.053.2133-.139.3627-.256.448-.107.0747-.256.112-.448.112-.171 0-.416-.0213-.736-.064-.32-.0533-.619-.08-.896-.08-.405 0-.768.0587-1.088.176-.309.1173-.587.2827-.832.496s-.469.4747-.672.784c-.192.3093-.373.6613-.544 1.056v10.096h-4.416v-16.49601h2.608c.448 0 .757.08.928.24s.293.43734.368.832z"/><path d="m137.995 7.50399v16.49601h-4.416v-16.49601zm.528-4.688c0 .37333-.074.72-.224 1.04-.149.32-.352.60267-.608.848-.245.24533-.538.43733-.879.576-.331.13867-.688.208-1.072.208-.363 0-.71-.06933-1.04-.208-.32-.13867-.603-.33067-.848-.576-.246-.24533-.443-.528-.592-.848-.139-.32-.209-.66667-.209-1.04s.07-.72.209-1.04c.149-.33067.346-.61867.592-.863999.245-.245333.528-.437333.848-.576.33-.138667.677-.208 1.04-.208.384 0 .741.069333 1.072.208.341.138667.634.330667.879.576.256.245329.459.533329.608.863999.15.32.224.66667.224 1.04z"/><path d="m145.86 19.648c.416.48.864.816 1.344 1.008.491.192 1.013.288 1.568.288.533 0 1.019-.1013 1.456-.304s.811-.5173 1.12-.944c.32-.4373.565-.992.736-1.664s.256-1.472.256-2.4c0-.9173-.075-1.696-.224-2.336-.139-.64-.341-1.1573-.608-1.552-.256-.3947-.571-.6773-.944-.848-.373-.1813-.789-.272-1.248-.272-.779 0-1.435.1547-1.968.464-.523.2987-1.019.7413-1.488 1.328zm-.256-9.98401c.331-.36267.683-.69333 1.056-.992.373-.30933.773-.57067 1.2-.784.427-.224.885-.39466 1.376-.512.491-.128 1.024-.192 1.6-.192.885 0 1.696.192 2.432.576.747.37333 1.387.92267 1.92 1.648.533.71471.949 1.59471 1.248 2.64001s.448 2.24.448 3.584c0 1.2373-.171 2.384-.512 3.44-.331 1.0453-.805 1.952-1.424 2.72s-1.365 1.3707-2.24 1.808c-.864.4267-1.829.64-2.896.64-.896 0-1.659-.1333-2.288-.4-.619-.2667-1.173-.6293-1.664-1.088v6.576h-4.416v-21.82401h2.72c.555 0 .923.256 1.104.768z"/></g></svg>