<svg width="157" height="25" fill="none" xmlns="http://www.w3.org/2000/svg"><path d="M10.478 16.828c.607 0 1.144-.052 1.612-.156.468-.104.91-.243 1.326-.416v-2.873h-1.872c-.277 0-.494-.074-.65-.221a.736.736 0 0 1-.234-.559v-2.418h6.734v7.995a10.16 10.16 0 0 1-1.521.923c-.52.251-1.079.46-1.677.624a12.26 12.26 0 0 1-1.898.364c-.667.078-1.387.117-2.158.117-1.387 0-2.67-.243-3.848-.728a9.565 9.565 0 0 1-3.068-2.028 9.565 9.565 0 0 1-2.028-3.068C.711 13.197.468 11.91.468 10.523c0-1.413.234-2.708.702-3.887a8.801 8.801 0 0 1 2.002-3.068C4.047 2.71 5.1 2.043 6.331 1.566c1.24-.477 2.622-.715 4.147-.715.789 0 1.53.065 2.223.195.693.13 1.33.308 1.911.533a8.748 8.748 0 0 1 2.912 1.82L16.25 5.336a1.389 1.389 0 0 1-.442.429 1.002 1.002 0 0 1-.546.156c-.26 0-.529-.087-.806-.26a11.367 11.367 0 0 0-.988-.533 5.418 5.418 0 0 0-.936-.377 6.178 6.178 0 0 0-1.014-.208 9.95 9.95 0 0 0-1.196-.065c-.823 0-1.564.147-2.223.442a4.76 4.76 0 0 0-1.69 1.222c-.46.529-.815 1.166-1.066 1.911-.251.737-.377 1.56-.377 2.47 0 1.005.139 1.898.416 2.678.277.78.659 1.439 1.144 1.976a5.036 5.036 0 0 0 1.742 1.235 5.768 5.768 0 0 0 2.21.416zM24.49 6.519V20h-4.03V6.519h4.03zm.468-3.692c0 .32-.065.624-.195.91-.13.277-.308.524-.533.741-.226.208-.49.377-.793.507a2.468 2.468 0 0 1-.95.182c-.329 0-.636-.06-.922-.182a2.878 2.878 0 0 1-.767-.507 2.601 2.601 0 0 1-.52-.741 2.305 2.305 0 0 1-.182-.91c0-.33.06-.637.182-.923.13-.286.303-.537.52-.754.225-.217.48-.386.767-.507.286-.121.593-.182.923-.182.338 0 .654.06.949.182a2.438 2.438 0 0 1 1.326 1.261c.13.286.195.594.195.923zM28.004 20V6.519H30.5c.251 0 .46.056.624.169a.891.891 0 0 1 .364.507l.22.728a6.87 6.87 0 0 1 .703-.637c.242-.2.502-.368.78-.507.286-.147.59-.26.91-.338.33-.087.689-.13 1.079-.13.815 0 1.486.212 2.015.637.537.416.944.975 1.222 1.677.225-.416.498-.771.819-1.066.33-.295.68-.533 1.053-.715.381-.182.78-.316 1.196-.403a6.27 6.27 0 0 1 1.26-.13c.772 0 1.457.117 2.055.351a3.761 3.761 0 0 1 1.495 1.001c.407.433.715.97.923 1.612.208.633.312 1.352.312 2.158V20H43.5v-8.567c0-1.395-.598-2.093-1.794-2.093-.546 0-1.001.182-1.365.546-.355.355-.533.871-.533 1.547V20h-4.03v-8.567c0-.771-.152-1.313-.455-1.625-.303-.312-.75-.468-1.34-.468-.363 0-.71.082-1.04.247a3.81 3.81 0 0 0-.91.663V20h-4.03zm22.654 0V.539h4.03v7.41a6.068 6.068 0 0 1 1.703-1.183c.642-.303 1.391-.455 2.25-.455.701 0 1.351.152 1.95.455.597.303 1.113.75 1.546 1.339.434.58.772 1.296 1.014 2.145.252.85.377 1.816.377 2.899 0 1.014-.143 1.95-.429 2.808-.277.858-.671 1.603-1.183 2.236a5.366 5.366 0 0 1-1.82 1.482c-.702.355-1.482.533-2.34.533a4.58 4.58 0 0 1-1.079-.117 4.011 4.011 0 0 1-.87-.325 4.282 4.282 0 0 1-.729-.52 9.055 9.055 0 0 1-.637-.65l-.143.676c-.06.277-.173.468-.338.572-.156.104-.364.156-.624.156h-2.678zm6.578-10.66c-.294 0-.563.03-.806.091-.234.052-.455.13-.663.234a2.48 2.48 0 0 0-.559.403 5.273 5.273 0 0 0-.52.546v5.72c.304.338.633.576.988.715.356.13.728.195 1.118.195.373 0 .715-.074 1.027-.221.312-.147.581-.381.806-.702.234-.33.416-.754.546-1.274.13-.52.195-1.153.195-1.898 0-.71-.052-1.309-.156-1.794-.104-.485-.251-.875-.442-1.17-.182-.303-.403-.52-.663-.65a1.92 1.92 0 0 0-.87-.195zM75.308 20c-.38 0-.671-.052-.87-.156-.191-.104-.352-.32-.482-.65l-.286-.741a13 13 0 0 1-.975.754 6.431 6.431 0 0 1-.975.559 4.612 4.612 0 0 1-1.066.325 6.11 6.11 0 0 1-1.248.117 5.643 5.643 0 0 1-1.677-.234 3.641 3.641 0 0 1-1.287-.715 3.162 3.162 0 0 1-.806-1.157c-.19-.468-.286-1.005-.286-1.612 0-.477.122-.966.364-1.469.243-.503.663-.958 1.261-1.365.598-.416 1.404-.763 2.418-1.04 1.014-.277 2.293-.433 3.835-.468v-.572c0-.789-.164-1.356-.494-1.703-.32-.355-.78-.533-1.378-.533-.476 0-.866.052-1.17.156a5.541 5.541 0 0 0-.819.351c-.234.13-.463.247-.689.351a1.91 1.91 0 0 1-.806.156 1.28 1.28 0 0 1-.715-.195 1.588 1.588 0 0 1-.455-.507l-.728-1.261a8.119 8.119 0 0 1 2.704-1.599 9.453 9.453 0 0 1 3.198-.533c.815 0 1.547.134 2.197.403.66.26 1.214.628 1.664 1.105a4.71 4.71 0 0 1 1.053 1.677c.243.65.364 1.36.364 2.132V20h-1.846zm-4.628-2.457c.52 0 .975-.091 1.365-.273.39-.182.785-.477 1.183-.884v-1.872c-.806.035-1.469.104-1.989.208s-.931.234-1.235.39c-.303.156-.515.334-.637.533-.112.2-.169.416-.169.65 0 .46.126.784.377.975.252.182.62.273 1.105.273zm9.596 6.734V6.519h2.496c.251 0 .46.056.624.169a.891.891 0 0 1 .364.507l.299.988a7.05 7.05 0 0 1 .832-.78c.303-.234.624-.433.962-.598a5.25 5.25 0 0 1 1.105-.403 5.584 5.584 0 0 1 1.3-.143c.702 0 1.352.156 1.95.468a4.493 4.493 0 0 1 1.547 1.352c.433.59.771 1.313 1.014 2.171.251.85.377 1.816.377 2.899 0 1.014-.143 1.95-.429 2.808a6.89 6.89 0 0 1-1.183 2.236 5.364 5.364 0 0 1-1.82 1.482c-.702.355-1.482.533-2.34.533-.702 0-1.291-.1-1.768-.299a4.8 4.8 0 0 1-1.3-.806v5.174h-4.03zM86.854 9.34c-.295 0-.563.03-.806.091-.234.052-.455.13-.663.234-.2.104-.386.238-.559.403a5.294 5.294 0 0 0-.52.546v5.72c.303.338.633.576.988.715.355.13.728.195 1.118.195.373 0 .715-.074 1.027-.221.312-.147.58-.381.806-.702.234-.33.416-.754.546-1.274.13-.52.195-1.153.195-1.898 0-.71-.052-1.309-.156-1.794-.104-.485-.251-.875-.442-1.17-.182-.303-.403-.52-.663-.65a1.92 1.92 0 0 0-.871-.195zm26.728 5.759c.104 0 .208.022.312.065.104.035.203.1.299.195l1.742 1.833a7.282 7.282 0 0 1-2.873 2.262c-1.144.503-2.501.754-4.069.754-1.439 0-2.73-.243-3.874-.728a8.56 8.56 0 0 1-2.899-2.028c-.789-.867-1.396-1.89-1.82-3.068-.425-1.187-.637-2.474-.637-3.861 0-1.413.242-2.708.728-3.887a9.104 9.104 0 0 1 2.028-3.068c.875-.858 1.919-1.525 3.133-2.002 1.213-.477 2.552-.715 4.017-.715.71 0 1.378.065 2.002.195a9.146 9.146 0 0 1 1.768.52 7.8 7.8 0 0 1 1.508.793c.459.303.866.641 1.222 1.014l-1.482 1.989a2.104 2.104 0 0 1-.338.338c-.13.095-.312.143-.546.143a.973.973 0 0 1-.442-.104 5.926 5.926 0 0 1-.442-.247c-.156-.104-.33-.212-.52-.325a3.15 3.15 0 0 0-.663-.325 4.88 4.88 0 0 0-.897-.26 6.023 6.023 0 0 0-1.196-.104c-.798 0-1.526.143-2.184.429a4.735 4.735 0 0 0-1.703 1.209c-.468.52-.837 1.153-1.105 1.898-.26.745-.39 1.582-.39 2.509 0 .97.13 1.833.39 2.587.268.754.628 1.391 1.079 1.911a4.674 4.674 0 0 0 3.549 1.573c.398 0 .762-.017 1.092-.052.329-.043.632-.113.91-.208.286-.095.554-.217.806-.364.26-.156.52-.347.78-.572.104-.087.216-.156.338-.208a.832.832 0 0 1 .377-.091zM118.203 20V.539h4.03v7.163a6.424 6.424 0 0 1 1.573-1.001c.572-.26 1.252-.39 2.041-.39.736 0 1.386.13 1.95.39a3.946 3.946 0 0 1 1.443 1.066c.39.45.684.992.884 1.625.199.624.299 1.304.299 2.041V20h-4.03v-8.567c0-.659-.152-1.17-.455-1.534-.304-.373-.75-.559-1.339-.559a2.8 2.8 0 0 0-1.248.286c-.39.19-.763.446-1.118.767V20h-4.03zm24.65 0c-.382 0-.672-.052-.871-.156-.191-.104-.351-.32-.481-.65l-.286-.741a13 13 0 0 1-.975.754 6.431 6.431 0 0 1-.975.559c-.33.147-.685.256-1.066.325a6.115 6.115 0 0 1-1.248.117 5.636 5.636 0 0 1-1.677-.234 3.636 3.636 0 0 1-1.287-.715 3.15 3.15 0 0 1-.806-1.157c-.191-.468-.286-1.005-.286-1.612 0-.477.121-.966.364-1.469.242-.503.663-.958 1.261-1.365.598-.416 1.404-.763 2.418-1.04 1.014-.277 2.292-.433 3.835-.468v-.572c0-.789-.165-1.356-.494-1.703-.321-.355-.78-.533-1.378-.533-.477 0-.867.052-1.17.156a5.478 5.478 0 0 0-.819.351c-.234.13-.464.247-.689.351a1.912 1.912 0 0 1-.806.156c-.278 0-.516-.065-.715-.195a1.576 1.576 0 0 1-.455-.507l-.728-1.261a8.112 8.112 0 0 1 2.704-1.599 9.448 9.448 0 0 1 3.198-.533c.814 0 1.547.134 2.197.403.658.26 1.213.628 1.664 1.105.459.468.81 1.027 1.053 1.677.242.65.364 1.36.364 2.132V20h-1.846zm-4.628-2.457c.52 0 .975-.091 1.365-.273.39-.182.784-.477 1.183-.884v-1.872c-.806.035-1.469.104-1.989.208s-.932.234-1.235.39c-.304.156-.516.334-.637.533-.113.2-.169.416-.169.65 0 .46.125.784.377.975.251.182.619.273 1.105.273zm14.327 2.665c-.641 0-1.209-.091-1.703-.273a3.567 3.567 0 0 1-1.235-.793 3.49 3.49 0 0 1-.754-1.248 4.814 4.814 0 0 1-.26-1.625V9.301h-1.144a.777.777 0 0 1-.533-.195c-.147-.139-.221-.338-.221-.598V6.935l2.145-.416.793-3.289c.104-.416.399-.624.884-.624h2.106v3.939h3.276v2.756h-3.276v6.695c0 .312.074.572.221.78.156.2.377.299.663.299.147 0 .269-.013.364-.039.104-.035.191-.07.26-.104a2.28 2.28 0 0 1 .208-.104.514.514 0 0 1 .234-.052.42.42 0 0 1 .286.091.878.878 0 0 1 .234.26l1.222 1.911c-.52.39-1.105.685-1.755.884-.65.19-1.322.286-2.015.286z" fill="#121111"/></svg>