<svg width="285" height="30" fill="none" xmlns="http://www.w3.org/2000/svg"><path d="M21.272 24h-5.44v-9.856H6.36V24H.92V.688h5.44v9.744h9.472V.688h5.44V24zm11.26-16.848c1.098 0 2.1.17 3.008.512a6.466 6.466 0 0 1 2.352 1.488c.66.65 1.173 1.45 1.535 2.4.374.939.56 2.005.56 3.2 0 .373-.016.677-.047.912a1.45 1.45 0 0 1-.176.56.667.667 0 0 1-.353.288c-.138.053-.32.08-.544.08H29.3c.16 1.387.58 2.395 1.264 3.024.682.619 1.562.928 2.64.928.575 0 1.072-.07 1.487-.208a7.164 7.164 0 0 0 1.104-.464c.331-.17.63-.325.896-.464.278-.139.566-.208.864-.208.395 0 .694.144.897.432l1.44 1.776a7.468 7.468 0 0 1-1.665 1.44 8.888 8.888 0 0 1-1.823.864 9.656 9.656 0 0 1-1.873.416c-.618.085-1.21.128-1.776.128a9.502 9.502 0 0 1-3.28-.56A7.71 7.71 0 0 1 26.803 22c-.757-.747-1.36-1.675-1.808-2.784-.437-1.11-.655-2.4-.655-3.872 0-1.11.186-2.16.56-3.152a7.935 7.935 0 0 1 1.632-2.608 7.88 7.88 0 0 1 2.576-1.776c1.013-.437 2.154-.656 3.424-.656zm.096 3.424c-.95 0-1.691.272-2.224.816-.534.533-.886 1.307-1.056 2.32h6.191c0-.395-.053-.779-.16-1.152a2.558 2.558 0 0 0-.495-.992 2.413 2.413 0 0 0-.897-.72c-.373-.181-.826-.272-1.36-.272zM43.153 24V7.408h2.944c.245 0 .448.021.608.064a.96.96 0 0 1 .416.208.722.722 0 0 1 .256.352c.064.15.117.33.16.544l.272 1.552c.608-.939 1.29-1.68 2.048-2.224.757-.544 1.584-.816 2.48-.816.757 0 1.365.181 1.824.544l-.64 3.648c-.043.224-.128.384-.256.48-.128.085-.299.128-.512.128a3.76 3.76 0 0 1-.64-.064 4.479 4.479 0 0 0-.928-.08c-1.302 0-2.326.693-3.072 2.08V24h-4.96zM63.796 7.152c1.1 0 2.102.17 3.009.512a6.466 6.466 0 0 1 2.351 1.488c.662.65 1.174 1.45 1.536 2.4.374.939.56 2.005.56 3.2 0 .373-.015.677-.047.912s-.091.421-.177.56a.667.667 0 0 1-.352.288c-.138.053-.32.08-.544.08h-9.568c.16 1.387.582 2.395 1.264 3.024.683.619 1.563.928 2.64.928.576 0 1.072-.07 1.489-.208a7.164 7.164 0 0 0 1.104-.464l.895-.464c.278-.139.566-.208.864-.208.395 0 .694.144.897.432l1.44 1.776a7.468 7.468 0 0 1-1.664 1.44 8.888 8.888 0 0 1-1.825.864 9.656 9.656 0 0 1-1.872.416c-.618.085-1.21.128-1.776.128a9.502 9.502 0 0 1-3.28-.56A7.71 7.71 0 0 1 58.069 22c-.757-.747-1.36-1.675-1.807-2.784-.438-1.11-.657-2.4-.657-3.872 0-1.11.187-2.16.56-3.152a7.935 7.935 0 0 1 1.633-2.608 7.88 7.88 0 0 1 2.576-1.776c1.013-.437 2.154-.656 3.424-.656zm.096 3.424c-.949 0-1.69.272-2.224.816-.533.533-.885 1.307-1.056 2.32h6.193c0-.395-.054-.779-.16-1.152a2.558 2.558 0 0 0-.496-.992 2.413 2.413 0 0 0-.897-.72c-.373-.181-.826-.272-1.36-.272zM92.382 24c-.47 0-.826-.064-1.072-.192-.234-.128-.432-.395-.592-.8l-.352-.912c-.416.352-.816.661-1.2.928a7.916 7.916 0 0 1-1.2.688 5.693 5.693 0 0 1-1.312.4 7.52 7.52 0 0 1-1.536.144 6.945 6.945 0 0 1-2.064-.288 4.483 4.483 0 0 1-1.584-.88 3.893 3.893 0 0 1-.992-1.424c-.234-.576-.352-1.237-.352-1.984 0-.587.15-1.19.448-1.808.299-.619.816-1.179 1.552-1.68.736-.512 1.728-.939 2.976-1.28 1.248-.341 2.822-.533 4.72-.576v-.704c0-.97-.202-1.67-.608-2.096-.394-.437-.96-.656-1.696-.656-.586 0-1.066.064-1.44.192a6.82 6.82 0 0 0-1.008.432c-.288.16-.57.304-.848.432-.277.128-.608.192-.992.192-.341 0-.634-.08-.88-.24a1.956 1.956 0 0 1-.56-.624l-.896-1.552a9.993 9.993 0 0 1 3.328-1.968c1.227-.437 2.539-.656 3.936-.656 1.003 0 1.904.165 2.704.496a5.6 5.6 0 0 1 2.048 1.36 5.801 5.801 0 0 1 1.296 2.064c.299.8.448 1.675.448 2.624V24h-2.272zm-5.696-3.024c.64 0 1.2-.112 1.68-.336.48-.224.966-.587 1.456-1.088v-2.304c-.992.043-1.808.128-2.448.256-.64.128-1.146.288-1.52.48-.373.192-.634.41-.784.656a1.6 1.6 0 0 0-.208.8c0 .565.155.965.464 1.2.31.224.763.336 1.36.336zM98.496 24V7.408h2.944c.246 0 .448.021.608.064a.95.95 0 0 1 .416.208.717.717 0 0 1 .256.352c.064.15.118.33.16.544l.272 1.552c.608-.939 1.291-1.68 2.048-2.224.758-.544 1.584-.816 2.48-.816.758 0 1.366.181 1.824.544l-.64 3.648c-.042.224-.128.384-.256.48-.128.085-.298.128-.512.128a3.81 3.81 0 0 1-.64-.064 4.473 4.473 0 0 0-.928-.08c-1.301 0-2.325.693-3.072 2.08V24h-4.96zM119.14 7.152c1.099 0 2.101.17 3.008.512a6.471 6.471 0 0 1 2.352 1.488c.661.65 1.173 1.45 1.536 2.4.373.939.56 2.005.56 3.2 0 .373-.016.677-.048.912a1.45 1.45 0 0 1-.176.56.667.667 0 0 1-.352.288 1.55 1.55 0 0 1-.544.08h-9.568c.16 1.387.581 2.395 1.264 3.024.683.619 1.563.928 2.64.928.576 0 1.072-.07 1.488-.208a7.164 7.164 0 0 0 1.104-.464c.331-.17.629-.325.896-.464.277-.139.565-.208.864-.208.395 0 .693.144.896.432l1.44 1.776a7.475 7.475 0 0 1-1.664 1.44 8.903 8.903 0 0 1-1.824.864 9.666 9.666 0 0 1-1.872.416 13.07 13.07 0 0 1-1.776.128 9.5 9.5 0 0 1-3.28-.56A7.713 7.713 0 0 1 113.411 22c-.757-.747-1.36-1.675-1.808-2.784-.437-1.11-.656-2.4-.656-3.872 0-1.11.187-2.16.56-3.152a7.935 7.935 0 0 1 1.632-2.608 7.88 7.88 0 0 1 2.576-1.776c1.013-.437 2.155-.656 3.424-.656zm.096 3.424c-.949 0-1.691.272-2.224.816-.533.533-.885 1.307-1.056 2.32h6.192a4.16 4.16 0 0 0-.16-1.152 2.554 2.554 0 0 0-.496-.992 2.415 2.415 0 0 0-.896-.72c-.373-.181-.827-.272-1.36-.272zM136.269 24V7.408h3.072c.309 0 .565.07.768.208.213.139.362.347.448.624l.272.896c.277-.288.565-.55.864-.784.298-.245.618-.453.96-.624.352-.181.725-.32 1.12-.416.405-.107.848-.16 1.328-.16 1.002 0 1.829.261 2.48.784.661.512 1.162 1.2 1.504 2.064.277-.512.613-.95 1.008-1.312a5.665 5.665 0 0 1 1.296-.88 6.43 6.43 0 0 1 1.472-.496 7.74 7.74 0 0 1 1.552-.16c.949 0 1.792.144 2.528.432a4.632 4.632 0 0 1 1.84 1.232c.501.533.88 1.195 1.136 1.984.256.779.384 1.664.384 2.656V24h-4.96V13.456c0-1.717-.736-2.576-2.208-2.576-.672 0-1.232.224-1.68.672-.438.437-.656 1.072-.656 1.904V24h-4.96V13.456c0-.95-.187-1.616-.56-2-.374-.384-.923-.576-1.648-.576a2.82 2.82 0 0 0-1.28.304 4.683 4.683 0 0 0-1.12.816v12h-4.96zm34.041 4.304c-.149.33-.33.57-.544.72-.213.16-.554.24-1.024.24h-3.712l3.2-6.72-6.624-15.136h4.384c.384 0 .683.085.896.256.214.17.363.373.448.608l2.72 7.152c.256.661.464 1.323.624 1.984.107-.341.224-.677.352-1.008.128-.33.251-.667.368-1.008l2.464-7.12a1.19 1.19 0 0 1 .496-.608c.256-.17.528-.256.816-.256h4l-8.864 20.896zm15.811-20.896h3.968c.352 0 .656.08.912.24.256.16.411.368.464.624l1.664 7.44c.128.565.246 1.115.352 1.648.107.533.203 1.061.288 1.584.15-.523.304-1.045.464-1.568.171-.533.336-1.088.496-1.664l2.08-7.456c.064-.245.219-.448.464-.608a1.45 1.45 0 0 1 .848-.256h2.208c.352 0 .651.085.896.256.256.16.416.363.48.608l1.984 7.456c.15.565.299 1.115.448 1.648.16.533.31 1.072.448 1.616.086-.533.187-1.061.304-1.584.128-.533.262-1.093.4-1.68l1.76-7.44a.97.97 0 0 1 .448-.624c.256-.16.544-.24.864-.24h3.776L206.985 24h-4.032a.81.81 0 0 1-.544-.192c-.149-.128-.266-.341-.352-.64l-2.368-8.272a64.018 64.018 0 0 1-.304-1.104 20.375 20.375 0 0 1-.256-1.088c-.074.373-.16.747-.256 1.12-.085.363-.186.73-.304 1.104l-2.4 8.24c-.16.555-.512.832-1.056.832h-3.84l-5.152-16.592zm35.664-.256c1.258 0 2.405.197 3.44.592a7.47 7.47 0 0 1 2.656 1.696c.746.736 1.322 1.632 1.728 2.688.416 1.045.624 2.224.624 3.536 0 1.323-.208 2.517-.624 3.584-.406 1.056-.982 1.957-1.728 2.704a7.655 7.655 0 0 1-2.656 1.712c-1.035.395-2.182.592-3.44.592-1.27 0-2.427-.197-3.472-.592a7.984 7.984 0 0 1-2.688-1.712c-.747-.747-1.328-1.648-1.744-2.704-.406-1.067-.608-2.261-.608-3.584 0-1.312.202-2.49.608-3.536.416-1.056.997-1.952 1.744-2.688a7.786 7.786 0 0 1 2.688-1.696c1.045-.395 2.202-.592 3.472-.592zm0 13.424c1.141 0 1.978-.4 2.512-1.2.544-.81.816-2.037.816-3.68 0-1.643-.272-2.864-.816-3.664-.534-.8-1.371-1.2-2.512-1.2-1.174 0-2.032.4-2.576 1.2-.544.8-.816 2.021-.816 3.664 0 1.643.272 2.87.816 3.68.544.8 1.402 1.2 2.576 1.2zM233.275 24V7.408h2.944c.245 0 .448.021.608.064a.956.956 0 0 1 .416.208.723.723 0 0 1 .256.352c.064.15.117.33.16.544l.272 1.552c.608-.939 1.291-1.68 2.048-2.224.757-.544 1.584-.816 2.48-.816.757 0 1.365.181 1.824.544l-.64 3.648c-.043.224-.128.384-.256.48-.128.085-.299.128-.512.128a3.8 3.8 0 0 1-.64-.064 4.48 4.48 0 0 0-.928-.08c-1.301 0-2.325.693-3.072 2.08V24h-4.96zM251.774.048v13.424h.736c.309 0 .544-.043.704-.128.17-.085.33-.24.48-.464l3.136-4.672c.181-.277.394-.48.64-.608.256-.128.576-.192.96-.192h4.544l-4.288 5.904a4.477 4.477 0 0 1-.672.736 5.193 5.193 0 0 1-.768.576c.48.363.896.843 1.248 1.44L263.166 24h-4.48c-.374 0-.699-.059-.976-.176-.267-.128-.486-.347-.656-.656l-3.136-5.872c-.15-.267-.304-.437-.464-.512-.16-.085-.4-.128-.72-.128h-.96V24h-4.96V.048h4.96zm23.941 10.992c-.128.203-.266.347-.416.432-.138.085-.32.128-.544.128a1.85 1.85 0 0 1-.704-.144c-.234-.107-.49-.219-.768-.336a6.87 6.87 0 0 0-.912-.32 3.909 3.909 0 0 0-1.168-.16c-.629 0-1.114.123-1.456.368-.33.235-.496.565-.496.992 0 .31.107.565.32.768.224.203.518.384.88.544.363.15.774.293 1.232.432.459.139.928.293 1.408.464.48.17.95.373 1.408.608.459.224.87.507 1.232.848.363.33.651.736.864 1.216.224.48.336 1.056.336 1.728 0 .821-.149 1.579-.448 2.272a4.775 4.775 0 0 1-1.344 1.792c-.586.501-1.317.89-2.192 1.168-.864.277-1.861.416-2.992.416-.565 0-1.13-.053-1.696-.16a12.105 12.105 0 0 1-1.648-.432 9.555 9.555 0 0 1-1.456-.64 6.642 6.642 0 0 1-1.152-.816l1.152-1.824c.139-.213.304-.379.496-.496.192-.128.443-.192.752-.192.288 0 .544.064.768.192.235.128.486.267.752.416.267.15.576.288.928.416.363.128.816.192 1.36.192.384 0 .71-.037.976-.112.267-.085.48-.197.64-.336.16-.139.278-.293.352-.464a1.3 1.3 0 0 0 .112-.528c0-.33-.112-.603-.336-.816a2.811 2.811 0 0 0-.88-.544 8.855 8.855 0 0 0-1.248-.432 31.162 31.162 0 0 1-1.408-.464 12.74 12.74 0 0 1-1.424-.608 5.219 5.219 0 0 1-1.232-.912 4.348 4.348 0 0 1-.88-1.36c-.224-.533-.336-1.179-.336-1.936 0-.704.134-1.37.4-2 .278-.64.688-1.2 1.232-1.68s1.227-.859 2.048-1.136c.822-.288 1.782-.432 2.88-.432.598 0 1.174.053 1.728.16a8.802 8.802 0 0 1 1.584.448c.491.192.939.421 1.344.688.406.256.763.539 1.072.848l-1.12 1.744zm3.31 10.448c0-.384.069-.741.208-1.072.149-.33.347-.619.592-.864.256-.245.555-.437.896-.576.341-.15.715-.224 1.12-.224.395 0 .763.075 1.104.224.341.139.64.33.896.576.256.245.453.533.592.864.149.33.224.688.224 1.072 0 .384-.075.747-.224 1.088-.139.33-.336.619-.592.864a2.814 2.814 0 0 1-.896.576 2.902 2.902 0 0 1-1.104.208c-.405 0-.779-.07-1.12-.208a2.814 2.814 0 0 1-.896-.576 2.892 2.892 0 0 1-.592-.864 2.856 2.856 0 0 1-.208-1.088z" fill="#121111"/></svg>