<svg width="113" height="25" fill="none" xmlns="http://www.w3.org/2000/svg"><path d="M.92 24V.688h8.576c1.61 0 2.981.15 4.112.448 1.13.299 2.053.72 2.768 1.264.715.544 1.232 1.205 1.552 1.984.33.779.496 1.648.496 2.608 0 .523-.075 1.03-.224 1.52a4.47 4.47 0 0 1-.704 1.36c-.32.427-.73.816-1.232 1.168-.501.341-1.104.64-1.808.896 1.536.373 2.672.981 3.408 1.824.736.832 1.104 1.904 1.104 3.216 0 .992-.192 1.915-.576 2.768-.384.853-.95 1.6-1.696 2.24-.736.63-1.648 1.125-2.736 1.488-1.088.352-2.33.528-3.728.528H.92zm5.408-9.888v5.808h3.808c.715 0 1.296-.09 1.744-.272.459-.181.816-.416 1.072-.704a2.36 2.36 0 0 0 .528-.976c.096-.363.144-.73.144-1.104 0-.427-.059-.81-.176-1.152a1.825 1.825 0 0 0-.576-.864c-.267-.235-.624-.416-1.072-.544-.448-.128-1.013-.192-1.696-.192H6.328zm0-3.616h2.816c.597 0 1.136-.043 1.616-.128.48-.085.885-.235 1.216-.448a1.99 1.99 0 0 0 .768-.88c.181-.373.272-.843.272-1.408 0-.555-.07-1.013-.208-1.376a1.978 1.978 0 0 0-.64-.896c-.288-.224-.656-.384-1.104-.48a7.409 7.409 0 0 0-1.568-.144H6.328v5.76zm15.592 1.776h8.64v4h-8.64v-4zm17.892 3.936V24h-5.408V.688h8.224c1.642 0 3.05.197 4.224.592 1.184.384 2.154.917 2.912 1.6a6.233 6.233 0 0 1 1.696 2.416c.362.928.544 1.93.544 3.008 0 1.163-.187 2.23-.56 3.2A6.422 6.422 0 0 1 49.732 14c-.768.693-1.744 1.237-2.928 1.632-1.174.384-2.566.576-4.176.576h-2.816zm0-4.08h2.816c1.408 0 2.421-.336 3.04-1.008.618-.672.928-1.61.928-2.816 0-.533-.08-1.019-.24-1.456a2.852 2.852 0 0 0-.736-1.12c-.32-.32-.73-.565-1.232-.736-.49-.17-1.078-.256-1.76-.256h-2.816v7.392zM55.13 24V7.408h2.944c.245 0 .448.021.608.064a.96.96 0 0 1 .416.208.723.723 0 0 1 .256.352c.064.15.117.33.16.544l.272 1.552c.608-.939 1.29-1.68 2.048-2.224.757-.544 1.584-.816 2.48-.816.757 0 1.365.181 1.824.544l-.64 3.648c-.043.224-.128.384-.256.48-.128.085-.299.128-.512.128a3.8 3.8 0 0 1-.64-.064 4.48 4.48 0 0 0-.928-.08c-1.301 0-2.325.693-3.072 2.08V24h-4.96zM76.06 7.152c1.26 0 2.406.197 3.44.592 1.035.395 1.92.96 2.657 1.696.746.736 1.322 1.632 1.728 2.688.416 1.045.624 2.224.624 3.536 0 1.323-.208 2.517-.624 3.584-.406 1.056-.982 1.957-1.728 2.704a7.649 7.649 0 0 1-2.656 1.712c-1.035.395-2.182.592-3.44.592-1.27 0-2.427-.197-3.472-.592a7.992 7.992 0 0 1-2.688-1.712c-.747-.747-1.328-1.648-1.744-2.704-.406-1.067-.608-2.261-.608-3.584 0-1.312.202-2.49.608-3.536.416-1.056.997-1.952 1.744-2.688a7.793 7.793 0 0 1 2.688-1.696c1.045-.395 2.202-.592 3.472-.592zm0 13.424c1.142 0 1.98-.4 2.513-1.2.544-.81.816-2.037.816-3.68 0-1.643-.272-2.864-.816-3.664-.534-.8-1.37-1.2-2.512-1.2-1.174 0-2.032.4-2.576 1.2-.544.8-.816 2.021-.816 3.664 0 1.643.272 2.87.816 3.68.544.8 1.402 1.2 2.576 1.2zm21.635-9.536c-.128.203-.266.347-.416.432-.138.085-.32.128-.544.128-.234 0-.47-.048-.704-.144-.234-.107-.49-.219-.768-.336a6.932 6.932 0 0 0-.912-.32 3.913 3.913 0 0 0-1.168-.16c-.63 0-1.114.123-1.456.368-.33.235-.496.565-.496.992 0 .31.107.565.32.768.224.203.518.384.88.544.363.15.774.293 1.232.432.459.139.928.293 1.408.464.48.17.95.373 1.408.608.459.224.87.507 1.232.848.363.33.65.736.864 1.216.224.48.336 1.056.336 1.728 0 .821-.15 1.579-.448 2.272a4.788 4.788 0 0 1-1.344 1.792c-.586.501-1.317.89-2.192 1.168-.864.277-1.861.416-2.992.416-.565 0-1.13-.053-1.696-.16a12.07 12.07 0 0 1-1.648-.432 9.529 9.529 0 0 1-1.456-.64 6.642 6.642 0 0 1-1.152-.816l1.152-1.824c.139-.213.304-.379.496-.496.192-.128.443-.192.752-.192.288 0 .544.064.768.192.235.128.486.267.752.416.267.15.576.288.928.416.363.128.816.192 1.36.192.384 0 .71-.037.976-.112.267-.085.48-.197.64-.336.16-.139.278-.293.352-.464.075-.17.112-.347.112-.528 0-.33-.112-.603-.336-.816a2.815 2.815 0 0 0-.88-.544 8.909 8.909 0 0 0-1.248-.432 30.915 30.915 0 0 1-1.408-.464c-.48-.17-.954-.373-1.424-.608a5.2 5.2 0 0 1-1.232-.912 4.338 4.338 0 0 1-.88-1.36c-.224-.533-.336-1.179-.336-1.936 0-.704.134-1.37.4-2a4.73 4.73 0 0 1 1.232-1.68c.544-.48 1.227-.859 2.048-1.136.822-.288 1.782-.432 2.88-.432.598 0 1.174.053 1.728.16a8.83 8.83 0 0 1 1.584.448c.49.192.939.421 1.344.688.406.256.763.539 1.072.848l-1.12 1.744zm10.094 13.216c-.789 0-1.488-.112-2.096-.336a4.39 4.39 0 0 1-1.52-.976 4.296 4.296 0 0 1-.928-1.536c-.213-.597-.32-1.264-.32-2v-8.576h-1.408a.957.957 0 0 1-.656-.24c-.181-.17-.272-.416-.272-.736V7.92l2.64-.512.976-4.048c.128-.512.491-.768 1.088-.768h2.592V7.44h4.032v3.392h-4.032v8.24c0 .384.091.704.272.96.192.245.464.368.816.368.181 0 .331-.016.448-.048.128-.043.235-.085.32-.128.096-.053.181-.096.256-.128a.633.633 0 0 1 .288-.064c.149 0 .267.037.352.112.096.064.192.17.288.32l1.504 2.352a6.97 6.97 0 0 1-2.16 1.088c-.8.235-1.627.352-2.48.352z" fill="#121111"/></svg>