<svg width="400" height="42" fill="none" xmlns="http://www.w3.org/2000/svg"><path d="M29.32 34h-7.65V20.14H8.35V34H.7V1.218h7.65V14.92h13.32V1.217h7.65V34zm15.834-23.693c1.545 0 2.955.24 4.23.72 1.29.48 2.392 1.178 3.307 2.093.93.915 1.65 2.04 2.16 3.375.525 1.32.788 2.82.788 4.5 0 .525-.023.953-.068 1.282-.045.33-.127.593-.247.788a.938.938 0 0 1-.495.405c-.195.075-.45.113-.765.113H40.609c.225 1.95.817 3.367 1.777 4.252.96.87 2.198 1.305 3.713 1.305.81 0 1.507-.098 2.092-.293a10.074 10.074 0 0 0 1.553-.652l1.26-.652c.39-.195.795-.293 1.215-.293.555 0 .975.203 1.26.608l2.025 2.497c-.72.825-1.5 1.5-2.34 2.025-.825.51-1.68.915-2.565 1.215-.87.285-1.748.48-2.633.585-.87.12-1.702.18-2.497.18-1.635 0-3.173-.263-4.613-.788a10.843 10.843 0 0 1-3.757-2.385c-1.065-1.05-1.913-2.355-2.543-3.915-.615-1.56-.922-3.374-.922-5.444 0-1.56.262-3.038.787-4.433a11.158 11.158 0 0 1 2.295-3.668c1.005-1.05 2.213-1.882 3.623-2.497 1.425-.615 3.03-.923 4.815-.923zm.135 4.816c-1.335 0-2.378.382-3.128 1.147-.75.75-1.245 1.838-1.485 3.262h8.708c0-.555-.075-1.095-.225-1.62a3.598 3.598 0 0 0-.698-1.395 3.394 3.394 0 0 0-1.26-1.012c-.525-.255-1.162-.383-1.912-.383zM60.09 34V10.668h4.14c.345 0 .63.03.855.09.24.06.435.157.585.292.165.12.285.285.36.495.09.21.165.465.225.765l.383 2.182c.855-1.32 1.815-2.362 2.88-3.127 1.065-.765 2.227-1.148 3.487-1.148 1.065 0 1.92.255 2.565.765l-.9 5.13c-.06.316-.18.54-.36.676-.18.12-.42.18-.72.18a5.35 5.35 0 0 1-.9-.09c-.345-.076-.78-.113-1.305-.113-1.83 0-3.27.975-4.32 2.925V34H60.09zm29.03-23.693c1.544 0 2.954.24 4.23.72 1.29.48 2.392 1.178 3.307 2.093.93.915 1.65 2.04 2.16 3.375.525 1.32.787 2.82.787 4.5 0 .525-.022.953-.067 1.282-.045.33-.128.593-.248.788a.938.938 0 0 1-.495.405c-.195.075-.45.113-.765.113H84.575c.225 1.95.818 3.367 1.778 4.252.96.87 2.197 1.305 3.712 1.305.81 0 1.508-.098 2.093-.293a10.074 10.074 0 0 0 1.552-.652l1.26-.652c.39-.195.795-.293 1.215-.293.555 0 .975.203 1.26.608l2.025 2.497c-.72.825-1.5 1.5-2.34 2.025-.825.51-1.68.915-2.565 1.215-.87.285-1.747.48-2.632.585-.87.12-1.703.18-2.498.18-1.635 0-3.172-.263-4.612-.788a10.843 10.843 0 0 1-3.758-2.385c-1.065-1.05-1.912-2.355-2.542-3.915-.615-1.56-.923-3.374-.923-5.444 0-1.56.263-3.038.788-4.433a11.158 11.158 0 0 1 2.295-3.668c1.005-1.05 2.212-1.882 3.622-2.497 1.425-.615 3.03-.923 4.815-.923zm.134 4.816c-1.335 0-2.377.382-3.127 1.147-.75.75-1.245 1.838-1.485 3.262h8.707c0-.555-.075-1.095-.225-1.62a3.598 3.598 0 0 0-.697-1.395 3.394 3.394 0 0 0-1.26-1.012c-.525-.255-1.163-.383-1.913-.383zM129.32 34c-.66 0-1.163-.09-1.508-.27-.33-.18-.607-.555-.832-1.125l-.495-1.282a22.49 22.49 0 0 1-1.688 1.304c-.54.375-1.102.698-1.687.968a8.008 8.008 0 0 1-1.845.563c-.645.134-1.365.202-2.16.202-1.065 0-2.033-.135-2.903-.405-.87-.285-1.612-.697-2.227-1.237a5.473 5.473 0 0 1-1.395-2.003c-.33-.81-.495-1.74-.495-2.79 0-.825.21-1.672.63-2.543.42-.87 1.147-1.657 2.182-2.362 1.035-.72 2.43-1.32 4.185-1.8 1.755-.48 3.968-.75 6.638-.81v-.99c0-1.365-.285-2.348-.855-2.948-.555-.615-1.35-.922-2.385-.922-.825 0-1.5.09-2.025.27a9.7 9.7 0 0 0-1.418.607c-.405.226-.802.428-1.192.608-.39.18-.855.27-1.395.27-.48 0-.893-.113-1.238-.337a2.746 2.746 0 0 1-.787-.878l-1.26-2.182a14.051 14.051 0 0 1 4.68-2.768c1.725-.615 3.57-.923 5.535-.923 1.41 0 2.677.233 3.802.698 1.14.45 2.1 1.088 2.88 1.913a8.162 8.162 0 0 1 1.823 2.902c.42 1.125.63 2.355.63 3.69V34h-3.195zm-8.01-4.253c.9 0 1.687-.157 2.362-.472.675-.315 1.358-.825 2.048-1.53v-3.24c-1.395.06-2.543.18-3.443.36-.9.18-1.612.405-2.137.675-.525.27-.893.578-1.103.922a2.25 2.25 0 0 0-.292 1.125c0 .796.217 1.358.652 1.688.435.315 1.073.473 1.913.473zM137.917 34V10.668h4.14c.345 0 .63.03.855.09.24.06.435.157.585.292.165.12.285.285.36.495.09.21.165.465.225.765l.382 2.182c.855-1.32 1.815-2.362 2.88-3.127 1.065-.765 2.228-1.148 3.488-1.148 1.065 0 1.92.255 2.565.765l-.9 5.13c-.06.316-.18.54-.36.676-.18.12-.42.18-.72.18a5.35 5.35 0 0 1-.9-.09c-.345-.076-.78-.113-1.305-.113-1.83 0-3.27.975-4.32 2.925V34h-6.975zm29.028-23.693c1.545 0 2.955.24 4.23.72 1.29.48 2.393 1.178 3.308 2.093.93.915 1.65 2.04 2.16 3.375.525 1.32.787 2.82.787 4.5 0 .525-.022.953-.067 1.282-.045.33-.128.593-.248.788a.938.938 0 0 1-.495.405c-.195.075-.45.113-.765.113H162.4c.225 1.95.818 3.367 1.778 4.252.96.87 2.197 1.305 3.712 1.305.81 0 1.508-.098 2.093-.293a10.067 10.067 0 0 0 1.552-.652l1.26-.652c.39-.195.795-.293 1.215-.293.555 0 .975.203 1.26.608l2.025 2.497c-.72.825-1.5 1.5-2.34 2.025-.825.51-1.68.915-2.565 1.215-.87.285-1.747.48-2.632.585-.87.12-1.703.18-2.498.18-1.635 0-3.172-.263-4.612-.788a10.845 10.845 0 0 1-3.758-2.385c-1.065-1.05-1.912-2.355-2.542-3.915-.615-1.56-.923-3.374-.923-5.444 0-1.56.263-3.038.788-4.433a11.158 11.158 0 0 1 2.295-3.668c1.005-1.05 2.212-1.882 3.622-2.497 1.425-.615 3.03-.923 4.815-.923zm.135 4.816c-1.335 0-2.377.382-3.127 1.147-.75.75-1.245 1.838-1.485 3.262h8.707c0-.555-.075-1.095-.225-1.62a3.597 3.597 0 0 0-.697-1.395 3.394 3.394 0 0 0-1.26-1.012c-.525-.255-1.163-.383-1.913-.383zM191.034 34V10.668h4.32c.435 0 .795.097 1.08.292.3.195.51.487.63.877l.383 1.26c.39-.404.795-.772 1.215-1.102a7.18 7.18 0 0 1 1.35-.877 7.08 7.08 0 0 1 1.575-.585 7.321 7.321 0 0 1 1.867-.226c1.41 0 2.573.368 3.488 1.103.93.72 1.635 1.688 2.115 2.902.39-.72.862-1.335 1.417-1.845a7.99 7.99 0 0 1 1.823-1.237 9.094 9.094 0 0 1 2.07-.697 10.89 10.89 0 0 1 2.182-.226c1.335 0 2.52.203 3.555.608 1.035.39 1.898.968 2.588 1.733.705.75 1.237 1.68 1.597 2.79.36 1.094.54 2.34.54 3.734V34h-6.975V19.172c0-2.415-1.035-3.622-3.105-3.622-.945 0-1.732.315-2.362.945-.615.615-.923 1.508-.923 2.677V34h-6.975V19.172c0-1.335-.262-2.272-.787-2.812s-1.298-.81-2.318-.81c-.63 0-1.23.143-1.8.427a6.593 6.593 0 0 0-1.575 1.148V34h-6.975zm47.871 6.053c-.21.465-.465.802-.765 1.012-.3.225-.78.338-1.44.338h-5.22l4.5-9.45-9.315-21.285h6.165c.54 0 .96.12 1.26.36.3.24.51.524.63.854l3.825 10.058c.36.93.653 1.86.878 2.79.15-.48.315-.953.495-1.418.18-.465.352-.937.517-1.417l3.465-10.012c.12-.345.353-.63.698-.855.36-.24.742-.36 1.147-.36h5.625l-12.465 29.385zm22.234-29.385h5.58c.495 0 .923.112 1.283.337.36.225.577.518.652.877l2.34 10.463c.18.795.345 1.568.495 2.318.15.75.285 1.492.405 2.227.21-.735.428-1.47.653-2.205.24-.75.472-1.53.697-2.34l2.925-10.485c.09-.345.308-.63.653-.855.345-.24.742-.36 1.192-.36h3.105c.495 0 .915.12 1.26.36.36.225.585.51.675.855l2.79 10.485c.21.795.42 1.568.63 2.318.225.75.435 1.507.63 2.272.12-.75.263-1.492.428-2.227.18-.75.367-1.538.562-2.363l2.475-10.462c.075-.36.285-.653.63-.878.36-.225.765-.338 1.215-.338h5.31L290.479 34h-5.67c-.3 0-.555-.09-.765-.27-.21-.18-.375-.48-.495-.9l-3.33-11.632a82.418 82.418 0 0 1-.427-1.553c-.135-.51-.255-1.02-.36-1.53-.105.525-.225 1.05-.36 1.575-.12.51-.263 1.027-.428 1.552l-3.375 11.588c-.225.78-.72 1.17-1.485 1.17h-5.4l-7.245-23.332zm50.152-.36c1.77 0 3.382.277 4.837.832 1.455.555 2.7 1.35 3.735 2.385 1.05 1.035 1.86 2.295 2.43 3.78.585 1.47.878 3.128.878 4.973 0 1.86-.293 3.54-.878 5.04-.57 1.484-1.38 2.752-2.43 3.802-1.035 1.035-2.28 1.838-3.735 2.408-1.455.555-3.067.832-4.837.832-1.785 0-3.413-.277-4.883-.832-1.455-.57-2.715-1.373-3.78-2.408-1.05-1.05-1.867-2.318-2.452-3.803-.57-1.5-.855-3.18-.855-5.04 0-1.845.285-3.502.855-4.972.585-1.485 1.402-2.745 2.452-3.78 1.065-1.035 2.325-1.83 3.78-2.385 1.47-.555 3.098-.833 4.883-.833zm0 18.877c1.605 0 2.782-.563 3.532-1.688.765-1.14 1.148-2.864 1.148-5.174 0-2.31-.383-4.028-1.148-5.153-.75-1.125-1.927-1.688-3.532-1.688-1.65 0-2.858.563-3.623 1.688-.765 1.125-1.147 2.842-1.147 5.152s.382 4.036 1.147 5.175c.765 1.125 1.973 1.688 3.623 1.688zM327.449 34V10.668h4.14c.345 0 .63.03.855.09.24.06.435.157.585.292.165.12.285.285.36.495.09.21.165.465.225.765l.383 2.182c.855-1.32 1.815-2.362 2.88-3.127 1.065-.765 2.227-1.148 3.487-1.148 1.065 0 1.92.255 2.565.765l-.9 5.13c-.06.316-.18.54-.36.676-.18.12-.42.18-.72.18a5.35 5.35 0 0 1-.9-.09c-.345-.076-.78-.113-1.305-.113-1.83 0-3.27.975-4.32 2.925V34h-6.975zM353.463.317v18.878h1.035c.435 0 .765-.06.99-.18.24-.12.465-.338.675-.652l4.41-6.57c.255-.39.555-.675.9-.855.36-.18.81-.27 1.35-.27h6.39l-6.03 8.302c-.285.39-.6.735-.945 1.035-.33.3-.69.57-1.08.81.675.51 1.26 1.185 1.755 2.025l6.57 11.16h-6.3c-.525 0-.982-.083-1.372-.248-.375-.18-.683-.487-.923-.922l-4.41-8.257c-.21-.375-.427-.616-.652-.72-.225-.12-.563-.18-1.013-.18h-1.35V34h-6.975V.317h6.975zm33.668 15.458c-.18.285-.375.487-.585.607-.195.12-.45.18-.765.18-.33 0-.66-.067-.99-.202-.33-.15-.69-.308-1.08-.473a9.76 9.76 0 0 0-1.283-.45 5.502 5.502 0 0 0-1.642-.224c-.885 0-1.568.172-2.048.517-.465.33-.697.795-.697 1.395 0 .435.15.795.45 1.08.315.285.727.54 1.237.765.51.21 1.088.413 1.733.608s1.305.412 1.98.652c.675.24 1.335.525 1.98.855a6.977 6.977 0 0 1 1.732 1.192c.51.465.915 1.035 1.215 1.71.315.676.473 1.486.473 2.43 0 1.155-.21 2.22-.63 3.195a6.734 6.734 0 0 1-1.89 2.52c-.825.706-1.853 1.253-3.083 1.643-1.215.39-2.617.585-4.207.585-.795 0-1.59-.075-2.385-.225a16.963 16.963 0 0 1-2.318-.607 13.39 13.39 0 0 1-2.047-.9 9.34 9.34 0 0 1-1.62-1.148l1.62-2.565c.195-.3.427-.532.697-.697.27-.18.623-.27 1.058-.27.405 0 .765.09 1.08.27.33.18.682.375 1.057.584.375.21.81.405 1.305.585.51.18 1.148.27 1.913.27.54 0 .997-.052 1.372-.157.375-.12.675-.277.9-.473a1.84 1.84 0 0 0 .495-.652c.105-.24.158-.488.158-.742 0-.465-.158-.848-.473-1.148-.315-.3-.727-.555-1.237-.765a12.537 12.537 0 0 0-1.755-.607 43.437 43.437 0 0 1-1.98-.653 17.847 17.847 0 0 1-2.003-.855 7.31 7.31 0 0 1-1.732-1.282 6.1 6.1 0 0 1-1.238-1.913c-.315-.75-.472-1.657-.472-2.723 0-.99.187-1.927.562-2.812.39-.9.968-1.688 1.733-2.363.765-.675 1.725-1.207 2.88-1.597 1.155-.405 2.505-.607 4.05-.607.84 0 1.65.075 2.43.225.795.15 1.537.36 2.227.63s1.32.592 1.89.967c.57.36 1.073.757 1.508 1.192l-1.575 2.453zm4.654 14.693c0-.54.098-1.043.293-1.508.21-.465.487-.87.832-1.215a3.95 3.95 0 0 1 1.26-.81 3.887 3.887 0 0 1 1.575-.315c.555 0 1.073.105 1.553.315.48.195.9.465 1.26.81.36.345.637.75.832 1.215.21.465.315.967.315 1.508 0 .54-.105 1.05-.315 1.53-.195.464-.472.87-.832 1.214a3.95 3.95 0 0 1-1.26.81 4.07 4.07 0 0 1-1.553.293c-.57 0-1.095-.097-1.575-.292a3.95 3.95 0 0 1-1.26-.81 4.067 4.067 0 0 1-.832-1.216 4.026 4.026 0 0 1-.293-1.53z" fill="#121111"/></svg>