<svg width="89" height="24" fill="none" xmlns="http://www.w3.org/2000/svg"><path d="M0 .688h4.352c.47 0 .853.107 1.152.32.299.213.512.496.64.848l4.512 12.48c.203.544.405 1.136.608 1.776.213.64.41 1.312.592 2.016.15-.704.32-1.376.512-2.016.203-.64.4-1.232.592-1.776l4.48-12.48c.107-.299.315-.565.624-.8.31-.245.688-.368 1.136-.368h4.384L14.24 24H9.344L0 .688zM44.342 24H40.15c-.47 0-.858-.107-1.168-.32a1.755 1.755 0 0 1-.624-.848l-1.376-4.064h-8.864l-1.376 4.064c-.106.299-.314.57-.624.816-.31.235-.688.352-1.136.352h-4.224L29.782.688h5.536L44.342 24zm-14.976-8.912h6.368L33.59 8.704c-.138-.405-.304-.88-.496-1.424a46.938 46.938 0 0 1-.544-1.792c-.17.65-.346 1.253-.528 1.808a26.019 26.019 0 0 1-.512 1.44l-2.144 6.352zm22.602.288V24H46.56V.688h7.584c1.685 0 3.12.176 4.304.528 1.195.341 2.165.821 2.912 1.44.757.619 1.307 1.35 1.648 2.192A7.27 7.27 0 0 1 63.52 7.6c0 .757-.101 1.472-.304 2.144a6.49 6.49 0 0 1-.912 1.872 6.837 6.837 0 0 1-1.472 1.52 7.677 7.677 0 0 1-2 1.104c.363.181.699.405 1.008.672.32.267.597.592.832.976L65.632 24h-4.896c-.907 0-1.557-.341-1.952-1.024l-3.872-6.768c-.17-.299-.373-.512-.608-.64-.224-.128-.544-.192-.96-.192h-1.376zm0-3.728h2.176c.736 0 1.36-.09 1.872-.272.523-.192.95-.453 1.28-.784.33-.33.57-.715.72-1.152.15-.448.224-.928.224-1.44 0-1.024-.336-1.824-1.008-2.4-.661-.576-1.69-.864-3.088-.864h-2.176v6.912zm27.81 3.488V24h-5.409v-8.864L65.921.688h4.768c.47 0 .843.112 1.12.336.278.213.502.49.672.832l3.296 6.784.736 1.504c.224.459.422.912.592 1.36.16-.459.352-.917.576-1.376.224-.459.464-.955.72-1.488l3.264-6.784c.064-.139.15-.277.256-.416a2.5 2.5 0 0 1 .384-.368A1.75 1.75 0 0 1 82.801.8a1.7 1.7 0 0 1 .624-.112h4.8l-8.448 14.448z" fill="#121111"/></svg>