<svg width="50" height="21" fill="none" xmlns="http://www.w3.org/2000/svg"><path d="M4.954 13.669V20H.56V1.059h6.682c1.335 0 2.479.16 3.432.481.962.312 1.75.745 2.366 1.3a5.064 5.064 0 0 1 1.378 1.963 6.65 6.65 0 0 1 .442 2.444c0 .945-.152 1.811-.455 2.6a5.217 5.217 0 0 1-1.391 2.028c-.624.563-1.417 1.005-2.379 1.326-.953.312-2.084.468-3.393.468H4.954zm0-3.315h2.288c1.144 0 1.967-.273 2.47-.819.503-.546.754-1.309.754-2.288 0-.433-.065-.828-.195-1.183a2.317 2.317 0 0 0-.598-.91c-.26-.26-.594-.46-1.001-.598-.399-.139-.875-.208-1.43-.208H4.954v6.006zm25.173 4.745c.104 0 .208.022.312.065.104.035.204.1.3.195l1.741 1.833a7.276 7.276 0 0 1-2.873 2.262c-1.144.503-2.5.754-4.069.754-1.439 0-2.73-.243-3.874-.728a8.57 8.57 0 0 1-2.899-2.028c-.789-.867-1.395-1.89-1.82-3.068-.425-1.187-.637-2.474-.637-3.861 0-1.413.243-2.708.728-3.887a9.113 9.113 0 0 1 2.028-3.068c.875-.858 1.92-1.525 3.133-2.002 1.213-.477 2.552-.715 4.017-.715.71 0 1.378.065 2.002.195a9.133 9.133 0 0 1 1.768.52 7.783 7.783 0 0 1 1.508.793c.46.303.867.641 1.222 1.014l-1.482 1.989a2.08 2.08 0 0 1-.338.338c-.13.095-.312.143-.546.143a.975.975 0 0 1-.442-.104 5.987 5.987 0 0 1-.442-.247c-.156-.104-.33-.212-.52-.325a3.15 3.15 0 0 0-.663-.325 4.852 4.852 0 0 0-.897-.26 6.021 6.021 0 0 0-1.196-.104c-.797 0-1.525.143-2.184.429a4.743 4.743 0 0 0-1.703 1.209c-.468.52-.836 1.153-1.105 1.898-.26.745-.39 1.582-.39 2.509 0 .97.13 1.833.39 2.587.269.754.628 1.391 1.08 1.911.458.511.991.901 1.598 1.17a4.76 4.76 0 0 0 1.95.403c.399 0 .763-.017 1.092-.052.33-.043.633-.113.91-.208a4.23 4.23 0 0 0 .806-.364c.26-.156.52-.347.78-.572.104-.087.217-.156.338-.208a.833.833 0 0 1 .377-.091zm9.015-1.43V20h-4.394V1.059h6.682c1.335 0 2.479.16 3.432.481.962.312 1.75.745 2.366 1.3a5.064 5.064 0 0 1 1.378 1.963 6.65 6.65 0 0 1 .442 2.444c0 .945-.152 1.811-.455 2.6a5.218 5.218 0 0 1-1.391 2.028c-.624.563-1.417 1.005-2.379 1.326-.953.312-2.084.468-3.393.468h-2.288zm0-3.315h2.288c1.144 0 1.967-.273 2.47-.819.503-.546.754-1.309.754-2.288 0-.433-.065-.828-.195-1.183a2.318 2.318 0 0 0-.598-.91c-.26-.26-.594-.46-1.001-.598-.399-.139-.875-.208-1.43-.208h-2.288v6.006z" fill="#121111"/></svg>