<svg fill="none" height="31" viewBox="0 0 342 31" width="342" xmlns="http://www.w3.org/2000/svg"><path d="m24.928 13.336c0 1.6853-.2933 3.2533-.88 4.704-.576 1.4507-1.392 2.7147-2.448 3.792-1.056 1.0667-2.3307 1.904-3.824 2.512-1.4827.608-3.1307.912-4.944.912s-3.46667-.304-4.96-.912-2.77333-1.4453-3.84-2.512c-1.056-1.0773-1.87733-2.3413-2.464-3.792-.576-1.4507-.864-3.0187-.864-4.704s.288-3.2533.864-4.704c.58667-1.45067 1.408-2.70933 2.464-3.776 1.06667-1.06667 2.34667-1.904 3.84-2.512s3.1467-.912 4.96-.912 3.4613.30933 4.944.928c1.4933.608 2.768 1.44533 3.824 2.512s1.872 2.32533 2.448 3.776c.5867 1.4507.88 3.0133.88 4.688zm-5.536 0c0-1.152-.1493-2.1867-.448-3.104-.2987-.928-.7307-1.712-1.296-2.352-.5547-.64-1.2373-1.13067-2.048-1.472s-1.7333-.512-2.768-.512c-1.0453 0-1.9787.17067-2.8.512-.81067.34133-1.49867.832-2.064 1.472-.55467.64-.98133 1.424-1.28 2.352-.29867.9173-.448 1.952-.448 3.104 0 1.1627.14933 2.208.448 3.136.29867.9173.72533 1.696 1.28 2.336.56533.64 1.25333 1.1307 2.064 1.472.8213.3307 1.7547.496 2.8.496 1.0347 0 1.9573-.1653 2.768-.496.8107-.3413 1.4933-.832 2.048-1.472.5653-.64.9973-1.4187 1.296-2.336.2987-.928.448-1.9733.448-3.136zm8.4417 11.664v-16.592h2.9441c.2453 0 .4479.02133.6079.064.1707.04267.3094.112.4161.208.1173.08533.2026.20267.2559.352.064.14933.1174.33067.1601.544l.2719 1.552c.6081-.9387 1.2907-1.68 2.0481-2.224.7573-.544 1.5839-.816 2.4799-.816.7574 0 1.3654.18133 1.8241.544l-.6401 3.648c-.0426.224-.1279.384-.2559.48-.1281.0853-.2987.128-.512.128-.1814 0-.3947-.0213-.6401-.064-.2453-.0533-.5546-.08-.9279-.08-1.3014 0-2.3254.6933-3.0721 2.08v10.176zm18.6588-16.592v16.592h-4.96v-16.592zm.576-4.544c0 .39467-.08.768-.24 1.12-.16.34133-.3787.64533-.656.912-.2773.256-.6027.464-.976.624-.3627.14933-.752.224-1.168.224-.4053 0-.784-.07467-1.136-.224-.352-.16-.6667-.368-.944-.624-.2667-.26667-.48-.57067-.64-.912-.1493-.352-.224-.72533-.224-1.12 0-.40533.0747-.784.224-1.136.16-.352.3733-.66133.64-.928.2773-.26667.592-.47467.944-.624s.7307-.224 1.136-.224c.416 0 .8053.07467 1.168.224.3733.14933.6987.35733.976.624s.496.576.656.928.24.73067.24 1.136zm9.605 4.256c.704 0 1.3653.06933 1.984.208.6293.13867 1.2107.336 1.744.592h5.008v1.808c0 .2773-.08.496-.24.656-.1493.16-.4107.2827-.784.368l-1.216.272c.1493.48.224.976.224 1.488 0 .832-.176 1.5787-.528 2.24-.3413.6613-.816 1.2267-1.424 1.696-.5973.4587-1.3067.816-2.128 1.072-.8213.2453-1.7013.368-2.64.368-.5227 0-1.0133-.032-1.472-.096-.3627.2133-.544.4587-.544.736s.144.48.432.608c.2987.1173.688.2027 1.168.256.48.0427 1.0293.0747 1.648.096.6187.0107 1.248.048 1.888.112.64.0533 1.2693.1493 1.888.288s1.168.3627 1.648.672.864.7253 1.152 1.248c.2987.512.448 1.168.448 1.968 0 .7467-.1813 1.4773-.544 2.192s-.896 1.3493-1.6 1.904-1.568.9973-2.592 1.328c-1.024.3413-2.1973.512-3.52.512-1.3013 0-2.4267-.1227-3.376-.368-.9387-.2453-1.7227-.5707-2.352-.976-.6187-.3947-1.0773-.8533-1.376-1.376s-.448-1.0667-.448-1.632c0-.736.224-1.3547.672-1.856.448-.512 1.0613-.912 1.84-1.2-.3733-.2453-.672-.56-.896-.944s-.336-.8693-.336-1.456c0-.2453.0427-.5013.128-.768.0853-.2773.2187-.544.4-.8s.4107-.5013.688-.736.608-.4427.992-.624c-.864-.4587-1.5467-1.0667-2.048-1.824-.4907-.7573-.736-1.6373-.736-2.64 0-.832.176-1.5787.528-2.24.352-.672.832-1.2373 1.44-1.696.6187-.46933 1.344-.82667 2.176-1.072.832-.256 1.7333-.384 2.704-.384zm3.68 17.488c0-.2667-.0853-.48-.256-.64-.16-.16-.384-.288-.672-.384-.2773-.096-.608-.1653-.992-.208-.3733-.0427-.7787-.0747-1.216-.096s-.8907-.0373-1.36-.048c-.4693-.0213-.9333-.0587-1.392-.112-.3093.2133-.5653.4533-.768.72-.192.256-.288.5493-.288.88 0 .2347.048.448.144.64.1067.192.288.3573.544.496s.5973.2453 1.024.32c.4373.0853.9867.128 1.648.128.7147 0 1.3013-.0427 1.76-.128s.8213-.2027 1.088-.352c.2773-.1493.4693-.3307.576-.544.1067-.2027.16-.4267.16-.672zm-3.68-9.776c.8213 0 1.4133-.2027 1.776-.608.3733-.416.56-.9493.56-1.6 0-.672-.1867-1.2-.56-1.584-.3627-.384-.9547-.576-1.776-.576s-1.4187.192-1.792.576c-.3627.384-.544.912-.544 1.584 0 .32.0427.6133.128.88.096.2667.24.5013.432.704.192.192.432.3467.72.464.2987.1067.6507.16 1.056.16zm16.334-7.424v16.592h-4.96v-16.592zm.576-4.544c0 .39467-.08.768-.24 1.12-.16.34133-.3787.64533-.656.912-.2773.256-.6027.464-.976.624-.3627.14933-.752.224-1.168.224-.4053 0-.784-.07467-1.136-.224-.352-.16-.6667-.368-.944-.624-.2667-.26667-.48-.57067-.64-.912-.1493-.352-.224-.72533-.224-1.12 0-.40533.0747-.784.224-1.136.16-.352.3733-.66133.64-.928.2773-.26667.592-.47467.944-.624s.7307-.224 1.136-.224c.416 0 .8053.07467 1.168.224.3733.14933.6987.35733.976.624s.496.576.656.928.24.73067.24 1.136zm3.749 21.136v-16.592h3.072c.3093 0 .5653.06933.768.208.2133.13867.3627.34667.448.624l.288.96c.32-.29867.6507-.576.992-.832s.704-.46933 1.088-.64c.3947-.18133.816-.32 1.264-.416.4587-.10667.9547-.16 1.488-.16.9067 0 1.7067.16 2.4.48.704.30933 1.296.74667 1.776 1.312.48.5547.8427 1.2213 1.088 2 .2453.768.368 1.6053.368 2.512v10.544h-4.96v-10.544c0-.8107-.1867-1.44-.56-1.888-.3733-.4587-.9227-.688-1.648-.688-.544 0-1.056.1173-1.536.352s-.9387.5493-1.376.944v11.824zm30.3385 0c-.469 0-.827-.064-1.072-.192-.235-.128-.432-.3947-.592-.8l-.352-.912c-.416.352-.816.6613-1.2.928s-.784.496-1.2.688c-.405.1813-.843.3147-1.312.4-.459.096-.971.144-1.536.144-.7573 0-1.4453-.096-2.064-.288-.6187-.2027-1.1467-.496-1.584-.88-.4267-.384-.7573-.8587-.992-1.424-.2347-.576-.352-1.2373-.352-1.984 0-.5867.1493-1.1893.448-1.808s.816-1.1787 1.552-1.68c.736-.512 1.728-.9387 2.976-1.28s2.821-.5333 4.72-.576v-.704c0-.9707-.203-1.6693-.608-2.096-.395-.4373-.96-.656-1.696-.656-.587 0-1.067.064-1.44.192s-.709.272-1.008.432c-.288.16-.5707.304-.848.432s-.608.192-.992.192c-.3413 0-.6347-.08-.88-.24-.2347-.1707-.4213-.3787-.56-.624l-.896-1.552c1.0027-.88533 2.112-1.54133 3.328-1.968 1.227-.43733 2.539-.656 3.936-.656 1.003 0 1.904.16533 2.704.496.811.32 1.493.77333 2.048 1.36.565.576.997 1.264 1.296 2.064s.448 1.6747.448 2.624v10.368zm-5.696-3.024c.64 0 1.2-.112 1.68-.336s.965-.5867 1.456-1.088v-2.304c-.992.0427-1.808.128-2.448.256s-1.147.288-1.52.48-.635.4107-.784.656c-.139.2453-.208.512-.208.8 0 .5653.155.9653.464 1.2.309.224.763.336 1.36.336zm16.93-20.928v23.952h-4.96v-23.952zm10.832 23.952v-23.312h8.576c1.611 0 2.982.14933 4.112.448 1.131.29867 2.054.72 2.768 1.264.715.544 1.232 1.20533 1.552 1.984.331.77867.496 1.648.496 2.608 0 .52267-.074 1.02933-.224 1.52-.149.48-.384.9333-.704 1.36s-.73.816-1.232 1.168c-.501.3413-1.104.64-1.808.896 1.536.3733 2.672.9813 3.408 1.824.736.832 1.104 1.904 1.104 3.216 0 .992-.192 1.9147-.576 2.768s-.949 1.6-1.696 2.24c-.736.6293-1.648 1.1253-2.736 1.488-1.088.352-2.33.528-3.728.528zm5.408-9.888v5.808h3.808c.715 0 1.296-.0907 1.744-.272.459-.1813.816-.416 1.072-.704s.432-.6133.528-.976.144-.7307.144-1.104c0-.4267-.058-.8107-.176-1.152-.106-.3413-.298-.6293-.576-.864-.266-.2347-.624-.416-1.072-.544s-1.013-.192-1.696-.192zm0-3.616h2.816c.598 0 1.136-.0427 1.616-.128s.886-.2347 1.216-.448c.342-.2133.598-.5067.768-.88.182-.37333.272-.84267.272-1.408 0-.55467-.069-1.01333-.208-1.376-.138-.37333-.352-.672-.64-.896s-.656-.384-1.104-.48c-.437-.096-.96-.144-1.568-.144h-3.168zm27.368 13.504c-.469 0-.826-.064-1.072-.192-.234-.128-.432-.3947-.592-.8l-.352-.912c-.416.352-.816.6613-1.2.928s-.784.496-1.2.688c-.405.1813-.842.3147-1.312.4-.458.096-.97.144-1.536.144-.757 0-1.445-.096-2.064-.288-.618-.2027-1.146-.496-1.584-.88-.426-.384-.757-.8587-.992-1.424-.234-.576-.352-1.2373-.352-1.984 0-.5867.15-1.1893.448-1.808.299-.6187.816-1.1787 1.552-1.68.736-.512 1.728-.9387 2.976-1.28s2.822-.5333 4.72-.576v-.704c0-.9707-.202-1.6693-.608-2.096-.394-.4373-.96-.656-1.696-.656-.586 0-1.066.064-1.44.192-.373.128-.709.272-1.008.432-.288.16-.57.304-.848.432-.277.128-.608.192-.992.192-.341 0-.634-.08-.88-.24-.234-.1707-.421-.3787-.56-.624l-.896-1.552c1.003-.88533 2.112-1.54133 3.328-1.968 1.227-.43733 2.539-.656 3.936-.656 1.003 0 1.904.16533 2.704.496.811.32 1.494.77333 2.048 1.36.566.576.998 1.264 1.296 2.064.299.8.448 1.6747.448 2.624v10.368zm-5.696-3.024c.64 0 1.2-.112 1.68-.336s.966-.5867 1.456-1.088v-2.304c-.992.0427-1.808.128-2.448.256s-1.146.288-1.52.48c-.373.192-.634.4107-.784.656-.138.2453-.208.512-.208.8 0 .5653.155.9653.464 1.2.31.224.763.336 1.36.336zm17.667-13.856c.704 0 1.365.06933 1.984.208.629.13867 1.21.336 1.744.592h5.008v1.808c0 .2773-.08.496-.24.656-.15.16-.411.2827-.784.368l-1.216.272c.149.48.224.976.224 1.488 0 .832-.176 1.5787-.528 2.24-.342.6613-.816 1.2267-1.424 1.696-.598.4587-1.307.816-2.128 1.072-.822.2453-1.702.368-2.64.368-.523 0-1.014-.032-1.472-.096-.363.2133-.544.4587-.544.736s.144.48.432.608c.298.1173.688.2027 1.168.256.48.0427 1.029.0747 1.648.096.618.0107 1.248.048 1.888.112.64.0533 1.269.1493 1.888.288.618.1387 1.168.3627 1.648.672s.864.7253 1.152 1.248c.298.512.448 1.168.448 1.968 0 .7467-.182 1.4773-.544 2.192-.363.7147-.896 1.3493-1.6 1.904s-1.568.9973-2.592 1.328c-1.024.3413-2.198.512-3.52.512-1.302 0-2.427-.1227-3.376-.368-.939-.2453-1.723-.5707-2.352-.976-.619-.3947-1.078-.8533-1.376-1.376-.299-.5227-.448-1.0667-.448-1.632 0-.736.224-1.3547.672-1.856.448-.512 1.061-.912 1.84-1.2-.374-.2453-.672-.56-.896-.944s-.336-.8693-.336-1.456c0-.2453.042-.5013.128-.768.085-.2773.218-.544.4-.8.181-.256.41-.5013.688-.736.277-.2347.608-.4427.992-.624-.864-.4587-1.547-1.0667-2.048-1.824-.491-.7573-.736-1.6373-.736-2.64 0-.832.176-1.5787.528-2.24.352-.672.832-1.2373 1.44-1.696.618-.46933 1.344-.82667 2.176-1.072.832-.256 1.733-.384 2.704-.384zm3.68 17.488c0-.2667-.086-.48-.256-.64-.16-.16-.384-.288-.672-.384-.278-.096-.608-.1653-.992-.208-.374-.0427-.779-.0747-1.216-.096-.438-.0213-.891-.0373-1.36-.048-.47-.0213-.934-.0587-1.392-.112-.31.2133-.566.4533-.768.72-.192.256-.288.5493-.288.88 0 .2347.048.448.144.64.106.192.288.3573.544.496s.597.2453 1.024.32c.437.0853.986.128 1.648.128.714 0 1.301-.0427 1.76-.128.458-.0853.821-.2027 1.088-.352.277-.1493.469-.3307.576-.544.106-.2027.16-.4267.16-.672zm-3.68-9.776c.821 0 1.413-.2027 1.776-.608.373-.416.56-.9493.56-1.6 0-.672-.187-1.2-.56-1.584-.363-.384-.955-.576-1.776-.576-.822 0-1.419.192-1.792.576-.363.384-.544.912-.544 1.584 0 .32.042.6133.128.88.096.2667.24.5013.432.704.192.192.432.3467.72.464.298.1067.65.16 1.056.16zm33.385 3.136c.128 0 .256.0267.384.08.128.0427.251.1227.368.24l2.144 2.256c-.939 1.2267-2.117 2.1547-3.536 2.784-1.408.6187-3.077.928-5.008.928-1.771 0-3.36-.2987-4.768-.896-1.397-.608-2.587-1.44-3.568-2.496-.971-1.0667-1.717-2.3253-2.24-3.776-.523-1.4613-.784-3.0453-.784-4.752 0-1.7387.299-3.3333.896-4.784.597-1.46133 1.429-2.72 2.496-3.776 1.077-1.056 2.363-1.87733 3.856-2.464s3.141-.88 4.944-.88c.875 0 1.696.08 2.464.24.779.14933 1.504.36266 2.176.64.672.26667 1.291.592 1.856.976.565.37333 1.067.78933 1.504 1.248l-1.824 2.448c-.117.14933-.256.288-.416.416-.16.11733-.384.176-.672.176-.192 0-.373-.04267-.544-.128s-.352-.18667-.544-.304c-.192-.128-.405-.26133-.64-.4-.224-.14933-.496-.28267-.816-.4-.309-.128-.677-.23467-1.104-.32-.416-.08533-.907-.128-1.472-.128-.981 0-1.877.176-2.688.528-.811.34133-1.509.83733-2.096 1.488-.576.64-1.029 1.41867-1.36 2.336-.32.9173-.48 1.9467-.48 3.088 0 1.1947.16 2.256.48 3.184.331.928.773 1.712 1.328 2.352.565.6293 1.221 1.1093 1.968 1.44s1.547.496 2.4.496c.491 0 .939-.0213 1.344-.064.405-.0533.779-.1387 1.12-.256.352-.1173.683-.2667.992-.448.32-.192.64-.4267.96-.704.128-.1067.267-.192.416-.256.149-.0747.304-.112.464-.112zm13.079-10.816c1.259 0 2.406.19733 3.44.592 1.035.39467 1.92.96 2.656 1.696.747.736 1.323 1.632 1.728 2.688.416 1.0453.624 2.224.624 3.536 0 1.3227-.208 2.5173-.624 3.584-.405 1.056-.981 1.9573-1.728 2.704-.736.736-1.621 1.3067-2.656 1.712-1.034.3947-2.181.592-3.44.592-1.269 0-2.426-.1973-3.472-.592-1.034-.4053-1.93-.976-2.688-1.712-.746-.7467-1.328-1.648-1.744-2.704-.405-1.0667-.608-2.2613-.608-3.584 0-1.312.203-2.4907.608-3.536.416-1.056.998-1.952 1.744-2.688.758-.736 1.654-1.30133 2.688-1.696 1.046-.39467 2.203-.592 3.472-.592zm0 13.424c1.142 0 1.979-.4 2.512-1.2.544-.8107.816-2.0373.816-3.68s-.272-2.864-.816-3.664c-.533-.8-1.37-1.2-2.512-1.2-1.173 0-2.032.4-2.576 1.2s-.816 2.0213-.816 3.664.272 2.8693.816 3.68c.544.8 1.403 1.2 2.576 1.2zm16.611-20.528v23.952h-4.96v-23.952zm9.445 0v23.952h-4.96v-23.952zm11.429 7.104c1.098 0 2.101.17067 3.008.512.917.34133 1.701.83733 2.352 1.488.661.6507 1.173 1.4507 1.536 2.4.373.9387.56 2.0053.56 3.2 0 .3733-.016.6773-.048.912s-.091.4213-.176.56c-.086.1387-.203.2347-.352.288-.139.0533-.32.08-.544.08h-9.568c.16 1.3867.581 2.3947 1.264 3.024.682.6187 1.562.928 2.64.928.576 0 1.072-.0693 1.488-.208s.784-.2933 1.104-.464c.33-.1707.629-.3253.896-.464.277-.1387.565-.208.864-.208.394 0 .693.144.896.432l1.44 1.776c-.512.5867-1.067 1.0667-1.664 1.44-.587.3627-1.195.6507-1.824.864-.619.2027-1.243.3413-1.872.416-.619.0853-1.211.128-1.776.128-1.163 0-2.256-.1867-3.28-.56-1.014-.384-1.904-.9493-2.672-1.696-.758-.7467-1.36-1.6747-1.808-2.784-.438-1.1093-.656-2.4-.656-3.872 0-1.1093.186-2.16.56-3.152.384-.992.928-1.8613 1.632-2.608.714-.74667 1.573-1.33867 2.576-1.776 1.013-.43733 2.154-.656 3.424-.656zm.096 3.424c-.95 0-1.691.272-2.224.816-.534.5333-.886 1.3067-1.056 2.32h6.192c0-.3947-.054-.7787-.16-1.152-.096-.3733-.262-.704-.496-.992-.224-.2987-.523-.5387-.896-.72-.374-.1813-.827-.272-1.36-.272zm22.494.768c-.149.1813-.293.3253-.432.432s-.336.16-.592.16c-.245 0-.469-.0587-.672-.176-.192-.1173-.411-.2453-.656-.384-.245-.1493-.533-.2827-.864-.4s-.741-.176-1.232-.176c-.608 0-1.136.112-1.584.336-.437.224-.8.544-1.088.96s-.501.928-.64 1.536c-.139.5973-.208 1.2747-.208 2.032 0 1.5893.304 2.8107.912 3.664.619.8533 1.467 1.28 2.544 1.28.576 0 1.029-.0693 1.36-.208.341-.1493.629-.3093.864-.48.235-.1813.448-.3467.64-.496.203-.1493.453-.224.752-.224.395 0 .693.144.896.432l1.44 1.776c-.512.5867-1.051 1.0667-1.616 1.44-.565.3627-1.147.6507-1.744.864-.587.2027-1.179.3413-1.776.416-.597.0853-1.179.128-1.744.128-1.013 0-1.984-.192-2.912-.576-.917-.384-1.728-.9387-2.432-1.664-.693-.736-1.248-1.6373-1.664-2.704-.405-1.0667-.608-2.2827-.608-3.648 0-1.1947.176-2.3093.528-3.344.363-1.0453.891-1.9467 1.584-2.704.704-.768 1.568-1.37067 2.592-1.808 1.035-.43733 2.229-.656 3.584-.656 1.301 0 2.443.208 3.424.624s1.867 1.024 2.656 1.824zm9.738 12.912c-.789 0-1.488-.112-2.096-.336-.597-.2347-1.104-.56-1.52-.976-.405-.4267-.714-.9387-.928-1.536-.213-.5973-.32-1.264-.32-2v-8.576h-1.408c-.256 0-.474-.08-.656-.24-.181-.1707-.272-.416-.272-.736v-1.936l2.64-.512.976-4.048c.128-.512.491-.768 1.088-.768h2.592v4.848h4.032v3.392h-4.032v8.24c0 .384.091.704.272.96.192.2453.464.368.816.368.182 0 .331-.016.448-.048.128-.0427.235-.0853.32-.128.096-.0533.182-.096.256-.128.086-.0427.182-.064.288-.064.15 0 .267.0373.352.112.096.064.192.1707.288.32l1.504 2.352c-.64.48-1.36.8427-2.16 1.088-.8.2347-1.626.352-2.48.352zm12.429-16.848v16.592h-4.96v-16.592zm.576-4.544c0 .39467-.08.768-.24 1.12-.16.34133-.379.64533-.656.912-.277.256-.603.464-.976.624-.363.14933-.752.224-1.168.224-.405 0-.784-.07467-1.136-.224-.352-.16-.667-.368-.944-.624-.267-.26667-.48-.57067-.64-.912-.149-.352-.224-.72533-.224-1.12 0-.40533.075-.784.224-1.136.16-.352.373-.66133.64-.928.277-.26667.592-.47467.944-.624s.731-.224 1.136-.224c.416 0 .805.07467 1.168.224.373.14933.699.35733.976.624s.496.576.656.928.24.73067.24 1.136zm11.141 4.288c1.259 0 2.405.19733 3.44.592s1.92.96 2.656 1.696c.747.736 1.323 1.632 1.728 2.688.416 1.0453.624 2.224.624 3.536 0 1.3227-.208 2.5173-.624 3.584-.405 1.056-.981 1.9573-1.728 2.704-.736.736-1.621 1.3067-2.656 1.712-1.035.3947-2.181.592-3.44.592-1.269 0-2.427-.1973-3.472-.592-1.035-.4053-1.931-.976-2.688-1.712-.747-.7467-1.328-1.648-1.744-2.704-.405-1.0667-.608-2.2613-.608-3.584 0-1.312.203-2.4907.608-3.536.416-1.056.997-1.952 1.744-2.688.757-.736 1.653-1.30133 2.688-1.696 1.045-.39467 2.203-.592 3.472-.592zm0 13.424c1.141 0 1.979-.4 2.512-1.2.544-.8107.816-2.0373.816-3.68s-.272-2.864-.816-3.664c-.533-.8-1.371-1.2-2.512-1.2-1.173 0-2.032.4-2.576 1.2s-.816 2.0213-.816 3.664.272 2.8693.816 3.68c.544.8 1.403 1.2 2.576 1.2zm11.491 3.424v-16.592h3.072c.309 0 .565.06933.768.208.213.13867.362.34667.448.624l.288.96c.32-.29867.65-.576.992-.832.341-.256.704-.46933 1.088-.64.394-.18133.816-.32 1.264-.416.458-.10667.954-.16 1.488-.16.906 0 1.706.16 2.4.48.704.30933 1.296.74667 1.776 1.312.48.5547.842 1.2213 1.088 2 .245.768.368 1.6053.368 2.512v10.544h-4.96v-10.544c0-.8107-.187-1.44-.56-1.888-.374-.4587-.923-.688-1.648-.688-.544 0-1.056.1173-1.536.352s-.939.5493-1.376.944v11.824z" fill="#121111"/></svg>