<svg fill="none" height="21" viewBox="0 0 140 21" width="140" xmlns="http://www.w3.org/2000/svg"><path d="m4.72 6.519v13.481h-4.03v-13.481zm.468-3.692c0 .32067-.065.624-.195.91-.13.27733-.30767.52433-.533.741-.22533.208-.48967.377-.793.507-.29467.12133-.611.182-.949.182-.32933 0-.637-.06067-.923-.182-.286-.13-.54167-.299-.767-.507-.216667-.21667-.39-.46367-.52-.741-.121333-.286-.182-.58933-.182-.91 0-.32933.060667-.637.182-.923.13-.286.303333-.53733.52-.754.22533-.216667.481-.385667.767-.507001.286-.121333.59367-.181999.923-.181999.338 0 .65433.060666.949.181999.30333.121334.56767.290334.793.507001.22533.21667.403.468.533.754s.195.59367.195.923zm8.8181 3.484c.8926 0 1.7073.13867 2.444.416.7453.27733 1.3823.68033 1.911 1.209.5373.52867.9533 1.17867 1.248 1.95.3033.7627.455 1.6293.455 2.6 0 .3033-.013.5503-.039.741s-.0737.3423-.143.455c-.0694.1127-.1647.1907-.286.234-.1127.0433-.26.065-.442.065h-7.774c.13 1.1267.4723 1.9457 1.027 2.457.5546.5027 1.2696.754 2.145.754.468 0 .871-.0563 1.209-.169s.637-.2383.897-.377c.2686-.1387.5113-.2643.728-.377.2253-.1127.4593-.169.702-.169.3206 0 .5633.117.728.351l1.17 1.443c-.416.4767-.8667.8667-1.352 1.17-.4767.2947-.9707.5287-1.482.702-.5027.1647-1.0097.2773-1.521.338-.5027.0693-.9837.104-1.443.104-.9447 0-1.833-.1517-2.665-.455-.8234-.312-1.54704-.7713-2.17104-1.378-.61533-.6067-1.105-1.3607-1.469-2.262-.35533-.9013-.533-1.95-.533-3.146 0-.9013.15167-1.755.455-2.561.312-.806.754-1.51233 1.326-2.119.58067-.60667 1.27834-1.08767 2.09304-1.443.8233-.35533 1.7506-.533 2.782-.533zm.078 2.782c-.7714 0-1.3737.221-1.807.663-.4334.4333-.7194 1.0617-.858 1.885h5.031c0-.3207-.0434-.6327-.13-.936-.078-.3033-.2124-.572-.403-.806-.182-.24267-.4247-.43767-.728-.585-.3034-.14733-.6717-.221-1.105-.221zm8.2925 1.378h7.02v3.25h-7.02zm15.9151-4.16c.8927 0 1.7073.13867 2.444.416.7453.27733 1.3823.68033 1.911 1.209.5373.52867.9533 1.17867 1.248 1.95.3033.7627.455 1.6293.455 2.6 0 .3033-.013.5503-.039.741s-.0737.3423-.143.455-.1647.1907-.286.234c-.1127.0433-.26.065-.442.065h-7.774c.13 1.1267.4723 1.9457 1.027 2.457.5547.5027 1.2697.754 2.145.754.468 0 .871-.0563 1.209-.169s.637-.2383.897-.377c.2687-.1387.5113-.2643.728-.377.2253-.1127.4593-.169.702-.169.3207 0 .5633.117.728.351l1.17 1.443c-.416.4767-.8667.8667-1.352 1.17-.4767.2947-.9707.5287-1.482.702-.5027.1647-1.0097.2773-1.521.338-.5027.0693-.9837.104-1.443.104-.9447 0-1.833-.1517-2.665-.455-.8233-.312-1.547-.7713-2.171-1.378-.6153-.6067-1.105-1.3607-1.469-2.262-.3553-.9013-.533-1.95-.533-3.146 0-.9013.1517-1.755.455-2.561.312-.806.754-1.51233 1.326-2.119.5807-.60667 1.2783-1.08767 2.093-1.443.8233-.35533 1.7507-.533 2.782-.533zm.078 2.782c-.7713 0-1.3737.221-1.807.663-.4333.4333-.7193 1.0617-.858 1.885h5.031c0-.3207-.0433-.6327-.13-.936-.078-.3033-.2123-.572-.403-.806-.182-.24267-.4247-.43767-.728-.585s-.6717-.221-1.105-.221zm8.5526 10.907v-13.481h2.392c.1993 0 .364.01733.494.052.1386.03467.2513.091.338.169.0953.06933.1646.16467.208.286.052.12133.0953.26867.13.442l.221 1.261c.494-.76267 1.0486-1.365 1.664-1.807.6153-.442 1.287-.663 2.015-.663.6153 0 1.1093.14733 1.482.442l-.52 2.964c-.0347.182-.104.312-.208.39-.104.0693-.2427.104-.416.104-.1474 0-.3207-.0173-.52-.052-.1994-.0433-.4507-.065-.754-.065-1.0574 0-1.8894.5633-2.496 1.69v8.268zm20.0543 0c-.3813 0-.6717-.052-.871-.156-.1907-.104-.351-.3207-.481-.65l-.286-.741c-.338.286-.663.5373-.975.754s-.637.403-.975.559c-.3293.1473-.6847.2557-1.066.325-.3727.078-.7887.117-1.248.117-.6153 0-1.1743-.078-1.677-.234-.5027-.1647-.9317-.403-1.287-.715-.3467-.312-.6153-.6977-.806-1.157-.1907-.468-.286-1.0053-.286-1.612 0-.4767.1213-.9663.364-1.469s.663-.9577 1.261-1.365c.598-.416 1.404-.7627 2.418-1.04s2.2923-.4333 3.835-.468v-.572c0-.7887-.1647-1.3563-.494-1.703-.3207-.35533-.78-.533-1.378-.533-.4767 0-.8667.052-1.17.156s-.5763.221-.819.351c-.234.13-.4637.247-.689.351s-.494.156-.806.156c-.2773 0-.5157-.065-.715-.195-.1907-.1387-.3423-.30767-.455-.507l-.728-1.261c.8147-.71933 1.716-1.25233 2.704-1.599.9967-.35533 2.0627-.533 3.198-.533.8147 0 1.547.13433 2.197.403.6587.26 1.2133.62833 1.664 1.105.4593.468.8103 1.027 1.053 1.677s.364 1.3607.364 2.132v8.424zm-4.628-2.457c.52 0 .975-.091 1.365-.273s.7843-.4767 1.183-.884v-1.872c-.806.0347-1.469.104-1.989.208s-.9317.234-1.235.39-.5157.3337-.637.533c-.1127.1993-.169.416-.169.65 0 .4593.1257.7843.377.975.2513.182.6197.273 1.105.273zm9.5956 2.457v-19.461001h4.03v7.410001c.5027-.494 1.0704-.88833 1.703-1.183.6414-.30333 1.391-.455 2.249-.455.702 0 1.352.15167 1.95.455s1.1137.74967 1.547 1.339c.4334.58067.7714 1.29567 1.014 2.145.2514.8493.377 1.8157.377 2.899 0 1.014-.143 1.95-.429 2.808-.2773.858-.6716 1.6033-1.183 2.236-.5026.6327-1.1093 1.1267-1.82 1.482-.702.3553-1.482.533-2.34.533-.3987 0-.7583-.039-1.079-.117-.312-.078-.6023-.1863-.871-.325-.26-.1473-.5027-.3207-.728-.52-.2167-.1993-.429-.416-.637-.65l-.143.676c-.0607.2773-.1733.468-.338.572-.156.104-.364.156-.624.156zm6.578-10.66c-.2947 0-.5633.03033-.806.091-.234.052-.455.13-.663.234-.1993.104-.3857.23833-.559.403-.1733.156-.3467.338-.52.546v5.72c.3033.338.6327.5763.988.715.3554.13.728.195 1.118.195.3727 0 .715-.0737 1.027-.221s.5807-.3813.806-.702c.234-.3293.416-.754.546-1.274s.195-1.1527.195-1.898c0-.7107-.052-1.3087-.156-1.794s-.2513-.8753-.442-1.17c-.182-.30333-.403-.52-.663-.65s-.5503-.195-.871-.195zm12.9241-2.821v13.481h-4.0301v-13.481zm.4679-3.692c0 .32067-.065.624-.1949.91-.1301.27733-.3077.52433-.5331.741-.2253.208-.4896.377-.7929.507-.2947.12133-.6111.182-.9491.182-.3293 0-.637-.06067-.923-.182-.286-.13-.5416-.299-.767-.507-.2166-.21667-.39-.46367-.52-.741-.1213-.286-.182-.58933-.182-.91 0-.32933.0607-.637.182-.923.13-.286.3034-.53733.52-.754.2254-.216667.481-.385667.767-.507001.286-.121333.5937-.181999.923-.181999.338 0 .6544.060666.9491.181999.3033.121334.5676.290334.7929.507001.2254.21667.403.468.5331.754.1299.286.1949.59367.1949.923zm2.2661 15.132c0-.312.0563-.6023.169-.871.1213-.2687.2817-.5027.481-.702.208-.1993.4507-.3553.728-.468.2773-.1213.5807-.182.91-.182.3207 0 .6197.0607.897.182.2773.1127.52.2687.728.468s.3683.4333.481.702c.1213.2687.182.559.182.871s-.0607.6067-.182.884c-.1127.2687-.273.5027-.481.702s-.4507.3553-.728.468-.5763.169-.897.169c-.3293 0-.6327-.0563-.91-.169s-.52-.2687-.728-.468c-.1993-.1993-.3597-.4333-.481-.702-.1127-.2773-.169-.572-.169-.884zm7.1847 2.041v-13.481h2.496c.251 0 .459.05633.624.169.173.11267.295.28167.364.507l.234.78c.26-.24267.529-.468.806-.676s.572-.38133.884-.52c.321-.14733.663-.26 1.027-.338.373-.08667.776-.13 1.209-.13.737 0 1.387.13 1.95.39.572.25133 1.053.60667 1.443 1.066.39.45067.685.99233.884 1.625.199.624.299 1.3043.299 2.041v8.567h-4.03v-8.567c0-.6587-.152-1.17-.455-1.534-.303-.37267-.75-.559-1.339-.559-.442 0-.858.09533-1.248.286s-.763.4463-1.118.767v9.607zm21.114-13.689c.893 0 1.707.13867 2.444.416.745.27733 1.382.68033 1.911 1.209.537.52867.953 1.17867 1.248 1.95.303.7627.455 1.6293.455 2.6 0 .3033-.013.5503-.039.741s-.074.3423-.143.455-.165.1907-.286.234c-.113.0433-.26.065-.442.065h-7.774c.13 1.1267.472 1.9457 1.027 2.457.555.5027 1.27.754 2.145.754.468 0 .871-.0563 1.209-.169s.637-.2383.897-.377c.269-.1387.511-.2643.728-.377.225-.1127.459-.169.702-.169.321 0 .563.117.728.351l1.17 1.443c-.416.4767-.867.8667-1.352 1.17-.477.2947-.971.5287-1.482.702-.503.1647-1.01.2773-1.521.338-.503.0693-.984.104-1.443.104-.945 0-1.833-.1517-2.665-.455-.823-.312-1.547-.7713-2.171-1.378-.615-.6067-1.105-1.3607-1.469-2.262-.355-.9013-.533-1.95-.533-3.146 0-.9013.152-1.755.455-2.561.312-.806.754-1.51233 1.326-2.119.581-.60667 1.278-1.08767 2.093-1.443.823-.35533 1.751-.533 2.782-.533zm.078 2.782c-.771 0-1.374.221-1.807.663-.433.4333-.719 1.0617-.858 1.885h5.031c0-.3207-.043-.6327-.13-.936-.078-.3033-.212-.572-.403-.806-.182-.24267-.425-.43767-.728-.585s-.672-.221-1.105-.221zm13.284 11.115c-.641 0-1.209-.091-1.703-.273-.485-.1907-.897-.455-1.235-.793-.329-.3467-.58-.7627-.754-1.248-.173-.4853-.26-1.027-.26-1.625v-6.968h-1.144c-.208 0-.385-.065-.533-.195-.147-.13867-.221-.338-.221-.598v-1.573l2.145-.416.793-3.289c.104-.416.399-.624.884-.624h2.106v3.939h3.276v2.756h-3.276v6.695c0 .312.074.572.221.78.156.1993.377.299.663.299.148 0 .269-.013.364-.039.104-.0347.191-.0693.26-.104.078-.0433.148-.078.208-.104.07-.0347.148-.052.234-.052.122 0 .217.0303.286.091.078.052.156.1387.234.26l1.222 1.911c-.52.39-1.105.6847-1.755.884-.65.1907-1.321.286-2.015.286z" fill="#121111"/></svg>