<svg fill="none" height="25" viewBox="0 0 129 25" width="129" xmlns="http://www.w3.org/2000/svg"><g fill="#121111"><path d="m21.776 1.137v18.863h-3.445v-11.58299c0-.24267.0043-.50267.013-.78001.0173-.27733.0433-.55899.078-.84499l-5.395 10.23099c-.2947.5633-.7497.845-1.365.845h-.546c-.3033 0-.572-.0693-.806-.208-.234-.1473-.42032-.3597-.55899-.637l-5.421-10.27c.026.30334.04767.598.065.884.01734.27734.026.53734.026.78001v11.58299h-3.444997v-18.863h2.963997c.16467 0 .312.00434.442.01301.13.00866.24267.03466.338.07799.104.03467.195.09534.273.182.08667.078.169.19067.247.338l5.27799 10.062c.1647.3033.3163.6153.455.936.1473.3207.286.65.416.988.13-.3467.2643-.6847.403-1.014.1473-.3293.3033-.6457.468-.949l5.239-10.023c.078-.14733.1603-.26.247-.338.0867-.08666.1777-.14733.273-.182.104-.04333.2167-.06933.338-.07799.13-.00867.2817-.01301.455-.01301z"/><path d="m37.1012 6.59701-7.228 17.00399c-.1127.2427-.2513.4247-.416.546-.156.1213-.4073.182-.754.182h-2.665l2.535-5.408-5.382-12.32399h3.146c.286 0 .507.065.663.195s.2687.28166.338.455l2.548 6.40899c.0953.2513.1777.507.247.767.078.2513.1517.5027.221.754.156-.5113.3337-1.0227.533-1.534l2.366-6.39599c.0693-.19067.195-.34667.377-.468.182-.12134.3813-.182.598-.182z"/><path d="m44.4186 10.068c.6326 0 1.1786-.07799 1.638-.23399.4593-.16467.8363-.38567 1.131-.663.2946-.286.5113-.61967.65-1.001.1386-.38134.208-.79734.208-1.24801 0-.89266-.299-1.586-.897-2.08-.5894-.494-1.4907-.74099-2.704-.74099h-2.028v5.96699zm9.139 9.932h-3.523c-.6587 0-1.1354-.2513-1.43-.754l-3.588-5.785c-.1474-.2253-.312-.39-.494-.494-.1734-.104-.4334-.156-.78-.156h-1.326v7.189h-3.9v-18.863h5.928c1.3173 0 2.444.13867 3.38.41601.936.26866 1.703.64566 2.301 1.131.598.48533 1.0356 1.06599 1.313 1.74199.2773.66734.416 1.404.416 2.21001 0 .624-.091 1.21766-.273 1.781-.1734.55466-.429 1.06166-.767 1.521-.338.45929-.754.86669-1.248 1.22199s-1.0574.6413-1.69.858c.2513.1387.4853.3077.702.507.2166.1907.4116.4203.585.689z"/><path d="m62.2607 11.719c0-.3727-.052-.728-.156-1.066-.0954-.338-.2514-.637-.468-.897-.2167-.26-.4897-.46366-.819-.61099-.3294-.156-.7237-.234-1.183-.234-.858 0-1.5297.24266-2.015.728-.4854.48529-.8017 1.17869-.949 2.07999zm-5.642 2.132c.1126 1.2567.468 2.1753 1.066 2.756.6066.5807 1.3953.871 2.366.871.494 0 .9186-.0563 1.274-.169.364-.1213.6803-.2513.949-.39.2773-.1473.5243-.2773.741-.39.2253-.1213.4463-.182.663-.182.2773 0 .494.104.65.312l1.04 1.3c-.3814.442-.8017.8103-1.261 1.105-.4594.286-.936.5157-1.43.689-.494.1647-.9924.2773-1.495.338-.5027.0693-.988.104-1.456.104-.936 0-1.8114-.1517-2.626-.455-.806-.312-1.5124-.767-2.119-1.365-.598-.6067-1.0704-1.3563-1.417-2.249-.3467-.8927-.52-1.9283-.52-3.107 0-.91.1473-1.768.442-2.574.3033-.806.7366-1.50799 1.3-2.10599.5633-.598 1.248-1.07034 2.054-1.41701.806-.35533 1.716-.53299 2.73-.53299.858 0 1.6466.13866 2.366.41599.728.26867 1.352.663 1.872 1.183.5286.52.936 1.16134 1.222 1.924.2946.754.442 1.6163.442 2.587 0 .2687-.013.4897-.039.663s-.0694.312-.13.416c-.0607.104-.143.1777-.247.221-.104.0347-.2384.052-.403.052z"/><path d="m74.4451 14.397c-.8753.0433-1.6033.1213-2.184.234-.5807.104-1.0443.2427-1.391.416-.338.1733-.5807.3727-.728.598-.1387.2167-.208.455-.208.715 0 .52.143.8883.429 1.105.2947.2167.702.325 1.222.325.598 0 1.1137-.104 1.547-.312.442-.2167.8797-.5503 1.313-1.001zm-7.306-5.94099c.7887-.71067 1.6597-1.23934 2.613-1.586.9533-.35534 1.9847-.533 3.094-.533.7973 0 1.508.13 2.132.39.6327.25999 1.1657.624 1.599 1.092.442.45933.78 1.00966 1.014 1.651.234.64129.351 1.34329.351 2.10599v8.424h-1.638c-.338 0-.598-.0477-.78-.143-.1733-.0953-.3163-.2947-.429-.598l-.286-.858c-.338.2947-.6673.5547-.988.78-.312.2253-.637.416-.975.572-.338.1473-.702.26-1.092.338-.3813.078-.8103.117-1.287.117-.5893 0-1.1267-.078-1.612-.234s-.9057-.3857-1.261-.689c-.3467-.312-.6153-.6977-.806-1.157s-.286-.988-.286-1.586c0-.494.1257-.988.377-1.482s.6803-.9403 1.287-1.339c.6153-.4073 1.43-.741 2.444-1.001 1.0227-.2687 2.301-.4203 3.835-.455v-.689c0-.8407-.1777-1.456-.533-1.84599-.3553-.39867-.8667-.598-1.534-.598-.494 0-.9057.06066-1.235.18199-.3293.11267-.6197.23834-.871.37701-.2427.13-.4723.25566-.689.37699-.2167.1127-.468.169-.754.169-.2513 0-.4637-.0607-.637-.182-.1647-.12999-.3033-.28166-.416-.45499z"/><path d="m84.0968.617005v19.382995h-3.588v-19.382995z"/><path d="m100.441 4.283h-5.5122v15.717h-3.913v-15.717h-5.512v-3.146h14.9372z"/><path d="m102.881 8.807c.424-.76266.914-1.36499 1.469-1.80699.554-.442 1.204-.663 1.95-.663.606 0 1.1.143 1.482.429l-.234 2.65199c-.044.17334-.113.29467-.208.36401-.087.06066-.208.09099-.364.09099-.139 0-.338-.01733-.598-.052-.26-.04333-.503-.065-.728-.065-.33 0-.624.04767-.884.14301-.252.09533-.477.22969-.676.40299-.2.1733-.382.3857-.546.637-.156.2513-.304.5373-.442.858v8.203h-3.5884v-13.40299h2.1194c.364 0 .615.065.754.195.138.13.238.35533.299.67599z"/><path d="m112.746 6.59701v13.40299h-3.588v-13.40299zm.429-3.80901c0 .30334-.06.58501-.182.84501-.121.25999-.286.48966-.494.68899-.199.19934-.437.35534-.715.468-.268.11267-.559.16901-.871.16901-.294 0-.576-.05634-.845-.16901-.26-.11266-.489-.26866-.689-.468-.199-.19933-.359-.429-.481-.68899-.112-.26-.169-.54167-.169-.84501 0-.30333.057-.585.169-.845.122-.26866.282-.50266.481-.702.2-.19933.429-.355329.689-.467995.269-.112667.551-.169001.845-.169001.312 0 .603.056334.871.169001.278.112666.516.268665.715.467995.208.19934.373.43334.494.702.122.26.182.54167.182.845z"/><path d="m119.136 16.464c.338.39.702.663 1.092.819.399.156.824.234 1.274.234.434 0 .828-.0823 1.183-.247.356-.1647.659-.4203.91-.767.26-.3553.46-.806.598-1.352.139-.546.208-1.196.208-1.95 0-.7453-.06-1.378-.182-1.898-.112-.52-.277-.9403-.494-1.261-.208-.32066-.463-.55033-.767-.689-.303-.14733-.641-.22099-1.014-.22099-.632 0-1.165.12566-1.599.37699-.424.24267-.827.6023-1.209 1.079zm-.208-8.11199c.269-.29467.555-.56334.858-.806.304-.25134.629-.46367.975-.63701.347-.18199.72-.32066 1.118-.41599.399-.104.832-.156 1.3-.156.72 0 1.378.156 1.976.46799.607.30334 1.127.74967 1.56 1.339.434.58067.772 1.29567 1.014 2.145.243.8493.364 1.82.364 2.912 0 1.0053-.138 1.937-.416 2.795-.268.8493-.654 1.586-1.157 2.21-.502.624-1.109 1.1137-1.82 1.469-.702.3467-1.486.52-2.353.52-.728 0-1.347-.1083-1.859-.325-.502-.2167-.953-.5113-1.352-.884v5.343h-3.588v-17.73199h2.21c.451 0 .75.20799.897.62399z"/></g></svg>