<svg version="1.0" xmlns="http://www.w3.org/2000/svg" width="346.667" height="346.667" viewBox="0 0 260 260"><path d="M71 65v36l-20.2.2-20.3.3v129H75c42.8 0 44.8-.1 53.3-2.3 24-6 41-16.8 51.6-32.8 7.2-10.8 9.4-18.7 8.9-31.7-.3-5.6-.8-10.9-1.2-11.8-.5-1.2.1-2 2.5-2.9 6.7-2.8 17.6-10.9 24-17.8 20.5-22.2 20.7-51.4.3-74.1-12.6-14-34.1-24.2-56.9-27-5.1-.6-25.6-1.1-47.7-1.1H71v36zm97.5-20.2c4.4 1.2 12.2 4.3 17.4 6.8 12.1 6 22.1 15.5 27.2 25.9 3.1 6.4 3.4 7.7 3.4 16.5 0 9.1-.2 10-3.7 17.2-6.4 12.9-19.7 23.8-36 29.4-14.2 4.9-19.4 5.4-57.4 5.4H84V41.9l38.3.3c35.4.4 38.8.6 46.2 2.6zM44.7 192.2c-.1 14.5-.2 2.7-.2-26.2s.1-40.7.2-26.3c.2 14.5.2 38.1 0 52.5zm25-44.5c-.1 6.5-.3 1.4-.3-11.2 0-12.7.2-18 .3-11.8.2 6.2.2 16.5 0 23zM175 157c0 .5-.7.7-1.5.4-.8-.4-1.5-.8-1.5-1 0-.2.7-.4 1.5-.4s1.5.4 1.5 1zm-4.3.6c-.3.3-1.2.4-1.9.1-.8-.3-.5-.6.6-.6 1.1-.1 1.7.2 1.3.5zm-5.4 1.1c-.7.2-1.9.2-2.5 0-.7-.3-.2-.5 1.2-.5s1.9.2 1.3.5zm-5.5 1c-1 .2-2.8.2-4 0-1.3-.2-.5-.4 1.7-.4 2.2-.1 3.2.1 2.3.4zm-27.5 1c-11.1.2-29.5.2-41 0-11.4-.1-2.4-.2 20.2-.2 22.6 0 31.9.1 20.8.2zm43.4 8.5c-.2 1.8-.4.4-.4-3.2s.2-5 .4-3.3c.2 1.8.2 4.8 0 6.5zm-1 7c-.3.8-.6.5-.6-.6-.1-1.1.2-1.7.5-1.3.3.3.4 1.2.1 1.9zm-1.6 4.5c-1.2 2-1.4 1.4-.5-1.2.4-.9.9-1.4 1.1-1.1.3.2 0 1.3-.6 2.3zm-3.1 6.2c-.5 1.1-1.5 2.3-2.1 2.7-.6.3-.3-.5.6-2 2-3 3-3.5 1.5-.7zm-7 8.6c-2.4 2.5-4.6 4.5-4.9 4.5-.3 0 1.5-2 3.9-4.5s4.6-4.5 4.9-4.5c.3 0-1.5 2-3.9 4.5zm-6 4.9c0 .2-.8 1-1.7 1.7-1.6 1.3-1.7 1.2-.4-.4 1.3-1.6 2.1-2.1 2.1-1.3zm-7 5.1c0 .6-7.6 4.5-8.7 4.5-.4-.1 1.2-1.2 3.7-2.5 5-2.7 5-2.7 5-2zm-26.7 10.2c-.7.2-1.9.2-2.5 0-.7-.3-.2-.5 1.2-.5s1.9.2 1.3.5zm-6.5 1c-1 .2-2.6.2-3.5 0-1-.3-.2-.5 1.7-.5s2.7.2 1.8.5z"/></svg>