<svg width="80" height="13" fill="none" xmlns="http://www.w3.org/2000/svg"><path d="M4.515.953c.54 0 1.025.08 1.455.24.435.154.805.372 1.11.652.305.28.537.615.697 1.005.165.385.248.81.248 1.275 0 .4-.058.77-.173 1.11-.11.34-.262.665-.457.975a6.936 6.936 0 0 1-.682.893c-.256.285-.528.575-.818.87l-2.137 2.19a7.24 7.24 0 0 1 .81-.188c.27-.05.522-.075.757-.075h2.04c.25 0 .447.07.592.21a.703.703 0 0 1 .218.54V12H.495v-.75c0-.145.03-.3.09-.465.06-.165.165-.315.315-.45l3.15-3.173c.27-.27.505-.527.705-.772.2-.245.365-.485.495-.72.13-.24.228-.478.293-.713.064-.24.097-.492.097-.757 0-.435-.105-.768-.315-.998-.205-.235-.52-.352-.945-.352a1.442 1.442 0 0 0-1.17.578c-.08.115-.145.24-.195.375-.08.224-.183.387-.308.487-.12.1-.284.15-.494.15a2 2 0 0 1-.338-.03l-1.23-.218c.08-.545.232-1.02.458-1.425.23-.405.512-.742.847-1.012.34-.27.728-.47 1.162-.6A4.708 4.708 0 0 1 4.515.952zm12.436 5.58c0 .954-.102 1.782-.307 2.482-.205.7-.49 1.28-.855 1.74-.36.46-.79.802-1.29 1.027a3.85 3.85 0 0 1-1.613.338 3.85 3.85 0 0 1-1.612-.337 3.427 3.427 0 0 1-1.275-1.028c-.36-.46-.643-1.04-.848-1.74-.2-.7-.3-1.528-.3-2.483 0-.955.1-1.782.3-2.482.205-.7.488-1.28.848-1.74.36-.46.785-.8 1.275-1.02a3.85 3.85 0 0 1 1.612-.338c.58 0 1.118.113 1.613.338.5.22.93.56 1.29 1.02.365.46.65 1.04.855 1.74.205.7.307 1.527.307 2.482zm-2.4 0c0-.756-.047-1.373-.142-1.853-.095-.485-.223-.865-.383-1.14-.155-.275-.332-.462-.532-.563a1.294 1.294 0 0 0-.608-.157c-.205 0-.407.053-.607.158-.195.1-.37.287-.525.562-.15.275-.273.655-.368 1.14-.09.48-.135 1.098-.135 1.853 0 .76.045 1.38.135 1.86.095.48.218.86.368 1.14.155.274.33.465.525.57.2.1.402.15.607.15.205 0 .408-.05.608-.15.2-.105.377-.296.532-.57.16-.28.288-.66.383-1.14.095-.48.142-1.1.142-1.86zm4.441 3.787h2.1V4.807c0-.27.008-.552.023-.847l-1.238 1.027a.867.867 0 0 1-.24.143.778.778 0 0 1-.585-.045.798.798 0 0 1-.225-.188l-.735-.975 3.405-2.857h1.92v9.255h1.8V12h-6.225v-1.68zm8.552 0h2.1V4.807c0-.27.007-.552.022-.847l-1.238 1.027a.867.867 0 0 1-.24.143.778.778 0 0 1-.584-.045.798.798 0 0 1-.226-.188l-.735-.975 3.405-2.857h1.92v9.255h1.8V12h-6.224v-1.68zm10.161-3.817h4.05v1.874h-4.05V6.502zM49.622.953c.54 0 1.025.08 1.455.24.435.154.805.372 1.11.652.305.28.538.615.698 1.005.165.385.247.81.247 1.275 0 .4-.057.77-.172 1.11a4.33 4.33 0 0 1-.458.975 6.936 6.936 0 0 1-.682.893c-.255.285-.528.575-.818.87l-2.137 2.19a7.24 7.24 0 0 1 .81-.188c.27-.05.522-.075.757-.075h2.04c.25 0 .448.07.593.21a.703.703 0 0 1 .217.54V12h-7.68v-.75c0-.145.03-.3.09-.465.06-.165.165-.315.315-.45l3.15-3.173c.27-.27.505-.527.705-.772.2-.245.365-.485.495-.72.13-.24.228-.478.293-.713.065-.24.097-.492.097-.757 0-.435-.105-.768-.315-.998-.205-.235-.52-.352-.945-.352a1.442 1.442 0 0 0-1.17.578c-.08.115-.145.24-.195.375-.08.224-.182.387-.307.487-.12.1-.285.15-.495.15a2 2 0 0 1-.338-.03l-1.23-.218c.08-.545.233-1.02.458-1.425.23-.405.512-.742.847-1.012.34-.27.728-.47 1.163-.6a4.708 4.708 0 0 1 1.402-.203zm12.436 5.58c0 .954-.102 1.782-.307 2.482-.205.7-.49 1.28-.855 1.74-.36.46-.79.802-1.29 1.027a3.85 3.85 0 0 1-1.613.338 3.85 3.85 0 0 1-1.612-.337 3.427 3.427 0 0 1-1.275-1.028c-.36-.46-.643-1.04-.848-1.74-.2-.7-.3-1.528-.3-2.483 0-.955.1-1.782.3-2.482.205-.7.488-1.28.848-1.74.36-.46.785-.8 1.275-1.02a3.85 3.85 0 0 1 1.612-.338c.58 0 1.118.113 1.613.338.5.22.93.56 1.29 1.02.365.46.65 1.04.855 1.74.205.7.307 1.527.307 2.482zm-2.4 0c0-.756-.047-1.373-.142-1.853-.095-.485-.223-.865-.383-1.14-.155-.275-.332-.462-.532-.563a1.294 1.294 0 0 0-.608-.157c-.205 0-.407.053-.607.158-.195.1-.37.287-.525.562-.15.275-.273.655-.368 1.14-.09.48-.135 1.098-.135 1.853 0 .76.045 1.38.135 1.86.095.48.218.86.368 1.14.155.274.33.465.525.57.2.1.402.15.607.15.205 0 .408-.05.608-.15.2-.105.377-.296.532-.57.16-.28.288-.66.383-1.14.095-.48.142-1.1.142-1.86zM64.1 10.32h2.1V4.807c0-.27.007-.552.022-.847l-1.237 1.027a.867.867 0 0 1-.24.143.778.778 0 0 1-.585-.045.798.798 0 0 1-.225-.188l-.735-.975 3.405-2.857h1.92v9.255h1.8V12H64.1v-1.68zm14.956-9.248v.975c0 .275-.03.498-.09.668-.06.17-.118.315-.173.435l-3.817 8.085c-.1.215-.248.398-.443.548-.195.145-.452.217-.772.217h-1.695l3.9-7.822c.105-.216.217-.408.337-.578.125-.17.26-.333.405-.488h-4.807a.56.56 0 0 1-.203-.037.74.74 0 0 1-.165-.113.74.74 0 0 1-.112-.165.462.462 0 0 1-.045-.195v-1.53h7.68z" fill="#121111"/></svg>