<svg fill="none" height="13" viewBox="0 0 80 13" width="80" xmlns="http://www.w3.org/2000/svg"><path d="m4.515.9525c.54 0 1.025.08 1.455.24.435.155.805.3725 1.11.6525s.5375.615.6975 1.005c.165.385.2475.81.2475 1.275 0 .4-.0575.77-.1725 1.11-.11.34-.2625.665-.4575.975-.195.305-.4225.6025-.6825.8925-.255.285-.5275.575-.8175.87l-2.1375 2.19c.275-.08.545-.1425.81-.1875.27-.05.5225-.075.7575-.075h2.04c.25 0 .4475.07.5925.21.145.135.2175.315.2175.54v1.35h-7.68v-.75c0-.145.03-.3.09-.465s.165-.315.315-.45l3.15-3.1725c.27-.27.505-.5275.705-.7725s.365-.485.495-.72c.13-.24.2275-.4775.2925-.7125.065-.24.0975-.4925.0975-.7575 0-.435-.105-.7675-.315-.9975-.205-.235-.52-.3525-.945-.3525-.175 0-.335.025-.48.075s-.275.1175-.39.2025-.215.185-.3.3c-.08.115-.145.24-.195.375-.08.225-.1825.3875-.3075.4875-.12.1-.285.15-.495.15-.05 0-.105-.0025-.165-.0075-.055-.005-.1125-.0125-.1725-.0225l-1.23-.2175c.08-.545.2325-1.02.4575-1.425.23-.405.5125-.7425.8475-1.0125.34-.27.7275-.47 1.1625-.6.435-.135.9025-.2025 1.4025-.2025zm12.4362 5.58c0 .955-.1025 1.7825-.3075 2.4825s-.49 1.28-.855 1.74c-.36.46-.79.8025-1.29 1.0275-.495.225-1.0325.3375-1.6125.3375s-1.1175-.1125-1.6125-.3375c-.49-.225-.915-.5675-1.27503-1.0275-.36-.46-.6425-1.04-.8475-1.74-.2-.7-.3-1.5275-.3-2.4825s.1-1.7825.3-2.4825c.205-.7.4875-1.28.8475-1.74.36003-.46.78503-.8 1.27503-1.02.495-.225 1.0325-.3375 1.6125-.3375s1.1175.1125 1.6125.3375c.5.22.93.56 1.29 1.02.365.46.65 1.04.855 1.74s.3075 1.5275.3075 2.4825zm-2.4 0c0-.755-.0475-1.3725-.1425-1.8525-.095-.485-.2225-.865-.3825-1.14-.155-.275-.3325-.4625-.5325-.5625-.2-.105-.4025-.1575-.6075-.1575s-.4075.0525-.6075.1575c-.195.1-.37.2875-.525.5625-.15.275-.2725.655-.3675 1.14-.09.48-.135 1.0975-.135 1.8525 0 .76.045 1.38.135 1.86.095.48.2175.86.3675 1.14.155.275.33.465.525.57.2.1.4025.15.6075.15s.4075-.05.6075-.15c.2-.105.3775-.295.5325-.57.16-.28.2875-.66.3825-1.14s.1425-1.1.1425-1.86zm4.4411 3.7875h2.1v-5.5125c0-.27.0075-.5525.0225-.8475l-1.2375 1.0275c-.08.065-.16.1125-.24.1425-.08.025-.1575.0375-.2325.0375-.13 0-.2475-.0275-.3525-.0825-.1-.06-.175-.1225-.225-.1875l-.735-.975 3.405-2.8575h1.92v9.255h1.8v1.68h-6.225zm11.0112 1.8c-.58 0-1.11-.0775-1.59-.2325s-.8925-.3725-1.2375-.6525c-.34-.285-.605-.6275-.795-1.0275-.185-.4-.2775-.845-.2775-1.335 0-.295.0325-.5725.0975-.8325.07-.265.1775-.505.3225-.72.15-.22.34-.415.57-.585.235-.17.5175-.3125.8475-.4275-.5-.225-.8725-.5375-1.1175-.9375-.24-.4-.36-.88-.36-1.44 0-.425.0875-.8175.2625-1.1775.175-.365.42-.68.735-.945s.6875-.4725 1.1175-.6225c.435-.155.91-.2325 1.425-.2325s.9875.0775 1.4175.2325c.435.15.81.3575 1.125.6225s.56.58.735.945c.175.36.2625.7525.2625 1.1775 0 .56-.1225 1.04-.3675 1.44s-.615.7125-1.11.9375c.325.115.6025.2575.8325.4275.235.17.425.365.57.585.15.215.26.455.33.72.07.26.105.5375.105.8325 0 .49-.095.935-.285 1.335-.185.4-.45.7425-.795 1.0275-.34.28-.75.4975-1.23.6525s-1.01.2325-1.59.2325zm0-1.755c.26 0 .485-.04.675-.12s.345-.1875.465-.3225c.125-.14.215-.3025.27-.4875.06-.19.09-.3925.09-.6075 0-.235-.025-.45-.075-.645s-.1325-.36-.2475-.495c-.115-.14-.27-.2475-.465-.3225-.19-.08-.4275-.12-.7125-.12s-.525.04-.72.12c-.19.075-.3425.1825-.4575.3225-.115.135-.1975.3-.2475.495s-.075.41-.075.645c0 .215.0275.4175.0825.6075.06.185.15.3475.27.4875.125.135.28.2425.465.3225.19.08.4175.12.6825.12zm0-4.89c.26 0 .4725-.0425.6375-.1275s.295-.1975.39-.3375.16-.3.195-.48.0525-.365.0525-.555c0-.17-.0225-.335-.0675-.495s-.12-.3-.225-.42c-.1-.125-.2325-.225-.3975-.3-.16-.075-.355-.1125-.585-.1125-.235 0-.4325.0375-.5925.1125s-.2925.175-.3975.3c-.1.12-.1725.26-.2175.42s-.0675.325-.0675.495c0 .19.0175.375.0525.555s.1.34.195.48.225.2525.39.3375.3775.1275.6375.1275zm7.7016 1.0275h4.05v1.875h-4.05zm11.9171-5.55c.54 0 1.025.08 1.455.24.435.155.805.3725 1.11.6525s.5375.615.6975 1.005c.165.385.2475.81.2475 1.275 0 .4-.0575.77-.1725 1.11-.11.34-.2625.665-.4575.975-.195.305-.4225.6025-.6825.8925-.255.285-.5275.575-.8175.87l-2.1375 2.19c.275-.08.545-.1425.81-.1875.27-.05.5225-.075.7575-.075h2.04c.25 0 .4475.07.5925.21.145.135.2175.315.2175.54v1.35h-7.68v-.75c0-.145.03-.3.09-.465s.165-.315.315-.45l3.15-3.1725c.27-.27.505-.5275.705-.7725s.365-.485.495-.72c.13-.24.2275-.4775.2925-.7125.065-.24.0975-.4925.0975-.7575 0-.435-.105-.7675-.315-.9975-.205-.235-.52-.3525-.945-.3525-.175 0-.335.025-.48.075s-.275.1175-.39.2025-.215.185-.3.3c-.08.115-.145.24-.195.375-.08.225-.1825.3875-.3075.4875-.12.1-.285.15-.495.15-.05 0-.105-.0025-.165-.0075-.055-.005-.1125-.0125-.1725-.0225l-1.23-.2175c.08-.545.2325-1.02.4575-1.425.23-.405.5125-.7425.8475-1.0125.34-.27.7275-.47 1.1625-.6.435-.135.9025-.2025 1.4025-.2025zm12.4362 5.58c0 .955-.1025 1.7825-.3075 2.4825s-.49 1.28-.855 1.74c-.36.46-.79.8025-1.29 1.0275-.495.225-1.0325.3375-1.6125.3375s-1.1175-.1125-1.6125-.3375c-.49-.225-.915-.5675-1.275-1.0275s-.6425-1.04-.8475-1.74c-.2-.7-.3-1.5275-.3-2.4825s.1-1.7825.3-2.4825c.205-.7.4875-1.28.8475-1.74s.785-.8 1.275-1.02c.495-.225 1.0325-.3375 1.6125-.3375s1.1175.1125 1.6125.3375c.5.22.93.56 1.29 1.02.365.46.65 1.04.855 1.74s.3075 1.5275.3075 2.4825zm-2.4 0c0-.755-.0475-1.3725-.1425-1.8525-.095-.485-.2225-.865-.3825-1.14-.155-.275-.3325-.4625-.5325-.5625-.2-.105-.4025-.1575-.6075-.1575s-.4075.0525-.6075.1575c-.195.1-.37.2875-.525.5625-.15.275-.2725.655-.3675 1.14-.09.48-.135 1.0975-.135 1.8525 0 .76.045 1.38.135 1.86.095.48.2175.86.3675 1.14.155.275.33.465.525.57.2.1.4025.15.6075.15s.4075-.05.6075-.15c.2-.105.3775-.295.5325-.57.16-.28.2875-.66.3825-1.14s.1425-1.1.1425-1.86zm4.4412 3.7875h2.1v-5.5125c0-.27.0075-.5525.0225-.8475l-1.2375 1.0275c-.08.065-.16.1125-.24.1425-.08.025-.1575.0375-.2325.0375-.13 0-.2475-.0275-.3525-.0825-.1-.06-.175-.1225-.225-.1875l-.735-.975 3.405-2.8575h1.92v9.255h1.8v1.68h-6.225zm10.5011-2.58c-.355 0-.71-.0625-1.065-.1875-.355-.13-.6775-.325-.9675-.585-.285-.26-.5175-.5875-.6975-.9825s-.27-.8625-.27-1.4025c0-.495.09-.9625.27-1.4025.185-.44.445-.825.78-1.155.34-.33.745-.59 1.215-.78.47-.195.995-.2925 1.575-.2925.59 0 1.1175.09 1.5825.27s.8575.4325 1.1775.7575c.325.325.5725.7125.7425 1.1625.175.445.2625.9375.2625 1.4775 0 .36-.03.6975-.09 1.0125-.055.315-.135.6175-.24.9075-.1.285-.2225.56-.3675.825-.145.26-.3075.5175-.4875.7725l-2.355 3.345c-.1.145-.2575.2675-.4725.3675s-.4575.15-.7275.15h-2.145l3.465-4.14c.07-.085.135-.165.195-.24.065-.08.1275-.16.1875-.24-.225.12-.47.21-.735.27s-.5425.09-.8325.09zm2.385-3.33c0-.265-.04-.4975-.12-.6975-.075-.205-.1825-.375-.3225-.51-.135-.135-.3-.2375-.495-.3075s-.4075-.105-.6375-.105c-.235 0-.445.0425-.63.1275-.18.08-.335.1925-.465.3375-.125.145-.2225.3175-.2925.5175-.065.195-.0975.4075-.0975.6375 0 1.09.505 1.635 1.515 1.635.495 0 .875-.1475 1.14-.4425.27-.3.405-.6975.405-1.1925z" fill="#121111"/></svg>