<svg fill="none" height="13" viewBox="0 0 79 13" width="79" xmlns="http://www.w3.org/2000/svg"><path d="m2.675 12h-2.55v-10.9275h2.55zm3.66469-10.9275c.11 0 .2025.005.2775.015s.1425.03.2025.06c.06.025.1175.0625.1725.1125s.1175.1175.1875.2025l5.19001 6.5625c-.02-.21-.035-.4125-.045-.6075-.01-.2-.015-.3875-.015-.5625v-5.7825h2.235v10.9275h-1.32c-.195 0-.36-.03-.495-.09s-.265-.17-.39-.33l-5.15251-6.51c.015.19.0275.3775.0375.5625.01.18.015.35.015.51v5.8575h-2.235v-10.9275zm18.23791 0v2.01h-3.075v8.9175h-2.535v-8.9175h-3.075v-2.01zm8.3795 0v1.95h-4.485v2.55h3.435v1.875h-3.435v2.6025h4.485v1.95h-7.035v-10.9275zm4.2814 6.885v4.0425h-2.535v-10.9275h3.555c.79 0 1.4625.0825 2.0175.2475.56.16 1.015.385 1.365.675.355.29.6125.6325.7725 1.0275s.24.825.24 1.29c0 .355-.0475.69-.1425 1.005s-.2375.6075-.4275.8775c-.185.265-.415.5025-.69.7125-.27.21-.5825.3825-.9375.5175.17.085.3275.19.4725.315.15.125.28.2775.39.4575l2.325 3.8025h-2.295c-.425 0-.73-.16-.915-.48l-1.815-3.1725c-.08-.14-.175-.24-.285-.3-.105-.06-.255-.09-.45-.09zm0-1.7475h1.02c.345 0 .6375-.0425.8775-.1275.245-.09.445-.2125.6-.3675s.2675-.335.3375-.54c.07-.21.105-.435.105-.675 0-.48-.1575-.855-.4725-1.125-.31-.27-.7925-.405-1.4475-.405h-1.02zm14.7756-5.1375v1.95h-4.485v2.55h3.435v1.875h-3.435v2.6025h4.485v1.95h-7.035v-10.9275zm7.8364 2.22c-.075.12-.155.21-.24.27-.08.06-.185.09-.315.09-.115 0-.24-.035-.375-.105-.13-.075-.28-.1575-.45-.2475-.165-.09-.355-.17-.57-.24-.215-.075-.46-.1125-.735-.1125-.475 0-.83.1025-1.065.3075-.23.2-.345.4725-.345.8175 0 .22.07.4025.21.5475s.3225.27.5475.375c.23.105.49.2025.78.2925.295.085.595.1825.9.2925.305.105.6025.23.8925.375.295.145.555.33.78.555.23.225.415.5.555.825.14.32.21.7075.21 1.1625 0 .505-.0875.9775-.2625 1.4175s-.43.825-.765 1.155c-.33.325-.74.5825-1.23.7725-.485.185-1.0375.2775-1.6575.2775-.34 0-.6875-.035-1.0425-.105-.35-.07-.69-.1675-1.02-.2925-.33-.13-.64-.2825-.93-.4575s-.5425-.37-.7575-.585l.75-1.185c.055-.09.1325-.1625.2325-.2175s.2075-.0825.3225-.0825c.15 0 .3.0475.45.1425.155.095.3275.2.5175.315.195.115.4175.22.6675.315s.545.1425.885.1425c.46 0 .8175-.1 1.0725-.3.255-.205.3825-.5275.3825-.9675 0-.255-.07-.4625-.21-.6225s-.325-.2925-.555-.3975c-.225-.105-.4825-.1975-.7725-.2775s-.5875-.1675-.8925-.2625c-.305-.1-.6025-.22-.8925-.36-.29-.145-.55-.3325-.78-.5625-.225-.235-.4075-.525-.5475-.87-.14-.35-.21-.78-.21-1.29 0-.41.0825-.81.2475-1.2s.4075-.7375.7275-1.0425.7125-.5475 1.1775-.7275c.465-.185.9975-.2775 1.5975-.2775.335 0 .66.0275.975.0825.32.05.6225.1275.9075.2325.285.1.55.2225.795.3675.25.14.4725.3.6675.48zm10.2749-2.22v2.01h-3.075v8.9175h-2.535v-8.9175h-3.075v-2.01zm7.4345 2.22c-.075.12-.155.21-.24.27-.08.06-.185.09-.315.09-.115 0-.24-.035-.375-.105-.13-.075-.28-.1575-.45-.2475-.165-.09-.355-.17-.57-.24-.215-.075-.46-.1125-.735-.1125-.475 0-.83.1025-1.065.3075-.23.2-.345.4725-.345.8175 0 .22.07.4025.21.5475s.3225.27.5475.375c.23.105.49.2025.78.2925.295.085.595.1825.9.2925.305.105.6025.23.8925.375.295.145.555.33.78.555.23.225.415.5.555.825.14.32.21.7075.21 1.1625 0 .505-.0875.9775-.2625 1.4175s-.43.825-.765 1.155c-.33.325-.74.5825-1.23.7725-.485.185-1.0375.2775-1.6575.2775-.34 0-.6875-.035-1.0425-.105-.35-.07-.69-.1675-1.02-.2925-.33-.13-.64-.2825-.93-.4575s-.5425-.37-.7575-.585l.75-1.185c.055-.09.1325-.1625.2325-.2175s.2075-.0825.3225-.0825c.15 0 .3.0475.45.1425.155.095.3275.2.5175.315.195.115.4175.22.6675.315s.545.1425.885.1425c.46 0 .8175-.1 1.0725-.3.255-.205.3825-.5275.3825-.9675 0-.255-.07-.4625-.21-.6225s-.325-.2925-.555-.3975c-.225-.105-.4825-.1975-.7725-.2775s-.5875-.1675-.8925-.2625c-.305-.1-.6025-.22-.8925-.36-.29-.145-.55-.3325-.78-.5625-.225-.235-.4075-.525-.5475-.87-.14-.35-.21-.78-.21-1.29 0-.41.0825-.81.2475-1.2s.4075-.7375.7275-1.0425.7125-.5475 1.1775-.7275c.465-.185.9975-.2775 1.5975-.2775.335 0 .66.0275.975.0825.32.05.6225.1275.9075.2325.285.1.55.2225.795.3675.25.14.4725.3.6675.48z" fill="#121111"/></svg>