<svg width="42" height="13" fill="none" xmlns="http://www.w3.org/2000/svg"><path d="M4.515.953c.54 0 1.025.08 1.455.24.435.154.805.372 1.11.652.305.28.537.615.697 1.005.165.385.248.81.248 1.275 0 .4-.058.77-.173 1.11-.11.34-.262.665-.457.975a6.936 6.936 0 0 1-.682.893c-.256.285-.528.575-.818.87l-2.137 2.19a7.24 7.24 0 0 1 .81-.188c.27-.05.522-.075.757-.075h2.04c.25 0 .447.07.592.21a.703.703 0 0 1 .218.54V12H.495v-.75c0-.145.03-.3.09-.465.06-.165.165-.315.315-.45l3.15-3.173c.27-.27.505-.527.705-.772.2-.245.365-.485.495-.72.13-.24.228-.478.293-.713.064-.24.097-.492.097-.757 0-.435-.105-.768-.315-.998-.205-.235-.52-.352-.945-.352a1.442 1.442 0 0 0-1.17.578c-.08.115-.145.24-.195.375-.08.224-.183.387-.308.487-.12.1-.284.15-.494.15a2 2 0 0 1-.338-.03l-1.23-.218c.08-.545.232-1.02.458-1.425.23-.405.512-.742.847-1.012.34-.27.728-.47 1.162-.6A4.708 4.708 0 0 1 4.515.952zm12.436 5.58c0 .954-.102 1.782-.307 2.482-.205.7-.49 1.28-.855 1.74-.36.46-.79.802-1.29 1.027a3.85 3.85 0 0 1-1.613.338 3.85 3.85 0 0 1-1.612-.337 3.427 3.427 0 0 1-1.275-1.028c-.36-.46-.643-1.04-.848-1.74-.2-.7-.3-1.528-.3-2.483 0-.955.1-1.782.3-2.482.205-.7.488-1.28.848-1.74.36-.46.785-.8 1.275-1.02a3.85 3.85 0 0 1 1.612-.338c.58 0 1.118.113 1.613.338.5.22.93.56 1.29 1.02.365.46.65 1.04.855 1.74.205.7.307 1.527.307 2.482zm-2.4 0c0-.756-.047-1.373-.142-1.853-.095-.485-.223-.865-.383-1.14-.155-.275-.332-.462-.532-.563a1.294 1.294 0 0 0-.608-.157c-.205 0-.407.053-.607.158-.195.1-.37.287-.525.562-.15.275-.273.655-.368 1.14-.09.48-.135 1.098-.135 1.853 0 .76.045 1.38.135 1.86.095.48.218.86.368 1.14.155.274.33.465.525.57.2.1.402.15.607.15.205 0 .408-.05.608-.15.2-.105.377-.296.532-.57.16-.28.288-.66.383-1.14.095-.48.142-1.1.142-1.86zm4.441 3.787h2.1V4.807c0-.27.008-.552.023-.847l-1.238 1.027a.867.867 0 0 1-.24.143.778.778 0 0 1-.585-.045.798.798 0 0 1-.225-.188l-.735-.975 3.405-2.857h1.92v9.255h1.8V12h-6.225v-1.68zm10.502-2.58a3.2 3.2 0 0 1-1.066-.188 2.968 2.968 0 0 1-.967-.584 2.983 2.983 0 0 1-.697-.983c-.18-.395-.27-.863-.27-1.403a3.503 3.503 0 0 1 1.05-2.557c.34-.33.744-.59 1.215-.78a4.07 4.07 0 0 1 1.575-.293c.59 0 1.117.09 1.582.27.465.18.857.433 1.177.758.325.325.573.712.743 1.163.175.445.263.937.263 1.477 0 .36-.03.697-.09 1.013a5.377 5.377 0 0 1-.24.907c-.1.285-.223.56-.368.825-.145.26-.308.518-.488.772l-2.354 3.345c-.1.146-.258.268-.473.368-.215.1-.457.15-.727.15h-2.146l3.465-4.14a21.879 21.879 0 0 0 .383-.48c-.225.12-.47.21-.735.27a3.76 3.76 0 0 1-.832.09zm2.384-3.33c0-.265-.04-.498-.12-.698a1.33 1.33 0 0 0-.817-.817 1.874 1.874 0 0 0-.637-.105c-.235 0-.445.042-.63.127a1.36 1.36 0 0 0-.465.338 1.585 1.585 0 0 0-.293.518 2.005 2.005 0 0 0-.098.637c0 1.09.505 1.635 1.515 1.635.495 0 .876-.147 1.14-.442.27-.3.405-.698.405-1.193zm5.827 2.093h4.05v1.874h-4.05V6.502z" fill="#121111"/></svg>