<svg fill="none" height="13" viewBox="0 0 51 13" width="51" xmlns="http://www.w3.org/2000/svg"><path d="m6.045 10.17c.35 0 .66-.03.93-.09s.525-.14.765-.24v-1.6575h-1.08c-.16 0-.285-.0425-.375-.1275s-.135-.1925-.135-.3225v-1.395h3.885v4.6125c-.28.205-.5725.3825-.8775.5325-.3.145-.6225.265-.9675.36-.34.095-.705.165-1.095.21-.385.045-.8.0675-1.245.0675-.8 0-1.54-.14-2.22-.42-.68-.285-1.27-.675-1.77-1.17-.495-.5-.885-1.09-1.17-1.77-.28-.685-.42-1.4275-.42-2.2275 0-.815.135-1.5625.405-2.2425.27-.685.655-1.275 1.155-1.77.505-.495 1.1125-.88 1.8225-1.155.715-.275 1.5125-.4125 2.3925-.4125.455 0 .8825.0375 1.2825.1125s.7675.1775 1.1025.3075c.34.13.65.285.93.465s.53.375.75.585l-.735 1.1175c-.07.105-.155.1875-.255.2475-.095.06-.2.09-.315.09-.15 0-.305-.05-.465-.15-.2-.12-.39-.2225-.57-.3075-.175-.09-.355-.1625-.54-.2175s-.38-.095-.585-.12-.435-.0375-.69-.0375c-.475 0-.9025.085-1.2825.255-.38.165-.705.4-.975.705-.265.305-.47.6725-.615 1.1025-.145.425-.2175.9-.2175 1.425 0 .58.08 1.095.24 1.545s.38.83.66 1.14c.285.31.62.5475 1.005.7125.39.16.815.24 1.275.24zm16.6187-3.6375c0 .79-.1375 1.525-.4125 2.205-.27.68-.6525 1.2725-1.1475 1.7775-.495.5-1.0925.8925-1.7925 1.1775-.695.285-1.4675.4275-2.3175.4275s-1.625-.1425-2.325-.4275-1.3-.6775-1.8-1.1775c-.495-.505-.88-1.0975-1.155-1.7775-.27-.68-.405-1.415-.405-2.205s.135-1.525.405-2.205c.275-.68.66-1.27 1.155-1.77.5-.5 1.1-.8925 1.8-1.1775s1.475-.4275 2.325-.4275 1.6225.145 2.3175.435c.7.285 1.2975.6775 1.7925 1.1775s.8775 1.09 1.1475 1.77c.275.68.4125 1.4125.4125 2.1975zm-2.595 0c0-.54-.07-1.025-.21-1.455-.14-.435-.3425-.8025-.6075-1.1025-.26-.3-.58-.53-.96-.69s-.8125-.24-1.2975-.24c-.49 0-.9275.08-1.3125.24-.38.16-.7025.39-.9675.69-.26.3-.46.6675-.6 1.1025-.14.43-.21.915-.21 1.455 0 .545.07 1.035.21 1.47.14.43.34.795.6 1.095.265.3.5875.53.9675.69.385.155.8225.2325 1.3125.2325.485 0 .9175-.0775 1.2975-.2325.38-.16.7-.39.96-.69.265-.3.4675-.665.6075-1.095.14-.435.21-.925.21-1.47zm13.823 5.4675h-1.965c-.22 0-.4025-.05-.5475-.15-.14-.105-.2375-.2375-.2925-.3975l-.645-1.905h-4.155l-.645 1.905c-.05.14-.1475.2675-.2925.3825-.145.11-.3225.165-.5325.165h-1.98l4.23-10.9275h2.595zm-7.02-4.1775h2.985l-1.005-2.9925c-.065-.19-.1425-.4125-.2325-.6675-.085-.26-.17-.54-.255-.84-.08.305-.1625.5875-.2475.8475s-.165.485-.24.675zm10.7446 2.1525h4.05v2.025h-6.585v-10.9275h2.535zm11.6333-6.6825c-.075.12-.155.21-.24.27-.08.06-.185.09-.315.09-.115 0-.24-.035-.375-.105-.13-.075-.28-.1575-.45-.2475-.165-.09-.355-.17-.57-.24-.215-.075-.46-.1125-.735-.1125-.475 0-.83.1025-1.065.3075-.23.2-.345.4725-.345.8175 0 .22.07.4025.21.5475s.3225.27.5475.375c.23.105.49.2025.78.2925.295.085.595.1825.9.2925.305.105.6025.23.8925.375.295.145.555.33.78.555.23.225.415.5.555.825.14.32.21.7075.21 1.1625 0 .505-.0875.9775-.2625 1.4175s-.43.825-.765 1.155c-.33.325-.74.5825-1.23.7725-.485.185-1.0375.2775-1.6575.2775-.34 0-.6875-.035-1.0425-.105-.35-.07-.69-.1675-1.02-.2925-.33-.13-.64-.2825-.93-.4575s-.5425-.37-.7575-.585l.75-1.185c.055-.09.1325-.1625.2325-.2175s.2075-.0825.3225-.0825c.15 0 .3.0475.45.1425.155.095.3275.2.5175.315.195.115.4175.22.6675.315s.545.1425.885.1425c.46 0 .8175-.1 1.0725-.3.255-.205.3825-.5275.3825-.9675 0-.255-.07-.4625-.21-.6225s-.325-.2925-.555-.3975c-.225-.105-.4825-.1975-.7725-.2775s-.5875-.1675-.8925-.2625c-.305-.1-.6025-.22-.8925-.36-.29-.145-.55-.3325-.78-.5625-.225-.235-.4075-.525-.5475-.87-.14-.35-.21-.78-.21-1.29 0-.41.0825-.81.2475-1.2s.4075-.7375.7275-1.0425.7125-.5475 1.1775-.7275c.465-.185.9975-.2775 1.5975-.2775.335 0 .66.0275.975.0825.32.05.6225.1275.9075.2325.285.1.55.2225.795.3675.25.14.4725.3.6675.48z" fill="#121111"/></svg>