<svg fill="none" height="13" viewBox="0 0 43 13" width="43" xmlns="http://www.w3.org/2000/svg"><g fill="#121111"><path d="m7.3425 10.1025c.225 0 .4.0625.525.1875.13.125.195.29.195.495v1.215h-7.545v-.675c0-.13.0275-.27.0825-.42.055-.155.1475-.295.2775-.42l3.225-3.2325c.275-.275.5175-.5375.7275-.7875.21-.255.385-.5025.525-.7425.14-.245.245-.4925.315-.7425s.105-.5125.105-.7875c0-.485-.125-.8525-.375-1.1025-.25-.255-.6025-.3825-1.0575-.3825-.2 0-.385.03-.555.09-.165.055-.315.1325-.45.2325-.13.1-.2425.2175-.3375.3525s-.165.2825-.21.4425c-.09.25-.2125.4175-.3675.5025-.15.08-.365.0975-.645.0525l-1.095-.195c.08-.53.23-.995.45-1.395s.495-.7325.825-.9975.7075-.4625 1.1325-.5925c.425-.135.8825-.202501 1.3725-.202501.515 0 .9825.077501 1.4025.232501.425.15.7875.3625 1.0875.6375.3.27.5325.5975.6975.9825s.2475.81.2475 1.275c0 .4-.0575.77-.1725 1.11s-.2725.665-.4725.975c-.195.305-.4225.6025-.6825.8925s-.535.5825-.825.8775l-2.31 2.3625c.255-.075.5075-.1325.7575-.1725.25-.045.485-.0675.705-.0675zm9.5712-3.5475c0 .95-.1025 1.775-.3075 2.475s-.4875 1.28-.8475 1.74c-.36.455-.7875.795-1.2825 1.02-.49.22-1.02.33-1.59.33s-1.1-.11-1.59-.33c-.49-.225-.9125-.565-1.2675-1.02-.35503-.46-.63503-1.04-.84003-1.74-.2-.7-.3-1.525-.3-2.475s.1-1.7725.3-2.4675c.205-.7.485-1.2775.84003-1.7325.355-.46.7775-.8 1.2675-1.02.49-.225 1.02-.337501 1.59-.337501s1.1.112501 1.59.337501c.495.22.9225.56 1.2825 1.02.36.455.6425 1.0325.8475 1.7325.205.695.3075 1.5175.3075 2.4675zm-2.1375 0c0-.77-.055-1.405-.165-1.905-.105-.5-.245-.895-.42-1.185s-.3775-.4925-.6075-.6075c-.225-.115-.4575-.1725-.6975-.1725s-.4725.0575-.6975.1725c-.22.115-.4175.3175-.5925.6075-.17.29-.3075.685-.4125 1.185s-.1575 1.135-.1575 1.905c0 .775.0525 1.4125.1575 1.9125s.2425.895.4125 1.185c.175.29.3725.4925.5925.6075.225.115.4575.1725.6975.1725s.4725-.0575.6975-.1725c.23-.115.4325-.3175.6075-.6075s.315-.685.42-1.185c.11-.5.165-1.1375.165-1.9125zm9.6686 3.5475c.225 0 .4.0625.525.1875.13.125.195.29.195.495v1.215h-7.545v-.675c0-.13.0275-.27.0825-.42.055-.155.1475-.295.2775-.42l3.225-3.2325c.275-.275.5175-.5375.7275-.7875.21-.255.385-.5025.525-.7425.14-.245.245-.4925.315-.7425s.105-.5125.105-.7875c0-.485-.125-.8525-.375-1.1025-.25-.255-.6025-.3825-1.0575-.3825-.2 0-.385.03-.555.09-.165.055-.315.1325-.45.2325-.13.1-.2425.2175-.3375.3525s-.165.2825-.21.4425c-.09.25-.2125.4175-.3675.5025-.15.08-.365.0975-.645.0525l-1.095-.195c.08-.53.23-.995.45-1.395s.495-.7325.825-.9975.7075-.4625 1.1325-.5925c.425-.135.8825-.202501 1.3725-.202501.515 0 .9825.077501 1.4025.232501.425.15.7875.3625 1.0875.6375.3.27.5325.5975.6975.9825s.2475.81.2475 1.275c0 .4-.0575.77-.1725 1.11s-.2725.665-.4725.975c-.195.305-.4225.6025-.6825.8925s-.535.5825-.825.8775l-2.31 2.3625c.255-.075.5075-.1325.7575-.1725.25-.045.485-.0675.705-.0675zm9.5712-3.5475c0 .95-.1025 1.775-.3075 2.475s-.4875 1.28-.8475 1.74c-.36.455-.7875.795-1.2825 1.02-.49.22-1.02.33-1.59.33s-1.1-.11-1.59-.33c-.49-.225-.9125-.565-1.2675-1.02-.355-.46-.635-1.04-.84-1.74-.2-.7-.3-1.525-.3-2.475s.1-1.7725.3-2.4675c.205-.7.485-1.2775.84-1.7325.355-.46.7775-.8 1.2675-1.02.49-.225 1.02-.337501 1.59-.337501s1.1.112501 1.59.337501c.495.22.9225.56 1.2825 1.02.36.455.6425 1.0325.8475 1.7325.205.695.3075 1.5175.3075 2.4675zm-2.1375 0c0-.77-.055-1.405-.165-1.905-.105-.5-.245-.895-.42-1.185s-.3775-.4925-.6075-.6075c-.225-.115-.4575-.1725-.6975-.1725s-.4725.0575-.6975.1725c-.22.115-.4175.3175-.5925.6075-.17.29-.3075.685-.4125 1.185s-.1575 1.135-.1575 1.905c0 .775.0525 1.4125.1575 1.9125s.2425.895.4125 1.185c.175.29.3725.4925.5925.6075.225.115.4575.1725.6975.1725s.4725-.0575.6975-.1725c.23-.115.4325-.3175.6075-.6075s.315-.685.42-1.185c.11-.5.165-1.1375.165-1.9125zm6.5533.0525h3.96v1.695h-3.96z"/><path d="m7.8675 10.29-.07072.0707.00141.0014zm.195 1.71v.1h.1v-.1zm-7.545 0h-.1v.1h.1zm.0825-1.095.093893.0344.00035-.001zm.2775-.42.069326.0721.001467-.0015zm3.225-3.2325-.07071-.07071-.00008.00008zm.7275-.7875.07657.06432.00062-.00075zm.525-.7425.08638.05039.00044-.00078zm.045-2.6325-.07141.07001.0007.0007zm-1.6125-.2925.03163.09488.00165-.00058zm-.45.2325-.05953-.08037-.00144.00111zm-.3375.3525-.08178-.05755zm-.21.4425.09433.03396.00194-.00689zm-.3675.5025.04706.08824.00102-.00056zm-.645.0525-.01753.09846.00166.00027zm-1.095-.195-.09888-.01493-.014536.09631.095884.01707zm1.275-2.3925-.06261-.07797zm1.1325-.5925.02925.09563.00102-.00032zm2.775.03-.03463.09382.00135.00048zm1.0875.6375-.06757.07372.00067.00061zm.6975.9825.09192-.03939zm.075 2.385-.09473-.03204zm-.4725.975-.08403-.05421-.00022.00034zm-.6825.8925-.07446-.06675zm-.825.8775-.07131-.0701-.00019.00019zm-2.31 2.3625-.0715-.0699-.26788.274.3676-.1082zm.7575-.1725.0158.0988.00192-.0004zm3.15.0325c.20607 0 .35281.0567.45429.1582l.14142-.1414c-.14852-.1485-.35178-.2168-.59571-.2168zm.45569.1596c.10764.1035.16431.241.16431.4229h.2c0-.2281-.07333-.4206-.22569-.5671zm.16431.4229v1.215h.2v-1.215zm.1 1.115h-7.545v.2h7.545zm-7.445.1v-.675h-.2v.675zm0-.675c0-.1159.024537-.2442.076388-.3856l-.187776-.0688c-.058149.1586-.088612.3103-.088612.4544zm.076743-.3866c.049317-.1389.132669-.266.252568-.3813l-.138622-.1442c-.1401.1347-.241749.2876-.302432.4587zm.25405-.3828 3.224997-3.23247-.14158-.14126-3.225003 3.23253zm3.224917-3.23239c.27667-.27667.52119-.54131.73336-.79389l-.15314-.12864c-.20783.24742-.44831.50778-.72164.78111zm.73398-.79464c.2128-.25839.39104-.51028.53419-.75568l-.17276-.10078c-.13685.2346-.30861.47771-.51581.72932zm.53463-.75646c.14373-.25152.25208-.50658.32448-.76515l-.1926-.05392c-.0676.24143-.16925.48137-.30552.71985zm.32448-.76515c.0726-.25928.1087-.53089.1087-.81446h-.2c0 .26642-.03389.51982-.1013.76054zm.1087-.81446c0-.50144-.12944-.89836-.40429-1.17321l-.14142.14142c.22515.22515.34571.56323.34571 1.03179zm-.40359-1.17251c-.27362-.27909-.6548-.41249-1.12891-.41249v.2c.43589 0 .75971.1216.98609.35251zm-1.12891-.41249c-.2101 0-.40649.03154-.58828.0957l.06656.1886c.15821-.05584.33182-.0843.52172-.0843zm-.58662.09513c-.17465.05822-.33413.14052-.4779.24701l.11904.16072c.12623-.09351.26675-.16621.4221-.21799zm-.47935.24811c-.13804.10619-.25755.23102-.35831.37421l.16356.1151c.08924-.12681.19474-.23698.31669-.33079zm-.35831.37421c-.10157.14433-.17644.30215-.22449.47298l.19254.05414c.04195-.14917.10708-.28635.19551-.41202zm-.22231.46618c-.08577.23825-.19641.38009-.32149.44869l.09616.17536c.18492-.1014.31928-.29456.41351-.55631zm-.32047.44813c-.12161.06486-.31051.08565-.58207.04201l-.03174.19746c.28844.04636.52954.03215.70793-.06299zm-.58041.04229-1.094998-.195-.035064.1969 1.095002.195zm-1.01365-.08163c.078539-.52032.22532-.97369.43874-1.36173l-.17524-.09638c-.226582.41196-.379799.88859-.46126 1.42826zm.43874-1.36173c.2142-.38944.48098-.71154.79999-.96772l-.12522-.15594c-.34099.27382-.6242.61672-.85001 1.02728zm.79999-.96772c.31961-.25665.68566-.44837 1.09914-.57484l-.0585-.19126c-.43652.13353-.82547.33681-1.16586.61016zm1.10016-.57516c.4143-.1316.86149-.19781 1.34223-.19781v-.200001c-.49926 0-.96707.068792-1.40277.207191zm1.34223-.19781c.50494 0 .96049.07597 1.36788.22631l.06924-.18763c-.43261-.159652-.91206-.238681-1.43712-.238681zm1.36922.2268c.41367.146.76415.35195 1.05321.61691l.13514-.14743c-.31094-.28503-.68546-.50408-1.12179-.65808zm1.05388.61753c.28882.25993.51297.57537.67249.94756l.18383-.07878c-.17049-.39781-.41134-.73738-.72252-1.01744zm.67249.94756c.1591.37125.23941.78266.23941 1.23561h.2c0-.47705-.08469-.91564-.25558-1.31439zm.23941 1.23561c0 .39034-.05609.74939-.16723 1.07796l.18946.06408c.11887-.35143.17777-.73238.17777-1.14204zm-.16723 1.07796c-.11229.33198-.26614.64956-.4618.95283l.16806.10842c.20434-.31673.36549-.64915.4832-.99717zm-.46202.95317c-.19188.30012-.41604.59334-.67271.87962l.14892.1335c.26334-.29372.49417-.5955.69229-.90538zm-.67271.87962c-.25891.28879-.53286.58017-.82185.87415l.14262.1402c.29101-.29602.56706-.58964.82815-.88085zm-.82204.87434-2.31 2.36251.143.1398 2.31-2.36249zm-2.21028 2.52831c.25112-.0738.49948-.1304.74508-.1697l-.0316-.1974c-.2544.0407-.51104.0991-.76992.1753zm.747-.17c.24502-.0441.47405-.0659.68728-.0659v-.2c-.22677 0-.46774.0232-.72272.0691zm.68728-.0659h2.445v-.2h-2.445zm11.7087-1.1725-.096-.02811zm-.8475 1.74.0784.062.0003-.0004zm-1.2825 1.02.0409.0912.0005-.0002zm-3.18 0-.0418.0909.0008.0003zm-1.2675-1.02-.0792.0611.00033.0004zm-.84003-1.74-.09615.02747.00018.00064zm0-4.9425-.09597-.02811-.00013.00045zm.84003-1.7325.0788.06151.0003-.00041zm1.2675-1.02.0409.09123.0008-.00035zm3.18 0-.0418.09088.0012.0005zm1.2825 1.02-.0788.06163.0004.00042zm.8475 1.7325-.096.0281.0001.00019zm-1.995.5625-.0979.02055.0002.00094zm-.42-1.185-.0856.05167zm-.6075-.6075-.0455.08905.0008.00039zm-1.395 0-.0455-.08905-.0009.00043zm-.5925.6075-.0857-.05167-.0006.0011zm-.4125 1.185.0978.02055zm0 3.8175-.0979.02055zm.4125 1.185-.0863.05058.0007.00109zm.5925.6075-.0464.0886.0009.0004zm1.395 0-.0448-.0894-.0007.0004zm1.0275-1.7925-.0977-.02149-.0002.00094zm2.2025-1.9125c0 .94319-.1018 1.7583-.3035 2.44689l.1919.05622c.2084-.71141.3116-1.5463.3116-2.50311zm-.3035 2.44689c-.2023.69076-.4798 1.25861-.8303 1.70651l.1575.1232c.3695-.4721.657-1.06425.8647-1.77349zm-.8299 1.70611c-.3509.4433-.7659.773-1.2455.991l.0828.182c.5104-.232.9503-.5823 1.3195-1.049zm-1.2451.9908c-.4763.2138-.9923.3212-1.549.3212v.2c.5832 0 1.1273-.1126 1.6309-.3388zm-1.549.3212c-.5568 0-1.0727-.1074-1.5491-.3212l-.0819.1824c.5037.2262 1.0477.3388 1.631.3388zm-1.5483-.3209c-.4744-.2178-.8845-.5473-1.2304-.9906l-.15767.123c.36417.4667.79907.8172 1.30457 1.0494zm-1.2301-.9902c-.34569-.448-.6208-1.01602-.82316-1.70701l-.19194.05622c.20764.70901.49253 1.30099.85681 1.77299zm-.82298-1.70637c-.1968-.68883-.29615-1.50416-.29615-2.44753h-.2c0 .95663.10066 1.7913.30385 2.50247zm-.29615-2.44753c0-.94339.09935-1.75614.2961-2.43985l-.1922-.05531c-.20325.7063-.3039 1.53855-.3039 2.49516zm.29597-2.4394c.20235-.69095.47739-1.25629.82286-1.69909l-.15767-.12302c-.36452.4672-.64948 1.05686-.85713 1.7659zm.82316-1.6995c.3458-.44806.7556-.77716 1.2293-.98987l-.0819-.18246c-.5062.22729-.9415.57819-1.30569 1.05013zm1.2301-.99022c.4762-.21865.9918-.32838 1.5483-.32838v-.200001c-.5836 0-1.1279.115271-1.6318.346621zm1.5483-.32838c.5564 0 1.0721.10973 1.5482.32838l.0835-.18176c-.5038-.23135-1.0482-.346621-1.6317-.346621zm1.5494.32888c.4788.21284.8936.5421 1.2443.99025l.1575-.12326c-.3693-.47185-.8095-.82259-1.3206-1.04975zm1.2447.99067c.3502.44269.6276 1.00784.8299 1.69855l.1919-.05621c-.2077-.70928-.4953-1.29913-.865-1.76644zm.83 1.69874c.2016.68347.3034 1.49599.3034 2.43921h.2c0-.95678-.1032-1.78926-.3116-2.49579zm-1.6341 2.43921c0-.774-.0552-1.41685-.1674-1.92649l-.1953.04298c.1079.49036.1627 1.11751.1627 1.88351zm-.1672-1.92555c-.1062-.50598-.2493-.91293-.4322-1.21612l-.1712.10334c.167.27681.304.65986.4077 1.15388zm-.4322-1.21612c-.1818-.30117-.3969-.51951-.6484-.64527l-.0894.17888c.2084.10424.3983.2909.5666.56973zm-.6476-.64487c-.2383-.12181-.4864-.18346-.743-.18346v.2c.2233 0 .4403.05335.652.16154zm-.743-.18346c-.2567 0-.5047.06165-.743.18346l.091.17808c.2117-.10819.4286-.16154.652-.16154zm-.7439.18388c-.2411.12604-.4506.34427-.6317.64445l.1712.10334c.1688-.27983.3543-.46659.5532-.57055zm-.6324.64555c-.1775.30283-.3179.70935-.4241 1.21502l.1957.0411c.1038-.49433.2385-.87781.4009-1.15498zm-.4241 1.21502c-.1069.50923-.1596 1.15174-.1596 1.92555h.2c0-.76619.0523-1.39368.1553-1.88445zm-.1596 1.92555c0 .77875.0527 1.42378.1596 1.93305l.1957-.0411c-.103-.49073-.1553-1.1207-.1553-1.89195zm.1596 1.93305c.1062.50567.2466.91219.4241 1.21502l.1725-.10114c-.1624-.27717-.2971-.66065-.4009-1.15498zm.4248 1.21612c.1811.30013.3906.51843.6317.64443l.0927-.1772c-.1989-.104-.3844-.29075-.5532-.57057zm.6326.64483c.2383.1219.4863.1835.743.1835v-.2c-.2234 0-.4403-.0534-.652-.1615zm.743.1835c.2566 0 .5047-.0616.743-.1835l-.091-.178c-.2117.1081-.4287.1615-.652.1615zm.7422-.1831c.2515-.1257.4666-.3441.6484-.64523l-.1712-.10334c-.1683.27883-.3582.46547-.5666.56977zm.6484-.64523c.1829-.30319.326-.71014.4322-1.21612l-.1957-.0411c-.1037.49402-.2407.87707-.4077 1.15388zm.432-1.21518c.1122-.50967.1674-1.15505.1674-1.93399h-.2c0 .77106-.0548 1.40068-.1627 1.89101zm10.261 1.80101-.0707.0707.0014.0014zm.195 1.71v.1h.1v-.1zm-7.545 0h-.1v.1h.1zm.0825-1.095.0939.0344.0004-.001zm.2775-.42.0694.0721.0014-.0015zm3.225-3.2325-.0707-.07071v.00008zm.7275-.7875.0766.06432.0006-.00075zm.525-.7425.0864.05039.0005-.00078zm.045-2.6325-.0714.07001.0007.0007zm-1.6125-.2925.0317.09488.0016-.00058zm-.45.2325-.0595-.08037-.0014.00111zm-.3375.3525-.0817-.05755zm-.21.4425.0944.03396.0019-.00689zm-.3675.5025.0471.08824.001-.00056zm-.645.0525-.0175.09846.0017.00027zm-1.095-.195-.0988-.01493-.0146.09631.0959.01707zm1.275-2.3925-.0626-.07797zm1.1325-.5925.0293.09563.001-.00032zm2.775.03-.0346.09382.0014.00048zm1.0875.6375-.0675.07372.0006.00061zm.6975.9825.092-.03939zm.075 2.385-.0947-.03204zm-.4725.975-.084-.05421-.0002.00034zm-.6825.8925-.0744-.06675zm-.825.8775-.0713-.0701-.0002.00019zm-2.31 2.3625-.0715-.0699-.2678.274.3676-.1082zm.7575-.1725.0158.0988.002-.0004zm3.15.0325c.2061 0 .3529.0567.4543.1582l.1415-.1414c-.1486-.1485-.3518-.2168-.5958-.2168zm.4557.1596c.1077.1035.1643.241.1643.4229h.2c0-.2281-.0733-.4206-.2256-.5671zm.1643.4229v1.215h.2v-1.215zm.1 1.115h-7.545v.2h7.545zm-7.445.1v-.675h-.2v.675zm0-.675c0-.1159.0246-.2442.0764-.3856l-.1877-.0688c-.0582.1586-.0887.3103-.0887.4544zm.0768-.3866c.0493-.1389.1327-.266.2526-.3813l-.1387-.1442c-.1401.1347-.2417.2876-.3024.4587zm.254-.3828 3.225-3.23247-.1415-.14126-3.225 3.23253zm3.225-3.23239c.2766-.27667.5211-.54131.7333-.79389l-.1531-.12864c-.2079.24742-.4483.50778-.7217.78111zm.7339-.79464c.2128-.25839.3911-.51028.5342-.75568l-.1727-.10078c-.1369.2346-.3086.47771-.5158.72932zm.5347-.75646c.1437-.25152.252-.50658.3244-.76515l-.1926-.05392c-.0676.24143-.1692.48137-.3055.71985zm.3244-.76515c.0726-.25928.1087-.53089.1087-.81446h-.2c0 .26642-.0339.51982-.1013.76054zm.1087-.81446c0-.50144-.1294-.89836-.4042-1.17321l-.1415.14142c.2252.22515.3457.56323.3457 1.03179zm-.4035-1.17251c-.2737-.27909-.6548-.41249-1.129-.41249v.2c.4359 0 .7598.1216.9861.35251zm-1.129-.41249c-.2101 0-.4064.03154-.5882.0957l.0665.1886c.1582-.05584.3318-.0843.5217-.0843zm-.5866.09513c-.1746.05822-.3341.14052-.4779.24701l.1191.16072c.1262-.09351.2667-.16621.4221-.21799zm-.4793.24811c-.1381.10619-.2576.23102-.3583.37421l.1635.1151c.0893-.12681.1948-.23698.3167-.33079zm-.3583.37421c-.1016.14433-.1765.30215-.2245.47298l.1925.05414c.042-.14917.1071-.28635.1955-.41202zm-.2223.46618c-.0858.23825-.1965.38009-.3215.44869l.0961.17536c.1849-.1014.3193-.29456.4135-.55631zm-.3205.44813c-.1216.06486-.3105.08565-.5821.04201l-.0317.19746c.2884.04636.5295.03215.7079-.06299zm-.5804.04229-1.095-.195-.0351.1969 1.095.195zm-1.0137-.08163c.0786-.52032.2253-.97369.4388-1.36173l-.1753-.09638c-.2266.41196-.3798.88859-.4612 1.42826zm.4388-1.36173c.2142-.38944.4809-.71154.8-.96772l-.1253-.15594c-.341.27382-.6242.61672-.85 1.02728zm.8-.96772c.3196-.25665.6856-.44837 1.0991-.57484l-.0585-.19126c-.4365.13353-.8255.33681-1.1659.61016zm1.1001-.57516c.4143-.1316.8615-.19781 1.3422-.19781v-.200001c-.4992 0-.967.068792-1.4027.207191zm1.3422-.19781c.505 0 .9605.07597 1.3679.22631l.0693-.18763c-.4326-.159652-.9121-.238681-1.4372-.238681zm1.3693.2268c.4136.146.7641.35195 1.0532.61691l.1351-.14743c-.3109-.28503-.6854-.50408-1.1218-.65808zm1.0538.61753c.2889.25993.513.57537.6725.94756l.1839-.07878c-.1705-.39781-.4114-.73738-.7226-1.01744zm.6725.94756c.1591.37125.2394.78266.2394 1.23561h.2c0-.47705-.0846-.91564-.2555-1.31439zm.2394 1.23561c0 .39034-.056.74939-.1672 1.07796l.1895.06408c.1188-.35143.1777-.73238.1777-1.14204zm-.1672 1.07796c-.1123.33198-.2661.64956-.4618.95283l.1681.10842c.2043-.31673.3655-.64915.4832-.99717zm-.462.95317c-.1919.30012-.4161.59334-.6727.87962l.1489.1335c.2633-.29372.4942-.5955.6923-.90538zm-.6727.87962c-.2589.28879-.5329.58017-.8219.87415l.1427.1402c.291-.29602.567-.58964.8281-.88085zm-.8221.87434-2.31 2.36251.143.1398 2.31-2.36249zm-2.2102 2.52831c.2511-.0738.4994-.1304.745-.1697l-.0316-.1974c-.2544.0407-.511.0991-.7699.1753zm.747-.17c.245-.0441.474-.0659.6872-.0659v-.2c-.2267 0-.4677.0232-.7227.0691zm.6872-.0659h2.445v-.2h-2.445zm11.7087-1.1725-.096-.02811zm-.8475 1.74.0784.062.0004-.0004zm-1.2825 1.02.041.0912.0004-.0002zm-3.18 0-.0417.0909.0008.0003zm-1.2675-1.02-.0792.0611.0004.0004zm-.84-1.74-.0961.02747.0001.00064zm0-4.9425-.096-.02811-.0001.00045zm.84-1.7325.0789.06151.0003-.00041zm1.2675-1.02.041.09123.0007-.00035zm3.18 0-.0417.09088.0011.0005zm1.2825 1.02-.0787.06163.0003.00042zm.8475 1.7325-.096.0281.0001.00019zm-1.995.5625-.0979.02055.0003.00094zm-.42-1.185-.0856.05167zm-.6075-.6075-.0455.08905.0008.00039zm-1.395 0-.0455-.08905-.0008.00043zm-.5925.6075-.0856-.05167-.0007.0011zm-.4125 1.185.0979.02055zm0 3.8175-.0979.02055zm.4125 1.185-.0863.05058.0007.00109zm.5925.6075-.0463.0886.0008.0004zm1.395 0-.0447-.0894-.0008.0004zm1.0275-1.7925-.0977-.02149-.0002.00094zm2.2025-1.9125c0 .94319-.1018 1.7583-.3035 2.44689l.192.05622c.2083-.71141.3115-1.5463.3115-2.50311zm-.3035 2.44689c-.2022.69076-.4797 1.25861-.8302 1.70651l.1575.1232c.3695-.4721.657-1.06425.8647-1.77349zm-.8299 1.70611c-.3508.4433-.7659.773-1.2455.991l.0828.182c.5104-.232.9503-.5823 1.3195-1.049zm-1.245.9908c-.4764.2138-.9923.3212-1.5491.3212v.2c.5833 0 1.1273-.1126 1.631-.3388zm-1.5491.3212c-.5567 0-1.0727-.1074-1.549-.3212l-.0819.1824c.5036.2262 1.0477.3388 1.6309.3388zm-1.5483-.3209c-.4744-.2178-.8845-.5473-1.2303-.9906l-.1577.123c.3641.4667.799.8172 1.3046 1.0494zm-1.23-.9902c-.3457-.448-.6209-1.01602-.8232-1.70701l-.192.05622c.2077.70901.4926 1.30099.8568 1.77299zm-.823-1.70637c-.1968-.68883-.2962-1.50416-.2962-2.44753h-.2c0 .95663.1007 1.7913.3039 2.50247zm-.2962-2.44753c0-.94339.0994-1.75614.2961-2.43985l-.1922-.05531c-.2032.7063-.3039 1.53855-.3039 2.49516zm.296-2.4394c.2023-.69095.4774-1.25629.8229-1.69909l-.1577-.12302c-.3645.4672-.6495 1.05686-.8572 1.7659zm.8232-1.6995c.3458-.44806.7555-.77716 1.2293-.98987l-.0819-.18246c-.5063.22729-.9415.57819-1.3058 1.05013zm1.23-.99022c.4762-.21865.9919-.32838 1.5483-.32838v-.200001c-.5835 0-1.1279.115271-1.6317.346621zm1.5483-.32838c.5565 0 1.0721.10973 1.5483.32838l.0834-.18176c-.5038-.23135-1.0481-.346621-1.6317-.346621zm1.5494.32888c.4789.21284.8936.5421 1.2444.99025l.1575-.12326c-.3693-.47185-.8096-.82259-1.3207-1.04975zm1.2447.99067c.3503.44269.6277 1.00784.8299 1.69855l.192-.05621c-.2077-.70928-.4953-1.29913-.8651-1.76644zm.83 1.69874c.2016.68347.3034 1.49599.3034 2.43921h.2c0-.95678-.1032-1.78926-.3116-2.49579zm-1.6341 2.43921c0-.774-.0552-1.41685-.1673-1.92649l-.1953.04298c.1078.49036.1626 1.11751.1626 1.88351zm-.1671-1.92555c-.1063-.50598-.2493-.91293-.4323-1.21612l-.1712.10334c.167.27681.304.65986.4077 1.15388zm-.4323-1.21612c-.1817-.30117-.3968-.51951-.6484-.64527l-.0894.17888c.2085.10424.3983.2909.5666.56973zm-.6476-.64487c-.2383-.12181-.4863-.18346-.743-.18346v.2c.2234 0 .4403.05335.652.16154zm-.743-.18346c-.2566 0-.5047.06165-.743.18346l.091.17808c.2117-.10819.4287-.16154.652-.16154zm-.7438.18388c-.2411.12604-.4507.34427-.6318.64445l.1712.10334c.1689-.27983.3544-.46659.5532-.57055zm-.6325.64555c-.1775.30283-.3179.70935-.4241 1.21502l.1958.0411c.1038-.49433.2384-.87781.4009-1.15498zm-.4241 1.21502c-.1069.50923-.1596 1.15174-.1596 1.92555h.2c0-.76619.0523-1.39368.1554-1.88445zm-.1596 1.92555c0 .77875.0527 1.42378.1596 1.93305l.1958-.0411c-.1031-.49073-.1554-1.1207-.1554-1.89195zm.1596 1.93305c.1062.50567.2466.91219.4241 1.21502l.1726-.10114c-.1625-.27717-.2971-.66065-.4009-1.15498zm.4248 1.21612c.1811.30013.3907.51843.6318.64443l.0926-.1772c-.1988-.104-.3843-.29075-.5532-.57057zm.6326.64483c.2383.1219.4864.1835.743.1835v-.2c-.2233 0-.4403-.0534-.652-.1615zm.743.1835c.2567 0 .5047-.0616.743-.1835l-.091-.178c-.2117.1081-.4286.1615-.652.1615zm.7422-.1831c.2516-.1257.4667-.3441.6484-.64523l-.1712-.10334c-.1683.27883-.3581.46547-.5666.56977zm.6484-.64523c.183-.30319.326-.71014.4323-1.21612l-.1958-.0411c-.1037.49402-.2407.87707-.4077 1.15388zm.4321-1.21518c.1121-.50967.1673-1.15505.1673-1.93399h-.2c0 .77106-.0548 1.40068-.1626 1.89101zm6.6206-1.88149v-.1h-.1v.1zm3.96 0h.1v-.1h-.1zm0 1.695v.1h.1v-.1zm-3.96 0h-.1v.1h.1zm0-1.595h3.96v-.2h-3.96zm3.86-.1v1.695h.2v-1.695zm.1 1.595h-3.96v.2h3.96zm-3.86.1v-1.695h-.2v1.695z"/></g></svg>