<svg fill="none" height="13" viewBox="0 0 80 13" width="80" xmlns="http://www.w3.org/2000/svg"><path d="m4.515.9525c.54 0 1.025.08 1.455.24.435.155.805.3725 1.11.6525s.5375.615.6975 1.005c.165.385.2475.81.2475 1.275 0 .4-.0575.77-.1725 1.11-.11.34-.2625.665-.4575.975-.195.305-.4225.6025-.6825.8925-.255.285-.5275.575-.8175.87l-2.1375 2.19c.275-.08.545-.1425.81-.1875.27-.05.5225-.075.7575-.075h2.04c.25 0 .4475.07.5925.21.145.135.2175.315.2175.54v1.35h-7.68v-.75c0-.145.03-.3.09-.465s.165-.315.315-.45l3.15-3.1725c.27-.27.505-.5275.705-.7725s.365-.485.495-.72c.13-.24.2275-.4775.2925-.7125.065-.24.0975-.4925.0975-.7575 0-.435-.105-.7675-.315-.9975-.205-.235-.52-.3525-.945-.3525-.175 0-.335.025-.48.075s-.275.1175-.39.2025-.215.185-.3.3c-.08.115-.145.24-.195.375-.08.225-.1825.3875-.3075.4875-.12.1-.285.15-.495.15-.05 0-.105-.0025-.165-.0075-.055-.005-.1125-.0125-.1725-.0225l-1.23-.2175c.08-.545.2325-1.02.4575-1.425.23-.405.5125-.7425.8475-1.0125.34-.27.7275-.47 1.1625-.6.435-.135.9025-.2025 1.4025-.2025zm12.4362 5.58c0 .955-.1025 1.7825-.3075 2.4825s-.49 1.28-.855 1.74c-.36.46-.79.8025-1.29 1.0275-.495.225-1.0325.3375-1.6125.3375s-1.1175-.1125-1.6125-.3375c-.49-.225-.915-.5675-1.27503-1.0275-.36-.46-.6425-1.04-.8475-1.74-.2-.7-.3-1.5275-.3-2.4825s.1-1.7825.3-2.4825c.205-.7.4875-1.28.8475-1.74.36003-.46.78503-.8 1.27503-1.02.495-.225 1.0325-.3375 1.6125-.3375s1.1175.1125 1.6125.3375c.5.22.93.56 1.29 1.02.365.46.65 1.04.855 1.74s.3075 1.5275.3075 2.4825zm-2.4 0c0-.755-.0475-1.3725-.1425-1.8525-.095-.485-.2225-.865-.3825-1.14-.155-.275-.3325-.4625-.5325-.5625-.2-.105-.4025-.1575-.6075-.1575s-.4075.0525-.6075.1575c-.195.1-.37.2875-.525.5625-.15.275-.2725.655-.3675 1.14-.09.48-.135 1.0975-.135 1.8525 0 .76.045 1.38.135 1.86.095.48.2175.86.3675 1.14.155.275.33.465.525.57.2.1.4025.15.6075.15s.4075-.05.6075-.15c.2-.105.3775-.295.5325-.57.16-.28.2875-.66.3825-1.14s.1425-1.1.1425-1.86zm4.4411 3.7875h2.1v-5.5125c0-.27.0075-.5525.0225-.8475l-1.2375 1.0275c-.08.065-.16.1125-.24.1425-.08.025-.1575.0375-.2325.0375-.13 0-.2475-.0275-.3525-.0825-.1-.06-.175-.1225-.225-.1875l-.735-.975 3.405-2.8575h1.92v9.255h1.8v1.68h-6.225zm8.5512 0h2.1v-5.5125c0-.27.0075-.5525.0225-.8475l-1.2375 1.0275c-.08.065-.16.1125-.24.1425-.08.025-.1575.0375-.2325.0375-.13 0-.2475-.0275-.3525-.0825-.1-.06-.175-.1225-.225-.1875l-.735-.975 3.405-2.8575h1.92v9.255h1.8v1.68h-6.225zm10.1616-3.8175h4.05v1.875h-4.05zm11.9171-5.55c.54 0 1.025.08 1.455.24.435.155.805.3725 1.11.6525s.5375.615.6975 1.005c.165.385.2475.81.2475 1.275 0 .4-.0575.77-.1725 1.11-.11.34-.2625.665-.4575.975-.195.305-.4225.6025-.6825.8925-.255.285-.5275.575-.8175.87l-2.1375 2.19c.275-.08.545-.1425.81-.1875.27-.05.5225-.075.7575-.075h2.04c.25 0 .4475.07.5925.21.145.135.2175.315.2175.54v1.35h-7.68v-.75c0-.145.03-.3.09-.465s.165-.315.315-.45l3.15-3.1725c.27-.27.505-.5275.705-.7725s.365-.485.495-.72c.13-.24.2275-.4775.2925-.7125.065-.24.0975-.4925.0975-.7575 0-.435-.105-.7675-.315-.9975-.205-.235-.52-.3525-.945-.3525-.175 0-.335.025-.48.075s-.275.1175-.39.2025-.215.185-.3.3c-.08.115-.145.24-.195.375-.08.225-.1825.3875-.3075.4875-.12.1-.285.15-.495.15-.05 0-.105-.0025-.165-.0075-.055-.005-.1125-.0125-.1725-.0225l-1.23-.2175c.08-.545.2325-1.02.4575-1.425.23-.405.5125-.7425.8475-1.0125.34-.27.7275-.47 1.1625-.6.435-.135.9025-.2025 1.4025-.2025zm12.4362 5.58c0 .955-.1025 1.7825-.3075 2.4825s-.49 1.28-.855 1.74c-.36.46-.79.8025-1.29 1.0275-.495.225-1.0325.3375-1.6125.3375s-1.1175-.1125-1.6125-.3375c-.49-.225-.915-.5675-1.275-1.0275s-.6425-1.04-.8475-1.74c-.2-.7-.3-1.5275-.3-2.4825s.1-1.7825.3-2.4825c.205-.7.4875-1.28.8475-1.74s.785-.8 1.275-1.02c.495-.225 1.0325-.3375 1.6125-.3375s1.1175.1125 1.6125.3375c.5.22.93.56 1.29 1.02.365.46.65 1.04.855 1.74s.3075 1.5275.3075 2.4825zm-2.4 0c0-.755-.0475-1.3725-.1425-1.8525-.095-.485-.2225-.865-.3825-1.14-.155-.275-.3325-.4625-.5325-.5625-.2-.105-.4025-.1575-.6075-.1575s-.4075.0525-.6075.1575c-.195.1-.37.2875-.525.5625-.15.275-.2725.655-.3675 1.14-.09.48-.135 1.0975-.135 1.8525 0 .76.045 1.38.135 1.86.095.48.2175.86.3675 1.14.155.275.33.465.525.57.2.1.4025.15.6075.15s.4075-.05.6075-.15c.2-.105.3775-.295.5325-.57.16-.28.2875-.66.3825-1.14s.1425-1.1.1425-1.86zm4.4412 3.7875h2.1v-5.5125c0-.27.0075-.5525.0225-.8475l-1.2375 1.0275c-.08.065-.16.1125-.24.1425-.08.025-.1575.0375-.2325.0375-.13 0-.2475-.0275-.3525-.0825-.1-.06-.175-.1225-.225-.1875l-.735-.975 3.405-2.8575h1.92v9.255h1.8v1.68h-6.225zm14.9561-9.2475v.975c0 .275-.03.4975-.09.6675s-.1175.315-.1725.435l-3.8175 8.085c-.1.215-.2475.3975-.4425.5475-.195.145-.4525.2175-.7725.2175h-1.695l3.9-7.8225c.105-.215.2175-.4075.3375-.5775.125-.17.26-.3325.405-.4875h-4.8075c-.07 0-.1375-.0125-.2025-.0375-.06-.03-.115-.0675-.165-.1125-.045-.05-.0825-.105-.1125-.165-.03-.065-.045-.13-.045-.195v-1.53z" fill="#121111"/></svg>