<svg width="79" height="13" fill="none" xmlns="http://www.w3.org/2000/svg"><path d="M2.675 12H.125V1.072h2.55V12zM6.34 1.072c.11 0 .202.005.277.015.075.01.143.03.203.06.06.026.117.063.172.113.055.05.118.117.188.202l5.19 6.563a13.95 13.95 0 0 1-.045-.607c-.01-.2-.015-.388-.015-.563V1.072h2.235V12h-1.32c-.195 0-.36-.03-.495-.09a1.06 1.06 0 0 1-.39-.33L7.187 5.07c.015.19.028.377.038.563.01.18.015.35.015.51V12H5.005V1.072H6.34zm18.238 0v2.01h-3.075V12h-2.535V3.082h-3.075v-2.01h8.685zm8.38 0v1.95h-4.486v2.55h3.435v1.875h-3.435v2.603h4.485V12h-7.035V1.072h7.035zm4.28 6.885V12h-2.535V1.072h3.555c.79 0 1.463.083 2.018.248.56.16 1.015.385 1.365.675.355.29.613.632.773 1.027.16.396.24.826.24 1.29 0 .356-.048.69-.143 1.005a3.041 3.041 0 0 1-.428.878 3.205 3.205 0 0 1-.69.712c-.27.21-.582.383-.937.518.17.085.327.19.472.315.15.125.28.277.39.457L43.645 12H41.35c-.425 0-.73-.16-.915-.48l-1.816-3.172a.754.754 0 0 0-.285-.3c-.105-.06-.255-.09-.45-.09h-.645zm0-1.747h1.02c.345 0 .638-.042.878-.128.245-.09.445-.212.6-.367a1.39 1.39 0 0 0 .338-.54c.07-.21.105-.435.105-.675 0-.48-.158-.855-.473-1.125-.31-.27-.793-.405-1.448-.405h-1.02v3.24zm14.776-5.138v1.95H47.53v2.55h3.435v1.875H47.53v2.603h4.485V12H44.98V1.072h7.035zm7.836 2.22a.922.922 0 0 1-.24.27.512.512 0 0 1-.315.09.822.822 0 0 1-.375-.105 14.28 14.28 0 0 0-.45-.247 3.37 3.37 0 0 0-.57-.24 2.225 2.225 0 0 0-.734-.113c-.475 0-.83.103-1.066.308-.23.2-.345.473-.345.817 0 .22.07.403.21.548.14.145.323.27.548.375.23.105.49.202.78.292.295.085.595.183.9.293a7.4 7.4 0 0 1 .893.375c.294.145.555.33.78.555.23.225.415.5.554.825.14.32.21.708.21 1.163a3.8 3.8 0 0 1-.262 1.417c-.175.44-.43.825-.765 1.155a3.56 3.56 0 0 1-1.23.772c-.485.185-1.037.278-1.657.278-.34 0-.688-.035-1.043-.105a6.44 6.44 0 0 1-1.02-.293 6.18 6.18 0 0 1-.93-.457 3.952 3.952 0 0 1-.758-.585l.75-1.185a.659.659 0 0 1 .555-.3c.15 0 .3.047.45.143l.518.315c.195.114.418.22.668.314.25.095.544.143.885.143.46 0 .817-.1 1.072-.3.255-.205.383-.527.383-.968 0-.255-.07-.462-.21-.622a1.615 1.615 0 0 0-.556-.398 4.933 4.933 0 0 0-.772-.277c-.29-.08-.587-.167-.892-.263-.306-.1-.603-.22-.893-.36a2.983 2.983 0 0 1-.78-.562 2.72 2.72 0 0 1-.547-.87c-.14-.35-.21-.78-.21-1.29a3.098 3.098 0 0 1 .975-2.243c.32-.304.712-.547 1.177-.727.465-.185.998-.277 1.598-.277.334 0 .66.027.974.082.32.05.623.128.908.233.285.1.55.222.795.367.25.14.472.3.667.48l-.63 1.177zm10.275-2.22v2.01H67.05V12h-2.535V3.082H61.44v-2.01h8.685zm7.435 2.22a.922.922 0 0 1-.24.27.512.512 0 0 1-.315.09.822.822 0 0 1-.375-.105 14.28 14.28 0 0 0-.45-.247 3.37 3.37 0 0 0-.57-.24 2.225 2.225 0 0 0-.735-.113c-.475 0-.83.103-1.065.308-.23.2-.345.473-.345.817 0 .22.07.403.21.548.14.145.322.27.547.375.23.105.49.202.78.292.295.085.595.183.9.293.305.105.603.23.893.375.295.145.555.33.78.555.23.225.415.5.555.825.14.32.21.708.21 1.163a3.8 3.8 0 0 1-.263 1.417c-.175.44-.43.825-.765 1.155a3.56 3.56 0 0 1-1.23.772c-.485.185-1.037.278-1.657.278-.34 0-.688-.035-1.043-.105a6.44 6.44 0 0 1-1.02-.293 6.18 6.18 0 0 1-.93-.457 3.952 3.952 0 0 1-.757-.585l.75-1.185a.659.659 0 0 1 .555-.3c.15 0 .3.047.45.143l.517.315c.195.114.418.22.668.314.25.095.545.143.885.143.46 0 .817-.1 1.072-.3.255-.205.383-.527.383-.968 0-.255-.07-.462-.21-.622a1.615 1.615 0 0 0-.555-.398 4.933 4.933 0 0 0-.773-.277c-.29-.08-.587-.167-.892-.263-.305-.1-.603-.22-.893-.36a2.983 2.983 0 0 1-.78-.562 2.72 2.72 0 0 1-.547-.87c-.14-.35-.21-.78-.21-1.29a3.098 3.098 0 0 1 .975-2.243c.32-.304.712-.547 1.177-.727.465-.185.998-.277 1.598-.277.335 0 .66.027.975.082.32.05.622.128.907.233.285.1.55.222.795.367.25.14.473.3.668.48l-.63 1.177z" fill="#121111"/></svg>