<svg fill="none" height="25" viewBox="0 0 178 25" width="178" xmlns="http://www.w3.org/2000/svg"><path d="m0 6.519h3.224c.286 0 .533.065.741.195s.33367.299.377.507l1.352 6.045c.104.4593.19933.9057.286 1.339s.16467.8623.234 1.287c.12133-.4247.247-.8493.377-1.274.13867-.4333.273-.884.403-1.352l1.69-6.058c.052-.19933.17767-.364.377-.494.19933-.13867.429-.208.689-.208h1.794c.286 0 .5287.06933.728.208.208.13.338.29467.39.494l1.612 6.058c.1213.4593.2427.9057.364 1.339.13.4333.2513.871.364 1.313.0693-.4333.1517-.8623.247-1.287.104-.4333.2123-.8883.325-1.365l1.43-6.045c.0433-.208.1647-.377.364-.507.208-.13.442-.195.702-.195h3.068l-4.186 13.481h-3.276c-.1733 0-.3207-.052-.442-.156s-.2167-.2773-.286-.52l-1.924-6.721c-.0867-.3033-.169-.6023-.247-.897s-.1473-.5893-.208-.884c-.0607.3033-.13.6067-.208.91-.0693.2947-.1517.5937-.247.897l-1.95 6.695c-.13.4507-.416.676-.858.676h-3.12zm28.7424-.208c.8927 0 1.7073.13867 2.444.416.7453.27733 1.3823.68033 1.911 1.209.5373.52867.9533 1.17867 1.248 1.95.3033.7627.455 1.6293.455 2.6 0 .3033-.013.5503-.039.741s-.0737.3423-.143.455-.1647.1907-.286.234c-.1127.0433-.26.065-.442.065h-7.774c.13 1.1267.4723 1.9457 1.027 2.457.5547.5027 1.2697.754 2.145.754.468 0 .871-.0563 1.209-.169s.637-.2383.897-.377c.2687-.1387.5113-.2643.728-.377.2253-.1127.4593-.169.702-.169.3207 0 .5633.117.728.351l1.17 1.443c-.416.4767-.8667.8667-1.352 1.17-.4767.2947-.9707.5287-1.482.702-.5027.1647-1.0097.2773-1.521.338-.5027.0693-.9837.104-1.443.104-.9447 0-1.833-.1517-2.665-.455-.8233-.312-1.547-.7713-2.171-1.378-.6153-.6067-1.105-1.3607-1.469-2.262-.3553-.9013-.533-1.95-.533-3.146 0-.9013.1517-1.755.455-2.561.312-.806.754-1.51233 1.326-2.119.5807-.60667 1.2783-1.08767 2.093-1.443.8233-.35533 1.7507-.533 2.782-.533zm.078 2.782c-.7713 0-1.3737.221-1.807.663-.4333.4333-.7193 1.0617-.858 1.885h5.031c0-.3207-.0433-.6327-.13-.936-.078-.3033-.2123-.572-.403-.806-.182-.24267-.4247-.43767-.728-.585s-.6717-.221-1.105-.221zm8.5526 10.907v-19.461001h4.03v7.410001c.5026-.494 1.0703-.88833 1.703-1.183.6413-.30333 1.391-.455 2.249-.455.702 0 1.352.15167 1.95.455s1.1136.74967 1.547 1.339c.4333.58067.7713 1.29567 1.014 2.145.2513.8493.377 1.8157.377 2.899 0 1.014-.143 1.95-.429 2.808-.2774.858-.6717 1.6033-1.183 2.236-.5027.6327-1.1094 1.1267-1.82 1.482-.702.3553-1.482.533-2.34.533-.3987 0-.7584-.039-1.079-.117-.312-.078-.6024-.1863-.871-.325-.26-.1473-.5027-.3207-.728-.52-.2167-.1993-.429-.416-.637-.65l-.143.676c-.0607.2773-.1734.468-.338.572-.156.104-.364.156-.624.156zm6.578-10.66c-.2947 0-.5634.03033-.806.091-.234.052-.455.13-.663.234-.1994.104-.3857.23833-.559.403-.1734.156-.3467.338-.52.546v5.72c.3033.338.6326.5763.988.715.3553.13.728.195 1.118.195.3726 0 .715-.0737 1.027-.221s.5806-.3813.806-.702c.234-.3293.416-.754.546-1.274s.195-1.1527.195-1.898c0-.7107-.052-1.3087-.156-1.794s-.2514-.8753-.442-1.17c-.182-.30333-.403-.52-.663-.65s-.5504-.195-.871-.195zm23.5153 10.66c-.2513 0-.4636-.0563-.637-.169-.1646-.1127-.2816-.2817-.351-.507l-.312-1.027c-.2686.286-.5503.546-.845.78-.2946.234-.6153.4377-.962.611-.338.1647-.7063.2903-1.105.377-.39.0953-.8146.143-1.274.143-.702 0-1.352-.156-1.95-.468s-1.1136-.7627-1.547-1.352c-.4333-.5893-.7756-1.3087-1.027-2.158-.2426-.858-.364-1.833-.364-2.925 0-1.0053.1387-1.937.416-2.795.2774-.86667.6674-1.612 1.17-2.236.5114-.63267 1.1224-1.12667 1.833-1.482.7107-.35533 1.495-.533 2.353-.533.6934 0 1.2784.104 1.755.312.4854.19933.923.46367 1.313.793v-6.825001h4.03v19.461001zm-4.082-2.886c.2947 0 .559-.026.793-.078.2427-.0607.4637-.143.663-.247.1994-.104.3857-.234.559-.39.182-.156.3597-.338.533-.546v-5.72c-.312-.338-.6456-.572-1.001-.702-.3466-.13867-.715-.208-1.105-.208-.3726 0-.715.07367-1.027.221s-.585.38567-.819.715c-.2253.3207-.403.741-.533 1.261s-.195 1.1483-.195 1.885c0 .7107.052 1.3087.156 1.794s.247.8797.429 1.183c.1907.2947.416.507.676.637s.5504.195.871.195zm15.7321-10.803c.8926 0 1.7073.13867 2.444.416.7453.27733 1.3823.68033 1.911 1.209.5373.52867.9533 1.17867 1.248 1.95.3033.7627.455 1.6293.455 2.6 0 .3033-.013.5503-.039.741s-.0737.3423-.143.455c-.0694.1127-.1647.1907-.286.234-.1127.0433-.26.065-.442.065h-7.774c.13 1.1267.4723 1.9457 1.027 2.457.5546.5027 1.2696.754 2.145.754.468 0 .871-.0563 1.209-.169s.637-.2383.897-.377c.2686-.1387.5113-.2643.728-.377.2253-.1127.4593-.169.702-.169.3206 0 .5633.117.728.351l1.17 1.443c-.416.4767-.8667.8667-1.352 1.17-.4767.2947-.9707.5287-1.482.702-.5027.1647-1.0097.2773-1.521.338-.5027.0693-.9837.104-1.443.104-.9447 0-1.833-.1517-2.665-.455-.8234-.312-1.547-.7713-2.171-1.378-.6154-.6067-1.105-1.3607-1.469-2.262-.3554-.9013-.533-1.95-.533-3.146 0-.9013.1516-1.755.455-2.561.312-.806.754-1.51233 1.326-2.119.5806-.60667 1.2783-1.08767 2.093-1.443.8233-.35533 1.7506-.533 2.782-.533zm.078 2.782c-.7714 0-1.3737.221-1.807.663-.4334.4333-.7194 1.0617-.858 1.885h5.031c0-.3207-.0434-.6327-.13-.936-.078-.3033-.2124-.572-.403-.806-.182-.24267-.4247-.43767-.728-.585-.3034-.14733-.6717-.221-1.105-.221zm15.5067 10.907h-3.666l-5.226-13.481h3.354c.286 0 .5244.06933.715.208.1994.13.3337.29467.403.494l1.872 6.045c.1474.494.286.975.416 1.443.1387.468.2557.936.351 1.404.0954-.468.2124-.936.351-1.404.1387-.468.286-.949.442-1.443l1.95-6.045c.0694-.19933.1994-.364.39-.494.1907-.13867.416-.208.676-.208h3.198zm12.4329-13.689c.893 0 1.708.13867 2.444.416.746.27733 1.383.68033 1.911 1.209.538.52867.954 1.17867 1.248 1.95.304.7627.455 1.6293.455 2.6 0 .3033-.013.5503-.039.741s-.073.3423-.143.455c-.069.1127-.164.1907-.286.234-.112.0433-.26.065-.442.065h-7.774c.13 1.1267.473 1.9457 1.027 2.457.555.5027 1.27.754 2.145.754.468 0 .871-.0563 1.209-.169s.637-.2383.897-.377c.269-.1387.512-.2643.728-.377.226-.1127.46-.169.702-.169.321 0 .564.117.728.351l1.17 1.443c-.416.4767-.866.8667-1.352 1.17-.476.2947-.97.5287-1.482.702-.502.1647-1.009.2773-1.521.338-.502.0693-.983.104-1.443.104-.944 0-1.833-.1517-2.665-.455-.823-.312-1.547-.7713-2.171-1.378-.615-.6067-1.105-1.3607-1.469-2.262-.355-.9013-.533-1.95-.533-3.146 0-.9013.152-1.755.455-2.561.312-.806.754-1.51233 1.326-2.119.581-.60667 1.279-1.08767 2.093-1.443.824-.35533 1.751-.533 2.782-.533zm.078 2.782c-.771 0-1.373.221-1.807.663-.433.4333-.719 1.0617-.858 1.885h5.031c0-.3207-.043-.6327-.13-.936-.078-.3033-.212-.572-.403-.806-.182-.24267-.424-.43767-.728-.585-.303-.14733-.671-.221-1.105-.221zm12.713-8.554001v19.461001h-4.03v-19.461001zm9.52 5.772001c1.023 0 1.954.16033 2.795.481s1.56.78 2.158 1.378c.607.598 1.075 1.326 1.404 2.184.338.8493.507 1.807.507 2.873 0 1.0747-.169 2.0453-.507 2.912-.329.858-.797 1.5903-1.404 2.197-.598.598-1.317 1.0617-2.158 1.391-.841.3207-1.772.481-2.795.481-1.031 0-1.972-.1603-2.821-.481-.841-.3293-1.569-.793-2.184-1.391-.607-.6067-1.079-1.339-1.417-2.197-.329-.8667-.494-1.8373-.494-2.912 0-1.066.165-2.0237.494-2.873.338-.858.81-1.586 1.417-2.184.615-.598 1.343-1.05733 2.184-1.378.849-.32067 1.79-.481 2.821-.481zm0 10.907c.927 0 1.608-.325 2.041-.975.442-.6587.663-1.6553.663-2.99s-.221-2.327-.663-2.977c-.433-.65-1.114-.975-2.041-.975-.953 0-1.651.325-2.093.975s-.663 1.6423-.663 2.977.221 2.3313.663 2.99c.442.65 1.14.975 2.093.975zm9.336 7.059v-17.758h2.496c.251 0 .459.05633.624.169.173.11267.295.28167.364.507l.299.988c.26-.286.537-.546.832-.78.303-.234.624-.43333.962-.598.347-.17333.715-.30767 1.105-.403.399-.09533.832-.143 1.3-.143.702 0 1.352.156 1.95.468s1.114.76267 1.547 1.352.771 1.313 1.014 2.171c.251.8493.377 1.8157.377 2.899 0 1.014-.143 1.95-.429 2.808-.277.858-.672 1.6033-1.183 2.236-.503.6327-1.109 1.1267-1.82 1.482-.702.3553-1.482.533-2.34.533-.702 0-1.291-.0997-1.768-.299s-.91-.468-1.3-.806v5.174zm6.578-14.937c-.295 0-.563.03033-.806.091-.234.052-.455.13-.663.234-.199.104-.386.23833-.559.403-.173.156-.347.338-.52.546v5.72c.303.338.633.5763.988.715.355.13.728.195 1.118.195.373 0 .715-.0737 1.027-.221s.581-.3813.806-.702c.234-.3293.416-.754.546-1.274s.195-1.1527.195-1.898c0-.7107-.052-1.3087-.156-1.794s-.251-.8753-.442-1.17c-.182-.30333-.403-.52-.663-.65s-.55-.195-.871-.195zm14.485-3.029c.893 0 1.708.13867 2.444.416.746.27733 1.383.68033 1.911 1.209.538.52867.954 1.17867 1.248 1.95.304.7627.455 1.6293.455 2.6 0 .3033-.013.5503-.039.741s-.073.3423-.143.455c-.069.1127-.164.1907-.286.234-.112.0433-.26.065-.442.065h-7.774c.13 1.1267.473 1.9457 1.027 2.457.555.5027 1.27.754 2.145.754.468 0 .871-.0563 1.209-.169s.637-.2383.897-.377c.269-.1387.512-.2643.728-.377.226-.1127.46-.169.702-.169.321 0 .564.117.728.351l1.17 1.443c-.416.4767-.866.8667-1.352 1.17-.476.2947-.97.5287-1.482.702-.502.1647-1.009.2773-1.521.338-.502.0693-.983.104-1.443.104-.944 0-1.833-.1517-2.665-.455-.823-.312-1.547-.7713-2.171-1.378-.615-.6067-1.105-1.3607-1.469-2.262-.355-.9013-.533-1.95-.533-3.146 0-.9013.152-1.755.455-2.561.312-.806.754-1.51233 1.326-2.119.581-.60667 1.279-1.08767 2.093-1.443.824-.35533 1.751-.533 2.782-.533zm.078 2.782c-.771 0-1.373.221-1.807.663-.433.4333-.719 1.0617-.858 1.885h5.031c0-.3207-.043-.6327-.13-.936-.078-.3033-.212-.572-.403-.806-.182-.24267-.424-.43767-.728-.585-.303-.14733-.671-.221-1.105-.221zm8.553 10.907v-13.481h2.392c.199 0 .364.01733.494.052.139.03467.251.091.338.169.095.06933.165.16467.208.286.052.12133.095.26867.13.442l.221 1.261c.494-.76267 1.049-1.365 1.664-1.807s1.287-.663 2.015-.663c.615 0 1.109.14733 1.482.442l-.52 2.964c-.035.182-.104.312-.208.39-.104.0693-.243.104-.416.104-.147 0-.321-.0173-.52-.052-.199-.0433-.451-.065-.754-.065-1.057 0-1.889.5633-2.496 1.69v8.268z" fill="#121111"/></svg>