<svg width="348" height="63" fill="none" xmlns="http://www.w3.org/2000/svg"><path d="M13.376 56c-.47 0-.827-.064-1.072-.192-.235-.128-.432-.395-.592-.8l-.352-.912c-.416.352-.816.661-1.2.928a7.916 7.916 0 0 1-1.2.688 5.695 5.695 0 0 1-1.312.4 7.52 7.52 0 0 1-1.536.144 6.944 6.944 0 0 1-2.064-.288 4.482 4.482 0 0 1-1.584-.88 3.892 3.892 0 0 1-.992-1.424c-.235-.576-.352-1.237-.352-1.984 0-.587.15-1.19.448-1.808.299-.619.816-1.179 1.552-1.68.736-.512 1.728-.939 2.976-1.28 1.248-.341 2.821-.533 4.72-.576v-.704c0-.97-.203-1.67-.608-2.096-.395-.437-.96-.656-1.696-.656-.587 0-1.067.064-1.44.192s-.71.272-1.008.432c-.288.16-.57.304-.848.432-.277.128-.608.192-.992.192-.341 0-.635-.08-.88-.24a1.955 1.955 0 0 1-.56-.624l-.896-1.552a9.993 9.993 0 0 1 3.328-1.968c1.227-.437 2.539-.656 3.936-.656 1.003 0 1.904.165 2.704.496.81.32 1.493.773 2.048 1.36a5.804 5.804 0 0 1 1.296 2.064c.299.8.448 1.675.448 2.624V56h-2.272zM7.68 52.976c.64 0 1.2-.112 1.68-.336.48-.224.965-.587 1.456-1.088v-2.304c-.992.043-1.808.128-2.448.256-.64.128-1.147.288-1.52.48s-.635.41-.784.656a1.598 1.598 0 0 0-.208.8c0 .565.155.965.464 1.2.31.224.763.336 1.36.336zm16.93-13.568V56h-4.96V39.408h4.96zm.576-4.544c0 .395-.08.768-.24 1.12a3.07 3.07 0 0 1-.656.912 3.397 3.397 0 0 1-.976.624c-.363.15-.752.224-1.168.224-.405 0-.784-.075-1.136-.224a3.542 3.542 0 0 1-.944-.624 3.203 3.203 0 0 1-.64-.912 2.838 2.838 0 0 1-.224-1.12c0-.405.075-.784.224-1.136.16-.352.373-.661.64-.928a3.08 3.08 0 0 1 .944-.624c.352-.15.73-.224 1.136-.224.416 0 .805.075 1.168.224a2.998 2.998 0 0 1 1.632 1.552c.16.352.24.73.24 1.136zM28.935 56V39.408h3.072c.31 0 .565.07.768.208a1.1 1.1 0 0 1 .448.624l.272.896c.277-.288.565-.55.864-.784a5.16 5.16 0 0 1 .96-.624c.352-.181.725-.32 1.12-.416.405-.107.848-.16 1.328-.16 1.003 0 1.83.261 2.48.784.661.512 1.163 1.2 1.504 2.064a4.99 4.99 0 0 1 1.008-1.312 5.677 5.677 0 0 1 1.296-.88c.47-.224.96-.39 1.472-.496a7.744 7.744 0 0 1 1.552-.16c.95 0 1.792.144 2.528.432a4.63 4.63 0 0 1 1.84 1.232c.501.533.88 1.195 1.136 1.984.256.779.384 1.664.384 2.656V56h-4.96V45.456c0-1.717-.736-2.576-2.208-2.576-.672 0-1.232.224-1.68.672-.437.437-.656 1.072-.656 1.904V56h-4.96V45.456c0-.95-.187-1.616-.56-2-.373-.384-.923-.576-1.648-.576a2.82 2.82 0 0 0-1.28.304 4.69 4.69 0 0 0-1.12.816v12h-4.96zm33.002-16.592V56h-4.96V39.408h4.96zm.577-4.544c0 .395-.08.768-.24 1.12-.16.341-.38.645-.657.912a3.397 3.397 0 0 1-.975.624c-.363.15-.753.224-1.169.224-.405 0-.783-.075-1.136-.224a3.542 3.542 0 0 1-.944-.624 3.203 3.203 0 0 1-.64-.912 2.838 2.838 0 0 1-.224-1.12c0-.405.075-.784.224-1.136.16-.352.374-.661.64-.928.278-.267.593-.475.944-.624.352-.15.731-.224 1.136-.224.416 0 .806.075 1.169.224a2.998 2.998 0 0 1 1.631 1.552c.16.352.24.73.24 1.136zM66.261 56V39.408h3.073c.309 0 .565.07.768.208.213.139.362.347.448.624l.287.96c.32-.299.651-.576.993-.832.34-.256.703-.47 1.087-.64a6.06 6.06 0 0 1 1.264-.416 6.56 6.56 0 0 1 1.489-.16c.906 0 1.706.16 2.4.48.704.31 1.296.747 1.776 1.312.48.555.842 1.221 1.088 2 .245.768.367 1.605.367 2.512V56h-4.96V45.456c0-.81-.186-1.44-.56-1.888-.373-.459-.922-.688-1.647-.688a3.45 3.45 0 0 0-1.537.352c-.48.235-.938.55-1.376.944V56h-4.96zM91 39.12a9.1 9.1 0 0 1 1.984.208 7.99 7.99 0 0 1 1.744.592h5.008v1.808c0 .277-.08.496-.24.656-.15.16-.41.283-.784.368l-1.216.272c.15.48.224.976.224 1.488 0 .832-.176 1.579-.528 2.24a5.05 5.05 0 0 1-1.424 1.696c-.597.459-1.307.816-2.128 1.072a9.182 9.182 0 0 1-2.64.368c-.523 0-1.013-.032-1.472-.096-.363.213-.544.459-.544.736 0 .277.144.48.432.608.299.117.688.203 1.168.256.48.043 1.03.075 1.648.096.619.01 1.248.048 1.888.112.64.053 1.27.15 1.888.288a5.055 5.055 0 0 1 1.648.672c.48.31.864.725 1.152 1.248.299.512.448 1.168.448 1.968 0 .747-.181 1.477-.544 2.192-.363.715-.896 1.35-1.6 1.904-.704.555-1.568.997-2.592 1.328-1.024.341-2.197.512-3.52.512-1.301 0-2.427-.123-3.376-.368-.939-.245-1.723-.57-2.352-.976-.619-.395-1.077-.853-1.376-1.376a3.245 3.245 0 0 1-.448-1.632c0-.736.224-1.355.672-1.856.448-.512 1.061-.912 1.84-1.2a2.81 2.81 0 0 1-.896-.944c-.224-.384-.336-.87-.336-1.456 0-.245.043-.501.128-.768.085-.277.219-.544.4-.8.181-.256.41-.501.688-.736a4.5 4.5 0 0 1 .992-.624c-.864-.459-1.547-1.067-2.048-1.824-.49-.757-.736-1.637-.736-2.64 0-.832.176-1.579.528-2.24a5.014 5.014 0 0 1 1.44-1.696c.619-.47 1.344-.827 2.176-1.072A9.153 9.153 0 0 1 91 39.12zm3.68 17.488c0-.267-.085-.48-.256-.64-.16-.16-.384-.288-.672-.384a4.616 4.616 0 0 0-.992-.208 18.785 18.785 0 0 0-1.216-.096 55.31 55.31 0 0 0-1.36-.048c-.47-.021-.933-.059-1.392-.112a3.32 3.32 0 0 0-.768.72 1.43 1.43 0 0 0-.288.88c0 .235.048.448.144.64.107.192.288.357.544.496.256.139.597.245 1.024.32.437.085.987.128 1.648.128.715 0 1.301-.043 1.76-.128.459-.085.821-.203 1.088-.352.277-.15.47-.33.576-.544a1.42 1.42 0 0 0 .16-.672zM91 46.832c.821 0 1.413-.203 1.776-.608.373-.416.56-.95.56-1.6 0-.672-.187-1.2-.56-1.584-.363-.384-.955-.576-1.776-.576-.821 0-1.419.192-1.792.576-.363.384-.544.912-.544 1.584 0 .32.043.613.128.88.096.267.24.501.432.704.192.192.432.347.72.464.299.107.65.16 1.056.16zM109.458 56V42.816l-1.088-.224c-.373-.085-.677-.219-.912-.4-.224-.181-.336-.448-.336-.8V39.44h2.336v-.944c0-.95.15-1.808.448-2.576a5.605 5.605 0 0 1 1.312-1.968c.576-.544 1.275-.965 2.096-1.264.822-.299 1.755-.448 2.8-.448.406 0 .779.027 1.12.08.352.043.715.117 1.088.224l-.096 2.416a.792.792 0 0 1-.144.432.988.988 0 0 1-.288.272c-.117.064-.25.112-.4.144a1.838 1.838 0 0 1-.416.048 4.84 4.84 0 0 0-1.168.128c-.341.085-.629.24-.864.464-.224.213-.394.501-.512.864-.117.352-.176.8-.176 1.344v.784h3.904v3.392h-3.744V56h-4.96zm18.57-16.848c1.259 0 2.406.197 3.44.592 1.035.395 1.92.96 2.656 1.696.747.736 1.323 1.632 1.728 2.688.416 1.045.624 2.224.624 3.536 0 1.323-.208 2.517-.624 3.584-.405 1.056-.981 1.957-1.728 2.704a7.646 7.646 0 0 1-2.656 1.712c-1.034.395-2.181.592-3.44.592-1.269 0-2.426-.197-3.472-.592a8.004 8.004 0 0 1-2.688-1.712c-.746-.747-1.328-1.648-1.744-2.704-.405-1.067-.608-2.261-.608-3.584 0-1.312.203-2.49.608-3.536.416-1.056.998-1.952 1.744-2.688a7.805 7.805 0 0 1 2.688-1.696c1.046-.395 2.203-.592 3.472-.592zm0 13.424c1.142 0 1.979-.4 2.512-1.2.544-.81.816-2.037.816-3.68 0-1.643-.272-2.864-.816-3.664-.533-.8-1.37-1.2-2.512-1.2-1.173 0-2.032.4-2.576 1.2-.544.8-.816 2.021-.816 3.664 0 1.643.272 2.87.816 3.68.544.8 1.403 1.2 2.576 1.2zM139.519 56V39.408h2.944c.245 0 .448.021.608.064.17.043.309.112.416.208a.729.729 0 0 1 .256.352c.064.15.117.33.16.544l.272 1.552c.608-.939 1.29-1.68 2.048-2.224.757-.544 1.584-.816 2.48-.816.757 0 1.365.181 1.824.544l-.64 3.648c-.043.224-.128.384-.256.48-.128.085-.299.128-.512.128a3.76 3.76 0 0 1-.64-.064 4.487 4.487 0 0 0-.928-.08c-1.302 0-2.326.693-3.072 2.08V56h-4.96zm31.502 0c-.469 0-.827-.064-1.072-.192-.235-.128-.432-.395-.592-.8l-.352-.912c-.416.352-.816.661-1.2.928a7.916 7.916 0 0 1-1.2.688 5.695 5.695 0 0 1-1.312.4 7.525 7.525 0 0 1-1.536.144 6.948 6.948 0 0 1-2.064-.288 4.476 4.476 0 0 1-1.584-.88 3.892 3.892 0 0 1-.992-1.424c-.235-.576-.352-1.237-.352-1.984 0-.587.149-1.19.448-1.808.299-.619.816-1.179 1.552-1.68.736-.512 1.728-.939 2.976-1.28 1.248-.341 2.821-.533 4.72-.576v-.704c0-.97-.203-1.67-.608-2.096-.395-.437-.96-.656-1.696-.656-.587 0-1.067.064-1.44.192a6.847 6.847 0 0 0-1.008.432c-.288.16-.571.304-.848.432s-.608.192-.992.192c-.341 0-.635-.08-.88-.24a1.955 1.955 0 0 1-.56-.624l-.896-1.552a9.996 9.996 0 0 1 3.328-1.968c1.227-.437 2.539-.656 3.936-.656 1.003 0 1.904.165 2.704.496a5.6 5.6 0 0 1 2.048 1.36 5.812 5.812 0 0 1 1.296 2.064c.299.8.448 1.675.448 2.624V56h-2.272zm-5.696-3.024c.64 0 1.2-.112 1.68-.336.48-.224.965-.587 1.456-1.088v-2.304c-.992.043-1.808.128-2.448.256-.64.128-1.147.288-1.52.48s-.635.41-.784.656a1.595 1.595 0 0 0-.208.8c0 .565.155.965.464 1.2.309.224.763.336 1.36.336zM184.379 56V42.816l-1.088-.224c-.374-.085-.678-.219-.912-.4-.224-.181-.336-.448-.336-.8V39.44h2.336v-.944c0-.95.149-1.808.448-2.576a5.578 5.578 0 0 1 1.312-1.968c.576-.544 1.274-.965 2.096-1.264.821-.299 1.754-.448 2.8-.448.405 0 .778.027 1.12.08.352.043.714.117 1.088.224l-.096 2.416a.808.808 0 0 1-.144.432 1.013 1.013 0 0 1-.288.272 1.49 1.49 0 0 1-.4.144 1.851 1.851 0 0 1-.416.048 4.83 4.83 0 0 0-1.168.128c-.342.085-.63.24-.864.464-.224.213-.395.501-.512.864-.118.352-.176.8-.176 1.344v.784h3.904v3.392h-3.744V56h-4.96zm15.817-16.592v10.528c0 .821.187 1.456.56 1.904.374.448.923.672 1.648.672.544 0 1.051-.112 1.52-.336.48-.224.944-.539 1.392-.944V39.408h4.96V56h-3.072c-.618 0-1.024-.277-1.216-.832l-.304-.96c-.32.31-.65.592-.992.848a6.598 6.598 0 0 1-1.104.64c-.384.17-.8.304-1.248.4-.448.107-.938.16-1.472.16-.906 0-1.712-.155-2.416-.464a5.06 5.06 0 0 1-1.76-1.328 5.768 5.768 0 0 1-1.088-2c-.245-.768-.368-1.61-.368-2.528V39.408h4.96zm19.363-7.36V56h-4.96V32.048h4.96zm9.445 0V56h-4.96V32.048h4.96zm4.005 12.224h8.64v4h-8.64v-4zm18.307 11.984c-.789 0-1.488-.112-2.096-.336a4.39 4.39 0 0 1-1.52-.976 4.31 4.31 0 0 1-.928-1.536c-.213-.597-.32-1.264-.32-2v-8.576h-1.408a.959.959 0 0 1-.656-.24c-.181-.17-.272-.416-.272-.736V39.92l2.64-.512.976-4.048c.128-.512.491-.768 1.088-.768h2.592v4.848h4.032v3.392h-4.032v8.24c0 .384.091.704.272.96.192.245.464.368.816.368.182 0 .331-.016.448-.048.128-.043.235-.085.32-.128.096-.053.182-.096.256-.128a.639.639 0 0 1 .288-.064c.15 0 .267.037.352.112.096.064.192.17.288.32l1.504 2.352a6.97 6.97 0 0 1-2.16 1.088 8.76 8.76 0 0 1-2.48.352zm12.429-16.848V56h-4.96V39.408h4.96zm.576-4.544c0 .395-.08.768-.24 1.12a3.07 3.07 0 0 1-.656.912 3.397 3.397 0 0 1-.976.624 3.04 3.04 0 0 1-1.168.224 2.88 2.88 0 0 1-1.136-.224 3.537 3.537 0 0 1-.944-.624 3.197 3.197 0 0 1-.64-.912 2.844 2.844 0 0 1-.224-1.12c0-.405.075-.784.224-1.136.16-.352.373-.661.64-.928a3.09 3.09 0 0 1 .944-.624 2.88 2.88 0 0 1 1.136-.224c.416 0 .805.075 1.168.224a2.998 2.998 0 0 1 1.632 1.552c.16.352.24.73.24 1.136zM268.07 56V39.408h3.072c.309 0 .565.07.768.208a1.1 1.1 0 0 1 .448.624l.272.896c.277-.288.565-.55.864-.784a5.13 5.13 0 0 1 .96-.624 5.03 5.03 0 0 1 1.12-.416c.405-.107.848-.16 1.328-.16 1.003 0 1.829.261 2.48.784.661.512 1.163 1.2 1.504 2.064.277-.512.613-.95 1.008-1.312a5.664 5.664 0 0 1 1.296-.88 6.43 6.43 0 0 1 1.472-.496 7.746 7.746 0 0 1 1.552-.16c.949 0 1.792.144 2.528.432a4.632 4.632 0 0 1 1.84 1.232c.501.533.88 1.195 1.136 1.984.256.779.384 1.664.384 2.656V56h-4.96V45.456c0-1.717-.736-2.576-2.208-2.576-.672 0-1.232.224-1.68.672-.437.437-.656 1.072-.656 1.904V56h-4.96V45.456c0-.95-.187-1.616-.56-2-.373-.384-.923-.576-1.648-.576a2.82 2.82 0 0 0-1.28.304 4.683 4.683 0 0 0-1.12.816v12h-4.96zm34.987-16.848c1.098 0 2.101.17 3.008.512a6.47 6.47 0 0 1 2.352 1.488c.661.65 1.173 1.45 1.536 2.4.373.939.56 2.005.56 3.2 0 .373-.016.677-.048.912a1.45 1.45 0 0 1-.176.56.67.67 0 0 1-.352.288 1.55 1.55 0 0 1-.544.08h-9.568c.16 1.387.581 2.395 1.264 3.024.682.619 1.562.928 2.64.928.576 0 1.072-.07 1.488-.208a7.164 7.164 0 0 0 1.104-.464l.896-.464c.277-.139.565-.208.864-.208.394 0 .693.144.896.432l1.44 1.776a7.475 7.475 0 0 1-1.664 1.44 8.903 8.903 0 0 1-1.824.864 9.666 9.666 0 0 1-1.872.416 13.07 13.07 0 0 1-1.776.128 9.5 9.5 0 0 1-3.28-.56A7.704 7.704 0 0 1 297.329 54c-.758-.747-1.36-1.675-1.808-2.784-.438-1.11-.656-2.4-.656-3.872 0-1.11.186-2.16.56-3.152a7.935 7.935 0 0 1 1.632-2.608 7.87 7.87 0 0 1 2.576-1.776c1.013-.437 2.154-.656 3.424-.656zm.096 3.424c-.95 0-1.691.272-2.224.816-.534.533-.886 1.307-1.056 2.32h6.192c0-.395-.054-.779-.16-1.152a2.568 2.568 0 0 0-.496-.992 2.415 2.415 0 0 0-.896-.72c-.374-.181-.827-.272-1.36-.272zm16.393 10.912c0-.384.07-.741.208-1.072.15-.33.347-.619.592-.864.256-.245.555-.437.896-.576.342-.15.715-.224 1.12-.224.395 0 .763.075 1.104.224.342.139.64.33.896.576.256.245.454.533.592.864.15.33.224.688.224 1.072 0 .384-.074.747-.224 1.088-.138.33-.336.619-.592.864a2.803 2.803 0 0 1-.896.576 2.902 2.902 0 0 1-1.104.208c-.405 0-.778-.07-1.12-.208a2.814 2.814 0 0 1-.896-.576 2.91 2.91 0 0 1-.592-.864 2.876 2.876 0 0 1-.208-1.088zm10.763 0c0-.384.069-.741.208-1.072.149-.33.346-.619.592-.864.256-.245.554-.437.896-.576a2.76 2.76 0 0 1 1.12-.224c.394 0 .762.075 1.104.224.341.139.64.33.896.576.256.245.453.533.592.864.149.33.224.688.224 1.072 0 .384-.075.747-.224 1.088-.139.33-.336.619-.592.864a2.814 2.814 0 0 1-.896.576 2.91 2.91 0 0 1-1.104.208c-.406 0-.779-.07-1.12-.208a2.803 2.803 0 0 1-.896-.576 2.874 2.874 0 0 1-.592-.864 2.856 2.856 0 0 1-.208-1.088zm10.762 0c0-.384.07-.741.208-1.072.15-.33.347-.619.592-.864.256-.245.555-.437.896-.576.342-.15.715-.224 1.12-.224.395 0 .763.075 1.104.224.342.139.64.33.896.576.256.245.454.533.592.864.15.33.224.688.224 1.072 0 .384-.074.747-.224 1.088-.138.33-.336.619-.592.864a2.803 2.803 0 0 1-.896.576 2.902 2.902 0 0 1-1.104.208c-.405 0-.778-.07-1.12-.208a2.814 2.814 0 0 1-.896-.576 2.91 2.91 0 0 1-.592-.864 2.876 2.876 0 0 1-.208-1.088z" fill="#4263EB" fill-opacity=".4"/><path d="M13.376 44c-.47 0-.827-.064-1.072-.192-.235-.128-.432-.395-.592-.8l-.352-.912c-.416.352-.816.661-1.2.928a7.916 7.916 0 0 1-1.2.688 5.695 5.695 0 0 1-1.312.4 7.52 7.52 0 0 1-1.536.144 6.944 6.944 0 0 1-2.064-.288 4.482 4.482 0 0 1-1.584-.88 3.892 3.892 0 0 1-.992-1.424c-.235-.576-.352-1.237-.352-1.984 0-.587.15-1.19.448-1.808.299-.619.816-1.179 1.552-1.68.736-.512 1.728-.939 2.976-1.28 1.248-.341 2.821-.533 4.72-.576v-.704c0-.97-.203-1.67-.608-2.096-.395-.437-.96-.656-1.696-.656-.587 0-1.067.064-1.44.192s-.71.272-1.008.432c-.288.16-.57.304-.848.432-.277.128-.608.192-.992.192-.341 0-.635-.08-.88-.24a1.955 1.955 0 0 1-.56-.624l-.896-1.552a9.993 9.993 0 0 1 3.328-1.968c1.227-.437 2.539-.656 3.936-.656 1.003 0 1.904.165 2.704.496.81.32 1.493.773 2.048 1.36a5.804 5.804 0 0 1 1.296 2.064c.299.8.448 1.675.448 2.624V44h-2.272zM7.68 40.976c.64 0 1.2-.112 1.68-.336.48-.224.965-.587 1.456-1.088v-2.304c-.992.043-1.808.128-2.448.256-.64.128-1.147.288-1.52.48s-.635.41-.784.656a1.598 1.598 0 0 0-.208.8c0 .565.155.965.464 1.2.31.224.763.336 1.36.336zm16.93-13.568V44h-4.96V27.408h4.96zm.576-4.544c0 .395-.08.768-.24 1.12a3.07 3.07 0 0 1-.656.912 3.397 3.397 0 0 1-.976.624c-.363.15-.752.224-1.168.224-.405 0-.784-.075-1.136-.224a3.542 3.542 0 0 1-.944-.624 3.203 3.203 0 0 1-.64-.912 2.838 2.838 0 0 1-.224-1.12c0-.405.075-.784.224-1.136.16-.352.373-.661.64-.928a3.08 3.08 0 0 1 .944-.624c.352-.15.73-.224 1.136-.224.416 0 .805.075 1.168.224a2.998 2.998 0 0 1 1.632 1.552c.16.352.24.73.24 1.136zM28.935 44V27.408h3.072c.31 0 .565.07.768.208a1.1 1.1 0 0 1 .448.624l.272.896c.277-.288.565-.55.864-.784a5.16 5.16 0 0 1 .96-.624c.352-.181.725-.32 1.12-.416.405-.107.848-.16 1.328-.16 1.003 0 1.83.261 2.48.784.661.512 1.163 1.2 1.504 2.064a4.99 4.99 0 0 1 1.008-1.312 5.677 5.677 0 0 1 1.296-.88c.47-.224.96-.39 1.472-.496a7.744 7.744 0 0 1 1.552-.16c.95 0 1.792.144 2.528.432a4.63 4.63 0 0 1 1.84 1.232c.501.533.88 1.195 1.136 1.984.256.779.384 1.664.384 2.656V44h-4.96V33.456c0-1.717-.736-2.576-2.208-2.576-.672 0-1.232.224-1.68.672-.437.437-.656 1.072-.656 1.904V44h-4.96V33.456c0-.95-.187-1.616-.56-2-.373-.384-.923-.576-1.648-.576a2.82 2.82 0 0 0-1.28.304 4.69 4.69 0 0 0-1.12.816v12h-4.96zm33.002-16.592V44h-4.96V27.408h4.96zm.577-4.544c0 .395-.08.768-.24 1.12-.16.341-.38.645-.657.912a3.397 3.397 0 0 1-.975.624c-.363.15-.753.224-1.169.224-.405 0-.783-.075-1.136-.224a3.542 3.542 0 0 1-.944-.624 3.203 3.203 0 0 1-.64-.912 2.838 2.838 0 0 1-.224-1.12c0-.405.075-.784.224-1.136.16-.352.374-.661.64-.928.278-.267.593-.475.944-.624.352-.15.731-.224 1.136-.224.416 0 .806.075 1.169.224a2.998 2.998 0 0 1 1.631 1.552c.16.352.24.73.24 1.136zM66.261 44V27.408h3.073c.309 0 .565.07.768.208.213.139.362.347.448.624l.287.96c.32-.299.651-.576.993-.832.34-.256.703-.47 1.087-.64a6.06 6.06 0 0 1 1.264-.416 6.56 6.56 0 0 1 1.489-.16c.906 0 1.706.16 2.4.48.704.31 1.296.747 1.776 1.312.48.555.842 1.221 1.088 2 .245.768.367 1.605.367 2.512V44h-4.96V33.456c0-.81-.186-1.44-.56-1.888-.373-.459-.922-.688-1.647-.688a3.45 3.45 0 0 0-1.537.352c-.48.235-.938.55-1.376.944V44h-4.96zM91 27.12a9.1 9.1 0 0 1 1.984.208 7.99 7.99 0 0 1 1.744.592h5.008v1.808c0 .277-.08.496-.24.656-.15.16-.41.283-.784.368l-1.216.272c.15.48.224.976.224 1.488 0 .832-.176 1.579-.528 2.24a5.05 5.05 0 0 1-1.424 1.696c-.597.459-1.307.816-2.128 1.072a9.182 9.182 0 0 1-2.64.368c-.523 0-1.013-.032-1.472-.096-.363.213-.544.459-.544.736 0 .277.144.48.432.608.299.117.688.203 1.168.256.48.043 1.03.075 1.648.096.619.01 1.248.048 1.888.112.64.053 1.27.15 1.888.288a5.055 5.055 0 0 1 1.648.672c.48.31.864.725 1.152 1.248.299.512.448 1.168.448 1.968 0 .747-.181 1.477-.544 2.192-.363.715-.896 1.35-1.6 1.904-.704.555-1.568.997-2.592 1.328-1.024.341-2.197.512-3.52.512-1.301 0-2.427-.123-3.376-.368-.939-.245-1.723-.57-2.352-.976-.619-.395-1.077-.853-1.376-1.376a3.245 3.245 0 0 1-.448-1.632c0-.736.224-1.355.672-1.856.448-.512 1.061-.912 1.84-1.2a2.81 2.81 0 0 1-.896-.944c-.224-.384-.336-.87-.336-1.456 0-.245.043-.501.128-.768.085-.277.219-.544.4-.8.181-.256.41-.501.688-.736a4.5 4.5 0 0 1 .992-.624c-.864-.459-1.547-1.067-2.048-1.824-.49-.757-.736-1.637-.736-2.64 0-.832.176-1.579.528-2.24a5.014 5.014 0 0 1 1.44-1.696c.619-.47 1.344-.827 2.176-1.072A9.153 9.153 0 0 1 91 27.12zm3.68 17.488c0-.267-.085-.48-.256-.64-.16-.16-.384-.288-.672-.384a4.616 4.616 0 0 0-.992-.208 18.785 18.785 0 0 0-1.216-.096 55.31 55.31 0 0 0-1.36-.048c-.47-.021-.933-.059-1.392-.112a3.32 3.32 0 0 0-.768.72 1.43 1.43 0 0 0-.288.88c0 .235.048.448.144.64.107.192.288.357.544.496.256.139.597.245 1.024.32.437.085.987.128 1.648.128.715 0 1.301-.043 1.76-.128.459-.085.821-.203 1.088-.352.277-.15.47-.33.576-.544a1.42 1.42 0 0 0 .16-.672zM91 34.832c.821 0 1.413-.203 1.776-.608.373-.416.56-.95.56-1.6 0-.672-.187-1.2-.56-1.584-.363-.384-.955-.576-1.776-.576-.821 0-1.419.192-1.792.576-.363.384-.544.912-.544 1.584 0 .32.043.613.128.88.096.267.24.501.432.704.192.192.432.347.72.464.299.107.65.16 1.056.16zM109.458 44V30.816l-1.088-.224c-.373-.085-.677-.219-.912-.4-.224-.181-.336-.448-.336-.8V27.44h2.336v-.944c0-.95.15-1.808.448-2.576a5.605 5.605 0 0 1 1.312-1.968c.576-.544 1.275-.965 2.096-1.264.822-.299 1.755-.448 2.8-.448.406 0 .779.027 1.12.08.352.043.715.117 1.088.224l-.096 2.416a.792.792 0 0 1-.144.432.988.988 0 0 1-.288.272c-.117.064-.25.112-.4.144a1.838 1.838 0 0 1-.416.048 4.84 4.84 0 0 0-1.168.128c-.341.085-.629.24-.864.464-.224.213-.394.501-.512.864-.117.352-.176.8-.176 1.344v.784h3.904v3.392h-3.744V44h-4.96zm18.57-16.848c1.259 0 2.406.197 3.44.592 1.035.395 1.92.96 2.656 1.696.747.736 1.323 1.632 1.728 2.688.416 1.045.624 2.224.624 3.536 0 1.323-.208 2.517-.624 3.584-.405 1.056-.981 1.957-1.728 2.704a7.646 7.646 0 0 1-2.656 1.712c-1.034.395-2.181.592-3.44.592-1.269 0-2.426-.197-3.472-.592a8.004 8.004 0 0 1-2.688-1.712c-.746-.747-1.328-1.648-1.744-2.704-.405-1.067-.608-2.261-.608-3.584 0-1.312.203-2.49.608-3.536.416-1.056.998-1.952 1.744-2.688a7.805 7.805 0 0 1 2.688-1.696c1.046-.395 2.203-.592 3.472-.592zm0 13.424c1.142 0 1.979-.4 2.512-1.2.544-.81.816-2.037.816-3.68 0-1.643-.272-2.864-.816-3.664-.533-.8-1.37-1.2-2.512-1.2-1.173 0-2.032.4-2.576 1.2-.544.8-.816 2.021-.816 3.664 0 1.643.272 2.87.816 3.68.544.8 1.403 1.2 2.576 1.2zM139.519 44V27.408h2.944c.245 0 .448.021.608.064.17.043.309.112.416.208a.729.729 0 0 1 .256.352c.064.15.117.33.16.544l.272 1.552c.608-.939 1.29-1.68 2.048-2.224.757-.544 1.584-.816 2.48-.816.757 0 1.365.181 1.824.544l-.64 3.648c-.043.224-.128.384-.256.48-.128.085-.299.128-.512.128a3.76 3.76 0 0 1-.64-.064 4.487 4.487 0 0 0-.928-.08c-1.302 0-2.326.693-3.072 2.08V44h-4.96zm31.502 0c-.469 0-.827-.064-1.072-.192-.235-.128-.432-.395-.592-.8l-.352-.912c-.416.352-.816.661-1.2.928a7.916 7.916 0 0 1-1.2.688 5.695 5.695 0 0 1-1.312.4 7.525 7.525 0 0 1-1.536.144 6.948 6.948 0 0 1-2.064-.288 4.476 4.476 0 0 1-1.584-.88 3.892 3.892 0 0 1-.992-1.424c-.235-.576-.352-1.237-.352-1.984 0-.587.149-1.19.448-1.808.299-.619.816-1.179 1.552-1.68.736-.512 1.728-.939 2.976-1.28 1.248-.341 2.821-.533 4.72-.576v-.704c0-.97-.203-1.67-.608-2.096-.395-.437-.96-.656-1.696-.656-.587 0-1.067.064-1.44.192a6.847 6.847 0 0 0-1.008.432c-.288.16-.571.304-.848.432s-.608.192-.992.192c-.341 0-.635-.08-.88-.24a1.955 1.955 0 0 1-.56-.624l-.896-1.552a9.996 9.996 0 0 1 3.328-1.968c1.227-.437 2.539-.656 3.936-.656 1.003 0 1.904.165 2.704.496a5.6 5.6 0 0 1 2.048 1.36 5.812 5.812 0 0 1 1.296 2.064c.299.8.448 1.675.448 2.624V44h-2.272zm-5.696-3.024c.64 0 1.2-.112 1.68-.336.48-.224.965-.587 1.456-1.088v-2.304c-.992.043-1.808.128-2.448.256-.64.128-1.147.288-1.52.48s-.635.41-.784.656a1.595 1.595 0 0 0-.208.8c0 .565.155.965.464 1.2.309.224.763.336 1.36.336zM184.379 44V30.816l-1.088-.224c-.374-.085-.678-.219-.912-.4-.224-.181-.336-.448-.336-.8V27.44h2.336v-.944c0-.95.149-1.808.448-2.576a5.578 5.578 0 0 1 1.312-1.968c.576-.544 1.274-.965 2.096-1.264.821-.299 1.754-.448 2.8-.448.405 0 .778.027 1.12.08.352.043.714.117 1.088.224l-.096 2.416a.808.808 0 0 1-.144.432 1.013 1.013 0 0 1-.288.272 1.49 1.49 0 0 1-.4.144 1.851 1.851 0 0 1-.416.048 4.83 4.83 0 0 0-1.168.128c-.342.085-.63.24-.864.464-.224.213-.395.501-.512.864-.118.352-.176.8-.176 1.344v.784h3.904v3.392h-3.744V44h-4.96zm15.817-16.592v10.528c0 .821.187 1.456.56 1.904.374.448.923.672 1.648.672.544 0 1.051-.112 1.52-.336.48-.224.944-.539 1.392-.944V27.408h4.96V44h-3.072c-.618 0-1.024-.277-1.216-.832l-.304-.96c-.32.31-.65.592-.992.848a6.598 6.598 0 0 1-1.104.64c-.384.17-.8.304-1.248.4-.448.107-.938.16-1.472.16-.906 0-1.712-.155-2.416-.464a5.06 5.06 0 0 1-1.76-1.328 5.768 5.768 0 0 1-1.088-2c-.245-.768-.368-1.61-.368-2.528V27.408h4.96zm19.363-7.36V44h-4.96V20.048h4.96zm9.445 0V44h-4.96V20.048h4.96zm4.005 12.224h8.64v4h-8.64v-4zm18.307 11.984c-.789 0-1.488-.112-2.096-.336a4.39 4.39 0 0 1-1.52-.976 4.31 4.31 0 0 1-.928-1.536c-.213-.597-.32-1.264-.32-2v-8.576h-1.408a.959.959 0 0 1-.656-.24c-.181-.17-.272-.416-.272-.736V27.92l2.64-.512.976-4.048c.128-.512.491-.768 1.088-.768h2.592v4.848h4.032v3.392h-4.032v8.24c0 .384.091.704.272.96.192.245.464.368.816.368.182 0 .331-.016.448-.048.128-.043.235-.085.32-.128.096-.053.182-.096.256-.128a.639.639 0 0 1 .288-.064c.15 0 .267.037.352.112.096.064.192.17.288.32l1.504 2.352a6.97 6.97 0 0 1-2.16 1.088 8.76 8.76 0 0 1-2.48.352zm12.429-16.848V44h-4.96V27.408h4.96zm.576-4.544c0 .395-.08.768-.24 1.12a3.07 3.07 0 0 1-.656.912 3.397 3.397 0 0 1-.976.624 3.04 3.04 0 0 1-1.168.224 2.88 2.88 0 0 1-1.136-.224 3.537 3.537 0 0 1-.944-.624 3.197 3.197 0 0 1-.64-.912 2.844 2.844 0 0 1-.224-1.12c0-.405.075-.784.224-1.136.16-.352.373-.661.64-.928a3.09 3.09 0 0 1 .944-.624 2.88 2.88 0 0 1 1.136-.224c.416 0 .805.075 1.168.224a2.998 2.998 0 0 1 1.632 1.552c.16.352.24.73.24 1.136zM268.07 44V27.408h3.072c.309 0 .565.07.768.208a1.1 1.1 0 0 1 .448.624l.272.896c.277-.288.565-.55.864-.784a5.13 5.13 0 0 1 .96-.624 5.03 5.03 0 0 1 1.12-.416c.405-.107.848-.16 1.328-.16 1.003 0 1.829.261 2.48.784.661.512 1.163 1.2 1.504 2.064.277-.512.613-.95 1.008-1.312a5.664 5.664 0 0 1 1.296-.88 6.43 6.43 0 0 1 1.472-.496 7.746 7.746 0 0 1 1.552-.16c.949 0 1.792.144 2.528.432a4.632 4.632 0 0 1 1.84 1.232c.501.533.88 1.195 1.136 1.984.256.779.384 1.664.384 2.656V44h-4.96V33.456c0-1.717-.736-2.576-2.208-2.576-.672 0-1.232.224-1.68.672-.437.437-.656 1.072-.656 1.904V44h-4.96V33.456c0-.95-.187-1.616-.56-2-.373-.384-.923-.576-1.648-.576a2.82 2.82 0 0 0-1.28.304 4.683 4.683 0 0 0-1.12.816v12h-4.96zm34.987-16.848c1.098 0 2.101.17 3.008.512a6.47 6.47 0 0 1 2.352 1.488c.661.65 1.173 1.45 1.536 2.4.373.939.56 2.005.56 3.2 0 .373-.016.677-.048.912a1.45 1.45 0 0 1-.176.56.67.67 0 0 1-.352.288 1.55 1.55 0 0 1-.544.08h-9.568c.16 1.387.581 2.395 1.264 3.024.682.619 1.562.928 2.64.928.576 0 1.072-.07 1.488-.208a7.164 7.164 0 0 0 1.104-.464l.896-.464c.277-.139.565-.208.864-.208.394 0 .693.144.896.432l1.44 1.776a7.475 7.475 0 0 1-1.664 1.44 8.903 8.903 0 0 1-1.824.864 9.666 9.666 0 0 1-1.872.416 13.07 13.07 0 0 1-1.776.128 9.5 9.5 0 0 1-3.28-.56A7.704 7.704 0 0 1 297.329 42c-.758-.747-1.36-1.675-1.808-2.784-.438-1.11-.656-2.4-.656-3.872 0-1.11.186-2.16.56-3.152a7.935 7.935 0 0 1 1.632-2.608 7.87 7.87 0 0 1 2.576-1.776c1.013-.437 2.154-.656 3.424-.656zm.096 3.424c-.95 0-1.691.272-2.224.816-.534.533-.886 1.307-1.056 2.32h6.192c0-.395-.054-.779-.16-1.152a2.568 2.568 0 0 0-.496-.992 2.415 2.415 0 0 0-.896-.72c-.374-.181-.827-.272-1.36-.272zm16.393 10.912c0-.384.07-.741.208-1.072.15-.33.347-.619.592-.864.256-.245.555-.437.896-.576.342-.15.715-.224 1.12-.224.395 0 .763.075 1.104.224.342.139.64.33.896.576.256.245.454.533.592.864.15.33.224.688.224 1.072 0 .384-.074.747-.224 1.088-.138.33-.336.619-.592.864a2.803 2.803 0 0 1-.896.576 2.902 2.902 0 0 1-1.104.208c-.405 0-.778-.07-1.12-.208a2.814 2.814 0 0 1-.896-.576 2.91 2.91 0 0 1-.592-.864 2.876 2.876 0 0 1-.208-1.088zm10.763 0c0-.384.069-.741.208-1.072.149-.33.346-.619.592-.864.256-.245.554-.437.896-.576a2.76 2.76 0 0 1 1.12-.224c.394 0 .762.075 1.104.224.341.139.64.33.896.576.256.245.453.533.592.864.149.33.224.688.224 1.072 0 .384-.075.747-.224 1.088-.139.33-.336.619-.592.864a2.814 2.814 0 0 1-.896.576 2.91 2.91 0 0 1-1.104.208c-.406 0-.779-.07-1.12-.208a2.803 2.803 0 0 1-.896-.576 2.874 2.874 0 0 1-.592-.864 2.856 2.856 0 0 1-.208-1.088zm10.762 0c0-.384.07-.741.208-1.072.15-.33.347-.619.592-.864.256-.245.555-.437.896-.576.342-.15.715-.224 1.12-.224.395 0 .763.075 1.104.224.342.139.64.33.896.576.256.245.454.533.592.864.15.33.224.688.224 1.072 0 .384-.074.747-.224 1.088-.138.33-.336.619-.592.864a2.803 2.803 0 0 1-.896.576 2.902 2.902 0 0 1-1.104.208c-.405 0-.778-.07-1.12-.208a2.814 2.814 0 0 1-.896-.576 2.91 2.91 0 0 1-.592-.864 2.876 2.876 0 0 1-.208-1.088z" fill="#47F6CB" fill-opacity=".9"/><path d="M13.376 31c-.47 0-.827-.064-1.072-.192-.235-.128-.432-.395-.592-.8l-.352-.912c-.416.352-.816.661-1.2.928a7.916 7.916 0 0 1-1.2.688 5.695 5.695 0 0 1-1.312.4 7.52 7.52 0 0 1-1.536.144 6.944 6.944 0 0 1-2.064-.288 4.482 4.482 0 0 1-1.584-.88 3.892 3.892 0 0 1-.992-1.424c-.235-.576-.352-1.237-.352-1.984 0-.587.15-1.19.448-1.808.299-.619.816-1.179 1.552-1.68.736-.512 1.728-.939 2.976-1.28 1.248-.341 2.821-.533 4.72-.576v-.704c0-.97-.203-1.67-.608-2.096-.395-.437-.96-.656-1.696-.656-.587 0-1.067.064-1.44.192s-.71.272-1.008.432c-.288.16-.57.304-.848.432-.277.128-.608.192-.992.192-.341 0-.635-.08-.88-.24a1.955 1.955 0 0 1-.56-.624l-.896-1.552a9.993 9.993 0 0 1 3.328-1.968c1.227-.437 2.539-.656 3.936-.656 1.003 0 1.904.165 2.704.496.81.32 1.493.773 2.048 1.36a5.804 5.804 0 0 1 1.296 2.064c.299.8.448 1.675.448 2.624V31h-2.272zM7.68 27.976c.64 0 1.2-.112 1.68-.336.48-.224.965-.587 1.456-1.088v-2.304c-.992.043-1.808.128-2.448.256-.64.128-1.147.288-1.52.48s-.635.41-.784.656a1.598 1.598 0 0 0-.208.8c0 .565.155.965.464 1.2.31.224.763.336 1.36.336zm16.93-13.568V31h-4.96V14.408h4.96zm.576-4.544c0 .395-.08.768-.24 1.12a3.07 3.07 0 0 1-.656.912 3.397 3.397 0 0 1-.976.624c-.363.15-.752.224-1.168.224-.405 0-.784-.075-1.136-.224a3.542 3.542 0 0 1-.944-.624 3.203 3.203 0 0 1-.64-.912 2.838 2.838 0 0 1-.224-1.12c0-.405.075-.784.224-1.136.16-.352.373-.661.64-.928a3.08 3.08 0 0 1 .944-.624c.352-.15.73-.224 1.136-.224.416 0 .805.075 1.168.224a2.999 2.999 0 0 1 1.632 1.552c.16.352.24.73.24 1.136zM28.935 31V14.408h3.072c.31 0 .565.07.768.208a1.1 1.1 0 0 1 .448.624l.272.896c.277-.288.565-.55.864-.784a5.16 5.16 0 0 1 .96-.624c.352-.181.725-.32 1.12-.416.405-.107.848-.16 1.328-.16 1.003 0 1.83.261 2.48.784.661.512 1.163 1.2 1.504 2.064a4.99 4.99 0 0 1 1.008-1.312 5.677 5.677 0 0 1 1.296-.88c.47-.224.96-.39 1.472-.496a7.744 7.744 0 0 1 1.552-.16c.95 0 1.792.144 2.528.432a4.63 4.63 0 0 1 1.84 1.232c.501.533.88 1.195 1.136 1.984.256.779.384 1.664.384 2.656V31h-4.96V20.456c0-1.717-.736-2.576-2.208-2.576-.672 0-1.232.224-1.68.672-.437.437-.656 1.072-.656 1.904V31h-4.96V20.456c0-.95-.187-1.616-.56-2-.373-.384-.923-.576-1.648-.576a2.82 2.82 0 0 0-1.28.304 4.69 4.69 0 0 0-1.12.816v12h-4.96zm33.002-16.592V31h-4.96V14.408h4.96zm.577-4.544c0 .395-.08.768-.24 1.12-.16.341-.38.645-.657.912a3.397 3.397 0 0 1-.975.624c-.363.15-.753.224-1.169.224-.405 0-.783-.075-1.136-.224a3.542 3.542 0 0 1-.944-.624 3.203 3.203 0 0 1-.64-.912 2.838 2.838 0 0 1-.224-1.12c0-.405.075-.784.224-1.136.16-.352.374-.661.64-.928.278-.267.593-.475.944-.624.352-.15.731-.224 1.136-.224.416 0 .806.075 1.169.224a2.999 2.999 0 0 1 1.631 1.552c.16.352.24.73.24 1.136zM66.261 31V14.408h3.073c.309 0 .565.07.768.208.213.139.362.347.448.624l.287.96c.32-.299.651-.576.993-.832.34-.256.703-.47 1.087-.64a6.06 6.06 0 0 1 1.264-.416 6.56 6.56 0 0 1 1.489-.16c.906 0 1.706.16 2.4.48.704.31 1.296.747 1.776 1.312.48.555.842 1.221 1.088 2 .245.768.367 1.605.367 2.512V31h-4.96V20.456c0-.81-.186-1.44-.56-1.888-.373-.459-.922-.688-1.647-.688a3.45 3.45 0 0 0-1.537.352c-.48.235-.938.55-1.376.944V31h-4.96zM91 14.12a9.1 9.1 0 0 1 1.984.208 7.99 7.99 0 0 1 1.744.592h5.008v1.808c0 .277-.08.496-.24.656-.15.16-.41.283-.784.368l-1.216.272c.15.48.224.976.224 1.488 0 .832-.176 1.579-.528 2.24a5.05 5.05 0 0 1-1.424 1.696c-.597.459-1.307.816-2.128 1.072a9.182 9.182 0 0 1-2.64.368c-.523 0-1.013-.032-1.472-.096-.363.213-.544.459-.544.736 0 .277.144.48.432.608.299.117.688.203 1.168.256.48.043 1.03.075 1.648.096.619.01 1.248.048 1.888.112.64.053 1.27.15 1.888.288a5.055 5.055 0 0 1 1.648.672c.48.31.864.725 1.152 1.248.299.512.448 1.168.448 1.968 0 .747-.181 1.477-.544 2.192-.363.715-.896 1.35-1.6 1.904-.704.555-1.568.997-2.592 1.328-1.024.341-2.197.512-3.52.512-1.301 0-2.427-.123-3.376-.368-.939-.245-1.723-.57-2.352-.976-.619-.395-1.077-.853-1.376-1.376a3.245 3.245 0 0 1-.448-1.632c0-.736.224-1.355.672-1.856.448-.512 1.061-.912 1.84-1.2a2.81 2.81 0 0 1-.896-.944c-.224-.384-.336-.87-.336-1.456 0-.245.043-.501.128-.768.085-.277.219-.544.4-.8.181-.256.41-.501.688-.736a4.5 4.5 0 0 1 .992-.624c-.864-.459-1.547-1.067-2.048-1.824-.49-.757-.736-1.637-.736-2.64 0-.832.176-1.579.528-2.24a5.014 5.014 0 0 1 1.44-1.696c.619-.47 1.344-.827 2.176-1.072A9.153 9.153 0 0 1 91 14.12zm3.68 17.488c0-.267-.085-.48-.256-.64-.16-.16-.384-.288-.672-.384a4.616 4.616 0 0 0-.992-.208 18.785 18.785 0 0 0-1.216-.096 55.31 55.31 0 0 0-1.36-.048c-.47-.021-.933-.059-1.392-.112a3.32 3.32 0 0 0-.768.72 1.43 1.43 0 0 0-.288.88c0 .235.048.448.144.64.107.192.288.357.544.496.256.139.597.245 1.024.32.437.085.987.128 1.648.128.715 0 1.301-.043 1.76-.128.459-.085.821-.203 1.088-.352.277-.15.47-.33.576-.544a1.42 1.42 0 0 0 .16-.672zM91 21.832c.821 0 1.413-.203 1.776-.608.373-.416.56-.95.56-1.6 0-.672-.187-1.2-.56-1.584-.363-.384-.955-.576-1.776-.576-.821 0-1.419.192-1.792.576-.363.384-.544.912-.544 1.584 0 .32.043.613.128.88.096.267.24.501.432.704.192.192.432.347.72.464.299.107.65.16 1.056.16zM109.458 31V17.816l-1.088-.224c-.373-.085-.677-.219-.912-.4-.224-.181-.336-.448-.336-.8V14.44h2.336v-.944c0-.95.15-1.808.448-2.576a5.605 5.605 0 0 1 1.312-1.968c.576-.544 1.275-.965 2.096-1.264.822-.299 1.755-.448 2.8-.448.406 0 .779.027 1.12.08.352.043.715.117 1.088.224l-.096 2.416a.792.792 0 0 1-.144.432.988.988 0 0 1-.288.272c-.117.064-.25.112-.4.144a1.838 1.838 0 0 1-.416.048 4.84 4.84 0 0 0-1.168.128c-.341.085-.629.24-.864.464-.224.213-.394.501-.512.864-.117.352-.176.8-.176 1.344v.784h3.904v3.392h-3.744V31h-4.96zm18.57-16.848c1.259 0 2.406.197 3.44.592 1.035.395 1.92.96 2.656 1.696.747.736 1.323 1.632 1.728 2.688.416 1.045.624 2.224.624 3.536 0 1.323-.208 2.517-.624 3.584-.405 1.056-.981 1.957-1.728 2.704a7.646 7.646 0 0 1-2.656 1.712c-1.034.395-2.181.592-3.44.592-1.269 0-2.426-.197-3.472-.592a8.004 8.004 0 0 1-2.688-1.712c-.746-.747-1.328-1.648-1.744-2.704-.405-1.067-.608-2.261-.608-3.584 0-1.312.203-2.49.608-3.536.416-1.056.998-1.952 1.744-2.688a7.805 7.805 0 0 1 2.688-1.696c1.046-.395 2.203-.592 3.472-.592zm0 13.424c1.142 0 1.979-.4 2.512-1.2.544-.81.816-2.037.816-3.68 0-1.643-.272-2.864-.816-3.664-.533-.8-1.37-1.2-2.512-1.2-1.173 0-2.032.4-2.576 1.2-.544.8-.816 2.021-.816 3.664 0 1.643.272 2.87.816 3.68.544.8 1.403 1.2 2.576 1.2zM139.519 31V14.408h2.944c.245 0 .448.021.608.064.17.043.309.112.416.208a.729.729 0 0 1 .256.352c.064.15.117.33.16.544l.272 1.552c.608-.939 1.29-1.68 2.048-2.224.757-.544 1.584-.816 2.48-.816.757 0 1.365.181 1.824.544l-.64 3.648c-.043.224-.128.384-.256.48-.128.085-.299.128-.512.128a3.76 3.76 0 0 1-.64-.064 4.487 4.487 0 0 0-.928-.08c-1.302 0-2.326.693-3.072 2.08V31h-4.96zm31.502 0c-.469 0-.827-.064-1.072-.192-.235-.128-.432-.395-.592-.8l-.352-.912c-.416.352-.816.661-1.2.928a7.916 7.916 0 0 1-1.2.688 5.695 5.695 0 0 1-1.312.4 7.525 7.525 0 0 1-1.536.144 6.948 6.948 0 0 1-2.064-.288 4.476 4.476 0 0 1-1.584-.88 3.892 3.892 0 0 1-.992-1.424c-.235-.576-.352-1.237-.352-1.984 0-.587.149-1.19.448-1.808.299-.619.816-1.179 1.552-1.68.736-.512 1.728-.939 2.976-1.28 1.248-.341 2.821-.533 4.72-.576v-.704c0-.97-.203-1.67-.608-2.096-.395-.437-.96-.656-1.696-.656-.587 0-1.067.064-1.44.192a6.847 6.847 0 0 0-1.008.432c-.288.16-.571.304-.848.432s-.608.192-.992.192c-.341 0-.635-.08-.88-.24a1.955 1.955 0 0 1-.56-.624l-.896-1.552a9.996 9.996 0 0 1 3.328-1.968c1.227-.437 2.539-.656 3.936-.656 1.003 0 1.904.165 2.704.496a5.6 5.6 0 0 1 2.048 1.36 5.812 5.812 0 0 1 1.296 2.064c.299.8.448 1.675.448 2.624V31h-2.272zm-5.696-3.024c.64 0 1.2-.112 1.68-.336.48-.224.965-.587 1.456-1.088v-2.304c-.992.043-1.808.128-2.448.256-.64.128-1.147.288-1.52.48s-.635.41-.784.656a1.595 1.595 0 0 0-.208.8c0 .565.155.965.464 1.2.309.224.763.336 1.36.336zM184.379 31V17.816l-1.088-.224c-.374-.085-.678-.219-.912-.4-.224-.181-.336-.448-.336-.8V14.44h2.336v-.944c0-.95.149-1.808.448-2.576a5.578 5.578 0 0 1 1.312-1.968c.576-.544 1.274-.965 2.096-1.264.821-.299 1.754-.448 2.8-.448.405 0 .778.027 1.12.08.352.043.714.117 1.088.224l-.096 2.416a.808.808 0 0 1-.144.432 1.013 1.013 0 0 1-.288.272 1.49 1.49 0 0 1-.4.144 1.851 1.851 0 0 1-.416.048 4.83 4.83 0 0 0-1.168.128c-.342.085-.63.24-.864.464-.224.213-.395.501-.512.864-.118.352-.176.8-.176 1.344v.784h3.904v3.392h-3.744V31h-4.96zm15.817-16.592v10.528c0 .821.187 1.456.56 1.904.374.448.923.672 1.648.672.544 0 1.051-.112 1.52-.336.48-.224.944-.539 1.392-.944V14.408h4.96V31h-3.072c-.618 0-1.024-.277-1.216-.832l-.304-.96c-.32.31-.65.592-.992.848a6.598 6.598 0 0 1-1.104.64c-.384.17-.8.304-1.248.4-.448.107-.938.16-1.472.16-.906 0-1.712-.155-2.416-.464a5.06 5.06 0 0 1-1.76-1.328 5.768 5.768 0 0 1-1.088-2c-.245-.768-.368-1.61-.368-2.528V14.408h4.96zm19.363-7.36V31h-4.96V7.048h4.96zm9.445 0V31h-4.96V7.048h4.96zm4.005 12.224h8.64v4h-8.64v-4zm18.307 11.984c-.789 0-1.488-.112-2.096-.336a4.39 4.39 0 0 1-1.52-.976 4.31 4.31 0 0 1-.928-1.536c-.213-.597-.32-1.264-.32-2v-8.576h-1.408a.959.959 0 0 1-.656-.24c-.181-.17-.272-.416-.272-.736V14.92l2.64-.512.976-4.048c.128-.512.491-.768 1.088-.768h2.592v4.848h4.032v3.392h-4.032v8.24c0 .384.091.704.272.96.192.245.464.368.816.368.182 0 .331-.016.448-.048.128-.043.235-.085.32-.128.096-.053.182-.096.256-.128a.639.639 0 0 1 .288-.064c.15 0 .267.037.352.112.096.064.192.17.288.32l1.504 2.352a6.97 6.97 0 0 1-2.16 1.088 8.76 8.76 0 0 1-2.48.352zm12.429-16.848V31h-4.96V14.408h4.96zm.576-4.544c0 .395-.08.768-.24 1.12a3.07 3.07 0 0 1-.656.912 3.397 3.397 0 0 1-.976.624 3.04 3.04 0 0 1-1.168.224 2.88 2.88 0 0 1-1.136-.224 3.537 3.537 0 0 1-.944-.624 3.197 3.197 0 0 1-.64-.912 2.844 2.844 0 0 1-.224-1.12c0-.405.075-.784.224-1.136.16-.352.373-.661.64-.928a3.08 3.08 0 0 1 .944-.624 2.88 2.88 0 0 1 1.136-.224c.416 0 .805.075 1.168.224a2.999 2.999 0 0 1 1.632 1.552c.16.352.24.73.24 1.136zM268.07 31V14.408h3.072c.309 0 .565.07.768.208a1.1 1.1 0 0 1 .448.624l.272.896c.277-.288.565-.55.864-.784a5.13 5.13 0 0 1 .96-.624 5.03 5.03 0 0 1 1.12-.416c.405-.107.848-.16 1.328-.16 1.003 0 1.829.261 2.48.784.661.512 1.163 1.2 1.504 2.064.277-.512.613-.95 1.008-1.312a5.664 5.664 0 0 1 1.296-.88 6.43 6.43 0 0 1 1.472-.496 7.746 7.746 0 0 1 1.552-.16c.949 0 1.792.144 2.528.432a4.632 4.632 0 0 1 1.84 1.232c.501.533.88 1.195 1.136 1.984.256.779.384 1.664.384 2.656V31h-4.96V20.456c0-1.717-.736-2.576-2.208-2.576-.672 0-1.232.224-1.68.672-.437.437-.656 1.072-.656 1.904V31h-4.96V20.456c0-.95-.187-1.616-.56-2-.373-.384-.923-.576-1.648-.576a2.82 2.82 0 0 0-1.28.304 4.683 4.683 0 0 0-1.12.816v12h-4.96zm34.987-16.848c1.098 0 2.101.17 3.008.512a6.47 6.47 0 0 1 2.352 1.488c.661.65 1.173 1.45 1.536 2.4.373.939.56 2.005.56 3.2 0 .373-.016.677-.048.912a1.45 1.45 0 0 1-.176.56.67.67 0 0 1-.352.288 1.55 1.55 0 0 1-.544.08h-9.568c.16 1.387.581 2.395 1.264 3.024.682.619 1.562.928 2.64.928.576 0 1.072-.07 1.488-.208a7.164 7.164 0 0 0 1.104-.464l.896-.464c.277-.139.565-.208.864-.208.394 0 .693.144.896.432l1.44 1.776a7.475 7.475 0 0 1-1.664 1.44 8.903 8.903 0 0 1-1.824.864 9.666 9.666 0 0 1-1.872.416 13.07 13.07 0 0 1-1.776.128 9.5 9.5 0 0 1-3.28-.56A7.704 7.704 0 0 1 297.329 29c-.758-.747-1.36-1.675-1.808-2.784-.438-1.11-.656-2.4-.656-3.872 0-1.11.186-2.16.56-3.152a7.935 7.935 0 0 1 1.632-2.608 7.87 7.87 0 0 1 2.576-1.776c1.013-.437 2.154-.656 3.424-.656zm.096 3.424c-.95 0-1.691.272-2.224.816-.534.533-.886 1.307-1.056 2.32h6.192c0-.395-.054-.779-.16-1.152a2.568 2.568 0 0 0-.496-.992 2.415 2.415 0 0 0-.896-.72c-.374-.181-.827-.272-1.36-.272zm16.393 10.912c0-.384.07-.741.208-1.072.15-.33.347-.619.592-.864.256-.245.555-.437.896-.576.342-.15.715-.224 1.12-.224.395 0 .763.075 1.104.224.342.139.64.33.896.576.256.245.454.533.592.864.15.33.224.688.224 1.072 0 .384-.074.747-.224 1.088-.138.33-.336.619-.592.864a2.803 2.803 0 0 1-.896.576 2.902 2.902 0 0 1-1.104.208c-.405 0-.778-.07-1.12-.208a2.814 2.814 0 0 1-.896-.576 2.91 2.91 0 0 1-.592-.864 2.876 2.876 0 0 1-.208-1.088zm10.763 0c0-.384.069-.741.208-1.072.149-.33.346-.619.592-.864.256-.245.554-.437.896-.576a2.76 2.76 0 0 1 1.12-.224c.394 0 .762.075 1.104.224.341.139.64.33.896.576.256.245.453.533.592.864.149.33.224.688.224 1.072 0 .384-.075.747-.224 1.088-.139.33-.336.619-.592.864a2.814 2.814 0 0 1-.896.576 2.91 2.91 0 0 1-1.104.208c-.406 0-.779-.07-1.12-.208a2.803 2.803 0 0 1-.896-.576 2.874 2.874 0 0 1-.592-.864 2.856 2.856 0 0 1-.208-1.088zm10.762 0c0-.384.07-.741.208-1.072.15-.33.347-.619.592-.864.256-.245.555-.437.896-.576.342-.15.715-.224 1.12-.224.395 0 .763.075 1.104.224.342.139.64.33.896.576.256.245.454.533.592.864.15.33.224.688.224 1.072 0 .384-.074.747-.224 1.088-.138.33-.336.619-.592.864a2.803 2.803 0 0 1-.896.576 2.902 2.902 0 0 1-1.104.208c-.405 0-.778-.07-1.12-.208a2.814 2.814 0 0 1-.896-.576 2.91 2.91 0 0 1-.592-.864 2.876 2.876 0 0 1-.208-1.088z" fill="#121111"/></svg>