<svg width="412" height="25" fill="none" xmlns="http://www.w3.org/2000/svg"><path d="M5.37 20H.95V1.059h4.42V20zm9.066 0V.539h4.03v7.41a6.068 6.068 0 0 1 1.703-1.183c.64-.303 1.39-.455 2.248-.455.702 0 1.352.152 1.95.455.598.303 1.114.75 1.547 1.339.434.58.772 1.296 1.014 2.145.252.85.377 1.816.377 2.899 0 1.014-.142 1.95-.428 2.808-.278.858-.672 1.603-1.183 2.236a5.366 5.366 0 0 1-1.82 1.482c-.702.355-1.482.533-2.34.533-.4 0-.759-.039-1.08-.117a4.011 4.011 0 0 1-.87-.325 4.282 4.282 0 0 1-.729-.52 9.055 9.055 0 0 1-.637-.65l-.142.676c-.061.277-.174.468-.338.572-.157.104-.364.156-.625.156h-2.678zm6.578-10.66c-.295 0-.564.03-.806.091-.234.052-.455.13-.663.234-.2.104-.386.238-.56.403a5.273 5.273 0 0 0-.52.546v5.72c.304.338.633.576.988.715.356.13.729.195 1.119.195.372 0 .715-.074 1.027-.221a2.06 2.06 0 0 0 .805-.702c.235-.33.416-.754.547-1.274.13-.52.194-1.153.194-1.898 0-.71-.052-1.309-.155-1.794-.104-.485-.252-.875-.442-1.17-.182-.303-.403-.52-.663-.65a1.92 1.92 0 0 0-.872-.195zm12.534-2.821v8.554c0 .667.151 1.183.454 1.547.304.364.75.546 1.34.546a2.83 2.83 0 0 0 1.235-.273 4.58 4.58 0 0 0 1.13-.767V6.519h4.03V20h-2.495c-.503 0-.832-.225-.988-.676l-.247-.78c-.26.251-.53.481-.806.689a5.38 5.38 0 0 1-.898.52 5.1 5.1 0 0 1-1.014.325 5.16 5.16 0 0 1-1.196.13c-.736 0-1.39-.126-1.963-.377a4.11 4.11 0 0 1-1.43-1.079 4.677 4.677 0 0 1-.883-1.625 6.722 6.722 0 0 1-.3-2.054V6.519h4.03zm15.731 0V20h-4.03V6.519h4.03zm.468-3.692c0 .32-.065.624-.194.91-.13.277-.308.524-.533.741-.226.208-.49.377-.794.507a2.468 2.468 0 0 1-.948.182c-.33 0-.637-.06-.923-.182a2.88 2.88 0 0 1-.767-.507 2.603 2.603 0 0 1-.52-.741 2.306 2.306 0 0 1-.182-.91c0-.33.06-.637.181-.923.13-.286.304-.537.52-.754.226-.217.481-.386.767-.507a2.35 2.35 0 0 1 .924-.182c.337 0 .654.06.949.182a2.435 2.435 0 0 1 1.326 1.261c.13.286.195.594.195.923zM56.955.539V20h-4.03V.539h4.03zM69.932 20a1.14 1.14 0 0 1-.637-.169.914.914 0 0 1-.351-.507l-.312-1.027c-.269.286-.55.546-.845.78a5.49 5.49 0 0 1-.962.611 4.88 4.88 0 0 1-1.105.377c-.39.095-.815.143-1.274.143a4.152 4.152 0 0 1-1.95-.468 4.494 4.494 0 0 1-1.547-1.352c-.434-.59-.776-1.309-1.027-2.158-.243-.858-.364-1.833-.364-2.925 0-1.005.138-1.937.416-2.795.277-.867.667-1.612 1.17-2.236a5.494 5.494 0 0 1 1.833-1.482 5.19 5.19 0 0 1 2.353-.533c.693 0 1.278.104 1.755.312.485.2.923.464 1.313.793V.539h4.03V20h-2.496zm-4.082-2.886c.294 0 .559-.026.793-.078a2.73 2.73 0 0 0 1.222-.637c.182-.156.36-.338.533-.546v-5.72c-.312-.338-.646-.572-1.001-.702a2.947 2.947 0 0 0-1.105-.208c-.373 0-.715.074-1.027.221a2.123 2.123 0 0 0-.82.715c-.225.32-.402.741-.532 1.261-.13.52-.195 1.148-.195 1.885 0 .71.052 1.309.156 1.794.104.485.247.88.429 1.183.19.295.416.507.676.637.26.13.55.195.87.195zM84.867 6.519v8.554c0 .667.152 1.183.455 1.547.303.364.75.546 1.339.546a2.83 2.83 0 0 0 1.235-.273 4.58 4.58 0 0 0 1.131-.767V6.519h4.03V20h-2.496c-.503 0-.832-.225-.988-.676l-.247-.78c-.26.251-.529.481-.806.689a5.38 5.38 0 0 1-.897.52c-.312.139-.65.247-1.014.325a5.16 5.16 0 0 1-1.196.13c-.737 0-1.391-.126-1.963-.377a4.11 4.11 0 0 1-1.43-1.079 4.678 4.678 0 0 1-.884-1.625 6.722 6.722 0 0 1-.299-2.054V6.519h4.03zm11.572 17.758V6.519h2.496c.251 0 .46.056.624.169a.892.892 0 0 1 .364.507l.299.988c.26-.286.537-.546.832-.78.303-.234.624-.433.962-.598a5.256 5.256 0 0 1 1.105-.403 5.586 5.586 0 0 1 1.3-.143c.702 0 1.352.156 1.95.468a4.49 4.49 0 0 1 1.547 1.352c.433.59.771 1.313 1.014 2.171.251.85.377 1.816.377 2.899 0 1.014-.143 1.95-.429 2.808a6.886 6.886 0 0 1-1.183 2.236 5.365 5.365 0 0 1-1.82 1.482c-.702.355-1.482.533-2.34.533-.702 0-1.291-.1-1.768-.299-.477-.2-.91-.468-1.3-.806v5.174h-4.03zm6.578-14.937c-.295 0-.563.03-.806.091-.234.052-.455.13-.663.234a2.469 2.469 0 0 0-.559.403 5.284 5.284 0 0 0-.52.546v5.72c.303.338.633.576.988.715.355.13.728.195 1.118.195.373 0 .715-.074 1.027-.221a2.06 2.06 0 0 0 .806-.702c.234-.33.416-.754.546-1.274.13-.52.195-1.153.195-1.898 0-.71-.052-1.309-.156-1.794-.104-.485-.251-.875-.442-1.17-.182-.303-.403-.52-.663-.65a1.92 1.92 0 0 0-.871-.195zM126.326 20c-.382 0-.672-.052-.871-.156-.191-.104-.351-.32-.481-.65l-.286-.741a13 13 0 0 1-.975.754 6.431 6.431 0 0 1-.975.559c-.33.147-.685.256-1.066.325a6.115 6.115 0 0 1-1.248.117 5.636 5.636 0 0 1-1.677-.234 3.636 3.636 0 0 1-1.287-.715 3.15 3.15 0 0 1-.806-1.157c-.191-.468-.286-1.005-.286-1.612 0-.477.121-.966.364-1.469.242-.503.663-.958 1.261-1.365.598-.416 1.404-.763 2.418-1.04 1.014-.277 2.292-.433 3.835-.468v-.572c0-.789-.165-1.356-.494-1.703-.321-.355-.78-.533-1.378-.533-.477 0-.867.052-1.17.156a5.478 5.478 0 0 0-.819.351c-.234.13-.464.247-.689.351a1.912 1.912 0 0 1-.806.156c-.278 0-.516-.065-.715-.195a1.576 1.576 0 0 1-.455-.507l-.728-1.261a8.112 8.112 0 0 1 2.704-1.599 9.448 9.448 0 0 1 3.198-.533c.814 0 1.547.134 2.197.403.658.26 1.213.628 1.664 1.105.459.468.81 1.027 1.053 1.677.242.65.364 1.36.364 2.132V20h-1.846zm-4.628-2.457c.52 0 .975-.091 1.365-.273.39-.182.784-.477 1.183-.884v-1.872c-.806.035-1.469.104-1.989.208s-.932.234-1.235.39c-.304.156-.516.334-.637.533-.113.2-.169.416-.169.65 0 .46.125.784.377.975.251.182.619.273 1.105.273zM131.293 20V6.519h2.496c.252 0 .46.056.624.169a.887.887 0 0 1 .364.507l.234.78a9.78 9.78 0 0 1 .806-.676 4.928 4.928 0 0 1 1.911-.858c.373-.087.776-.13 1.209-.13.737 0 1.387.13 1.95.39a3.946 3.946 0 0 1 1.443 1.066c.39.45.685.992.884 1.625.2.624.299 1.304.299 2.041V20h-4.03v-8.567c0-.659-.151-1.17-.455-1.534-.303-.373-.749-.559-1.339-.559a2.8 2.8 0 0 0-1.248.286c-.39.19-.762.446-1.118.767V20h-4.03zm24.806 0c-.251 0-.463-.056-.637-.169a.921.921 0 0 1-.351-.507l-.312-1.027c-.268.286-.55.546-.845.78a5.45 5.45 0 0 1-.962.611c-.338.165-.706.29-1.105.377-.39.095-.814.143-1.274.143a4.152 4.152 0 0 1-1.95-.468 4.5 4.5 0 0 1-1.547-1.352c-.433-.59-.775-1.309-1.027-2.158-.242-.858-.364-1.833-.364-2.925a9.05 9.05 0 0 1 .416-2.795c.278-.867.668-1.612 1.17-2.236a5.508 5.508 0 0 1 1.833-1.482 5.188 5.188 0 0 1 2.353-.533c.694 0 1.279.104 1.755.312.486.2.923.464 1.313.793V.539h4.03V20h-2.496zm-4.082-2.886c.295 0 .559-.026.793-.078.243-.06.464-.143.663-.247.2-.104.386-.234.559-.39.182-.156.36-.338.533-.546v-5.72c-.312-.338-.645-.572-1.001-.702a2.945 2.945 0 0 0-1.105-.208c-.372 0-.715.074-1.027.221a2.123 2.123 0 0 0-.819.715c-.225.32-.403.741-.533 1.261-.13.52-.195 1.148-.195 1.885 0 .71.052 1.309.156 1.794.104.485.247.88.429 1.183.191.295.416.507.676.637.26.13.551.195.871.195zM167.265 20V6.519h2.496c.251 0 .459.056.624.169a.896.896 0 0 1 .364.507l.221.728c.225-.234.459-.446.702-.637.242-.2.502-.368.78-.507a4.1 4.1 0 0 1 .91-.338 4.23 4.23 0 0 1 1.079-.13c.814 0 1.486.212 2.015.637.537.416.944.975 1.222 1.677.225-.416.498-.771.819-1.066a4.6 4.6 0 0 1 1.053-.715 5.25 5.25 0 0 1 1.196-.403c.424-.087.845-.13 1.261-.13.771 0 1.456.117 2.054.351a3.764 3.764 0 0 1 1.495 1.001c.407.433.715.97.923 1.612.208.633.312 1.352.312 2.158V20h-4.03v-8.567c0-1.395-.598-2.093-1.794-2.093-.546 0-1.001.182-1.365.546-.356.355-.533.871-.533 1.547V20h-4.03v-8.567c0-.771-.152-1.313-.455-1.625-.304-.312-.75-.468-1.339-.468a2.29 2.29 0 0 0-1.04.247 3.803 3.803 0 0 0-.91.663V20h-4.03zm31.962 0c-.381 0-.671-.052-.871-.156-.19-.104-.351-.32-.481-.65l-.286-.741a13 13 0 0 1-.975.754 6.431 6.431 0 0 1-.975.559 4.612 4.612 0 0 1-1.066.325 6.101 6.101 0 0 1-1.248.117 5.646 5.646 0 0 1-1.677-.234 3.653 3.653 0 0 1-1.287-.715 3.174 3.174 0 0 1-.806-1.157c-.19-.468-.286-1.005-.286-1.612 0-.477.122-.966.364-1.469.243-.503.663-.958 1.261-1.365.598-.416 1.404-.763 2.418-1.04 1.014-.277 2.293-.433 3.835-.468v-.572c0-.789-.164-1.356-.494-1.703-.32-.355-.78-.533-1.378-.533-.476 0-.866.052-1.17.156a5.569 5.569 0 0 0-.819.351c-.234.13-.463.247-.689.351a1.91 1.91 0 0 1-.806.156c-.277 0-.515-.065-.715-.195a1.6 1.6 0 0 1-.455-.507l-.728-1.261a8.122 8.122 0 0 1 2.704-1.599 9.456 9.456 0 0 1 3.198-.533c.815 0 1.547.134 2.197.403.659.26 1.214.628 1.664 1.105.46.468.811 1.027 1.053 1.677.243.65.364 1.36.364 2.132V20h-1.846zm-4.628-2.457c.52 0 .975-.091 1.365-.273.39-.182.785-.477 1.183-.884v-1.872c-.806.035-1.469.104-1.989.208s-.931.234-1.235.39c-.303.156-.515.334-.637.533-.112.2-.169.416-.169.65 0 .46.126.784.377.975.252.182.62.273 1.105.273zM208.225.539v10.907h.598c.251 0 .442-.035.572-.104.139-.07.269-.195.39-.377l2.548-3.796c.147-.225.321-.39.52-.494.208-.104.468-.156.78-.156h3.692l-3.484 4.797a3.643 3.643 0 0 1-.546.598c-.191.173-.399.33-.624.468.39.295.728.685 1.014 1.17L217.481 20h-3.64a2.03 2.03 0 0 1-.793-.143c-.217-.104-.394-.282-.533-.533l-2.548-4.771c-.121-.217-.247-.355-.377-.416-.13-.07-.325-.104-.585-.104h-.78V20h-4.03V.539h4.03zm16.195 5.772c.893 0 1.708.139 2.444.416.746.277 1.383.68 1.911 1.209a5.373 5.373 0 0 1 1.248 1.95c.304.763.455 1.63.455 2.6 0 .303-.013.55-.039.741-.026.19-.073.342-.143.455a.538.538 0 0 1-.286.234 1.25 1.25 0 0 1-.442.065h-7.774c.13 1.127.473 1.946 1.027 2.457.555.503 1.27.754 2.145.754.468 0 .871-.056 1.209-.169a5.82 5.82 0 0 0 .897-.377c.269-.139.512-.264.728-.377a1.55 1.55 0 0 1 .702-.169c.321 0 .564.117.728.351l1.17 1.443a6.052 6.052 0 0 1-1.352 1.17c-.476.295-.97.529-1.482.702a7.823 7.823 0 0 1-1.521.338c-.502.07-.983.104-1.443.104a7.723 7.723 0 0 1-2.665-.455 6.267 6.267 0 0 1-2.171-1.378c-.615-.607-1.105-1.36-1.469-2.262-.355-.901-.533-1.95-.533-3.146 0-.901.152-1.755.455-2.561a6.447 6.447 0 0 1 1.326-2.119 6.414 6.414 0 0 1 2.093-1.443c.824-.355 1.751-.533 2.782-.533zm.078 2.782c-.771 0-1.373.221-1.807.663-.433.433-.719 1.062-.858 1.885h5.031c0-.32-.043-.633-.13-.936a2.074 2.074 0 0 0-.403-.806 1.956 1.956 0 0 0-.728-.585c-.303-.147-.671-.221-1.105-.221zm18.572 11.115c-.641 0-1.209-.091-1.703-.273a3.567 3.567 0 0 1-1.235-.793 3.49 3.49 0 0 1-.754-1.248 4.814 4.814 0 0 1-.26-1.625V9.301h-1.144a.777.777 0 0 1-.533-.195c-.147-.139-.221-.338-.221-.598V6.935l2.145-.416.793-3.289c.104-.416.399-.624.884-.624h2.106v3.939h3.276v2.756h-3.276v6.695c0 .312.074.572.221.78.156.2.377.299.663.299.147 0 .269-.013.364-.039.104-.035.191-.07.26-.104a2.28 2.28 0 0 1 .208-.104.514.514 0 0 1 .234-.052.42.42 0 0 1 .286.091.878.878 0 0 1 .234.26l1.222 1.911c-.52.39-1.105.685-1.755.884-.65.19-1.322.286-2.015.286zm5.938-.208V.539h4.03v7.163a6.461 6.461 0 0 1 1.573-1.001c.572-.26 1.253-.39 2.041-.39.737 0 1.387.13 1.95.39a3.946 3.946 0 0 1 1.443 1.066c.39.45.685.992.884 1.625.2.624.299 1.304.299 2.041V20h-4.03v-8.567c0-.659-.151-1.17-.455-1.534-.303-.373-.749-.559-1.339-.559a2.8 2.8 0 0 0-1.248.286c-.39.19-.762.446-1.118.767V20h-4.03zM268.51 6.519V20h-4.03V6.519h4.03zm.468-3.692c0 .32-.065.624-.195.91a2.48 2.48 0 0 1-.533.741 2.747 2.747 0 0 1-.793.507 2.465 2.465 0 0 1-.949.182 2.34 2.34 0 0 1-.923-.182 2.89 2.89 0 0 1-.767-.507 2.615 2.615 0 0 1-.52-.741 2.312 2.312 0 0 1-.182-.91c0-.33.061-.637.182-.923a2.56 2.56 0 0 1 .52-.754c.226-.217.481-.386.767-.507a2.34 2.34 0 0 1 .923-.182c.338 0 .655.06.949.182a2.426 2.426 0 0 1 1.326 1.261c.13.286.195.594.195.923zM272.024 20V6.519h2.496c.252 0 .46.056.624.169a.887.887 0 0 1 .364.507l.234.78a9.78 9.78 0 0 1 .806-.676 4.928 4.928 0 0 1 1.911-.858c.373-.087.776-.13 1.209-.13.737 0 1.387.13 1.95.39a3.946 3.946 0 0 1 1.443 1.066c.39.45.685.992.884 1.625.2.624.299 1.304.299 2.041V20h-4.03v-8.567c0-.659-.151-1.17-.455-1.534-.303-.373-.749-.559-1.339-.559a2.8 2.8 0 0 0-1.248.286c-.39.19-.762.446-1.118.767V20h-4.03zm20.1-13.715c.572 0 1.11.056 1.612.169a6.49 6.49 0 0 1 1.417.481h4.069v1.469c0 .225-.065.403-.195.533-.121.13-.333.23-.637.299l-.988.221c.122.39.182.793.182 1.209 0 .676-.143 1.283-.429 1.82a4.1 4.1 0 0 1-1.157 1.378 5.482 5.482 0 0 1-1.729.871c-.667.2-1.382.299-2.145.299-.424 0-.823-.026-1.196-.078-.294.173-.442.373-.442.598 0 .225.117.39.351.494a3.8 3.8 0 0 0 .949.208c.39.035.837.06 1.339.078.503.009 1.014.039 1.534.091.52.043 1.032.121 1.534.234.503.113.949.295 1.339.546.39.251.702.59.936 1.014.243.416.364.949.364 1.599 0 .607-.147 1.2-.442 1.781-.294.58-.728 1.096-1.3 1.547-.572.45-1.274.81-2.106 1.079-.832.277-1.785.416-2.86.416-1.057 0-1.971-.1-2.743-.299-.762-.2-1.399-.464-1.911-.793-.502-.32-.875-.693-1.118-1.118a2.643 2.643 0 0 1-.364-1.326c0-.598.182-1.1.546-1.508.364-.416.863-.741 1.495-.975a2.285 2.285 0 0 1-.728-.767c-.182-.312-.273-.706-.273-1.183a2.311 2.311 0 0 1 .429-1.274 3.29 3.29 0 0 1 .559-.598c.226-.19.494-.36.806-.507a4.463 4.463 0 0 1-1.664-1.482c-.398-.615-.598-1.33-.598-2.145 0-.676.143-1.283.429-1.82a4.074 4.074 0 0 1 1.17-1.378 5.442 5.442 0 0 1 1.768-.871 7.44 7.44 0 0 1 2.197-.312zm2.99 14.209a.678.678 0 0 0-.208-.52 1.373 1.373 0 0 0-.546-.312 3.747 3.747 0 0 0-.806-.169c-.303-.035-.632-.06-.988-.078-.355-.017-.723-.03-1.105-.039a16.164 16.164 0 0 1-1.131-.091 2.71 2.71 0 0 0-.624.585 1.16 1.16 0 0 0-.234.715c0 .19.039.364.117.52.087.156.234.29.442.403.208.113.486.2.832.26.356.07.802.104 1.339.104.581 0 1.058-.035 1.43-.104.373-.07.668-.165.884-.286.226-.121.382-.269.468-.442a1.15 1.15 0 0 0 .13-.546zm-2.99-7.943c.668 0 1.149-.165 1.443-.494.304-.338.455-.771.455-1.3 0-.546-.151-.975-.455-1.287-.294-.312-.775-.468-1.443-.468-.667 0-1.152.156-1.456.468-.294.312-.442.741-.442 1.287 0 .26.035.498.104.715.078.217.195.407.351.572.156.156.351.282.585.377.243.087.529.13.858.13zm17.354-3.081a1.017 1.017 0 0 1-.338.351.835.835 0 0 1-.442.104c-.191 0-.382-.039-.572-.117a27.12 27.12 0 0 0-.624-.273 5.67 5.67 0 0 0-.741-.26 3.185 3.185 0 0 0-.949-.13c-.512 0-.906.1-1.183.299-.269.19-.403.46-.403.806 0 .251.086.46.26.624.182.165.42.312.715.442.294.121.628.238 1.001.351.372.113.754.238 1.144.377.39.139.771.303 1.144.494a4.06 4.06 0 0 1 1.001.689c.294.269.528.598.702.988.182.39.273.858.273 1.404 0 .667-.122 1.283-.364 1.846a3.898 3.898 0 0 1-1.092 1.456c-.477.407-1.071.724-1.781.949-.702.225-1.513.338-2.431.338a7.38 7.38 0 0 1-1.378-.13 9.768 9.768 0 0 1-1.339-.351 7.725 7.725 0 0 1-1.183-.52 5.396 5.396 0 0 1-.936-.663l.936-1.482a1.27 1.27 0 0 1 .403-.403c.156-.104.359-.156.611-.156.234 0 .442.052.624.156l.611.338c.216.121.468.234.754.338.294.104.663.156 1.105.156.312 0 .576-.03.793-.091.216-.07.39-.16.52-.273.13-.113.225-.238.286-.377.06-.139.091-.282.091-.429a.876.876 0 0 0-.273-.663 2.295 2.295 0 0 0-.715-.442 7.274 7.274 0 0 0-1.014-.351 24.962 24.962 0 0 1-1.144-.377c-.39-.139-.776-.303-1.157-.494a4.203 4.203 0 0 1-1.001-.741 3.518 3.518 0 0 1-.715-1.105c-.182-.433-.273-.958-.273-1.573 0-.572.108-1.114.325-1.625.225-.52.559-.975 1.001-1.365.442-.39.996-.698 1.664-.923.667-.234 1.447-.351 2.34-.351.485 0 .953.043 1.404.13a7.22 7.22 0 0 1 1.287.364c.398.156.762.342 1.092.559.329.208.619.438.871.689l-.91 1.417zM318.234 20V.539h4.03v7.163a6.461 6.461 0 0 1 1.573-1.001c.572-.26 1.253-.39 2.041-.39.737 0 1.387.13 1.95.39a3.946 3.946 0 0 1 1.443 1.066c.39.45.685.992.884 1.625.2.624.299 1.304.299 2.041V20h-4.03v-8.567c0-.659-.151-1.17-.455-1.534-.303-.373-.749-.559-1.339-.559a2.8 2.8 0 0 0-1.248.286c-.39.19-.762.446-1.118.767V20h-4.03zm24.65 0c-.381 0-.671-.052-.871-.156-.19-.104-.351-.32-.481-.65l-.286-.741a13 13 0 0 1-.975.754 6.431 6.431 0 0 1-.975.559 4.612 4.612 0 0 1-1.066.325 6.101 6.101 0 0 1-1.248.117 5.646 5.646 0 0 1-1.677-.234 3.653 3.653 0 0 1-1.287-.715 3.174 3.174 0 0 1-.806-1.157c-.19-.468-.286-1.005-.286-1.612 0-.477.122-.966.364-1.469.243-.503.663-.958 1.261-1.365.598-.416 1.404-.763 2.418-1.04 1.014-.277 2.293-.433 3.835-.468v-.572c0-.789-.164-1.356-.494-1.703-.32-.355-.78-.533-1.378-.533-.476 0-.866.052-1.17.156a5.569 5.569 0 0 0-.819.351c-.234.13-.463.247-.689.351a1.91 1.91 0 0 1-.806.156c-.277 0-.515-.065-.715-.195a1.6 1.6 0 0 1-.455-.507l-.728-1.261a8.122 8.122 0 0 1 2.704-1.599 9.456 9.456 0 0 1 3.198-.533c.815 0 1.547.134 2.197.403.659.26 1.214.628 1.664 1.105.46.468.811 1.027 1.053 1.677.243.65.364 1.36.364 2.132V20h-1.846zm-4.628-2.457c.52 0 .975-.091 1.365-.273.39-.182.785-.477 1.183-.884v-1.872c-.806.035-1.469.104-1.989.208s-.931.234-1.235.39c-.303.156-.515.334-.637.533-.112.2-.169.416-.169.65 0 .46.126.784.377.975.252.182.62.273 1.105.273zm9.596 6.734V6.519h2.496c.251 0 .459.056.624.169a.892.892 0 0 1 .364.507l.299.988c.26-.286.537-.546.832-.78.303-.234.624-.433.962-.598a5.256 5.256 0 0 1 1.105-.403 5.586 5.586 0 0 1 1.3-.143c.702 0 1.352.156 1.95.468a4.49 4.49 0 0 1 1.547 1.352c.433.59.771 1.313 1.014 2.171.251.85.377 1.816.377 2.899 0 1.014-.143 1.95-.429 2.808a6.886 6.886 0 0 1-1.183 2.236 5.365 5.365 0 0 1-1.82 1.482c-.702.355-1.482.533-2.34.533-.702 0-1.291-.1-1.768-.299-.477-.2-.91-.468-1.3-.806v5.174h-4.03zM354.43 9.34c-.295 0-.563.03-.806.091-.234.052-.455.13-.663.234a2.469 2.469 0 0 0-.559.403 5.284 5.284 0 0 0-.52.546v5.72c.303.338.633.576.988.715.355.13.728.195 1.118.195.373 0 .715-.074 1.027-.221a2.06 2.06 0 0 0 .806-.702c.234-.33.416-.754.546-1.274.13-.52.195-1.153.195-1.898 0-.71-.052-1.309-.156-1.794-.104-.485-.251-.875-.442-1.17-.182-.303-.403-.52-.663-.65a1.92 1.92 0 0 0-.871-.195zm8.713 14.937V6.519h2.496c.252 0 .46.056.624.169a.887.887 0 0 1 .364.507l.299.988c.26-.286.538-.546.832-.78a5.58 5.58 0 0 1 2.067-1.001 5.586 5.586 0 0 1 1.3-.143c.702 0 1.352.156 1.95.468a4.49 4.49 0 0 1 1.547 1.352c.434.59.772 1.313 1.014 2.171.252.85.377 1.816.377 2.899 0 1.014-.143 1.95-.429 2.808-.277.858-.671 1.603-1.183 2.236a5.356 5.356 0 0 1-1.82 1.482c-.702.355-1.482.533-2.34.533-.702 0-1.291-.1-1.768-.299a4.81 4.81 0 0 1-1.3-.806v5.174h-4.03zm6.578-14.937c-.294 0-.563.03-.806.091-.234.052-.455.13-.663.234a2.491 2.491 0 0 0-.559.403 5.392 5.392 0 0 0-.52.546v5.72c.304.338.633.576.988.715.356.13.728.195 1.118.195.373 0 .715-.074 1.027-.221a2.06 2.06 0 0 0 .806-.702c.234-.33.416-.754.546-1.274.13-.52.195-1.153.195-1.898 0-.71-.052-1.309-.156-1.794-.104-.485-.251-.875-.442-1.17-.182-.303-.403-.52-.663-.65a1.92 1.92 0 0 0-.871-.195zm14.485-3.029c.893 0 1.708.139 2.444.416.746.277 1.383.68 1.911 1.209a5.373 5.373 0 0 1 1.248 1.95c.304.763.455 1.63.455 2.6 0 .303-.013.55-.039.741-.026.19-.073.342-.143.455a.538.538 0 0 1-.286.234 1.25 1.25 0 0 1-.442.065h-7.774c.13 1.127.473 1.946 1.027 2.457.555.503 1.27.754 2.145.754.468 0 .871-.056 1.209-.169a5.82 5.82 0 0 0 .897-.377c.269-.139.512-.264.728-.377a1.55 1.55 0 0 1 .702-.169c.321 0 .564.117.728.351l1.17 1.443a6.052 6.052 0 0 1-1.352 1.17c-.476.295-.97.529-1.482.702a7.823 7.823 0 0 1-1.521.338c-.502.07-.983.104-1.443.104a7.723 7.723 0 0 1-2.665-.455 6.267 6.267 0 0 1-2.171-1.378c-.615-.607-1.105-1.36-1.469-2.262-.355-.901-.533-1.95-.533-3.146 0-.901.152-1.755.455-2.561a6.447 6.447 0 0 1 1.326-2.119 6.414 6.414 0 0 1 2.093-1.443c.824-.355 1.751-.533 2.782-.533zm.078 2.782c-.771 0-1.373.221-1.807.663-.433.433-.719 1.062-.858 1.885h5.031c0-.32-.043-.633-.13-.936a2.074 2.074 0 0 0-.403-.806 1.956 1.956 0 0 0-.728-.585c-.303-.147-.671-.221-1.105-.221zM392.837 20V6.519h2.496c.251 0 .459.056.624.169a.892.892 0 0 1 .364.507l.234.78a9.78 9.78 0 0 1 .806-.676 4.928 4.928 0 0 1 1.911-.858c.373-.087.776-.13 1.209-.13.737 0 1.387.13 1.95.39a3.946 3.946 0 0 1 1.443 1.066c.39.45.685.992.884 1.625.199.624.299 1.304.299 2.041V20h-4.03v-8.567c0-.659-.152-1.17-.455-1.534-.303-.373-.75-.559-1.339-.559a2.8 2.8 0 0 0-1.248.286c-.39.19-.763.446-1.118.767V20h-4.03zm14.562-2.041c0-.312.056-.602.169-.871a2.35 2.35 0 0 1 .481-.702c.208-.2.451-.355.728-.468.277-.121.581-.182.91-.182.321 0 .62.06.897.182.277.113.52.269.728.468.208.2.368.433.481.702.121.269.182.559.182.871 0 .312-.061.607-.182.884a2.075 2.075 0 0 1-.481.702 2.28 2.28 0 0 1-.728.468 2.357 2.357 0 0 1-.897.169 2.39 2.39 0 0 1-.91-.169 2.287 2.287 0 0 1-.728-.468 2.35 2.35 0 0 1-.481-.702 2.32 2.32 0 0 1-.169-.884z" fill="#121111"/></svg>