<svg fill="none" height="63" viewBox="0 0 348 63" width="348" xmlns="http://www.w3.org/2000/svg"><path d="m13.376 56c-.4693 0-.8267-.064-1.072-.192-.2347-.128-.432-.3947-.592-.8l-.352-.912c-.416.352-.816.6613-1.2.928s-.784.496-1.2.688c-.40533.1813-.84267.3147-1.312.4-.45867.096-.97067.144-1.536.144-.75733 0-1.44533-.096-2.064-.288-.61867-.2027-1.14667-.496-1.584-.88-.42667-.384-.75733-.8587-.992-1.424-.23467-.576-.352-1.2373-.352-1.984 0-.5867.14933-1.1893.448-1.808s.816-1.1787 1.552-1.68c.736-.512 1.728-.9387 2.976-1.28s2.82133-.5333 4.72-.576v-.704c0-.9707-.2027-1.6693-.608-2.096-.39467-.4373-.96-.656-1.696-.656-.58667 0-1.06667.064-1.44.192s-.70933.272-1.008.432c-.288.16-.57067.304-.848.432s-.608.192-.992.192c-.34133 0-.63467-.08-.88-.24-.23467-.1707-.42133-.3787-.56-.624l-.896-1.552c1.00267-.8853 2.112-1.5413 3.328-1.968 1.22667-.4373 2.53867-.656 3.936-.656 1.0027 0 1.904.1653 2.704.496.8107.32 1.4933.7733 2.048 1.36.5653.576.9973 1.264 1.296 2.064s.448 1.6747.448 2.624v10.368zm-5.696-3.024c.64 0 1.2-.112 1.68-.336s.9653-.5867 1.456-1.088v-2.304c-.992.0427-1.808.128-2.448.256s-1.14667.288-1.52.48-.63467.4107-.784.656c-.13867.2453-.208.512-.208.8 0 .5653.15467.9653.464 1.2.30933.224.76267.336 1.36.336zm16.93-13.568v16.592h-4.96v-16.592zm.576-4.544c0 .3947-.08.768-.24 1.12-.16.3413-.3787.6453-.656.912-.2773.256-.6027.464-.976.624-.3627.1493-.752.224-1.168.224-.4053 0-.784-.0747-1.136-.224-.352-.16-.6667-.368-.944-.624-.2667-.2667-.48-.5707-.64-.912-.1493-.352-.224-.7253-.224-1.12 0-.4053.0747-.784.224-1.136.16-.352.3733-.6613.64-.928.2773-.2667.592-.4747.944-.624s.7307-.224 1.136-.224c.416 0 .8053.0747 1.168.224.3733.1493.6987.3573.976.624s.496.576.656.928.24.7307.24 1.136zm3.749 21.136v-16.592h3.072c.3093 0 .5653.0693.768.208.2133.1387.3627.3467.448.624l.272.896c.2773-.288.5653-.5493.864-.784.2987-.2453.6187-.4533.96-.624.352-.1813.7253-.32 1.12-.416.4053-.1067.848-.16 1.328-.16 1.0027 0 1.8293.2613 2.48.784.6613.512 1.1627 1.2 1.504 2.064.2773-.512.6133-.9493 1.008-1.312.4053-.3627.8373-.656 1.296-.88.4693-.224.96-.3893 1.472-.496.5227-.1067 1.04-.16 1.552-.16.9493 0 1.792.144 2.528.432.736.2773 1.3493.688 1.84 1.232.5013.5333.88 1.1947 1.136 1.984.256.7787.384 1.664.384 2.656v10.544h-4.96v-10.544c0-1.7173-.736-2.576-2.208-2.576-.672 0-1.232.224-1.68.672-.4373.4373-.656 1.072-.656 1.904v10.544h-4.96v-10.544c0-.9493-.1867-1.616-.56-2s-.9227-.576-1.648-.576c-.448 0-.8747.1013-1.28.304-.3947.2027-.768.4747-1.12.816v12zm33.0025-16.592v16.592h-4.96v-16.592zm.576-4.544c0 .3947-.08.768-.24 1.12-.16.3413-.3787.6453-.656.912-.2773.256-.6027.464-.976.624-.3627.1493-.752.224-1.168.224-.4053 0-.784-.0747-1.136-.224-.352-.16-.6667-.368-.944-.624-.2667-.2667-.48-.5707-.64-.912-.1493-.352-.224-.7253-.224-1.12 0-.4053.0747-.784.224-1.136.16-.352.3733-.6613.64-.928.2773-.2667.592-.4747.944-.624s.7307-.224 1.136-.224c.416 0 .8053.0747 1.168.224.3733.1493.6987.3573.976.624s.496.576.656.928.24.7307.24 1.136zm3.749 21.136v-16.592h3.072c.3093 0 .5653.0693.768.208.2133.1387.3627.3467.448.624l.288.96c.32-.2987.6507-.576.992-.832s.704-.4693 1.088-.64c.3947-.1813.816-.32 1.264-.416.4587-.1067.9547-.16 1.488-.16.9067 0 1.7067.16 2.4.48.704.3093 1.296.7467 1.776 1.312.48.5547.8427 1.2213 1.088 2 .2453.768.368 1.6053.368 2.512v10.544h-4.96v-10.544c0-.8107-.1867-1.44-.56-1.888-.3733-.4587-.9227-.688-1.648-.688-.544 0-1.056.1173-1.536.352s-.9387.5493-1.376.944v11.824zm24.7385-16.88c.704 0 1.3653.0693 1.984.208.6293.1387 1.2107.336 1.744.592h5.008v1.808c0 .2773-.08.496-.24.656-.1493.16-.4107.2827-.784.368l-1.216.272c.1493.48.224.976.224 1.488 0 .832-.176 1.5787-.528 2.24-.3413.6613-.816 1.2267-1.424 1.696-.5973.4587-1.3067.816-2.128 1.072-.8213.2453-1.7013.368-2.64.368-.5227 0-1.0133-.032-1.472-.096-.3627.2133-.544.4587-.544.736s.144.48.432.608c.2987.1173.688.2027 1.168.256.48.0427 1.0293.0747 1.648.096.6187.0107 1.248.048 1.888.112.64.0533 1.2693.1493 1.888.288s1.168.3627 1.648.672.864.7253 1.152 1.248c.2987.512.448 1.168.448 1.968 0 .7467-.1813 1.4773-.544 2.192s-.896 1.3493-1.6 1.904-1.568.9973-2.592 1.328c-1.024.3413-2.1973.512-3.52.512-1.3013 0-2.4267-.1227-3.376-.368-.9387-.2453-1.7227-.5707-2.352-.976-.6187-.3947-1.0773-.8533-1.376-1.376s-.448-1.0667-.448-1.632c0-.736.224-1.3547.672-1.856.448-.512 1.0613-.912 1.84-1.2-.3733-.2453-.672-.56-.896-.944s-.336-.8693-.336-1.456c0-.2453.0427-.5013.128-.768.0853-.2773.2187-.544.4-.8s.4107-.5013.688-.736.608-.4427.992-.624c-.864-.4587-1.5467-1.0667-2.048-1.824-.4907-.7573-.736-1.6373-.736-2.64 0-.832.176-1.5787.528-2.24.352-.672.832-1.2373 1.44-1.696.6187-.4693 1.344-.8267 2.176-1.072.832-.256 1.7333-.384 2.704-.384zm3.68 17.488c0-.2667-.0853-.48-.256-.64-.16-.16-.384-.288-.672-.384-.2773-.096-.608-.1653-.992-.208-.3733-.0427-.7787-.0747-1.216-.096s-.8907-.0373-1.36-.048c-.4693-.0213-.9333-.0587-1.392-.112-.3093.2133-.5653.4533-.768.72-.192.256-.288.5493-.288.88 0 .2347.048.448.144.64.1067.192.288.3573.544.496s.5973.2453 1.024.32c.4373.0853.9867.128 1.648.128.7147 0 1.3013-.0427 1.76-.128s.8213-.2027 1.088-.352c.2773-.1493.4693-.3307.576-.544.1067-.2027.16-.4267.16-.672zm-3.68-9.776c.8213 0 1.4133-.2027 1.776-.608.3733-.416.56-.9493.56-1.6 0-.672-.1867-1.2-.56-1.584-.3627-.384-.9547-.576-1.776-.576s-1.4187.192-1.792.576c-.3627.384-.544.912-.544 1.584 0 .32.0427.6133.128.88.096.2667.24.5013.432.704.192.192.432.3467.72.464.2987.1067.6507.16 1.056.16zm18.457 9.168v-13.184l-1.088-.224c-.373-.0853-.677-.2187-.912-.4-.224-.1813-.336-.448-.336-.8v-1.952h2.336v-.944c0-.9493.15-1.808.448-2.576.31-.768.747-1.424 1.312-1.968.576-.544 1.275-.9653 2.096-1.264.822-.2987 1.755-.448 2.8-.448.406 0 .779.0267 1.12.08.352.0427.715.1173 1.088.224l-.096 2.416c-.01.1707-.058.3147-.144.432-.074.1067-.17.1973-.288.272-.117.064-.25.112-.4.144-.138.032-.277.048-.416.048-.437 0-.826.0427-1.168.128-.341.0853-.629.24-.864.464-.224.2133-.394.5013-.512.864-.117.352-.176.8-.176 1.344v.784h3.904v3.392h-3.744v13.168zm18.57-16.848c1.259 0 2.406.1973 3.44.592 1.035.3947 1.92.96 2.656 1.696.747.736 1.323 1.632 1.728 2.688.416 1.0453.624 2.224.624 3.536 0 1.3227-.208 2.5173-.624 3.584-.405 1.056-.981 1.9573-1.728 2.704-.736.736-1.621 1.3067-2.656 1.712-1.034.3947-2.181.592-3.44.592-1.269 0-2.426-.1973-3.472-.592-1.034-.4053-1.93-.976-2.688-1.712-.746-.7467-1.328-1.648-1.744-2.704-.405-1.0667-.608-2.2613-.608-3.584 0-1.312.203-2.4907.608-3.536.416-1.056.998-1.952 1.744-2.688.758-.736 1.654-1.3013 2.688-1.696 1.046-.3947 2.203-.592 3.472-.592zm0 13.424c1.142 0 1.979-.4 2.512-1.2.544-.8107.816-2.0373.816-3.68s-.272-2.864-.816-3.664c-.533-.8-1.37-1.2-2.512-1.2-1.173 0-2.032.4-2.576 1.2s-.816 2.0213-.816 3.664.272 2.8693.816 3.68c.544.8 1.403 1.2 2.576 1.2zm11.491 3.424v-16.592h2.944c.245 0 .448.0213.608.064.17.0427.309.112.416.208.117.0853.202.2027.256.352.064.1493.117.3307.16.544l.272 1.552c.608-.9387 1.29-1.68 2.048-2.224.757-.544 1.584-.816 2.48-.816.757 0 1.365.1813 1.824.544l-.64 3.648c-.043.224-.128.384-.256.48-.128.0853-.299.128-.512.128-.182 0-.395-.0213-.64-.064-.246-.0533-.555-.08-.928-.08-1.302 0-2.326.6933-3.072 2.08v10.176zm31.502 0c-.469 0-.827-.064-1.072-.192-.235-.128-.432-.3947-.592-.8l-.352-.912c-.416.352-.816.6613-1.2.928s-.784.496-1.2.688c-.405.1813-.843.3147-1.312.4-.459.096-.971.144-1.536.144-.757 0-1.445-.096-2.064-.288-.619-.2027-1.147-.496-1.584-.88-.427-.384-.757-.8587-.992-1.424-.235-.576-.352-1.2373-.352-1.984 0-.5867.149-1.1893.448-1.808s.816-1.1787 1.552-1.68c.736-.512 1.728-.9387 2.976-1.28s2.821-.5333 4.72-.576v-.704c0-.9707-.203-1.6693-.608-2.096-.395-.4373-.96-.656-1.696-.656-.587 0-1.067.064-1.44.192s-.709.272-1.008.432c-.288.16-.571.304-.848.432s-.608.192-.992.192c-.341 0-.635-.08-.88-.24-.235-.1707-.421-.3787-.56-.624l-.896-1.552c1.003-.8853 2.112-1.5413 3.328-1.968 1.227-.4373 2.539-.656 3.936-.656 1.003 0 1.904.1653 2.704.496.811.32 1.493.7733 2.048 1.36.565.576.997 1.264 1.296 2.064s.448 1.6747.448 2.624v10.368zm-5.696-3.024c.64 0 1.2-.112 1.68-.336s.965-.5867 1.456-1.088v-2.304c-.992.0427-1.808.128-2.448.256s-1.147.288-1.52.48-.635.4107-.784.656c-.139.2453-.208.512-.208.8 0 .5653.155.9653.464 1.2.309.224.763.336 1.36.336zm19.054 3.024v-13.184l-1.088-.224c-.374-.0853-.678-.2187-.912-.4-.224-.1813-.336-.448-.336-.8v-1.952h2.336v-.944c0-.9493.149-1.808.448-2.576.309-.768.746-1.424 1.312-1.968.576-.544 1.274-.9653 2.096-1.264.821-.2987 1.754-.448 2.8-.448.405 0 .778.0267 1.12.08.352.0427.714.1173 1.088.224l-.096 2.416c-.011.1707-.059.3147-.144.432-.075.1067-.171.1973-.288.272-.118.064-.251.112-.4.144-.139.032-.278.048-.416.048-.438 0-.827.0427-1.168.128-.342.0853-.63.24-.864.464-.224.2133-.395.5013-.512.864-.118.352-.176.8-.176 1.344v.784h3.904v3.392h-3.744v13.168zm15.817-16.592v10.528c0 .8213.187 1.456.56 1.904.374.448.923.672 1.648.672.544 0 1.051-.112 1.52-.336.48-.224.944-.5387 1.392-.944v-11.824h4.96v16.592h-3.072c-.618 0-1.024-.2773-1.216-.832l-.304-.96c-.32.3093-.65.592-.992.848-.341.2453-.709.4587-1.104.64-.384.1707-.8.304-1.248.4-.448.1067-.938.16-1.472.16-.906 0-1.712-.1547-2.416-.464-.693-.32-1.28-.7627-1.76-1.328s-.842-1.232-1.088-2c-.245-.768-.368-1.6107-.368-2.528v-10.528zm19.363-7.36v23.952h-4.96v-23.952zm9.445 0v23.952h-4.96v-23.952zm4.005 12.224h8.64v4h-8.64zm18.307 11.984c-.789 0-1.488-.112-2.096-.336-.597-.2347-1.104-.56-1.52-.976-.405-.4267-.714-.9387-.928-1.536-.213-.5973-.32-1.264-.32-2v-8.576h-1.408c-.256 0-.474-.08-.656-.24-.181-.1707-.272-.416-.272-.736v-1.936l2.64-.512.976-4.048c.128-.512.491-.768 1.088-.768h2.592v4.848h4.032v3.392h-4.032v8.24c0 .384.091.704.272.96.192.2453.464.368.816.368.182 0 .331-.016.448-.048.128-.0427.235-.0853.32-.128.096-.0533.182-.096.256-.128.086-.0427.182-.064.288-.064.15 0 .267.0373.352.112.096.064.192.1707.288.32l1.504 2.352c-.64.48-1.36.8427-2.16 1.088-.8.2347-1.626.352-2.48.352zm12.429-16.848v16.592h-4.96v-16.592zm.576-4.544c0 .3947-.08.768-.24 1.12-.16.3413-.379.6453-.656.912-.277.256-.603.464-.976.624-.363.1493-.752.224-1.168.224-.405 0-.784-.0747-1.136-.224-.352-.16-.667-.368-.944-.624-.267-.2667-.48-.5707-.64-.912-.149-.352-.224-.7253-.224-1.12 0-.4053.075-.784.224-1.136.16-.352.373-.6613.64-.928.277-.2667.592-.4747.944-.624s.731-.224 1.136-.224c.416 0 .805.0747 1.168.224.373.1493.699.3573.976.624s.496.576.656.928.24.7307.24 1.136zm3.749 21.136v-16.592h3.072c.309 0 .565.0693.768.208.213.1387.363.3467.448.624l.272.896c.277-.288.565-.5493.864-.784.299-.2453.619-.4533.96-.624.352-.1813.725-.32 1.12-.416.405-.1067.848-.16 1.328-.16 1.003 0 1.829.2613 2.48.784.661.512 1.163 1.2 1.504 2.064.277-.512.613-.9493 1.008-1.312.405-.3627.837-.656 1.296-.88.469-.224.96-.3893 1.472-.496.523-.1067 1.04-.16 1.552-.16.949 0 1.792.144 2.528.432.736.2773 1.349.688 1.84 1.232.501.5333.88 1.1947 1.136 1.984.256.7787.384 1.664.384 2.656v10.544h-4.96v-10.544c0-1.7173-.736-2.576-2.208-2.576-.672 0-1.232.224-1.68.672-.437.4373-.656 1.072-.656 1.904v10.544h-4.96v-10.544c0-.9493-.187-1.616-.56-2s-.923-.576-1.648-.576c-.448 0-.875.1013-1.28.304-.395.2027-.768.4747-1.12.816v12zm34.987-16.848c1.098 0 2.101.1707 3.008.512.917.3413 1.701.8373 2.352 1.488.661.6507 1.173 1.4507 1.536 2.4.373.9387.56 2.0053.56 3.2 0 .3733-.016.6773-.048.912s-.091.4213-.176.56c-.086.1387-.203.2347-.352.288-.139.0533-.32.08-.544.08h-9.568c.16 1.3867.581 2.3947 1.264 3.024.682.6187 1.562.928 2.64.928.576 0 1.072-.0693 1.488-.208s.784-.2933 1.104-.464c.33-.1707.629-.3253.896-.464.277-.1387.565-.208.864-.208.394 0 .693.144.896.432l1.44 1.776c-.512.5867-1.067 1.0667-1.664 1.44-.587.3627-1.195.6507-1.824.864-.619.2027-1.243.3413-1.872.416-.619.0853-1.211.128-1.776.128-1.163 0-2.256-.1867-3.28-.56-1.014-.384-1.904-.9493-2.672-1.696-.758-.7467-1.36-1.6747-1.808-2.784-.438-1.1093-.656-2.4-.656-3.872 0-1.1093.186-2.16.56-3.152.384-.992.928-1.8613 1.632-2.608.714-.7467 1.573-1.3387 2.576-1.776 1.013-.4373 2.154-.656 3.424-.656zm.096 3.424c-.95 0-1.691.272-2.224.816-.534.5333-.886 1.3067-1.056 2.32h6.192c0-.3947-.054-.7787-.16-1.152-.096-.3733-.262-.704-.496-.992-.224-.2987-.523-.5387-.896-.72-.374-.1813-.827-.272-1.36-.272zm16.393 10.912c0-.384.07-.7413.208-1.072.15-.3307.347-.6187.592-.864.256-.2453.555-.4373.896-.576.342-.1493.715-.224 1.12-.224.395 0 .763.0747 1.104.224.342.1387.64.3307.896.576s.454.5333.592.864c.15.3307.224.688.224 1.072s-.074.7467-.224 1.088c-.138.3307-.336.6187-.592.864s-.554.4373-.896.576c-.341.1387-.709.208-1.104.208-.405 0-.778-.0693-1.12-.208-.341-.1387-.64-.3307-.896-.576-.245-.2453-.442-.5333-.592-.864-.138-.3413-.208-.704-.208-1.088zm10.763 0c0-.384.069-.7413.208-1.072.149-.3307.346-.6187.592-.864.256-.2453.554-.4373.896-.576.341-.1493.714-.224 1.12-.224.394 0 .762.0747 1.104.224.341.1387.64.3307.896.576s.453.5333.592.864c.149.3307.224.688.224 1.072s-.075.7467-.224 1.088c-.139.3307-.336.6187-.592.864s-.555.4373-.896.576c-.342.1387-.71.208-1.104.208-.406 0-.779-.0693-1.12-.208-.342-.1387-.64-.3307-.896-.576-.246-.2453-.443-.5333-.592-.864-.139-.3413-.208-.704-.208-1.088zm10.762 0c0-.384.07-.7413.208-1.072.15-.3307.347-.6187.592-.864.256-.2453.555-.4373.896-.576.342-.1493.715-.224 1.12-.224.395 0 .763.0747 1.104.224.342.1387.64.3307.896.576s.454.5333.592.864c.15.3307.224.688.224 1.072s-.074.7467-.224 1.088c-.138.3307-.336.6187-.592.864s-.554.4373-.896.576c-.341.1387-.709.208-1.104.208-.405 0-.778-.0693-1.12-.208-.341-.1387-.64-.3307-.896-.576-.245-.2453-.442-.5333-.592-.864-.138-.3413-.208-.704-.208-1.088z" fill="#4263eb" fill-opacity=".4"/><path d="m13.376 44c-.4693 0-.8267-.064-1.072-.192-.2347-.128-.432-.3947-.592-.8l-.352-.912c-.416.352-.816.6613-1.2.928s-.784.496-1.2.688c-.40533.1813-.84267.3147-1.312.4-.45867.096-.97067.144-1.536.144-.75733 0-1.44533-.096-2.064-.288-.61867-.2027-1.14667-.496-1.584-.88-.42667-.384-.75733-.8587-.992-1.424-.23467-.576-.352-1.2373-.352-1.984 0-.5867.14933-1.1893.448-1.808s.816-1.1787 1.552-1.68c.736-.512 1.728-.9387 2.976-1.28s2.82133-.5333 4.72-.576v-.704c0-.9707-.2027-1.6693-.608-2.096-.39467-.4373-.96-.656-1.696-.656-.58667 0-1.06667.064-1.44.192s-.70933.272-1.008.432c-.288.16-.57067.304-.848.432s-.608.192-.992.192c-.34133 0-.63467-.08-.88-.24-.23467-.1707-.42133-.3787-.56-.624l-.896-1.552c1.00267-.8853 2.112-1.5413 3.328-1.968 1.22667-.4373 2.53867-.656 3.936-.656 1.0027 0 1.904.1653 2.704.496.8107.32 1.4933.7733 2.048 1.36.5653.576.9973 1.264 1.296 2.064s.448 1.6747.448 2.624v10.368zm-5.696-3.024c.64 0 1.2-.112 1.68-.336s.9653-.5867 1.456-1.088v-2.304c-.992.0427-1.808.128-2.448.256s-1.14667.288-1.52.48-.63467.4107-.784.656c-.13867.2453-.208.512-.208.8 0 .5653.15467.9653.464 1.2.30933.224.76267.336 1.36.336zm16.93-13.568v16.592h-4.96v-16.592zm.576-4.544c0 .3947-.08.768-.24 1.12-.16.3413-.3787.6453-.656.912-.2773.256-.6027.464-.976.624-.3627.1493-.752.224-1.168.224-.4053 0-.784-.0747-1.136-.224-.352-.16-.6667-.368-.944-.624-.2667-.2667-.48-.5707-.64-.912-.1493-.352-.224-.7253-.224-1.12 0-.4053.0747-.784.224-1.136.16-.352.3733-.6613.64-.928.2773-.2667.592-.4747.944-.624s.7307-.224 1.136-.224c.416 0 .8053.0747 1.168.224.3733.1493.6987.3573.976.624s.496.576.656.928.24.7307.24 1.136zm3.749 21.136v-16.592h3.072c.3093 0 .5653.0693.768.208.2133.1387.3627.3467.448.624l.272.896c.2773-.288.5653-.5493.864-.784.2987-.2453.6187-.4533.96-.624.352-.1813.7253-.32 1.12-.416.4053-.1067.848-.16 1.328-.16 1.0027 0 1.8293.2613 2.48.784.6613.512 1.1627 1.2 1.504 2.064.2773-.512.6133-.9493 1.008-1.312.4053-.3627.8373-.656 1.296-.88.4693-.224.96-.3893 1.472-.496.5227-.1067 1.04-.16 1.552-.16.9493 0 1.792.144 2.528.432.736.2773 1.3493.688 1.84 1.232.5013.5333.88 1.1947 1.136 1.984.256.7787.384 1.664.384 2.656v10.544h-4.96v-10.544c0-1.7173-.736-2.576-2.208-2.576-.672 0-1.232.224-1.68.672-.4373.4373-.656 1.072-.656 1.904v10.544h-4.96v-10.544c0-.9493-.1867-1.616-.56-2s-.9227-.576-1.648-.576c-.448 0-.8747.1013-1.28.304-.3947.2027-.768.4747-1.12.816v12zm33.0025-16.592v16.592h-4.96v-16.592zm.576-4.544c0 .3947-.08.768-.24 1.12-.16.3413-.3787.6453-.656.912-.2773.256-.6027.464-.976.624-.3627.1493-.752.224-1.168.224-.4053 0-.784-.0747-1.136-.224-.352-.16-.6667-.368-.944-.624-.2667-.2667-.48-.5707-.64-.912-.1493-.352-.224-.7253-.224-1.12 0-.4053.0747-.784.224-1.136.16-.352.3733-.6613.64-.928.2773-.2667.592-.4747.944-.624s.7307-.224 1.136-.224c.416 0 .8053.0747 1.168.224.3733.1493.6987.3573.976.624s.496.576.656.928.24.7307.24 1.136zm3.749 21.136v-16.592h3.072c.3093 0 .5653.0693.768.208.2133.1387.3627.3467.448.624l.288.96c.32-.2987.6507-.576.992-.832s.704-.4693 1.088-.64c.3947-.1813.816-.32 1.264-.416.4587-.1067.9547-.16 1.488-.16.9067 0 1.7067.16 2.4.48.704.3093 1.296.7467 1.776 1.312.48.5547.8427 1.2213 1.088 2 .2453.768.368 1.6053.368 2.512v10.544h-4.96v-10.544c0-.8107-.1867-1.44-.56-1.888-.3733-.4587-.9227-.688-1.648-.688-.544 0-1.056.1173-1.536.352s-.9387.5493-1.376.944v11.824zm24.7385-16.88c.704 0 1.3653.0693 1.984.208.6293.1387 1.2107.336 1.744.592h5.008v1.808c0 .2773-.08.496-.24.656-.1493.16-.4107.2827-.784.368l-1.216.272c.1493.48.224.976.224 1.488 0 .832-.176 1.5787-.528 2.24-.3413.6613-.816 1.2267-1.424 1.696-.5973.4587-1.3067.816-2.128 1.072-.8213.2453-1.7013.368-2.64.368-.5227 0-1.0133-.032-1.472-.096-.3627.2133-.544.4587-.544.736s.144.48.432.608c.2987.1173.688.2027 1.168.256.48.0427 1.0293.0747 1.648.096.6187.0107 1.248.048 1.888.112.64.0533 1.2693.1493 1.888.288s1.168.3627 1.648.672.864.7253 1.152 1.248c.2987.512.448 1.168.448 1.968 0 .7467-.1813 1.4773-.544 2.192s-.896 1.3493-1.6 1.904-1.568.9973-2.592 1.328c-1.024.3413-2.1973.512-3.52.512-1.3013 0-2.4267-.1227-3.376-.368-.9387-.2453-1.7227-.5707-2.352-.976-.6187-.3947-1.0773-.8533-1.376-1.376s-.448-1.0667-.448-1.632c0-.736.224-1.3547.672-1.856.448-.512 1.0613-.912 1.84-1.2-.3733-.2453-.672-.56-.896-.944s-.336-.8693-.336-1.456c0-.2453.0427-.5013.128-.768.0853-.2773.2187-.544.4-.8s.4107-.5013.688-.736.608-.4427.992-.624c-.864-.4587-1.5467-1.0667-2.048-1.824-.4907-.7573-.736-1.6373-.736-2.64 0-.832.176-1.5787.528-2.24.352-.672.832-1.2373 1.44-1.696.6187-.4693 1.344-.8267 2.176-1.072.832-.256 1.7333-.384 2.704-.384zm3.68 17.488c0-.2667-.0853-.48-.256-.64-.16-.16-.384-.288-.672-.384-.2773-.096-.608-.1653-.992-.208-.3733-.0427-.7787-.0747-1.216-.096s-.8907-.0373-1.36-.048c-.4693-.0213-.9333-.0587-1.392-.112-.3093.2133-.5653.4533-.768.72-.192.256-.288.5493-.288.88 0 .2347.048.448.144.64.1067.192.288.3573.544.496s.5973.2453 1.024.32c.4373.0853.9867.128 1.648.128.7147 0 1.3013-.0427 1.76-.128s.8213-.2027 1.088-.352c.2773-.1493.4693-.3307.576-.544.1067-.2027.16-.4267.16-.672zm-3.68-9.776c.8213 0 1.4133-.2027 1.776-.608.3733-.416.56-.9493.56-1.6 0-.672-.1867-1.2-.56-1.584-.3627-.384-.9547-.576-1.776-.576s-1.4187.192-1.792.576c-.3627.384-.544.912-.544 1.584 0 .32.0427.6133.128.88.096.2667.24.5013.432.704.192.192.432.3467.72.464.2987.1067.6507.16 1.056.16zm18.457 9.168v-13.184l-1.088-.224c-.373-.0853-.677-.2187-.912-.4-.224-.1813-.336-.448-.336-.8v-1.952h2.336v-.944c0-.9493.15-1.808.448-2.576.31-.768.747-1.424 1.312-1.968.576-.544 1.275-.9653 2.096-1.264.822-.2987 1.755-.448 2.8-.448.406 0 .779.0267 1.12.08.352.0427.715.1173 1.088.224l-.096 2.416c-.01.1707-.058.3147-.144.432-.074.1067-.17.1973-.288.272-.117.064-.25.112-.4.144-.138.032-.277.048-.416.048-.437 0-.826.0427-1.168.128-.341.0853-.629.24-.864.464-.224.2133-.394.5013-.512.864-.117.352-.176.8-.176 1.344v.784h3.904v3.392h-3.744v13.168zm18.57-16.848c1.259 0 2.406.1973 3.44.592 1.035.3947 1.92.96 2.656 1.696.747.736 1.323 1.632 1.728 2.688.416 1.0453.624 2.224.624 3.536 0 1.3227-.208 2.5173-.624 3.584-.405 1.056-.981 1.9573-1.728 2.704-.736.736-1.621 1.3067-2.656 1.712-1.034.3947-2.181.592-3.44.592-1.269 0-2.426-.1973-3.472-.592-1.034-.4053-1.93-.976-2.688-1.712-.746-.7467-1.328-1.648-1.744-2.704-.405-1.0667-.608-2.2613-.608-3.584 0-1.312.203-2.4907.608-3.536.416-1.056.998-1.952 1.744-2.688.758-.736 1.654-1.3013 2.688-1.696 1.046-.3947 2.203-.592 3.472-.592zm0 13.424c1.142 0 1.979-.4 2.512-1.2.544-.8107.816-2.0373.816-3.68s-.272-2.864-.816-3.664c-.533-.8-1.37-1.2-2.512-1.2-1.173 0-2.032.4-2.576 1.2s-.816 2.0213-.816 3.664.272 2.8693.816 3.68c.544.8 1.403 1.2 2.576 1.2zm11.491 3.424v-16.592h2.944c.245 0 .448.0213.608.064.17.0427.309.112.416.208.117.0853.202.2027.256.352.064.1493.117.3307.16.544l.272 1.552c.608-.9387 1.29-1.68 2.048-2.224.757-.544 1.584-.816 2.48-.816.757 0 1.365.1813 1.824.544l-.64 3.648c-.043.224-.128.384-.256.48-.128.0853-.299.128-.512.128-.182 0-.395-.0213-.64-.064-.246-.0533-.555-.08-.928-.08-1.302 0-2.326.6933-3.072 2.08v10.176zm31.502 0c-.469 0-.827-.064-1.072-.192-.235-.128-.432-.3947-.592-.8l-.352-.912c-.416.352-.816.6613-1.2.928s-.784.496-1.2.688c-.405.1813-.843.3147-1.312.4-.459.096-.971.144-1.536.144-.757 0-1.445-.096-2.064-.288-.619-.2027-1.147-.496-1.584-.88-.427-.384-.757-.8587-.992-1.424-.235-.576-.352-1.2373-.352-1.984 0-.5867.149-1.1893.448-1.808s.816-1.1787 1.552-1.68c.736-.512 1.728-.9387 2.976-1.28s2.821-.5333 4.72-.576v-.704c0-.9707-.203-1.6693-.608-2.096-.395-.4373-.96-.656-1.696-.656-.587 0-1.067.064-1.44.192s-.709.272-1.008.432c-.288.16-.571.304-.848.432s-.608.192-.992.192c-.341 0-.635-.08-.88-.24-.235-.1707-.421-.3787-.56-.624l-.896-1.552c1.003-.8853 2.112-1.5413 3.328-1.968 1.227-.4373 2.539-.656 3.936-.656 1.003 0 1.904.1653 2.704.496.811.32 1.493.7733 2.048 1.36.565.576.997 1.264 1.296 2.064s.448 1.6747.448 2.624v10.368zm-5.696-3.024c.64 0 1.2-.112 1.68-.336s.965-.5867 1.456-1.088v-2.304c-.992.0427-1.808.128-2.448.256s-1.147.288-1.52.48-.635.4107-.784.656c-.139.2453-.208.512-.208.8 0 .5653.155.9653.464 1.2.309.224.763.336 1.36.336zm19.054 3.024v-13.184l-1.088-.224c-.374-.0853-.678-.2187-.912-.4-.224-.1813-.336-.448-.336-.8v-1.952h2.336v-.944c0-.9493.149-1.808.448-2.576.309-.768.746-1.424 1.312-1.968.576-.544 1.274-.9653 2.096-1.264.821-.2987 1.754-.448 2.8-.448.405 0 .778.0267 1.12.08.352.0427.714.1173 1.088.224l-.096 2.416c-.011.1707-.059.3147-.144.432-.075.1067-.171.1973-.288.272-.118.064-.251.112-.4.144-.139.032-.278.048-.416.048-.438 0-.827.0427-1.168.128-.342.0853-.63.24-.864.464-.224.2133-.395.5013-.512.864-.118.352-.176.8-.176 1.344v.784h3.904v3.392h-3.744v13.168zm15.817-16.592v10.528c0 .8213.187 1.456.56 1.904.374.448.923.672 1.648.672.544 0 1.051-.112 1.52-.336.48-.224.944-.5387 1.392-.944v-11.824h4.96v16.592h-3.072c-.618 0-1.024-.2773-1.216-.832l-.304-.96c-.32.3093-.65.592-.992.848-.341.2453-.709.4587-1.104.64-.384.1707-.8.304-1.248.4-.448.1067-.938.16-1.472.16-.906 0-1.712-.1547-2.416-.464-.693-.32-1.28-.7627-1.76-1.328s-.842-1.232-1.088-2c-.245-.768-.368-1.6107-.368-2.528v-10.528zm19.363-7.36v23.952h-4.96v-23.952zm9.445 0v23.952h-4.96v-23.952zm4.005 12.224h8.64v4h-8.64zm18.307 11.984c-.789 0-1.488-.112-2.096-.336-.597-.2347-1.104-.56-1.52-.976-.405-.4267-.714-.9387-.928-1.536-.213-.5973-.32-1.264-.32-2v-8.576h-1.408c-.256 0-.474-.08-.656-.24-.181-.1707-.272-.416-.272-.736v-1.936l2.64-.512.976-4.048c.128-.512.491-.768 1.088-.768h2.592v4.848h4.032v3.392h-4.032v8.24c0 .384.091.704.272.96.192.2453.464.368.816.368.182 0 .331-.016.448-.048.128-.0427.235-.0853.32-.128.096-.0533.182-.096.256-.128.086-.0427.182-.064.288-.064.15 0 .267.0373.352.112.096.064.192.1707.288.32l1.504 2.352c-.64.48-1.36.8427-2.16 1.088-.8.2347-1.626.352-2.48.352zm12.429-16.848v16.592h-4.96v-16.592zm.576-4.544c0 .3947-.08.768-.24 1.12-.16.3413-.379.6453-.656.912-.277.256-.603.464-.976.624-.363.1493-.752.224-1.168.224-.405 0-.784-.0747-1.136-.224-.352-.16-.667-.368-.944-.624-.267-.2667-.48-.5707-.64-.912-.149-.352-.224-.7253-.224-1.12 0-.4053.075-.784.224-1.136.16-.352.373-.6613.64-.928.277-.2667.592-.4747.944-.624s.731-.224 1.136-.224c.416 0 .805.0747 1.168.224.373.1493.699.3573.976.624s.496.576.656.928.24.7307.24 1.136zm3.749 21.136v-16.592h3.072c.309 0 .565.0693.768.208.213.1387.363.3467.448.624l.272.896c.277-.288.565-.5493.864-.784.299-.2453.619-.4533.96-.624.352-.1813.725-.32 1.12-.416.405-.1067.848-.16 1.328-.16 1.003 0 1.829.2613 2.48.784.661.512 1.163 1.2 1.504 2.064.277-.512.613-.9493 1.008-1.312.405-.3627.837-.656 1.296-.88.469-.224.96-.3893 1.472-.496.523-.1067 1.04-.16 1.552-.16.949 0 1.792.144 2.528.432.736.2773 1.349.688 1.84 1.232.501.5333.88 1.1947 1.136 1.984.256.7787.384 1.664.384 2.656v10.544h-4.96v-10.544c0-1.7173-.736-2.576-2.208-2.576-.672 0-1.232.224-1.68.672-.437.4373-.656 1.072-.656 1.904v10.544h-4.96v-10.544c0-.9493-.187-1.616-.56-2s-.923-.576-1.648-.576c-.448 0-.875.1013-1.28.304-.395.2027-.768.4747-1.12.816v12zm34.987-16.848c1.098 0 2.101.1707 3.008.512.917.3413 1.701.8373 2.352 1.488.661.6507 1.173 1.4507 1.536 2.4.373.9387.56 2.0053.56 3.2 0 .3733-.016.6773-.048.912s-.091.4213-.176.56c-.086.1387-.203.2347-.352.288-.139.0533-.32.08-.544.08h-9.568c.16 1.3867.581 2.3947 1.264 3.024.682.6187 1.562.928 2.64.928.576 0 1.072-.0693 1.488-.208s.784-.2933 1.104-.464c.33-.1707.629-.3253.896-.464.277-.1387.565-.208.864-.208.394 0 .693.144.896.432l1.44 1.776c-.512.5867-1.067 1.0667-1.664 1.44-.587.3627-1.195.6507-1.824.864-.619.2027-1.243.3413-1.872.416-.619.0853-1.211.128-1.776.128-1.163 0-2.256-.1867-3.28-.56-1.014-.384-1.904-.9493-2.672-1.696-.758-.7467-1.36-1.6747-1.808-2.784-.438-1.1093-.656-2.4-.656-3.872 0-1.1093.186-2.16.56-3.152.384-.992.928-1.8613 1.632-2.608.714-.7467 1.573-1.3387 2.576-1.776 1.013-.4373 2.154-.656 3.424-.656zm.096 3.424c-.95 0-1.691.272-2.224.816-.534.5333-.886 1.3067-1.056 2.32h6.192c0-.3947-.054-.7787-.16-1.152-.096-.3733-.262-.704-.496-.992-.224-.2987-.523-.5387-.896-.72-.374-.1813-.827-.272-1.36-.272zm16.393 10.912c0-.384.07-.7413.208-1.072.15-.3307.347-.6187.592-.864.256-.2453.555-.4373.896-.576.342-.1493.715-.224 1.12-.224.395 0 .763.0747 1.104.224.342.1387.64.3307.896.576s.454.5333.592.864c.15.3307.224.688.224 1.072s-.074.7467-.224 1.088c-.138.3307-.336.6187-.592.864s-.554.4373-.896.576c-.341.1387-.709.208-1.104.208-.405 0-.778-.0693-1.12-.208-.341-.1387-.64-.3307-.896-.576-.245-.2453-.442-.5333-.592-.864-.138-.3413-.208-.704-.208-1.088zm10.763 0c0-.384.069-.7413.208-1.072.149-.3307.346-.6187.592-.864.256-.2453.554-.4373.896-.576.341-.1493.714-.224 1.12-.224.394 0 .762.0747 1.104.224.341.1387.64.3307.896.576s.453.5333.592.864c.149.3307.224.688.224 1.072s-.075.7467-.224 1.088c-.139.3307-.336.6187-.592.864s-.555.4373-.896.576c-.342.1387-.71.208-1.104.208-.406 0-.779-.0693-1.12-.208-.342-.1387-.64-.3307-.896-.576-.246-.2453-.443-.5333-.592-.864-.139-.3413-.208-.704-.208-1.088zm10.762 0c0-.384.07-.7413.208-1.072.15-.3307.347-.6187.592-.864.256-.2453.555-.4373.896-.576.342-.1493.715-.224 1.12-.224.395 0 .763.0747 1.104.224.342.1387.64.3307.896.576s.454.5333.592.864c.15.3307.224.688.224 1.072s-.074.7467-.224 1.088c-.138.3307-.336.6187-.592.864s-.554.4373-.896.576c-.341.1387-.709.208-1.104.208-.405 0-.778-.0693-1.12-.208-.341-.1387-.64-.3307-.896-.576-.245-.2453-.442-.5333-.592-.864-.138-.3413-.208-.704-.208-1.088z" fill="#47f6cb" fill-opacity=".9"/><path d="m13.376 31c-.4693 0-.8267-.064-1.072-.192-.2347-.128-.432-.3947-.592-.8l-.352-.912c-.416.352-.816.6613-1.2.928s-.784.496-1.2.688c-.40533.1813-.84267.3147-1.312.4-.45867.096-.97067.144-1.536.144-.75733 0-1.44533-.096-2.064-.288-.61867-.2027-1.14667-.496-1.584-.88-.42667-.384-.75733-.8587-.992-1.424-.23467-.576-.352-1.2373-.352-1.984 0-.5867.14933-1.1893.448-1.808s.816-1.1787 1.552-1.68c.736-.512 1.728-.9387 2.976-1.28s2.82133-.5333 4.72-.576v-.704c0-.9707-.2027-1.6693-.608-2.096-.39467-.4373-.96-.656-1.696-.656-.58667 0-1.06667.064-1.44.192s-.70933.272-1.008.432c-.288.16-.57067.304-.848.432s-.608.192-.992.192c-.34133 0-.63467-.08-.88-.24-.23467-.1707-.42133-.3787-.56-.624l-.896-1.552c1.00267-.8853 2.112-1.5413 3.328-1.968 1.22667-.4373 2.53867-.656 3.936-.656 1.0027 0 1.904.1653 2.704.496.8107.32 1.4933.7733 2.048 1.36.5653.576.9973 1.264 1.296 2.064s.448 1.6747.448 2.624v10.368zm-5.696-3.024c.64 0 1.2-.112 1.68-.336s.9653-.5867 1.456-1.088v-2.304c-.992.0427-1.808.128-2.448.256s-1.14667.288-1.52.48-.63467.4107-.784.656c-.13867.2453-.208.512-.208.8 0 .5653.15467.9653.464 1.2.30933.224.76267.336 1.36.336zm16.93-13.568v16.592h-4.96v-16.592zm.576-4.544c0 .3947-.08.768-.24 1.12-.16.3413-.3787.6453-.656.912-.2773.256-.6027.464-.976.624-.3627.1493-.752.224-1.168.224-.4053 0-.784-.0747-1.136-.224-.352-.16-.6667-.368-.944-.624-.2667-.2667-.48-.5707-.64-.912-.1493-.352-.224-.7253-.224-1.12 0-.40533.0747-.784.224-1.136.16-.352.3733-.66133.64-.928.2773-.26667.592-.47467.944-.624s.7307-.224 1.136-.224c.416 0 .8053.07467 1.168.224.3733.14933.6987.35733.976.624s.496.576.656.928.24.73067.24 1.136zm3.749 21.136v-16.592h3.072c.3093 0 .5653.0693.768.208.2133.1387.3627.3467.448.624l.272.896c.2773-.288.5653-.5493.864-.784.2987-.2453.6187-.4533.96-.624.352-.1813.7253-.32 1.12-.416.4053-.1067.848-.16 1.328-.16 1.0027 0 1.8293.2613 2.48.784.6613.512 1.1627 1.2 1.504 2.064.2773-.512.6133-.9493 1.008-1.312.4053-.3627.8373-.656 1.296-.88.4693-.224.96-.3893 1.472-.496.5227-.1067 1.04-.16 1.552-.16.9493 0 1.792.144 2.528.432.736.2773 1.3493.688 1.84 1.232.5013.5333.88 1.1947 1.136 1.984.256.7787.384 1.664.384 2.656v10.544h-4.96v-10.544c0-1.7173-.736-2.576-2.208-2.576-.672 0-1.232.224-1.68.672-.4373.4373-.656 1.072-.656 1.904v10.544h-4.96v-10.544c0-.9493-.1867-1.616-.56-2s-.9227-.576-1.648-.576c-.448 0-.8747.1013-1.28.304-.3947.2027-.768.4747-1.12.816v12zm33.0025-16.592v16.592h-4.96v-16.592zm.576-4.544c0 .3947-.08.768-.24 1.12-.16.3413-.3787.6453-.656.912-.2773.256-.6027.464-.976.624-.3627.1493-.752.224-1.168.224-.4053 0-.784-.0747-1.136-.224-.352-.16-.6667-.368-.944-.624-.2667-.2667-.48-.5707-.64-.912-.1493-.352-.224-.7253-.224-1.12 0-.40533.0747-.784.224-1.136.16-.352.3733-.66133.64-.928.2773-.26667.592-.47467.944-.624s.7307-.224 1.136-.224c.416 0 .8053.07467 1.168.224.3733.14933.6987.35733.976.624s.496.576.656.928.24.73067.24 1.136zm3.749 21.136v-16.592h3.072c.3093 0 .5653.0693.768.208.2133.1387.3627.3467.448.624l.288.96c.32-.2987.6507-.576.992-.832s.704-.4693 1.088-.64c.3947-.1813.816-.32 1.264-.416.4587-.1067.9547-.16 1.488-.16.9067 0 1.7067.16 2.4.48.704.3093 1.296.7467 1.776 1.312.48.5547.8427 1.2213 1.088 2 .2453.768.368 1.6053.368 2.512v10.544h-4.96v-10.544c0-.8107-.1867-1.44-.56-1.888-.3733-.4587-.9227-.688-1.648-.688-.544 0-1.056.1173-1.536.352s-.9387.5493-1.376.944v11.824zm24.7385-16.88c.704 0 1.3653.0693 1.984.208.6293.1387 1.2107.336 1.744.592h5.008v1.808c0 .2773-.08.496-.24.656-.1493.16-.4107.2827-.784.368l-1.216.272c.1493.48.224.976.224 1.488 0 .832-.176 1.5787-.528 2.24-.3413.6613-.816 1.2267-1.424 1.696-.5973.4587-1.3067.816-2.128 1.072-.8213.2453-1.7013.368-2.64.368-.5227 0-1.0133-.032-1.472-.096-.3627.2133-.544.4587-.544.736s.144.48.432.608c.2987.1173.688.2027 1.168.256.48.0427 1.0293.0747 1.648.096.6187.0107 1.248.048 1.888.112.64.0533 1.2693.1493 1.888.288s1.168.3627 1.648.672.864.7253 1.152 1.248c.2987.512.448 1.168.448 1.968 0 .7467-.1813 1.4773-.544 2.192s-.896 1.3493-1.6 1.904-1.568.9973-2.592 1.328c-1.024.3413-2.1973.512-3.52.512-1.3013 0-2.4267-.1227-3.376-.368-.9387-.2453-1.7227-.5707-2.352-.976-.6187-.3947-1.0773-.8533-1.376-1.376s-.448-1.0667-.448-1.632c0-.736.224-1.3547.672-1.856.448-.512 1.0613-.912 1.84-1.2-.3733-.2453-.672-.56-.896-.944s-.336-.8693-.336-1.456c0-.2453.0427-.5013.128-.768.0853-.2773.2187-.544.4-.8s.4107-.5013.688-.736.608-.4427.992-.624c-.864-.4587-1.5467-1.0667-2.048-1.824-.4907-.7573-.736-1.6373-.736-2.64 0-.832.176-1.5787.528-2.24.352-.672.832-1.2373 1.44-1.696.6187-.4693 1.344-.8267 2.176-1.072.832-.256 1.7333-.384 2.704-.384zm3.68 17.488c0-.2667-.0853-.48-.256-.64-.16-.16-.384-.288-.672-.384-.2773-.096-.608-.1653-.992-.208-.3733-.0427-.7787-.0747-1.216-.096s-.8907-.0373-1.36-.048c-.4693-.0213-.9333-.0587-1.392-.112-.3093.2133-.5653.4533-.768.72-.192.256-.288.5493-.288.88 0 .2347.048.448.144.64.1067.192.288.3573.544.496s.5973.2453 1.024.32c.4373.0853.9867.128 1.648.128.7147 0 1.3013-.0427 1.76-.128s.8213-.2027 1.088-.352c.2773-.1493.4693-.3307.576-.544.1067-.2027.16-.4267.16-.672zm-3.68-9.776c.8213 0 1.4133-.2027 1.776-.608.3733-.416.56-.9493.56-1.6 0-.672-.1867-1.2-.56-1.584-.3627-.384-.9547-.576-1.776-.576s-1.4187.192-1.792.576c-.3627.384-.544.912-.544 1.584 0 .32.0427.6133.128.88.096.2667.24.5013.432.704.192.192.432.3467.72.464.2987.1067.6507.16 1.056.16zm18.457 9.168v-13.184l-1.088-.224c-.373-.0853-.677-.2187-.912-.4-.224-.1813-.336-.448-.336-.8v-1.952h2.336v-.944c0-.9493.15-1.808.448-2.576.31-.768.747-1.424 1.312-1.968.576-.544 1.275-.96533 2.096-1.264.822-.29867 1.755-.448 2.8-.448.406 0 .779.02667 1.12.08.352.04267.715.11733 1.088.224l-.096 2.416c-.01.1707-.058.3147-.144.432-.074.1067-.17.1973-.288.272-.117.064-.25.112-.4.144-.138.032-.277.048-.416.048-.437 0-.826.0427-1.168.128-.341.0853-.629.24-.864.464-.224.2133-.394.5013-.512.864-.117.352-.176.8-.176 1.344v.784h3.904v3.392h-3.744v13.168zm18.57-16.848c1.259 0 2.406.1973 3.44.592 1.035.3947 1.92.96 2.656 1.696.747.736 1.323 1.632 1.728 2.688.416 1.0453.624 2.224.624 3.536 0 1.3227-.208 2.5173-.624 3.584-.405 1.056-.981 1.9573-1.728 2.704-.736.736-1.621 1.3067-2.656 1.712-1.034.3947-2.181.592-3.44.592-1.269 0-2.426-.1973-3.472-.592-1.034-.4053-1.93-.976-2.688-1.712-.746-.7467-1.328-1.648-1.744-2.704-.405-1.0667-.608-2.2613-.608-3.584 0-1.312.203-2.4907.608-3.536.416-1.056.998-1.952 1.744-2.688.758-.736 1.654-1.3013 2.688-1.696 1.046-.3947 2.203-.592 3.472-.592zm0 13.424c1.142 0 1.979-.4 2.512-1.2.544-.8107.816-2.0373.816-3.68s-.272-2.864-.816-3.664c-.533-.8-1.37-1.2-2.512-1.2-1.173 0-2.032.4-2.576 1.2s-.816 2.0213-.816 3.664.272 2.8693.816 3.68c.544.8 1.403 1.2 2.576 1.2zm11.491 3.424v-16.592h2.944c.245 0 .448.0213.608.064.17.0427.309.112.416.208.117.0853.202.2027.256.352.064.1493.117.3307.16.544l.272 1.552c.608-.9387 1.29-1.68 2.048-2.224.757-.544 1.584-.816 2.48-.816.757 0 1.365.1813 1.824.544l-.64 3.648c-.043.224-.128.384-.256.48-.128.0853-.299.128-.512.128-.182 0-.395-.0213-.64-.064-.246-.0533-.555-.08-.928-.08-1.302 0-2.326.6933-3.072 2.08v10.176zm31.502 0c-.469 0-.827-.064-1.072-.192-.235-.128-.432-.3947-.592-.8l-.352-.912c-.416.352-.816.6613-1.2.928s-.784.496-1.2.688c-.405.1813-.843.3147-1.312.4-.459.096-.971.144-1.536.144-.757 0-1.445-.096-2.064-.288-.619-.2027-1.147-.496-1.584-.88-.427-.384-.757-.8587-.992-1.424-.235-.576-.352-1.2373-.352-1.984 0-.5867.149-1.1893.448-1.808s.816-1.1787 1.552-1.68c.736-.512 1.728-.9387 2.976-1.28s2.821-.5333 4.72-.576v-.704c0-.9707-.203-1.6693-.608-2.096-.395-.4373-.96-.656-1.696-.656-.587 0-1.067.064-1.44.192s-.709.272-1.008.432c-.288.16-.571.304-.848.432s-.608.192-.992.192c-.341 0-.635-.08-.88-.24-.235-.1707-.421-.3787-.56-.624l-.896-1.552c1.003-.8853 2.112-1.5413 3.328-1.968 1.227-.4373 2.539-.656 3.936-.656 1.003 0 1.904.1653 2.704.496.811.32 1.493.7733 2.048 1.36.565.576.997 1.264 1.296 2.064s.448 1.6747.448 2.624v10.368zm-5.696-3.024c.64 0 1.2-.112 1.68-.336s.965-.5867 1.456-1.088v-2.304c-.992.0427-1.808.128-2.448.256s-1.147.288-1.52.48-.635.4107-.784.656c-.139.2453-.208.512-.208.8 0 .5653.155.9653.464 1.2.309.224.763.336 1.36.336zm19.054 3.024v-13.184l-1.088-.224c-.374-.0853-.678-.2187-.912-.4-.224-.1813-.336-.448-.336-.8v-1.952h2.336v-.944c0-.9493.149-1.808.448-2.576.309-.768.746-1.424 1.312-1.968.576-.544 1.274-.96533 2.096-1.264.821-.29867 1.754-.448 2.8-.448.405 0 .778.02667 1.12.08.352.04267.714.11733 1.088.224l-.096 2.416c-.011.1707-.059.3147-.144.432-.075.1067-.171.1973-.288.272-.118.064-.251.112-.4.144-.139.032-.278.048-.416.048-.438 0-.827.0427-1.168.128-.342.0853-.63.24-.864.464-.224.2133-.395.5013-.512.864-.118.352-.176.8-.176 1.344v.784h3.904v3.392h-3.744v13.168zm15.817-16.592v10.528c0 .8213.187 1.456.56 1.904.374.448.923.672 1.648.672.544 0 1.051-.112 1.52-.336.48-.224.944-.5387 1.392-.944v-11.824h4.96v16.592h-3.072c-.618 0-1.024-.2773-1.216-.832l-.304-.96c-.32.3093-.65.592-.992.848-.341.2453-.709.4587-1.104.64-.384.1707-.8.304-1.248.4-.448.1067-.938.16-1.472.16-.906 0-1.712-.1547-2.416-.464-.693-.32-1.28-.7627-1.76-1.328s-.842-1.232-1.088-2c-.245-.768-.368-1.6107-.368-2.528v-10.528zm19.363-7.36v23.952h-4.96v-23.952zm9.445 0v23.952h-4.96v-23.952zm4.005 12.224h8.64v4h-8.64zm18.307 11.984c-.789 0-1.488-.112-2.096-.336-.597-.2347-1.104-.56-1.52-.976-.405-.4267-.714-.9387-.928-1.536-.213-.5973-.32-1.264-.32-2v-8.576h-1.408c-.256 0-.474-.08-.656-.24-.181-.1707-.272-.416-.272-.736v-1.936l2.64-.512.976-4.048c.128-.512.491-.768 1.088-.768h2.592v4.848h4.032v3.392h-4.032v8.24c0 .384.091.704.272.96.192.2453.464.368.816.368.182 0 .331-.016.448-.048.128-.0427.235-.0853.32-.128.096-.0533.182-.096.256-.128.086-.0427.182-.064.288-.064.15 0 .267.0373.352.112.096.064.192.1707.288.32l1.504 2.352c-.64.48-1.36.8427-2.16 1.088-.8.2347-1.626.352-2.48.352zm12.429-16.848v16.592h-4.96v-16.592zm.576-4.544c0 .3947-.08.768-.24 1.12-.16.3413-.379.6453-.656.912-.277.256-.603.464-.976.624-.363.1493-.752.224-1.168.224-.405 0-.784-.0747-1.136-.224-.352-.16-.667-.368-.944-.624-.267-.2667-.48-.5707-.64-.912-.149-.352-.224-.7253-.224-1.12 0-.40533.075-.784.224-1.136.16-.352.373-.66133.64-.928.277-.26667.592-.47467.944-.624s.731-.224 1.136-.224c.416 0 .805.07467 1.168.224.373.14933.699.35733.976.624s.496.576.656.928.24.73067.24 1.136zm3.749 21.136v-16.592h3.072c.309 0 .565.0693.768.208.213.1387.363.3467.448.624l.272.896c.277-.288.565-.5493.864-.784.299-.2453.619-.4533.96-.624.352-.1813.725-.32 1.12-.416.405-.1067.848-.16 1.328-.16 1.003 0 1.829.2613 2.48.784.661.512 1.163 1.2 1.504 2.064.277-.512.613-.9493 1.008-1.312.405-.3627.837-.656 1.296-.88.469-.224.96-.3893 1.472-.496.523-.1067 1.04-.16 1.552-.16.949 0 1.792.144 2.528.432.736.2773 1.349.688 1.84 1.232.501.5333.88 1.1947 1.136 1.984.256.7787.384 1.664.384 2.656v10.544h-4.96v-10.544c0-1.7173-.736-2.576-2.208-2.576-.672 0-1.232.224-1.68.672-.437.4373-.656 1.072-.656 1.904v10.544h-4.96v-10.544c0-.9493-.187-1.616-.56-2s-.923-.576-1.648-.576c-.448 0-.875.1013-1.28.304-.395.2027-.768.4747-1.12.816v12zm34.987-16.848c1.098 0 2.101.1707 3.008.512.917.3413 1.701.8373 2.352 1.488.661.6507 1.173 1.4507 1.536 2.4.373.9387.56 2.0053.56 3.2 0 .3733-.016.6773-.048.912s-.091.4213-.176.56c-.086.1387-.203.2347-.352.288-.139.0533-.32.08-.544.08h-9.568c.16 1.3867.581 2.3947 1.264 3.024.682.6187 1.562.928 2.64.928.576 0 1.072-.0693 1.488-.208s.784-.2933 1.104-.464c.33-.1707.629-.3253.896-.464.277-.1387.565-.208.864-.208.394 0 .693.144.896.432l1.44 1.776c-.512.5867-1.067 1.0667-1.664 1.44-.587.3627-1.195.6507-1.824.864-.619.2027-1.243.3413-1.872.416-.619.0853-1.211.128-1.776.128-1.163 0-2.256-.1867-3.28-.56-1.014-.384-1.904-.9493-2.672-1.696-.758-.7467-1.36-1.6747-1.808-2.784-.438-1.1093-.656-2.4-.656-3.872 0-1.1093.186-2.16.56-3.152.384-.992.928-1.8613 1.632-2.608.714-.7467 1.573-1.3387 2.576-1.776 1.013-.4373 2.154-.656 3.424-.656zm.096 3.424c-.95 0-1.691.272-2.224.816-.534.5333-.886 1.3067-1.056 2.32h6.192c0-.3947-.054-.7787-.16-1.152-.096-.3733-.262-.704-.496-.992-.224-.2987-.523-.5387-.896-.72-.374-.1813-.827-.272-1.36-.272zm16.393 10.912c0-.384.07-.7413.208-1.072.15-.3307.347-.6187.592-.864.256-.2453.555-.4373.896-.576.342-.1493.715-.224 1.12-.224.395 0 .763.0747 1.104.224.342.1387.64.3307.896.576s.454.5333.592.864c.15.3307.224.688.224 1.072s-.074.7467-.224 1.088c-.138.3307-.336.6187-.592.864s-.554.4373-.896.576c-.341.1387-.709.208-1.104.208-.405 0-.778-.0693-1.12-.208-.341-.1387-.64-.3307-.896-.576-.245-.2453-.442-.5333-.592-.864-.138-.3413-.208-.704-.208-1.088zm10.763 0c0-.384.069-.7413.208-1.072.149-.3307.346-.6187.592-.864.256-.2453.554-.4373.896-.576.341-.1493.714-.224 1.12-.224.394 0 .762.0747 1.104.224.341.1387.64.3307.896.576s.453.5333.592.864c.149.3307.224.688.224 1.072s-.075.7467-.224 1.088c-.139.3307-.336.6187-.592.864s-.555.4373-.896.576c-.342.1387-.71.208-1.104.208-.406 0-.779-.0693-1.12-.208-.342-.1387-.64-.3307-.896-.576-.246-.2453-.443-.5333-.592-.864-.139-.3413-.208-.704-.208-1.088zm10.762 0c0-.384.07-.7413.208-1.072.15-.3307.347-.6187.592-.864.256-.2453.555-.4373.896-.576.342-.1493.715-.224 1.12-.224.395 0 .763.0747 1.104.224.342.1387.64.3307.896.576s.454.5333.592.864c.15.3307.224.688.224 1.072s-.074.7467-.224 1.088c-.138.3307-.336.6187-.592.864s-.554.4373-.896.576c-.341.1387-.709.208-1.104.208-.405 0-.778-.0693-1.12-.208-.341-.1387-.64-.3307-.896-.576-.245-.2453-.442-.5333-.592-.864-.138-.3413-.208-.704-.208-1.088z" fill="#121111"/></svg>