<svg width="201" height="25" viewBox="0 0 201 25" fill="none" xmlns="http://www.w3.org/2000/svg">
<path d="M4.72 0.538999V20H0.69V0.538999H4.72ZM17.5421 20C17.1607 20 16.8704 19.948 16.6711 19.844C16.4804 19.74 16.3201 19.5233 16.1901 19.194L15.9041 18.453C15.5661 18.739 15.2411 18.9903 14.9291 19.207C14.6171 19.4237 14.2921 19.61 13.9541 19.766C13.6247 19.9133 13.2694 20.0217 12.8881 20.091C12.5154 20.169 12.0994 20.208 11.6401 20.208C11.0247 20.208 10.4657 20.13 9.96306 19.974C9.4604 19.8093 9.0314 19.571 8.67606 19.259C8.3294 18.947 8.06073 18.5613 7.87006 18.102C7.6794 17.634 7.58406 17.0967 7.58406 16.49C7.58406 16.0133 7.7054 15.5237 7.94806 15.021C8.19073 14.5183 8.61106 14.0633 9.20906 13.656C9.80706 13.24 10.6131 12.8933 11.6271 12.616C12.6411 12.3387 13.9194 12.1827 15.4621 12.148V11.576C15.4621 10.7873 15.2974 10.2197 14.9681 9.873C14.6474 9.51767 14.1881 9.34 13.5901 9.34C13.1134 9.34 12.7234 9.392 12.4201 9.496C12.1167 9.6 11.8437 9.717 11.6011 9.847C11.3671 9.977 11.1374 10.094 10.9121 10.198C10.6867 10.302 10.4181 10.354 10.1061 10.354C9.82873 10.354 9.5904 10.289 9.39106 10.159C9.2004 10.0203 9.04873 9.85133 8.93606 9.652L8.20806 8.391C9.02273 7.67167 9.92406 7.13867 10.9121 6.792C11.9087 6.43667 12.9747 6.259 14.1101 6.259C14.9247 6.259 15.6571 6.39333 16.3071 6.662C16.9657 6.922 17.5204 7.29033 17.9711 7.767C18.4304 8.235 18.7814 8.794 19.0241 9.444C19.2667 10.094 19.3881 10.8047 19.3881 11.576V20H17.5421ZM12.9141 17.543C13.4341 17.543 13.8891 17.452 14.2791 17.27C14.6691 17.088 15.0634 16.7933 15.4621 16.386V14.514C14.6561 14.5487 13.9931 14.618 13.4731 14.722C12.9531 14.826 12.5414 14.956 12.2381 15.112C11.9347 15.268 11.7224 15.4457 11.6011 15.645C11.4884 15.8443 11.4321 16.061 11.4321 16.295C11.4321 16.7543 11.5577 17.0793 11.8091 17.27C12.0604 17.452 12.4287 17.543 12.9141 17.543ZM22.5097 20V6.519H25.0057C25.257 6.519 25.465 6.57533 25.6297 6.688C25.803 6.80067 25.9244 6.96967 25.9937 7.195L26.2277 7.975C26.4877 7.73233 26.7564 7.507 27.0337 7.299C27.311 7.091 27.6057 6.91767 27.9177 6.779C28.2384 6.63167 28.5807 6.519 28.9447 6.441C29.3174 6.35433 29.7204 6.311 30.1537 6.311C30.8904 6.311 31.5404 6.441 32.1037 6.701C32.6757 6.95233 33.1567 7.30767 33.5467 7.767C33.9367 8.21767 34.2314 8.75933 34.4307 9.392C34.63 10.016 34.7297 10.6963 34.7297 11.433V20H30.6997V11.433C30.6997 10.7743 30.548 10.263 30.2447 9.899C29.9414 9.52633 29.495 9.34 28.9057 9.34C28.4637 9.34 28.0477 9.43533 27.6577 9.626C27.2677 9.81667 26.895 10.0723 26.5397 10.393V20H22.5097ZM42.6097 6.285C43.1817 6.285 43.7191 6.34133 44.2217 6.454C44.7331 6.56667 45.2054 6.727 45.6387 6.935H49.7077V8.404C49.7077 8.62933 49.6427 8.807 49.5127 8.937C49.3914 9.067 49.1791 9.16667 48.8757 9.236L47.8877 9.457C48.0091 9.847 48.0697 10.25 48.0697 10.666C48.0697 11.342 47.9267 11.9487 47.6407 12.486C47.3634 13.0233 46.9777 13.4827 46.4837 13.864C45.9984 14.2367 45.4221 14.527 44.7547 14.735C44.0874 14.9343 43.3724 15.034 42.6097 15.034C42.1851 15.034 41.7864 15.008 41.4137 14.956C41.1191 15.1293 40.9717 15.3287 40.9717 15.554C40.9717 15.7793 41.0887 15.944 41.3227 16.048C41.5654 16.1433 41.8817 16.2127 42.2717 16.256C42.6617 16.2907 43.1081 16.3167 43.6107 16.334C44.1134 16.3427 44.6247 16.373 45.1447 16.425C45.6647 16.4683 46.1761 16.5463 46.6787 16.659C47.1814 16.7717 47.6277 16.9537 48.0177 17.205C48.4077 17.4563 48.7197 17.7943 48.9537 18.219C49.1964 18.635 49.3177 19.168 49.3177 19.818C49.3177 20.4247 49.1704 21.0183 48.8757 21.599C48.5811 22.1797 48.1477 22.6953 47.5757 23.146C47.0037 23.5967 46.3017 23.9563 45.4697 24.225C44.6377 24.5023 43.6844 24.641 42.6097 24.641C41.5524 24.641 40.6381 24.5413 39.8667 24.342C39.1041 24.1427 38.4671 23.8783 37.9557 23.549C37.4531 23.2283 37.0804 22.8557 36.8377 22.431C36.5951 22.0063 36.4737 21.5643 36.4737 21.105C36.4737 20.507 36.6557 20.0043 37.0197 19.597C37.3837 19.181 37.8821 18.856 38.5147 18.622C38.2114 18.4227 37.9687 18.167 37.7867 17.855C37.6047 17.543 37.5137 17.1487 37.5137 16.672C37.5137 16.4727 37.5484 16.2647 37.6177 16.048C37.6871 15.8227 37.7954 15.606 37.9427 15.398C38.0901 15.19 38.2764 14.9907 38.5017 14.8C38.7271 14.6093 38.9957 14.4403 39.3077 14.293C38.6057 13.9203 38.0511 13.4263 37.6437 12.811C37.2451 12.1957 37.0457 11.4807 37.0457 10.666C37.0457 9.99 37.1887 9.38333 37.4747 8.846C37.7607 8.3 38.1507 7.84067 38.6447 7.468C39.1474 7.08667 39.7367 6.79633 40.4127 6.597C41.0887 6.389 41.8211 6.285 42.6097 6.285ZM45.5997 20.494C45.5997 20.2773 45.5304 20.104 45.3917 19.974C45.2617 19.844 45.0797 19.74 44.8457 19.662C44.6204 19.584 44.3517 19.5277 44.0397 19.493C43.7364 19.4583 43.4071 19.4323 43.0517 19.415C42.6964 19.3977 42.3281 19.3847 41.9467 19.376C41.5654 19.3587 41.1884 19.3283 40.8157 19.285C40.5644 19.4583 40.3564 19.6533 40.1917 19.87C40.0357 20.078 39.9577 20.3163 39.9577 20.585C39.9577 20.7757 39.9967 20.949 40.0747 21.105C40.1614 21.261 40.3087 21.3953 40.5167 21.508C40.7247 21.6207 41.0021 21.7073 41.3487 21.768C41.7041 21.8373 42.1504 21.872 42.6877 21.872C43.2684 21.872 43.7451 21.8373 44.1177 21.768C44.4904 21.6987 44.7851 21.6033 45.0017 21.482C45.2271 21.3607 45.3831 21.2133 45.4697 21.04C45.5564 20.8753 45.5997 20.6933 45.5997 20.494ZM42.6097 12.551C43.2771 12.551 43.7581 12.3863 44.0527 12.057C44.3561 11.719 44.5077 11.2857 44.5077 10.757C44.5077 10.211 44.3561 9.782 44.0527 9.47C43.7581 9.158 43.2771 9.002 42.6097 9.002C41.9424 9.002 41.4571 9.158 41.1537 9.47C40.8591 9.782 40.7117 10.211 40.7117 10.757C40.7117 11.017 40.7464 11.2553 40.8157 11.472C40.8937 11.6887 41.0107 11.8793 41.1667 12.044C41.3227 12.2 41.5177 12.3257 41.7517 12.421C41.9944 12.5077 42.2804 12.551 42.6097 12.551ZM55.4911 6.519V15.073C55.4911 15.7403 55.6428 16.256 55.9461 16.62C56.2494 16.984 56.6958 17.166 57.2851 17.166C57.7271 17.166 58.1388 17.075 58.5201 16.893C58.9101 16.711 59.2871 16.4553 59.6511 16.126V6.519H63.6811V20H61.1851C60.6824 20 60.3531 19.7747 60.1971 19.324L59.9501 18.544C59.6901 18.7953 59.4214 19.025 59.1441 19.233C58.8668 19.4323 58.5678 19.6057 58.2471 19.753C57.9351 19.8917 57.5971 20 57.2331 20.078C56.8691 20.1647 56.4704 20.208 56.0371 20.208C55.3004 20.208 54.6461 20.0823 54.0741 19.831C53.5108 19.571 53.0341 19.2113 52.6441 18.752C52.2541 18.2927 51.9594 17.751 51.7601 17.127C51.5608 16.503 51.4611 15.8183 51.4611 15.073V6.519H55.4911ZM76.3711 20C75.9898 20 75.6995 19.948 75.5001 19.844C75.3095 19.74 75.1491 19.5233 75.0191 19.194L74.7331 18.453C74.3951 18.739 74.0701 18.9903 73.7581 19.207C73.4461 19.4237 73.1211 19.61 72.7831 19.766C72.4538 19.9133 72.0985 20.0217 71.7171 20.091C71.3445 20.169 70.9285 20.208 70.4691 20.208C69.8538 20.208 69.2948 20.13 68.7921 19.974C68.2895 19.8093 67.8605 19.571 67.5051 19.259C67.1585 18.947 66.8898 18.5613 66.6991 18.102C66.5085 17.634 66.4131 17.0967 66.4131 16.49C66.4131 16.0133 66.5345 15.5237 66.7771 15.021C67.0198 14.5183 67.4401 14.0633 68.0381 13.656C68.6361 13.24 69.4421 12.8933 70.4561 12.616C71.4701 12.3387 72.7485 12.1827 74.2911 12.148V11.576C74.2911 10.7873 74.1265 10.2197 73.7971 9.873C73.4765 9.51767 73.0171 9.34 72.4191 9.34C71.9425 9.34 71.5525 9.392 71.2491 9.496C70.9458 9.6 70.6728 9.717 70.4301 9.847C70.1961 9.977 69.9665 10.094 69.7411 10.198C69.5158 10.302 69.2471 10.354 68.9351 10.354C68.6578 10.354 68.4195 10.289 68.2201 10.159C68.0295 10.0203 67.8778 9.85133 67.7651 9.652L67.0371 8.391C67.8518 7.67167 68.7531 7.13867 69.7411 6.792C70.7378 6.43667 71.8038 6.259 72.9391 6.259C73.7538 6.259 74.4861 6.39333 75.1361 6.662C75.7948 6.922 76.3495 7.29033 76.8001 7.767C77.2595 8.235 77.6105 8.794 77.8531 9.444C78.0958 10.094 78.2171 10.8047 78.2171 11.576V20H76.3711ZM71.7431 17.543C72.2631 17.543 72.7181 17.452 73.1081 17.27C73.4981 17.088 73.8925 16.7933 74.2911 16.386V14.514C73.4851 14.5487 72.8221 14.618 72.3021 14.722C71.7821 14.826 71.3705 14.956 71.0671 15.112C70.7638 15.268 70.5515 15.4457 70.4301 15.645C70.3175 15.8443 70.2611 16.061 70.2611 16.295C70.2611 16.7543 70.3868 17.0793 70.6381 17.27C70.8895 17.452 71.2578 17.543 71.7431 17.543ZM86.0967 6.285C86.6687 6.285 87.2061 6.34133 87.7087 6.454C88.2201 6.56667 88.6924 6.727 89.1257 6.935H93.1947V8.404C93.1947 8.62933 93.1297 8.807 92.9997 8.937C92.8784 9.067 92.6661 9.16667 92.3627 9.236L91.3747 9.457C91.4961 9.847 91.5567 10.25 91.5567 10.666C91.5567 11.342 91.4137 11.9487 91.1277 12.486C90.8504 13.0233 90.4647 13.4827 89.9707 13.864C89.4854 14.2367 88.9091 14.527 88.2417 14.735C87.5744 14.9343 86.8594 15.034 86.0967 15.034C85.6721 15.034 85.2734 15.008 84.9007 14.956C84.6061 15.1293 84.4587 15.3287 84.4587 15.554C84.4587 15.7793 84.5757 15.944 84.8097 16.048C85.0524 16.1433 85.3687 16.2127 85.7587 16.256C86.1487 16.2907 86.5951 16.3167 87.0977 16.334C87.6004 16.3427 88.1117 16.373 88.6317 16.425C89.1517 16.4683 89.6631 16.5463 90.1657 16.659C90.6684 16.7717 91.1147 16.9537 91.5047 17.205C91.8947 17.4563 92.2067 17.7943 92.4407 18.219C92.6834 18.635 92.8047 19.168 92.8047 19.818C92.8047 20.4247 92.6574 21.0183 92.3627 21.599C92.0681 22.1797 91.6347 22.6953 91.0627 23.146C90.4907 23.5967 89.7887 23.9563 88.9567 24.225C88.1247 24.5023 87.1714 24.641 86.0967 24.641C85.0394 24.641 84.1251 24.5413 83.3537 24.342C82.5911 24.1427 81.9541 23.8783 81.4427 23.549C80.9401 23.2283 80.5674 22.8557 80.3247 22.431C80.0821 22.0063 79.9607 21.5643 79.9607 21.105C79.9607 20.507 80.1427 20.0043 80.5067 19.597C80.8707 19.181 81.3691 18.856 82.0017 18.622C81.6984 18.4227 81.4557 18.167 81.2737 17.855C81.0917 17.543 81.0007 17.1487 81.0007 16.672C81.0007 16.4727 81.0354 16.2647 81.1047 16.048C81.1741 15.8227 81.2824 15.606 81.4297 15.398C81.5771 15.19 81.7634 14.9907 81.9887 14.8C82.2141 14.6093 82.4827 14.4403 82.7947 14.293C82.0927 13.9203 81.5381 13.4263 81.1307 12.811C80.7321 12.1957 80.5327 11.4807 80.5327 10.666C80.5327 9.99 80.6757 9.38333 80.9617 8.846C81.2477 8.3 81.6377 7.84067 82.1317 7.468C82.6344 7.08667 83.2237 6.79633 83.8997 6.597C84.5757 6.389 85.3081 6.285 86.0967 6.285ZM89.0867 20.494C89.0867 20.2773 89.0174 20.104 88.8787 19.974C88.7487 19.844 88.5667 19.74 88.3327 19.662C88.1074 19.584 87.8387 19.5277 87.5267 19.493C87.2234 19.4583 86.8941 19.4323 86.5387 19.415C86.1834 19.3977 85.8151 19.3847 85.4337 19.376C85.0524 19.3587 84.6754 19.3283 84.3027 19.285C84.0514 19.4583 83.8434 19.6533 83.6787 19.87C83.5227 20.078 83.4447 20.3163 83.4447 20.585C83.4447 20.7757 83.4837 20.949 83.5617 21.105C83.6484 21.261 83.7957 21.3953 84.0037 21.508C84.2117 21.6207 84.4891 21.7073 84.8357 21.768C85.1911 21.8373 85.6374 21.872 86.1747 21.872C86.7554 21.872 87.2321 21.8373 87.6047 21.768C87.9774 21.6987 88.2721 21.6033 88.4887 21.482C88.7141 21.3607 88.8701 21.2133 88.9567 21.04C89.0434 20.8753 89.0867 20.6933 89.0867 20.494ZM86.0967 12.551C86.7641 12.551 87.2451 12.3863 87.5397 12.057C87.8431 11.719 87.9947 11.2857 87.9947 10.757C87.9947 10.211 87.8431 9.782 87.5397 9.47C87.2451 9.158 86.7641 9.002 86.0967 9.002C85.4294 9.002 84.9441 9.158 84.6407 9.47C84.3461 9.782 84.1987 10.211 84.1987 10.757C84.1987 11.017 84.2334 11.2553 84.3027 11.472C84.3807 11.6887 84.4977 11.8793 84.6537 12.044C84.8097 12.2 85.0047 12.3257 85.2387 12.421C85.4814 12.5077 85.7674 12.551 86.0967 12.551ZM100.98 6.311C101.873 6.311 102.687 6.44967 103.424 6.727C104.169 7.00433 104.806 7.40733 105.335 7.936C105.872 8.46467 106.288 9.11467 106.583 9.886C106.886 10.6487 107.038 11.5153 107.038 12.486C107.038 12.7893 107.025 13.0363 106.999 13.227C106.973 13.4177 106.925 13.5693 106.856 13.682C106.787 13.7947 106.691 13.8727 106.57 13.916C106.457 13.9593 106.31 13.981 106.128 13.981H98.3541C98.4841 15.1077 98.8265 15.9267 99.3811 16.438C99.9358 16.9407 100.651 17.192 101.526 17.192C101.994 17.192 102.397 17.1357 102.735 17.023C103.073 16.9103 103.372 16.7847 103.632 16.646C103.901 16.5073 104.143 16.3817 104.36 16.269C104.585 16.1563 104.819 16.1 105.062 16.1C105.383 16.1 105.625 16.217 105.79 16.451L106.96 17.894C106.544 18.3707 106.093 18.7607 105.608 19.064C105.131 19.3587 104.637 19.5927 104.126 19.766C103.623 19.9307 103.116 20.0433 102.605 20.104C102.102 20.1733 101.621 20.208 101.162 20.208C100.217 20.208 99.3291 20.0563 98.4971 19.753C97.6738 19.441 96.9501 18.9817 96.3261 18.375C95.7108 17.7683 95.2211 17.0143 94.8571 16.113C94.5018 15.2117 94.3241 14.163 94.3241 12.967C94.3241 12.0657 94.4758 11.212 94.7791 10.406C95.0911 9.6 95.5331 8.89367 96.1051 8.287C96.6858 7.68033 97.3835 7.19933 98.1981 6.844C99.0215 6.48867 99.9488 6.311 100.98 6.311ZM101.058 9.093C100.287 9.093 99.6845 9.314 99.2511 9.756C98.8178 10.1893 98.5318 10.8177 98.3931 11.641H103.424C103.424 11.3203 103.381 11.0083 103.294 10.705C103.216 10.4017 103.082 10.133 102.891 9.899C102.709 9.65633 102.466 9.46133 102.163 9.314C101.86 9.16667 101.491 9.093 101.058 9.093ZM119.058 0.538999V20H115.028V0.538999H119.058ZM128.344 6.311C129.237 6.311 130.051 6.44967 130.788 6.727C131.533 7.00433 132.17 7.40733 132.699 7.936C133.236 8.46467 133.652 9.11467 133.947 9.886C134.25 10.6487 134.402 11.5153 134.402 12.486C134.402 12.7893 134.389 13.0363 134.363 13.227C134.337 13.4177 134.289 13.5693 134.22 13.682C134.151 13.7947 134.055 13.8727 133.934 13.916C133.821 13.9593 133.674 13.981 133.492 13.981H125.718C125.848 15.1077 126.19 15.9267 126.745 16.438C127.3 16.9407 128.015 17.192 128.89 17.192C129.358 17.192 129.761 17.1357 130.099 17.023C130.437 16.9103 130.736 16.7847 130.996 16.646C131.265 16.5073 131.507 16.3817 131.724 16.269C131.949 16.1563 132.183 16.1 132.426 16.1C132.747 16.1 132.989 16.217 133.154 16.451L134.324 17.894C133.908 18.3707 133.457 18.7607 132.972 19.064C132.495 19.3587 132.001 19.5927 131.49 19.766C130.987 19.9307 130.48 20.0433 129.969 20.104C129.466 20.1733 128.985 20.208 128.526 20.208C127.581 20.208 126.693 20.0563 125.861 19.753C125.038 19.441 124.314 18.9817 123.69 18.375C123.075 17.7683 122.585 17.0143 122.221 16.113C121.866 15.2117 121.688 14.163 121.688 12.967C121.688 12.0657 121.84 11.212 122.143 10.406C122.455 9.6 122.897 8.89367 123.469 8.287C124.05 7.68033 124.747 7.19933 125.562 6.844C126.385 6.48867 127.313 6.311 128.344 6.311ZM128.422 9.093C127.651 9.093 127.048 9.314 126.615 9.756C126.182 10.1893 125.896 10.8177 125.757 11.641H130.788C130.788 11.3203 130.745 11.0083 130.658 10.705C130.58 10.4017 130.446 10.133 130.255 9.899C130.073 9.65633 129.83 9.46133 129.527 9.314C129.224 9.16667 128.855 9.093 128.422 9.093ZM146.283 20C145.901 20 145.611 19.948 145.412 19.844C145.221 19.74 145.061 19.5233 144.931 19.194L144.645 18.453C144.307 18.739 143.982 18.9903 143.67 19.207C143.358 19.4237 143.033 19.61 142.695 19.766C142.365 19.9133 142.01 20.0217 141.629 20.091C141.256 20.169 140.84 20.208 140.381 20.208C139.765 20.208 139.206 20.13 138.704 19.974C138.201 19.8093 137.772 19.571 137.417 19.259C137.07 18.947 136.801 18.5613 136.611 18.102C136.42 17.634 136.325 17.0967 136.325 16.49C136.325 16.0133 136.446 15.5237 136.689 15.021C136.931 14.5183 137.352 14.0633 137.95 13.656C138.548 13.24 139.354 12.8933 140.368 12.616C141.382 12.3387 142.66 12.1827 144.203 12.148V11.576C144.203 10.7873 144.038 10.2197 143.709 9.873C143.388 9.51767 142.929 9.34 142.331 9.34C141.854 9.34 141.464 9.392 141.161 9.496C140.857 9.6 140.584 9.717 140.342 9.847C140.108 9.977 139.878 10.094 139.653 10.198C139.427 10.302 139.159 10.354 138.847 10.354C138.569 10.354 138.331 10.289 138.132 10.159C137.941 10.0203 137.789 9.85133 137.677 9.652L136.949 8.391C137.763 7.67167 138.665 7.13867 139.653 6.792C140.649 6.43667 141.715 6.259 142.851 6.259C143.665 6.259 144.398 6.39333 145.048 6.662C145.706 6.922 146.261 7.29033 146.712 7.767C147.171 8.235 147.522 8.794 147.765 9.444C148.007 10.094 148.129 10.8047 148.129 11.576V20H146.283ZM141.655 17.543C142.175 17.543 142.63 17.452 143.02 17.27C143.41 17.088 143.804 16.7933 144.203 16.386V14.514C143.397 14.5487 142.734 14.618 142.214 14.722C141.694 14.826 141.282 14.956 140.979 15.112C140.675 15.268 140.463 15.4457 140.342 15.645C140.229 15.8443 140.173 16.061 140.173 16.295C140.173 16.7543 140.298 17.0793 140.55 17.27C140.801 17.452 141.169 17.543 141.655 17.543ZM151.25 20V6.519H153.642C153.842 6.519 154.006 6.53633 154.136 6.571C154.275 6.60567 154.388 6.662 154.474 6.74C154.57 6.80933 154.639 6.90467 154.682 7.026C154.734 7.14733 154.778 7.29467 154.812 7.468L155.033 8.729C155.527 7.96633 156.082 7.364 156.697 6.922C157.313 6.48 157.984 6.259 158.712 6.259C159.328 6.259 159.822 6.40633 160.194 6.701L159.674 9.665C159.64 9.847 159.57 9.977 159.466 10.055C159.362 10.1243 159.224 10.159 159.05 10.159C158.903 10.159 158.73 10.1417 158.53 10.107C158.331 10.0637 158.08 10.042 157.776 10.042C156.719 10.042 155.887 10.6053 155.28 11.732V20H151.25ZM162.251 20V6.519H164.747C164.998 6.519 165.206 6.57533 165.371 6.688C165.544 6.80067 165.665 6.96967 165.735 7.195L165.969 7.975C166.229 7.73233 166.497 7.507 166.775 7.299C167.052 7.091 167.347 6.91767 167.659 6.779C167.979 6.63167 168.322 6.519 168.686 6.441C169.058 6.35433 169.461 6.311 169.895 6.311C170.631 6.311 171.281 6.441 171.845 6.701C172.417 6.95233 172.898 7.30767 173.288 7.767C173.678 8.21767 173.972 8.75933 174.172 9.392C174.371 10.016 174.471 10.6963 174.471 11.433V20H170.441V11.433C170.441 10.7743 170.289 10.263 169.986 9.899C169.682 9.52633 169.236 9.34 168.647 9.34C168.205 9.34 167.789 9.43533 167.399 9.626C167.009 9.81667 166.636 10.0723 166.281 10.393V20H162.251ZM183.365 6.311C184.257 6.311 185.072 6.44967 185.809 6.727C186.554 7.00433 187.191 7.40733 187.72 7.936C188.257 8.46467 188.673 9.11467 188.968 9.886C189.271 10.6487 189.423 11.5153 189.423 12.486C189.423 12.7893 189.41 13.0363 189.384 13.227C189.358 13.4177 189.31 13.5693 189.241 13.682C189.171 13.7947 189.076 13.8727 188.955 13.916C188.842 13.9593 188.695 13.981 188.513 13.981H180.739C180.869 15.1077 181.211 15.9267 181.766 16.438C182.32 16.9407 183.035 17.192 183.911 17.192C184.379 17.192 184.782 17.1357 185.12 17.023C185.458 16.9103 185.757 16.7847 186.017 16.646C186.285 16.5073 186.528 16.3817 186.745 16.269C186.97 16.1563 187.204 16.1 187.447 16.1C187.767 16.1 188.01 16.217 188.175 16.451L189.345 17.894C188.929 18.3707 188.478 18.7607 187.993 19.064C187.516 19.3587 187.022 19.5927 186.511 19.766C186.008 19.9307 185.501 20.0433 184.99 20.104C184.487 20.1733 184.006 20.208 183.547 20.208C182.602 20.208 181.714 20.0563 180.882 19.753C180.058 19.441 179.335 18.9817 178.711 18.375C178.095 17.7683 177.606 17.0143 177.242 16.113C176.886 15.2117 176.709 14.163 176.709 12.967C176.709 12.0657 176.86 11.212 177.164 10.406C177.476 9.6 177.918 8.89367 178.49 8.287C179.07 7.68033 179.768 7.19933 180.583 6.844C181.406 6.48867 182.333 6.311 183.365 6.311ZM183.443 9.093C182.671 9.093 182.069 9.314 181.636 9.756C181.202 10.1893 180.916 10.8177 180.778 11.641H185.809C185.809 11.3203 185.765 11.0083 185.679 10.705C185.601 10.4017 185.466 10.133 185.276 9.899C185.094 9.65633 184.851 9.46133 184.548 9.314C184.244 9.16667 183.876 9.093 183.443 9.093ZM191.995 20V6.519H194.387C194.586 6.519 194.751 6.53633 194.881 6.571C195.02 6.60567 195.132 6.662 195.219 6.74C195.314 6.80933 195.384 6.90467 195.427 7.026C195.479 7.14733 195.522 7.29467 195.557 7.468L195.778 8.729C196.272 7.96633 196.827 7.364 197.442 6.922C198.057 6.48 198.729 6.259 199.457 6.259C200.072 6.259 200.566 6.40633 200.939 6.701L200.419 9.665C200.384 9.847 200.315 9.977 200.211 10.055C200.107 10.1243 199.968 10.159 199.795 10.159C199.648 10.159 199.474 10.1417 199.275 10.107C199.076 10.0637 198.824 10.042 198.521 10.042C197.464 10.042 196.632 10.6053 196.025 11.732V20H191.995Z" fill="#121111"/>
</svg>
