<svg fill="none" height="25" viewBox="0 0 201 25" width="201" xmlns="http://www.w3.org/2000/svg"><path d="m4.72.538999v19.461001h-4.03v-19.461001zm12.8221 19.461001c-.3814 0-.6717-.052-.871-.156-.1907-.104-.351-.3207-.481-.65l-.286-.741c-.338.286-.663.5373-.975.754s-.637.403-.975.559c-.3294.1473-.6847.2557-1.066.325-.3727.078-.7887.117-1.248.117-.6154 0-1.1744-.078-1.67704-.234-.50266-.1647-.93166-.403-1.287-.715-.34666-.312-.61533-.6977-.806-1.157-.19066-.468-.286-1.0053-.286-1.612 0-.4767.12134-.9663.364-1.469.24267-.5027.663-.9577 1.261-1.365.598-.416 1.40404-.7627 2.41804-1.04s2.2923-.4333 3.835-.468v-.572c0-.7887-.1647-1.3563-.494-1.703-.3207-.35533-.78-.533-1.378-.533-.4767 0-.8667.052-1.17.156-.3034.104-.5764.221-.819.351-.234.13-.4637.247-.689.351-.2254.104-.494.156-.806.156-.27737 0-.5157-.065-.71504-.195-.19066-.1387-.34233-.30767-.455-.507l-.728-1.261c.81467-.71933 1.716-1.25233 2.70404-1.599.9966-.35533 2.0626-.533 3.198-.533.8146 0 1.547.13433 2.197.403.6586.26 1.2133.62833 1.664 1.105.4593.468.8103 1.027 1.053 1.677.2426.65.364 1.3607.364 2.132v8.424zm-4.628-2.457c.52 0 .975-.091 1.365-.273s.7843-.4767 1.183-.884v-1.872c-.806.0347-1.469.104-1.989.208s-.9317.234-1.235.39c-.3034.156-.5157.3337-.637.533-.1127.1993-.169.416-.169.65 0 .4593.1256.7843.377.975.2513.182.6196.273 1.105.273zm9.5956 2.457v-13.481h2.496c.2513 0 .4593.05633.624.169.1733.11267.2947.28167.364.507l.234.78c.26-.24267.5287-.468.806-.676s.572-.38133.884-.52c.3207-.14733.663-.26 1.027-.338.3727-.08667.7757-.13 1.209-.13.7367 0 1.3867.13 1.95.39.572.25133 1.053.60667 1.443 1.066.39.45067.6847.99233.884 1.625.1993.624.299 1.3043.299 2.041v8.567h-4.03v-8.567c0-.6587-.1517-1.17-.455-1.534-.3033-.37267-.7497-.559-1.339-.559-.442 0-.858.09533-1.248.286s-.7627.4463-1.118.767v9.607zm20.1-13.715c.572 0 1.1094.05633 1.612.169.5114.11267.9837.273 1.417.481h4.069v1.469c0 .22533-.065.403-.195.533-.1213.13-.3336.22967-.637.299l-.988.221c.1214.39.182.793.182 1.209 0 .676-.143 1.2827-.429 1.82-.2773.5373-.663.9967-1.157 1.378-.4853.3727-1.0616.663-1.729.871-.6673.1993-1.3823.299-2.145.299-.4246 0-.8233-.026-1.196-.078-.2946.1733-.442.3727-.442.598s.117.39.351.494c.2427.0953.559.1647.949.208.39.0347.8364.0607 1.339.078.5027.0087 1.014.039 1.534.091.52.0433 1.0314.1213 1.534.234.5027.1127.949.2947 1.339.546s.702.5893.936 1.014c.2427.416.364.949.364 1.599 0 .6067-.1473 1.2003-.442 1.781-.2946.5807-.728 1.0963-1.3 1.547s-1.274.8103-2.106 1.079c-.832.2773-1.7853.416-2.86.416-1.0573 0-1.9716-.0997-2.743-.299-.7626-.1993-1.3996-.4637-1.911-.793-.5026-.3207-.8753-.6933-1.118-1.118-.2426-.4247-.364-.8667-.364-1.326 0-.598.182-1.1007.546-1.508.364-.416.8624-.741 1.495-.975-.3033-.1993-.546-.455-.728-.767s-.273-.7063-.273-1.183c0-.1993.0347-.4073.104-.624.0694-.2253.1777-.442.325-.65.1474-.208.3337-.4073.559-.598.2254-.1907.494-.3597.806-.507-.702-.3727-1.2566-.8667-1.664-1.482-.3986-.6153-.598-1.3303-.598-2.145 0-.676.143-1.28267.429-1.82.286-.546.676-1.00533 1.17-1.378.5027-.38133 1.092-.67167 1.768-.871.676-.208 1.4084-.312 2.197-.312zm2.99 14.209c0-.2167-.0693-.39-.208-.52-.13-.13-.312-.234-.546-.312-.2253-.078-.494-.1343-.806-.169-.3033-.0347-.6326-.0607-.988-.078-.3553-.0173-.7236-.0303-1.105-.039-.3813-.0173-.7583-.0477-1.131-.091-.2513.1733-.4593.3683-.624.585-.156.208-.234.4463-.234.715 0 .1907.039.364.117.52.0867.156.234.2903.442.403s.4854.1993.832.26c.3554.0693.8017.104 1.339.104.5807 0 1.0574-.0347 1.43-.104.3727-.0693.6674-.1647.884-.286.2254-.1213.3814-.2687.468-.442.0867-.1647.13-.3467.13-.546zm-2.99-7.943c.6674 0 1.1484-.1647 1.443-.494.3034-.338.455-.7713.455-1.3 0-.546-.1516-.975-.455-1.287-.2946-.312-.7756-.468-1.443-.468-.6673 0-1.1526.156-1.456.468-.2946.312-.442.741-.442 1.287 0 .26.0347.4983.104.715.078.2167.195.4073.351.572.156.156.351.2817.585.377.2427.0867.5287.13.858.13zm12.8814-6.032v8.554c0 .6673.1517 1.183.455 1.547s.7497.546 1.339.546c.442 0 .8537-.091 1.235-.273.39-.182.767-.4377 1.131-.767v-9.607h4.03v13.481h-2.496c-.5027 0-.832-.2253-.988-.676l-.247-.78c-.26.2513-.5287.481-.806.689-.2773.1993-.5763.3727-.897.52-.312.1387-.65.247-1.014.325-.364.0867-.7627.13-1.196.13-.7367 0-1.391-.1257-1.963-.377-.5633-.26-1.04-.6197-1.43-1.079s-.6847-1.001-.884-1.625-.299-1.3087-.299-2.054v-8.554zm20.88 13.481c-.3813 0-.6716-.052-.871-.156-.1906-.104-.351-.3207-.481-.65l-.286-.741c-.338.286-.663.5373-.975.754s-.637.403-.975.559c-.3293.1473-.6846.2557-1.066.325-.3726.078-.7886.117-1.248.117-.6153 0-1.1743-.078-1.677-.234-.5026-.1647-.9316-.403-1.287-.715-.3466-.312-.6153-.6977-.806-1.157-.1906-.468-.286-1.0053-.286-1.612 0-.4767.1214-.9663.364-1.469.2427-.5027.663-.9577 1.261-1.365.598-.416 1.404-.7627 2.418-1.04s2.2924-.4333 3.835-.468v-.572c0-.7887-.1646-1.3563-.494-1.703-.3206-.35533-.78-.533-1.378-.533-.4766 0-.8666.052-1.17.156-.3033.104-.5763.221-.819.351-.234.13-.4636.247-.689.351-.2253.104-.494.156-.806.156-.2773 0-.5156-.065-.715-.195-.1906-.1387-.3423-.30767-.455-.507l-.728-1.261c.8147-.71933 1.716-1.25233 2.704-1.599.9967-.35533 2.0627-.533 3.198-.533.8147 0 1.547.13433 2.197.403.6587.26 1.2134.62833 1.664 1.105.4594.468.8104 1.027 1.053 1.677.2427.65.364 1.3607.364 2.132v8.424zm-4.628-2.457c.52 0 .975-.091 1.365-.273s.7844-.4767 1.183-.884v-1.872c-.806.0347-1.469.104-1.989.208s-.9316.234-1.235.39c-.3033.156-.5156.3337-.637.533-.1126.1993-.169.416-.169.65 0 .4593.1257.7843.377.975.2514.182.6197.273 1.105.273zm14.3536-11.258c.572 0 1.1094.05633 1.612.169.5114.11267.9837.273 1.417.481h4.069v1.469c0 .22533-.065.403-.195.533-.1213.13-.3336.22967-.637.299l-.988.221c.1214.39.182.793.182 1.209 0 .676-.143 1.2827-.429 1.82-.2773.5373-.663.9967-1.157 1.378-.4853.3727-1.0616.663-1.729.871-.6673.1993-1.3823.299-2.145.299-.4246 0-.8233-.026-1.196-.078-.2946.1733-.442.3727-.442.598s.117.39.351.494c.2427.0953.559.1647.949.208.39.0347.8364.0607 1.339.078.5027.0087 1.014.039 1.534.091.52.0433 1.0314.1213 1.534.234.5027.1127.949.2947 1.339.546s.702.5893.936 1.014c.2427.416.364.949.364 1.599 0 .6067-.1473 1.2003-.442 1.781-.2946.5807-.728 1.0963-1.3 1.547s-1.274.8103-2.106 1.079c-.832.2773-1.7853.416-2.86.416-1.0573 0-1.9716-.0997-2.743-.299-.7626-.1993-1.3996-.4637-1.911-.793-.5026-.3207-.8753-.6933-1.118-1.118-.2426-.4247-.364-.8667-.364-1.326 0-.598.182-1.1007.546-1.508.364-.416.8624-.741 1.495-.975-.3033-.1993-.546-.455-.728-.767s-.273-.7063-.273-1.183c0-.1993.0347-.4073.104-.624.0694-.2253.1777-.442.325-.65.1474-.208.3337-.4073.559-.598.2254-.1907.494-.3597.806-.507-.702-.3727-1.2566-.8667-1.664-1.482-.3986-.6153-.598-1.3303-.598-2.145 0-.676.143-1.28267.429-1.82.286-.546.676-1.00533 1.17-1.378.5027-.38133 1.092-.67167 1.768-.871.676-.208 1.4084-.312 2.197-.312zm2.99 14.209c0-.2167-.0693-.39-.208-.52-.13-.13-.312-.234-.546-.312-.2253-.078-.494-.1343-.806-.169-.3033-.0347-.6326-.0607-.988-.078-.3553-.0173-.7236-.0303-1.105-.039-.3813-.0173-.7583-.0477-1.131-.091-.2513.1733-.4593.3683-.624.585-.156.208-.234.4463-.234.715 0 .1907.039.364.117.52.0867.156.234.2903.442.403s.4854.1993.832.26c.3554.0693.8017.104 1.339.104.5807 0 1.0574-.0347 1.43-.104.3727-.0693.6674-.1647.884-.286.2254-.1213.3814-.2687.468-.442.0867-.1647.13-.3467.13-.546zm-2.99-7.943c.6674 0 1.1484-.1647 1.443-.494.3034-.338.455-.7713.455-1.3 0-.546-.1516-.975-.455-1.287-.2946-.312-.7756-.468-1.443-.468-.6673 0-1.1526.156-1.456.468-.2946.312-.442.741-.442 1.287 0 .26.0347.4983.104.715.078.2167.195.4073.351.572.156.156.351.2817.585.377.2427.0867.5287.13.858.13zm14.8833-6.24c.893 0 1.707.13867 2.444.416.745.27733 1.382.68033 1.911 1.209.537.52867.953 1.17867 1.248 1.95.303.7627.455 1.6293.455 2.6 0 .3033-.013.5503-.039.741s-.074.3423-.143.455-.165.1907-.286.234c-.113.0433-.26.065-.442.065h-7.7739c.13 1.1267.4724 1.9457 1.027 2.457.5547.5027 1.2699.754 2.1449.754.468 0 .871-.0563 1.209-.169s.637-.2383.897-.377c.269-.1387.511-.2643.728-.377.225-.1127.459-.169.702-.169.321 0 .563.117.728.351l1.17 1.443c-.416.4767-.867.8667-1.352 1.17-.477.2947-.971.5287-1.482.702-.503.1647-1.01.2773-1.521.338-.503.0693-.984.104-1.443.104-.945 0-1.8329-.1517-2.6649-.455-.8233-.312-1.547-.7713-2.171-1.378-.6153-.6067-1.105-1.3607-1.469-2.262-.3553-.9013-.533-1.95-.533-3.146 0-.9013.1517-1.755.455-2.561.312-.806.754-1.51233 1.326-2.119.5807-.60667 1.2784-1.08767 2.093-1.443.8234-.35533 1.7507-.533 2.7819-.533zm.078 2.782c-.771 0-1.3735.221-1.8069.663-.4333.4333-.7193 1.0617-.858 1.885h5.0309c0-.3207-.043-.6327-.13-.936-.078-.3033-.212-.572-.403-.806-.182-.24267-.425-.43767-.728-.585s-.672-.221-1.105-.221zm18-8.554001v19.461001h-4.03v-19.461001zm9.286 5.772001c.893 0 1.707.13867 2.444.416.745.27733 1.382.68033 1.911 1.209.537.52867.953 1.17867 1.248 1.95.303.7627.455 1.6293.455 2.6 0 .3033-.013.5503-.039.741s-.074.3423-.143.455-.165.1907-.286.234c-.113.0433-.26.065-.442.065h-7.774c.13 1.1267.472 1.9457 1.027 2.457.555.5027 1.27.754 2.145.754.468 0 .871-.0563 1.209-.169s.637-.2383.897-.377c.269-.1387.511-.2643.728-.377.225-.1127.459-.169.702-.169.321 0 .563.117.728.351l1.17 1.443c-.416.4767-.867.8667-1.352 1.17-.477.2947-.971.5287-1.482.702-.503.1647-1.01.2773-1.521.338-.503.0693-.984.104-1.443.104-.945 0-1.833-.1517-2.665-.455-.823-.312-1.547-.7713-2.171-1.378-.615-.6067-1.105-1.3607-1.469-2.262-.355-.9013-.533-1.95-.533-3.146 0-.9013.152-1.755.455-2.561.312-.806.754-1.51233 1.326-2.119.581-.60667 1.278-1.08767 2.093-1.443.823-.35533 1.751-.533 2.782-.533zm.078 2.782c-.771 0-1.374.221-1.807.663-.433.4333-.719 1.0617-.858 1.885h5.031c0-.3207-.043-.6327-.13-.936-.078-.3033-.212-.572-.403-.806-.182-.24267-.425-.43767-.728-.585s-.672-.221-1.105-.221zm17.861 10.907c-.382 0-.672-.052-.871-.156-.191-.104-.351-.3207-.481-.65l-.286-.741c-.338.286-.663.5373-.975.754s-.637.403-.975.559c-.33.1473-.685.2557-1.066.325-.373.078-.789.117-1.248.117-.616 0-1.175-.078-1.677-.234-.503-.1647-.932-.403-1.287-.715-.347-.312-.616-.6977-.806-1.157-.191-.468-.286-1.0053-.286-1.612 0-.4767.121-.9663.364-1.469.242-.5027.663-.9577 1.261-1.365.598-.416 1.404-.7627 2.418-1.04s2.292-.4333 3.835-.468v-.572c0-.7887-.165-1.3563-.494-1.703-.321-.35533-.78-.533-1.378-.533-.477 0-.867.052-1.17.156-.304.104-.577.221-.819.351-.234.13-.464.247-.689.351-.226.104-.494.156-.806.156-.278 0-.516-.065-.715-.195-.191-.1387-.343-.30767-.455-.507l-.728-1.261c.814-.71933 1.716-1.25233 2.704-1.599.996-.35533 2.062-.533 3.198-.533.814 0 1.547.13433 2.197.403.658.26 1.213.62833 1.664 1.105.459.468.81 1.027 1.053 1.677.242.65.364 1.3607.364 2.132v8.424zm-4.628-2.457c.52 0 .975-.091 1.365-.273s.784-.4767 1.183-.884v-1.872c-.806.0347-1.469.104-1.989.208s-.932.234-1.235.39c-.304.156-.516.3337-.637.533-.113.1993-.169.416-.169.65 0 .4593.125.7843.377.975.251.182.619.273 1.105.273zm9.595 2.457v-13.481h2.392c.2 0 .364.01733.494.052.139.03467.252.091.338.169.096.06933.165.16467.208.286.052.12133.096.26867.13.442l.221 1.261c.494-.76267 1.049-1.365 1.664-1.807.616-.442 1.287-.663 2.015-.663.616 0 1.11.14733 1.482.442l-.52 2.964c-.034.182-.104.312-.208.39-.104.0693-.242.104-.416.104-.147 0-.32-.0173-.52-.052-.199-.0433-.45-.065-.754-.065-1.057 0-1.889.5633-2.496 1.69v8.268zm11.001 0v-13.481h2.496c.251 0 .459.05633.624.169.173.11267.294.28167.364.507l.234.78c.26-.24267.528-.468.806-.676.277-.208.572-.38133.884-.52.32-.14733.663-.26 1.027-.338.372-.08667.775-.13 1.209-.13.736 0 1.386.13 1.95.39.572.25133 1.053.60667 1.443 1.066.39.45067.684.99233.884 1.625.199.624.299 1.3043.299 2.041v8.567h-4.03v-8.567c0-.6587-.152-1.17-.455-1.534-.304-.37267-.75-.559-1.339-.559-.442 0-.858.09533-1.248.286s-.763.4463-1.118.767v9.607zm21.114-13.689c.892 0 1.707.13867 2.444.416.745.27733 1.382.68033 1.911 1.209.537.52867.953 1.17867 1.248 1.95.303.7627.455 1.6293.455 2.6 0 .3033-.013.5503-.039.741s-.074.3423-.143.455c-.07.1127-.165.1907-.286.234-.113.0433-.26.065-.442.065h-7.774c.13 1.1267.472 1.9457 1.027 2.457.554.5027 1.269.754 2.145.754.468 0 .871-.0563 1.209-.169s.637-.2383.897-.377c.268-.1387.511-.2643.728-.377.225-.1127.459-.169.702-.169.32 0 .563.117.728.351l1.17 1.443c-.416.4767-.867.8667-1.352 1.17-.477.2947-.971.5287-1.482.702-.503.1647-1.01.2773-1.521.338-.503.0693-.984.104-1.443.104-.945 0-1.833-.1517-2.665-.455-.824-.312-1.547-.7713-2.171-1.378-.616-.6067-1.105-1.3607-1.469-2.262-.356-.9013-.533-1.95-.533-3.146 0-.9013.151-1.755.455-2.561.312-.806.754-1.51233 1.326-2.119.58-.60667 1.278-1.08767 2.093-1.443.823-.35533 1.75-.533 2.782-.533zm.078 2.782c-.772 0-1.374.221-1.807.663-.434.4333-.72 1.0617-.858 1.885h5.031c0-.3207-.044-.6327-.13-.936-.078-.3033-.213-.572-.403-.806-.182-.24267-.425-.43767-.728-.585-.304-.14733-.672-.221-1.105-.221zm8.552 10.907v-13.481h2.392c.199 0 .364.01733.494.052.139.03467.251.091.338.169.095.06933.165.16467.208.286.052.12133.095.26867.13.442l.221 1.261c.494-.76267 1.049-1.365 1.664-1.807s1.287-.663 2.015-.663c.615 0 1.109.14733 1.482.442l-.52 2.964c-.035.182-.104.312-.208.39-.104.0693-.243.104-.416.104-.147 0-.321-.0173-.52-.052-.199-.0433-.451-.065-.754-.065-1.057 0-1.889.5633-2.496 1.69v8.268z" fill="#121111"/></svg>