<svg width="348" height="63" viewBox="0 0 348 63" fill="none" xmlns="http://www.w3.org/2000/svg">
<path d="M13.376 56C12.9067 56 12.5493 55.936 12.304 55.808C12.0693 55.68 11.872 55.4133 11.712 55.008L11.36 54.096C10.944 54.448 10.544 54.7573 10.16 55.024C9.776 55.2907 9.376 55.52 8.96 55.712C8.55467 55.8933 8.11733 56.0267 7.648 56.112C7.18933 56.208 6.67733 56.256 6.112 56.256C5.35467 56.256 4.66667 56.16 4.048 55.968C3.42933 55.7653 2.90133 55.472 2.464 55.088C2.03733 54.704 1.70667 54.2293 1.472 53.664C1.23733 53.088 1.12 52.4267 1.12 51.68C1.12 51.0933 1.26933 50.4907 1.568 49.872C1.86667 49.2533 2.384 48.6933 3.12 48.192C3.856 47.68 4.848 47.2533 6.096 46.912C7.344 46.5707 8.91733 46.3787 10.816 46.336V45.632C10.816 44.6613 10.6133 43.9627 10.208 43.536C9.81333 43.0987 9.248 42.88 8.512 42.88C7.92533 42.88 7.44533 42.944 7.072 43.072C6.69867 43.2 6.36267 43.344 6.064 43.504C5.776 43.664 5.49333 43.808 5.216 43.936C4.93867 44.064 4.608 44.128 4.224 44.128C3.88267 44.128 3.58933 44.048 3.344 43.888C3.10933 43.7173 2.92267 43.5093 2.784 43.264L1.888 41.712C2.89067 40.8267 4 40.1707 5.216 39.744C6.44267 39.3067 7.75467 39.088 9.152 39.088C10.1547 39.088 11.056 39.2533 11.856 39.584C12.6667 39.904 13.3493 40.3573 13.904 40.944C14.4693 41.52 14.9013 42.208 15.2 43.008C15.4987 43.808 15.648 44.6827 15.648 45.632V56H13.376ZM7.68 52.976C8.32 52.976 8.88 52.864 9.36 52.64C9.84 52.416 10.3253 52.0533 10.816 51.552V49.248C9.824 49.2907 9.008 49.376 8.368 49.504C7.728 49.632 7.22133 49.792 6.848 49.984C6.47467 50.176 6.21333 50.3947 6.064 50.64C5.92533 50.8853 5.856 51.152 5.856 51.44C5.856 52.0053 6.01067 52.4053 6.32 52.64C6.62933 52.864 7.08267 52.976 7.68 52.976ZM24.61 39.408V56H19.65V39.408H24.61ZM25.186 34.864C25.186 35.2587 25.106 35.632 24.946 35.984C24.786 36.3253 24.5673 36.6293 24.29 36.896C24.0127 37.152 23.6873 37.36 23.314 37.52C22.9513 37.6693 22.562 37.744 22.146 37.744C21.7407 37.744 21.362 37.6693 21.01 37.52C20.658 37.36 20.3433 37.152 20.066 36.896C19.7993 36.6293 19.586 36.3253 19.426 35.984C19.2767 35.632 19.202 35.2587 19.202 34.864C19.202 34.4587 19.2767 34.08 19.426 33.728C19.586 33.376 19.7993 33.0667 20.066 32.8C20.3433 32.5333 20.658 32.3253 21.01 32.176C21.362 32.0267 21.7407 31.952 22.146 31.952C22.562 31.952 22.9513 32.0267 23.314 32.176C23.6873 32.3253 24.0127 32.5333 24.29 32.8C24.5673 33.0667 24.786 33.376 24.946 33.728C25.106 34.08 25.186 34.4587 25.186 34.864ZM28.935 56V39.408H32.007C32.3163 39.408 32.5723 39.4773 32.775 39.616C32.9883 39.7547 33.1377 39.9627 33.223 40.24L33.495 41.136C33.7723 40.848 34.0603 40.5867 34.359 40.352C34.6577 40.1067 34.9777 39.8987 35.319 39.728C35.671 39.5467 36.0443 39.408 36.439 39.312C36.8443 39.2053 37.287 39.152 37.767 39.152C38.7697 39.152 39.5963 39.4133 40.247 39.936C40.9083 40.448 41.4097 41.136 41.751 42C42.0283 41.488 42.3643 41.0507 42.759 40.688C43.1643 40.3253 43.5963 40.032 44.055 39.808C44.5243 39.584 45.015 39.4187 45.527 39.312C46.0497 39.2053 46.567 39.152 47.079 39.152C48.0283 39.152 48.871 39.296 49.607 39.584C50.343 39.8613 50.9563 40.272 51.447 40.816C51.9483 41.3493 52.327 42.0107 52.583 42.8C52.839 43.5787 52.967 44.464 52.967 45.456V56H48.007V45.456C48.007 43.7387 47.271 42.88 45.799 42.88C45.127 42.88 44.567 43.104 44.119 43.552C43.6817 43.9893 43.463 44.624 43.463 45.456V56H38.503V45.456C38.503 44.5067 38.3163 43.84 37.943 43.456C37.5697 43.072 37.0203 42.88 36.295 42.88C35.847 42.88 35.4203 42.9813 35.015 43.184C34.6203 43.3867 34.247 43.6587 33.895 44V56H28.935ZM61.9375 39.408V56H56.9775V39.408H61.9375ZM62.5135 34.864C62.5135 35.2587 62.4335 35.632 62.2735 35.984C62.1135 36.3253 61.8948 36.6293 61.6175 36.896C61.3402 37.152 61.0148 37.36 60.6415 37.52C60.2788 37.6693 59.8895 37.744 59.4735 37.744C59.0682 37.744 58.6895 37.6693 58.3375 37.52C57.9855 37.36 57.6708 37.152 57.3935 36.896C57.1268 36.6293 56.9135 36.3253 56.7535 35.984C56.6042 35.632 56.5295 35.2587 56.5295 34.864C56.5295 34.4587 56.6042 34.08 56.7535 33.728C56.9135 33.376 57.1268 33.0667 57.3935 32.8C57.6708 32.5333 57.9855 32.3253 58.3375 32.176C58.6895 32.0267 59.0682 31.952 59.4735 31.952C59.8895 31.952 60.2788 32.0267 60.6415 32.176C61.0148 32.3253 61.3402 32.5333 61.6175 32.8C61.8948 33.0667 62.1135 33.376 62.2735 33.728C62.4335 34.08 62.5135 34.4587 62.5135 34.864ZM66.2625 56V39.408H69.3345C69.6438 39.408 69.8998 39.4773 70.1025 39.616C70.3158 39.7547 70.4652 39.9627 70.5505 40.24L70.8385 41.2C71.1585 40.9013 71.4892 40.624 71.8305 40.368C72.1718 40.112 72.5345 39.8987 72.9185 39.728C73.3132 39.5467 73.7345 39.408 74.1825 39.312C74.6412 39.2053 75.1372 39.152 75.6705 39.152C76.5772 39.152 77.3772 39.312 78.0705 39.632C78.7745 39.9413 79.3665 40.3787 79.8465 40.944C80.3265 41.4987 80.6892 42.1653 80.9345 42.944C81.1798 43.712 81.3025 44.5493 81.3025 45.456V56H76.3425V45.456C76.3425 44.6453 76.1558 44.016 75.7825 43.568C75.4092 43.1093 74.8598 42.88 74.1345 42.88C73.5905 42.88 73.0785 42.9973 72.5985 43.232C72.1185 43.4667 71.6598 43.7813 71.2225 44.176V56H66.2625ZM91.001 39.12C91.705 39.12 92.3663 39.1893 92.985 39.328C93.6143 39.4667 94.1957 39.664 94.729 39.92H99.737V41.728C99.737 42.0053 99.657 42.224 99.497 42.384C99.3477 42.544 99.0863 42.6667 98.713 42.752L97.497 43.024C97.6463 43.504 97.721 44 97.721 44.512C97.721 45.344 97.545 46.0907 97.193 46.752C96.8517 47.4133 96.377 47.9787 95.769 48.448C95.1717 48.9067 94.4623 49.264 93.641 49.52C92.8197 49.7653 91.9397 49.888 91.001 49.888C90.4783 49.888 89.9877 49.856 89.529 49.792C89.1663 50.0053 88.985 50.2507 88.985 50.528C88.985 50.8053 89.129 51.008 89.417 51.136C89.7157 51.2533 90.105 51.3387 90.585 51.392C91.065 51.4347 91.6143 51.4667 92.233 51.488C92.8517 51.4987 93.481 51.536 94.121 51.6C94.761 51.6533 95.3903 51.7493 96.009 51.888C96.6277 52.0267 97.177 52.2507 97.657 52.56C98.137 52.8693 98.521 53.2853 98.809 53.808C99.1077 54.32 99.257 54.976 99.257 55.776C99.257 56.5227 99.0757 57.2533 98.713 57.968C98.3503 58.6827 97.817 59.3173 97.113 59.872C96.409 60.4267 95.545 60.8693 94.521 61.2C93.497 61.5413 92.3237 61.712 91.001 61.712C89.6997 61.712 88.5743 61.5893 87.625 61.344C86.6863 61.0987 85.9023 60.7733 85.273 60.368C84.6543 59.9733 84.1957 59.5147 83.897 58.992C83.5983 58.4693 83.449 57.9253 83.449 57.36C83.449 56.624 83.673 56.0053 84.121 55.504C84.569 54.992 85.1823 54.592 85.961 54.304C85.5877 54.0587 85.289 53.744 85.065 53.36C84.841 52.976 84.729 52.4907 84.729 51.904C84.729 51.6587 84.7717 51.4027 84.857 51.136C84.9423 50.8587 85.0757 50.592 85.257 50.336C85.4383 50.08 85.6677 49.8347 85.945 49.6C86.2223 49.3653 86.553 49.1573 86.937 48.976C86.073 48.5173 85.3903 47.9093 84.889 47.152C84.3983 46.3947 84.153 45.5147 84.153 44.512C84.153 43.68 84.329 42.9333 84.681 42.272C85.033 41.6 85.513 41.0347 86.121 40.576C86.7397 40.1067 87.465 39.7493 88.297 39.504C89.129 39.248 90.0303 39.12 91.001 39.12ZM94.681 56.608C94.681 56.3413 94.5957 56.128 94.425 55.968C94.265 55.808 94.041 55.68 93.753 55.584C93.4757 55.488 93.145 55.4187 92.761 55.376C92.3877 55.3333 91.9823 55.3013 91.545 55.28C91.1077 55.2587 90.6543 55.2427 90.185 55.232C89.7157 55.2107 89.2517 55.1733 88.793 55.12C88.4837 55.3333 88.2277 55.5733 88.025 55.84C87.833 56.096 87.737 56.3893 87.737 56.72C87.737 56.9547 87.785 57.168 87.881 57.36C87.9877 57.552 88.169 57.7173 88.425 57.856C88.681 57.9947 89.0223 58.1013 89.449 58.176C89.8863 58.2613 90.4357 58.304 91.097 58.304C91.8117 58.304 92.3983 58.2613 92.857 58.176C93.3157 58.0907 93.6783 57.9733 93.945 57.824C94.2223 57.6747 94.4143 57.4933 94.521 57.28C94.6277 57.0773 94.681 56.8533 94.681 56.608ZM91.001 46.832C91.8223 46.832 92.4143 46.6293 92.777 46.224C93.1503 45.808 93.337 45.2747 93.337 44.624C93.337 43.952 93.1503 43.424 92.777 43.04C92.4143 42.656 91.8223 42.464 91.001 42.464C90.1797 42.464 89.5823 42.656 89.209 43.04C88.8463 43.424 88.665 43.952 88.665 44.624C88.665 44.944 88.7077 45.2373 88.793 45.504C88.889 45.7707 89.033 46.0053 89.225 46.208C89.417 46.4 89.657 46.5547 89.945 46.672C90.2437 46.7787 90.5957 46.832 91.001 46.832ZM109.458 56V42.816L108.37 42.592C107.997 42.5067 107.693 42.3733 107.458 42.192C107.234 42.0107 107.122 41.744 107.122 41.392V39.44H109.458V38.496C109.458 37.5467 109.608 36.688 109.906 35.92C110.216 35.152 110.653 34.496 111.218 33.952C111.794 33.408 112.493 32.9867 113.314 32.688C114.136 32.3893 115.069 32.24 116.114 32.24C116.52 32.24 116.893 32.2667 117.234 32.32C117.586 32.3627 117.949 32.4373 118.322 32.544L118.226 34.96C118.216 35.1307 118.168 35.2747 118.082 35.392C118.008 35.4987 117.912 35.5893 117.794 35.664C117.677 35.728 117.544 35.776 117.394 35.808C117.256 35.84 117.117 35.856 116.978 35.856C116.541 35.856 116.152 35.8987 115.81 35.984C115.469 36.0693 115.181 36.224 114.946 36.448C114.722 36.6613 114.552 36.9493 114.434 37.312C114.317 37.664 114.258 38.112 114.258 38.656V39.44H118.162V42.832H114.418V56H109.458ZM128.028 39.152C129.287 39.152 130.434 39.3493 131.468 39.744C132.503 40.1387 133.388 40.704 134.124 41.44C134.871 42.176 135.447 43.072 135.852 44.128C136.268 45.1733 136.476 46.352 136.476 47.664C136.476 48.9867 136.268 50.1813 135.852 51.248C135.447 52.304 134.871 53.2053 134.124 53.952C133.388 54.688 132.503 55.2587 131.468 55.664C130.434 56.0587 129.287 56.256 128.028 56.256C126.759 56.256 125.602 56.0587 124.556 55.664C123.522 55.2587 122.626 54.688 121.868 53.952C121.122 53.2053 120.54 52.304 120.124 51.248C119.719 50.1813 119.516 48.9867 119.516 47.664C119.516 46.352 119.719 45.1733 120.124 44.128C120.54 43.072 121.122 42.176 121.868 41.44C122.626 40.704 123.522 40.1387 124.556 39.744C125.602 39.3493 126.759 39.152 128.028 39.152ZM128.028 52.576C129.17 52.576 130.007 52.176 130.54 51.376C131.084 50.5653 131.356 49.3387 131.356 47.696C131.356 46.0533 131.084 44.832 130.54 44.032C130.007 43.232 129.17 42.832 128.028 42.832C126.855 42.832 125.996 43.232 125.452 44.032C124.908 44.832 124.636 46.0533 124.636 47.696C124.636 49.3387 124.908 50.5653 125.452 51.376C125.996 52.176 126.855 52.576 128.028 52.576ZM139.519 56V39.408H142.463C142.708 39.408 142.911 39.4293 143.071 39.472C143.241 39.5147 143.38 39.584 143.487 39.68C143.604 39.7653 143.689 39.8827 143.743 40.032C143.807 40.1813 143.86 40.3627 143.903 40.576L144.175 42.128C144.783 41.1893 145.465 40.448 146.223 39.904C146.98 39.36 147.807 39.088 148.703 39.088C149.46 39.088 150.068 39.2693 150.527 39.632L149.887 43.28C149.844 43.504 149.759 43.664 149.631 43.76C149.503 43.8453 149.332 43.888 149.119 43.888C148.937 43.888 148.724 43.8667 148.479 43.824C148.233 43.7707 147.924 43.744 147.551 43.744C146.249 43.744 145.225 44.4373 144.479 45.824V56H139.519ZM171.021 56C170.552 56 170.194 55.936 169.949 55.808C169.714 55.68 169.517 55.4133 169.357 55.008L169.005 54.096C168.589 54.448 168.189 54.7573 167.805 55.024C167.421 55.2907 167.021 55.52 166.605 55.712C166.2 55.8933 165.762 56.0267 165.293 56.112C164.834 56.208 164.322 56.256 163.757 56.256C163 56.256 162.312 56.16 161.693 55.968C161.074 55.7653 160.546 55.472 160.109 55.088C159.682 54.704 159.352 54.2293 159.117 53.664C158.882 53.088 158.765 52.4267 158.765 51.68C158.765 51.0933 158.914 50.4907 159.213 49.872C159.512 49.2533 160.029 48.6933 160.765 48.192C161.501 47.68 162.493 47.2533 163.741 46.912C164.989 46.5707 166.562 46.3787 168.461 46.336V45.632C168.461 44.6613 168.258 43.9627 167.853 43.536C167.458 43.0987 166.893 42.88 166.157 42.88C165.57 42.88 165.09 42.944 164.717 43.072C164.344 43.2 164.008 43.344 163.709 43.504C163.421 43.664 163.138 43.808 162.861 43.936C162.584 44.064 162.253 44.128 161.869 44.128C161.528 44.128 161.234 44.048 160.989 43.888C160.754 43.7173 160.568 43.5093 160.429 43.264L159.533 41.712C160.536 40.8267 161.645 40.1707 162.861 39.744C164.088 39.3067 165.4 39.088 166.797 39.088C167.8 39.088 168.701 39.2533 169.501 39.584C170.312 39.904 170.994 40.3573 171.549 40.944C172.114 41.52 172.546 42.208 172.845 43.008C173.144 43.808 173.293 44.6827 173.293 45.632V56H171.021ZM165.325 52.976C165.965 52.976 166.525 52.864 167.005 52.64C167.485 52.416 167.97 52.0533 168.461 51.552V49.248C167.469 49.2907 166.653 49.376 166.013 49.504C165.373 49.632 164.866 49.792 164.493 49.984C164.12 50.176 163.858 50.3947 163.709 50.64C163.57 50.8853 163.501 51.152 163.501 51.44C163.501 52.0053 163.656 52.4053 163.965 52.64C164.274 52.864 164.728 52.976 165.325 52.976ZM184.379 56V42.816L183.291 42.592C182.917 42.5067 182.613 42.3733 182.379 42.192C182.155 42.0107 182.043 41.744 182.043 41.392V39.44H184.379V38.496C184.379 37.5467 184.528 36.688 184.827 35.92C185.136 35.152 185.573 34.496 186.139 33.952C186.715 33.408 187.413 32.9867 188.235 32.688C189.056 32.3893 189.989 32.24 191.035 32.24C191.44 32.24 191.813 32.2667 192.155 32.32C192.507 32.3627 192.869 32.4373 193.243 32.544L193.147 34.96C193.136 35.1307 193.088 35.2747 193.003 35.392C192.928 35.4987 192.832 35.5893 192.715 35.664C192.597 35.728 192.464 35.776 192.315 35.808C192.176 35.84 192.037 35.856 191.899 35.856C191.461 35.856 191.072 35.8987 190.731 35.984C190.389 36.0693 190.101 36.224 189.867 36.448C189.643 36.6613 189.472 36.9493 189.355 37.312C189.237 37.664 189.179 38.112 189.179 38.656V39.44H193.083V42.832H189.339V56H184.379ZM200.196 39.408V49.936C200.196 50.7573 200.383 51.392 200.756 51.84C201.13 52.288 201.679 52.512 202.404 52.512C202.948 52.512 203.455 52.4 203.924 52.176C204.404 51.952 204.868 51.6373 205.316 51.232V39.408H210.276V56H207.204C206.586 56 206.18 55.7227 205.988 55.168L205.684 54.208C205.364 54.5173 205.034 54.8 204.692 55.056C204.351 55.3013 203.983 55.5147 203.588 55.696C203.204 55.8667 202.788 56 202.34 56.096C201.892 56.2027 201.402 56.256 200.868 56.256C199.962 56.256 199.156 56.1013 198.452 55.792C197.759 55.472 197.172 55.0293 196.692 54.464C196.212 53.8987 195.85 53.232 195.604 52.464C195.359 51.696 195.236 50.8533 195.236 49.936V39.408H200.196ZM219.559 32.048V56H214.599V32.048H219.559ZM229.004 32.048V56H224.044V32.048H229.004ZM233.009 44.272H241.649V48.272H233.009V44.272ZM251.316 56.256C250.527 56.256 249.828 56.144 249.22 55.92C248.623 55.6853 248.116 55.36 247.7 54.944C247.295 54.5173 246.986 54.0053 246.772 53.408C246.559 52.8107 246.452 52.144 246.452 51.408V42.832H245.044C244.788 42.832 244.57 42.752 244.388 42.592C244.207 42.4213 244.116 42.176 244.116 41.856V39.92L246.756 39.408L247.732 35.36C247.86 34.848 248.223 34.592 248.82 34.592H251.412V39.44H255.444V42.832H251.412V51.072C251.412 51.456 251.503 51.776 251.684 52.032C251.876 52.2773 252.148 52.4 252.5 52.4C252.682 52.4 252.831 52.384 252.948 52.352C253.076 52.3093 253.183 52.2667 253.268 52.224C253.364 52.1707 253.45 52.128 253.524 52.096C253.61 52.0533 253.706 52.032 253.812 52.032C253.962 52.032 254.079 52.0693 254.164 52.144C254.26 52.208 254.356 52.3147 254.452 52.464L255.956 54.816C255.316 55.296 254.596 55.6587 253.796 55.904C252.996 56.1387 252.17 56.256 251.316 56.256ZM263.745 39.408V56H258.785V39.408H263.745ZM264.321 34.864C264.321 35.2587 264.241 35.632 264.081 35.984C263.921 36.3253 263.702 36.6293 263.425 36.896C263.148 37.152 262.822 37.36 262.449 37.52C262.086 37.6693 261.697 37.744 261.281 37.744C260.876 37.744 260.497 37.6693 260.145 37.52C259.793 37.36 259.478 37.152 259.201 36.896C258.934 36.6293 258.721 36.3253 258.561 35.984C258.412 35.632 258.337 35.2587 258.337 34.864C258.337 34.4587 258.412 34.08 258.561 33.728C258.721 33.376 258.934 33.0667 259.201 32.8C259.478 32.5333 259.793 32.3253 260.145 32.176C260.497 32.0267 260.876 31.952 261.281 31.952C261.697 31.952 262.086 32.0267 262.449 32.176C262.822 32.3253 263.148 32.5333 263.425 32.8C263.702 33.0667 263.921 33.376 264.081 33.728C264.241 34.08 264.321 34.4587 264.321 34.864ZM268.07 56V39.408H271.142C271.451 39.408 271.707 39.4773 271.91 39.616C272.123 39.7547 272.273 39.9627 272.358 40.24L272.63 41.136C272.907 40.848 273.195 40.5867 273.494 40.352C273.793 40.1067 274.113 39.8987 274.454 39.728C274.806 39.5467 275.179 39.408 275.574 39.312C275.979 39.2053 276.422 39.152 276.902 39.152C277.905 39.152 278.731 39.4133 279.382 39.936C280.043 40.448 280.545 41.136 280.886 42C281.163 41.488 281.499 41.0507 281.894 40.688C282.299 40.3253 282.731 40.032 283.19 39.808C283.659 39.584 284.15 39.4187 284.662 39.312C285.185 39.2053 285.702 39.152 286.214 39.152C287.163 39.152 288.006 39.296 288.742 39.584C289.478 39.8613 290.091 40.272 290.582 40.816C291.083 41.3493 291.462 42.0107 291.718 42.8C291.974 43.5787 292.102 44.464 292.102 45.456V56H287.142V45.456C287.142 43.7387 286.406 42.88 284.934 42.88C284.262 42.88 283.702 43.104 283.254 43.552C282.817 43.9893 282.598 44.624 282.598 45.456V56H277.638V45.456C277.638 44.5067 277.451 43.84 277.078 43.456C276.705 43.072 276.155 42.88 275.43 42.88C274.982 42.88 274.555 42.9813 274.15 43.184C273.755 43.3867 273.382 43.6587 273.03 44V56H268.07ZM303.057 39.152C304.155 39.152 305.158 39.3227 306.065 39.664C306.982 40.0053 307.766 40.5013 308.417 41.152C309.078 41.8027 309.59 42.6027 309.953 43.552C310.326 44.4907 310.513 45.5573 310.513 46.752C310.513 47.1253 310.497 47.4293 310.465 47.664C310.433 47.8987 310.374 48.0853 310.289 48.224C310.203 48.3627 310.086 48.4587 309.937 48.512C309.798 48.5653 309.617 48.592 309.393 48.592H299.825C299.985 49.9787 300.406 50.9867 301.089 51.616C301.771 52.2347 302.651 52.544 303.729 52.544C304.305 52.544 304.801 52.4747 305.217 52.336C305.633 52.1973 306.001 52.0427 306.321 51.872C306.651 51.7013 306.95 51.5467 307.217 51.408C307.494 51.2693 307.782 51.2 308.081 51.2C308.475 51.2 308.774 51.344 308.977 51.632L310.417 53.408C309.905 53.9947 309.35 54.4747 308.753 54.848C308.166 55.2107 307.558 55.4987 306.929 55.712C306.31 55.9147 305.686 56.0533 305.057 56.128C304.438 56.2133 303.846 56.256 303.281 56.256C302.118 56.256 301.025 56.0693 300.001 55.696C298.987 55.312 298.097 54.7467 297.329 54C296.571 53.2533 295.969 52.3253 295.521 51.216C295.083 50.1067 294.865 48.816 294.865 47.344C294.865 46.2347 295.051 45.184 295.425 44.192C295.809 43.2 296.353 42.3307 297.057 41.584C297.771 40.8373 298.63 40.2453 299.633 39.808C300.646 39.3707 301.787 39.152 303.057 39.152ZM303.153 42.576C302.203 42.576 301.462 42.848 300.929 43.392C300.395 43.9253 300.043 44.6987 299.873 45.712H306.065C306.065 45.3173 306.011 44.9333 305.905 44.56C305.809 44.1867 305.643 43.856 305.409 43.568C305.185 43.2693 304.886 43.0293 304.513 42.848C304.139 42.6667 303.686 42.576 303.153 42.576ZM319.546 53.488C319.546 53.104 319.616 52.7467 319.754 52.416C319.904 52.0853 320.101 51.7973 320.346 51.552C320.602 51.3067 320.901 51.1147 321.242 50.976C321.584 50.8267 321.957 50.752 322.362 50.752C322.757 50.752 323.125 50.8267 323.466 50.976C323.808 51.1147 324.106 51.3067 324.362 51.552C324.618 51.7973 324.816 52.0853 324.954 52.416C325.104 52.7467 325.178 53.104 325.178 53.488C325.178 53.872 325.104 54.2347 324.954 54.576C324.816 54.9067 324.618 55.1947 324.362 55.44C324.106 55.6853 323.808 55.8773 323.466 56.016C323.125 56.1547 322.757 56.224 322.362 56.224C321.957 56.224 321.584 56.1547 321.242 56.016C320.901 55.8773 320.602 55.6853 320.346 55.44C320.101 55.1947 319.904 54.9067 319.754 54.576C319.616 54.2347 319.546 53.872 319.546 53.488ZM330.309 53.488C330.309 53.104 330.378 52.7467 330.517 52.416C330.666 52.0853 330.863 51.7973 331.109 51.552C331.365 51.3067 331.663 51.1147 332.005 50.976C332.346 50.8267 332.719 50.752 333.125 50.752C333.519 50.752 333.887 50.8267 334.229 50.976C334.57 51.1147 334.869 51.3067 335.125 51.552C335.381 51.7973 335.578 52.0853 335.717 52.416C335.866 52.7467 335.941 53.104 335.941 53.488C335.941 53.872 335.866 54.2347 335.717 54.576C335.578 54.9067 335.381 55.1947 335.125 55.44C334.869 55.6853 334.57 55.8773 334.229 56.016C333.887 56.1547 333.519 56.224 333.125 56.224C332.719 56.224 332.346 56.1547 332.005 56.016C331.663 55.8773 331.365 55.6853 331.109 55.44C330.863 55.1947 330.666 54.9067 330.517 54.576C330.378 54.2347 330.309 53.872 330.309 53.488ZM341.071 53.488C341.071 53.104 341.141 52.7467 341.279 52.416C341.429 52.0853 341.626 51.7973 341.871 51.552C342.127 51.3067 342.426 51.1147 342.767 50.976C343.109 50.8267 343.482 50.752 343.887 50.752C344.282 50.752 344.65 50.8267 344.991 50.976C345.333 51.1147 345.631 51.3067 345.887 51.552C346.143 51.7973 346.341 52.0853 346.479 52.416C346.629 52.7467 346.703 53.104 346.703 53.488C346.703 53.872 346.629 54.2347 346.479 54.576C346.341 54.9067 346.143 55.1947 345.887 55.44C345.631 55.6853 345.333 55.8773 344.991 56.016C344.65 56.1547 344.282 56.224 343.887 56.224C343.482 56.224 343.109 56.1547 342.767 56.016C342.426 55.8773 342.127 55.6853 341.871 55.44C341.626 55.1947 341.429 54.9067 341.279 54.576C341.141 54.2347 341.071 53.872 341.071 53.488Z" fill="#4263EB" fill-opacity="0.4"/>
<path d="M13.376 44C12.9067 44 12.5493 43.936 12.304 43.808C12.0693 43.68 11.872 43.4133 11.712 43.008L11.36 42.096C10.944 42.448 10.544 42.7573 10.16 43.024C9.776 43.2907 9.376 43.52 8.96 43.712C8.55467 43.8933 8.11733 44.0267 7.648 44.112C7.18933 44.208 6.67733 44.256 6.112 44.256C5.35467 44.256 4.66667 44.16 4.048 43.968C3.42933 43.7653 2.90133 43.472 2.464 43.088C2.03733 42.704 1.70667 42.2293 1.472 41.664C1.23733 41.088 1.12 40.4267 1.12 39.68C1.12 39.0933 1.26933 38.4907 1.568 37.872C1.86667 37.2533 2.384 36.6933 3.12 36.192C3.856 35.68 4.848 35.2533 6.096 34.912C7.344 34.5707 8.91733 34.3787 10.816 34.336V33.632C10.816 32.6613 10.6133 31.9627 10.208 31.536C9.81333 31.0987 9.248 30.88 8.512 30.88C7.92533 30.88 7.44533 30.944 7.072 31.072C6.69867 31.2 6.36267 31.344 6.064 31.504C5.776 31.664 5.49333 31.808 5.216 31.936C4.93867 32.064 4.608 32.128 4.224 32.128C3.88267 32.128 3.58933 32.048 3.344 31.888C3.10933 31.7173 2.92267 31.5093 2.784 31.264L1.888 29.712C2.89067 28.8267 4 28.1707 5.216 27.744C6.44267 27.3067 7.75467 27.088 9.152 27.088C10.1547 27.088 11.056 27.2533 11.856 27.584C12.6667 27.904 13.3493 28.3573 13.904 28.944C14.4693 29.52 14.9013 30.208 15.2 31.008C15.4987 31.808 15.648 32.6827 15.648 33.632V44H13.376ZM7.68 40.976C8.32 40.976 8.88 40.864 9.36 40.64C9.84 40.416 10.3253 40.0533 10.816 39.552V37.248C9.824 37.2907 9.008 37.376 8.368 37.504C7.728 37.632 7.22133 37.792 6.848 37.984C6.47467 38.176 6.21333 38.3947 6.064 38.64C5.92533 38.8853 5.856 39.152 5.856 39.44C5.856 40.0053 6.01067 40.4053 6.32 40.64C6.62933 40.864 7.08267 40.976 7.68 40.976ZM24.61 27.408V44H19.65V27.408H24.61ZM25.186 22.864C25.186 23.2587 25.106 23.632 24.946 23.984C24.786 24.3253 24.5673 24.6293 24.29 24.896C24.0127 25.152 23.6873 25.36 23.314 25.52C22.9513 25.6693 22.562 25.744 22.146 25.744C21.7407 25.744 21.362 25.6693 21.01 25.52C20.658 25.36 20.3433 25.152 20.066 24.896C19.7993 24.6293 19.586 24.3253 19.426 23.984C19.2767 23.632 19.202 23.2587 19.202 22.864C19.202 22.4587 19.2767 22.08 19.426 21.728C19.586 21.376 19.7993 21.0667 20.066 20.8C20.3433 20.5333 20.658 20.3253 21.01 20.176C21.362 20.0267 21.7407 19.952 22.146 19.952C22.562 19.952 22.9513 20.0267 23.314 20.176C23.6873 20.3253 24.0127 20.5333 24.29 20.8C24.5673 21.0667 24.786 21.376 24.946 21.728C25.106 22.08 25.186 22.4587 25.186 22.864ZM28.935 44V27.408H32.007C32.3163 27.408 32.5723 27.4773 32.775 27.616C32.9883 27.7547 33.1377 27.9627 33.223 28.24L33.495 29.136C33.7723 28.848 34.0603 28.5867 34.359 28.352C34.6577 28.1067 34.9777 27.8987 35.319 27.728C35.671 27.5467 36.0443 27.408 36.439 27.312C36.8443 27.2053 37.287 27.152 37.767 27.152C38.7697 27.152 39.5963 27.4133 40.247 27.936C40.9083 28.448 41.4097 29.136 41.751 30C42.0283 29.488 42.3643 29.0507 42.759 28.688C43.1643 28.3253 43.5963 28.032 44.055 27.808C44.5243 27.584 45.015 27.4187 45.527 27.312C46.0497 27.2053 46.567 27.152 47.079 27.152C48.0283 27.152 48.871 27.296 49.607 27.584C50.343 27.8613 50.9563 28.272 51.447 28.816C51.9483 29.3493 52.327 30.0107 52.583 30.8C52.839 31.5787 52.967 32.464 52.967 33.456V44H48.007V33.456C48.007 31.7387 47.271 30.88 45.799 30.88C45.127 30.88 44.567 31.104 44.119 31.552C43.6817 31.9893 43.463 32.624 43.463 33.456V44H38.503V33.456C38.503 32.5067 38.3163 31.84 37.943 31.456C37.5697 31.072 37.0203 30.88 36.295 30.88C35.847 30.88 35.4203 30.9813 35.015 31.184C34.6203 31.3867 34.247 31.6587 33.895 32V44H28.935ZM61.9375 27.408V44H56.9775V27.408H61.9375ZM62.5135 22.864C62.5135 23.2587 62.4335 23.632 62.2735 23.984C62.1135 24.3253 61.8948 24.6293 61.6175 24.896C61.3402 25.152 61.0148 25.36 60.6415 25.52C60.2788 25.6693 59.8895 25.744 59.4735 25.744C59.0682 25.744 58.6895 25.6693 58.3375 25.52C57.9855 25.36 57.6708 25.152 57.3935 24.896C57.1268 24.6293 56.9135 24.3253 56.7535 23.984C56.6042 23.632 56.5295 23.2587 56.5295 22.864C56.5295 22.4587 56.6042 22.08 56.7535 21.728C56.9135 21.376 57.1268 21.0667 57.3935 20.8C57.6708 20.5333 57.9855 20.3253 58.3375 20.176C58.6895 20.0267 59.0682 19.952 59.4735 19.952C59.8895 19.952 60.2788 20.0267 60.6415 20.176C61.0148 20.3253 61.3402 20.5333 61.6175 20.8C61.8948 21.0667 62.1135 21.376 62.2735 21.728C62.4335 22.08 62.5135 22.4587 62.5135 22.864ZM66.2625 44V27.408H69.3345C69.6438 27.408 69.8998 27.4773 70.1025 27.616C70.3158 27.7547 70.4652 27.9627 70.5505 28.24L70.8385 29.2C71.1585 28.9013 71.4892 28.624 71.8305 28.368C72.1718 28.112 72.5345 27.8987 72.9185 27.728C73.3132 27.5467 73.7345 27.408 74.1825 27.312C74.6412 27.2053 75.1372 27.152 75.6705 27.152C76.5772 27.152 77.3772 27.312 78.0705 27.632C78.7745 27.9413 79.3665 28.3787 79.8465 28.944C80.3265 29.4987 80.6892 30.1653 80.9345 30.944C81.1798 31.712 81.3025 32.5493 81.3025 33.456V44H76.3425V33.456C76.3425 32.6453 76.1558 32.016 75.7825 31.568C75.4092 31.1093 74.8598 30.88 74.1345 30.88C73.5905 30.88 73.0785 30.9973 72.5985 31.232C72.1185 31.4667 71.6598 31.7813 71.2225 32.176V44H66.2625ZM91.001 27.12C91.705 27.12 92.3663 27.1893 92.985 27.328C93.6143 27.4667 94.1957 27.664 94.729 27.92H99.737V29.728C99.737 30.0053 99.657 30.224 99.497 30.384C99.3477 30.544 99.0863 30.6667 98.713 30.752L97.497 31.024C97.6463 31.504 97.721 32 97.721 32.512C97.721 33.344 97.545 34.0907 97.193 34.752C96.8517 35.4133 96.377 35.9787 95.769 36.448C95.1717 36.9067 94.4623 37.264 93.641 37.52C92.8197 37.7653 91.9397 37.888 91.001 37.888C90.4783 37.888 89.9877 37.856 89.529 37.792C89.1663 38.0053 88.985 38.2507 88.985 38.528C88.985 38.8053 89.129 39.008 89.417 39.136C89.7157 39.2533 90.105 39.3387 90.585 39.392C91.065 39.4347 91.6143 39.4667 92.233 39.488C92.8517 39.4987 93.481 39.536 94.121 39.6C94.761 39.6533 95.3903 39.7493 96.009 39.888C96.6277 40.0267 97.177 40.2507 97.657 40.56C98.137 40.8693 98.521 41.2853 98.809 41.808C99.1077 42.32 99.257 42.976 99.257 43.776C99.257 44.5227 99.0757 45.2533 98.713 45.968C98.3503 46.6827 97.817 47.3173 97.113 47.872C96.409 48.4267 95.545 48.8693 94.521 49.2C93.497 49.5413 92.3237 49.712 91.001 49.712C89.6997 49.712 88.5743 49.5893 87.625 49.344C86.6863 49.0987 85.9023 48.7733 85.273 48.368C84.6543 47.9733 84.1957 47.5147 83.897 46.992C83.5983 46.4693 83.449 45.9253 83.449 45.36C83.449 44.624 83.673 44.0053 84.121 43.504C84.569 42.992 85.1823 42.592 85.961 42.304C85.5877 42.0587 85.289 41.744 85.065 41.36C84.841 40.976 84.729 40.4907 84.729 39.904C84.729 39.6587 84.7717 39.4027 84.857 39.136C84.9423 38.8587 85.0757 38.592 85.257 38.336C85.4383 38.08 85.6677 37.8347 85.945 37.6C86.2223 37.3653 86.553 37.1573 86.937 36.976C86.073 36.5173 85.3903 35.9093 84.889 35.152C84.3983 34.3947 84.153 33.5147 84.153 32.512C84.153 31.68 84.329 30.9333 84.681 30.272C85.033 29.6 85.513 29.0347 86.121 28.576C86.7397 28.1067 87.465 27.7493 88.297 27.504C89.129 27.248 90.0303 27.12 91.001 27.12ZM94.681 44.608C94.681 44.3413 94.5957 44.128 94.425 43.968C94.265 43.808 94.041 43.68 93.753 43.584C93.4757 43.488 93.145 43.4187 92.761 43.376C92.3877 43.3333 91.9823 43.3013 91.545 43.28C91.1077 43.2587 90.6543 43.2427 90.185 43.232C89.7157 43.2107 89.2517 43.1733 88.793 43.12C88.4837 43.3333 88.2277 43.5733 88.025 43.84C87.833 44.096 87.737 44.3893 87.737 44.72C87.737 44.9547 87.785 45.168 87.881 45.36C87.9877 45.552 88.169 45.7173 88.425 45.856C88.681 45.9947 89.0223 46.1013 89.449 46.176C89.8863 46.2613 90.4357 46.304 91.097 46.304C91.8117 46.304 92.3983 46.2613 92.857 46.176C93.3157 46.0907 93.6783 45.9733 93.945 45.824C94.2223 45.6747 94.4143 45.4933 94.521 45.28C94.6277 45.0773 94.681 44.8533 94.681 44.608ZM91.001 34.832C91.8223 34.832 92.4143 34.6293 92.777 34.224C93.1503 33.808 93.337 33.2747 93.337 32.624C93.337 31.952 93.1503 31.424 92.777 31.04C92.4143 30.656 91.8223 30.464 91.001 30.464C90.1797 30.464 89.5823 30.656 89.209 31.04C88.8463 31.424 88.665 31.952 88.665 32.624C88.665 32.944 88.7077 33.2373 88.793 33.504C88.889 33.7707 89.033 34.0053 89.225 34.208C89.417 34.4 89.657 34.5547 89.945 34.672C90.2437 34.7787 90.5957 34.832 91.001 34.832ZM109.458 44V30.816L108.37 30.592C107.997 30.5067 107.693 30.3733 107.458 30.192C107.234 30.0107 107.122 29.744 107.122 29.392V27.44H109.458V26.496C109.458 25.5467 109.608 24.688 109.906 23.92C110.216 23.152 110.653 22.496 111.218 21.952C111.794 21.408 112.493 20.9867 113.314 20.688C114.136 20.3893 115.069 20.24 116.114 20.24C116.52 20.24 116.893 20.2667 117.234 20.32C117.586 20.3627 117.949 20.4373 118.322 20.544L118.226 22.96C118.216 23.1307 118.168 23.2747 118.082 23.392C118.008 23.4987 117.912 23.5893 117.794 23.664C117.677 23.728 117.544 23.776 117.394 23.808C117.256 23.84 117.117 23.856 116.978 23.856C116.541 23.856 116.152 23.8987 115.81 23.984C115.469 24.0693 115.181 24.224 114.946 24.448C114.722 24.6613 114.552 24.9493 114.434 25.312C114.317 25.664 114.258 26.112 114.258 26.656V27.44H118.162V30.832H114.418V44H109.458ZM128.028 27.152C129.287 27.152 130.434 27.3493 131.468 27.744C132.503 28.1387 133.388 28.704 134.124 29.44C134.871 30.176 135.447 31.072 135.852 32.128C136.268 33.1733 136.476 34.352 136.476 35.664C136.476 36.9867 136.268 38.1813 135.852 39.248C135.447 40.304 134.871 41.2053 134.124 41.952C133.388 42.688 132.503 43.2587 131.468 43.664C130.434 44.0587 129.287 44.256 128.028 44.256C126.759 44.256 125.602 44.0587 124.556 43.664C123.522 43.2587 122.626 42.688 121.868 41.952C121.122 41.2053 120.54 40.304 120.124 39.248C119.719 38.1813 119.516 36.9867 119.516 35.664C119.516 34.352 119.719 33.1733 120.124 32.128C120.54 31.072 121.122 30.176 121.868 29.44C122.626 28.704 123.522 28.1387 124.556 27.744C125.602 27.3493 126.759 27.152 128.028 27.152ZM128.028 40.576C129.17 40.576 130.007 40.176 130.54 39.376C131.084 38.5653 131.356 37.3387 131.356 35.696C131.356 34.0533 131.084 32.832 130.54 32.032C130.007 31.232 129.17 30.832 128.028 30.832C126.855 30.832 125.996 31.232 125.452 32.032C124.908 32.832 124.636 34.0533 124.636 35.696C124.636 37.3387 124.908 38.5653 125.452 39.376C125.996 40.176 126.855 40.576 128.028 40.576ZM139.519 44V27.408H142.463C142.708 27.408 142.911 27.4293 143.071 27.472C143.241 27.5147 143.38 27.584 143.487 27.68C143.604 27.7653 143.689 27.8827 143.743 28.032C143.807 28.1813 143.86 28.3627 143.903 28.576L144.175 30.128C144.783 29.1893 145.465 28.448 146.223 27.904C146.98 27.36 147.807 27.088 148.703 27.088C149.46 27.088 150.068 27.2693 150.527 27.632L149.887 31.28C149.844 31.504 149.759 31.664 149.631 31.76C149.503 31.8453 149.332 31.888 149.119 31.888C148.937 31.888 148.724 31.8667 148.479 31.824C148.233 31.7707 147.924 31.744 147.551 31.744C146.249 31.744 145.225 32.4373 144.479 33.824V44H139.519ZM171.021 44C170.552 44 170.194 43.936 169.949 43.808C169.714 43.68 169.517 43.4133 169.357 43.008L169.005 42.096C168.589 42.448 168.189 42.7573 167.805 43.024C167.421 43.2907 167.021 43.52 166.605 43.712C166.2 43.8933 165.762 44.0267 165.293 44.112C164.834 44.208 164.322 44.256 163.757 44.256C163 44.256 162.312 44.16 161.693 43.968C161.074 43.7653 160.546 43.472 160.109 43.088C159.682 42.704 159.352 42.2293 159.117 41.664C158.882 41.088 158.765 40.4267 158.765 39.68C158.765 39.0933 158.914 38.4907 159.213 37.872C159.512 37.2533 160.029 36.6933 160.765 36.192C161.501 35.68 162.493 35.2533 163.741 34.912C164.989 34.5707 166.562 34.3787 168.461 34.336V33.632C168.461 32.6613 168.258 31.9627 167.853 31.536C167.458 31.0987 166.893 30.88 166.157 30.88C165.57 30.88 165.09 30.944 164.717 31.072C164.344 31.2 164.008 31.344 163.709 31.504C163.421 31.664 163.138 31.808 162.861 31.936C162.584 32.064 162.253 32.128 161.869 32.128C161.528 32.128 161.234 32.048 160.989 31.888C160.754 31.7173 160.568 31.5093 160.429 31.264L159.533 29.712C160.536 28.8267 161.645 28.1707 162.861 27.744C164.088 27.3067 165.4 27.088 166.797 27.088C167.8 27.088 168.701 27.2533 169.501 27.584C170.312 27.904 170.994 28.3573 171.549 28.944C172.114 29.52 172.546 30.208 172.845 31.008C173.144 31.808 173.293 32.6827 173.293 33.632V44H171.021ZM165.325 40.976C165.965 40.976 166.525 40.864 167.005 40.64C167.485 40.416 167.97 40.0533 168.461 39.552V37.248C167.469 37.2907 166.653 37.376 166.013 37.504C165.373 37.632 164.866 37.792 164.493 37.984C164.12 38.176 163.858 38.3947 163.709 38.64C163.57 38.8853 163.501 39.152 163.501 39.44C163.501 40.0053 163.656 40.4053 163.965 40.64C164.274 40.864 164.728 40.976 165.325 40.976ZM184.379 44V30.816L183.291 30.592C182.917 30.5067 182.613 30.3733 182.379 30.192C182.155 30.0107 182.043 29.744 182.043 29.392V27.44H184.379V26.496C184.379 25.5467 184.528 24.688 184.827 23.92C185.136 23.152 185.573 22.496 186.139 21.952C186.715 21.408 187.413 20.9867 188.235 20.688C189.056 20.3893 189.989 20.24 191.035 20.24C191.44 20.24 191.813 20.2667 192.155 20.32C192.507 20.3627 192.869 20.4373 193.243 20.544L193.147 22.96C193.136 23.1307 193.088 23.2747 193.003 23.392C192.928 23.4987 192.832 23.5893 192.715 23.664C192.597 23.728 192.464 23.776 192.315 23.808C192.176 23.84 192.037 23.856 191.899 23.856C191.461 23.856 191.072 23.8987 190.731 23.984C190.389 24.0693 190.101 24.224 189.867 24.448C189.643 24.6613 189.472 24.9493 189.355 25.312C189.237 25.664 189.179 26.112 189.179 26.656V27.44H193.083V30.832H189.339V44H184.379ZM200.196 27.408V37.936C200.196 38.7573 200.383 39.392 200.756 39.84C201.13 40.288 201.679 40.512 202.404 40.512C202.948 40.512 203.455 40.4 203.924 40.176C204.404 39.952 204.868 39.6373 205.316 39.232V27.408H210.276V44H207.204C206.586 44 206.18 43.7227 205.988 43.168L205.684 42.208C205.364 42.5173 205.034 42.8 204.692 43.056C204.351 43.3013 203.983 43.5147 203.588 43.696C203.204 43.8667 202.788 44 202.34 44.096C201.892 44.2027 201.402 44.256 200.868 44.256C199.962 44.256 199.156 44.1013 198.452 43.792C197.759 43.472 197.172 43.0293 196.692 42.464C196.212 41.8987 195.85 41.232 195.604 40.464C195.359 39.696 195.236 38.8533 195.236 37.936V27.408H200.196ZM219.559 20.048V44H214.599V20.048H219.559ZM229.004 20.048V44H224.044V20.048H229.004ZM233.009 32.272H241.649V36.272H233.009V32.272ZM251.316 44.256C250.527 44.256 249.828 44.144 249.22 43.92C248.623 43.6853 248.116 43.36 247.7 42.944C247.295 42.5173 246.986 42.0053 246.772 41.408C246.559 40.8107 246.452 40.144 246.452 39.408V30.832H245.044C244.788 30.832 244.57 30.752 244.388 30.592C244.207 30.4213 244.116 30.176 244.116 29.856V27.92L246.756 27.408L247.732 23.36C247.86 22.848 248.223 22.592 248.82 22.592H251.412V27.44H255.444V30.832H251.412V39.072C251.412 39.456 251.503 39.776 251.684 40.032C251.876 40.2773 252.148 40.4 252.5 40.4C252.682 40.4 252.831 40.384 252.948 40.352C253.076 40.3093 253.183 40.2667 253.268 40.224C253.364 40.1707 253.45 40.128 253.524 40.096C253.61 40.0533 253.706 40.032 253.812 40.032C253.962 40.032 254.079 40.0693 254.164 40.144C254.26 40.208 254.356 40.3147 254.452 40.464L255.956 42.816C255.316 43.296 254.596 43.6587 253.796 43.904C252.996 44.1387 252.17 44.256 251.316 44.256ZM263.745 27.408V44H258.785V27.408H263.745ZM264.321 22.864C264.321 23.2587 264.241 23.632 264.081 23.984C263.921 24.3253 263.702 24.6293 263.425 24.896C263.148 25.152 262.822 25.36 262.449 25.52C262.086 25.6693 261.697 25.744 261.281 25.744C260.876 25.744 260.497 25.6693 260.145 25.52C259.793 25.36 259.478 25.152 259.201 24.896C258.934 24.6293 258.721 24.3253 258.561 23.984C258.412 23.632 258.337 23.2587 258.337 22.864C258.337 22.4587 258.412 22.08 258.561 21.728C258.721 21.376 258.934 21.0667 259.201 20.8C259.478 20.5333 259.793 20.3253 260.145 20.176C260.497 20.0267 260.876 19.952 261.281 19.952C261.697 19.952 262.086 20.0267 262.449 20.176C262.822 20.3253 263.148 20.5333 263.425 20.8C263.702 21.0667 263.921 21.376 264.081 21.728C264.241 22.08 264.321 22.4587 264.321 22.864ZM268.07 44V27.408H271.142C271.451 27.408 271.707 27.4773 271.91 27.616C272.123 27.7547 272.273 27.9627 272.358 28.24L272.63 29.136C272.907 28.848 273.195 28.5867 273.494 28.352C273.793 28.1067 274.113 27.8987 274.454 27.728C274.806 27.5467 275.179 27.408 275.574 27.312C275.979 27.2053 276.422 27.152 276.902 27.152C277.905 27.152 278.731 27.4133 279.382 27.936C280.043 28.448 280.545 29.136 280.886 30C281.163 29.488 281.499 29.0507 281.894 28.688C282.299 28.3253 282.731 28.032 283.19 27.808C283.659 27.584 284.15 27.4187 284.662 27.312C285.185 27.2053 285.702 27.152 286.214 27.152C287.163 27.152 288.006 27.296 288.742 27.584C289.478 27.8613 290.091 28.272 290.582 28.816C291.083 29.3493 291.462 30.0107 291.718 30.8C291.974 31.5787 292.102 32.464 292.102 33.456V44H287.142V33.456C287.142 31.7387 286.406 30.88 284.934 30.88C284.262 30.88 283.702 31.104 283.254 31.552C282.817 31.9893 282.598 32.624 282.598 33.456V44H277.638V33.456C277.638 32.5067 277.451 31.84 277.078 31.456C276.705 31.072 276.155 30.88 275.43 30.88C274.982 30.88 274.555 30.9813 274.15 31.184C273.755 31.3867 273.382 31.6587 273.03 32V44H268.07ZM303.057 27.152C304.155 27.152 305.158 27.3227 306.065 27.664C306.982 28.0053 307.766 28.5013 308.417 29.152C309.078 29.8027 309.59 30.6027 309.953 31.552C310.326 32.4907 310.513 33.5573 310.513 34.752C310.513 35.1253 310.497 35.4293 310.465 35.664C310.433 35.8987 310.374 36.0853 310.289 36.224C310.203 36.3627 310.086 36.4587 309.937 36.512C309.798 36.5653 309.617 36.592 309.393 36.592H299.825C299.985 37.9787 300.406 38.9867 301.089 39.616C301.771 40.2347 302.651 40.544 303.729 40.544C304.305 40.544 304.801 40.4747 305.217 40.336C305.633 40.1973 306.001 40.0427 306.321 39.872C306.651 39.7013 306.95 39.5467 307.217 39.408C307.494 39.2693 307.782 39.2 308.081 39.2C308.475 39.2 308.774 39.344 308.977 39.632L310.417 41.408C309.905 41.9947 309.35 42.4747 308.753 42.848C308.166 43.2107 307.558 43.4987 306.929 43.712C306.31 43.9147 305.686 44.0533 305.057 44.128C304.438 44.2133 303.846 44.256 303.281 44.256C302.118 44.256 301.025 44.0693 300.001 43.696C298.987 43.312 298.097 42.7467 297.329 42C296.571 41.2533 295.969 40.3253 295.521 39.216C295.083 38.1067 294.865 36.816 294.865 35.344C294.865 34.2347 295.051 33.184 295.425 32.192C295.809 31.2 296.353 30.3307 297.057 29.584C297.771 28.8373 298.63 28.2453 299.633 27.808C300.646 27.3707 301.787 27.152 303.057 27.152ZM303.153 30.576C302.203 30.576 301.462 30.848 300.929 31.392C300.395 31.9253 300.043 32.6987 299.873 33.712H306.065C306.065 33.3173 306.011 32.9333 305.905 32.56C305.809 32.1867 305.643 31.856 305.409 31.568C305.185 31.2693 304.886 31.0293 304.513 30.848C304.139 30.6667 303.686 30.576 303.153 30.576ZM319.546 41.488C319.546 41.104 319.616 40.7467 319.754 40.416C319.904 40.0853 320.101 39.7973 320.346 39.552C320.602 39.3067 320.901 39.1147 321.242 38.976C321.584 38.8267 321.957 38.752 322.362 38.752C322.757 38.752 323.125 38.8267 323.466 38.976C323.808 39.1147 324.106 39.3067 324.362 39.552C324.618 39.7973 324.816 40.0853 324.954 40.416C325.104 40.7467 325.178 41.104 325.178 41.488C325.178 41.872 325.104 42.2347 324.954 42.576C324.816 42.9067 324.618 43.1947 324.362 43.44C324.106 43.6853 323.808 43.8773 323.466 44.016C323.125 44.1547 322.757 44.224 322.362 44.224C321.957 44.224 321.584 44.1547 321.242 44.016C320.901 43.8773 320.602 43.6853 320.346 43.44C320.101 43.1947 319.904 42.9067 319.754 42.576C319.616 42.2347 319.546 41.872 319.546 41.488ZM330.309 41.488C330.309 41.104 330.378 40.7467 330.517 40.416C330.666 40.0853 330.863 39.7973 331.109 39.552C331.365 39.3067 331.663 39.1147 332.005 38.976C332.346 38.8267 332.719 38.752 333.125 38.752C333.519 38.752 333.887 38.8267 334.229 38.976C334.57 39.1147 334.869 39.3067 335.125 39.552C335.381 39.7973 335.578 40.0853 335.717 40.416C335.866 40.7467 335.941 41.104 335.941 41.488C335.941 41.872 335.866 42.2347 335.717 42.576C335.578 42.9067 335.381 43.1947 335.125 43.44C334.869 43.6853 334.57 43.8773 334.229 44.016C333.887 44.1547 333.519 44.224 333.125 44.224C332.719 44.224 332.346 44.1547 332.005 44.016C331.663 43.8773 331.365 43.6853 331.109 43.44C330.863 43.1947 330.666 42.9067 330.517 42.576C330.378 42.2347 330.309 41.872 330.309 41.488ZM341.071 41.488C341.071 41.104 341.141 40.7467 341.279 40.416C341.429 40.0853 341.626 39.7973 341.871 39.552C342.127 39.3067 342.426 39.1147 342.767 38.976C343.109 38.8267 343.482 38.752 343.887 38.752C344.282 38.752 344.65 38.8267 344.991 38.976C345.333 39.1147 345.631 39.3067 345.887 39.552C346.143 39.7973 346.341 40.0853 346.479 40.416C346.629 40.7467 346.703 41.104 346.703 41.488C346.703 41.872 346.629 42.2347 346.479 42.576C346.341 42.9067 346.143 43.1947 345.887 43.44C345.631 43.6853 345.333 43.8773 344.991 44.016C344.65 44.1547 344.282 44.224 343.887 44.224C343.482 44.224 343.109 44.1547 342.767 44.016C342.426 43.8773 342.127 43.6853 341.871 43.44C341.626 43.1947 341.429 42.9067 341.279 42.576C341.141 42.2347 341.071 41.872 341.071 41.488Z" fill="#47F6CB" fill-opacity="0.9"/>
<path d="M13.376 31C12.9067 31 12.5493 30.936 12.304 30.808C12.0693 30.68 11.872 30.4133 11.712 30.008L11.36 29.096C10.944 29.448 10.544 29.7573 10.16 30.024C9.776 30.2907 9.376 30.52 8.96 30.712C8.55467 30.8933 8.11733 31.0267 7.648 31.112C7.18933 31.208 6.67733 31.256 6.112 31.256C5.35467 31.256 4.66667 31.16 4.048 30.968C3.42933 30.7653 2.90133 30.472 2.464 30.088C2.03733 29.704 1.70667 29.2293 1.472 28.664C1.23733 28.088 1.12 27.4267 1.12 26.68C1.12 26.0933 1.26933 25.4907 1.568 24.872C1.86667 24.2533 2.384 23.6933 3.12 23.192C3.856 22.68 4.848 22.2533 6.096 21.912C7.344 21.5707 8.91733 21.3787 10.816 21.336V20.632C10.816 19.6613 10.6133 18.9627 10.208 18.536C9.81333 18.0987 9.248 17.88 8.512 17.88C7.92533 17.88 7.44533 17.944 7.072 18.072C6.69867 18.2 6.36267 18.344 6.064 18.504C5.776 18.664 5.49333 18.808 5.216 18.936C4.93867 19.064 4.608 19.128 4.224 19.128C3.88267 19.128 3.58933 19.048 3.344 18.888C3.10933 18.7173 2.92267 18.5093 2.784 18.264L1.888 16.712C2.89067 15.8267 4 15.1707 5.216 14.744C6.44267 14.3067 7.75467 14.088 9.152 14.088C10.1547 14.088 11.056 14.2533 11.856 14.584C12.6667 14.904 13.3493 15.3573 13.904 15.944C14.4693 16.52 14.9013 17.208 15.2 18.008C15.4987 18.808 15.648 19.6827 15.648 20.632V31H13.376ZM7.68 27.976C8.32 27.976 8.88 27.864 9.36 27.64C9.84 27.416 10.3253 27.0533 10.816 26.552V24.248C9.824 24.2907 9.008 24.376 8.368 24.504C7.728 24.632 7.22133 24.792 6.848 24.984C6.47467 25.176 6.21333 25.3947 6.064 25.64C5.92533 25.8853 5.856 26.152 5.856 26.44C5.856 27.0053 6.01067 27.4053 6.32 27.64C6.62933 27.864 7.08267 27.976 7.68 27.976ZM24.61 14.408V31H19.65V14.408H24.61ZM25.186 9.864C25.186 10.2587 25.106 10.632 24.946 10.984C24.786 11.3253 24.5673 11.6293 24.29 11.896C24.0127 12.152 23.6873 12.36 23.314 12.52C22.9513 12.6693 22.562 12.744 22.146 12.744C21.7407 12.744 21.362 12.6693 21.01 12.52C20.658 12.36 20.3433 12.152 20.066 11.896C19.7993 11.6293 19.586 11.3253 19.426 10.984C19.2767 10.632 19.202 10.2587 19.202 9.864C19.202 9.45867 19.2767 9.08 19.426 8.728C19.586 8.376 19.7993 8.06667 20.066 7.8C20.3433 7.53333 20.658 7.32533 21.01 7.176C21.362 7.02667 21.7407 6.952 22.146 6.952C22.562 6.952 22.9513 7.02667 23.314 7.176C23.6873 7.32533 24.0127 7.53333 24.29 7.8C24.5673 8.06667 24.786 8.376 24.946 8.728C25.106 9.08 25.186 9.45867 25.186 9.864ZM28.935 31V14.408H32.007C32.3163 14.408 32.5723 14.4773 32.775 14.616C32.9883 14.7547 33.1377 14.9627 33.223 15.24L33.495 16.136C33.7723 15.848 34.0603 15.5867 34.359 15.352C34.6577 15.1067 34.9777 14.8987 35.319 14.728C35.671 14.5467 36.0443 14.408 36.439 14.312C36.8443 14.2053 37.287 14.152 37.767 14.152C38.7697 14.152 39.5963 14.4133 40.247 14.936C40.9083 15.448 41.4097 16.136 41.751 17C42.0283 16.488 42.3643 16.0507 42.759 15.688C43.1643 15.3253 43.5963 15.032 44.055 14.808C44.5243 14.584 45.015 14.4187 45.527 14.312C46.0497 14.2053 46.567 14.152 47.079 14.152C48.0283 14.152 48.871 14.296 49.607 14.584C50.343 14.8613 50.9563 15.272 51.447 15.816C51.9483 16.3493 52.327 17.0107 52.583 17.8C52.839 18.5787 52.967 19.464 52.967 20.456V31H48.007V20.456C48.007 18.7387 47.271 17.88 45.799 17.88C45.127 17.88 44.567 18.104 44.119 18.552C43.6817 18.9893 43.463 19.624 43.463 20.456V31H38.503V20.456C38.503 19.5067 38.3163 18.84 37.943 18.456C37.5697 18.072 37.0203 17.88 36.295 17.88C35.847 17.88 35.4203 17.9813 35.015 18.184C34.6203 18.3867 34.247 18.6587 33.895 19V31H28.935ZM61.9375 14.408V31H56.9775V14.408H61.9375ZM62.5135 9.864C62.5135 10.2587 62.4335 10.632 62.2735 10.984C62.1135 11.3253 61.8948 11.6293 61.6175 11.896C61.3402 12.152 61.0148 12.36 60.6415 12.52C60.2788 12.6693 59.8895 12.744 59.4735 12.744C59.0682 12.744 58.6895 12.6693 58.3375 12.52C57.9855 12.36 57.6708 12.152 57.3935 11.896C57.1268 11.6293 56.9135 11.3253 56.7535 10.984C56.6042 10.632 56.5295 10.2587 56.5295 9.864C56.5295 9.45867 56.6042 9.08 56.7535 8.728C56.9135 8.376 57.1268 8.06667 57.3935 7.8C57.6708 7.53333 57.9855 7.32533 58.3375 7.176C58.6895 7.02667 59.0682 6.952 59.4735 6.952C59.8895 6.952 60.2788 7.02667 60.6415 7.176C61.0148 7.32533 61.3402 7.53333 61.6175 7.8C61.8948 8.06667 62.1135 8.376 62.2735 8.728C62.4335 9.08 62.5135 9.45867 62.5135 9.864ZM66.2625 31V14.408H69.3345C69.6438 14.408 69.8998 14.4773 70.1025 14.616C70.3158 14.7547 70.4652 14.9627 70.5505 15.24L70.8385 16.2C71.1585 15.9013 71.4892 15.624 71.8305 15.368C72.1718 15.112 72.5345 14.8987 72.9185 14.728C73.3132 14.5467 73.7345 14.408 74.1825 14.312C74.6412 14.2053 75.1372 14.152 75.6705 14.152C76.5772 14.152 77.3772 14.312 78.0705 14.632C78.7745 14.9413 79.3665 15.3787 79.8465 15.944C80.3265 16.4987 80.6892 17.1653 80.9345 17.944C81.1798 18.712 81.3025 19.5493 81.3025 20.456V31H76.3425V20.456C76.3425 19.6453 76.1558 19.016 75.7825 18.568C75.4092 18.1093 74.8598 17.88 74.1345 17.88C73.5905 17.88 73.0785 17.9973 72.5985 18.232C72.1185 18.4667 71.6598 18.7813 71.2225 19.176V31H66.2625ZM91.001 14.12C91.705 14.12 92.3663 14.1893 92.985 14.328C93.6143 14.4667 94.1957 14.664 94.729 14.92H99.737V16.728C99.737 17.0053 99.657 17.224 99.497 17.384C99.3477 17.544 99.0863 17.6667 98.713 17.752L97.497 18.024C97.6463 18.504 97.721 19 97.721 19.512C97.721 20.344 97.545 21.0907 97.193 21.752C96.8517 22.4133 96.377 22.9787 95.769 23.448C95.1717 23.9067 94.4623 24.264 93.641 24.52C92.8197 24.7653 91.9397 24.888 91.001 24.888C90.4783 24.888 89.9877 24.856 89.529 24.792C89.1663 25.0053 88.985 25.2507 88.985 25.528C88.985 25.8053 89.129 26.008 89.417 26.136C89.7157 26.2533 90.105 26.3387 90.585 26.392C91.065 26.4347 91.6143 26.4667 92.233 26.488C92.8517 26.4987 93.481 26.536 94.121 26.6C94.761 26.6533 95.3903 26.7493 96.009 26.888C96.6277 27.0267 97.177 27.2507 97.657 27.56C98.137 27.8693 98.521 28.2853 98.809 28.808C99.1077 29.32 99.257 29.976 99.257 30.776C99.257 31.5227 99.0757 32.2533 98.713 32.968C98.3503 33.6827 97.817 34.3173 97.113 34.872C96.409 35.4267 95.545 35.8693 94.521 36.2C93.497 36.5413 92.3237 36.712 91.001 36.712C89.6997 36.712 88.5743 36.5893 87.625 36.344C86.6863 36.0987 85.9023 35.7733 85.273 35.368C84.6543 34.9733 84.1957 34.5147 83.897 33.992C83.5983 33.4693 83.449 32.9253 83.449 32.36C83.449 31.624 83.673 31.0053 84.121 30.504C84.569 29.992 85.1823 29.592 85.961 29.304C85.5877 29.0587 85.289 28.744 85.065 28.36C84.841 27.976 84.729 27.4907 84.729 26.904C84.729 26.6587 84.7717 26.4027 84.857 26.136C84.9423 25.8587 85.0757 25.592 85.257 25.336C85.4383 25.08 85.6677 24.8347 85.945 24.6C86.2223 24.3653 86.553 24.1573 86.937 23.976C86.073 23.5173 85.3903 22.9093 84.889 22.152C84.3983 21.3947 84.153 20.5147 84.153 19.512C84.153 18.68 84.329 17.9333 84.681 17.272C85.033 16.6 85.513 16.0347 86.121 15.576C86.7397 15.1067 87.465 14.7493 88.297 14.504C89.129 14.248 90.0303 14.12 91.001 14.12ZM94.681 31.608C94.681 31.3413 94.5957 31.128 94.425 30.968C94.265 30.808 94.041 30.68 93.753 30.584C93.4757 30.488 93.145 30.4187 92.761 30.376C92.3877 30.3333 91.9823 30.3013 91.545 30.28C91.1077 30.2587 90.6543 30.2427 90.185 30.232C89.7157 30.2107 89.2517 30.1733 88.793 30.12C88.4837 30.3333 88.2277 30.5733 88.025 30.84C87.833 31.096 87.737 31.3893 87.737 31.72C87.737 31.9547 87.785 32.168 87.881 32.36C87.9877 32.552 88.169 32.7173 88.425 32.856C88.681 32.9947 89.0223 33.1013 89.449 33.176C89.8863 33.2613 90.4357 33.304 91.097 33.304C91.8117 33.304 92.3983 33.2613 92.857 33.176C93.3157 33.0907 93.6783 32.9733 93.945 32.824C94.2223 32.6747 94.4143 32.4933 94.521 32.28C94.6277 32.0773 94.681 31.8533 94.681 31.608ZM91.001 21.832C91.8223 21.832 92.4143 21.6293 92.777 21.224C93.1503 20.808 93.337 20.2747 93.337 19.624C93.337 18.952 93.1503 18.424 92.777 18.04C92.4143 17.656 91.8223 17.464 91.001 17.464C90.1797 17.464 89.5823 17.656 89.209 18.04C88.8463 18.424 88.665 18.952 88.665 19.624C88.665 19.944 88.7077 20.2373 88.793 20.504C88.889 20.7707 89.033 21.0053 89.225 21.208C89.417 21.4 89.657 21.5547 89.945 21.672C90.2437 21.7787 90.5957 21.832 91.001 21.832ZM109.458 31V17.816L108.37 17.592C107.997 17.5067 107.693 17.3733 107.458 17.192C107.234 17.0107 107.122 16.744 107.122 16.392V14.44H109.458V13.496C109.458 12.5467 109.608 11.688 109.906 10.92C110.216 10.152 110.653 9.496 111.218 8.952C111.794 8.408 112.493 7.98667 113.314 7.688C114.136 7.38933 115.069 7.24 116.114 7.24C116.52 7.24 116.893 7.26667 117.234 7.32C117.586 7.36267 117.949 7.43733 118.322 7.544L118.226 9.96C118.216 10.1307 118.168 10.2747 118.082 10.392C118.008 10.4987 117.912 10.5893 117.794 10.664C117.677 10.728 117.544 10.776 117.394 10.808C117.256 10.84 117.117 10.856 116.978 10.856C116.541 10.856 116.152 10.8987 115.81 10.984C115.469 11.0693 115.181 11.224 114.946 11.448C114.722 11.6613 114.552 11.9493 114.434 12.312C114.317 12.664 114.258 13.112 114.258 13.656V14.44H118.162V17.832H114.418V31H109.458ZM128.028 14.152C129.287 14.152 130.434 14.3493 131.468 14.744C132.503 15.1387 133.388 15.704 134.124 16.44C134.871 17.176 135.447 18.072 135.852 19.128C136.268 20.1733 136.476 21.352 136.476 22.664C136.476 23.9867 136.268 25.1813 135.852 26.248C135.447 27.304 134.871 28.2053 134.124 28.952C133.388 29.688 132.503 30.2587 131.468 30.664C130.434 31.0587 129.287 31.256 128.028 31.256C126.759 31.256 125.602 31.0587 124.556 30.664C123.522 30.2587 122.626 29.688 121.868 28.952C121.122 28.2053 120.54 27.304 120.124 26.248C119.719 25.1813 119.516 23.9867 119.516 22.664C119.516 21.352 119.719 20.1733 120.124 19.128C120.54 18.072 121.122 17.176 121.868 16.44C122.626 15.704 123.522 15.1387 124.556 14.744C125.602 14.3493 126.759 14.152 128.028 14.152ZM128.028 27.576C129.17 27.576 130.007 27.176 130.54 26.376C131.084 25.5653 131.356 24.3387 131.356 22.696C131.356 21.0533 131.084 19.832 130.54 19.032C130.007 18.232 129.17 17.832 128.028 17.832C126.855 17.832 125.996 18.232 125.452 19.032C124.908 19.832 124.636 21.0533 124.636 22.696C124.636 24.3387 124.908 25.5653 125.452 26.376C125.996 27.176 126.855 27.576 128.028 27.576ZM139.519 31V14.408H142.463C142.708 14.408 142.911 14.4293 143.071 14.472C143.241 14.5147 143.38 14.584 143.487 14.68C143.604 14.7653 143.689 14.8827 143.743 15.032C143.807 15.1813 143.86 15.3627 143.903 15.576L144.175 17.128C144.783 16.1893 145.465 15.448 146.223 14.904C146.98 14.36 147.807 14.088 148.703 14.088C149.46 14.088 150.068 14.2693 150.527 14.632L149.887 18.28C149.844 18.504 149.759 18.664 149.631 18.76C149.503 18.8453 149.332 18.888 149.119 18.888C148.937 18.888 148.724 18.8667 148.479 18.824C148.233 18.7707 147.924 18.744 147.551 18.744C146.249 18.744 145.225 19.4373 144.479 20.824V31H139.519ZM171.021 31C170.552 31 170.194 30.936 169.949 30.808C169.714 30.68 169.517 30.4133 169.357 30.008L169.005 29.096C168.589 29.448 168.189 29.7573 167.805 30.024C167.421 30.2907 167.021 30.52 166.605 30.712C166.2 30.8933 165.762 31.0267 165.293 31.112C164.834 31.208 164.322 31.256 163.757 31.256C163 31.256 162.312 31.16 161.693 30.968C161.074 30.7653 160.546 30.472 160.109 30.088C159.682 29.704 159.352 29.2293 159.117 28.664C158.882 28.088 158.765 27.4267 158.765 26.68C158.765 26.0933 158.914 25.4907 159.213 24.872C159.512 24.2533 160.029 23.6933 160.765 23.192C161.501 22.68 162.493 22.2533 163.741 21.912C164.989 21.5707 166.562 21.3787 168.461 21.336V20.632C168.461 19.6613 168.258 18.9627 167.853 18.536C167.458 18.0987 166.893 17.88 166.157 17.88C165.57 17.88 165.09 17.944 164.717 18.072C164.344 18.2 164.008 18.344 163.709 18.504C163.421 18.664 163.138 18.808 162.861 18.936C162.584 19.064 162.253 19.128 161.869 19.128C161.528 19.128 161.234 19.048 160.989 18.888C160.754 18.7173 160.568 18.5093 160.429 18.264L159.533 16.712C160.536 15.8267 161.645 15.1707 162.861 14.744C164.088 14.3067 165.4 14.088 166.797 14.088C167.8 14.088 168.701 14.2533 169.501 14.584C170.312 14.904 170.994 15.3573 171.549 15.944C172.114 16.52 172.546 17.208 172.845 18.008C173.144 18.808 173.293 19.6827 173.293 20.632V31H171.021ZM165.325 27.976C165.965 27.976 166.525 27.864 167.005 27.64C167.485 27.416 167.97 27.0533 168.461 26.552V24.248C167.469 24.2907 166.653 24.376 166.013 24.504C165.373 24.632 164.866 24.792 164.493 24.984C164.12 25.176 163.858 25.3947 163.709 25.64C163.57 25.8853 163.501 26.152 163.501 26.44C163.501 27.0053 163.656 27.4053 163.965 27.64C164.274 27.864 164.728 27.976 165.325 27.976ZM184.379 31V17.816L183.291 17.592C182.917 17.5067 182.613 17.3733 182.379 17.192C182.155 17.0107 182.043 16.744 182.043 16.392V14.44H184.379V13.496C184.379 12.5467 184.528 11.688 184.827 10.92C185.136 10.152 185.573 9.496 186.139 8.952C186.715 8.408 187.413 7.98667 188.235 7.688C189.056 7.38933 189.989 7.24 191.035 7.24C191.44 7.24 191.813 7.26667 192.155 7.32C192.507 7.36267 192.869 7.43733 193.243 7.544L193.147 9.96C193.136 10.1307 193.088 10.2747 193.003 10.392C192.928 10.4987 192.832 10.5893 192.715 10.664C192.597 10.728 192.464 10.776 192.315 10.808C192.176 10.84 192.037 10.856 191.899 10.856C191.461 10.856 191.072 10.8987 190.731 10.984C190.389 11.0693 190.101 11.224 189.867 11.448C189.643 11.6613 189.472 11.9493 189.355 12.312C189.237 12.664 189.179 13.112 189.179 13.656V14.44H193.083V17.832H189.339V31H184.379ZM200.196 14.408V24.936C200.196 25.7573 200.383 26.392 200.756 26.84C201.13 27.288 201.679 27.512 202.404 27.512C202.948 27.512 203.455 27.4 203.924 27.176C204.404 26.952 204.868 26.6373 205.316 26.232V14.408H210.276V31H207.204C206.586 31 206.18 30.7227 205.988 30.168L205.684 29.208C205.364 29.5173 205.034 29.8 204.692 30.056C204.351 30.3013 203.983 30.5147 203.588 30.696C203.204 30.8667 202.788 31 202.34 31.096C201.892 31.2027 201.402 31.256 200.868 31.256C199.962 31.256 199.156 31.1013 198.452 30.792C197.759 30.472 197.172 30.0293 196.692 29.464C196.212 28.8987 195.85 28.232 195.604 27.464C195.359 26.696 195.236 25.8533 195.236 24.936V14.408H200.196ZM219.559 7.048V31H214.599V7.048H219.559ZM229.004 7.048V31H224.044V7.048H229.004ZM233.009 19.272H241.649V23.272H233.009V19.272ZM251.316 31.256C250.527 31.256 249.828 31.144 249.22 30.92C248.623 30.6853 248.116 30.36 247.7 29.944C247.295 29.5173 246.986 29.0053 246.772 28.408C246.559 27.8107 246.452 27.144 246.452 26.408V17.832H245.044C244.788 17.832 244.57 17.752 244.388 17.592C244.207 17.4213 244.116 17.176 244.116 16.856V14.92L246.756 14.408L247.732 10.36C247.86 9.848 248.223 9.592 248.82 9.592H251.412V14.44H255.444V17.832H251.412V26.072C251.412 26.456 251.503 26.776 251.684 27.032C251.876 27.2773 252.148 27.4 252.5 27.4C252.682 27.4 252.831 27.384 252.948 27.352C253.076 27.3093 253.183 27.2667 253.268 27.224C253.364 27.1707 253.45 27.128 253.524 27.096C253.61 27.0533 253.706 27.032 253.812 27.032C253.962 27.032 254.079 27.0693 254.164 27.144C254.26 27.208 254.356 27.3147 254.452 27.464L255.956 29.816C255.316 30.296 254.596 30.6587 253.796 30.904C252.996 31.1387 252.17 31.256 251.316 31.256ZM263.745 14.408V31H258.785V14.408H263.745ZM264.321 9.864C264.321 10.2587 264.241 10.632 264.081 10.984C263.921 11.3253 263.702 11.6293 263.425 11.896C263.148 12.152 262.822 12.36 262.449 12.52C262.086 12.6693 261.697 12.744 261.281 12.744C260.876 12.744 260.497 12.6693 260.145 12.52C259.793 12.36 259.478 12.152 259.201 11.896C258.934 11.6293 258.721 11.3253 258.561 10.984C258.412 10.632 258.337 10.2587 258.337 9.864C258.337 9.45867 258.412 9.08 258.561 8.728C258.721 8.376 258.934 8.06667 259.201 7.8C259.478 7.53333 259.793 7.32533 260.145 7.176C260.497 7.02667 260.876 6.952 261.281 6.952C261.697 6.952 262.086 7.02667 262.449 7.176C262.822 7.32533 263.148 7.53333 263.425 7.8C263.702 8.06667 263.921 8.376 264.081 8.728C264.241 9.08 264.321 9.45867 264.321 9.864ZM268.07 31V14.408H271.142C271.451 14.408 271.707 14.4773 271.91 14.616C272.123 14.7547 272.273 14.9627 272.358 15.24L272.63 16.136C272.907 15.848 273.195 15.5867 273.494 15.352C273.793 15.1067 274.113 14.8987 274.454 14.728C274.806 14.5467 275.179 14.408 275.574 14.312C275.979 14.2053 276.422 14.152 276.902 14.152C277.905 14.152 278.731 14.4133 279.382 14.936C280.043 15.448 280.545 16.136 280.886 17C281.163 16.488 281.499 16.0507 281.894 15.688C282.299 15.3253 282.731 15.032 283.19 14.808C283.659 14.584 284.15 14.4187 284.662 14.312C285.185 14.2053 285.702 14.152 286.214 14.152C287.163 14.152 288.006 14.296 288.742 14.584C289.478 14.8613 290.091 15.272 290.582 15.816C291.083 16.3493 291.462 17.0107 291.718 17.8C291.974 18.5787 292.102 19.464 292.102 20.456V31H287.142V20.456C287.142 18.7387 286.406 17.88 284.934 17.88C284.262 17.88 283.702 18.104 283.254 18.552C282.817 18.9893 282.598 19.624 282.598 20.456V31H277.638V20.456C277.638 19.5067 277.451 18.84 277.078 18.456C276.705 18.072 276.155 17.88 275.43 17.88C274.982 17.88 274.555 17.9813 274.15 18.184C273.755 18.3867 273.382 18.6587 273.03 19V31H268.07ZM303.057 14.152C304.155 14.152 305.158 14.3227 306.065 14.664C306.982 15.0053 307.766 15.5013 308.417 16.152C309.078 16.8027 309.59 17.6027 309.953 18.552C310.326 19.4907 310.513 20.5573 310.513 21.752C310.513 22.1253 310.497 22.4293 310.465 22.664C310.433 22.8987 310.374 23.0853 310.289 23.224C310.203 23.3627 310.086 23.4587 309.937 23.512C309.798 23.5653 309.617 23.592 309.393 23.592H299.825C299.985 24.9787 300.406 25.9867 301.089 26.616C301.771 27.2347 302.651 27.544 303.729 27.544C304.305 27.544 304.801 27.4747 305.217 27.336C305.633 27.1973 306.001 27.0427 306.321 26.872C306.651 26.7013 306.95 26.5467 307.217 26.408C307.494 26.2693 307.782 26.2 308.081 26.2C308.475 26.2 308.774 26.344 308.977 26.632L310.417 28.408C309.905 28.9947 309.35 29.4747 308.753 29.848C308.166 30.2107 307.558 30.4987 306.929 30.712C306.31 30.9147 305.686 31.0533 305.057 31.128C304.438 31.2133 303.846 31.256 303.281 31.256C302.118 31.256 301.025 31.0693 300.001 30.696C298.987 30.312 298.097 29.7467 297.329 29C296.571 28.2533 295.969 27.3253 295.521 26.216C295.083 25.1067 294.865 23.816 294.865 22.344C294.865 21.2347 295.051 20.184 295.425 19.192C295.809 18.2 296.353 17.3307 297.057 16.584C297.771 15.8373 298.63 15.2453 299.633 14.808C300.646 14.3707 301.787 14.152 303.057 14.152ZM303.153 17.576C302.203 17.576 301.462 17.848 300.929 18.392C300.395 18.9253 300.043 19.6987 299.873 20.712H306.065C306.065 20.3173 306.011 19.9333 305.905 19.56C305.809 19.1867 305.643 18.856 305.409 18.568C305.185 18.2693 304.886 18.0293 304.513 17.848C304.139 17.6667 303.686 17.576 303.153 17.576ZM319.546 28.488C319.546 28.104 319.616 27.7467 319.754 27.416C319.904 27.0853 320.101 26.7973 320.346 26.552C320.602 26.3067 320.901 26.1147 321.242 25.976C321.584 25.8267 321.957 25.752 322.362 25.752C322.757 25.752 323.125 25.8267 323.466 25.976C323.808 26.1147 324.106 26.3067 324.362 26.552C324.618 26.7973 324.816 27.0853 324.954 27.416C325.104 27.7467 325.178 28.104 325.178 28.488C325.178 28.872 325.104 29.2347 324.954 29.576C324.816 29.9067 324.618 30.1947 324.362 30.44C324.106 30.6853 323.808 30.8773 323.466 31.016C323.125 31.1547 322.757 31.224 322.362 31.224C321.957 31.224 321.584 31.1547 321.242 31.016C320.901 30.8773 320.602 30.6853 320.346 30.44C320.101 30.1947 319.904 29.9067 319.754 29.576C319.616 29.2347 319.546 28.872 319.546 28.488ZM330.309 28.488C330.309 28.104 330.378 27.7467 330.517 27.416C330.666 27.0853 330.863 26.7973 331.109 26.552C331.365 26.3067 331.663 26.1147 332.005 25.976C332.346 25.8267 332.719 25.752 333.125 25.752C333.519 25.752 333.887 25.8267 334.229 25.976C334.57 26.1147 334.869 26.3067 335.125 26.552C335.381 26.7973 335.578 27.0853 335.717 27.416C335.866 27.7467 335.941 28.104 335.941 28.488C335.941 28.872 335.866 29.2347 335.717 29.576C335.578 29.9067 335.381 30.1947 335.125 30.44C334.869 30.6853 334.57 30.8773 334.229 31.016C333.887 31.1547 333.519 31.224 333.125 31.224C332.719 31.224 332.346 31.1547 332.005 31.016C331.663 30.8773 331.365 30.6853 331.109 30.44C330.863 30.1947 330.666 29.9067 330.517 29.576C330.378 29.2347 330.309 28.872 330.309 28.488ZM341.071 28.488C341.071 28.104 341.141 27.7467 341.279 27.416C341.429 27.0853 341.626 26.7973 341.871 26.552C342.127 26.3067 342.426 26.1147 342.767 25.976C343.109 25.8267 343.482 25.752 343.887 25.752C344.282 25.752 344.65 25.8267 344.991 25.976C345.333 26.1147 345.631 26.3067 345.887 26.552C346.143 26.7973 346.341 27.0853 346.479 27.416C346.629 27.7467 346.703 28.104 346.703 28.488C346.703 28.872 346.629 29.2347 346.479 29.576C346.341 29.9067 346.143 30.1947 345.887 30.44C345.631 30.6853 345.333 30.8773 344.991 31.016C344.65 31.1547 344.282 31.224 343.887 31.224C343.482 31.224 343.109 31.1547 342.767 31.016C342.426 30.8773 342.127 30.6853 341.871 30.44C341.626 30.1947 341.429 29.9067 341.279 29.576C341.141 29.2347 341.071 28.872 341.071 28.488Z" fill="#121111"/>
</svg>
