<svg fill="none" height="64" viewBox="0 0 334 64" width="334" xmlns="http://www.w3.org/2000/svg"><path d="m74.096 59h-4.42v-8.008h-7.696v8.008h-4.42v-18.941h4.42v7.917h7.696v-7.917h4.42zm15.5703-18.941v3.38h-7.774v4.42h5.954v3.25h-5.954v4.511h7.774v3.38h-12.194v-18.941zm7.1612 11.934v7.007h-4.394v-18.941h6.162c1.3693 0 2.5355.143 3.4975.429.97.2773 1.759.6673 2.366 1.17.615.5027 1.061 1.0963 1.339 1.781.277.6847.416 1.43.416 2.236 0 .6153-.083 1.196-.247 1.742-.165.546-.412 1.053-.741 1.521-.321.4593-.72.871-1.196 1.235-.468.364-1.01.663-1.625.897.294.1473.567.3293.819.546.26.2167.485.481.676.793l4.03 6.591h-3.978c-.737 0-1.266-.2773-1.586-.832l-3.1465-5.499c-.1387-.2427-.3033-.416-.494-.52-.182-.104-.442-.156-.78-.156zm0-3.029h1.768c.598 0 1.105-.0737 1.5215-.221.424-.156.771-.3683 1.04-.637.268-.2687.463-.5807.585-.936.121-.364.182-.754.182-1.17 0-.832-.273-1.482-.819-1.95-.538-.468-1.3742-.702-2.5095-.702h-1.768zm25.3515-8.905v3.38h-7.774v4.42h5.954v3.25h-5.954v4.511h7.774v3.38h-12.194v-18.941zm25.682 18.941h-3.406c-.381 0-.698-.0867-.949-.26-.243-.182-.412-.4117-.507-.689l-1.118-3.302h-7.202l-1.118 3.302c-.087.2427-.256.4637-.507.663-.251.1907-.559.286-.923.286h-3.432l7.332-18.941h4.498zm-12.168-7.241h5.174l-1.742-5.187c-.113-.3293-.247-.715-.403-1.157-.147-.4507-.295-.936-.442-1.456-.139.5287-.282 1.0183-.429 1.469s-.286.8407-.416 1.17zm18.364.234v7.007h-4.394v-18.941h6.162c1.369 0 2.535.143 3.497.429.971.2773 1.759.6673 2.366 1.17.615.5027 1.062 1.0963 1.339 1.781s.416 1.43.416 2.236c0 .6153-.082 1.196-.247 1.742s-.412 1.053-.741 1.521c-.321.4593-.719.871-1.196 1.235-.468.364-1.01.663-1.625.897.295.1473.568.3293.819.546.26.2167.485.481.676.793l4.03 6.591h-3.978c-.737 0-1.265-.2773-1.586-.832l-3.146-5.499c-.139-.2427-.303-.416-.494-.52-.182-.104-.442-.156-.78-.156zm0-3.029h1.768c.598 0 1.105-.0737 1.521-.221.425-.156.771-.3683 1.04-.637s.464-.5807.585-.936c.121-.364.182-.754.182-1.17 0-.832-.273-1.482-.819-1.95-.537-.468-1.374-.702-2.509-.702h-1.768zm25.351-8.905v3.38h-7.774v4.42h5.954v3.25h-5.954v4.511h7.774v3.38h-12.194v-18.941zm17.739 10.283c.174.3293.338.6717.494 1.027.165.3553.321.7193.468 1.092.148-.3813.304-.7497.468-1.105.165-.364.334-.715.507-1.053l4.862-9.568c.087-.1647.174-.2903.26-.377.096-.0953.2-.1647.312-.208.113-.0433.239-.0693.377-.078.148-.0087.317-.013.507-.013h3.354v18.941h-3.874v-10.894c0-.5287.026-1.1007.078-1.716l-5.018 9.737c-.156.3033-.368.533-.637.689-.26.156-.559.234-.897.234h-.598c-.338 0-.641-.078-.91-.234-.26-.156-.468-.3857-.624-.689l-5.044-9.75c.035.3033.061.6067.078.91.018.2947.026.5677.026.819v10.894h-3.874v-18.941h3.354c.191 0 .356.0043.494.013.148.0087.278.0347.39.078.113.0433.213.1127.299.208.096.0867.187.2123.273.377zm24.439 1.456v7.202h-4.394v-7.202l-6.864-11.739h3.874c.382 0 .685.091.91.273.226.1733.408.3987.546.676l2.678 5.512c.217.442.416.8493.598 1.222s.343.741.481 1.105c.13-.3727.286-.7453.468-1.118s.377-.7757.585-1.209l2.652-5.512c.052-.1127.122-.2253.208-.338.096-.1127.2-.2123.312-.299.122-.0953.256-.169.403-.221.156-.0607.325-.091.507-.091h3.9zm12.275-11.739h3.692c.382 0 .698.0867.949.26.26.1733.429.403.507.689l2.6 9.88c.087.3207.174.663.26 1.027.087.364.152.7453.195 1.144.087-.4073.182-.7887.286-1.144.104-.364.204-.7063.299-1.027l3.068-9.88c.078-.2427.243-.4593.494-.65.26-.1993.572-.299.936-.299h1.3c.382 0 .694.0867.936.26.252.1647.425.3943.52.689l3.042 9.88c.096.3033.195.6283.299.975.104.338.195.702.273 1.092.07-.3813.139-.7453.208-1.092.078-.3467.156-.6717.234-.975l2.6-9.88c.07-.2513.234-.4723.494-.663s.572-.286.936-.286h3.458l-5.85 18.941h-3.978l-3.562-11.739c-.06-.182-.125-.3813-.195-.598-.06-.2167-.121-.4463-.182-.689-.06.2427-.125.4723-.195.689-.06.2167-.121.416-.182.598l-3.614 11.739h-3.978zm48.238 9.464c0 1.3693-.238 2.6433-.715 3.822-.468 1.1787-1.131 2.2057-1.989 3.081-.858.8667-1.894 1.547-3.107 2.041-1.205.494-2.544.741-4.017.741s-2.817-.247-4.03-.741-2.253-1.1743-3.12-2.041c-.858-.8753-1.525-1.9023-2.002-3.081-.468-1.1787-.702-2.4527-.702-3.822s.234-2.6433.702-3.822c.477-1.1787 1.144-2.2013 2.002-3.068.867-.8667 1.907-1.547 3.12-2.041s2.557-.741 4.03-.741 2.812.2513 4.017.754c1.213.494 2.249 1.1743 3.107 2.041s1.521 1.8893 1.989 3.068c.477 1.1787.715 2.4483.715 3.809zm-4.498 0c0-.936-.121-1.7767-.364-2.522-.243-.754-.594-1.391-1.053-1.911-.451-.52-1.005-.9187-1.664-1.196s-1.408-.416-2.249-.416c-.849 0-1.608.1387-2.275.416-.659.2773-1.218.676-1.677 1.196-.451.52-.797 1.157-1.04 1.911-.243.7453-.364 1.586-.364 2.522 0 .9447.121 1.794.364 2.548.243.7453.589 1.378 1.04 1.898.459.52 1.018.9187 1.677 1.196.667.2687 1.426.403 2.275.403.841 0 1.59-.1343 2.249-.403.659-.2773 1.213-.676 1.664-1.196.459-.52.81-1.1527 1.053-1.898.243-.754.364-1.6033.364-2.548zm11.253 2.47v7.007h-4.394v-18.941h6.162c1.369 0 2.535.143 3.497.429.97.2773 1.759.6673 2.366 1.17.615.5027 1.061 1.0963 1.339 1.781.277.6847.416 1.43.416 2.236 0 .6153-.083 1.196-.247 1.742-.165.546-.412 1.053-.741 1.521-.321.4593-.72.871-1.196 1.235-.468.364-1.01.663-1.625.897.294.1473.567.3293.819.546.26.2167.485.481.676.793l4.03 6.591h-3.978c-.737 0-1.266-.2773-1.586-.832l-3.146-5.499c-.139-.2427-.304-.416-.494-.52-.182-.104-.442-.156-.78-.156zm0-3.029h1.768c.598 0 1.105-.0737 1.521-.221.424-.156.771-.3683 1.04-.637.268-.2687.463-.5807.585-.936.121-.364.182-.754.182-1.17 0-.832-.273-1.482-.819-1.95-.538-.468-1.374-.702-2.509-.702h-1.768zm17.551-1.235h.702c.65 0 1.118-.2037 1.404-.611l4.264-6.188c.234-.338.498-.5677.793-.689.303-.1213.671-.182 1.105-.182h3.822l-5.616 7.657c-.2.2773-.408.507-.624.689-.217.182-.438.3337-.663.455.329.1213.628.2903.897.507.277.208.528.4897.754.845l5.72 8.788h-3.926c-.252 0-.468-.0173-.65-.052-.174-.0347-.325-.0867-.455-.156s-.243-.1517-.338-.247c-.096-.104-.187-.221-.273-.351l-4.29-6.591c-.156-.2427-.356-.4117-.598-.507-.234-.104-.555-.156-.962-.156h-1.066v8.06h-4.394v-18.941h4.394zm24.982-3.822c-.13.208-.268.364-.416.468-.138.104-.32.156-.546.156-.199 0-.416-.0607-.65-.182-.225-.13-.485-.273-.78-.429-.286-.156-.615-.2947-.988-.416-.372-.13-.797-.195-1.274-.195-.823 0-1.438.1777-1.846.533-.398.3467-.598.819-.598 1.417 0 .3813.122.6977.364.949.243.2513.559.468.949.65.399.182.85.351 1.352.507.512.1473 1.032.3163 1.56.507.529.182 1.045.3987 1.547.65.512.2513.962.572 1.352.962.399.39.72.8667.962 1.43.243.5547.364 1.2263.364 2.015 0 .8753-.151 1.6943-.455 2.457-.303.7627-.745 1.43-1.326 2.002-.572.5633-1.282 1.0097-2.132 1.339-.84.3207-1.798.481-2.873.481-.589 0-1.191-.0607-1.807-.182-.606-.1213-1.196-.2903-1.768-.507-.572-.2253-1.109-.4897-1.612-.793-.502-.3033-.94-.6413-1.313-1.014l1.3-2.054c.096-.156.23-.2817.403-.377.174-.0953.36-.143.559-.143.26 0 .52.0823.78.247.269.1647.568.3467.897.546.338.1993.724.3813 1.157.546.434.1647.945.247 1.534.247.798 0 1.417-.1733 1.859-.52.442-.3553.663-.9143.663-1.677 0-.442-.121-.8017-.364-1.079-.242-.2773-.563-.507-.962-.689-.39-.182-.836-.3423-1.339-.481-.502-.1387-1.018-.2903-1.547-.455-.528-.1733-1.044-.3813-1.547-.624-.502-.2513-.953-.5763-1.352-.975-.39-.4073-.706-.91-.949-1.508-.242-.6067-.364-1.352-.364-2.236 0-.7107.143-1.404.429-2.08s.707-1.2783 1.261-1.807c.555-.5287 1.235-.949 2.041-1.261.806-.3207 1.729-.481 2.769-.481.581 0 1.144.0477 1.69.143.555.0867 1.079.221 1.573.403.494.1733.954.3857 1.378.637.434.2427.819.52 1.157.832z" fill="#4263eb" fill-opacity=".35"/><path d="m46.096 43h-4.42v-8.008h-7.696v8.008h-4.42v-18.941h4.42v7.917h7.696v-7.917h4.42zm15.5703-18.941v3.38h-7.774v4.42h5.954v3.25h-5.954v4.511h7.774v3.38h-12.194v-18.941zm7.1612 11.934v7.007h-4.394v-18.941h6.162c1.3693 0 2.535.143 3.497.429.9707.2773 1.7593.6673 2.366 1.17.6154.5027 1.0617 1.0963 1.339 1.781.2774.6847.416 1.43.416 2.236 0 .6153-.0823 1.196-.247 1.742-.1646.546-.4116 1.053-.741 1.521-.3206.4593-.7193.871-1.196 1.235-.468.364-1.0096.663-1.625.897.2947.1473.5677.3293.819.546.26.2167.4853.481.676.793l4.03 6.591h-3.978c-.7366 0-1.2653-.2773-1.586-.832l-3.146-5.499c-.1387-.2427-.3033-.416-.494-.52-.182-.104-.442-.156-.78-.156zm0-3.029h1.768c.598 0 1.105-.0737 1.521-.221.4247-.156.7713-.3683 1.04-.637s.4637-.5807.585-.936c.1213-.364.182-.754.182-1.17 0-.832-.273-1.482-.819-1.95-.5373-.468-1.3737-.702-2.509-.702h-1.768zm25.351-8.905v3.38h-7.774v4.42h5.954v3.25h-5.954v4.511h7.774v3.38h-12.194v-18.941zm25.6825 18.941h-3.406c-.381 0-.698-.0867-.949-.26-.243-.182-.412-.4117-.507-.689l-1.118-3.302h-7.202l-1.118 3.302c-.087.2427-.256.4637-.507.663-.251.1907-.559.286-.923.286h-3.432l7.332-18.941h4.498zm-12.168-7.241h5.174l-1.742-5.187c-.113-.3293-.247-.715-.403-1.157-.147-.4507-.295-.936-.442-1.456-.139.5287-.282 1.0183-.429 1.469s-.286.8407-.416 1.17zm18.364.234v7.007h-4.394v-18.941h6.162c1.369 0 2.535.143 3.497.429.971.2773 1.759.6673 2.366 1.17.615.5027 1.062 1.0963 1.339 1.781s.416 1.43.416 2.236c0 .6153-.082 1.196-.247 1.742s-.412 1.053-.741 1.521c-.321.4593-.719.871-1.196 1.235-.468.364-1.01.663-1.625.897.295.1473.568.3293.819.546.26.2167.485.481.676.793l4.03 6.591h-3.978c-.737 0-1.265-.2773-1.586-.832l-3.146-5.499c-.139-.2427-.303-.416-.494-.52-.182-.104-.442-.156-.78-.156zm0-3.029h1.768c.598 0 1.105-.0737 1.521-.221.425-.156.771-.3683 1.04-.637s.464-.5807.585-.936c.121-.364.182-.754.182-1.17 0-.832-.273-1.482-.819-1.95-.537-.468-1.374-.702-2.509-.702h-1.768zm25.351-8.905v3.38h-7.774v4.42h5.954v3.25h-5.954v4.511h7.774v3.38h-12.194v-18.941zm17.739 10.283c.174.3293.338.6717.494 1.027.165.3553.321.7193.468 1.092.148-.3813.304-.7497.468-1.105.165-.364.334-.715.507-1.053l4.862-9.568c.087-.1647.174-.2903.26-.377.096-.0953.2-.1647.312-.208.113-.0433.239-.0693.377-.078.148-.0087.317-.013.507-.013h3.354v18.941h-3.874v-10.894c0-.5287.026-1.1007.078-1.716l-5.018 9.737c-.156.3033-.368.533-.637.689-.26.156-.559.234-.897.234h-.598c-.338 0-.641-.078-.91-.234-.26-.156-.468-.3857-.624-.689l-5.044-9.75c.035.3033.061.6067.078.91.018.2947.026.5677.026.819v10.894h-3.874v-18.941h3.354c.191 0 .356.0043.494.013.148.0087.278.0347.39.078.113.0433.213.1127.299.208.096.0867.187.2123.273.377zm24.439 1.456v7.202h-4.394v-7.202l-6.864-11.739h3.874c.382 0 .685.091.91.273.226.1733.408.3987.546.676l2.678 5.512c.217.442.416.8493.598 1.222s.343.741.481 1.105c.13-.3727.286-.7453.468-1.118s.377-.7757.585-1.209l2.652-5.512c.052-.1127.122-.2253.208-.338.096-.1127.2-.2123.312-.299.122-.0953.256-.169.403-.221.156-.0607.325-.091.507-.091h3.9zm12.275-11.739h3.692c.382 0 .698.0867.949.26.26.1733.429.403.507.689l2.6 9.88c.087.3207.174.663.26 1.027.087.364.152.7453.195 1.144.087-.4073.182-.7887.286-1.144.104-.364.204-.7063.299-1.027l3.068-9.88c.078-.2427.243-.4593.494-.65.26-.1993.572-.299.936-.299h1.3c.382 0 .694.0867.936.26.252.1647.425.3943.52.689l3.042 9.88c.096.3033.195.6283.299.975.104.338.195.702.273 1.092.07-.3813.139-.7453.208-1.092.078-.3467.156-.6717.234-.975l2.6-9.88c.07-.2513.234-.4723.494-.663s.572-.286.936-.286h3.458l-5.85 18.941h-3.978l-3.562-11.739c-.06-.182-.125-.3813-.195-.598-.06-.2167-.121-.4463-.182-.689-.06.2427-.125.4723-.195.689-.06.2167-.121.416-.182.598l-3.614 11.739h-3.978zm48.238 9.464c0 1.3693-.238 2.6433-.715 3.822-.468 1.1787-1.131 2.2057-1.989 3.081-.858.8667-1.894 1.547-3.107 2.041-1.205.494-2.544.741-4.017.741s-2.817-.247-4.03-.741-2.253-1.1743-3.12-2.041c-.858-.8753-1.525-1.9023-2.002-3.081-.468-1.1787-.702-2.4527-.702-3.822s.234-2.6433.702-3.822c.477-1.1787 1.144-2.2013 2.002-3.068.867-.8667 1.907-1.547 3.12-2.041s2.557-.741 4.03-.741 2.812.2513 4.017.754c1.213.494 2.249 1.1743 3.107 2.041s1.521 1.8893 1.989 3.068c.477 1.1787.715 2.4483.715 3.809zm-4.498 0c0-.936-.121-1.7767-.364-2.522-.243-.754-.594-1.391-1.053-1.911-.451-.52-1.005-.9187-1.664-1.196s-1.408-.416-2.249-.416c-.849 0-1.608.1387-2.275.416-.659.2773-1.218.676-1.677 1.196-.451.52-.797 1.157-1.04 1.911-.243.7453-.364 1.586-.364 2.522 0 .9447.121 1.794.364 2.548.243.7453.589 1.378 1.04 1.898.459.52 1.018.9187 1.677 1.196.667.2687 1.426.403 2.275.403.841 0 1.59-.1343 2.249-.403.659-.2773 1.213-.676 1.664-1.196.459-.52.81-1.1527 1.053-1.898.243-.754.364-1.6033.364-2.548zm11.253 2.47v7.007h-4.394v-18.941h6.162c1.369 0 2.535.143 3.497.429.97.2773 1.759.6673 2.366 1.17.615.5027 1.061 1.0963 1.339 1.781.277.6847.416 1.43.416 2.236 0 .6153-.083 1.196-.247 1.742-.165.546-.412 1.053-.741 1.521-.321.4593-.72.871-1.196 1.235-.468.364-1.01.663-1.625.897.294.1473.567.3293.819.546.26.2167.485.481.676.793l4.03 6.591h-3.978c-.737 0-1.266-.2773-1.586-.832l-3.146-5.499c-.139-.2427-.304-.416-.494-.52-.182-.104-.442-.156-.78-.156zm0-3.029h1.768c.598 0 1.105-.0737 1.521-.221.424-.156.771-.3683 1.04-.637.268-.2687.463-.5807.585-.936.121-.364.182-.754.182-1.17 0-.832-.273-1.482-.819-1.95-.538-.468-1.374-.702-2.509-.702h-1.768zm17.551-1.235h.702c.65 0 1.118-.2037 1.404-.611l4.264-6.188c.234-.338.498-.5677.793-.689.303-.1213.671-.182 1.105-.182h3.822l-5.616 7.657c-.2.2773-.408.507-.624.689-.217.182-.438.3337-.663.455.329.1213.628.2903.897.507.277.208.528.4897.754.845l5.72 8.788h-3.926c-.252 0-.468-.0173-.65-.052-.174-.0347-.325-.0867-.455-.156s-.243-.1517-.338-.247c-.096-.104-.187-.221-.273-.351l-4.29-6.591c-.156-.2427-.356-.4117-.598-.507-.234-.104-.555-.156-.962-.156h-1.066v8.06h-4.394v-18.941h4.394zm24.982-3.822c-.13.208-.268.364-.416.468-.138.104-.32.156-.546.156-.199 0-.416-.0607-.65-.182-.225-.13-.485-.273-.78-.429-.286-.156-.615-.2947-.988-.416-.372-.13-.797-.195-1.274-.195-.823 0-1.438.1777-1.846.533-.398.3467-.598.819-.598 1.417 0 .3813.122.6977.364.949.243.2513.559.468.949.65.399.182.85.351 1.352.507.512.1473 1.032.3163 1.56.507.529.182 1.045.3987 1.547.65.512.2513.962.572 1.352.962.399.39.72.8667.962 1.43.243.5547.364 1.2263.364 2.015 0 .8753-.151 1.6943-.455 2.457-.303.7627-.745 1.43-1.326 2.002-.572.5633-1.282 1.0097-2.132 1.339-.84.3207-1.798.481-2.873.481-.589 0-1.191-.0607-1.807-.182-.606-.1213-1.196-.2903-1.768-.507-.572-.2253-1.109-.4897-1.612-.793-.502-.3033-.94-.6413-1.313-1.014l1.3-2.054c.096-.156.23-.2817.403-.377.174-.0953.36-.143.559-.143.26 0 .52.0823.78.247.269.1647.568.3467.897.546.338.1993.724.3813 1.157.546.434.1647.945.247 1.534.247.798 0 1.417-.1733 1.859-.52.442-.3553.663-.9143.663-1.677 0-.442-.121-.8017-.364-1.079-.242-.2773-.563-.507-.962-.689-.39-.182-.836-.3423-1.339-.481-.502-.1387-1.018-.2903-1.547-.455-.528-.1733-1.044-.3813-1.547-.624-.502-.2513-.953-.5763-1.352-.975-.39-.4073-.706-.91-.949-1.508-.242-.6067-.364-1.352-.364-2.236 0-.7107.143-1.404.429-2.08s.707-1.2783 1.261-1.807c.555-.5287 1.235-.949 2.041-1.261.806-.3207 1.729-.481 2.769-.481.581 0 1.144.0477 1.69.143.555.0867 1.079.221 1.573.403.494.1733.954.3857 1.378.637.434.2427.819.52 1.157.832z" fill="#47f6cb" fill-opacity=".9"/><path d="m18.096 26h-4.42v-8.008h-7.696v8.008h-4.42v-18.941h4.42v7.917h7.696v-7.917h4.42zm15.5703-18.941v3.38h-7.774v4.42h5.954v3.25h-5.954v4.511h7.774v3.38h-12.194v-18.941zm7.1612 11.934v7.007h-4.394v-18.941h6.162c1.3693 0 2.535.143 3.497.429.9707.27733 1.7593.66733 2.366 1.17.6154.50267 1.0617 1.09633 1.339 1.781.2774.6847.416 1.43.416 2.236 0 .6153-.0823 1.196-.247 1.742-.1646.546-.4116 1.053-.741 1.521-.3206.4593-.7193.871-1.196 1.235-.468.364-1.0096.663-1.625.897.2947.1473.5677.3293.819.546.26.2167.4853.481.676.793l4.03 6.591h-3.978c-.7366 0-1.2653-.2773-1.586-.832l-3.146-5.499c-.1387-.2427-.3033-.416-.494-.52-.182-.104-.442-.156-.78-.156zm0-3.029h1.768c.598 0 1.105-.0737 1.521-.221.4247-.156.7713-.3683 1.04-.637s.4637-.5807.585-.936c.1213-.364.182-.754.182-1.17 0-.832-.273-1.482-.819-1.95-.5373-.468-1.3737-.702-2.509-.702h-1.768zm25.351-8.905v3.38h-7.774v4.42h5.954v3.25h-5.954v4.511h7.774v3.38h-12.194v-18.941zm25.6826 18.941h-3.406c-.3814 0-.6977-.0867-.949-.26-.2427-.182-.4117-.4117-.5071-.689l-1.1179-3.302h-7.202l-1.118 3.302c-.0867.2427-.2557.4637-.507.663-.2514.1907-.559.286-.9231.286h-3.432l7.3321-18.941h4.498zm-12.168-7.241h5.174l-1.742-5.187c-.1127-.3293-.247-.715-.403-1.157-.1474-.4507-.2947-.936-.442-1.456-.1387.5287-.2817 1.0183-.429 1.469-.1474.4507-.286.8407-.416 1.17zm18.3639.234v7.007h-4.394v-18.941h6.162c1.369 0 2.535.143 3.497.429.971.27733 1.759.66733 2.366 1.17.615.50267 1.062 1.09633 1.339 1.781.277.6847.416 1.43.416 2.236 0 .6153-.082 1.196-.247 1.742s-.412 1.053-.741 1.521c-.321.4593-.719.871-1.196 1.235-.468.364-1.01.663-1.625.897.295.1473.568.3293.819.546.26.2167.485.481.676.793l4.03 6.591h-3.978c-.737 0-1.265-.2773-1.586-.832l-3.146-5.499c-.139-.2427-.303-.416-.494-.52-.182-.104-.442-.156-.78-.156zm0-3.029h1.768c.598 0 1.105-.0737 1.521-.221.425-.156.771-.3683 1.04-.637s.464-.5807.585-.936c.121-.364.182-.754.182-1.17 0-.832-.273-1.482-.819-1.95-.537-.468-1.374-.702-2.509-.702h-1.768zm25.351-8.905v3.38h-7.774v4.42h5.954v3.25h-5.954v4.511h7.774v3.38h-12.194v-18.941zm17.739 10.283c.174.3293.338.6717.494 1.027.165.3553.321.7193.468 1.092.148-.3813.304-.7497.468-1.105.165-.364.334-.715.507-1.053l4.862-9.568c.087-.16467.174-.29033.26-.377.096-.09533.2-.16467.312-.208.113-.04333.239-.06933.377-.078.148-.00867.317-.013.507-.013h3.354v18.941h-3.874v-10.894c0-.5287.026-1.1007.078-1.716l-5.018 9.737c-.156.3033-.368.533-.637.689-.26.156-.559.234-.897.234h-.598c-.338 0-.641-.078-.91-.234-.26-.156-.468-.3857-.624-.689l-5.044-9.75c.035.3033.061.6067.078.91.018.2947.026.5677.026.819v10.894h-3.874v-18.941h3.354c.191 0 .356.00433.494.013.148.00867.278.03467.39.078.113.04333.213.11267.299.208.096.08667.187.21233.273.377zm24.439 1.456v7.202h-4.394v-7.202l-6.864-11.739h3.874c.382 0 .685.091.91.273.226.17333.408.39867.546.676l2.678 5.512c.217.442.416.8493.598 1.222s.343.741.481 1.105c.13-.3727.286-.7453.468-1.118s.377-.7757.585-1.209l2.652-5.512c.052-.11267.122-.22533.208-.338.096-.11267.2-.21233.312-.299.122-.09533.256-.169.403-.221.156-.06067.325-.091.507-.091h3.9zm12.275-11.739h3.692c.382 0 .698.08667.949.26.26.17333.429.403.507.689l2.6 9.88c.087.3207.174.663.26 1.027.087.364.152.7453.195 1.144.087-.4073.182-.7887.286-1.144.104-.364.204-.7063.299-1.027l3.068-9.88c.078-.24267.243-.45933.494-.65.26-.19933.572-.299.936-.299h1.3c.382 0 .694.08667.936.26.252.16467.425.39433.52.689l3.042 9.88c.096.3033.195.6283.299.975.104.338.195.702.273 1.092.07-.3813.139-.7453.208-1.092.078-.3467.156-.6717.234-.975l2.6-9.88c.07-.25133.234-.47233.494-.663s.572-.286.936-.286h3.458l-5.85 18.941h-3.978l-3.562-11.739c-.06-.182-.125-.3813-.195-.598-.06-.2167-.121-.4463-.182-.689-.06.2427-.125.4723-.195.689-.06.2167-.121.416-.182.598l-3.614 11.739h-3.978zm48.238 9.464c0 1.3693-.238 2.6433-.715 3.822-.468 1.1787-1.131 2.2057-1.989 3.081-.858.8667-1.894 1.547-3.107 2.041-1.205.494-2.544.741-4.017.741s-2.817-.247-4.03-.741-2.253-1.1743-3.12-2.041c-.858-.8753-1.525-1.9023-2.002-3.081-.468-1.1787-.702-2.4527-.702-3.822s.234-2.6433.702-3.822c.477-1.1787 1.144-2.2013 2.002-3.068.867-.86667 1.907-1.547 3.12-2.041s2.557-.741 4.03-.741 2.812.25133 4.017.754c1.213.494 2.249 1.17433 3.107 2.041.858.8667 1.521 1.8893 1.989 3.068.477 1.1787.715 2.4483.715 3.809zm-4.498 0c0-.936-.121-1.7767-.364-2.522-.243-.754-.594-1.391-1.053-1.911-.451-.52-1.005-.9187-1.664-1.196s-1.408-.416-2.249-.416c-.849 0-1.608.1387-2.275.416-.659.2773-1.218.676-1.677 1.196-.451.52-.797 1.157-1.04 1.911-.243.7453-.364 1.586-.364 2.522 0 .9447.121 1.794.364 2.548.243.7453.589 1.378 1.04 1.898.459.52 1.018.9187 1.677 1.196.667.2687 1.426.403 2.275.403.841 0 1.59-.1343 2.249-.403.659-.2773 1.213-.676 1.664-1.196.459-.52.81-1.1527 1.053-1.898.243-.754.364-1.6033.364-2.548zm11.253 2.47v7.007h-4.394v-18.941h6.162c1.369 0 2.535.143 3.497.429.97.27733 1.759.66733 2.366 1.17.615.50267 1.061 1.09633 1.339 1.781.277.6847.416 1.43.416 2.236 0 .6153-.083 1.196-.247 1.742-.165.546-.412 1.053-.741 1.521-.321.4593-.72.871-1.196 1.235-.468.364-1.01.663-1.625.897.294.1473.567.3293.819.546.26.2167.485.481.676.793l4.03 6.591h-3.978c-.737 0-1.266-.2773-1.586-.832l-3.146-5.499c-.139-.2427-.304-.416-.494-.52-.182-.104-.442-.156-.78-.156zm0-3.029h1.768c.598 0 1.105-.0737 1.521-.221.424-.156.771-.3683 1.04-.637.268-.2687.463-.5807.585-.936.121-.364.182-.754.182-1.17 0-.832-.273-1.482-.819-1.95-.538-.468-1.374-.702-2.509-.702h-1.768zm17.551-1.235h.702c.65 0 1.118-.2037 1.404-.611l4.264-6.188c.234-.338.498-.56767.793-.689.303-.12133.671-.182 1.105-.182h3.822l-5.616 7.657c-.2.2773-.408.507-.624.689-.217.182-.438.3337-.663.455.329.1213.628.2903.897.507.277.208.528.4897.754.845l5.72 8.788h-3.926c-.252 0-.468-.0173-.65-.052-.174-.0347-.325-.0867-.455-.156s-.243-.1517-.338-.247c-.096-.104-.187-.221-.273-.351l-4.29-6.591c-.156-.2427-.356-.4117-.598-.507-.234-.104-.555-.156-.962-.156h-1.066v8.06h-4.394v-18.941h4.394zm24.982-3.822c-.13.208-.268.364-.416.468-.138.104-.32.156-.546.156-.199 0-.416-.0607-.65-.182-.225-.13-.485-.273-.78-.429-.286-.156-.615-.2947-.988-.416-.372-.13-.797-.195-1.274-.195-.823 0-1.438.1777-1.846.533-.398.3467-.598.819-.598 1.417 0 .3813.122.6977.364.949.243.2513.559.468.949.65.399.182.85.351 1.352.507.512.1473 1.032.3163 1.56.507.529.182 1.045.3987 1.547.65.512.2513.962.572 1.352.962.399.39.72.8667.962 1.43.243.5547.364 1.2263.364 2.015 0 .8753-.151 1.6943-.455 2.457-.303.7627-.745 1.43-1.326 2.002-.572.5633-1.282 1.0097-2.132 1.339-.84.3207-1.798.481-2.873.481-.589 0-1.191-.0607-1.807-.182-.606-.1213-1.196-.2903-1.768-.507-.572-.2253-1.109-.4897-1.612-.793-.502-.3033-.94-.6413-1.313-1.014l1.3-2.054c.096-.156.23-.2817.403-.377.174-.0953.36-.143.559-.143.26 0 .52.0823.78.247.269.1647.568.3467.897.546.338.1993.724.3813 1.157.546.434.1647.945.247 1.534.247.798 0 1.417-.1733 1.859-.52.442-.3553.663-.9143.663-1.677 0-.442-.121-.8017-.364-1.079-.242-.2773-.563-.507-.962-.689-.39-.182-.836-.3423-1.339-.481-.502-.1387-1.018-.2903-1.547-.455-.528-.1733-1.044-.3813-1.547-.624-.502-.2513-.953-.5763-1.352-.975-.39-.4073-.706-.91-.949-1.508-.242-.6067-.364-1.352-.364-2.236 0-.7107.143-1.404.429-2.08s.707-1.27833 1.261-1.807c.555-.52867 1.235-.949 2.041-1.261.806-.32067 1.729-.481 2.769-.481.581 0 1.144.04767 1.69.143.555.08667 1.079.221 1.573.403.494.17333.954.38567 1.378.637.434.24267.819.52 1.157.832z" fill="#121111"/></svg>