<svg width="334" height="64" viewBox="0 0 334 64" fill="none" xmlns="http://www.w3.org/2000/svg">
<path d="M74.096 59H69.676V50.992H61.98V59H57.56V40.059H61.98V47.976H69.676V40.059H74.096V59ZM89.6663 40.059V43.439H81.8923V47.859H87.8463V51.109H81.8923V55.62H89.6663V59H77.4723V40.059H89.6663ZM96.8275 51.993V59H92.4335V40.059H98.5955C99.9648 40.059 101.131 40.202 102.093 40.488C103.063 40.7653 103.852 41.1553 104.459 41.658C105.074 42.1607 105.52 42.7543 105.798 43.439C106.075 44.1237 106.214 44.869 106.214 45.675C106.214 46.2903 106.131 46.871 105.967 47.417C105.802 47.963 105.555 48.47 105.226 48.938C104.905 49.3973 104.506 49.809 104.03 50.173C103.562 50.537 103.02 50.836 102.405 51.07C102.699 51.2173 102.972 51.3993 103.224 51.616C103.484 51.8327 103.709 52.097 103.9 52.409L107.93 59H103.952C103.215 59 102.686 58.7227 102.366 58.168L99.2195 52.669C99.0808 52.4263 98.9162 52.253 98.7255 52.149C98.5435 52.045 98.2835 51.993 97.9455 51.993H96.8275ZM96.8275 48.964H98.5955C99.1935 48.964 99.7005 48.8903 100.117 48.743C100.541 48.587 100.888 48.3747 101.157 48.106C101.425 47.8373 101.62 47.5253 101.742 47.17C101.863 46.806 101.924 46.416 101.924 46C101.924 45.168 101.651 44.518 101.105 44.05C100.567 43.582 99.7308 43.348 98.5955 43.348H96.8275V48.964ZM122.179 40.059V43.439H114.405V47.859H120.359V51.109H114.405V55.62H122.179V59H109.985V40.059H122.179ZM147.861 59H144.455C144.074 59 143.757 58.9133 143.506 58.74C143.263 58.558 143.094 58.3283 142.999 58.051L141.881 54.749H134.679L133.561 58.051C133.474 58.2937 133.305 58.5147 133.054 58.714C132.803 58.9047 132.495 59 132.131 59H128.699L136.031 40.059H140.529L147.861 59ZM135.693 51.759H140.867L139.125 46.572C139.012 46.2427 138.878 45.857 138.722 45.415C138.575 44.9643 138.427 44.479 138.28 43.959C138.141 44.4877 137.998 44.9773 137.851 45.428C137.704 45.8787 137.565 46.2687 137.435 46.598L135.693 51.759ZM154.057 51.993V59H149.663V40.059H155.825C157.194 40.059 158.36 40.202 159.322 40.488C160.293 40.7653 161.081 41.1553 161.688 41.658C162.303 42.1607 162.75 42.7543 163.027 43.439C163.304 44.1237 163.443 44.869 163.443 45.675C163.443 46.2903 163.361 46.871 163.196 47.417C163.031 47.963 162.784 48.47 162.455 48.938C162.134 49.3973 161.736 49.809 161.259 50.173C160.791 50.537 160.249 50.836 159.634 51.07C159.929 51.2173 160.202 51.3993 160.453 51.616C160.713 51.8327 160.938 52.097 161.129 52.409L165.159 59H161.181C160.444 59 159.916 58.7227 159.595 58.168L156.449 52.669C156.31 52.4263 156.146 52.253 155.955 52.149C155.773 52.045 155.513 51.993 155.175 51.993H154.057ZM154.057 48.964H155.825C156.423 48.964 156.93 48.8903 157.346 48.743C157.771 48.587 158.117 48.3747 158.386 48.106C158.655 47.8373 158.85 47.5253 158.971 47.17C159.092 46.806 159.153 46.416 159.153 46C159.153 45.168 158.88 44.518 158.334 44.05C157.797 43.582 156.96 43.348 155.825 43.348H154.057V48.964ZM179.408 40.059V43.439H171.634V47.859H177.588V51.109H171.634V55.62H179.408V59H167.214V40.059H179.408ZM197.147 50.342C197.321 50.6713 197.485 51.0137 197.641 51.369C197.806 51.7243 197.962 52.0883 198.109 52.461C198.257 52.0797 198.413 51.7113 198.577 51.356C198.742 50.992 198.911 50.641 199.084 50.303L203.946 40.735C204.033 40.5703 204.12 40.4447 204.206 40.358C204.302 40.2627 204.406 40.1933 204.518 40.15C204.631 40.1067 204.757 40.0807 204.895 40.072C205.043 40.0633 205.212 40.059 205.402 40.059H208.756V59H204.882V48.106C204.882 47.5773 204.908 47.0053 204.96 46.39L199.942 56.127C199.786 56.4303 199.574 56.66 199.305 56.816C199.045 56.972 198.746 57.05 198.408 57.05H197.81C197.472 57.05 197.169 56.972 196.9 56.816C196.64 56.66 196.432 56.4303 196.276 56.127L191.232 46.377C191.267 46.6803 191.293 46.9837 191.31 47.287C191.328 47.5817 191.336 47.8547 191.336 48.106V59H187.462V40.059H190.816C191.007 40.059 191.172 40.0633 191.31 40.072C191.458 40.0807 191.588 40.1067 191.7 40.15C191.813 40.1933 191.913 40.2627 191.999 40.358C192.095 40.4447 192.186 40.5703 192.272 40.735L197.147 50.342ZM221.586 51.798V59H217.192V51.798L210.328 40.059H214.202C214.584 40.059 214.887 40.15 215.112 40.332C215.338 40.5053 215.52 40.7307 215.658 41.008L218.336 46.52C218.553 46.962 218.752 47.3693 218.934 47.742C219.116 48.1147 219.277 48.483 219.415 48.847C219.545 48.4743 219.701 48.1017 219.883 47.729C220.065 47.3563 220.26 46.9533 220.468 46.52L223.12 41.008C223.172 40.8953 223.242 40.7827 223.328 40.67C223.424 40.5573 223.528 40.4577 223.64 40.371C223.762 40.2757 223.896 40.202 224.043 40.15C224.199 40.0893 224.368 40.059 224.55 40.059H228.45L221.586 51.798ZM233.861 40.059H237.553C237.935 40.059 238.251 40.1457 238.502 40.319C238.762 40.4923 238.931 40.722 239.009 41.008L241.609 50.888C241.696 51.2087 241.783 51.551 241.869 51.915C241.956 52.279 242.021 52.6603 242.064 53.059C242.151 52.6517 242.246 52.2703 242.35 51.915C242.454 51.551 242.554 51.2087 242.649 50.888L245.717 41.008C245.795 40.7653 245.96 40.5487 246.211 40.358C246.471 40.1587 246.783 40.059 247.147 40.059H248.447C248.829 40.059 249.141 40.1457 249.383 40.319C249.635 40.4837 249.808 40.7133 249.903 41.008L252.945 50.888C253.041 51.1913 253.14 51.5163 253.244 51.863C253.348 52.201 253.439 52.565 253.517 52.955C253.587 52.5737 253.656 52.2097 253.725 51.863C253.803 51.5163 253.881 51.1913 253.959 50.888L256.559 41.008C256.629 40.7567 256.793 40.5357 257.053 40.345C257.313 40.1543 257.625 40.059 257.989 40.059H261.447L255.597 59H251.619L248.057 47.261C247.997 47.079 247.932 46.8797 247.862 46.663C247.802 46.4463 247.741 46.2167 247.68 45.974C247.62 46.2167 247.555 46.4463 247.485 46.663C247.425 46.8797 247.364 47.079 247.303 47.261L243.689 59H239.711L233.861 40.059ZM282.099 49.523C282.099 50.8923 281.861 52.1663 281.384 53.345C280.916 54.5237 280.253 55.5507 279.395 56.426C278.537 57.2927 277.501 57.973 276.288 58.467C275.083 58.961 273.744 59.208 272.271 59.208C270.798 59.208 269.454 58.961 268.241 58.467C267.028 57.973 265.988 57.2927 265.121 56.426C264.263 55.5507 263.596 54.5237 263.119 53.345C262.651 52.1663 262.417 50.8923 262.417 49.523C262.417 48.1537 262.651 46.8797 263.119 45.701C263.596 44.5223 264.263 43.4997 265.121 42.633C265.988 41.7663 267.028 41.086 268.241 40.592C269.454 40.098 270.798 39.851 272.271 39.851C273.744 39.851 275.083 40.1023 276.288 40.605C277.501 41.099 278.537 41.7793 279.395 42.646C280.253 43.5127 280.916 44.5353 281.384 45.714C281.861 46.8927 282.099 48.1623 282.099 49.523ZM277.601 49.523C277.601 48.587 277.48 47.7463 277.237 47.001C276.994 46.247 276.643 45.61 276.184 45.09C275.733 44.57 275.179 44.1713 274.52 43.894C273.861 43.6167 273.112 43.478 272.271 43.478C271.422 43.478 270.663 43.6167 269.996 43.894C269.337 44.1713 268.778 44.57 268.319 45.09C267.868 45.61 267.522 46.247 267.279 47.001C267.036 47.7463 266.915 48.587 266.915 49.523C266.915 50.4677 267.036 51.317 267.279 52.071C267.522 52.8163 267.868 53.449 268.319 53.969C268.778 54.489 269.337 54.8877 269.996 55.165C270.663 55.4337 271.422 55.568 272.271 55.568C273.112 55.568 273.861 55.4337 274.52 55.165C275.179 54.8877 275.733 54.489 276.184 53.969C276.643 53.449 276.994 52.8163 277.237 52.071C277.48 51.317 277.601 50.4677 277.601 49.523ZM288.854 51.993V59H284.46V40.059H290.622C291.991 40.059 293.157 40.202 294.119 40.488C295.089 40.7653 295.878 41.1553 296.485 41.658C297.1 42.1607 297.546 42.7543 297.824 43.439C298.101 44.1237 298.24 44.869 298.24 45.675C298.24 46.2903 298.157 46.871 297.993 47.417C297.828 47.963 297.581 48.47 297.252 48.938C296.931 49.3973 296.532 49.809 296.056 50.173C295.588 50.537 295.046 50.836 294.431 51.07C294.725 51.2173 294.998 51.3993 295.25 51.616C295.51 51.8327 295.735 52.097 295.926 52.409L299.956 59H295.978C295.241 59 294.712 58.7227 294.392 58.168L291.246 52.669C291.107 52.4263 290.942 52.253 290.752 52.149C290.57 52.045 290.31 51.993 289.972 51.993H288.854ZM288.854 48.964H290.622C291.22 48.964 291.727 48.8903 292.143 48.743C292.567 48.587 292.914 48.3747 293.183 48.106C293.451 47.8373 293.646 47.5253 293.768 47.17C293.889 46.806 293.95 46.416 293.95 46C293.95 45.168 293.677 44.518 293.131 44.05C292.593 43.582 291.757 43.348 290.622 43.348H288.854V48.964ZM306.405 47.729H307.107C307.757 47.729 308.225 47.5253 308.511 47.118L312.775 40.93C313.009 40.592 313.273 40.3623 313.568 40.241C313.871 40.1197 314.239 40.059 314.673 40.059H318.495L312.879 47.716C312.679 47.9933 312.471 48.223 312.255 48.405C312.038 48.587 311.817 48.7387 311.592 48.86C311.921 48.9813 312.22 49.1503 312.489 49.367C312.766 49.575 313.017 49.8567 313.243 50.212L318.963 59H315.037C314.785 59 314.569 58.9827 314.387 58.948C314.213 58.9133 314.062 58.8613 313.932 58.792C313.802 58.7227 313.689 58.6403 313.594 58.545C313.498 58.441 313.407 58.324 313.321 58.194L309.031 51.603C308.875 51.3603 308.675 51.1913 308.433 51.096C308.199 50.992 307.878 50.94 307.471 50.94H306.405V59H302.011V40.059H306.405V47.729ZM331.387 43.907C331.257 44.115 331.119 44.271 330.971 44.375C330.833 44.479 330.651 44.531 330.425 44.531C330.226 44.531 330.009 44.4703 329.775 44.349C329.55 44.219 329.29 44.076 328.995 43.92C328.709 43.764 328.38 43.6253 328.007 43.504C327.635 43.374 327.21 43.309 326.733 43.309C325.91 43.309 325.295 43.4867 324.887 43.842C324.489 44.1887 324.289 44.661 324.289 45.259C324.289 45.6403 324.411 45.9567 324.653 46.208C324.896 46.4593 325.212 46.676 325.602 46.858C326.001 47.04 326.452 47.209 326.954 47.365C327.466 47.5123 327.986 47.6813 328.514 47.872C329.043 48.054 329.559 48.2707 330.061 48.522C330.573 48.7733 331.023 49.094 331.413 49.484C331.812 49.874 332.133 50.3507 332.375 50.914C332.618 51.4687 332.739 52.1403 332.739 52.929C332.739 53.8043 332.588 54.6233 332.284 55.386C331.981 56.1487 331.539 56.816 330.958 57.388C330.386 57.9513 329.676 58.3977 328.826 58.727C327.986 59.0477 327.028 59.208 325.953 59.208C325.364 59.208 324.762 59.1473 324.146 59.026C323.54 58.9047 322.95 58.7357 322.378 58.519C321.806 58.2937 321.269 58.0293 320.766 57.726C320.264 57.4227 319.826 57.0847 319.453 56.712L320.753 54.658C320.849 54.502 320.983 54.3763 321.156 54.281C321.33 54.1857 321.516 54.138 321.715 54.138C321.975 54.138 322.235 54.2203 322.495 54.385C322.764 54.5497 323.063 54.7317 323.392 54.931C323.73 55.1303 324.116 55.3123 324.549 55.477C324.983 55.6417 325.494 55.724 326.083 55.724C326.881 55.724 327.5 55.5507 327.942 55.204C328.384 54.8487 328.605 54.2897 328.605 53.527C328.605 53.085 328.484 52.7253 328.241 52.448C327.999 52.1707 327.678 51.941 327.279 51.759C326.889 51.577 326.443 51.4167 325.94 51.278C325.438 51.1393 324.922 50.9877 324.393 50.823C323.865 50.6497 323.349 50.4417 322.846 50.199C322.344 49.9477 321.893 49.6227 321.494 49.224C321.104 48.8167 320.788 48.314 320.545 47.716C320.303 47.1093 320.181 46.364 320.181 45.48C320.181 44.7693 320.324 44.076 320.61 43.4C320.896 42.724 321.317 42.1217 321.871 41.593C322.426 41.0643 323.106 40.644 323.912 40.332C324.718 40.0113 325.641 39.851 326.681 39.851C327.262 39.851 327.825 39.8987 328.371 39.994C328.926 40.0807 329.45 40.215 329.944 40.397C330.438 40.5703 330.898 40.7827 331.322 41.034C331.756 41.2767 332.141 41.554 332.479 41.866L331.387 43.907Z" fill="#4263EB" fill-opacity="0.35"/>
<path d="M46.096 43H41.676V34.992H33.98V43H29.56V24.059H33.98V31.976H41.676V24.059H46.096V43ZM61.6663 24.059V27.439H53.8923V31.859H59.8463V35.109H53.8923V39.62H61.6663V43H49.4723V24.059H61.6663ZM68.8275 35.993V43H64.4335V24.059H70.5955C71.9648 24.059 73.1305 24.202 74.0925 24.488C75.0632 24.7653 75.8518 25.1553 76.4585 25.658C77.0739 26.1607 77.5202 26.7543 77.7975 27.439C78.0749 28.1237 78.2135 28.869 78.2135 29.675C78.2135 30.2903 78.1312 30.871 77.9665 31.417C77.8019 31.963 77.5549 32.47 77.2255 32.938C76.9049 33.3973 76.5062 33.809 76.0295 34.173C75.5615 34.537 75.0199 34.836 74.4045 35.07C74.6992 35.2173 74.9722 35.3993 75.2235 35.616C75.4835 35.8327 75.7088 36.097 75.8995 36.409L79.9295 43H75.9515C75.2149 43 74.6862 42.7227 74.3655 42.168L71.2195 36.669C71.0808 36.4263 70.9162 36.253 70.7255 36.149C70.5435 36.045 70.2835 35.993 69.9455 35.993H68.8275ZM68.8275 32.964H70.5955C71.1935 32.964 71.7005 32.8903 72.1165 32.743C72.5412 32.587 72.8878 32.3747 73.1565 32.106C73.4252 31.8373 73.6202 31.5253 73.7415 31.17C73.8628 30.806 73.9235 30.416 73.9235 30C73.9235 29.168 73.6505 28.518 73.1045 28.05C72.5672 27.582 71.7308 27.348 70.5955 27.348H68.8275V32.964ZM94.1785 24.059V27.439H86.4045V31.859H92.3585V35.109H86.4045V39.62H94.1785V43H81.9845V24.059H94.1785ZM119.861 43H116.455C116.074 43 115.757 42.9133 115.506 42.74C115.263 42.558 115.094 42.3283 114.999 42.051L113.881 38.749H106.679L105.561 42.051C105.474 42.2937 105.305 42.5147 105.054 42.714C104.803 42.9047 104.495 43 104.131 43H100.699L108.031 24.059H112.529L119.861 43ZM107.693 35.759H112.867L111.125 30.572C111.012 30.2427 110.878 29.857 110.722 29.415C110.575 28.9643 110.427 28.479 110.28 27.959C110.141 28.4877 109.998 28.9773 109.851 29.428C109.704 29.8787 109.565 30.2687 109.435 30.598L107.693 35.759ZM126.057 35.993V43H121.663V24.059H127.825C129.194 24.059 130.36 24.202 131.322 24.488C132.293 24.7653 133.081 25.1553 133.688 25.658C134.303 26.1607 134.75 26.7543 135.027 27.439C135.304 28.1237 135.443 28.869 135.443 29.675C135.443 30.2903 135.361 30.871 135.196 31.417C135.031 31.963 134.784 32.47 134.455 32.938C134.134 33.3973 133.736 33.809 133.259 34.173C132.791 34.537 132.249 34.836 131.634 35.07C131.929 35.2173 132.202 35.3993 132.453 35.616C132.713 35.8327 132.938 36.097 133.129 36.409L137.159 43H133.181C132.444 43 131.916 42.7227 131.595 42.168L128.449 36.669C128.31 36.4263 128.146 36.253 127.955 36.149C127.773 36.045 127.513 35.993 127.175 35.993H126.057ZM126.057 32.964H127.825C128.423 32.964 128.93 32.8903 129.346 32.743C129.771 32.587 130.117 32.3747 130.386 32.106C130.655 31.8373 130.85 31.5253 130.971 31.17C131.092 30.806 131.153 30.416 131.153 30C131.153 29.168 130.88 28.518 130.334 28.05C129.797 27.582 128.96 27.348 127.825 27.348H126.057V32.964ZM151.408 24.059V27.439H143.634V31.859H149.588V35.109H143.634V39.62H151.408V43H139.214V24.059H151.408ZM169.147 34.342C169.321 34.6713 169.485 35.0137 169.641 35.369C169.806 35.7243 169.962 36.0883 170.109 36.461C170.257 36.0797 170.413 35.7113 170.577 35.356C170.742 34.992 170.911 34.641 171.084 34.303L175.946 24.735C176.033 24.5703 176.12 24.4447 176.206 24.358C176.302 24.2627 176.406 24.1933 176.518 24.15C176.631 24.1067 176.757 24.0807 176.895 24.072C177.043 24.0633 177.212 24.059 177.402 24.059H180.756V43H176.882V32.106C176.882 31.5773 176.908 31.0053 176.96 30.39L171.942 40.127C171.786 40.4303 171.574 40.66 171.305 40.816C171.045 40.972 170.746 41.05 170.408 41.05H169.81C169.472 41.05 169.169 40.972 168.9 40.816C168.64 40.66 168.432 40.4303 168.276 40.127L163.232 30.377C163.267 30.6803 163.293 30.9837 163.31 31.287C163.328 31.5817 163.336 31.8547 163.336 32.106V43H159.462V24.059H162.816C163.007 24.059 163.172 24.0633 163.31 24.072C163.458 24.0807 163.588 24.1067 163.7 24.15C163.813 24.1933 163.913 24.2627 163.999 24.358C164.095 24.4447 164.186 24.5703 164.272 24.735L169.147 34.342ZM193.586 35.798V43H189.192V35.798L182.328 24.059H186.202C186.584 24.059 186.887 24.15 187.112 24.332C187.338 24.5053 187.52 24.7307 187.658 25.008L190.336 30.52C190.553 30.962 190.752 31.3693 190.934 31.742C191.116 32.1147 191.277 32.483 191.415 32.847C191.545 32.4743 191.701 32.1017 191.883 31.729C192.065 31.3563 192.26 30.9533 192.468 30.52L195.12 25.008C195.172 24.8953 195.242 24.7827 195.328 24.67C195.424 24.5573 195.528 24.4577 195.64 24.371C195.762 24.2757 195.896 24.202 196.043 24.15C196.199 24.0893 196.368 24.059 196.55 24.059H200.45L193.586 35.798ZM205.861 24.059H209.553C209.935 24.059 210.251 24.1457 210.502 24.319C210.762 24.4923 210.931 24.722 211.009 25.008L213.609 34.888C213.696 35.2087 213.783 35.551 213.869 35.915C213.956 36.279 214.021 36.6603 214.064 37.059C214.151 36.6517 214.246 36.2703 214.35 35.915C214.454 35.551 214.554 35.2087 214.649 34.888L217.717 25.008C217.795 24.7653 217.96 24.5487 218.211 24.358C218.471 24.1587 218.783 24.059 219.147 24.059H220.447C220.829 24.059 221.141 24.1457 221.383 24.319C221.635 24.4837 221.808 24.7133 221.903 25.008L224.945 34.888C225.041 35.1913 225.14 35.5163 225.244 35.863C225.348 36.201 225.439 36.565 225.517 36.955C225.587 36.5737 225.656 36.2097 225.725 35.863C225.803 35.5163 225.881 35.1913 225.959 34.888L228.559 25.008C228.629 24.7567 228.793 24.5357 229.053 24.345C229.313 24.1543 229.625 24.059 229.989 24.059H233.447L227.597 43H223.619L220.057 31.261C219.997 31.079 219.932 30.8797 219.862 30.663C219.802 30.4463 219.741 30.2167 219.68 29.974C219.62 30.2167 219.555 30.4463 219.485 30.663C219.425 30.8797 219.364 31.079 219.303 31.261L215.689 43H211.711L205.861 24.059ZM254.099 33.523C254.099 34.8923 253.861 36.1663 253.384 37.345C252.916 38.5237 252.253 39.5507 251.395 40.426C250.537 41.2927 249.501 41.973 248.288 42.467C247.083 42.961 245.744 43.208 244.271 43.208C242.798 43.208 241.454 42.961 240.241 42.467C239.028 41.973 237.988 41.2927 237.121 40.426C236.263 39.5507 235.596 38.5237 235.119 37.345C234.651 36.1663 234.417 34.8923 234.417 33.523C234.417 32.1537 234.651 30.8797 235.119 29.701C235.596 28.5223 236.263 27.4997 237.121 26.633C237.988 25.7663 239.028 25.086 240.241 24.592C241.454 24.098 242.798 23.851 244.271 23.851C245.744 23.851 247.083 24.1023 248.288 24.605C249.501 25.099 250.537 25.7793 251.395 26.646C252.253 27.5127 252.916 28.5353 253.384 29.714C253.861 30.8927 254.099 32.1623 254.099 33.523ZM249.601 33.523C249.601 32.587 249.48 31.7463 249.237 31.001C248.994 30.247 248.643 29.61 248.184 29.09C247.733 28.57 247.179 28.1713 246.52 27.894C245.861 27.6167 245.112 27.478 244.271 27.478C243.422 27.478 242.663 27.6167 241.996 27.894C241.337 28.1713 240.778 28.57 240.319 29.09C239.868 29.61 239.522 30.247 239.279 31.001C239.036 31.7463 238.915 32.587 238.915 33.523C238.915 34.4677 239.036 35.317 239.279 36.071C239.522 36.8163 239.868 37.449 240.319 37.969C240.778 38.489 241.337 38.8877 241.996 39.165C242.663 39.4337 243.422 39.568 244.271 39.568C245.112 39.568 245.861 39.4337 246.52 39.165C247.179 38.8877 247.733 38.489 248.184 37.969C248.643 37.449 248.994 36.8163 249.237 36.071C249.48 35.317 249.601 34.4677 249.601 33.523ZM260.854 35.993V43H256.46V24.059H262.622C263.991 24.059 265.157 24.202 266.119 24.488C267.089 24.7653 267.878 25.1553 268.485 25.658C269.1 26.1607 269.546 26.7543 269.824 27.439C270.101 28.1237 270.24 28.869 270.24 29.675C270.24 30.2903 270.157 30.871 269.993 31.417C269.828 31.963 269.581 32.47 269.252 32.938C268.931 33.3973 268.532 33.809 268.056 34.173C267.588 34.537 267.046 34.836 266.431 35.07C266.725 35.2173 266.998 35.3993 267.25 35.616C267.51 35.8327 267.735 36.097 267.926 36.409L271.956 43H267.978C267.241 43 266.712 42.7227 266.392 42.168L263.246 36.669C263.107 36.4263 262.942 36.253 262.752 36.149C262.57 36.045 262.31 35.993 261.972 35.993H260.854ZM260.854 32.964H262.622C263.22 32.964 263.727 32.8903 264.143 32.743C264.567 32.587 264.914 32.3747 265.183 32.106C265.451 31.8373 265.646 31.5253 265.768 31.17C265.889 30.806 265.95 30.416 265.95 30C265.95 29.168 265.677 28.518 265.131 28.05C264.593 27.582 263.757 27.348 262.622 27.348H260.854V32.964ZM278.405 31.729H279.107C279.757 31.729 280.225 31.5253 280.511 31.118L284.775 24.93C285.009 24.592 285.273 24.3623 285.568 24.241C285.871 24.1197 286.239 24.059 286.673 24.059H290.495L284.879 31.716C284.679 31.9933 284.471 32.223 284.255 32.405C284.038 32.587 283.817 32.7387 283.592 32.86C283.921 32.9813 284.22 33.1503 284.489 33.367C284.766 33.575 285.017 33.8567 285.243 34.212L290.963 43H287.037C286.785 43 286.569 42.9827 286.387 42.948C286.213 42.9133 286.062 42.8613 285.932 42.792C285.802 42.7227 285.689 42.6403 285.594 42.545C285.498 42.441 285.407 42.324 285.321 42.194L281.031 35.603C280.875 35.3603 280.675 35.1913 280.433 35.096C280.199 34.992 279.878 34.94 279.471 34.94H278.405V43H274.011V24.059H278.405V31.729ZM303.387 27.907C303.257 28.115 303.119 28.271 302.971 28.375C302.833 28.479 302.651 28.531 302.425 28.531C302.226 28.531 302.009 28.4703 301.775 28.349C301.55 28.219 301.29 28.076 300.995 27.92C300.709 27.764 300.38 27.6253 300.007 27.504C299.635 27.374 299.21 27.309 298.733 27.309C297.91 27.309 297.295 27.4867 296.887 27.842C296.489 28.1887 296.289 28.661 296.289 29.259C296.289 29.6403 296.411 29.9567 296.653 30.208C296.896 30.4593 297.212 30.676 297.602 30.858C298.001 31.04 298.452 31.209 298.954 31.365C299.466 31.5123 299.986 31.6813 300.514 31.872C301.043 32.054 301.559 32.2707 302.061 32.522C302.573 32.7733 303.023 33.094 303.413 33.484C303.812 33.874 304.133 34.3507 304.375 34.914C304.618 35.4687 304.739 36.1403 304.739 36.929C304.739 37.8043 304.588 38.6233 304.284 39.386C303.981 40.1487 303.539 40.816 302.958 41.388C302.386 41.9513 301.676 42.3977 300.826 42.727C299.986 43.0477 299.028 43.208 297.953 43.208C297.364 43.208 296.762 43.1473 296.146 43.026C295.54 42.9047 294.95 42.7357 294.378 42.519C293.806 42.2937 293.269 42.0293 292.766 41.726C292.264 41.4227 291.826 41.0847 291.453 40.712L292.753 38.658C292.849 38.502 292.983 38.3763 293.156 38.281C293.33 38.1857 293.516 38.138 293.715 38.138C293.975 38.138 294.235 38.2203 294.495 38.385C294.764 38.5497 295.063 38.7317 295.392 38.931C295.73 39.1303 296.116 39.3123 296.549 39.477C296.983 39.6417 297.494 39.724 298.083 39.724C298.881 39.724 299.5 39.5507 299.942 39.204C300.384 38.8487 300.605 38.2897 300.605 37.527C300.605 37.085 300.484 36.7253 300.241 36.448C299.999 36.1707 299.678 35.941 299.279 35.759C298.889 35.577 298.443 35.4167 297.94 35.278C297.438 35.1393 296.922 34.9877 296.393 34.823C295.865 34.6497 295.349 34.4417 294.846 34.199C294.344 33.9477 293.893 33.6227 293.494 33.224C293.104 32.8167 292.788 32.314 292.545 31.716C292.303 31.1093 292.181 30.364 292.181 29.48C292.181 28.7693 292.324 28.076 292.61 27.4C292.896 26.724 293.317 26.1217 293.871 25.593C294.426 25.0643 295.106 24.644 295.912 24.332C296.718 24.0113 297.641 23.851 298.681 23.851C299.262 23.851 299.825 23.8987 300.371 23.994C300.926 24.0807 301.45 24.215 301.944 24.397C302.438 24.5703 302.898 24.7827 303.322 25.034C303.756 25.2767 304.141 25.554 304.479 25.866L303.387 27.907Z" fill="#47F6CB" fill-opacity="0.9"/>
<path d="M18.096 26H13.676V17.992H5.98V26H1.56V7.059H5.98V14.976H13.676V7.059H18.096V26ZM33.6663 7.059V10.439H25.8923V14.859H31.8463V18.109H25.8923V22.62H33.6663V26H21.4723V7.059H33.6663ZM40.8275 18.993V26H36.4335V7.059H42.5955C43.9648 7.059 45.1305 7.202 46.0925 7.488C47.0632 7.76533 47.8518 8.15533 48.4585 8.658C49.0739 9.16067 49.5202 9.75433 49.7975 10.439C50.0749 11.1237 50.2135 11.869 50.2135 12.675C50.2135 13.2903 50.1312 13.871 49.9665 14.417C49.8019 14.963 49.5549 15.47 49.2255 15.938C48.9049 16.3973 48.5062 16.809 48.0295 17.173C47.5615 17.537 47.0199 17.836 46.4045 18.07C46.6992 18.2173 46.9722 18.3993 47.2235 18.616C47.4835 18.8327 47.7088 19.097 47.8995 19.409L51.9295 26H47.9515C47.2149 26 46.6862 25.7227 46.3655 25.168L43.2195 19.669C43.0808 19.4263 42.9162 19.253 42.7255 19.149C42.5435 19.045 42.2835 18.993 41.9455 18.993H40.8275ZM40.8275 15.964H42.5955C43.1935 15.964 43.7005 15.8903 44.1165 15.743C44.5412 15.587 44.8878 15.3747 45.1565 15.106C45.4252 14.8373 45.6202 14.5253 45.7415 14.17C45.8628 13.806 45.9235 13.416 45.9235 13C45.9235 12.168 45.6505 11.518 45.1045 11.05C44.5672 10.582 43.7308 10.348 42.5955 10.348H40.8275V15.964ZM66.1785 7.059V10.439H58.4045V14.859H64.3585V18.109H58.4045V22.62H66.1785V26H53.9845V7.059H66.1785ZM91.8611 26H88.4551C88.0737 26 87.7574 25.9133 87.5061 25.74C87.2634 25.558 87.0944 25.3283 86.999 25.051L85.8811 21.749H78.6791L77.5611 25.051C77.4744 25.2937 77.3054 25.5147 77.0541 25.714C76.8027 25.9047 76.4951 26 76.131 26H72.699L80.0311 7.059H84.5291L91.8611 26ZM79.6931 18.759H84.8671L83.1251 13.572C83.0124 13.2427 82.8781 12.857 82.7221 12.415C82.5747 11.9643 82.4274 11.479 82.2801 10.959C82.1414 11.4877 81.9984 11.9773 81.8511 12.428C81.7037 12.8787 81.5651 13.2687 81.4351 13.598L79.6931 18.759ZM98.057 18.993V26H93.663V7.059H99.825C101.194 7.059 102.36 7.202 103.322 7.488C104.293 7.76533 105.081 8.15533 105.688 8.658C106.303 9.16067 106.75 9.75433 107.027 10.439C107.304 11.1237 107.443 11.869 107.443 12.675C107.443 13.2903 107.361 13.871 107.196 14.417C107.031 14.963 106.784 15.47 106.455 15.938C106.134 16.3973 105.736 16.809 105.259 17.173C104.791 17.537 104.249 17.836 103.634 18.07C103.929 18.2173 104.202 18.3993 104.453 18.616C104.713 18.8327 104.938 19.097 105.129 19.409L109.159 26H105.181C104.444 26 103.916 25.7227 103.595 25.168L100.449 19.669C100.31 19.4263 100.146 19.253 99.955 19.149C99.773 19.045 99.513 18.993 99.175 18.993H98.057ZM98.057 15.964H99.825C100.423 15.964 100.93 15.8903 101.346 15.743C101.771 15.587 102.117 15.3747 102.386 15.106C102.655 14.8373 102.85 14.5253 102.971 14.17C103.092 13.806 103.153 13.416 103.153 13C103.153 12.168 102.88 11.518 102.334 11.05C101.797 10.582 100.96 10.348 99.825 10.348H98.057V15.964ZM123.408 7.059V10.439H115.634V14.859H121.588V18.109H115.634V22.62H123.408V26H111.214V7.059H123.408ZM141.147 17.342C141.321 17.6713 141.485 18.0137 141.641 18.369C141.806 18.7243 141.962 19.0883 142.109 19.461C142.257 19.0797 142.413 18.7113 142.577 18.356C142.742 17.992 142.911 17.641 143.084 17.303L147.946 7.735C148.033 7.57033 148.12 7.44467 148.206 7.358C148.302 7.26267 148.406 7.19333 148.518 7.15C148.631 7.10667 148.757 7.08067 148.895 7.072C149.043 7.06333 149.212 7.059 149.402 7.059H152.756V26H148.882V15.106C148.882 14.5773 148.908 14.0053 148.96 13.39L143.942 23.127C143.786 23.4303 143.574 23.66 143.305 23.816C143.045 23.972 142.746 24.05 142.408 24.05H141.81C141.472 24.05 141.169 23.972 140.9 23.816C140.64 23.66 140.432 23.4303 140.276 23.127L135.232 13.377C135.267 13.6803 135.293 13.9837 135.31 14.287C135.328 14.5817 135.336 14.8547 135.336 15.106V26H131.462V7.059H134.816C135.007 7.059 135.172 7.06333 135.31 7.072C135.458 7.08067 135.588 7.10667 135.7 7.15C135.813 7.19333 135.913 7.26267 135.999 7.358C136.095 7.44467 136.186 7.57033 136.272 7.735L141.147 17.342ZM165.586 18.798V26H161.192V18.798L154.328 7.059H158.202C158.584 7.059 158.887 7.15 159.112 7.332C159.338 7.50533 159.52 7.73067 159.658 8.008L162.336 13.52C162.553 13.962 162.752 14.3693 162.934 14.742C163.116 15.1147 163.277 15.483 163.415 15.847C163.545 15.4743 163.701 15.1017 163.883 14.729C164.065 14.3563 164.26 13.9533 164.468 13.52L167.12 8.008C167.172 7.89533 167.242 7.78267 167.328 7.67C167.424 7.55733 167.528 7.45767 167.64 7.371C167.762 7.27567 167.896 7.202 168.043 7.15C168.199 7.08933 168.368 7.059 168.55 7.059H172.45L165.586 18.798ZM177.861 7.059H181.553C181.935 7.059 182.251 7.14567 182.502 7.319C182.762 7.49233 182.931 7.722 183.009 8.008L185.609 17.888C185.696 18.2087 185.783 18.551 185.869 18.915C185.956 19.279 186.021 19.6603 186.064 20.059C186.151 19.6517 186.246 19.2703 186.35 18.915C186.454 18.551 186.554 18.2087 186.649 17.888L189.717 8.008C189.795 7.76533 189.96 7.54867 190.211 7.358C190.471 7.15867 190.783 7.059 191.147 7.059H192.447C192.829 7.059 193.141 7.14567 193.383 7.319C193.635 7.48367 193.808 7.71333 193.903 8.008L196.945 17.888C197.041 18.1913 197.14 18.5163 197.244 18.863C197.348 19.201 197.439 19.565 197.517 19.955C197.587 19.5737 197.656 19.2097 197.725 18.863C197.803 18.5163 197.881 18.1913 197.959 17.888L200.559 8.008C200.629 7.75667 200.793 7.53567 201.053 7.345C201.313 7.15433 201.625 7.059 201.989 7.059H205.447L199.597 26H195.619L192.057 14.261C191.997 14.079 191.932 13.8797 191.862 13.663C191.802 13.4463 191.741 13.2167 191.68 12.974C191.62 13.2167 191.555 13.4463 191.485 13.663C191.425 13.8797 191.364 14.079 191.303 14.261L187.689 26H183.711L177.861 7.059ZM226.099 16.523C226.099 17.8923 225.861 19.1663 225.384 20.345C224.916 21.5237 224.253 22.5507 223.395 23.426C222.537 24.2927 221.501 24.973 220.288 25.467C219.083 25.961 217.744 26.208 216.271 26.208C214.798 26.208 213.454 25.961 212.241 25.467C211.028 24.973 209.988 24.2927 209.121 23.426C208.263 22.5507 207.596 21.5237 207.119 20.345C206.651 19.1663 206.417 17.8923 206.417 16.523C206.417 15.1537 206.651 13.8797 207.119 12.701C207.596 11.5223 208.263 10.4997 209.121 9.633C209.988 8.76633 211.028 8.086 212.241 7.592C213.454 7.098 214.798 6.851 216.271 6.851C217.744 6.851 219.083 7.10233 220.288 7.605C221.501 8.099 222.537 8.77933 223.395 9.646C224.253 10.5127 224.916 11.5353 225.384 12.714C225.861 13.8927 226.099 15.1623 226.099 16.523ZM221.601 16.523C221.601 15.587 221.48 14.7463 221.237 14.001C220.994 13.247 220.643 12.61 220.184 12.09C219.733 11.57 219.179 11.1713 218.52 10.894C217.861 10.6167 217.112 10.478 216.271 10.478C215.422 10.478 214.663 10.6167 213.996 10.894C213.337 11.1713 212.778 11.57 212.319 12.09C211.868 12.61 211.522 13.247 211.279 14.001C211.036 14.7463 210.915 15.587 210.915 16.523C210.915 17.4677 211.036 18.317 211.279 19.071C211.522 19.8163 211.868 20.449 212.319 20.969C212.778 21.489 213.337 21.8877 213.996 22.165C214.663 22.4337 215.422 22.568 216.271 22.568C217.112 22.568 217.861 22.4337 218.52 22.165C219.179 21.8877 219.733 21.489 220.184 20.969C220.643 20.449 220.994 19.8163 221.237 19.071C221.48 18.317 221.601 17.4677 221.601 16.523ZM232.854 18.993V26H228.46V7.059H234.622C235.991 7.059 237.157 7.202 238.119 7.488C239.089 7.76533 239.878 8.15533 240.485 8.658C241.1 9.16067 241.546 9.75433 241.824 10.439C242.101 11.1237 242.24 11.869 242.24 12.675C242.24 13.2903 242.157 13.871 241.993 14.417C241.828 14.963 241.581 15.47 241.252 15.938C240.931 16.3973 240.532 16.809 240.056 17.173C239.588 17.537 239.046 17.836 238.431 18.07C238.725 18.2173 238.998 18.3993 239.25 18.616C239.51 18.8327 239.735 19.097 239.926 19.409L243.956 26H239.978C239.241 26 238.712 25.7227 238.392 25.168L235.246 19.669C235.107 19.4263 234.942 19.253 234.752 19.149C234.57 19.045 234.31 18.993 233.972 18.993H232.854ZM232.854 15.964H234.622C235.22 15.964 235.727 15.8903 236.143 15.743C236.567 15.587 236.914 15.3747 237.183 15.106C237.451 14.8373 237.646 14.5253 237.768 14.17C237.889 13.806 237.95 13.416 237.95 13C237.95 12.168 237.677 11.518 237.131 11.05C236.593 10.582 235.757 10.348 234.622 10.348H232.854V15.964ZM250.405 14.729H251.107C251.757 14.729 252.225 14.5253 252.511 14.118L256.775 7.93C257.009 7.592 257.273 7.36233 257.568 7.241C257.871 7.11967 258.239 7.059 258.673 7.059H262.495L256.879 14.716C256.679 14.9933 256.471 15.223 256.255 15.405C256.038 15.587 255.817 15.7387 255.592 15.86C255.921 15.9813 256.22 16.1503 256.489 16.367C256.766 16.575 257.017 16.8567 257.243 17.212L262.963 26H259.037C258.785 26 258.569 25.9827 258.387 25.948C258.213 25.9133 258.062 25.8613 257.932 25.792C257.802 25.7227 257.689 25.6403 257.594 25.545C257.498 25.441 257.407 25.324 257.321 25.194L253.031 18.603C252.875 18.3603 252.675 18.1913 252.433 18.096C252.199 17.992 251.878 17.94 251.471 17.94H250.405V26H246.011V7.059H250.405V14.729ZM275.387 10.907C275.257 11.115 275.119 11.271 274.971 11.375C274.833 11.479 274.651 11.531 274.425 11.531C274.226 11.531 274.009 11.4703 273.775 11.349C273.55 11.219 273.29 11.076 272.995 10.92C272.709 10.764 272.38 10.6253 272.007 10.504C271.635 10.374 271.21 10.309 270.733 10.309C269.91 10.309 269.295 10.4867 268.887 10.842C268.489 11.1887 268.289 11.661 268.289 12.259C268.289 12.6403 268.411 12.9567 268.653 13.208C268.896 13.4593 269.212 13.676 269.602 13.858C270.001 14.04 270.452 14.209 270.954 14.365C271.466 14.5123 271.986 14.6813 272.514 14.872C273.043 15.054 273.559 15.2707 274.061 15.522C274.573 15.7733 275.023 16.094 275.413 16.484C275.812 16.874 276.133 17.3507 276.375 17.914C276.618 18.4687 276.739 19.1403 276.739 19.929C276.739 20.8043 276.588 21.6233 276.284 22.386C275.981 23.1487 275.539 23.816 274.958 24.388C274.386 24.9513 273.676 25.3977 272.826 25.727C271.986 26.0477 271.028 26.208 269.953 26.208C269.364 26.208 268.762 26.1473 268.146 26.026C267.54 25.9047 266.95 25.7357 266.378 25.519C265.806 25.2937 265.269 25.0293 264.766 24.726C264.264 24.4227 263.826 24.0847 263.453 23.712L264.753 21.658C264.849 21.502 264.983 21.3763 265.156 21.281C265.33 21.1857 265.516 21.138 265.715 21.138C265.975 21.138 266.235 21.2203 266.495 21.385C266.764 21.5497 267.063 21.7317 267.392 21.931C267.73 22.1303 268.116 22.3123 268.549 22.477C268.983 22.6417 269.494 22.724 270.083 22.724C270.881 22.724 271.5 22.5507 271.942 22.204C272.384 21.8487 272.605 21.2897 272.605 20.527C272.605 20.085 272.484 19.7253 272.241 19.448C271.999 19.1707 271.678 18.941 271.279 18.759C270.889 18.577 270.443 18.4167 269.94 18.278C269.438 18.1393 268.922 17.9877 268.393 17.823C267.865 17.6497 267.349 17.4417 266.846 17.199C266.344 16.9477 265.893 16.6227 265.494 16.224C265.104 15.8167 264.788 15.314 264.545 14.716C264.303 14.1093 264.181 13.364 264.181 12.48C264.181 11.7693 264.324 11.076 264.61 10.4C264.896 9.724 265.317 9.12167 265.871 8.593C266.426 8.06433 267.106 7.644 267.912 7.332C268.718 7.01133 269.641 6.851 270.681 6.851C271.262 6.851 271.825 6.89867 272.371 6.994C272.926 7.08067 273.45 7.215 273.944 7.397C274.438 7.57033 274.898 7.78267 275.322 8.034C275.756 8.27667 276.141 8.554 276.479 8.866L275.387 10.907Z" fill="#121111"/>
</svg>
