<svg fill="none" height="81" viewBox="0 0 483 81" width="483" xmlns="http://www.w3.org/2000/svg"><path d="m83.84 72h-6.8v-12.32h-11.84v12.32h-6.8v-29.14h6.8v12.18h11.84v-12.18h6.8zm23.954-29.14v5.2h-11.9596v6.8h9.1596v5h-9.1596v6.94h11.9596v5.2h-18.7596v-29.14zm11.018 18.36v10.78h-6.76v-29.14h9.48c2.106 0 3.9.22 5.38.66 1.493.4267 2.706 1.0267 3.64 1.8.946.7733 1.633 1.6867 2.06 2.74.426 1.0533.64 2.2.64 3.44 0 .9467-.127 1.84-.38 2.68-.254.84-.634 1.62-1.14 2.34-.494.7067-1.107 1.34-1.84 1.9-.72.56-1.554 1.02-2.5 1.38.453.2267.873.5067 1.26.84.4.3333.746.74 1.04 1.22l6.2 10.14h-6.12c-1.134 0-1.947-.4267-2.44-1.28l-4.84-8.46c-.214-.3733-.467-.64-.76-.8-.28-.16-.68-.24-1.2-.24zm0-4.66h2.72c.92 0 1.7-.1133 2.34-.34.653-.24 1.186-.5667 1.6-.98.413-.4133.713-.8933.9-1.44.186-.56.28-1.16.28-1.8 0-1.28-.42-2.28-1.26-3-.827-.72-2.114-1.08-3.86-1.08h-2.72zm39.001-13.7v5.2h-11.96v6.8h9.16v5h-9.16v6.94h11.96v5.2h-18.76v-29.14zm39.512 29.14h-5.24c-.587 0-1.074-.1333-1.46-.4-.374-.28-.634-.6333-.78-1.06l-1.72-5.08h-11.08l-1.72 5.08c-.134.3733-.394.7133-.78 1.02-.387.2933-.86.44-1.42.44h-5.28l11.28-29.14h6.92zm-18.72-11.14h7.96l-2.68-7.98c-.174-.5067-.38-1.1-.62-1.78-.227-.6933-.454-1.44-.68-2.24-.214.8133-.434 1.5667-.66 2.26-.227.6933-.44 1.2933-.64 1.8zm28.252.36v10.78h-6.76v-29.14h9.48c2.107 0 3.9.22 5.38.66 1.493.4267 2.707 1.0267 3.64 1.8.947.7733 1.633 1.6867 2.06 2.74s.64 2.2.64 3.44c0 .9467-.127 1.84-.38 2.68s-.633 1.62-1.14 2.34c-.493.7067-1.107 1.34-1.84 1.9-.72.56-1.553 1.02-2.5 1.38.453.2267.873.5067 1.26.84.4.3333.747.74 1.04 1.22l6.2 10.14h-6.12c-1.133 0-1.947-.4267-2.44-1.28l-4.84-8.46c-.213-.3733-.467-.64-.76-.8-.28-.16-.68-.24-1.2-.24zm0-4.66h2.72c.92 0 1.7-.1133 2.34-.34.653-.24 1.187-.5667 1.6-.98s.713-.8933.9-1.44c.187-.56.28-1.16.28-1.8 0-1.28-.42-2.28-1.26-3-.827-.72-2.113-1.08-3.86-1.08h-2.72zm39.001-13.7v5.2h-11.96v6.8h9.16v5h-9.16v6.94h11.96v5.2h-18.76v-29.14zm27.292 15.82c.267.5067.52 1.0333.76 1.58.253.5467.493 1.1067.72 1.68.227-.5867.467-1.1533.72-1.7.253-.56.513-1.1.78-1.62l7.48-14.72c.133-.2533.267-.4467.4-.58.147-.1467.307-.2533.48-.32s.367-.1067.58-.12c.227-.0133.487-.02.78-.02h5.16v29.14h-5.96v-16.76c0-.8133.04-1.6933.12-2.64l-7.72 14.98c-.24.4667-.567.82-.98 1.06-.4.24-.86.36-1.38.36h-.92c-.52 0-.987-.12-1.4-.36-.4-.24-.72-.5933-.96-1.06l-7.76-15c.053.4667.093.9333.12 1.4.027.4533.04.8733.04 1.26v16.76h-5.96v-29.14h5.16c.293 0 .547.0067.76.02.227.0133.427.0533.6.12s.327.1733.46.32c.147.1333.287.3267.42.58zm37.598 2.24v11.08h-6.76v-11.08l-10.56-18.06h5.96c.587 0 1.053.14 1.4.42.347.2667.627.6133.84 1.04l4.12 8.48c.333.68.64 1.3067.92 1.88s.527 1.14.74 1.7c.2-.5733.44-1.1467.72-1.72s.58-1.1933.9-1.86l4.08-8.48c.08-.1733.187-.3467.32-.52.147-.1733.307-.3267.48-.46.187-.1467.393-.26.62-.34.24-.0933.5-.14.78-.14h6zm18.885-18.06h5.68c.586 0 1.073.1333 1.46.4.4.2667.66.62.78 1.06l4 15.2c.133.4933.266 1.02.4 1.58.133.56.233 1.1467.3 1.76.133-.6267.28-1.2133.44-1.76.16-.56.313-1.0867.46-1.58l4.72-15.2c.12-.3733.373-.7067.76-1 .4-.3067.88-.46 1.44-.46h2c.586 0 1.066.1333 1.44.4.386.2533.653.6067.8 1.06l4.68 15.2c.146.4667.3.9667.46 1.5.16.52.3 1.08.42 1.68.106-.5867.213-1.1467.32-1.68.12-.5333.24-1.0333.36-1.5l4-15.2c.106-.3867.36-.7267.76-1.02s.88-.44 1.44-.44h5.32l-9 29.14h-6.12l-5.48-18.06c-.094-.28-.194-.5867-.3-.92-.094-.3333-.187-.6867-.28-1.06-.094.3733-.194.7267-.3 1.06-.094.3333-.187.64-.28.92l-5.56 18.06h-6.12zm74.211 14.56c0 2.1067-.366 4.0667-1.1 5.88-.72 1.8133-1.74 3.3933-3.06 4.74-1.32 1.3333-2.913 2.38-4.78 3.14-1.853.76-3.913 1.14-6.18 1.14-2.266 0-4.333-.38-6.2-1.14-1.866-.76-3.466-1.8067-4.8-3.14-1.32-1.3467-2.346-2.9267-3.08-4.74-.72-1.8133-1.08-3.7733-1.08-5.88s.36-4.0667 1.08-5.88c.734-1.8133 1.76-3.3867 3.08-4.72 1.334-1.3333 2.934-2.38 4.8-3.14 1.867-.76 3.934-1.14 6.2-1.14 2.267 0 4.327.3867 6.18 1.16 1.867.76 3.46 1.8067 4.78 3.14s2.34 2.9067 3.06 4.72c.734 1.8133 1.1 3.7667 1.1 5.86zm-6.92 0c0-1.44-.186-2.7333-.56-3.88-.373-1.16-.913-2.14-1.62-2.94-.693-.8-1.546-1.4133-2.56-1.84-1.013-.4267-2.166-.64-3.46-.64-1.306 0-2.473.2133-3.5.64-1.013.4267-1.873 1.04-2.58 1.84-.693.8-1.226 1.78-1.6 2.94-.373 1.1467-.56 2.44-.56 3.88 0 1.4533.187 2.76.56 3.92.374 1.1467.907 2.12 1.6 2.92.707.8 1.567 1.4133 2.58 1.84 1.027.4133 2.194.62 3.5.62 1.294 0 2.447-.2067 3.46-.62 1.014-.4267 1.867-1.04 2.56-1.84.707-.8 1.247-1.7733 1.62-2.92.374-1.16.56-2.4667.56-3.92zm17.313 3.8v10.78h-6.76v-29.14h9.48c2.106 0 3.9.22 5.38.66 1.493.4267 2.706 1.0267 3.64 1.8.946.7733 1.633 1.6867 2.06 2.74.426 1.0533.64 2.2.64 3.44 0 .9467-.127 1.84-.38 2.68-.254.84-.634 1.62-1.14 2.34-.494.7067-1.107 1.34-1.84 1.9-.72.56-1.554 1.02-2.5 1.38.453.2267.873.5067 1.26.84.4.3333.746.74 1.04 1.22l6.2 10.14h-6.12c-1.134 0-1.947-.4267-2.44-1.28l-4.84-8.46c-.214-.3733-.467-.64-.76-.8-.28-.16-.68-.24-1.2-.24zm0-4.66h2.72c.92 0 1.7-.1133 2.34-.34.653-.24 1.186-.5667 1.6-.98.413-.4133.713-.8933.9-1.44.186-.56.28-1.16.28-1.8 0-1.28-.42-2.28-1.26-3-.827-.72-2.114-1.08-3.86-1.08h-2.72zm27.001-1.9h1.08c1 0 1.72-.3133 2.16-.94l6.56-9.52c.36-.52.767-.8733 1.22-1.06.467-.1867 1.033-.28 1.7-.28h5.88l-8.64 11.78c-.307.4267-.627.78-.96 1.06s-.673.5133-1.02.7c.507.1867.967.4467 1.38.78.427.32.813.7533 1.16 1.3l8.8 13.52h-6.04c-.387 0-.72-.0267-1-.08-.267-.0533-.5-.1333-.7-.24s-.373-.2333-.52-.38c-.147-.16-.287-.34-.42-.54l-6.6-10.14c-.24-.3733-.547-.6333-.92-.78-.36-.16-.853-.24-1.48-.24h-1.64v12.4h-6.76v-29.14h6.76zm38.435-5.88c-.2.32-.414.56-.64.72-.214.16-.494.24-.84.24-.307 0-.64-.0933-1-.28-.347-.2-.747-.42-1.2-.66-.44-.24-.947-.4533-1.52-.64-.574-.2-1.227-.3-1.96-.3-1.267 0-2.214.2733-2.84.82-.614.5333-.92 1.26-.92 2.18 0 .5867.186 1.0733.56 1.46.373.3867.86.72 1.46 1 .613.28 1.306.54 2.08.78.786.2267 1.586.4867 2.4.78.813.28 1.606.6133 2.38 1 .786.3867 1.48.88 2.08 1.48.613.6 1.106 1.3333 1.48 2.2.373.8533.56 1.8867.56 3.1 0 1.3467-.234 2.6067-.7 3.78-.467 1.1733-1.147 2.2-2.04 3.08-.88.8667-1.974 1.5533-3.28 2.06-1.294.4933-2.767.74-4.42.74-.907 0-1.834-.0933-2.78-.28-.934-.1867-1.84-.4467-2.72-.78-.88-.3467-1.707-.7533-2.48-1.22-.774-.4667-1.447-.9867-2.02-1.56l2-3.16c.146-.24.353-.4333.62-.58.266-.1467.553-.22.86-.22.4 0 .8.1267 1.2.38.413.2533.873.5333 1.38.84.52.3067 1.113.5867 1.78.84.666.2533 1.453.38 2.36.38 1.226 0 2.18-.2667 2.86-.8.68-.5467 1.02-1.4067 1.02-2.58 0-.68-.187-1.2333-.56-1.66-.374-.4267-.867-.78-1.48-1.06-.6-.28-1.287-.5267-2.06-.74-.774-.2133-1.567-.4467-2.38-.7-.814-.2667-1.607-.5867-2.38-.96-.774-.3867-1.467-.8867-2.08-1.5-.6-.6267-1.087-1.4-1.46-2.32-.374-.9333-.56-2.08-.56-3.44 0-1.0933.22-2.16.66-3.2s1.086-1.9667 1.94-2.78c.853-.8133 1.9-1.46 3.14-1.94 1.24-.4933 2.66-.74 4.26-.74.893 0 1.76.0733 2.6.22.853.1333 1.66.34 2.42.62.76.2667 1.466.5933 2.12.98.666.3733 1.26.8 1.78 1.28z" fill="#4263eb" fill-opacity=".35"/><path d="m55.84 56h-6.8v-12.32h-11.84v12.32h-6.8v-29.14h6.8v12.18h11.84v-12.18h6.8zm23.9544-29.14v5.2h-11.96v6.8h9.16v5h-9.16v6.94h11.96v5.2h-18.76v-29.14zm11.0172 18.36v10.78h-6.76v-29.14h9.48c2.1066 0 3.9.22 5.38.66 1.4934.4267 2.7064 1.0267 3.6404 1.8.946.7733 1.633 1.6867 2.06 2.74.426 1.0533.64 2.2.64 3.44 0 .9467-.127 1.84-.38 2.68-.254.84-.634 1.62-1.14 2.34-.494.7067-1.107 1.34-1.84 1.9-.72.56-1.554 1.02-2.5004 1.38.4533.2267.8734.5067 1.2604.84.4.3333.746.74 1.04 1.22l6.2 10.14h-6.12c-1.134 0-1.9471-.4267-2.4404-1.28l-4.84-8.46c-.2134-.3733-.4667-.64-.76-.8-.28-.16-.68-.24-1.2-.24zm0-4.66h2.72c.92 0 1.7-.1133 2.34-.34.6533-.24 1.1866-.5667 1.6-.98.4133-.4133.7133-.8933.9-1.44.1866-.56.28-1.16.28-1.8 0-1.28-.42-2.28-1.26-3-.8267-.72-2.1134-1.08-3.86-1.08h-2.72zm39.0014-13.7v5.2h-11.96v6.8h9.16v5h-9.16v6.94h11.96v5.2h-18.76v-29.14zm39.512 29.14h-5.24c-.587 0-1.074-.1333-1.46-.4-.374-.28-.634-.6333-.78-1.06l-1.72-5.08h-11.08l-1.72 5.08c-.134.3733-.394.7133-.78 1.02-.387.2933-.86.44-1.42.44h-5.28l11.28-29.14h6.92zm-18.72-11.14h7.96l-2.68-7.98c-.174-.5067-.38-1.1-.62-1.78-.227-.6933-.454-1.44-.68-2.24-.214.8133-.434 1.5667-.66 2.26-.227.6933-.44 1.2933-.64 1.8zm28.252.36v10.78h-6.76v-29.14h9.48c2.107 0 3.9.22 5.38.66 1.493.4267 2.707 1.0267 3.64 1.8.947.7733 1.633 1.6867 2.06 2.74s.64 2.2.64 3.44c0 .9467-.127 1.84-.38 2.68s-.633 1.62-1.14 2.34c-.493.7067-1.107 1.34-1.84 1.9-.72.56-1.553 1.02-2.5 1.38.453.2267.873.5067 1.26.84.4.3333.747.74 1.04 1.22l6.2 10.14h-6.12c-1.133 0-1.947-.4267-2.44-1.28l-4.84-8.46c-.213-.3733-.467-.64-.76-.8-.28-.16-.68-.24-1.2-.24zm0-4.66h2.72c.92 0 1.7-.1133 2.34-.34.653-.24 1.187-.5667 1.6-.98s.713-.8933.9-1.44c.187-.56.28-1.16.28-1.8 0-1.28-.42-2.28-1.26-3-.827-.72-2.113-1.08-3.86-1.08h-2.72zm39.001-13.7v5.2h-11.96v6.8h9.16v5h-9.16v6.94h11.96v5.2h-18.76v-29.14zm27.292 15.82c.267.5067.52 1.0333.76 1.58.253.5467.493 1.1067.72 1.68.227-.5867.467-1.1533.72-1.7.253-.56.513-1.1.78-1.62l7.48-14.72c.133-.2533.267-.4467.4-.58.147-.1467.307-.2533.48-.32s.367-.1067.58-.12c.227-.0133.487-.02.78-.02h5.16v29.14h-5.96v-16.76c0-.8133.04-1.6933.12-2.64l-7.72 14.98c-.24.4667-.567.82-.98 1.06-.4.24-.86.36-1.38.36h-.92c-.52 0-.987-.12-1.4-.36-.4-.24-.72-.5933-.96-1.06l-7.76-15c.053.4667.093.9333.12 1.4.027.4533.04.8733.04 1.26v16.76h-5.96v-29.14h5.16c.293 0 .547.0067.76.02.227.0133.427.0533.6.12s.327.1733.46.32c.147.1333.287.3267.42.58zm37.598 2.24v11.08h-6.76v-11.08l-10.56-18.06h5.96c.587 0 1.053.14 1.4.42.347.2667.627.6133.84 1.04l4.12 8.48c.333.68.64 1.3067.92 1.88s.527 1.14.74 1.7c.2-.5733.44-1.1467.72-1.72s.58-1.1933.9-1.86l4.08-8.48c.08-.1733.187-.3467.32-.52.147-.1733.307-.3267.48-.46.187-.1467.393-.26.62-.34.24-.0933.5-.14.78-.14h6zm18.885-18.06h5.68c.586 0 1.073.1333 1.46.4.4.2667.66.62.78 1.06l4 15.2c.133.4933.266 1.02.4 1.58.133.56.233 1.1467.3 1.76.133-.6267.28-1.2133.44-1.76.16-.56.313-1.0867.46-1.58l4.72-15.2c.12-.3733.373-.7067.76-1 .4-.3067.88-.46 1.44-.46h2c.586 0 1.066.1333 1.44.4.386.2533.653.6067.8 1.06l4.68 15.2c.146.4667.3.9667.46 1.5.16.52.3 1.08.42 1.68.106-.5867.213-1.1467.32-1.68.12-.5333.24-1.0333.36-1.5l4-15.2c.106-.3867.36-.7267.76-1.02s.88-.44 1.44-.44h5.32l-9 29.14h-6.12l-5.48-18.06c-.094-.28-.194-.5867-.3-.92-.094-.3333-.187-.6867-.28-1.06-.094.3733-.194.7267-.3 1.06-.094.3333-.187.64-.28.92l-5.56 18.06h-6.12zm74.211 14.56c0 2.1067-.366 4.0667-1.1 5.88-.72 1.8133-1.74 3.3933-3.06 4.74-1.32 1.3333-2.913 2.38-4.78 3.14-1.853.76-3.913 1.14-6.18 1.14-2.266 0-4.333-.38-6.2-1.14-1.866-.76-3.466-1.8067-4.8-3.14-1.32-1.3467-2.346-2.9267-3.08-4.74-.72-1.8133-1.08-3.7733-1.08-5.88s.36-4.0667 1.08-5.88c.734-1.8133 1.76-3.3867 3.08-4.72 1.334-1.3333 2.934-2.38 4.8-3.14 1.867-.76 3.934-1.14 6.2-1.14 2.267 0 4.327.3867 6.18 1.16 1.867.76 3.46 1.8067 4.78 3.14s2.34 2.9067 3.06 4.72c.734 1.8133 1.1 3.7667 1.1 5.86zm-6.92 0c0-1.44-.186-2.7333-.56-3.88-.373-1.16-.913-2.14-1.62-2.94-.693-.8-1.546-1.4133-2.56-1.84-1.013-.4267-2.166-.64-3.46-.64-1.306 0-2.473.2133-3.5.64-1.013.4267-1.873 1.04-2.58 1.84-.693.8-1.226 1.78-1.6 2.94-.373 1.1467-.56 2.44-.56 3.88 0 1.4533.187 2.76.56 3.92.374 1.1467.907 2.12 1.6 2.92.707.8 1.567 1.4133 2.58 1.84 1.027.4133 2.194.62 3.5.62 1.294 0 2.447-.2067 3.46-.62 1.014-.4267 1.867-1.04 2.56-1.84.707-.8 1.247-1.7733 1.62-2.92.374-1.16.56-2.4667.56-3.92zm17.313 3.8v10.78h-6.76v-29.14h9.48c2.106 0 3.9.22 5.38.66 1.493.4267 2.706 1.0267 3.64 1.8.946.7733 1.633 1.6867 2.06 2.74.426 1.0533.64 2.2.64 3.44 0 .9467-.127 1.84-.38 2.68-.254.84-.634 1.62-1.14 2.34-.494.7067-1.107 1.34-1.84 1.9-.72.56-1.554 1.02-2.5 1.38.453.2267.873.5067 1.26.84.4.3333.746.74 1.04 1.22l6.2 10.14h-6.12c-1.134 0-1.947-.4267-2.44-1.28l-4.84-8.46c-.214-.3733-.467-.64-.76-.8-.28-.16-.68-.24-1.2-.24zm0-4.66h2.72c.92 0 1.7-.1133 2.34-.34.653-.24 1.186-.5667 1.6-.98.413-.4133.713-.8933.9-1.44.186-.56.28-1.16.28-1.8 0-1.28-.42-2.28-1.26-3-.827-.72-2.114-1.08-3.86-1.08h-2.72zm27.001-1.9h1.08c1 0 1.72-.3133 2.16-.94l6.56-9.52c.36-.52.767-.8733 1.22-1.06.467-.1867 1.033-.28 1.7-.28h5.88l-8.64 11.78c-.307.4267-.627.78-.96 1.06s-.673.5133-1.02.7c.507.1867.967.4467 1.38.78.427.32.813.7533 1.16 1.3l8.8 13.52h-6.04c-.387 0-.72-.0267-1-.08-.267-.0533-.5-.1333-.7-.24s-.373-.2333-.52-.38c-.147-.16-.287-.34-.42-.54l-6.6-10.14c-.24-.3733-.547-.6333-.92-.78-.36-.16-.853-.24-1.48-.24h-1.64v12.4h-6.76v-29.14h6.76zm38.435-5.88c-.2.32-.414.56-.64.72-.214.16-.494.24-.84.24-.307 0-.64-.0933-1-.28-.347-.2-.747-.42-1.2-.66-.44-.24-.947-.4533-1.52-.64-.574-.2-1.227-.3-1.96-.3-1.267 0-2.214.2733-2.84.82-.614.5333-.92 1.26-.92 2.18 0 .5867.186 1.0733.56 1.46.373.3867.86.72 1.46 1 .613.28 1.306.54 2.08.78.786.2267 1.586.4867 2.4.78.813.28 1.606.6133 2.38 1 .786.3867 1.48.88 2.08 1.48.613.6 1.106 1.3333 1.48 2.2.373.8533.56 1.8867.56 3.1 0 1.3467-.234 2.6067-.7 3.78-.467 1.1733-1.147 2.2-2.04 3.08-.88.8667-1.974 1.5533-3.28 2.06-1.294.4933-2.767.74-4.42.74-.907 0-1.834-.0933-2.78-.28-.934-.1867-1.84-.4467-2.72-.78-.88-.3467-1.707-.7533-2.48-1.22-.774-.4667-1.447-.9867-2.02-1.56l2-3.16c.146-.24.353-.4333.62-.58.266-.1467.553-.22.86-.22.4 0 .8.1267 1.2.38.413.2533.873.5333 1.38.84.52.3067 1.113.5867 1.78.84.666.2533 1.453.38 2.36.38 1.226 0 2.18-.2667 2.86-.8.68-.5467 1.02-1.4067 1.02-2.58 0-.68-.187-1.2333-.56-1.66-.374-.4267-.867-.78-1.48-1.06-.6-.28-1.287-.5267-2.06-.74-.774-.2133-1.567-.4467-2.38-.7-.814-.2667-1.607-.5867-2.38-.96-.774-.3867-1.467-.8867-2.08-1.5-.6-.6267-1.087-1.4-1.46-2.32-.374-.9333-.56-2.08-.56-3.44 0-1.0933.22-2.16.66-3.2s1.086-1.9667 1.94-2.78c.853-.8133 1.9-1.46 3.14-1.94 1.24-.4933 2.66-.74 4.26-.74.893 0 1.76.0733 2.6.22.853.1333 1.66.34 2.42.62.76.2667 1.466.5933 2.12.98.666.3733 1.26.8 1.78 1.28z" fill="#47f6cb" fill-opacity=".9"/><path d="m27.84 39h-6.8v-12.32h-11.84v12.32h-6.8v-29.14h6.8v12.18h11.84v-12.18h6.8zm23.9544-29.14v5.2h-11.96v6.8h9.16v5h-9.16v6.94h11.96v5.2h-18.76v-29.14zm11.0172 18.36v10.78h-6.76v-29.14h9.48c2.1066 0 3.9.22 5.38.66 1.4933.4267 2.7066 1.0267 3.64 1.8.9466.7733 1.6333 1.6867 2.06 2.74.4266 1.0533.64 2.2.64 3.44 0 .9467-.1267 1.84-.38 2.68-.2534.84-.6334 1.62-1.14 2.34-.4934.7067-1.1067 1.34-1.84 1.9-.72.56-1.5534 1.02-2.5 1.38.4533.2267.8733.5067 1.26.84.4.3333.7466.74 1.04 1.22l6.2 10.14h-6.12c-1.1334 0-1.9467-.4267-2.44-1.28l-4.84-8.46c-.2134-.3733-.4667-.64-.76-.8-.28-.16-.68-.24-1.2-.24zm0-4.66h2.72c.92 0 1.7-.1133 2.34-.34.6533-.24 1.1866-.5667 1.6-.98.4133-.4133.7133-.8933.9-1.44.1866-.56.28-1.16.28-1.8 0-1.28-.42-2.28-1.26-3-.8267-.72-2.1134-1.08-3.86-1.08h-2.72zm39.0014-13.7v5.2h-11.9599v6.8h9.16v5h-9.16v6.94h11.9599v5.2h-18.7599v-29.14zm39.512 29.14h-5.24c-.587 0-1.074-.1333-1.46-.4-.374-.28-.634-.6333-.78-1.06l-1.72-5.08h-11.08l-1.72 5.08c-.134.3733-.394.7133-.78 1.02-.387.2933-.86.44-1.42.44h-5.28l11.28-29.14h6.92zm-18.72-11.14h7.96l-2.68-7.98c-.174-.5067-.38-1.1-.62-1.78-.227-.6933-.454-1.44-.68-2.24-.214.8133-.434 1.5667-.66 2.26-.227.6933-.44 1.2933-.64 1.8zm28.252.36v10.78h-6.76v-29.14h9.48c2.107 0 3.9.22 5.38.66 1.493.4267 2.707 1.0267 3.64 1.8.947.7733 1.633 1.6867 2.06 2.74s.64 2.2.64 3.44c0 .9467-.127 1.84-.38 2.68s-.633 1.62-1.14 2.34c-.493.7067-1.107 1.34-1.84 1.9-.72.56-1.553 1.02-2.5 1.38.453.2267.873.5067 1.26.84.4.3333.747.74 1.04 1.22l6.2 10.14h-6.12c-1.133 0-1.947-.4267-2.44-1.28l-4.84-8.46c-.213-.3733-.467-.64-.76-.8-.28-.16-.68-.24-1.2-.24zm0-4.66h2.72c.92 0 1.7-.1133 2.34-.34.653-.24 1.187-.5667 1.6-.98s.713-.8933.9-1.44c.187-.56.28-1.16.28-1.8 0-1.28-.42-2.28-1.26-3-.827-.72-2.113-1.08-3.86-1.08h-2.72zm39.001-13.7v5.2h-11.96v6.8h9.16v5h-9.16v6.94h11.96v5.2h-18.76v-29.14zm27.292 15.82c.267.5067.52 1.0333.76 1.58.253.5467.493 1.1067.72 1.68.227-.5867.467-1.1533.72-1.7.253-.56.513-1.1.78-1.62l7.48-14.72c.133-.2533.267-.4467.4-.58.147-.1467.307-.2533.48-.32.173-.06667.367-.10667.58-.12.227-.01333.487-.02.78-.02h5.16v29.14h-5.96v-16.76c0-.8133.04-1.6933.12-2.64l-7.72 14.98c-.24.4667-.567.82-.98 1.06-.4.24-.86.36-1.38.36h-.92c-.52 0-.987-.12-1.4-.36-.4-.24-.72-.5933-.96-1.06l-7.76-15c.053.4667.093.9333.12 1.4.027.4533.04.8733.04 1.26v16.76h-5.96v-29.14h5.16c.293 0 .547.00667.76.02.227.01333.427.05333.6.12.173.0667.327.1733.46.32.147.1333.287.3267.42.58zm37.598 2.24v11.08h-6.76v-11.08l-10.56-18.06h5.96c.587 0 1.053.14 1.4.42.347.2667.627.6133.84 1.04l4.12 8.48c.333.68.64 1.3067.92 1.88s.527 1.14.74 1.7c.2-.5733.44-1.1467.72-1.72s.58-1.1933.9-1.86l4.08-8.48c.08-.1733.187-.3467.32-.52.147-.1733.307-.3267.48-.46.187-.1467.393-.26.62-.34.24-.09333.5-.14.78-.14h6zm18.885-18.06h5.68c.586 0 1.073.13333 1.46.4.4.2667.66.62.78 1.06l4 15.2c.133.4933.266 1.02.4 1.58.133.56.233 1.1467.3 1.76.133-.6267.28-1.2133.44-1.76.16-.56.313-1.0867.46-1.58l4.72-15.2c.12-.3733.373-.7067.76-1 .4-.3067.88-.46 1.44-.46h2c.586 0 1.066.13333 1.44.4.386.2533.653.6067.8 1.06l4.68 15.2c.146.4667.3.9667.46 1.5.16.52.3 1.08.42 1.68.106-.5867.213-1.1467.32-1.68.12-.5333.24-1.0333.36-1.5l4-15.2c.106-.3867.36-.7267.76-1.02s.88-.44 1.44-.44h5.32l-9 29.14h-6.12l-5.48-18.06c-.094-.28-.194-.5867-.3-.92-.094-.3333-.187-.6867-.28-1.06-.094.3733-.194.7267-.3 1.06-.094.3333-.187.64-.28.92l-5.56 18.06h-6.12zm74.211 14.56c0 2.1067-.366 4.0667-1.1 5.88-.72 1.8133-1.74 3.3933-3.06 4.74-1.32 1.3333-2.913 2.38-4.78 3.14-1.853.76-3.913 1.14-6.18 1.14-2.266 0-4.333-.38-6.2-1.14-1.866-.76-3.466-1.8067-4.8-3.14-1.32-1.3467-2.346-2.9267-3.08-4.74-.72-1.8133-1.08-3.7733-1.08-5.88s.36-4.0667 1.08-5.88c.734-1.8133 1.76-3.3867 3.08-4.72 1.334-1.3333 2.934-2.38 4.8-3.14 1.867-.76 3.934-1.14 6.2-1.14 2.267 0 4.327.38667 6.18 1.16 1.867.76 3.46 1.8067 4.78 3.14s2.34 2.9067 3.06 4.72c.734 1.8133 1.1 3.7667 1.1 5.86zm-6.92 0c0-1.44-.186-2.7333-.56-3.88-.373-1.16-.913-2.14-1.62-2.94-.693-.8-1.546-1.4133-2.56-1.84-1.013-.4267-2.166-.64-3.46-.64-1.306 0-2.473.2133-3.5.64-1.013.4267-1.873 1.04-2.58 1.84-.693.8-1.226 1.78-1.6 2.94-.373 1.1467-.56 2.44-.56 3.88 0 1.4533.187 2.76.56 3.92.374 1.1467.907 2.12 1.6 2.92.707.8 1.567 1.4133 2.58 1.84 1.027.4133 2.194.62 3.5.62 1.294 0 2.447-.2067 3.46-.62 1.014-.4267 1.867-1.04 2.56-1.84.707-.8 1.247-1.7733 1.62-2.92.374-1.16.56-2.4667.56-3.92zm17.313 3.8v10.78h-6.76v-29.14h9.48c2.106 0 3.9.22 5.38.66 1.493.4267 2.706 1.0267 3.64 1.8.946.7733 1.633 1.6867 2.06 2.74.426 1.0533.64 2.2.64 3.44 0 .9467-.127 1.84-.38 2.68-.254.84-.634 1.62-1.14 2.34-.494.7067-1.107 1.34-1.84 1.9-.72.56-1.554 1.02-2.5 1.38.453.2267.873.5067 1.26.84.4.3333.746.74 1.04 1.22l6.2 10.14h-6.12c-1.134 0-1.947-.4267-2.44-1.28l-4.84-8.46c-.214-.3733-.467-.64-.76-.8-.28-.16-.68-.24-1.2-.24zm0-4.66h2.72c.92 0 1.7-.1133 2.34-.34.653-.24 1.186-.5667 1.6-.98.413-.4133.713-.8933.9-1.44.186-.56.28-1.16.28-1.8 0-1.28-.42-2.28-1.26-3-.827-.72-2.114-1.08-3.86-1.08h-2.72zm27.001-1.9h1.08c1 0 1.72-.3133 2.16-.94l6.56-9.52c.36-.52.767-.8733 1.22-1.06.467-.18667 1.033-.28 1.7-.28h5.88l-8.64 11.78c-.307.4267-.627.78-.96 1.06s-.673.5133-1.02.7c.507.1867.967.4467 1.38.78.427.32.813.7533 1.16 1.3l8.8 13.52h-6.04c-.387 0-.72-.0267-1-.08-.267-.0533-.5-.1333-.7-.24s-.373-.2333-.52-.38c-.147-.16-.287-.34-.42-.54l-6.6-10.14c-.24-.3733-.547-.6333-.92-.78-.36-.16-.853-.24-1.48-.24h-1.64v12.4h-6.76v-29.14h6.76zm38.435-5.88c-.2.32-.414.56-.64.72-.214.16-.494.24-.84.24-.307 0-.64-.0933-1-.28-.347-.2-.747-.42-1.2-.66-.44-.24-.947-.4533-1.52-.64-.574-.2-1.227-.3-1.96-.3-1.267 0-2.214.2733-2.84.82-.614.5333-.92 1.26-.92 2.18 0 .5867.186 1.0733.56 1.46.373.3867.86.72 1.46 1 .613.28 1.306.54 2.08.78.786.2267 1.586.4867 2.4.78.813.28 1.606.6133 2.38 1 .786.3867 1.48.88 2.08 1.48.613.6 1.106 1.3333 1.48 2.2.373.8533.56 1.8867.56 3.1 0 1.3467-.234 2.6067-.7 3.78-.467 1.1733-1.147 2.2-2.04 3.08-.88.8667-1.974 1.5533-3.28 2.06-1.294.4933-2.767.74-4.42.74-.907 0-1.834-.0933-2.78-.28-.934-.1867-1.84-.4467-2.72-.78-.88-.3467-1.707-.7533-2.48-1.22-.774-.4667-1.447-.9867-2.02-1.56l2-3.16c.146-.24.353-.4333.62-.58.266-.1467.553-.22.86-.22.4 0 .8.1267 1.2.38.413.2533.873.5333 1.38.84.52.3067 1.113.5867 1.78.84.666.2533 1.453.38 2.36.38 1.226 0 2.18-.2667 2.86-.8.68-.5467 1.02-1.4067 1.02-2.58 0-.68-.187-1.2333-.56-1.66-.374-.4267-.867-.78-1.48-1.06-.6-.28-1.287-.5267-2.06-.74-.774-.2133-1.567-.4467-2.38-.7-.814-.2667-1.607-.5867-2.38-.96-.774-.3867-1.467-.8867-2.08-1.5-.6-.6267-1.087-1.4-1.46-2.32-.374-.9333-.56-2.08-.56-3.44 0-1.0933.22-2.16.66-3.2s1.086-1.9667 1.94-2.78c.853-.8133 1.9-1.46 3.14-1.94 1.24-.49333 2.66-.74 4.26-.74.893 0 1.76.07333 2.6.22.853.13333 1.66.34 2.42.62.76.2667 1.466.5933 2.12.98.666.3733 1.26.8 1.78 1.28z" fill="#121111"/></svg>