<svg width="483" height="81" viewBox="0 0 483 81" fill="none" xmlns="http://www.w3.org/2000/svg">
<path d="M83.84 72H77.04V59.68H65.2V72H58.4V42.86H65.2V55.04H77.04V42.86H83.84V72ZM107.794 42.86V48.06H95.8344V54.86H104.994V59.86H95.8344V66.8H107.794V72H89.0344V42.86H107.794ZM118.812 61.22V72H112.052V42.86H121.532C123.638 42.86 125.432 43.08 126.912 43.52C128.405 43.9467 129.618 44.5467 130.552 45.32C131.498 46.0933 132.185 47.0067 132.612 48.06C133.038 49.1133 133.252 50.26 133.252 51.5C133.252 52.4467 133.125 53.34 132.872 54.18C132.618 55.02 132.238 55.8 131.732 56.52C131.238 57.2267 130.625 57.86 129.892 58.42C129.172 58.98 128.338 59.44 127.392 59.8C127.845 60.0267 128.265 60.3067 128.652 60.64C129.052 60.9733 129.398 61.38 129.692 61.86L135.892 72H129.772C128.638 72 127.825 71.5733 127.332 70.72L122.492 62.26C122.278 61.8867 122.025 61.62 121.732 61.46C121.452 61.3 121.052 61.22 120.532 61.22H118.812ZM118.812 56.56H121.532C122.452 56.56 123.232 56.4467 123.872 56.22C124.525 55.98 125.058 55.6533 125.472 55.24C125.885 54.8267 126.185 54.3467 126.372 53.8C126.558 53.24 126.652 52.64 126.652 52C126.652 50.72 126.232 49.72 125.392 49C124.565 48.28 123.278 47.92 121.532 47.92H118.812V56.56ZM157.813 42.86V48.06H145.853V54.86H155.013V59.86H145.853V66.8H157.813V72H139.053V42.86H157.813ZM197.325 72H192.085C191.498 72 191.011 71.8667 190.625 71.6C190.251 71.32 189.991 70.9667 189.845 70.54L188.125 65.46H177.045L175.325 70.54C175.191 70.9133 174.931 71.2533 174.545 71.56C174.158 71.8533 173.685 72 173.125 72H167.845L179.125 42.86H186.045L197.325 72ZM178.605 60.86H186.565L183.885 52.88C183.711 52.3733 183.505 51.78 183.265 51.1C183.038 50.4067 182.811 49.66 182.585 48.86C182.371 49.6733 182.151 50.4267 181.925 51.12C181.698 51.8133 181.485 52.4133 181.285 52.92L178.605 60.86ZM206.857 61.22V72H200.097V42.86H209.577C211.684 42.86 213.477 43.08 214.957 43.52C216.45 43.9467 217.664 44.5467 218.597 45.32C219.544 46.0933 220.23 47.0067 220.657 48.06C221.084 49.1133 221.297 50.26 221.297 51.5C221.297 52.4467 221.17 53.34 220.917 54.18C220.664 55.02 220.284 55.8 219.777 56.52C219.284 57.2267 218.67 57.86 217.937 58.42C217.217 58.98 216.384 59.44 215.437 59.8C215.89 60.0267 216.31 60.3067 216.697 60.64C217.097 60.9733 217.444 61.38 217.737 61.86L223.937 72H217.817C216.684 72 215.87 71.5733 215.377 70.72L210.537 62.26C210.324 61.8867 210.07 61.62 209.777 61.46C209.497 61.3 209.097 61.22 208.577 61.22H206.857ZM206.857 56.56H209.577C210.497 56.56 211.277 56.4467 211.917 56.22C212.57 55.98 213.104 55.6533 213.517 55.24C213.93 54.8267 214.23 54.3467 214.417 53.8C214.604 53.24 214.697 52.64 214.697 52C214.697 50.72 214.277 49.72 213.437 49C212.61 48.28 211.324 47.92 209.577 47.92H206.857V56.56ZM245.858 42.86V48.06H233.898V54.86H243.058V59.86H233.898V66.8H245.858V72H227.098V42.86H245.858ZM273.15 58.68C273.417 59.1867 273.67 59.7133 273.91 60.26C274.163 60.8067 274.403 61.3667 274.63 61.94C274.857 61.3533 275.097 60.7867 275.35 60.24C275.603 59.68 275.863 59.14 276.13 58.62L283.61 43.9C283.743 43.6467 283.877 43.4533 284.01 43.32C284.157 43.1733 284.317 43.0667 284.49 43C284.663 42.9333 284.857 42.8933 285.07 42.88C285.297 42.8667 285.557 42.86 285.85 42.86H291.01V72H285.05V55.24C285.05 54.4267 285.09 53.5467 285.17 52.6L277.45 67.58C277.21 68.0467 276.883 68.4 276.47 68.64C276.07 68.88 275.61 69 275.09 69H274.17C273.65 69 273.183 68.88 272.77 68.64C272.37 68.4 272.05 68.0467 271.81 67.58L264.05 52.58C264.103 53.0467 264.143 53.5133 264.17 53.98C264.197 54.4333 264.21 54.8533 264.21 55.24V72H258.25V42.86H263.41C263.703 42.86 263.957 42.8667 264.17 42.88C264.397 42.8933 264.597 42.9333 264.77 43C264.943 43.0667 265.097 43.1733 265.23 43.32C265.377 43.4533 265.517 43.6467 265.65 43.9L273.15 58.68ZM310.748 60.92V72H303.988V60.92L293.428 42.86H299.388C299.975 42.86 300.441 43 300.788 43.28C301.135 43.5467 301.415 43.8933 301.628 44.32L305.748 52.8C306.081 53.48 306.388 54.1067 306.668 54.68C306.948 55.2533 307.195 55.82 307.408 56.38C307.608 55.8067 307.848 55.2333 308.128 54.66C308.408 54.0867 308.708 53.4667 309.028 52.8L313.108 44.32C313.188 44.1467 313.295 43.9733 313.428 43.8C313.575 43.6267 313.735 43.4733 313.908 43.34C314.095 43.1933 314.301 43.08 314.528 43C314.768 42.9067 315.028 42.86 315.308 42.86H321.308L310.748 60.92ZM329.633 42.86H335.313C335.899 42.86 336.386 42.9933 336.773 43.26C337.173 43.5267 337.433 43.88 337.553 44.32L341.553 59.52C341.686 60.0133 341.819 60.54 341.953 61.1C342.086 61.66 342.186 62.2467 342.253 62.86C342.386 62.2333 342.533 61.6467 342.693 61.1C342.853 60.54 343.006 60.0133 343.153 59.52L347.873 44.32C347.993 43.9467 348.246 43.6133 348.633 43.32C349.033 43.0133 349.513 42.86 350.073 42.86H352.073C352.659 42.86 353.139 42.9933 353.513 43.26C353.899 43.5133 354.166 43.8667 354.313 44.32L358.993 59.52C359.139 59.9867 359.293 60.4867 359.453 61.02C359.613 61.54 359.753 62.1 359.873 62.7C359.979 62.1133 360.086 61.5533 360.193 61.02C360.313 60.4867 360.433 59.9867 360.553 59.52L364.553 44.32C364.659 43.9333 364.913 43.5933 365.313 43.3C365.713 43.0067 366.193 42.86 366.753 42.86H372.073L363.073 72H356.953L351.473 53.94C351.379 53.66 351.279 53.3533 351.173 53.02C351.079 52.6867 350.986 52.3333 350.893 51.96C350.799 52.3333 350.699 52.6867 350.593 53.02C350.499 53.3533 350.406 53.66 350.313 53.94L344.753 72H338.633L329.633 42.86ZM403.844 57.42C403.844 59.5267 403.478 61.4867 402.744 63.3C402.024 65.1133 401.004 66.6933 399.684 68.04C398.364 69.3733 396.771 70.42 394.904 71.18C393.051 71.94 390.991 72.32 388.724 72.32C386.458 72.32 384.391 71.94 382.524 71.18C380.658 70.42 379.058 69.3733 377.724 68.04C376.404 66.6933 375.378 65.1133 374.644 63.3C373.924 61.4867 373.564 59.5267 373.564 57.42C373.564 55.3133 373.924 53.3533 374.644 51.54C375.378 49.7267 376.404 48.1533 377.724 46.82C379.058 45.4867 380.658 44.44 382.524 43.68C384.391 42.92 386.458 42.54 388.724 42.54C390.991 42.54 393.051 42.9267 394.904 43.7C396.771 44.46 398.364 45.5067 399.684 46.84C401.004 48.1733 402.024 49.7467 402.744 51.56C403.478 53.3733 403.844 55.3267 403.844 57.42ZM396.924 57.42C396.924 55.98 396.738 54.6867 396.364 53.54C395.991 52.38 395.451 51.4 394.744 50.6C394.051 49.8 393.198 49.1867 392.184 48.76C391.171 48.3333 390.018 48.12 388.724 48.12C387.418 48.12 386.251 48.3333 385.224 48.76C384.211 49.1867 383.351 49.8 382.644 50.6C381.951 51.4 381.418 52.38 381.044 53.54C380.671 54.6867 380.484 55.98 380.484 57.42C380.484 58.8733 380.671 60.18 381.044 61.34C381.418 62.4867 381.951 63.46 382.644 64.26C383.351 65.06 384.211 65.6733 385.224 66.1C386.251 66.5133 387.418 66.72 388.724 66.72C390.018 66.72 391.171 66.5133 392.184 66.1C393.198 65.6733 394.051 65.06 394.744 64.26C395.451 63.46 395.991 62.4867 396.364 61.34C396.738 60.18 396.924 58.8733 396.924 57.42ZM414.237 61.22V72H407.477V42.86H416.957C419.063 42.86 420.857 43.08 422.337 43.52C423.83 43.9467 425.043 44.5467 425.977 45.32C426.923 46.0933 427.61 47.0067 428.037 48.06C428.463 49.1133 428.677 50.26 428.677 51.5C428.677 52.4467 428.55 53.34 428.297 54.18C428.043 55.02 427.663 55.8 427.157 56.52C426.663 57.2267 426.05 57.86 425.317 58.42C424.597 58.98 423.763 59.44 422.817 59.8C423.27 60.0267 423.69 60.3067 424.077 60.64C424.477 60.9733 424.823 61.38 425.117 61.86L431.317 72H425.197C424.063 72 423.25 71.5733 422.757 70.72L417.917 62.26C417.703 61.8867 417.45 61.62 417.157 61.46C416.877 61.3 416.477 61.22 415.957 61.22H414.237ZM414.237 56.56H416.957C417.877 56.56 418.657 56.4467 419.297 56.22C419.95 55.98 420.483 55.6533 420.897 55.24C421.31 54.8267 421.61 54.3467 421.797 53.8C421.983 53.24 422.077 52.64 422.077 52C422.077 50.72 421.657 49.72 420.817 49C419.99 48.28 418.703 47.92 416.957 47.92H414.237V56.56ZM441.238 54.66H442.318C443.318 54.66 444.038 54.3467 444.478 53.72L451.038 44.2C451.398 43.68 451.805 43.3267 452.258 43.14C452.725 42.9533 453.291 42.86 453.958 42.86H459.838L451.198 54.64C450.891 55.0667 450.571 55.42 450.238 55.7C449.905 55.98 449.565 56.2133 449.218 56.4C449.725 56.5867 450.185 56.8467 450.598 57.18C451.025 57.5 451.411 57.9333 451.758 58.48L460.558 72H454.518C454.131 72 453.798 71.9733 453.518 71.92C453.251 71.8667 453.018 71.7867 452.818 71.68C452.618 71.5733 452.445 71.4467 452.298 71.3C452.151 71.14 452.011 70.96 451.878 70.76L445.278 60.62C445.038 60.2467 444.731 59.9867 444.358 59.84C443.998 59.68 443.505 59.6 442.878 59.6H441.238V72H434.478V42.86H441.238V54.66ZM479.673 48.78C479.473 49.1 479.259 49.34 479.033 49.5C478.819 49.66 478.539 49.74 478.193 49.74C477.886 49.74 477.553 49.6467 477.193 49.46C476.846 49.26 476.446 49.04 475.993 48.8C475.553 48.56 475.046 48.3467 474.473 48.16C473.899 47.96 473.246 47.86 472.513 47.86C471.246 47.86 470.299 48.1333 469.673 48.68C469.059 49.2133 468.753 49.94 468.753 50.86C468.753 51.4467 468.939 51.9333 469.313 52.32C469.686 52.7067 470.173 53.04 470.773 53.32C471.386 53.6 472.079 53.86 472.853 54.1C473.639 54.3267 474.439 54.5867 475.253 54.88C476.066 55.16 476.859 55.4933 477.633 55.88C478.419 56.2667 479.113 56.76 479.713 57.36C480.326 57.96 480.819 58.6933 481.193 59.56C481.566 60.4133 481.753 61.4467 481.753 62.66C481.753 64.0067 481.519 65.2667 481.053 66.44C480.586 67.6133 479.906 68.64 479.013 69.52C478.133 70.3867 477.039 71.0733 475.733 71.58C474.439 72.0733 472.966 72.32 471.313 72.32C470.406 72.32 469.479 72.2267 468.533 72.04C467.599 71.8533 466.693 71.5933 465.813 71.26C464.933 70.9133 464.106 70.5067 463.333 70.04C462.559 69.5733 461.886 69.0533 461.313 68.48L463.313 65.32C463.459 65.08 463.666 64.8867 463.933 64.74C464.199 64.5933 464.486 64.52 464.793 64.52C465.193 64.52 465.593 64.6467 465.993 64.9C466.406 65.1533 466.866 65.4333 467.373 65.74C467.893 66.0467 468.486 66.3267 469.153 66.58C469.819 66.8333 470.606 66.96 471.513 66.96C472.739 66.96 473.693 66.6933 474.373 66.16C475.053 65.6133 475.393 64.7533 475.393 63.58C475.393 62.9 475.206 62.3467 474.833 61.92C474.459 61.4933 473.966 61.14 473.353 60.86C472.753 60.58 472.066 60.3333 471.293 60.12C470.519 59.9067 469.726 59.6733 468.913 59.42C468.099 59.1533 467.306 58.8333 466.533 58.46C465.759 58.0733 465.066 57.5733 464.453 56.96C463.853 56.3333 463.366 55.56 462.993 54.64C462.619 53.7067 462.433 52.56 462.433 51.2C462.433 50.1067 462.653 49.04 463.093 48C463.533 46.96 464.179 46.0333 465.033 45.22C465.886 44.4067 466.933 43.76 468.173 43.28C469.413 42.7867 470.833 42.54 472.433 42.54C473.326 42.54 474.193 42.6133 475.033 42.76C475.886 42.8933 476.693 43.1 477.453 43.38C478.213 43.6467 478.919 43.9733 479.573 44.36C480.239 44.7333 480.833 45.16 481.353 45.64L479.673 48.78Z" fill="#4263EB" fill-opacity="0.35"/>
<path d="M55.84 56H49.04V43.68H37.2V56H30.4V26.86H37.2V39.04H49.04V26.86H55.84V56ZM79.7944 26.86V32.06H67.8344V38.86H76.9944V43.86H67.8344V50.8H79.7944V56H61.0344V26.86H79.7944ZM90.8116 45.22V56H84.0516V26.86H93.5316C95.6382 26.86 97.4316 27.08 98.9116 27.52C100.405 27.9467 101.618 28.5467 102.552 29.32C103.498 30.0933 104.185 31.0067 104.612 32.06C105.038 33.1133 105.252 34.26 105.252 35.5C105.252 36.4467 105.125 37.34 104.872 38.18C104.618 39.02 104.238 39.8 103.732 40.52C103.238 41.2267 102.625 41.86 101.892 42.42C101.172 42.98 100.338 43.44 99.3916 43.8C99.8449 44.0267 100.265 44.3067 100.652 44.64C101.052 44.9733 101.398 45.38 101.692 45.86L107.892 56H101.772C100.638 56 99.8249 55.5733 99.3316 54.72L94.4916 46.26C94.2782 45.8867 94.0249 45.62 93.7316 45.46C93.4516 45.3 93.0516 45.22 92.5316 45.22H90.8116ZM90.8116 40.56H93.5316C94.4516 40.56 95.2316 40.4467 95.8716 40.22C96.5249 39.98 97.0582 39.6533 97.4716 39.24C97.8849 38.8267 98.1849 38.3467 98.3716 37.8C98.5582 37.24 98.6516 36.64 98.6516 36C98.6516 34.72 98.2316 33.72 97.3916 33C96.5649 32.28 95.2782 31.92 93.5316 31.92H90.8116V40.56ZM129.813 26.86V32.06H117.853V38.86H127.013V43.86H117.853V50.8H129.813V56H111.053V26.86H129.813ZM169.325 56H164.085C163.498 56 163.011 55.8667 162.625 55.6C162.251 55.32 161.991 54.9667 161.845 54.54L160.125 49.46H149.045L147.325 54.54C147.191 54.9133 146.931 55.2533 146.545 55.56C146.158 55.8533 145.685 56 145.125 56H139.845L151.125 26.86H158.045L169.325 56ZM150.605 44.86H158.565L155.885 36.88C155.711 36.3733 155.505 35.78 155.265 35.1C155.038 34.4067 154.811 33.66 154.585 32.86C154.371 33.6733 154.151 34.4267 153.925 35.12C153.698 35.8133 153.485 36.4133 153.285 36.92L150.605 44.86ZM178.857 45.22V56H172.097V26.86H181.577C183.684 26.86 185.477 27.08 186.957 27.52C188.45 27.9467 189.664 28.5467 190.597 29.32C191.544 30.0933 192.23 31.0067 192.657 32.06C193.084 33.1133 193.297 34.26 193.297 35.5C193.297 36.4467 193.17 37.34 192.917 38.18C192.664 39.02 192.284 39.8 191.777 40.52C191.284 41.2267 190.67 41.86 189.937 42.42C189.217 42.98 188.384 43.44 187.437 43.8C187.89 44.0267 188.31 44.3067 188.697 44.64C189.097 44.9733 189.444 45.38 189.737 45.86L195.937 56H189.817C188.684 56 187.87 55.5733 187.377 54.72L182.537 46.26C182.324 45.8867 182.07 45.62 181.777 45.46C181.497 45.3 181.097 45.22 180.577 45.22H178.857ZM178.857 40.56H181.577C182.497 40.56 183.277 40.4467 183.917 40.22C184.57 39.98 185.104 39.6533 185.517 39.24C185.93 38.8267 186.23 38.3467 186.417 37.8C186.604 37.24 186.697 36.64 186.697 36C186.697 34.72 186.277 33.72 185.437 33C184.61 32.28 183.324 31.92 181.577 31.92H178.857V40.56ZM217.858 26.86V32.06H205.898V38.86H215.058V43.86H205.898V50.8H217.858V56H199.098V26.86H217.858ZM245.15 42.68C245.417 43.1867 245.67 43.7133 245.91 44.26C246.163 44.8067 246.403 45.3667 246.63 45.94C246.857 45.3533 247.097 44.7867 247.35 44.24C247.603 43.68 247.863 43.14 248.13 42.62L255.61 27.9C255.743 27.6467 255.877 27.4533 256.01 27.32C256.157 27.1733 256.317 27.0667 256.49 27C256.663 26.9333 256.857 26.8933 257.07 26.88C257.297 26.8667 257.557 26.86 257.85 26.86H263.01V56H257.05V39.24C257.05 38.4267 257.09 37.5467 257.17 36.6L249.45 51.58C249.21 52.0467 248.883 52.4 248.47 52.64C248.07 52.88 247.61 53 247.09 53H246.17C245.65 53 245.183 52.88 244.77 52.64C244.37 52.4 244.05 52.0467 243.81 51.58L236.05 36.58C236.103 37.0467 236.143 37.5133 236.17 37.98C236.197 38.4333 236.21 38.8533 236.21 39.24V56H230.25V26.86H235.41C235.703 26.86 235.957 26.8667 236.17 26.88C236.397 26.8933 236.597 26.9333 236.77 27C236.943 27.0667 237.097 27.1733 237.23 27.32C237.377 27.4533 237.517 27.6467 237.65 27.9L245.15 42.68ZM282.748 44.92V56H275.988V44.92L265.428 26.86H271.388C271.975 26.86 272.441 27 272.788 27.28C273.135 27.5467 273.415 27.8933 273.628 28.32L277.748 36.8C278.081 37.48 278.388 38.1067 278.668 38.68C278.948 39.2533 279.195 39.82 279.408 40.38C279.608 39.8067 279.848 39.2333 280.128 38.66C280.408 38.0867 280.708 37.4667 281.028 36.8L285.108 28.32C285.188 28.1467 285.295 27.9733 285.428 27.8C285.575 27.6267 285.735 27.4733 285.908 27.34C286.095 27.1933 286.301 27.08 286.528 27C286.768 26.9067 287.028 26.86 287.308 26.86H293.308L282.748 44.92ZM301.633 26.86H307.313C307.899 26.86 308.386 26.9933 308.773 27.26C309.173 27.5267 309.433 27.88 309.553 28.32L313.553 43.52C313.686 44.0133 313.819 44.54 313.953 45.1C314.086 45.66 314.186 46.2467 314.253 46.86C314.386 46.2333 314.533 45.6467 314.693 45.1C314.853 44.54 315.006 44.0133 315.153 43.52L319.873 28.32C319.993 27.9467 320.246 27.6133 320.633 27.32C321.033 27.0133 321.513 26.86 322.073 26.86H324.073C324.659 26.86 325.139 26.9933 325.513 27.26C325.899 27.5133 326.166 27.8667 326.313 28.32L330.993 43.52C331.139 43.9867 331.293 44.4867 331.453 45.02C331.613 45.54 331.753 46.1 331.873 46.7C331.979 46.1133 332.086 45.5533 332.193 45.02C332.313 44.4867 332.433 43.9867 332.553 43.52L336.553 28.32C336.659 27.9333 336.913 27.5933 337.313 27.3C337.713 27.0067 338.193 26.86 338.753 26.86H344.073L335.073 56H328.953L323.473 37.94C323.379 37.66 323.279 37.3533 323.173 37.02C323.079 36.6867 322.986 36.3333 322.893 35.96C322.799 36.3333 322.699 36.6867 322.593 37.02C322.499 37.3533 322.406 37.66 322.313 37.94L316.753 56H310.633L301.633 26.86ZM375.844 41.42C375.844 43.5267 375.478 45.4867 374.744 47.3C374.024 49.1133 373.004 50.6933 371.684 52.04C370.364 53.3733 368.771 54.42 366.904 55.18C365.051 55.94 362.991 56.32 360.724 56.32C358.458 56.32 356.391 55.94 354.524 55.18C352.658 54.42 351.058 53.3733 349.724 52.04C348.404 50.6933 347.378 49.1133 346.644 47.3C345.924 45.4867 345.564 43.5267 345.564 41.42C345.564 39.3133 345.924 37.3533 346.644 35.54C347.378 33.7267 348.404 32.1533 349.724 30.82C351.058 29.4867 352.658 28.44 354.524 27.68C356.391 26.92 358.458 26.54 360.724 26.54C362.991 26.54 365.051 26.9267 366.904 27.7C368.771 28.46 370.364 29.5067 371.684 30.84C373.004 32.1733 374.024 33.7467 374.744 35.56C375.478 37.3733 375.844 39.3267 375.844 41.42ZM368.924 41.42C368.924 39.98 368.738 38.6867 368.364 37.54C367.991 36.38 367.451 35.4 366.744 34.6C366.051 33.8 365.198 33.1867 364.184 32.76C363.171 32.3333 362.018 32.12 360.724 32.12C359.418 32.12 358.251 32.3333 357.224 32.76C356.211 33.1867 355.351 33.8 354.644 34.6C353.951 35.4 353.418 36.38 353.044 37.54C352.671 38.6867 352.484 39.98 352.484 41.42C352.484 42.8733 352.671 44.18 353.044 45.34C353.418 46.4867 353.951 47.46 354.644 48.26C355.351 49.06 356.211 49.6733 357.224 50.1C358.251 50.5133 359.418 50.72 360.724 50.72C362.018 50.72 363.171 50.5133 364.184 50.1C365.198 49.6733 366.051 49.06 366.744 48.26C367.451 47.46 367.991 46.4867 368.364 45.34C368.738 44.18 368.924 42.8733 368.924 41.42ZM386.237 45.22V56H379.477V26.86H388.957C391.063 26.86 392.857 27.08 394.337 27.52C395.83 27.9467 397.043 28.5467 397.977 29.32C398.923 30.0933 399.61 31.0067 400.037 32.06C400.463 33.1133 400.677 34.26 400.677 35.5C400.677 36.4467 400.55 37.34 400.297 38.18C400.043 39.02 399.663 39.8 399.157 40.52C398.663 41.2267 398.05 41.86 397.317 42.42C396.597 42.98 395.763 43.44 394.817 43.8C395.27 44.0267 395.69 44.3067 396.077 44.64C396.477 44.9733 396.823 45.38 397.117 45.86L403.317 56H397.197C396.063 56 395.25 55.5733 394.757 54.72L389.917 46.26C389.703 45.8867 389.45 45.62 389.157 45.46C388.877 45.3 388.477 45.22 387.957 45.22H386.237ZM386.237 40.56H388.957C389.877 40.56 390.657 40.4467 391.297 40.22C391.95 39.98 392.483 39.6533 392.897 39.24C393.31 38.8267 393.61 38.3467 393.797 37.8C393.983 37.24 394.077 36.64 394.077 36C394.077 34.72 393.657 33.72 392.817 33C391.99 32.28 390.703 31.92 388.957 31.92H386.237V40.56ZM413.238 38.66H414.318C415.318 38.66 416.038 38.3467 416.478 37.72L423.038 28.2C423.398 27.68 423.805 27.3267 424.258 27.14C424.725 26.9533 425.291 26.86 425.958 26.86H431.838L423.198 38.64C422.891 39.0667 422.571 39.42 422.238 39.7C421.905 39.98 421.565 40.2133 421.218 40.4C421.725 40.5867 422.185 40.8467 422.598 41.18C423.025 41.5 423.411 41.9333 423.758 42.48L432.558 56H426.518C426.131 56 425.798 55.9733 425.518 55.92C425.251 55.8667 425.018 55.7867 424.818 55.68C424.618 55.5733 424.445 55.4467 424.298 55.3C424.151 55.14 424.011 54.96 423.878 54.76L417.278 44.62C417.038 44.2467 416.731 43.9867 416.358 43.84C415.998 43.68 415.505 43.6 414.878 43.6H413.238V56H406.478V26.86H413.238V38.66ZM451.673 32.78C451.473 33.1 451.259 33.34 451.033 33.5C450.819 33.66 450.539 33.74 450.193 33.74C449.886 33.74 449.553 33.6467 449.193 33.46C448.846 33.26 448.446 33.04 447.993 32.8C447.553 32.56 447.046 32.3467 446.473 32.16C445.899 31.96 445.246 31.86 444.513 31.86C443.246 31.86 442.299 32.1333 441.673 32.68C441.059 33.2133 440.753 33.94 440.753 34.86C440.753 35.4467 440.939 35.9333 441.313 36.32C441.686 36.7067 442.173 37.04 442.773 37.32C443.386 37.6 444.079 37.86 444.853 38.1C445.639 38.3267 446.439 38.5867 447.253 38.88C448.066 39.16 448.859 39.4933 449.633 39.88C450.419 40.2667 451.113 40.76 451.713 41.36C452.326 41.96 452.819 42.6933 453.193 43.56C453.566 44.4133 453.753 45.4467 453.753 46.66C453.753 48.0067 453.519 49.2667 453.053 50.44C452.586 51.6133 451.906 52.64 451.013 53.52C450.133 54.3867 449.039 55.0733 447.733 55.58C446.439 56.0733 444.966 56.32 443.313 56.32C442.406 56.32 441.479 56.2267 440.533 56.04C439.599 55.8533 438.693 55.5933 437.813 55.26C436.933 54.9133 436.106 54.5067 435.333 54.04C434.559 53.5733 433.886 53.0533 433.313 52.48L435.313 49.32C435.459 49.08 435.666 48.8867 435.933 48.74C436.199 48.5933 436.486 48.52 436.793 48.52C437.193 48.52 437.593 48.6467 437.993 48.9C438.406 49.1533 438.866 49.4333 439.373 49.74C439.893 50.0467 440.486 50.3267 441.153 50.58C441.819 50.8333 442.606 50.96 443.513 50.96C444.739 50.96 445.693 50.6933 446.373 50.16C447.053 49.6133 447.393 48.7533 447.393 47.58C447.393 46.9 447.206 46.3467 446.833 45.92C446.459 45.4933 445.966 45.14 445.353 44.86C444.753 44.58 444.066 44.3333 443.293 44.12C442.519 43.9067 441.726 43.6733 440.913 43.42C440.099 43.1533 439.306 42.8333 438.533 42.46C437.759 42.0733 437.066 41.5733 436.453 40.96C435.853 40.3333 435.366 39.56 434.993 38.64C434.619 37.7067 434.433 36.56 434.433 35.2C434.433 34.1067 434.653 33.04 435.093 32C435.533 30.96 436.179 30.0333 437.033 29.22C437.886 28.4067 438.933 27.76 440.173 27.28C441.413 26.7867 442.833 26.54 444.433 26.54C445.326 26.54 446.193 26.6133 447.033 26.76C447.886 26.8933 448.693 27.1 449.453 27.38C450.213 27.6467 450.919 27.9733 451.573 28.36C452.239 28.7333 452.833 29.16 453.353 29.64L451.673 32.78Z" fill="#47F6CB" fill-opacity="0.9"/>
<path d="M27.84 39H21.04V26.68H9.2V39H2.4V9.86H9.2V22.04H21.04V9.86H27.84V39ZM51.7944 9.86V15.06H39.8344V21.86H48.9944V26.86H39.8344V33.8H51.7944V39H33.0344V9.86H51.7944ZM62.8116 28.22V39H56.0516V9.86H65.5316C67.6382 9.86 69.4316 10.08 70.9116 10.52C72.4049 10.9467 73.6182 11.5467 74.5516 12.32C75.4982 13.0933 76.1849 14.0067 76.6116 15.06C77.0382 16.1133 77.2516 17.26 77.2516 18.5C77.2516 19.4467 77.1249 20.34 76.8716 21.18C76.6182 22.02 76.2382 22.8 75.7316 23.52C75.2382 24.2267 74.6249 24.86 73.8916 25.42C73.1716 25.98 72.3382 26.44 71.3916 26.8C71.8449 27.0267 72.2649 27.3067 72.6516 27.64C73.0516 27.9733 73.3982 28.38 73.6916 28.86L79.8916 39H73.7716C72.6382 39 71.8249 38.5733 71.3316 37.72L66.4916 29.26C66.2782 28.8867 66.0249 28.62 65.7316 28.46C65.4516 28.3 65.0516 28.22 64.5316 28.22H62.8116ZM62.8116 23.56H65.5316C66.4516 23.56 67.2316 23.4467 67.8716 23.22C68.5249 22.98 69.0582 22.6533 69.4716 22.24C69.8849 21.8267 70.1849 21.3467 70.3716 20.8C70.5582 20.24 70.6516 19.64 70.6516 19C70.6516 17.72 70.2316 16.72 69.3916 16C68.5649 15.28 67.2782 14.92 65.5316 14.92H62.8116V23.56ZM101.813 9.86V15.06H89.8531V21.86H99.0131V26.86H89.8531V33.8H101.813V39H83.0531V9.86H101.813ZM141.325 39H136.085C135.498 39 135.011 38.8667 134.625 38.6C134.251 38.32 133.991 37.9667 133.845 37.54L132.125 32.46H121.045L119.325 37.54C119.191 37.9133 118.931 38.2533 118.545 38.56C118.158 38.8533 117.685 39 117.125 39H111.845L123.125 9.86H130.045L141.325 39ZM122.605 27.86H130.565L127.885 19.88C127.711 19.3733 127.505 18.78 127.265 18.1C127.038 17.4067 126.811 16.66 126.585 15.86C126.371 16.6733 126.151 17.4267 125.925 18.12C125.698 18.8133 125.485 19.4133 125.285 19.92L122.605 27.86ZM150.857 28.22V39H144.097V9.86H153.577C155.684 9.86 157.477 10.08 158.957 10.52C160.45 10.9467 161.664 11.5467 162.597 12.32C163.544 13.0933 164.23 14.0067 164.657 15.06C165.084 16.1133 165.297 17.26 165.297 18.5C165.297 19.4467 165.17 20.34 164.917 21.18C164.664 22.02 164.284 22.8 163.777 23.52C163.284 24.2267 162.67 24.86 161.937 25.42C161.217 25.98 160.384 26.44 159.437 26.8C159.89 27.0267 160.31 27.3067 160.697 27.64C161.097 27.9733 161.444 28.38 161.737 28.86L167.937 39H161.817C160.684 39 159.87 38.5733 159.377 37.72L154.537 29.26C154.324 28.8867 154.07 28.62 153.777 28.46C153.497 28.3 153.097 28.22 152.577 28.22H150.857ZM150.857 23.56H153.577C154.497 23.56 155.277 23.4467 155.917 23.22C156.57 22.98 157.104 22.6533 157.517 22.24C157.93 21.8267 158.23 21.3467 158.417 20.8C158.604 20.24 158.697 19.64 158.697 19C158.697 17.72 158.277 16.72 157.437 16C156.61 15.28 155.324 14.92 153.577 14.92H150.857V23.56ZM189.858 9.86V15.06H177.898V21.86H187.058V26.86H177.898V33.8H189.858V39H171.098V9.86H189.858ZM217.15 25.68C217.417 26.1867 217.67 26.7133 217.91 27.26C218.163 27.8067 218.403 28.3667 218.63 28.94C218.857 28.3533 219.097 27.7867 219.35 27.24C219.603 26.68 219.863 26.14 220.13 25.62L227.61 10.9C227.743 10.6467 227.877 10.4533 228.01 10.32C228.157 10.1733 228.317 10.0667 228.49 10C228.663 9.93333 228.857 9.89333 229.07 9.88C229.297 9.86667 229.557 9.86 229.85 9.86H235.01V39H229.05V22.24C229.05 21.4267 229.09 20.5467 229.17 19.6L221.45 34.58C221.21 35.0467 220.883 35.4 220.47 35.64C220.07 35.88 219.61 36 219.09 36H218.17C217.65 36 217.183 35.88 216.77 35.64C216.37 35.4 216.05 35.0467 215.81 34.58L208.05 19.58C208.103 20.0467 208.143 20.5133 208.17 20.98C208.197 21.4333 208.21 21.8533 208.21 22.24V39H202.25V9.86H207.41C207.703 9.86 207.957 9.86667 208.17 9.88C208.397 9.89333 208.597 9.93333 208.77 10C208.943 10.0667 209.097 10.1733 209.23 10.32C209.377 10.4533 209.517 10.6467 209.65 10.9L217.15 25.68ZM254.748 27.92V39H247.988V27.92L237.428 9.86H243.388C243.975 9.86 244.441 10 244.788 10.28C245.135 10.5467 245.415 10.8933 245.628 11.32L249.748 19.8C250.081 20.48 250.388 21.1067 250.668 21.68C250.948 22.2533 251.195 22.82 251.408 23.38C251.608 22.8067 251.848 22.2333 252.128 21.66C252.408 21.0867 252.708 20.4667 253.028 19.8L257.108 11.32C257.188 11.1467 257.295 10.9733 257.428 10.8C257.575 10.6267 257.735 10.4733 257.908 10.34C258.095 10.1933 258.301 10.08 258.528 10C258.768 9.90667 259.028 9.86 259.308 9.86H265.308L254.748 27.92ZM273.633 9.86H279.313C279.899 9.86 280.386 9.99333 280.773 10.26C281.173 10.5267 281.433 10.88 281.553 11.32L285.553 26.52C285.686 27.0133 285.819 27.54 285.953 28.1C286.086 28.66 286.186 29.2467 286.253 29.86C286.386 29.2333 286.533 28.6467 286.693 28.1C286.853 27.54 287.006 27.0133 287.153 26.52L291.873 11.32C291.993 10.9467 292.246 10.6133 292.633 10.32C293.033 10.0133 293.513 9.86 294.073 9.86H296.073C296.659 9.86 297.139 9.99333 297.513 10.26C297.899 10.5133 298.166 10.8667 298.313 11.32L302.993 26.52C303.139 26.9867 303.293 27.4867 303.453 28.02C303.613 28.54 303.753 29.1 303.873 29.7C303.979 29.1133 304.086 28.5533 304.193 28.02C304.313 27.4867 304.433 26.9867 304.553 26.52L308.553 11.32C308.659 10.9333 308.913 10.5933 309.313 10.3C309.713 10.0067 310.193 9.86 310.753 9.86H316.073L307.073 39H300.953L295.473 20.94C295.379 20.66 295.279 20.3533 295.173 20.02C295.079 19.6867 294.986 19.3333 294.893 18.96C294.799 19.3333 294.699 19.6867 294.593 20.02C294.499 20.3533 294.406 20.66 294.313 20.94L288.753 39H282.633L273.633 9.86ZM347.844 24.42C347.844 26.5267 347.478 28.4867 346.744 30.3C346.024 32.1133 345.004 33.6933 343.684 35.04C342.364 36.3733 340.771 37.42 338.904 38.18C337.051 38.94 334.991 39.32 332.724 39.32C330.458 39.32 328.391 38.94 326.524 38.18C324.658 37.42 323.058 36.3733 321.724 35.04C320.404 33.6933 319.378 32.1133 318.644 30.3C317.924 28.4867 317.564 26.5267 317.564 24.42C317.564 22.3133 317.924 20.3533 318.644 18.54C319.378 16.7267 320.404 15.1533 321.724 13.82C323.058 12.4867 324.658 11.44 326.524 10.68C328.391 9.92 330.458 9.54 332.724 9.54C334.991 9.54 337.051 9.92667 338.904 10.7C340.771 11.46 342.364 12.5067 343.684 13.84C345.004 15.1733 346.024 16.7467 346.744 18.56C347.478 20.3733 347.844 22.3267 347.844 24.42ZM340.924 24.42C340.924 22.98 340.738 21.6867 340.364 20.54C339.991 19.38 339.451 18.4 338.744 17.6C338.051 16.8 337.198 16.1867 336.184 15.76C335.171 15.3333 334.018 15.12 332.724 15.12C331.418 15.12 330.251 15.3333 329.224 15.76C328.211 16.1867 327.351 16.8 326.644 17.6C325.951 18.4 325.418 19.38 325.044 20.54C324.671 21.6867 324.484 22.98 324.484 24.42C324.484 25.8733 324.671 27.18 325.044 28.34C325.418 29.4867 325.951 30.46 326.644 31.26C327.351 32.06 328.211 32.6733 329.224 33.1C330.251 33.5133 331.418 33.72 332.724 33.72C334.018 33.72 335.171 33.5133 336.184 33.1C337.198 32.6733 338.051 32.06 338.744 31.26C339.451 30.46 339.991 29.4867 340.364 28.34C340.738 27.18 340.924 25.8733 340.924 24.42ZM358.237 28.22V39H351.477V9.86H360.957C363.063 9.86 364.857 10.08 366.337 10.52C367.83 10.9467 369.043 11.5467 369.977 12.32C370.923 13.0933 371.61 14.0067 372.037 15.06C372.463 16.1133 372.677 17.26 372.677 18.5C372.677 19.4467 372.55 20.34 372.297 21.18C372.043 22.02 371.663 22.8 371.157 23.52C370.663 24.2267 370.05 24.86 369.317 25.42C368.597 25.98 367.763 26.44 366.817 26.8C367.27 27.0267 367.69 27.3067 368.077 27.64C368.477 27.9733 368.823 28.38 369.117 28.86L375.317 39H369.197C368.063 39 367.25 38.5733 366.757 37.72L361.917 29.26C361.703 28.8867 361.45 28.62 361.157 28.46C360.877 28.3 360.477 28.22 359.957 28.22H358.237ZM358.237 23.56H360.957C361.877 23.56 362.657 23.4467 363.297 23.22C363.95 22.98 364.483 22.6533 364.897 22.24C365.31 21.8267 365.61 21.3467 365.797 20.8C365.983 20.24 366.077 19.64 366.077 19C366.077 17.72 365.657 16.72 364.817 16C363.99 15.28 362.703 14.92 360.957 14.92H358.237V23.56ZM385.238 21.66H386.318C387.318 21.66 388.038 21.3467 388.478 20.72L395.038 11.2C395.398 10.68 395.805 10.3267 396.258 10.14C396.725 9.95333 397.291 9.86 397.958 9.86H403.838L395.198 21.64C394.891 22.0667 394.571 22.42 394.238 22.7C393.905 22.98 393.565 23.2133 393.218 23.4C393.725 23.5867 394.185 23.8467 394.598 24.18C395.025 24.5 395.411 24.9333 395.758 25.48L404.558 39H398.518C398.131 39 397.798 38.9733 397.518 38.92C397.251 38.8667 397.018 38.7867 396.818 38.68C396.618 38.5733 396.445 38.4467 396.298 38.3C396.151 38.14 396.011 37.96 395.878 37.76L389.278 27.62C389.038 27.2467 388.731 26.9867 388.358 26.84C387.998 26.68 387.505 26.6 386.878 26.6H385.238V39H378.478V9.86H385.238V21.66ZM423.673 15.78C423.473 16.1 423.259 16.34 423.033 16.5C422.819 16.66 422.539 16.74 422.193 16.74C421.886 16.74 421.553 16.6467 421.193 16.46C420.846 16.26 420.446 16.04 419.993 15.8C419.553 15.56 419.046 15.3467 418.473 15.16C417.899 14.96 417.246 14.86 416.513 14.86C415.246 14.86 414.299 15.1333 413.673 15.68C413.059 16.2133 412.753 16.94 412.753 17.86C412.753 18.4467 412.939 18.9333 413.313 19.32C413.686 19.7067 414.173 20.04 414.773 20.32C415.386 20.6 416.079 20.86 416.853 21.1C417.639 21.3267 418.439 21.5867 419.253 21.88C420.066 22.16 420.859 22.4933 421.633 22.88C422.419 23.2667 423.113 23.76 423.713 24.36C424.326 24.96 424.819 25.6933 425.193 26.56C425.566 27.4133 425.753 28.4467 425.753 29.66C425.753 31.0067 425.519 32.2667 425.053 33.44C424.586 34.6133 423.906 35.64 423.013 36.52C422.133 37.3867 421.039 38.0733 419.733 38.58C418.439 39.0733 416.966 39.32 415.313 39.32C414.406 39.32 413.479 39.2267 412.533 39.04C411.599 38.8533 410.693 38.5933 409.813 38.26C408.933 37.9133 408.106 37.5067 407.333 37.04C406.559 36.5733 405.886 36.0533 405.313 35.48L407.313 32.32C407.459 32.08 407.666 31.8867 407.933 31.74C408.199 31.5933 408.486 31.52 408.793 31.52C409.193 31.52 409.593 31.6467 409.993 31.9C410.406 32.1533 410.866 32.4333 411.373 32.74C411.893 33.0467 412.486 33.3267 413.153 33.58C413.819 33.8333 414.606 33.96 415.513 33.96C416.739 33.96 417.693 33.6933 418.373 33.16C419.053 32.6133 419.393 31.7533 419.393 30.58C419.393 29.9 419.206 29.3467 418.833 28.92C418.459 28.4933 417.966 28.14 417.353 27.86C416.753 27.58 416.066 27.3333 415.293 27.12C414.519 26.9067 413.726 26.6733 412.913 26.42C412.099 26.1533 411.306 25.8333 410.533 25.46C409.759 25.0733 409.066 24.5733 408.453 23.96C407.853 23.3333 407.366 22.56 406.993 21.64C406.619 20.7067 406.433 19.56 406.433 18.2C406.433 17.1067 406.653 16.04 407.093 15C407.533 13.96 408.179 13.0333 409.033 12.22C409.886 11.4067 410.933 10.76 412.173 10.28C413.413 9.78667 414.833 9.54 416.433 9.54C417.326 9.54 418.193 9.61333 419.033 9.76C419.886 9.89333 420.693 10.1 421.453 10.38C422.213 10.6467 422.919 10.9733 423.573 11.36C424.239 11.7333 424.833 12.16 425.353 12.64L423.673 15.78Z" fill="#121111"/>
</svg>
