<svg width="588" height="218" viewBox="0 0 588 218" fill="none" xmlns="http://www.w3.org/2000/svg">
<path d="M47.61 21.435V33.135H20.7V49.74H43.11V61.485H20.7V87H5.4V21.435H47.61ZM71.6077 62.745V87H56.3977V21.435H77.7277C82.4677 21.435 86.5027 21.93 89.8327 22.92C93.1927 23.88 95.9227 25.23 98.0227 26.97C100.153 28.71 101.698 30.765 102.658 33.135C103.618 35.505 104.098 38.085 104.098 40.875C104.098 43.005 103.813 45.015 103.243 46.905C102.673 48.795 101.818 50.55 100.678 52.17C99.5677 53.76 98.1877 55.185 96.5377 56.445C94.9177 57.705 93.0427 58.74 90.9127 59.55C91.9327 60.06 92.8777 60.69 93.7477 61.44C94.6477 62.19 95.4277 63.105 96.0877 64.185L110.038 87H96.2677C93.7177 87 91.8877 86.04 90.7777 84.12L79.8877 65.085C79.4077 64.245 78.8377 63.645 78.1777 63.285C77.5477 62.925 76.6477 62.745 75.4777 62.745H71.6077ZM71.6077 52.26H77.7277C79.7977 52.26 81.5527 52.005 82.9927 51.495C84.4627 50.955 85.6627 50.22 86.5927 49.29C87.5227 48.36 88.1977 47.28 88.6177 46.05C89.0377 44.79 89.2477 43.44 89.2477 42C89.2477 39.12 88.3027 36.87 86.4127 35.25C84.5527 33.63 81.6577 32.82 77.7277 32.82H71.6077V52.26ZM179.576 54.195C179.576 58.935 178.751 63.345 177.101 67.425C175.481 71.505 173.186 75.06 170.216 78.09C167.246 81.09 163.661 83.445 159.461 85.155C155.291 86.865 150.656 87.72 145.556 87.72C140.456 87.72 135.806 86.865 131.606 85.155C127.406 83.445 123.806 81.09 120.806 78.09C117.836 75.06 115.526 71.505 113.876 67.425C112.256 63.345 111.446 58.935 111.446 54.195C111.446 49.455 112.256 45.045 113.876 40.965C115.526 36.885 117.836 33.345 120.806 30.345C123.806 27.345 127.406 24.99 131.606 23.28C135.806 21.57 140.456 20.715 145.556 20.715C150.656 20.715 155.291 21.585 159.461 23.325C163.661 25.035 167.246 27.39 170.216 30.39C173.186 33.39 175.481 36.93 177.101 41.01C178.751 45.09 179.576 49.485 179.576 54.195ZM164.006 54.195C164.006 50.955 163.586 48.045 162.746 45.465C161.906 42.855 160.691 40.65 159.101 38.85C157.541 37.05 155.621 35.67 153.341 34.71C151.061 33.75 148.466 33.27 145.556 33.27C142.616 33.27 139.991 33.75 137.681 34.71C135.401 35.67 133.466 37.05 131.876 38.85C130.316 40.65 129.116 42.855 128.276 45.465C127.436 48.045 127.016 50.955 127.016 54.195C127.016 57.465 127.436 60.405 128.276 63.015C129.116 65.595 130.316 67.785 131.876 69.585C133.466 71.385 135.401 72.765 137.681 73.725C139.991 74.655 142.616 75.12 145.556 75.12C148.466 75.12 151.061 74.655 153.341 73.725C155.621 72.765 157.541 71.385 159.101 69.585C160.691 67.785 161.906 65.595 162.746 63.015C163.586 60.405 164.006 57.465 164.006 54.195ZM221.273 57.03C221.873 58.17 222.443 59.355 222.983 60.585C223.553 61.815 224.093 63.075 224.603 64.365C225.113 63.045 225.653 61.77 226.223 60.54C226.793 59.28 227.378 58.065 227.978 56.895L244.808 23.775C245.108 23.205 245.408 22.77 245.708 22.47C246.038 22.14 246.398 21.9 246.788 21.75C247.178 21.6 247.613 21.51 248.093 21.48C248.603 21.45 249.188 21.435 249.848 21.435H261.458V87H248.048V49.29C248.048 47.46 248.138 45.48 248.318 43.35L230.948 77.055C230.408 78.105 229.673 78.9 228.743 79.44C227.843 79.98 226.808 80.25 225.638 80.25H223.568C222.398 80.25 221.348 79.98 220.418 79.44C219.518 78.9 218.798 78.105 218.258 77.055L200.798 43.305C200.918 44.355 201.008 45.405 201.068 46.455C201.128 47.475 201.158 48.42 201.158 49.29V87H187.748V21.435H199.358C200.018 21.435 200.588 21.45 201.068 21.48C201.578 21.51 202.028 21.6 202.418 21.75C202.808 21.9 203.153 22.14 203.453 22.47C203.783 22.77 204.098 23.205 204.398 23.775L221.273 57.03ZM291.502 87V21.435H315.622C320.152 21.435 324.007 21.855 327.187 22.695C330.367 23.535 332.962 24.72 334.972 26.25C336.982 27.78 338.437 29.64 339.337 31.83C340.267 34.02 340.732 36.465 340.732 39.165C340.732 40.635 340.522 42.06 340.102 43.44C339.682 44.79 339.022 46.065 338.122 47.265C337.222 48.465 336.067 49.56 334.657 50.55C333.247 51.51 331.552 52.35 329.572 53.07C333.892 54.12 337.087 55.83 339.157 58.2C341.227 60.54 342.262 63.555 342.262 67.245C342.262 70.035 341.722 72.63 340.642 75.03C339.562 77.43 337.972 79.53 335.872 81.33C333.802 83.1 331.237 84.495 328.177 85.515C325.117 86.505 321.622 87 317.692 87H291.502ZM306.712 59.19V75.525H317.422C319.432 75.525 321.067 75.27 322.327 74.76C323.617 74.25 324.622 73.59 325.342 72.78C326.062 71.97 326.557 71.055 326.827 70.035C327.097 69.015 327.232 67.98 327.232 66.93C327.232 65.73 327.067 64.65 326.737 63.69C326.437 62.73 325.897 61.92 325.117 61.26C324.367 60.6 323.362 60.09 322.102 59.73C320.842 59.37 319.252 59.19 317.332 59.19H306.712ZM306.712 49.02H314.632C316.312 49.02 317.827 48.9 319.177 48.66C320.527 48.42 321.667 48 322.597 47.4C323.557 46.8 324.277 45.975 324.757 44.925C325.267 43.875 325.522 42.555 325.522 40.965C325.522 39.405 325.327 38.115 324.937 37.095C324.547 36.045 323.947 35.205 323.137 34.575C322.327 33.945 321.292 33.495 320.032 33.225C318.802 32.955 317.332 32.82 315.622 32.82H306.712V49.02ZM366.674 74.85H390.974V87H351.464V21.435H366.674V74.85ZM460.14 54.195C460.14 58.935 459.315 63.345 457.665 67.425C456.045 71.505 453.75 75.06 450.78 78.09C447.81 81.09 444.225 83.445 440.025 85.155C435.855 86.865 431.22 87.72 426.12 87.72C421.02 87.72 416.37 86.865 412.17 85.155C407.97 83.445 404.37 81.09 401.37 78.09C398.4 75.06 396.09 71.505 394.44 67.425C392.82 63.345 392.01 58.935 392.01 54.195C392.01 49.455 392.82 45.045 394.44 40.965C396.09 36.885 398.4 33.345 401.37 30.345C404.37 27.345 407.97 24.99 412.17 23.28C416.37 21.57 421.02 20.715 426.12 20.715C431.22 20.715 435.855 21.585 440.025 23.325C444.225 25.035 447.81 27.39 450.78 30.39C453.75 33.39 456.045 36.93 457.665 41.01C459.315 45.09 460.14 49.485 460.14 54.195ZM444.57 54.195C444.57 50.955 444.15 48.045 443.31 45.465C442.47 42.855 441.255 40.65 439.665 38.85C438.105 37.05 436.185 35.67 433.905 34.71C431.625 33.75 429.03 33.27 426.12 33.27C423.18 33.27 420.555 33.75 418.245 34.71C415.965 35.67 414.03 37.05 412.44 38.85C410.88 40.65 409.68 42.855 408.84 45.465C408 48.045 407.58 50.955 407.58 54.195C407.58 57.465 408 60.405 408.84 63.015C409.68 65.595 410.88 67.785 412.44 69.585C414.03 71.385 415.965 72.765 418.245 73.725C420.555 74.655 423.18 75.12 426.12 75.12C429.03 75.12 431.625 74.655 433.905 73.725C436.185 72.765 438.105 71.385 439.665 69.585C441.255 67.785 442.47 65.595 443.31 63.015C444.15 60.405 444.57 57.465 444.57 54.195ZM512.368 70.035C512.728 70.035 513.088 70.11 513.448 70.26C513.808 70.38 514.153 70.605 514.483 70.935L520.513 77.28C517.873 80.73 514.558 83.34 510.568 85.11C506.608 86.85 501.913 87.72 496.483 87.72C491.503 87.72 487.033 86.88 483.073 85.2C479.143 83.49 475.798 81.15 473.038 78.18C470.308 75.18 468.208 71.64 466.738 67.56C465.268 63.45 464.533 58.995 464.533 54.195C464.533 49.305 465.373 44.82 467.053 40.74C468.733 36.63 471.073 33.09 474.073 30.12C477.103 27.15 480.718 24.84 484.918 23.19C489.118 21.54 493.753 20.715 498.823 20.715C501.283 20.715 503.593 20.94 505.753 21.39C507.943 21.81 509.983 22.41 511.873 23.19C513.763 23.94 515.503 24.855 517.093 25.935C518.683 26.985 520.093 28.155 521.323 29.445L516.193 36.33C515.863 36.75 515.473 37.14 515.023 37.5C514.573 37.83 513.943 37.995 513.133 37.995C512.593 37.995 512.083 37.875 511.603 37.635C511.123 37.395 510.613 37.11 510.073 36.78C509.533 36.42 508.933 36.045 508.273 35.655C507.643 35.235 506.878 34.86 505.978 34.53C505.108 34.17 504.073 33.87 502.873 33.63C501.703 33.39 500.323 33.27 498.733 33.27C495.973 33.27 493.453 33.765 491.173 34.755C488.893 35.715 486.928 37.11 485.278 38.94C483.658 40.74 482.383 42.93 481.453 45.51C480.553 48.09 480.103 50.985 480.103 54.195C480.103 57.555 480.553 60.54 481.453 63.15C482.383 65.76 483.628 67.965 485.188 69.765C486.778 71.535 488.623 72.885 490.723 73.815C492.823 74.745 495.073 75.21 497.473 75.21C498.853 75.21 500.113 75.15 501.253 75.03C502.393 74.88 503.443 74.64 504.403 74.31C505.393 73.98 506.323 73.56 507.193 73.05C508.093 72.51 508.993 71.85 509.893 71.07C510.253 70.77 510.643 70.53 511.063 70.35C511.483 70.14 511.918 70.035 512.368 70.035ZM543.573 47.985H546.003C548.253 47.985 549.873 47.28 550.863 45.87L565.623 24.45C566.433 23.28 567.348 22.485 568.368 22.065C569.418 21.645 570.693 21.435 572.193 21.435H585.423L565.983 47.94C565.293 48.9 564.573 49.695 563.823 50.325C563.073 50.955 562.308 51.48 561.528 51.9C562.668 52.32 563.703 52.905 564.633 53.655C565.593 54.375 566.463 55.35 567.243 56.58L587.043 87H573.453C572.583 87 571.833 86.94 571.203 86.82C570.603 86.7 570.078 86.52 569.628 86.28C569.178 86.04 568.788 85.755 568.458 85.425C568.128 85.065 567.813 84.66 567.513 84.21L552.663 61.395C552.123 60.555 551.433 59.97 550.593 59.64C549.783 59.28 548.673 59.1 547.263 59.1H543.573V87H528.363V21.435H543.573V47.985ZM53.01 126.435V138.495H34.56V192H19.35V138.495H0.9V126.435H53.01ZM122.162 159.195C122.162 163.935 121.337 168.345 119.687 172.425C118.067 176.505 115.772 180.06 112.802 183.09C109.832 186.09 106.247 188.445 102.047 190.155C97.8773 191.865 93.2423 192.72 88.1423 192.72C83.0423 192.72 78.3923 191.865 74.1923 190.155C69.9923 188.445 66.3923 186.09 63.3923 183.09C60.4223 180.06 58.1123 176.505 56.4623 172.425C54.8423 168.345 54.0323 163.935 54.0323 159.195C54.0323 154.455 54.8423 150.045 56.4623 145.965C58.1123 141.885 60.4223 138.345 63.3923 135.345C66.3923 132.345 69.9923 129.99 74.1923 128.28C78.3923 126.57 83.0423 125.715 88.1423 125.715C93.2423 125.715 97.8773 126.585 102.047 128.325C106.247 130.035 109.832 132.39 112.802 135.39C115.772 138.39 118.067 141.93 119.687 146.01C121.337 150.09 122.162 154.485 122.162 159.195ZM106.592 159.195C106.592 155.955 106.172 153.045 105.332 150.465C104.492 147.855 103.277 145.65 101.687 143.85C100.127 142.05 98.2073 140.67 95.9273 139.71C93.6473 138.75 91.0523 138.27 88.1423 138.27C85.2023 138.27 82.5773 138.75 80.2673 139.71C77.9873 140.67 76.0523 142.05 74.4623 143.85C72.9023 145.65 71.7023 147.855 70.8623 150.465C70.0223 153.045 69.6023 155.955 69.6023 159.195C69.6023 162.465 70.0223 165.405 70.8623 168.015C71.7023 170.595 72.9023 172.785 74.4623 174.585C76.0523 176.385 77.9873 177.765 80.2673 178.725C82.5773 179.655 85.2023 180.12 88.1423 180.12C91.0523 180.12 93.6473 179.655 95.9273 178.725C98.2073 177.765 100.127 176.385 101.687 174.585C103.277 172.785 104.492 170.595 105.332 168.015C106.172 165.405 106.592 162.465 106.592 159.195ZM148.637 192V126.435H172.757C177.287 126.435 181.142 126.855 184.322 127.695C187.502 128.535 190.097 129.72 192.107 131.25C194.117 132.78 195.572 134.64 196.472 136.83C197.402 139.02 197.867 141.465 197.867 144.165C197.867 145.635 197.657 147.06 197.237 148.44C196.817 149.79 196.157 151.065 195.257 152.265C194.357 153.465 193.202 154.56 191.792 155.55C190.382 156.51 188.687 157.35 186.707 158.07C191.027 159.12 194.222 160.83 196.292 163.2C198.362 165.54 199.397 168.555 199.397 172.245C199.397 175.035 198.857 177.63 197.777 180.03C196.697 182.43 195.107 184.53 193.007 186.33C190.937 188.1 188.372 189.495 185.312 190.515C182.252 191.505 178.757 192 174.827 192H148.637ZM163.847 164.19V180.525H174.557C176.567 180.525 178.202 180.27 179.462 179.76C180.752 179.25 181.757 178.59 182.477 177.78C183.197 176.97 183.692 176.055 183.962 175.035C184.232 174.015 184.367 172.98 184.367 171.93C184.367 170.73 184.202 169.65 183.872 168.69C183.572 167.73 183.032 166.92 182.252 166.26C181.502 165.6 180.497 165.09 179.237 164.73C177.977 164.37 176.387 164.19 174.467 164.19H163.847ZM163.847 154.02H171.767C173.447 154.02 174.962 153.9 176.312 153.66C177.662 153.42 178.802 153 179.732 152.4C180.692 151.8 181.412 150.975 181.892 149.925C182.402 148.875 182.657 147.555 182.657 145.965C182.657 144.405 182.462 143.115 182.072 142.095C181.682 141.045 181.082 140.205 180.272 139.575C179.462 138.945 178.427 138.495 177.167 138.225C175.937 137.955 174.467 137.82 172.757 137.82H163.847V154.02ZM273.31 159.195C273.31 163.935 272.485 168.345 270.835 172.425C269.215 176.505 266.92 180.06 263.95 183.09C260.98 186.09 257.395 188.445 253.195 190.155C249.025 191.865 244.39 192.72 239.29 192.72C234.19 192.72 229.54 191.865 225.34 190.155C221.14 188.445 217.54 186.09 214.54 183.09C211.57 180.06 209.26 176.505 207.61 172.425C205.99 168.345 205.18 163.935 205.18 159.195C205.18 154.455 205.99 150.045 207.61 145.965C209.26 141.885 211.57 138.345 214.54 135.345C217.54 132.345 221.14 129.99 225.34 128.28C229.54 126.57 234.19 125.715 239.29 125.715C244.39 125.715 249.025 126.585 253.195 128.325C257.395 130.035 260.98 132.39 263.95 135.39C266.92 138.39 269.215 141.93 270.835 146.01C272.485 150.09 273.31 154.485 273.31 159.195ZM257.74 159.195C257.74 155.955 257.32 153.045 256.48 150.465C255.64 147.855 254.425 145.65 252.835 143.85C251.275 142.05 249.355 140.67 247.075 139.71C244.795 138.75 242.2 138.27 239.29 138.27C236.35 138.27 233.725 138.75 231.415 139.71C229.135 140.67 227.2 142.05 225.61 143.85C224.05 145.65 222.85 147.855 222.01 150.465C221.17 153.045 220.75 155.955 220.75 159.195C220.75 162.465 221.17 165.405 222.01 168.015C222.85 170.595 224.05 172.785 225.61 174.585C227.2 176.385 229.135 177.765 231.415 178.725C233.725 179.655 236.35 180.12 239.29 180.12C242.2 180.12 244.795 179.655 247.075 178.725C249.355 177.765 251.275 176.385 252.835 174.585C254.425 172.785 255.64 170.595 256.48 168.015C257.32 165.405 257.74 162.465 257.74 159.195ZM340.972 159.195C340.972 163.935 340.147 168.315 338.497 172.335C336.877 176.325 334.582 179.79 331.612 182.73C328.642 185.64 325.057 187.92 320.857 189.57C316.687 191.19 312.052 192 306.952 192H281.482V126.435H306.952C312.052 126.435 316.687 127.26 320.857 128.91C325.057 130.56 328.642 132.84 331.612 135.75C334.582 138.66 336.877 142.125 338.497 146.145C340.147 150.135 340.972 154.485 340.972 159.195ZM325.402 159.195C325.402 155.955 324.982 153.03 324.142 150.42C323.302 147.81 322.087 145.605 320.497 143.805C318.937 141.975 317.017 140.58 314.737 139.62C312.457 138.63 309.862 138.135 306.952 138.135H296.782V180.3H306.952C309.862 180.3 312.457 179.82 314.737 178.86C317.017 177.87 318.937 176.475 320.497 174.675C322.087 172.845 323.302 170.625 324.142 168.015C324.982 165.405 325.402 162.465 325.402 159.195ZM378.245 167.07V192H363.035V167.07L339.275 126.435H352.685C354.005 126.435 355.055 126.75 355.835 127.38C356.615 127.98 357.245 128.76 357.725 129.72L366.995 148.8C367.745 150.33 368.435 151.74 369.065 153.03C369.695 154.32 370.25 155.595 370.73 156.855C371.18 155.565 371.72 154.275 372.35 152.985C372.98 151.695 373.655 150.3 374.375 148.8L383.555 129.72C383.735 129.33 383.975 128.94 384.275 128.55C384.605 128.16 384.965 127.815 385.355 127.515C385.775 127.185 386.24 126.93 386.75 126.75C387.29 126.54 387.875 126.435 388.505 126.435H402.005L378.245 167.07Z" fill="#121111"/>
<path d="M411.146 175.232H429.201V189.136C429.201 194.255 428.135 198.295 426.005 201.255C423.874 204.216 420.236 206.831 415.089 209.1L411.146 201.712C414.356 200.218 416.556 198.724 417.746 197.229C418.963 195.763 419.641 194.02 419.779 192H411.146V175.232Z" fill="#121111"/>
</svg>
