<svg width="317" height="20" viewBox="0 0 317 20" fill="none" xmlns="http://www.w3.org/2000/svg">
<path d="M3.9 16H0.5V1.43H3.9V16ZM10.8734 16V1.03H13.9734V6.73C14.3601 6.35 14.7968 6.04667 15.2834 5.82C15.7768 5.58667 16.3534 5.47 17.0134 5.47C17.5534 5.47 18.0534 5.58667 18.5134 5.82C18.9734 6.05333 19.3701 6.39667 19.7034 6.85C20.0368 7.29667 20.2968 7.84667 20.4834 8.5C20.6768 9.15333 20.7734 9.89667 20.7734 10.73C20.7734 11.51 20.6634 12.23 20.4434 12.89C20.2301 13.55 19.9268 14.1233 19.5334 14.61C19.1468 15.0967 18.6801 15.4767 18.1334 15.75C17.5934 16.0233 16.9934 16.16 16.3334 16.16C16.0268 16.16 15.7501 16.13 15.5034 16.07C15.2634 16.01 15.0401 15.9267 14.8334 15.82C14.6334 15.7067 14.4468 15.5733 14.2734 15.42C14.1068 15.2667 13.9434 15.1 13.7834 14.92L13.6734 15.44C13.6268 15.6533 13.5401 15.8 13.4134 15.88C13.2934 15.96 13.1334 16 12.9334 16H10.8734ZM15.9334 7.8C15.7068 7.8 15.5001 7.82333 15.3134 7.87C15.1334 7.91 14.9634 7.97 14.8034 8.05C14.6501 8.13 14.5068 8.23333 14.3734 8.36C14.2401 8.48 14.1068 8.62 13.9734 8.78V13.18C14.2068 13.44 14.4601 13.6233 14.7334 13.73C15.0068 13.83 15.2934 13.88 15.5934 13.88C15.8801 13.88 16.1434 13.8233 16.3834 13.71C16.6234 13.5967 16.8301 13.4167 17.0034 13.17C17.1834 12.9167 17.3234 12.59 17.4234 12.19C17.5234 11.79 17.5734 11.3033 17.5734 10.73C17.5734 10.1833 17.5334 9.72333 17.4534 9.35C17.3734 8.97667 17.2601 8.67667 17.1134 8.45C16.9734 8.21667 16.8034 8.05 16.6034 7.95C16.4034 7.85 16.1801 7.8 15.9334 7.8ZM25.575 5.63V12.21C25.575 12.7233 25.6917 13.12 25.925 13.4C26.1583 13.68 26.5017 13.82 26.955 13.82C27.295 13.82 27.6117 13.75 27.905 13.61C28.205 13.47 28.495 13.2733 28.775 13.02V5.63H31.875V16H29.955C29.5683 16 29.315 15.8267 29.195 15.48L29.005 14.88C28.805 15.0733 28.5983 15.25 28.385 15.41C28.1717 15.5633 27.9417 15.6967 27.695 15.81C27.455 15.9167 27.195 16 26.915 16.06C26.635 16.1267 26.3283 16.16 25.995 16.16C25.4283 16.16 24.925 16.0633 24.485 15.87C24.0517 15.67 23.685 15.3933 23.385 15.04C23.085 14.6867 22.8583 14.27 22.705 13.79C22.5517 13.31 22.475 12.7833 22.475 12.21V5.63H25.575ZM37.6766 5.63V16H34.5766V5.63H37.6766ZM38.0366 2.79C38.0366 3.03667 37.9866 3.27 37.8866 3.49C37.7866 3.70333 37.6499 3.89333 37.4766 4.06C37.3032 4.22 37.0999 4.35 36.8666 4.45C36.6399 4.54333 36.3966 4.59 36.1366 4.59C35.8832 4.59 35.6466 4.54333 35.4266 4.45C35.2066 4.35 35.0099 4.22 34.8366 4.06C34.6699 3.89333 34.5366 3.70333 34.4366 3.49C34.3432 3.27 34.2966 3.03667 34.2966 2.79C34.2966 2.53667 34.3432 2.3 34.4366 2.08C34.5366 1.86 34.6699 1.66667 34.8366 1.5C35.0099 1.33333 35.2066 1.20333 35.4266 1.11C35.6466 1.01667 35.8832 0.97 36.1366 0.97C36.3966 0.97 36.6399 1.01667 36.8666 1.11C37.0999 1.20333 37.3032 1.33333 37.4766 1.5C37.6499 1.66667 37.7866 1.86 37.8866 2.08C37.9866 2.3 38.0366 2.53667 38.0366 2.79ZM43.5797 1.03V16H40.4797V1.03H43.5797ZM53.5628 16C53.3695 16 53.2061 15.9567 53.0728 15.87C52.9461 15.7833 52.8561 15.6533 52.8028 15.48L52.5628 14.69C52.3561 14.91 52.1395 15.11 51.9128 15.29C51.6861 15.47 51.4395 15.6267 51.1728 15.76C50.9128 15.8867 50.6295 15.9833 50.3228 16.05C50.0228 16.1233 49.6961 16.16 49.3428 16.16C48.8028 16.16 48.3028 16.04 47.8428 15.8C47.3828 15.56 46.9861 15.2133 46.6528 14.76C46.3195 14.3067 46.0561 13.7533 45.8628 13.1C45.6761 12.44 45.5828 11.69 45.5828 10.85C45.5828 10.0767 45.6895 9.36 45.9028 8.7C46.1161 8.03333 46.4161 7.46 46.8028 6.98C47.1961 6.49333 47.6661 6.11333 48.2128 5.84C48.7595 5.56667 49.3628 5.43 50.0228 5.43C50.5561 5.43 51.0061 5.51 51.3728 5.67C51.7461 5.82333 52.0828 6.02667 52.3828 6.28V1.03H55.4828V16H53.5628ZM50.4228 13.78C50.6495 13.78 50.8528 13.76 51.0328 13.72C51.2195 13.6733 51.3895 13.61 51.5428 13.53C51.6961 13.45 51.8395 13.35 51.9728 13.23C52.1128 13.11 52.2495 12.97 52.3828 12.81V8.41C52.1428 8.15 51.8861 7.97 51.6128 7.87C51.3461 7.76333 51.0628 7.71 50.7628 7.71C50.4761 7.71 50.2128 7.76667 49.9728 7.88C49.7328 7.99333 49.5228 8.17667 49.3428 8.43C49.1695 8.67667 49.0328 9 48.9328 9.4C48.8328 9.8 48.7828 10.2833 48.7828 10.85C48.7828 11.3967 48.8228 11.8567 48.9028 12.23C48.9828 12.6033 49.0928 12.9067 49.2328 13.14C49.3795 13.3667 49.5528 13.53 49.7528 13.63C49.9528 13.73 50.1761 13.78 50.4228 13.78ZM65.0516 5.63V12.21C65.0516 12.7233 65.1682 13.12 65.4016 13.4C65.6349 13.68 65.9782 13.82 66.4316 13.82C66.7716 13.82 67.0882 13.75 67.3816 13.61C67.6816 13.47 67.9716 13.2733 68.2516 13.02V5.63H71.3516V16H69.4316C69.0449 16 68.7916 15.8267 68.6716 15.48L68.4816 14.88C68.2816 15.0733 68.0749 15.25 67.8616 15.41C67.6482 15.5633 67.4182 15.6967 67.1716 15.81C66.9316 15.9167 66.6716 16 66.3916 16.06C66.1116 16.1267 65.8049 16.16 65.4716 16.16C64.9049 16.16 64.4016 16.0633 63.9616 15.87C63.5282 15.67 63.1616 15.3933 62.8616 15.04C62.5616 14.6867 62.3349 14.27 62.1816 13.79C62.0282 13.31 61.9516 12.7833 61.9516 12.21V5.63H65.0516ZM73.9531 19.29V5.63H75.8731C76.0665 5.63 76.2265 5.67333 76.3531 5.76C76.4865 5.84667 76.5798 5.97667 76.6331 6.15L76.8631 6.91C77.0631 6.69 77.2765 6.49 77.5031 6.31C77.7365 6.13 77.9831 5.97667 78.2431 5.85C78.5098 5.71667 78.7931 5.61333 79.0931 5.54C79.3998 5.46667 79.7331 5.43 80.0931 5.43C80.6331 5.43 81.1331 5.55 81.5931 5.79C82.0531 6.03 82.4498 6.37667 82.7831 6.83C83.1165 7.28333 83.3765 7.84 83.5631 8.5C83.7565 9.15333 83.8531 9.89667 83.8531 10.73C83.8531 11.51 83.7431 12.23 83.5231 12.89C83.3098 13.55 83.0065 14.1233 82.6131 14.61C82.2265 15.0967 81.7598 15.4767 81.2131 15.75C80.6731 16.0233 80.0731 16.16 79.4131 16.16C78.8731 16.16 78.4198 16.0833 78.0531 15.93C77.6865 15.7767 77.3531 15.57 77.0531 15.31V19.29H73.9531ZM79.0131 7.8C78.7865 7.8 78.5798 7.82333 78.3931 7.87C78.2131 7.91 78.0431 7.97 77.8831 8.05C77.7298 8.13 77.5865 8.23333 77.4531 8.36C77.3198 8.48 77.1865 8.62 77.0531 8.78V13.18C77.2865 13.44 77.5398 13.6233 77.8131 13.73C78.0865 13.83 78.3731 13.88 78.6731 13.88C78.9598 13.88 79.2231 13.8233 79.4631 13.71C79.7031 13.5967 79.9098 13.4167 80.0831 13.17C80.2631 12.9167 80.4031 12.59 80.5031 12.19C80.6031 11.79 80.6531 11.3033 80.6531 10.73C80.6531 10.1833 80.6131 9.72333 80.5331 9.35C80.4531 8.97667 80.3398 8.67667 80.1931 8.45C80.0531 8.21667 79.8831 8.05 79.6831 7.95C79.4831 7.85 79.2598 7.8 79.0131 7.8ZM96.9428 16C96.6495 16 96.4261 15.96 96.2728 15.88C96.1261 15.8 96.0028 15.6333 95.9028 15.38L95.6828 14.81C95.4228 15.03 95.1728 15.2233 94.9328 15.39C94.6928 15.5567 94.4428 15.7 94.1828 15.82C93.9295 15.9333 93.6561 16.0167 93.3628 16.07C93.0761 16.13 92.7561 16.16 92.4028 16.16C91.9295 16.16 91.4995 16.1 91.1128 15.98C90.7261 15.8533 90.3961 15.67 90.1228 15.43C89.8561 15.19 89.6495 14.8933 89.5028 14.54C89.3561 14.18 89.2828 13.7667 89.2828 13.3C89.2828 12.9333 89.3761 12.5567 89.5628 12.17C89.7495 11.7833 90.0728 11.4333 90.5328 11.12C90.9928 10.8 91.6128 10.5333 92.3928 10.32C93.1728 10.1067 94.1561 9.98667 95.3428 9.96V9.52C95.3428 8.91333 95.2161 8.47667 94.9628 8.21C94.7161 7.93667 94.3628 7.8 93.9028 7.8C93.5361 7.8 93.2361 7.84 93.0028 7.92C92.7695 8 92.5595 8.09 92.3728 8.19C92.1928 8.29 92.0161 8.38 91.8428 8.46C91.6695 8.54 91.4628 8.58 91.2228 8.58C91.0095 8.58 90.8261 8.53 90.6728 8.43C90.5261 8.32333 90.4095 8.19333 90.3228 8.04L89.7628 7.07C90.3895 6.51667 91.0828 6.10667 91.8428 5.84C92.6095 5.56667 93.4295 5.43 94.3028 5.43C94.9295 5.43 95.4928 5.53333 95.9928 5.74C96.4995 5.94 96.9261 6.22333 97.2728 6.59C97.6261 6.95 97.8961 7.38 98.0828 7.88C98.2695 8.38 98.3628 8.92667 98.3628 9.52V16H96.9428ZM93.3828 14.11C93.7828 14.11 94.1328 14.04 94.4328 13.9C94.7328 13.76 95.0361 13.5333 95.3428 13.22V11.78C94.7228 11.8067 94.2128 11.86 93.8128 11.94C93.4128 12.02 93.0961 12.12 92.8628 12.24C92.6295 12.36 92.4661 12.4967 92.3728 12.65C92.2861 12.8033 92.2428 12.97 92.2428 13.15C92.2428 13.5033 92.3395 13.7533 92.5328 13.9C92.7261 14.04 93.0095 14.11 93.3828 14.11ZM100.764 16V5.63H102.684C102.877 5.63 103.037 5.67333 103.164 5.76C103.297 5.84667 103.391 5.97667 103.444 6.15L103.624 6.75C103.824 6.56333 104.031 6.39 104.244 6.23C104.457 6.07 104.684 5.93667 104.924 5.83C105.171 5.71667 105.434 5.63 105.714 5.57C106.001 5.50333 106.311 5.47 106.644 5.47C107.211 5.47 107.711 5.57 108.144 5.77C108.584 5.96333 108.954 6.23667 109.254 6.59C109.554 6.93667 109.781 7.35333 109.934 7.84C110.087 8.32 110.164 8.84333 110.164 9.41V16H107.064V9.41C107.064 8.90333 106.947 8.51 106.714 8.23C106.481 7.94333 106.137 7.8 105.684 7.8C105.344 7.8 105.024 7.87333 104.724 8.02C104.424 8.16667 104.137 8.36333 103.864 8.61V16H100.764ZM119.846 16C119.652 16 119.489 15.9567 119.356 15.87C119.229 15.7833 119.139 15.6533 119.086 15.48L118.846 14.69C118.639 14.91 118.422 15.11 118.196 15.29C117.969 15.47 117.722 15.6267 117.456 15.76C117.196 15.8867 116.912 15.9833 116.606 16.05C116.306 16.1233 115.979 16.16 115.626 16.16C115.086 16.16 114.586 16.04 114.126 15.8C113.666 15.56 113.269 15.2133 112.936 14.76C112.602 14.3067 112.339 13.7533 112.146 13.1C111.959 12.44 111.866 11.69 111.866 10.85C111.866 10.0767 111.972 9.36 112.186 8.7C112.399 8.03333 112.699 7.46 113.086 6.98C113.479 6.49333 113.949 6.11333 114.496 5.84C115.042 5.56667 115.646 5.43 116.306 5.43C116.839 5.43 117.289 5.51 117.656 5.67C118.029 5.82333 118.366 6.02667 118.666 6.28V1.03H121.766V16H119.846ZM116.706 13.78C116.932 13.78 117.136 13.76 117.316 13.72C117.502 13.6733 117.672 13.61 117.826 13.53C117.979 13.45 118.122 13.35 118.256 13.23C118.396 13.11 118.532 12.97 118.666 12.81V8.41C118.426 8.15 118.169 7.97 117.896 7.87C117.629 7.76333 117.346 7.71 117.046 7.71C116.759 7.71 116.496 7.76667 116.256 7.88C116.016 7.99333 115.806 8.17667 115.626 8.43C115.452 8.67667 115.316 9 115.216 9.4C115.116 9.8 115.066 10.2833 115.066 10.85C115.066 11.3967 115.106 11.8567 115.186 12.23C115.266 12.6033 115.376 12.9067 115.516 13.14C115.662 13.3667 115.836 13.53 116.036 13.63C116.236 13.73 116.459 13.78 116.706 13.78ZM128.434 16V5.63H130.354C130.548 5.63 130.708 5.67333 130.834 5.76C130.968 5.84667 131.061 5.97667 131.114 6.15L131.284 6.71C131.458 6.53 131.638 6.36667 131.824 6.22C132.011 6.06667 132.211 5.93667 132.424 5.83C132.644 5.71667 132.878 5.63 133.124 5.57C133.378 5.50333 133.654 5.47 133.954 5.47C134.581 5.47 135.098 5.63333 135.504 5.96C135.918 6.28 136.231 6.71 136.444 7.25C136.618 6.93 136.828 6.65667 137.074 6.43C137.328 6.20333 137.598 6.02 137.884 5.88C138.178 5.74 138.484 5.63667 138.804 5.57C139.131 5.50333 139.454 5.47 139.774 5.47C140.368 5.47 140.894 5.56 141.354 5.74C141.814 5.91333 142.198 6.17 142.504 6.51C142.818 6.84333 143.054 7.25667 143.214 7.75C143.374 8.23667 143.454 8.79 143.454 9.41V16H140.354V9.41C140.354 8.33667 139.894 7.8 138.974 7.8C138.554 7.8 138.204 7.94 137.924 8.22C137.651 8.49333 137.514 8.89 137.514 9.41V16H134.414V9.41C134.414 8.81667 134.298 8.4 134.064 8.16C133.831 7.92 133.488 7.8 133.034 7.8C132.754 7.8 132.488 7.86333 132.234 7.99C131.988 8.11667 131.754 8.28667 131.534 8.5V16H128.434ZM153.021 16C152.728 16 152.504 15.96 152.351 15.88C152.204 15.8 152.081 15.6333 151.981 15.38L151.761 14.81C151.501 15.03 151.251 15.2233 151.011 15.39C150.771 15.5567 150.521 15.7 150.261 15.82C150.008 15.9333 149.734 16.0167 149.441 16.07C149.154 16.13 148.834 16.16 148.481 16.16C148.008 16.16 147.578 16.1 147.191 15.98C146.804 15.8533 146.474 15.67 146.201 15.43C145.934 15.19 145.728 14.8933 145.581 14.54C145.434 14.18 145.361 13.7667 145.361 13.3C145.361 12.9333 145.454 12.5567 145.641 12.17C145.828 11.7833 146.151 11.4333 146.611 11.12C147.071 10.8 147.691 10.5333 148.471 10.32C149.251 10.1067 150.234 9.98667 151.421 9.96V9.52C151.421 8.91333 151.294 8.47667 151.041 8.21C150.794 7.93667 150.441 7.8 149.981 7.8C149.614 7.8 149.314 7.84 149.081 7.92C148.848 8 148.638 8.09 148.451 8.19C148.271 8.29 148.094 8.38 147.921 8.46C147.748 8.54 147.541 8.58 147.301 8.58C147.088 8.58 146.904 8.53 146.751 8.43C146.604 8.32333 146.488 8.19333 146.401 8.04L145.841 7.07C146.468 6.51667 147.161 6.10667 147.921 5.84C148.688 5.56667 149.508 5.43 150.381 5.43C151.008 5.43 151.571 5.53333 152.071 5.74C152.578 5.94 153.004 6.22333 153.351 6.59C153.704 6.95 153.974 7.38 154.161 7.88C154.348 8.38 154.441 8.92667 154.441 9.52V16H153.021ZM149.461 14.11C149.861 14.11 150.211 14.04 150.511 13.9C150.811 13.76 151.114 13.5333 151.421 13.22V11.78C150.801 11.8067 150.291 11.86 149.891 11.94C149.491 12.02 149.174 12.12 148.941 12.24C148.708 12.36 148.544 12.4967 148.451 12.65C148.364 12.8033 148.321 12.97 148.321 13.15C148.321 13.5033 148.418 13.7533 148.611 13.9C148.804 14.04 149.088 14.11 149.461 14.11ZM159.942 1.03V9.42H160.402C160.596 9.42 160.742 9.39333 160.842 9.34C160.949 9.28667 161.049 9.19 161.142 9.05L163.102 6.13C163.216 5.95667 163.349 5.83 163.502 5.75C163.662 5.67 163.862 5.63 164.102 5.63H166.942L164.262 9.32C164.136 9.49333 163.996 9.64667 163.842 9.78C163.696 9.91333 163.536 10.0333 163.362 10.14C163.662 10.3667 163.922 10.6667 164.142 11.04L167.062 16H164.262C164.029 16 163.826 15.9633 163.652 15.89C163.486 15.81 163.349 15.6733 163.242 15.48L161.282 11.81C161.189 11.6433 161.092 11.5367 160.992 11.49C160.892 11.4367 160.742 11.41 160.542 11.41H159.942V16H156.842V1.03H159.942ZM172.4 5.47C173.087 5.47 173.713 5.57667 174.28 5.79C174.853 6.00333 175.343 6.31333 175.75 6.72C176.163 7.12667 176.483 7.62667 176.71 8.22C176.943 8.80667 177.06 9.47333 177.06 10.22C177.06 10.4533 177.05 10.6433 177.03 10.79C177.01 10.9367 176.973 11.0533 176.92 11.14C176.867 11.2267 176.793 11.2867 176.7 11.32C176.613 11.3533 176.5 11.37 176.36 11.37H170.38C170.48 12.2367 170.743 12.8667 171.17 13.26C171.597 13.6467 172.147 13.84 172.82 13.84C173.18 13.84 173.49 13.7967 173.75 13.71C174.01 13.6233 174.24 13.5267 174.44 13.42C174.647 13.3133 174.833 13.2167 175 13.13C175.173 13.0433 175.353 13 175.54 13C175.787 13 175.973 13.09 176.1 13.27L177 14.38C176.68 14.7467 176.333 15.0467 175.96 15.28C175.593 15.5067 175.213 15.6867 174.82 15.82C174.433 15.9467 174.043 16.0333 173.65 16.08C173.263 16.1333 172.893 16.16 172.54 16.16C171.813 16.16 171.13 16.0433 170.49 15.81C169.857 15.57 169.3 15.2167 168.82 14.75C168.347 14.2833 167.97 13.7033 167.69 13.01C167.417 12.3167 167.28 11.51 167.28 10.59C167.28 9.89667 167.397 9.24 167.63 8.62C167.87 8 168.21 7.45667 168.65 6.99C169.097 6.52333 169.633 6.15333 170.26 5.88C170.893 5.60667 171.607 5.47 172.4 5.47ZM172.46 7.61C171.867 7.61 171.403 7.78 171.07 8.12C170.737 8.45333 170.517 8.93667 170.41 9.57H174.28C174.28 9.32333 174.247 9.08333 174.18 8.85C174.12 8.61667 174.017 8.41 173.87 8.23C173.73 8.04333 173.543 7.89333 173.31 7.78C173.077 7.66667 172.793 7.61 172.46 7.61ZM186.746 16.16C186.253 16.16 185.816 16.09 185.436 15.95C185.063 15.8033 184.746 15.6 184.486 15.34C184.233 15.0733 184.04 14.7533 183.906 14.38C183.773 14.0067 183.706 13.59 183.706 13.13V7.77H182.826C182.666 7.77 182.53 7.72 182.416 7.62C182.303 7.51333 182.246 7.36 182.246 7.16V5.95L183.896 5.63L184.506 3.1C184.586 2.78 184.813 2.62 185.186 2.62H186.806V5.65H189.326V7.77H186.806V12.92C186.806 13.16 186.863 13.36 186.976 13.52C187.096 13.6733 187.266 13.75 187.486 13.75C187.6 13.75 187.693 13.74 187.766 13.72C187.846 13.6933 187.913 13.6667 187.966 13.64C188.026 13.6067 188.08 13.58 188.126 13.56C188.18 13.5333 188.24 13.52 188.306 13.52C188.4 13.52 188.473 13.5433 188.526 13.59C188.586 13.63 188.646 13.6967 188.706 13.79L189.646 15.26C189.246 15.56 188.796 15.7867 188.296 15.94C187.796 16.0867 187.28 16.16 186.746 16.16ZM191.314 16V1.03H194.414V6.54C194.787 6.22 195.191 5.96333 195.624 5.77C196.064 5.57 196.587 5.47 197.194 5.47C197.761 5.47 198.261 5.57 198.694 5.77C199.134 5.96333 199.504 6.23667 199.804 6.59C200.104 6.93667 200.331 7.35333 200.484 7.84C200.637 8.32 200.714 8.84333 200.714 9.41V16H197.614V9.41C197.614 8.90333 197.497 8.51 197.264 8.23C197.031 7.94333 196.687 7.8 196.234 7.8C195.894 7.8 195.574 7.87333 195.274 8.02C194.974 8.16667 194.687 8.36333 194.414 8.61V16H191.314ZM206.316 5.63V16H203.216V5.63H206.316ZM206.676 2.79C206.676 3.03667 206.626 3.27 206.526 3.49C206.426 3.70333 206.289 3.89333 206.116 4.06C205.942 4.22 205.739 4.35 205.506 4.45C205.279 4.54333 205.036 4.59 204.776 4.59C204.522 4.59 204.286 4.54333 204.066 4.45C203.846 4.35 203.649 4.22 203.476 4.06C203.309 3.89333 203.176 3.70333 203.076 3.49C202.982 3.27 202.936 3.03667 202.936 2.79C202.936 2.53667 202.982 2.3 203.076 2.08C203.176 1.86 203.309 1.66667 203.476 1.5C203.649 1.33333 203.846 1.20333 204.066 1.11C204.286 1.01667 204.522 0.97 204.776 0.97C205.036 0.97 205.279 1.01667 205.506 1.11C205.739 1.20333 205.942 1.33333 206.116 1.5C206.289 1.66667 206.426 1.86 206.526 2.08C206.626 2.3 206.676 2.53667 206.676 2.79ZM209.019 16V5.63H210.939C211.132 5.63 211.292 5.67333 211.419 5.76C211.552 5.84667 211.645 5.97667 211.699 6.15L211.879 6.75C212.079 6.56333 212.285 6.39 212.499 6.23C212.712 6.07 212.939 5.93667 213.179 5.83C213.425 5.71667 213.689 5.63 213.969 5.57C214.255 5.50333 214.565 5.47 214.899 5.47C215.465 5.47 215.965 5.57 216.399 5.77C216.839 5.96333 217.209 6.23667 217.509 6.59C217.809 6.93667 218.035 7.35333 218.189 7.84C218.342 8.32 218.419 8.84333 218.419 9.41V16H215.319V9.41C215.319 8.90333 215.202 8.51 214.969 8.23C214.735 7.94333 214.392 7.8 213.939 7.8C213.599 7.8 213.279 7.87333 212.979 8.02C212.679 8.16667 212.392 8.36333 212.119 8.61V16H209.019ZM224.48 5.45C224.92 5.45 225.334 5.49333 225.72 5.58C226.114 5.66667 226.477 5.79 226.81 5.95H229.94V7.08C229.94 7.25333 229.89 7.39 229.79 7.49C229.697 7.59 229.534 7.66667 229.3 7.72L228.54 7.89C228.634 8.19 228.68 8.5 228.68 8.82C228.68 9.34 228.57 9.80667 228.35 10.22C228.137 10.6333 227.84 10.9867 227.46 11.28C227.087 11.5667 226.644 11.79 226.13 11.95C225.617 12.1033 225.067 12.18 224.48 12.18C224.154 12.18 223.847 12.16 223.56 12.12C223.334 12.2533 223.22 12.4067 223.22 12.58C223.22 12.7533 223.31 12.88 223.49 12.96C223.677 13.0333 223.92 13.0867 224.22 13.12C224.52 13.1467 224.864 13.1667 225.25 13.18C225.637 13.1867 226.03 13.21 226.43 13.25C226.83 13.2833 227.224 13.3433 227.61 13.43C227.997 13.5167 228.34 13.6567 228.64 13.85C228.94 14.0433 229.18 14.3033 229.36 14.63C229.547 14.95 229.64 15.36 229.64 15.86C229.64 16.3267 229.527 16.7833 229.3 17.23C229.074 17.6767 228.74 18.0733 228.3 18.42C227.86 18.7667 227.32 19.0433 226.68 19.25C226.04 19.4633 225.307 19.57 224.48 19.57C223.667 19.57 222.964 19.4933 222.37 19.34C221.784 19.1867 221.294 18.9833 220.9 18.73C220.514 18.4833 220.227 18.1967 220.04 17.87C219.854 17.5433 219.76 17.2033 219.76 16.85C219.76 16.39 219.9 16.0033 220.18 15.69C220.46 15.37 220.844 15.12 221.33 14.94C221.097 14.7867 220.91 14.59 220.77 14.35C220.63 14.11 220.56 13.8067 220.56 13.44C220.56 13.2867 220.587 13.1267 220.64 12.96C220.694 12.7867 220.777 12.62 220.89 12.46C221.004 12.3 221.147 12.1467 221.32 12C221.494 11.8533 221.7 11.7233 221.94 11.61C221.4 11.3233 220.974 10.9433 220.66 10.47C220.354 9.99667 220.2 9.44667 220.2 8.82C220.2 8.3 220.31 7.83333 220.53 7.42C220.75 7 221.05 6.64667 221.43 6.36C221.817 6.06667 222.27 5.84333 222.79 5.69C223.31 5.53 223.874 5.45 224.48 5.45ZM226.78 16.38C226.78 16.2133 226.727 16.08 226.62 15.98C226.52 15.88 226.38 15.8 226.2 15.74C226.027 15.68 225.82 15.6367 225.58 15.61C225.347 15.5833 225.094 15.5633 224.82 15.55C224.547 15.5367 224.264 15.5267 223.97 15.52C223.677 15.5067 223.387 15.4833 223.1 15.45C222.907 15.5833 222.747 15.7333 222.62 15.9C222.5 16.06 222.44 16.2433 222.44 16.45C222.44 16.5967 222.47 16.73 222.53 16.85C222.597 16.97 222.71 17.0733 222.87 17.16C223.03 17.2467 223.244 17.3133 223.51 17.36C223.784 17.4133 224.127 17.44 224.54 17.44C224.987 17.44 225.354 17.4133 225.64 17.36C225.927 17.3067 226.154 17.2333 226.32 17.14C226.494 17.0467 226.614 16.9333 226.68 16.8C226.747 16.6733 226.78 16.5333 226.78 16.38ZM224.48 10.27C224.994 10.27 225.364 10.1433 225.59 9.89C225.824 9.63 225.94 9.29667 225.94 8.89C225.94 8.47 225.824 8.14 225.59 7.9C225.364 7.66 224.994 7.54 224.48 7.54C223.967 7.54 223.594 7.66 223.36 7.9C223.134 8.14 223.02 8.47 223.02 8.89C223.02 9.09 223.047 9.27333 223.1 9.44C223.16 9.60667 223.25 9.75333 223.37 9.88C223.49 10 223.64 10.0967 223.82 10.17C224.007 10.2367 224.227 10.27 224.48 10.27ZM237.829 7.9C237.749 8.02667 237.662 8.11667 237.569 8.17C237.482 8.22333 237.369 8.25 237.229 8.25C237.082 8.25 236.936 8.22 236.789 8.16C236.642 8.09333 236.482 8.02333 236.309 7.95C236.142 7.87667 235.952 7.81 235.739 7.75C235.526 7.68333 235.282 7.65 235.009 7.65C234.616 7.65 234.312 7.72667 234.099 7.88C233.892 8.02667 233.789 8.23333 233.789 8.5C233.789 8.69333 233.856 8.85333 233.989 8.98C234.129 9.10667 234.312 9.22 234.539 9.32C234.766 9.41333 235.022 9.50333 235.309 9.59C235.596 9.67667 235.889 9.77333 236.189 9.88C236.489 9.98667 236.782 10.1133 237.069 10.26C237.356 10.4 237.612 10.5767 237.839 10.79C238.066 10.9967 238.246 11.25 238.379 11.55C238.519 11.85 238.589 12.21 238.589 12.63C238.589 13.1433 238.496 13.6167 238.309 14.05C238.122 14.4833 237.842 14.8567 237.469 15.17C237.102 15.4833 236.646 15.7267 236.099 15.9C235.559 16.0733 234.936 16.16 234.229 16.16C233.876 16.16 233.522 16.1267 233.169 16.06C232.816 15.9933 232.472 15.9033 232.139 15.79C231.812 15.6767 231.509 15.5433 231.229 15.39C230.949 15.23 230.709 15.06 230.509 14.88L231.229 13.74C231.316 13.6067 231.419 13.5033 231.539 13.43C231.659 13.35 231.816 13.31 232.009 13.31C232.189 13.31 232.349 13.35 232.489 13.43C232.636 13.51 232.792 13.5967 232.959 13.69C233.126 13.7833 233.319 13.87 233.539 13.95C233.766 14.03 234.049 14.07 234.389 14.07C234.629 14.07 234.832 14.0467 234.999 14C235.166 13.9467 235.299 13.8767 235.399 13.79C235.499 13.7033 235.572 13.6067 235.619 13.5C235.666 13.3933 235.689 13.2833 235.689 13.17C235.689 12.9633 235.619 12.7933 235.479 12.66C235.339 12.5267 235.156 12.4133 234.929 12.32C234.702 12.22 234.442 12.13 234.149 12.05C233.862 11.9633 233.569 11.8667 233.269 11.76C232.969 11.6533 232.672 11.5267 232.379 11.38C232.092 11.2267 231.836 11.0367 231.609 10.81C231.382 10.5767 231.199 10.2933 231.059 9.96C230.919 9.62667 230.849 9.22333 230.849 8.75C230.849 8.31 230.932 7.89333 231.099 7.5C231.272 7.1 231.529 6.75 231.869 6.45C232.209 6.15 232.636 5.91333 233.149 5.74C233.662 5.56 234.262 5.47 234.949 5.47C235.322 5.47 235.682 5.50333 236.029 5.57C236.382 5.63667 236.712 5.73 237.019 5.85C237.326 5.97 237.606 6.11333 237.859 6.28C238.112 6.44 238.336 6.61667 238.529 6.81L237.829 7.9ZM244.565 16V1.03H247.665V6.54C248.038 6.22 248.442 5.96333 248.875 5.77C249.315 5.57 249.838 5.47 250.445 5.47C251.012 5.47 251.512 5.57 251.945 5.77C252.385 5.96333 252.755 6.23667 253.055 6.59C253.355 6.93667 253.582 7.35333 253.735 7.84C253.888 8.32 253.965 8.84333 253.965 9.41V16H250.865V9.41C250.865 8.90333 250.748 8.51 250.515 8.23C250.282 7.94333 249.938 7.8 249.485 7.8C249.145 7.8 248.825 7.87333 248.525 8.02C248.225 8.16667 247.938 8.36333 247.665 8.61V16H244.565ZM263.526 16C263.233 16 263.01 15.96 262.856 15.88C262.71 15.8 262.586 15.6333 262.486 15.38L262.266 14.81C262.006 15.03 261.756 15.2233 261.516 15.39C261.276 15.5567 261.026 15.7 260.766 15.82C260.513 15.9333 260.24 16.0167 259.946 16.07C259.66 16.13 259.34 16.16 258.986 16.16C258.513 16.16 258.083 16.1 257.696 15.98C257.31 15.8533 256.98 15.67 256.706 15.43C256.44 15.19 256.233 14.8933 256.086 14.54C255.94 14.18 255.866 13.7667 255.866 13.3C255.866 12.9333 255.96 12.5567 256.146 12.17C256.333 11.7833 256.656 11.4333 257.116 11.12C257.576 10.8 258.196 10.5333 258.976 10.32C259.756 10.1067 260.74 9.98667 261.926 9.96V9.52C261.926 8.91333 261.8 8.47667 261.546 8.21C261.3 7.93667 260.946 7.8 260.486 7.8C260.12 7.8 259.82 7.84 259.586 7.92C259.353 8 259.143 8.09 258.956 8.19C258.776 8.29 258.6 8.38 258.426 8.46C258.253 8.54 258.046 8.58 257.806 8.58C257.593 8.58 257.41 8.53 257.256 8.43C257.11 8.32333 256.993 8.19333 256.906 8.04L256.346 7.07C256.973 6.51667 257.666 6.10667 258.426 5.84C259.193 5.56667 260.013 5.43 260.886 5.43C261.513 5.43 262.076 5.53333 262.576 5.74C263.083 5.94 263.51 6.22333 263.856 6.59C264.21 6.95 264.48 7.38 264.666 7.88C264.853 8.38 264.946 8.92667 264.946 9.52V16H263.526ZM259.966 14.11C260.366 14.11 260.716 14.04 261.016 13.9C261.316 13.76 261.62 13.5333 261.926 13.22V11.78C261.306 11.8067 260.796 11.86 260.396 11.94C259.996 12.02 259.68 12.12 259.446 12.24C259.213 12.36 259.05 12.4967 258.956 12.65C258.87 12.8033 258.826 12.97 258.826 13.15C258.826 13.5033 258.923 13.7533 259.116 13.9C259.31 14.04 259.593 14.11 259.966 14.11ZM267.348 19.29V5.63H269.268C269.461 5.63 269.621 5.67333 269.748 5.76C269.881 5.84667 269.974 5.97667 270.028 6.15L270.258 6.91C270.458 6.69 270.671 6.49 270.898 6.31C271.131 6.13 271.378 5.97667 271.638 5.85C271.904 5.71667 272.188 5.61333 272.488 5.54C272.794 5.46667 273.128 5.43 273.488 5.43C274.028 5.43 274.528 5.55 274.988 5.79C275.448 6.03 275.844 6.37667 276.178 6.83C276.511 7.28333 276.771 7.84 276.958 8.5C277.151 9.15333 277.248 9.89667 277.248 10.73C277.248 11.51 277.138 12.23 276.918 12.89C276.704 13.55 276.401 14.1233 276.008 14.61C275.621 15.0967 275.154 15.4767 274.608 15.75C274.068 16.0233 273.468 16.16 272.808 16.16C272.268 16.16 271.814 16.0833 271.448 15.93C271.081 15.7767 270.748 15.57 270.448 15.31V19.29H267.348ZM272.408 7.8C272.181 7.8 271.974 7.82333 271.788 7.87C271.608 7.91 271.438 7.97 271.278 8.05C271.124 8.13 270.981 8.23333 270.848 8.36C270.714 8.48 270.581 8.62 270.448 8.78V13.18C270.681 13.44 270.934 13.6233 271.208 13.73C271.481 13.83 271.768 13.88 272.068 13.88C272.354 13.88 272.618 13.8233 272.858 13.71C273.098 13.5967 273.304 13.4167 273.478 13.17C273.658 12.9167 273.798 12.59 273.898 12.19C273.998 11.79 274.048 11.3033 274.048 10.73C274.048 10.1833 274.008 9.72333 273.928 9.35C273.848 8.97667 273.734 8.67667 273.588 8.45C273.448 8.21667 273.278 8.05 273.078 7.95C272.878 7.85 272.654 7.8 272.408 7.8ZM279.11 19.29V5.63H281.03C281.223 5.63 281.383 5.67333 281.51 5.76C281.643 5.84667 281.737 5.97667 281.79 6.15L282.02 6.91C282.22 6.69 282.433 6.49 282.66 6.31C282.893 6.13 283.14 5.97667 283.4 5.85C283.667 5.71667 283.95 5.61333 284.25 5.54C284.557 5.46667 284.89 5.43 285.25 5.43C285.79 5.43 286.29 5.55 286.75 5.79C287.21 6.03 287.607 6.37667 287.94 6.83C288.273 7.28333 288.533 7.84 288.72 8.5C288.913 9.15333 289.01 9.89667 289.01 10.73C289.01 11.51 288.9 12.23 288.68 12.89C288.467 13.55 288.163 14.1233 287.77 14.61C287.383 15.0967 286.917 15.4767 286.37 15.75C285.83 16.0233 285.23 16.16 284.57 16.16C284.03 16.16 283.577 16.0833 283.21 15.93C282.843 15.7767 282.51 15.57 282.21 15.31V19.29H279.11ZM284.17 7.8C283.943 7.8 283.737 7.82333 283.55 7.87C283.37 7.91 283.2 7.97 283.04 8.05C282.887 8.13 282.743 8.23333 282.61 8.36C282.477 8.48 282.343 8.62 282.21 8.78V13.18C282.443 13.44 282.697 13.6233 282.97 13.73C283.243 13.83 283.53 13.88 283.83 13.88C284.117 13.88 284.38 13.8233 284.62 13.71C284.86 13.5967 285.067 13.4167 285.24 13.17C285.42 12.9167 285.56 12.59 285.66 12.19C285.76 11.79 285.81 11.3033 285.81 10.73C285.81 10.1833 285.77 9.72333 285.69 9.35C285.61 8.97667 285.497 8.67667 285.35 8.45C285.21 8.21667 285.04 8.05 284.84 7.95C284.64 7.85 284.417 7.8 284.17 7.8ZM295.313 5.47C295.999 5.47 296.626 5.57667 297.193 5.79C297.766 6.00333 298.256 6.31333 298.663 6.72C299.076 7.12667 299.396 7.62667 299.623 8.22C299.856 8.80667 299.973 9.47333 299.973 10.22C299.973 10.4533 299.963 10.6433 299.943 10.79C299.923 10.9367 299.886 11.0533 299.833 11.14C299.779 11.2267 299.706 11.2867 299.613 11.32C299.526 11.3533 299.413 11.37 299.273 11.37H293.293C293.393 12.2367 293.656 12.8667 294.083 13.26C294.509 13.6467 295.059 13.84 295.733 13.84C296.093 13.84 296.403 13.7967 296.663 13.71C296.923 13.6233 297.153 13.5267 297.353 13.42C297.559 13.3133 297.746 13.2167 297.913 13.13C298.086 13.0433 298.266 13 298.453 13C298.699 13 298.886 13.09 299.013 13.27L299.913 14.38C299.593 14.7467 299.246 15.0467 298.873 15.28C298.506 15.5067 298.126 15.6867 297.733 15.82C297.346 15.9467 296.956 16.0333 296.563 16.08C296.176 16.1333 295.806 16.16 295.453 16.16C294.726 16.16 294.043 16.0433 293.403 15.81C292.769 15.57 292.213 15.2167 291.733 14.75C291.259 14.2833 290.883 13.7033 290.603 13.01C290.329 12.3167 290.193 11.51 290.193 10.59C290.193 9.89667 290.309 9.24 290.543 8.62C290.783 8 291.123 7.45667 291.563 6.99C292.009 6.52333 292.546 6.15333 293.173 5.88C293.806 5.60667 294.519 5.47 295.313 5.47ZM295.373 7.61C294.779 7.61 294.316 7.78 293.983 8.12C293.649 8.45333 293.429 8.93667 293.323 9.57H297.193C297.193 9.32333 297.159 9.08333 297.093 8.85C297.033 8.61667 296.929 8.41 296.783 8.23C296.643 8.04333 296.456 7.89333 296.223 7.78C295.989 7.66667 295.706 7.61 295.373 7.61ZM301.952 16V5.63H303.872C304.065 5.63 304.225 5.67333 304.352 5.76C304.485 5.84667 304.578 5.97667 304.632 6.15L304.812 6.75C305.012 6.56333 305.218 6.39 305.432 6.23C305.645 6.07 305.872 5.93667 306.112 5.83C306.358 5.71667 306.622 5.63 306.902 5.57C307.188 5.50333 307.498 5.47 307.832 5.47C308.398 5.47 308.898 5.57 309.332 5.77C309.772 5.96333 310.142 6.23667 310.442 6.59C310.742 6.93667 310.968 7.35333 311.122 7.84C311.275 8.32 311.352 8.84333 311.352 9.41V16H308.252V9.41C308.252 8.90333 308.135 8.51 307.902 8.23C307.668 7.94333 307.325 7.8 306.872 7.8C306.532 7.8 306.212 7.87333 305.912 8.02C305.612 8.16667 305.325 8.36333 305.052 8.61V16H301.952ZM313.153 14.43C313.153 14.19 313.196 13.9667 313.283 13.76C313.376 13.5533 313.5 13.3733 313.653 13.22C313.813 13.0667 314 12.9467 314.213 12.86C314.426 12.7667 314.66 12.72 314.913 12.72C315.16 12.72 315.39 12.7667 315.603 12.86C315.816 12.9467 316.003 13.0667 316.163 13.22C316.323 13.3733 316.446 13.5533 316.533 13.76C316.626 13.9667 316.673 14.19 316.673 14.43C316.673 14.67 316.626 14.8967 316.533 15.11C316.446 15.3167 316.323 15.4967 316.163 15.65C316.003 15.8033 315.816 15.9233 315.603 16.01C315.39 16.0967 315.16 16.14 314.913 16.14C314.66 16.14 314.426 16.0967 314.213 16.01C314 15.9233 313.813 15.8033 313.653 15.65C313.5 15.4967 313.376 15.3167 313.283 15.11C313.196 14.8967 313.153 14.67 313.153 14.43Z" fill="#121111"/>
</svg>
