<svg width="268" height="364" viewBox="0 0 268 364" fill="none" xmlns="http://www.w3.org/2000/svg">
<path d="M42.32 16.72V27.12H18.4V41.88H38.32V52.32H18.4V75H4.8V16.72H42.32ZM63.6513 53.44V75H50.1312V16.72H69.0913C73.3046 16.72 76.8913 17.16 79.8513 18.04C82.8379 18.8933 85.2646 20.0933 87.1313 21.64C89.0246 23.1867 90.3979 25.0133 91.2512 27.12C92.1046 29.2267 92.5313 31.52 92.5313 34C92.5313 35.8933 92.2779 37.68 91.7712 39.36C91.2646 41.04 90.5046 42.6 89.4913 44.04C88.5046 45.4533 87.2779 46.72 85.8113 47.84C84.3713 48.96 82.7046 49.88 80.8113 50.6C81.7179 51.0533 82.5579 51.6133 83.3313 52.28C84.1313 52.9467 84.8246 53.76 85.4113 54.72L97.8113 75H85.5713C83.3046 75 81.6779 74.1467 80.6913 72.44L71.0113 55.52C70.5846 54.7733 70.0779 54.24 69.4913 53.92C68.9312 53.6 68.1312 53.44 67.0913 53.44H63.6513ZM63.6513 44.12H69.0913C70.9313 44.12 72.4913 43.8933 73.7713 43.44C75.0779 42.96 76.1446 42.3067 76.9712 41.48C77.7979 40.6533 78.3979 39.6933 78.7713 38.6C79.1446 37.48 79.3313 36.28 79.3313 35C79.3313 32.44 78.4913 30.44 76.8113 29C75.1579 27.56 72.5846 26.84 69.0913 26.84H63.6513V44.12ZM159.623 45.84C159.623 50.0533 158.89 53.9733 157.423 57.6C155.983 61.2267 153.943 64.3867 151.303 67.08C148.663 69.7467 145.476 71.84 141.743 73.36C138.036 74.88 133.916 75.64 129.383 75.64C124.85 75.64 120.716 74.88 116.983 73.36C113.25 71.84 110.05 69.7467 107.383 67.08C104.743 64.3867 102.69 61.2267 101.223 57.6C99.7831 53.9733 99.0631 50.0533 99.0631 45.84C99.0631 41.6267 99.7831 37.7067 101.223 34.08C102.69 30.4533 104.743 27.3067 107.383 24.64C110.05 21.9733 113.25 19.88 116.983 18.36C120.716 16.84 124.85 16.08 129.383 16.08C133.916 16.08 138.036 16.8533 141.743 18.4C145.476 19.92 148.663 22.0133 151.303 24.68C153.943 27.3467 155.983 30.4933 157.423 34.12C158.89 37.7467 159.623 41.6533 159.623 45.84ZM145.783 45.84C145.783 42.96 145.41 40.3733 144.663 38.08C143.916 35.76 142.836 33.8 141.423 32.2C140.036 30.6 138.33 29.3733 136.303 28.52C134.276 27.6667 131.97 27.24 129.383 27.24C126.77 27.24 124.436 27.6667 122.383 28.52C120.356 29.3733 118.636 30.6 117.223 32.2C115.836 33.8 114.77 35.76 114.023 38.08C113.276 40.3733 112.903 42.96 112.903 45.84C112.903 48.7467 113.276 51.36 114.023 53.68C114.77 55.9733 115.836 57.92 117.223 59.52C118.636 61.12 120.356 62.3467 122.383 63.2C124.436 64.0267 126.77 64.44 129.383 64.44C131.97 64.44 134.276 64.0267 136.303 63.2C138.33 62.3467 140.036 61.12 141.423 59.52C142.836 57.92 143.916 55.9733 144.663 53.68C145.41 51.36 145.783 48.7467 145.783 45.84ZM196.687 48.36C197.221 49.3733 197.727 50.4267 198.207 51.52C198.714 52.6133 199.194 53.7333 199.647 54.88C200.101 53.7067 200.581 52.5733 201.087 51.48C201.594 50.36 202.114 49.28 202.647 48.24L217.607 18.8C217.874 18.2933 218.141 17.9067 218.407 17.64C218.701 17.3467 219.021 17.1333 219.367 17C219.714 16.8667 220.101 16.7867 220.527 16.76C220.981 16.7333 221.501 16.72 222.087 16.72H232.407V75H220.487V41.48C220.487 39.8533 220.567 38.0933 220.727 36.2L205.287 66.16C204.807 67.0933 204.154 67.8 203.327 68.28C202.527 68.76 201.607 69 200.567 69H198.727C197.687 69 196.754 68.76 195.927 68.28C195.127 67.8 194.487 67.0933 194.007 66.16L178.487 36.16C178.594 37.0933 178.674 38.0267 178.727 38.96C178.781 39.8667 178.807 40.7067 178.807 41.48V75H166.887V16.72H177.207C177.794 16.72 178.301 16.7333 178.727 16.76C179.181 16.7867 179.581 16.8667 179.927 17C180.274 17.1333 180.581 17.3467 180.847 17.64C181.141 17.9067 181.421 18.2933 181.687 18.8L196.687 48.36ZM4.8 163V104.72H26.24C30.2667 104.72 33.6933 105.093 36.52 105.84C39.3467 106.587 41.6533 107.64 43.44 109C45.2267 110.36 46.52 112.013 47.32 113.96C48.1467 115.907 48.56 118.08 48.56 120.48C48.56 121.787 48.3733 123.053 48 124.28C47.6267 125.48 47.04 126.613 46.24 127.68C45.44 128.747 44.4133 129.72 43.16 130.6C41.9067 131.453 40.4 132.2 38.64 132.84C42.48 133.773 45.32 135.293 47.16 137.4C49 139.48 49.92 142.16 49.92 145.44C49.92 147.92 49.44 150.227 48.48 152.36C47.52 154.493 46.1067 156.36 44.24 157.96C42.4 159.533 40.12 160.773 37.4 161.68C34.68 162.56 31.5733 163 28.08 163H4.8ZM18.32 138.28V152.8H27.84C29.6267 152.8 31.08 152.573 32.2 152.12C33.3467 151.667 34.24 151.08 34.88 150.36C35.52 149.64 35.96 148.827 36.2 147.92C36.44 147.013 36.56 146.093 36.56 145.16C36.56 144.093 36.4133 143.133 36.12 142.28C35.8533 141.427 35.3733 140.707 34.68 140.12C34.0133 139.533 33.12 139.08 32 138.76C30.88 138.44 29.4667 138.28 27.76 138.28H18.32ZM18.32 129.24H25.36C26.8533 129.24 28.2 129.133 29.4 128.92C30.6 128.707 31.6133 128.333 32.44 127.8C33.2933 127.267 33.9333 126.533 34.36 125.6C34.8133 124.667 35.04 123.493 35.04 122.08C35.04 120.693 34.8667 119.547 34.52 118.64C34.1733 117.707 33.64 116.96 32.92 116.4C32.2 115.84 31.28 115.44 30.16 115.2C29.0667 114.96 27.76 114.84 26.24 114.84H18.32V129.24ZM71.62 152.2H93.22V163H58.1V104.72H71.62V152.2ZM154.701 133.84C154.701 138.053 153.968 141.973 152.501 145.6C151.061 149.227 149.021 152.387 146.381 155.08C143.741 157.747 140.555 159.84 136.821 161.36C133.115 162.88 128.995 163.64 124.461 163.64C119.928 163.64 115.795 162.88 112.061 161.36C108.328 159.84 105.128 157.747 102.461 155.08C99.8212 152.387 97.7679 149.227 96.3012 145.6C94.8612 141.973 94.1412 138.053 94.1412 133.84C94.1412 129.627 94.8612 125.707 96.3012 122.08C97.7679 118.453 99.8212 115.307 102.461 112.64C105.128 109.973 108.328 107.88 112.061 106.36C115.795 104.84 119.928 104.08 124.461 104.08C128.995 104.08 133.115 104.853 136.821 106.4C140.555 107.92 143.741 110.013 146.381 112.68C149.021 115.347 151.061 118.493 152.501 122.12C153.968 125.747 154.701 129.653 154.701 133.84ZM140.861 133.84C140.861 130.96 140.488 128.373 139.741 126.08C138.995 123.76 137.915 121.8 136.501 120.2C135.115 118.6 133.408 117.373 131.381 116.52C129.355 115.667 127.048 115.24 124.461 115.24C121.848 115.24 119.515 115.667 117.461 116.52C115.435 117.373 113.715 118.6 112.301 120.2C110.915 121.8 109.848 123.76 109.101 126.08C108.355 128.373 107.981 130.96 107.981 133.84C107.981 136.747 108.355 139.36 109.101 141.68C109.848 143.973 110.915 145.92 112.301 147.52C113.715 149.12 115.435 150.347 117.461 151.2C119.515 152.027 121.848 152.44 124.461 152.44C127.048 152.44 129.355 152.027 131.381 151.2C133.408 150.347 135.115 149.12 136.501 147.52C137.915 145.92 138.995 143.973 139.741 141.68C140.488 139.36 140.861 136.747 140.861 133.84ZM201.126 147.92C201.446 147.92 201.766 147.987 202.086 148.12C202.406 148.227 202.712 148.427 203.006 148.72L208.366 154.36C206.019 157.427 203.072 159.747 199.526 161.32C196.006 162.867 191.832 163.64 187.006 163.64C182.579 163.64 178.606 162.893 175.086 161.4C171.592 159.88 168.619 157.8 166.166 155.16C163.739 152.493 161.872 149.347 160.566 145.72C159.259 142.067 158.606 138.107 158.606 133.84C158.606 129.493 159.352 125.507 160.846 121.88C162.339 118.227 164.419 115.08 167.086 112.44C169.779 109.8 172.992 107.747 176.726 106.28C180.459 104.813 184.579 104.08 189.086 104.08C191.272 104.08 193.326 104.28 195.246 104.68C197.192 105.053 199.006 105.587 200.686 106.28C202.366 106.947 203.912 107.76 205.326 108.72C206.739 109.653 207.992 110.693 209.086 111.84L204.526 117.96C204.232 118.333 203.886 118.68 203.486 119C203.086 119.293 202.526 119.44 201.806 119.44C201.326 119.44 200.872 119.333 200.446 119.12C200.019 118.907 199.566 118.653 199.086 118.36C198.606 118.04 198.072 117.707 197.486 117.36C196.926 116.987 196.246 116.653 195.446 116.36C194.672 116.04 193.752 115.773 192.686 115.56C191.646 115.347 190.419 115.24 189.006 115.24C186.552 115.24 184.312 115.68 182.286 116.56C180.259 117.413 178.512 118.653 177.046 120.28C175.606 121.88 174.472 123.827 173.646 126.12C172.846 128.413 172.446 130.987 172.446 133.84C172.446 136.827 172.846 139.48 173.646 141.8C174.472 144.12 175.579 146.08 176.966 147.68C178.379 149.253 180.019 150.453 181.886 151.28C183.752 152.107 185.752 152.52 187.886 152.52C189.112 152.52 190.232 152.467 191.246 152.36C192.259 152.227 193.192 152.013 194.046 151.72C194.926 151.427 195.752 151.053 196.526 150.6C197.326 150.12 198.126 149.533 198.926 148.84C199.246 148.573 199.592 148.36 199.966 148.2C200.339 148.013 200.726 147.92 201.126 147.92ZM228.864 128.32H231.024C233.024 128.32 234.464 127.693 235.344 126.44L248.464 107.4C249.184 106.36 249.997 105.653 250.904 105.28C251.837 104.907 252.97 104.72 254.304 104.72H266.064L248.784 128.28C248.17 129.133 247.53 129.84 246.864 130.4C246.197 130.96 245.517 131.427 244.824 131.8C245.837 132.173 246.757 132.693 247.584 133.36C248.437 134 249.21 134.867 249.904 135.96L267.504 163H255.424C254.65 163 253.984 162.947 253.424 162.84C252.89 162.733 252.424 162.573 252.024 162.36C251.624 162.147 251.277 161.893 250.984 161.6C250.69 161.28 250.41 160.92 250.144 160.52L236.944 140.24C236.464 139.493 235.85 138.973 235.104 138.68C234.384 138.36 233.397 138.2 232.144 138.2H228.864V163H215.344V104.72H228.864V128.32ZM47.12 192.72V203.44H30.72V251H17.2V203.44H0.8V192.72H47.12ZM108.589 221.84C108.589 226.053 107.855 229.973 106.389 233.6C104.949 237.227 102.909 240.387 100.269 243.08C97.6288 245.747 94.4421 247.84 90.7088 249.36C87.0021 250.88 82.8821 251.64 78.3488 251.64C73.8154 251.64 69.6821 250.88 65.9487 249.36C62.2154 247.84 59.0154 245.747 56.3487 243.08C53.7087 240.387 51.6554 237.227 50.1887 233.6C48.7487 229.973 48.0287 226.053 48.0287 221.84C48.0287 217.627 48.7487 213.707 50.1887 210.08C51.6554 206.453 53.7087 203.307 56.3487 200.64C59.0154 197.973 62.2154 195.88 65.9487 194.36C69.6821 192.84 73.8154 192.08 78.3488 192.08C82.8821 192.08 87.0021 192.853 90.7088 194.4C94.4421 195.92 97.6288 198.013 100.269 200.68C102.909 203.347 104.949 206.493 106.389 210.12C107.855 213.747 108.589 217.653 108.589 221.84ZM94.7487 221.84C94.7487 218.96 94.3754 216.373 93.6287 214.08C92.8821 211.76 91.8021 209.8 90.3888 208.2C89.0021 206.6 87.2954 205.373 85.2688 204.52C83.2421 203.667 80.9354 203.24 78.3488 203.24C75.7354 203.24 73.4021 203.667 71.3488 204.52C69.3221 205.373 67.6021 206.6 66.1888 208.2C64.8021 209.8 63.7354 211.76 62.9887 214.08C62.2421 216.373 61.8687 218.96 61.8687 221.84C61.8687 224.747 62.2421 227.36 62.9887 229.68C63.7354 231.973 64.8021 233.92 66.1888 235.52C67.6021 237.12 69.3221 238.347 71.3488 239.2C73.4021 240.027 75.7354 240.44 78.3488 240.44C80.9354 240.44 83.2421 240.027 85.2688 239.2C87.2954 238.347 89.0021 237.12 90.3888 235.52C91.8021 233.92 92.8821 231.973 93.6287 229.68C94.3754 227.36 94.7487 224.747 94.7487 221.84ZM4.8 339V280.72H26.24C30.2667 280.72 33.6933 281.093 36.52 281.84C39.3467 282.587 41.6533 283.64 43.44 285C45.2267 286.36 46.52 288.013 47.32 289.96C48.1467 291.907 48.56 294.08 48.56 296.48C48.56 297.787 48.3733 299.053 48 300.28C47.6267 301.48 47.04 302.613 46.24 303.68C45.44 304.747 44.4133 305.72 43.16 306.6C41.9067 307.453 40.4 308.2 38.64 308.84C42.48 309.773 45.32 311.293 47.16 313.4C49 315.48 49.92 318.16 49.92 321.44C49.92 323.92 49.44 326.227 48.48 328.36C47.52 330.493 46.1067 332.36 44.24 333.96C42.4 335.533 40.12 336.773 37.4 337.68C34.68 338.56 31.5733 339 28.08 339H4.8ZM18.32 314.28V328.8H27.84C29.6267 328.8 31.08 328.573 32.2 328.12C33.3467 327.667 34.24 327.08 34.88 326.36C35.52 325.64 35.96 324.827 36.2 323.92C36.44 323.013 36.56 322.093 36.56 321.16C36.56 320.093 36.4133 319.133 36.12 318.28C35.8533 317.427 35.3733 316.707 34.68 316.12C34.0133 315.533 33.12 315.08 32 314.76C30.88 314.44 29.4667 314.28 27.76 314.28H18.32ZM18.32 305.24H25.36C26.8533 305.24 28.2 305.133 29.4 304.92C30.6 304.707 31.6133 304.333 32.44 303.8C33.2933 303.267 33.9333 302.533 34.36 301.6C34.8133 300.667 35.04 299.493 35.04 298.08C35.04 296.693 34.8667 295.547 34.52 294.64C34.1733 293.707 33.64 292.96 32.92 292.4C32.2 291.84 31.28 291.44 30.16 291.2C29.0667 290.96 27.76 290.84 26.24 290.84H18.32V305.24ZM115.62 309.84C115.62 314.053 114.887 317.973 113.42 321.6C111.98 325.227 109.94 328.387 107.3 331.08C104.66 333.747 101.473 335.84 97.74 337.36C94.0333 338.88 89.9133 339.64 85.38 339.64C80.8467 339.64 76.7133 338.88 72.98 337.36C69.2467 335.84 66.0467 333.747 63.38 331.08C60.74 328.387 58.6867 325.227 57.22 321.6C55.78 317.973 55.06 314.053 55.06 309.84C55.06 305.627 55.78 301.707 57.22 298.08C58.6867 294.453 60.74 291.307 63.38 288.64C66.0467 285.973 69.2467 283.88 72.98 282.36C76.7133 280.84 80.8467 280.08 85.38 280.08C89.9133 280.08 94.0333 280.853 97.74 282.4C101.473 283.92 104.66 286.013 107.3 288.68C109.94 291.347 111.98 294.493 113.42 298.12C114.887 301.747 115.62 305.653 115.62 309.84ZM101.78 309.84C101.78 306.96 101.407 304.373 100.66 302.08C99.9133 299.76 98.8333 297.8 97.42 296.2C96.0333 294.6 94.3267 293.373 92.3 292.52C90.2733 291.667 87.9667 291.24 85.38 291.24C82.7667 291.24 80.4333 291.667 78.38 292.52C76.3533 293.373 74.6333 294.6 73.22 296.2C71.8333 297.8 70.7667 299.76 70.02 302.08C69.2733 304.373 68.9 306.96 68.9 309.84C68.9 312.747 69.2733 315.36 70.02 317.68C70.7667 319.973 71.8333 321.92 73.22 323.52C74.6333 325.12 76.3533 326.347 78.38 327.2C80.4333 328.027 82.7667 328.44 85.38 328.44C87.9667 328.44 90.2733 328.027 92.3 327.2C94.3267 326.347 96.0333 325.12 97.42 323.52C98.8333 321.92 99.9133 319.973 100.66 317.68C101.407 315.36 101.78 312.747 101.78 309.84ZM175.764 309.84C175.764 314.053 175.031 317.947 173.564 321.52C172.124 325.067 170.084 328.147 167.444 330.76C164.804 333.347 161.618 335.373 157.884 336.84C154.178 338.28 150.058 339 145.524 339H122.884V280.72H145.524C150.058 280.72 154.178 281.453 157.884 282.92C161.618 284.387 164.804 286.413 167.444 289C170.084 291.587 172.124 294.667 173.564 298.24C175.031 301.787 175.764 305.653 175.764 309.84ZM161.924 309.84C161.924 306.96 161.551 304.36 160.804 302.04C160.058 299.72 158.978 297.76 157.564 296.16C156.178 294.533 154.471 293.293 152.444 292.44C150.418 291.56 148.111 291.12 145.524 291.12H136.484V328.6H145.524C148.111 328.6 150.418 328.173 152.444 327.32C154.471 326.44 156.178 325.2 157.564 323.6C158.978 321.973 160.058 320 160.804 317.68C161.551 315.36 161.924 312.747 161.924 309.84ZM208.896 316.84V339H195.376V316.84L174.256 280.72H186.176C187.35 280.72 188.283 281 188.976 281.56C189.67 282.093 190.23 282.787 190.656 283.64L198.896 300.6C199.563 301.96 200.176 303.213 200.736 304.36C201.296 305.507 201.79 306.64 202.216 307.76C202.616 306.613 203.096 305.467 203.656 304.32C204.216 303.173 204.816 301.933 205.456 300.6L213.616 283.64C213.776 283.293 213.99 282.947 214.256 282.6C214.55 282.253 214.87 281.947 215.216 281.68C215.59 281.387 216.003 281.16 216.456 281C216.936 280.813 217.456 280.72 218.016 280.72H230.016L208.896 316.84Z" fill="#121111"/>
<path d="M240.844 323.219H257.836V336.305C257.836 341.122 256.833 344.924 254.828 347.711C252.823 350.497 249.398 352.958 244.555 355.094L240.844 348.141C243.865 346.734 245.935 345.328 247.055 343.922C248.201 342.542 248.839 340.901 248.969 339H240.844V323.219Z" fill="#121111"/>
</svg>
