<svg width="412" height="25" viewBox="0 0 412 25" fill="none" xmlns="http://www.w3.org/2000/svg">
<path d="M5.37 20H0.95V1.059H5.37V20ZM14.4355 20V0.538999H18.4655V7.949C18.9681 7.455 19.5358 7.06067 20.1685 6.766C20.8098 6.46267 21.5595 6.311 22.4175 6.311C23.1195 6.311 23.7695 6.46267 24.3675 6.766C24.9655 7.06933 25.4811 7.51567 25.9145 8.105C26.3478 8.68567 26.6858 9.40067 26.9285 10.25C27.1798 11.0993 27.3055 12.0657 27.3055 13.149C27.3055 14.163 27.1625 15.099 26.8765 15.957C26.5991 16.815 26.2048 17.5603 25.6935 18.193C25.1908 18.8257 24.5841 19.3197 23.8735 19.675C23.1715 20.0303 22.3915 20.208 21.5335 20.208C21.1348 20.208 20.7751 20.169 20.4545 20.091C20.1425 20.013 19.8521 19.9047 19.5835 19.766C19.3235 19.6187 19.0808 19.4453 18.8555 19.246C18.6388 19.0467 18.4265 18.83 18.2185 18.596L18.0755 19.272C18.0148 19.5493 17.9021 19.74 17.7375 19.844C17.5815 19.948 17.3735 20 17.1135 20H14.4355ZM21.0135 9.34C20.7188 9.34 20.4501 9.37033 20.2075 9.431C19.9735 9.483 19.7525 9.561 19.5445 9.665C19.3451 9.769 19.1588 9.90333 18.9855 10.068C18.8121 10.224 18.6388 10.406 18.4655 10.614V16.334C18.7688 16.672 19.0981 16.9103 19.4535 17.049C19.8088 17.179 20.1815 17.244 20.5715 17.244C20.9441 17.244 21.2865 17.1703 21.5985 17.023C21.9105 16.8757 22.1791 16.6417 22.4045 16.321C22.6385 15.9917 22.8205 15.567 22.9505 15.047C23.0805 14.527 23.1455 13.8943 23.1455 13.149C23.1455 12.4383 23.0935 11.8403 22.9895 11.355C22.8855 10.8697 22.7381 10.4797 22.5475 10.185C22.3655 9.88167 22.1445 9.665 21.8845 9.535C21.6245 9.405 21.3341 9.34 21.0135 9.34ZM33.5475 6.519V15.073C33.5475 15.7403 33.6992 16.256 34.0025 16.62C34.3058 16.984 34.7522 17.166 35.3415 17.166C35.7835 17.166 36.1952 17.075 36.5765 16.893C36.9665 16.711 37.3435 16.4553 37.7075 16.126V6.519H41.7375V20H39.2415C38.7388 20 38.4095 19.7747 38.2535 19.324L38.0065 18.544C37.7465 18.7953 37.4778 19.025 37.2005 19.233C36.9232 19.4323 36.6242 19.6057 36.3035 19.753C35.9915 19.8917 35.6535 20 35.2895 20.078C34.9255 20.1647 34.5268 20.208 34.0935 20.208C33.3568 20.208 32.7025 20.0823 32.1305 19.831C31.5672 19.571 31.0905 19.2113 30.7005 18.752C30.3105 18.2927 30.0158 17.751 29.8165 17.127C29.6172 16.503 29.5175 15.8183 29.5175 15.073V6.519H33.5475ZM49.2795 6.519V20H45.2495V6.519H49.2795ZM49.7475 2.827C49.7475 3.14767 49.6825 3.451 49.5525 3.737C49.4225 4.01433 49.2449 4.26133 49.0195 4.478C48.7942 4.686 48.5299 4.855 48.2265 4.985C47.9319 5.10633 47.6155 5.167 47.2775 5.167C46.9482 5.167 46.6405 5.10633 46.3545 4.985C46.0685 4.855 45.8129 4.686 45.5875 4.478C45.3709 4.26133 45.1975 4.01433 45.0675 3.737C44.9462 3.451 44.8855 3.14767 44.8855 2.827C44.8855 2.49767 44.9462 2.19 45.0675 1.904C45.1975 1.618 45.3709 1.36667 45.5875 1.15C45.8129 0.933333 46.0685 0.764333 46.3545 0.642999C46.6405 0.521666 46.9482 0.461 47.2775 0.461C47.6155 0.461 47.9319 0.521666 48.2265 0.642999C48.5299 0.764333 48.7942 0.933333 49.0195 1.15C49.2449 1.36667 49.4225 1.618 49.5525 1.904C49.6825 2.19 49.7475 2.49767 49.7475 2.827ZM56.9536 0.538999V20H52.9236V0.538999H56.9536ZM69.9317 20C69.6803 20 69.468 19.9437 69.2947 19.831C69.13 19.7183 69.013 19.5493 68.9437 19.324L68.6317 18.297C68.363 18.583 68.0813 18.843 67.7867 19.077C67.492 19.311 67.1713 19.5147 66.8247 19.688C66.4867 19.8527 66.1183 19.9783 65.7197 20.065C65.3297 20.1603 64.905 20.208 64.4457 20.208C63.7437 20.208 63.0937 20.052 62.4957 19.74C61.8977 19.428 61.382 18.9773 60.9487 18.388C60.5153 17.7987 60.173 17.0793 59.9217 16.23C59.679 15.372 59.5577 14.397 59.5577 13.305C59.5577 12.2997 59.6963 11.368 59.9737 10.51C60.251 9.64333 60.641 8.898 61.1437 8.274C61.655 7.64133 62.266 7.14733 62.9767 6.792C63.6873 6.43667 64.4717 6.259 65.3297 6.259C66.023 6.259 66.608 6.363 67.0847 6.571C67.57 6.77033 68.0077 7.03467 68.3977 7.364V0.538999H72.4277V20H69.9317ZM65.8497 17.114C66.1443 17.114 66.4087 17.088 66.6427 17.036C66.8853 16.9753 67.1063 16.893 67.3057 16.789C67.505 16.685 67.6913 16.555 67.8647 16.399C68.0467 16.243 68.2243 16.061 68.3977 15.853V10.133C68.0857 9.795 67.752 9.561 67.3967 9.431C67.05 9.29233 66.6817 9.223 66.2917 9.223C65.919 9.223 65.5767 9.29667 65.2647 9.444C64.9527 9.59133 64.6797 9.82967 64.4457 10.159C64.2203 10.4797 64.0427 10.9 63.9127 11.42C63.7827 11.94 63.7177 12.5683 63.7177 13.305C63.7177 14.0157 63.7697 14.6137 63.8737 15.099C63.9777 15.5843 64.1207 15.9787 64.3027 16.282C64.4933 16.5767 64.7187 16.789 64.9787 16.919C65.2387 17.049 65.529 17.114 65.8497 17.114ZM84.867 6.519V15.073C84.867 15.7403 85.0187 16.256 85.322 16.62C85.6254 16.984 86.0717 17.166 86.661 17.166C87.103 17.166 87.5147 17.075 87.896 16.893C88.286 16.711 88.663 16.4553 89.027 16.126V6.519H93.057V20H90.561C90.0584 20 89.729 19.7747 89.573 19.324L89.326 18.544C89.066 18.7953 88.7974 19.025 88.52 19.233C88.2427 19.4323 87.9437 19.6057 87.623 19.753C87.311 19.8917 86.973 20 86.609 20.078C86.245 20.1647 85.8464 20.208 85.413 20.208C84.6764 20.208 84.022 20.0823 83.45 19.831C82.8867 19.571 82.41 19.2113 82.02 18.752C81.63 18.2927 81.3354 17.751 81.136 17.127C80.9367 16.503 80.837 15.8183 80.837 15.073V6.519H84.867ZM96.4391 24.277V6.519H98.9351C99.1864 6.519 99.3944 6.57533 99.5591 6.688C99.7324 6.80067 99.8537 6.96967 99.9231 7.195L100.222 8.183C100.482 7.897 100.759 7.637 101.054 7.403C101.357 7.169 101.678 6.96967 102.016 6.805C102.363 6.63167 102.731 6.49733 103.121 6.402C103.52 6.30667 103.953 6.259 104.421 6.259C105.123 6.259 105.773 6.415 106.371 6.727C106.969 7.039 107.485 7.48967 107.918 8.079C108.351 8.66833 108.689 9.392 108.932 10.25C109.183 11.0993 109.309 12.0657 109.309 13.149C109.309 14.163 109.166 15.099 108.88 15.957C108.603 16.815 108.208 17.5603 107.697 18.193C107.194 18.8257 106.588 19.3197 105.877 19.675C105.175 20.0303 104.395 20.208 103.537 20.208C102.835 20.208 102.246 20.1083 101.769 19.909C101.292 19.7097 100.859 19.441 100.469 19.103V24.277H96.4391ZM103.017 9.34C102.722 9.34 102.454 9.37033 102.211 9.431C101.977 9.483 101.756 9.561 101.548 9.665C101.349 9.769 101.162 9.90333 100.989 10.068C100.816 10.224 100.642 10.406 100.469 10.614V16.334C100.772 16.672 101.102 16.9103 101.457 17.049C101.812 17.179 102.185 17.244 102.575 17.244C102.948 17.244 103.29 17.1703 103.602 17.023C103.914 16.8757 104.183 16.6417 104.408 16.321C104.642 15.9917 104.824 15.567 104.954 15.047C105.084 14.527 105.149 13.8943 105.149 13.149C105.149 12.4383 105.097 11.8403 104.993 11.355C104.889 10.8697 104.742 10.4797 104.551 10.185C104.369 9.88167 104.148 9.665 103.888 9.535C103.628 9.405 103.338 9.34 103.017 9.34ZM126.326 20C125.944 20 125.654 19.948 125.455 19.844C125.264 19.74 125.104 19.5233 124.974 19.194L124.688 18.453C124.35 18.739 124.025 18.9903 123.713 19.207C123.401 19.4237 123.076 19.61 122.738 19.766C122.408 19.9133 122.053 20.0217 121.672 20.091C121.299 20.169 120.883 20.208 120.424 20.208C119.808 20.208 119.249 20.13 118.747 19.974C118.244 19.8093 117.815 19.571 117.46 19.259C117.113 18.947 116.844 18.5613 116.654 18.102C116.463 17.634 116.368 17.0967 116.368 16.49C116.368 16.0133 116.489 15.5237 116.732 15.021C116.974 14.5183 117.395 14.0633 117.993 13.656C118.591 13.24 119.397 12.8933 120.411 12.616C121.425 12.3387 122.703 12.1827 124.246 12.148V11.576C124.246 10.7873 124.081 10.2197 123.752 9.873C123.431 9.51767 122.972 9.34 122.374 9.34C121.897 9.34 121.507 9.392 121.204 9.496C120.9 9.6 120.627 9.717 120.385 9.847C120.151 9.977 119.921 10.094 119.696 10.198C119.47 10.302 119.202 10.354 118.89 10.354C118.612 10.354 118.374 10.289 118.175 10.159C117.984 10.0203 117.832 9.85133 117.72 9.652L116.992 8.391C117.806 7.67167 118.708 7.13867 119.696 6.792C120.692 6.43667 121.758 6.259 122.894 6.259C123.708 6.259 124.441 6.39333 125.091 6.662C125.749 6.922 126.304 7.29033 126.755 7.767C127.214 8.235 127.565 8.794 127.808 9.444C128.05 10.094 128.172 10.8047 128.172 11.576V20H126.326ZM121.698 17.543C122.218 17.543 122.673 17.452 123.063 17.27C123.453 17.088 123.847 16.7933 124.246 16.386V14.514C123.44 14.5487 122.777 14.618 122.257 14.722C121.737 14.826 121.325 14.956 121.022 15.112C120.718 15.268 120.506 15.4457 120.385 15.645C120.272 15.8443 120.216 16.061 120.216 16.295C120.216 16.7543 120.341 17.0793 120.593 17.27C120.844 17.452 121.212 17.543 121.698 17.543ZM131.293 20V6.519H133.789C134.041 6.519 134.249 6.57533 134.413 6.688C134.587 6.80067 134.708 6.96967 134.777 7.195L135.011 7.975C135.271 7.73233 135.54 7.507 135.817 7.299C136.095 7.091 136.389 6.91767 136.701 6.779C137.022 6.63167 137.364 6.519 137.728 6.441C138.101 6.35433 138.504 6.311 138.937 6.311C139.674 6.311 140.324 6.441 140.887 6.701C141.459 6.95233 141.94 7.30767 142.33 7.767C142.72 8.21767 143.015 8.75933 143.214 9.392C143.414 10.016 143.513 10.6963 143.513 11.433V20H139.483V11.433C139.483 10.7743 139.332 10.263 139.028 9.899C138.725 9.52633 138.279 9.34 137.689 9.34C137.247 9.34 136.831 9.43533 136.441 9.626C136.051 9.81667 135.679 10.0723 135.323 10.393V20H131.293ZM156.099 20C155.848 20 155.636 19.9437 155.462 19.831C155.298 19.7183 155.181 19.5493 155.111 19.324L154.799 18.297C154.531 18.583 154.249 18.843 153.954 19.077C153.66 19.311 153.339 19.5147 152.992 19.688C152.654 19.8527 152.286 19.9783 151.887 20.065C151.497 20.1603 151.073 20.208 150.613 20.208C149.911 20.208 149.261 20.052 148.663 19.74C148.065 19.428 147.55 18.9773 147.116 18.388C146.683 17.7987 146.341 17.0793 146.089 16.23C145.847 15.372 145.725 14.397 145.725 13.305C145.725 12.2997 145.864 11.368 146.141 10.51C146.419 9.64333 146.809 8.898 147.311 8.274C147.823 7.64133 148.434 7.14733 149.144 6.792C149.855 6.43667 150.639 6.259 151.497 6.259C152.191 6.259 152.776 6.363 153.252 6.571C153.738 6.77033 154.175 7.03467 154.565 7.364V0.538999H158.595V20H156.099ZM152.017 17.114C152.312 17.114 152.576 17.088 152.81 17.036C153.053 16.9753 153.274 16.893 153.473 16.789C153.673 16.685 153.859 16.555 154.032 16.399C154.214 16.243 154.392 16.061 154.565 15.853V10.133C154.253 9.795 153.92 9.561 153.564 9.431C153.218 9.29233 152.849 9.223 152.459 9.223C152.087 9.223 151.744 9.29667 151.432 9.444C151.12 9.59133 150.847 9.82967 150.613 10.159C150.388 10.4797 150.21 10.9 150.08 11.42C149.95 11.94 149.885 12.5683 149.885 13.305C149.885 14.0157 149.937 14.6137 150.041 15.099C150.145 15.5843 150.288 15.9787 150.47 16.282C150.661 16.5767 150.886 16.789 151.146 16.919C151.406 17.049 151.697 17.114 152.017 17.114ZM167.265 20V6.519H169.761C170.012 6.519 170.22 6.57533 170.385 6.688C170.558 6.80067 170.679 6.96967 170.749 7.195L170.97 7.923C171.195 7.689 171.429 7.47667 171.672 7.286C171.914 7.08667 172.174 6.91767 172.452 6.779C172.738 6.63167 173.041 6.519 173.362 6.441C173.691 6.35433 174.051 6.311 174.441 6.311C175.255 6.311 175.927 6.52333 176.456 6.948C176.993 7.364 177.4 7.923 177.678 8.625C177.903 8.209 178.176 7.85367 178.497 7.559C178.826 7.26433 179.177 7.026 179.55 6.844C179.931 6.662 180.33 6.52767 180.746 6.441C181.17 6.35433 181.591 6.311 182.007 6.311C182.778 6.311 183.463 6.428 184.061 6.662C184.659 6.88733 185.157 7.221 185.556 7.663C185.963 8.09633 186.271 8.63367 186.479 9.275C186.687 9.90767 186.791 10.627 186.791 11.433V20H182.761V11.433C182.761 10.0377 182.163 9.34 180.967 9.34C180.421 9.34 179.966 9.522 179.602 9.886C179.246 10.2413 179.069 10.757 179.069 11.433V20H175.039V11.433C175.039 10.6617 174.887 10.12 174.584 9.808C174.28 9.496 173.834 9.34 173.245 9.34C172.881 9.34 172.534 9.42233 172.205 9.587C171.884 9.75167 171.581 9.97267 171.295 10.25V20H167.265ZM199.227 20C198.846 20 198.556 19.948 198.356 19.844C198.166 19.74 198.005 19.5233 197.875 19.194L197.589 18.453C197.251 18.739 196.926 18.9903 196.614 19.207C196.302 19.4237 195.977 19.61 195.639 19.766C195.31 19.9133 194.955 20.0217 194.573 20.091C194.201 20.169 193.785 20.208 193.325 20.208C192.71 20.208 192.151 20.13 191.648 19.974C191.146 19.8093 190.717 19.571 190.361 19.259C190.015 18.947 189.746 18.5613 189.555 18.102C189.365 17.634 189.269 17.0967 189.269 16.49C189.269 16.0133 189.391 15.5237 189.633 15.021C189.876 14.5183 190.296 14.0633 190.894 13.656C191.492 13.24 192.298 12.8933 193.312 12.616C194.326 12.3387 195.605 12.1827 197.147 12.148V11.576C197.147 10.7873 196.983 10.2197 196.653 9.873C196.333 9.51767 195.873 9.34 195.275 9.34C194.799 9.34 194.409 9.392 194.105 9.496C193.802 9.6 193.529 9.717 193.286 9.847C193.052 9.977 192.823 10.094 192.597 10.198C192.372 10.302 192.103 10.354 191.791 10.354C191.514 10.354 191.276 10.289 191.076 10.159C190.886 10.0203 190.734 9.85133 190.621 9.652L189.893 8.391C190.708 7.67167 191.609 7.13867 192.597 6.792C193.594 6.43667 194.66 6.259 195.795 6.259C196.61 6.259 197.342 6.39333 197.992 6.662C198.651 6.922 199.206 7.29033 199.656 7.767C200.116 8.235 200.467 8.794 200.709 9.444C200.952 10.094 201.073 10.8047 201.073 11.576V20H199.227ZM194.599 17.543C195.119 17.543 195.574 17.452 195.964 17.27C196.354 17.088 196.749 16.7933 197.147 16.386V14.514C196.341 14.5487 195.678 14.618 195.158 14.722C194.638 14.826 194.227 14.956 193.923 15.112C193.62 15.268 193.408 15.4457 193.286 15.645C193.174 15.8443 193.117 16.061 193.117 16.295C193.117 16.7543 193.243 17.0793 193.494 17.27C193.746 17.452 194.114 17.543 194.599 17.543ZM208.225 0.538999V11.446H208.823C209.074 11.446 209.265 11.4113 209.395 11.342C209.534 11.2727 209.664 11.147 209.785 10.965L212.333 7.169C212.48 6.94367 212.654 6.779 212.853 6.675C213.061 6.571 213.321 6.519 213.633 6.519H217.325L213.841 11.316C213.676 11.5413 213.494 11.7407 213.295 11.914C213.104 12.0873 212.896 12.2433 212.671 12.382C213.061 12.6767 213.399 13.0667 213.685 13.552L217.481 20H213.841C213.538 20 213.273 19.9523 213.048 19.857C212.831 19.753 212.654 19.5753 212.515 19.324L209.967 14.553C209.846 14.3363 209.72 14.1977 209.59 14.137C209.46 14.0677 209.265 14.033 209.005 14.033H208.225V20H204.195V0.538999H208.225ZM224.42 6.311C225.313 6.311 226.128 6.44967 226.864 6.727C227.61 7.00433 228.247 7.40733 228.775 7.936C229.313 8.46467 229.729 9.11467 230.023 9.886C230.327 10.6487 230.478 11.5153 230.478 12.486C230.478 12.7893 230.465 13.0363 230.439 13.227C230.413 13.4177 230.366 13.5693 230.296 13.682C230.227 13.7947 230.132 13.8727 230.01 13.916C229.898 13.9593 229.75 13.981 229.568 13.981H221.794C221.924 15.1077 222.267 15.9267 222.821 16.438C223.376 16.9407 224.091 17.192 224.966 17.192C225.434 17.192 225.837 17.1357 226.175 17.023C226.513 16.9103 226.812 16.7847 227.072 16.646C227.341 16.5073 227.584 16.3817 227.8 16.269C228.026 16.1563 228.26 16.1 228.502 16.1C228.823 16.1 229.066 16.217 229.23 16.451L230.4 17.894C229.984 18.3707 229.534 18.7607 229.048 19.064C228.572 19.3587 228.078 19.5927 227.566 19.766C227.064 19.9307 226.557 20.0433 226.045 20.104C225.543 20.1733 225.062 20.208 224.602 20.208C223.658 20.208 222.769 20.0563 221.937 19.753C221.114 19.441 220.39 18.9817 219.766 18.375C219.151 17.7683 218.661 17.0143 218.297 16.113C217.942 15.2117 217.764 14.163 217.764 12.967C217.764 12.0657 217.916 11.212 218.219 10.406C218.531 9.6 218.973 8.89367 219.545 8.287C220.126 7.68033 220.824 7.19933 221.638 6.844C222.462 6.48867 223.389 6.311 224.42 6.311ZM224.498 9.093C223.727 9.093 223.125 9.314 222.691 9.756C222.258 10.1893 221.972 10.8177 221.833 11.641H226.864C226.864 11.3203 226.821 11.0083 226.734 10.705C226.656 10.4017 226.522 10.133 226.331 9.899C226.149 9.65633 225.907 9.46133 225.603 9.314C225.3 9.16667 224.932 9.093 224.498 9.093ZM243.07 20.208C242.429 20.208 241.861 20.117 241.367 19.935C240.882 19.7443 240.47 19.48 240.132 19.142C239.803 18.7953 239.551 18.3793 239.378 17.894C239.205 17.4087 239.118 16.867 239.118 16.269V9.301H237.974C237.766 9.301 237.588 9.236 237.441 9.106C237.294 8.96733 237.22 8.768 237.22 8.508V6.935L239.365 6.519L240.158 3.23C240.262 2.814 240.557 2.606 241.042 2.606H243.148V6.545H246.424V9.301H243.148V15.996C243.148 16.308 243.222 16.568 243.369 16.776C243.525 16.9753 243.746 17.075 244.032 17.075C244.179 17.075 244.301 17.062 244.396 17.036C244.5 17.0013 244.587 16.9667 244.656 16.932C244.734 16.8887 244.803 16.854 244.864 16.828C244.933 16.7933 245.011 16.776 245.098 16.776C245.219 16.776 245.315 16.8063 245.384 16.867C245.462 16.919 245.54 17.0057 245.618 17.127L246.84 19.038C246.32 19.428 245.735 19.7227 245.085 19.922C244.435 20.1127 243.763 20.208 243.07 20.208ZM249.008 20V0.538999H253.038V7.702C253.524 7.286 254.048 6.95233 254.611 6.701C255.183 6.441 255.864 6.311 256.652 6.311C257.389 6.311 258.039 6.441 258.602 6.701C259.174 6.95233 259.655 7.30767 260.045 7.767C260.435 8.21767 260.73 8.75933 260.929 9.392C261.129 10.016 261.228 10.6963 261.228 11.433V20H257.198V11.433C257.198 10.7743 257.047 10.263 256.743 9.899C256.44 9.52633 255.994 9.34 255.404 9.34C254.962 9.34 254.546 9.43533 254.156 9.626C253.766 9.81667 253.394 10.0723 253.038 10.393V20H249.008ZM268.51 6.519V20H264.48V6.519H268.51ZM268.978 2.827C268.978 3.14767 268.913 3.451 268.783 3.737C268.653 4.01433 268.476 4.26133 268.25 4.478C268.025 4.686 267.761 4.855 267.457 4.985C267.163 5.10633 266.846 5.167 266.508 5.167C266.179 5.167 265.871 5.10633 265.585 4.985C265.299 4.855 265.044 4.686 264.818 4.478C264.602 4.26133 264.428 4.01433 264.298 3.737C264.177 3.451 264.116 3.14767 264.116 2.827C264.116 2.49767 264.177 2.19 264.298 1.904C264.428 1.618 264.602 1.36667 264.818 1.15C265.044 0.933333 265.299 0.764333 265.585 0.642999C265.871 0.521666 266.179 0.461 266.508 0.461C266.846 0.461 267.163 0.521666 267.457 0.642999C267.761 0.764333 268.025 0.933333 268.25 1.15C268.476 1.36667 268.653 1.618 268.783 1.904C268.913 2.19 268.978 2.49767 268.978 2.827ZM272.024 20V6.519H274.52C274.772 6.519 274.98 6.57533 275.144 6.688C275.318 6.80067 275.439 6.96967 275.508 7.195L275.742 7.975C276.002 7.73233 276.271 7.507 276.548 7.299C276.826 7.091 277.12 6.91767 277.432 6.779C277.753 6.63167 278.095 6.519 278.459 6.441C278.832 6.35433 279.235 6.311 279.668 6.311C280.405 6.311 281.055 6.441 281.618 6.701C282.19 6.95233 282.671 7.30767 283.061 7.767C283.451 8.21767 283.746 8.75933 283.945 9.392C284.145 10.016 284.244 10.6963 284.244 11.433V20H280.214V11.433C280.214 10.7743 280.063 10.263 279.759 9.899C279.456 9.52633 279.01 9.34 278.42 9.34C277.978 9.34 277.562 9.43533 277.172 9.626C276.782 9.81667 276.41 10.0723 276.054 10.393V20H272.024ZM292.124 6.285C292.696 6.285 293.234 6.34133 293.736 6.454C294.248 6.56667 294.72 6.727 295.153 6.935H299.222V8.404C299.222 8.62933 299.157 8.807 299.027 8.937C298.906 9.067 298.694 9.16667 298.39 9.236L297.402 9.457C297.524 9.847 297.584 10.25 297.584 10.666C297.584 11.342 297.441 11.9487 297.155 12.486C296.878 13.0233 296.492 13.4827 295.998 13.864C295.513 14.2367 294.937 14.527 294.269 14.735C293.602 14.9343 292.887 15.034 292.124 15.034C291.7 15.034 291.301 15.008 290.928 14.956C290.634 15.1293 290.486 15.3287 290.486 15.554C290.486 15.7793 290.603 15.944 290.837 16.048C291.08 16.1433 291.396 16.2127 291.786 16.256C292.176 16.2907 292.623 16.3167 293.125 16.334C293.628 16.3427 294.139 16.373 294.659 16.425C295.179 16.4683 295.691 16.5463 296.193 16.659C296.696 16.7717 297.142 16.9537 297.532 17.205C297.922 17.4563 298.234 17.7943 298.468 18.219C298.711 18.635 298.832 19.168 298.832 19.818C298.832 20.4247 298.685 21.0183 298.39 21.599C298.096 22.1797 297.662 22.6953 297.09 23.146C296.518 23.5967 295.816 23.9563 294.984 24.225C294.152 24.5023 293.199 24.641 292.124 24.641C291.067 24.641 290.153 24.5413 289.381 24.342C288.619 24.1427 287.982 23.8783 287.47 23.549C286.968 23.2283 286.595 22.8557 286.352 22.431C286.11 22.0063 285.988 21.5643 285.988 21.105C285.988 20.507 286.17 20.0043 286.534 19.597C286.898 19.181 287.397 18.856 288.029 18.622C287.726 18.4227 287.483 18.167 287.301 17.855C287.119 17.543 287.028 17.1487 287.028 16.672C287.028 16.4727 287.063 16.2647 287.132 16.048C287.202 15.8227 287.31 15.606 287.457 15.398C287.605 15.19 287.791 14.9907 288.016 14.8C288.242 14.6093 288.51 14.4403 288.822 14.293C288.12 13.9203 287.566 13.4263 287.158 12.811C286.76 12.1957 286.56 11.4807 286.56 10.666C286.56 9.99 286.703 9.38333 286.989 8.846C287.275 8.3 287.665 7.84067 288.159 7.468C288.662 7.08667 289.251 6.79633 289.927 6.597C290.603 6.389 291.336 6.285 292.124 6.285ZM295.114 20.494C295.114 20.2773 295.045 20.104 294.906 19.974C294.776 19.844 294.594 19.74 294.36 19.662C294.135 19.584 293.866 19.5277 293.554 19.493C293.251 19.4583 292.922 19.4323 292.566 19.415C292.211 19.3977 291.843 19.3847 291.461 19.376C291.08 19.3587 290.703 19.3283 290.33 19.285C290.079 19.4583 289.871 19.6533 289.706 19.87C289.55 20.078 289.472 20.3163 289.472 20.585C289.472 20.7757 289.511 20.949 289.589 21.105C289.676 21.261 289.823 21.3953 290.031 21.508C290.239 21.6207 290.517 21.7073 290.863 21.768C291.219 21.8373 291.665 21.872 292.202 21.872C292.783 21.872 293.26 21.8373 293.632 21.768C294.005 21.6987 294.3 21.6033 294.516 21.482C294.742 21.3607 294.898 21.2133 294.984 21.04C295.071 20.8753 295.114 20.6933 295.114 20.494ZM292.124 12.551C292.792 12.551 293.273 12.3863 293.567 12.057C293.871 11.719 294.022 11.2857 294.022 10.757C294.022 10.211 293.871 9.782 293.567 9.47C293.273 9.158 292.792 9.002 292.124 9.002C291.457 9.002 290.972 9.158 290.668 9.47C290.374 9.782 290.226 10.211 290.226 10.757C290.226 11.017 290.261 11.2553 290.33 11.472C290.408 11.6887 290.525 11.8793 290.681 12.044C290.837 12.2 291.032 12.3257 291.266 12.421C291.509 12.5077 291.795 12.551 292.124 12.551ZM309.478 9.47C309.374 9.63467 309.261 9.75167 309.14 9.821C309.027 9.89033 308.88 9.925 308.698 9.925C308.507 9.925 308.316 9.886 308.126 9.808C307.935 9.72133 307.727 9.63033 307.502 9.535C307.285 9.43967 307.038 9.353 306.761 9.275C306.483 9.18833 306.167 9.145 305.812 9.145C305.3 9.145 304.906 9.24467 304.629 9.444C304.36 9.63467 304.226 9.90333 304.226 10.25C304.226 10.5013 304.312 10.7093 304.486 10.874C304.668 11.0387 304.906 11.186 305.201 11.316C305.495 11.4373 305.829 11.5543 306.202 11.667C306.574 11.7797 306.956 11.9053 307.346 12.044C307.736 12.1827 308.117 12.3473 308.49 12.538C308.862 12.72 309.196 12.9497 309.491 13.227C309.785 13.4957 310.019 13.825 310.193 14.215C310.375 14.605 310.466 15.073 310.466 15.619C310.466 16.2863 310.344 16.9017 310.102 17.465C309.859 18.0283 309.495 18.5137 309.01 18.921C308.533 19.3283 307.939 19.6447 307.229 19.87C306.527 20.0953 305.716 20.208 304.798 20.208C304.338 20.208 303.879 20.1647 303.42 20.078C302.96 19.9913 302.514 19.8743 302.081 19.727C301.656 19.5797 301.262 19.4063 300.898 19.207C300.534 18.999 300.222 18.778 299.962 18.544L300.898 17.062C301.01 16.8887 301.145 16.7543 301.301 16.659C301.457 16.555 301.66 16.503 301.912 16.503C302.146 16.503 302.354 16.555 302.536 16.659C302.726 16.763 302.93 16.8757 303.147 16.997C303.363 17.1183 303.615 17.231 303.901 17.335C304.195 17.439 304.564 17.491 305.006 17.491C305.318 17.491 305.582 17.4607 305.799 17.4C306.015 17.3307 306.189 17.2397 306.319 17.127C306.449 17.0143 306.544 16.8887 306.605 16.75C306.665 16.6113 306.696 16.4683 306.696 16.321C306.696 16.0523 306.605 15.8313 306.423 15.658C306.241 15.4847 306.002 15.3373 305.708 15.216C305.413 15.086 305.075 14.969 304.694 14.865C304.321 14.7523 303.94 14.6267 303.55 14.488C303.16 14.3493 302.774 14.1847 302.393 13.994C302.02 13.7947 301.686 13.5477 301.392 13.253C301.097 12.9497 300.859 12.5813 300.677 12.148C300.495 11.7147 300.404 11.1903 300.404 10.575C300.404 10.003 300.512 9.46133 300.729 8.95C300.954 8.43 301.288 7.975 301.73 7.585C302.172 7.195 302.726 6.88733 303.394 6.662C304.061 6.428 304.841 6.311 305.734 6.311C306.219 6.311 306.687 6.35433 307.138 6.441C307.597 6.52767 308.026 6.649 308.425 6.805C308.823 6.961 309.187 7.14733 309.517 7.364C309.846 7.572 310.136 7.80167 310.388 8.053L309.478 9.47ZM318.234 20V0.538999H322.264V7.702C322.75 7.286 323.274 6.95233 323.837 6.701C324.409 6.441 325.09 6.311 325.878 6.311C326.615 6.311 327.265 6.441 327.828 6.701C328.4 6.95233 328.881 7.30767 329.271 7.767C329.661 8.21767 329.956 8.75933 330.155 9.392C330.355 10.016 330.454 10.6963 330.454 11.433V20H326.424V11.433C326.424 10.7743 326.273 10.263 325.969 9.899C325.666 9.52633 325.22 9.34 324.63 9.34C324.188 9.34 323.772 9.43533 323.382 9.626C322.992 9.81667 322.62 10.0723 322.264 10.393V20H318.234ZM342.884 20C342.503 20 342.213 19.948 342.013 19.844C341.823 19.74 341.662 19.5233 341.532 19.194L341.246 18.453C340.908 18.739 340.583 18.9903 340.271 19.207C339.959 19.4237 339.634 19.61 339.296 19.766C338.967 19.9133 338.612 20.0217 338.23 20.091C337.858 20.169 337.442 20.208 336.982 20.208C336.367 20.208 335.808 20.13 335.305 19.974C334.803 19.8093 334.374 19.571 334.018 19.259C333.672 18.947 333.403 18.5613 333.212 18.102C333.022 17.634 332.926 17.0967 332.926 16.49C332.926 16.0133 333.048 15.5237 333.29 15.021C333.533 14.5183 333.953 14.0633 334.551 13.656C335.149 13.24 335.955 12.8933 336.969 12.616C337.983 12.3387 339.262 12.1827 340.804 12.148V11.576C340.804 10.7873 340.64 10.2197 340.31 9.873C339.99 9.51767 339.53 9.34 338.932 9.34C338.456 9.34 338.066 9.392 337.762 9.496C337.459 9.6 337.186 9.717 336.943 9.847C336.709 9.977 336.48 10.094 336.254 10.198C336.029 10.302 335.76 10.354 335.448 10.354C335.171 10.354 334.933 10.289 334.733 10.159C334.543 10.0203 334.391 9.85133 334.278 9.652L333.55 8.391C334.365 7.67167 335.266 7.13867 336.254 6.792C337.251 6.43667 338.317 6.259 339.452 6.259C340.267 6.259 340.999 6.39333 341.649 6.662C342.308 6.922 342.863 7.29033 343.313 7.767C343.773 8.235 344.124 8.794 344.366 9.444C344.609 10.094 344.73 10.8047 344.73 11.576V20H342.884ZM338.256 17.543C338.776 17.543 339.231 17.452 339.621 17.27C340.011 17.088 340.406 16.7933 340.804 16.386V14.514C339.998 14.5487 339.335 14.618 338.815 14.722C338.295 14.826 337.884 14.956 337.58 15.112C337.277 15.268 337.065 15.4457 336.943 15.645C336.831 15.8443 336.774 16.061 336.774 16.295C336.774 16.7543 336.9 17.0793 337.151 17.27C337.403 17.452 337.771 17.543 338.256 17.543ZM347.852 24.277V6.519H350.348C350.599 6.519 350.807 6.57533 350.972 6.688C351.145 6.80067 351.267 6.96967 351.336 7.195L351.635 8.183C351.895 7.897 352.172 7.637 352.467 7.403C352.77 7.169 353.091 6.96967 353.429 6.805C353.776 6.63167 354.144 6.49733 354.534 6.402C354.933 6.30667 355.366 6.259 355.834 6.259C356.536 6.259 357.186 6.415 357.784 6.727C358.382 7.039 358.898 7.48967 359.331 8.079C359.764 8.66833 360.102 9.392 360.345 10.25C360.596 11.0993 360.722 12.0657 360.722 13.149C360.722 14.163 360.579 15.099 360.293 15.957C360.016 16.815 359.621 17.5603 359.11 18.193C358.607 18.8257 358.001 19.3197 357.29 19.675C356.588 20.0303 355.808 20.208 354.95 20.208C354.248 20.208 353.659 20.1083 353.182 19.909C352.705 19.7097 352.272 19.441 351.882 19.103V24.277H347.852ZM354.43 9.34C354.135 9.34 353.867 9.37033 353.624 9.431C353.39 9.483 353.169 9.561 352.961 9.665C352.762 9.769 352.575 9.90333 352.402 10.068C352.229 10.224 352.055 10.406 351.882 10.614V16.334C352.185 16.672 352.515 16.9103 352.87 17.049C353.225 17.179 353.598 17.244 353.988 17.244C354.361 17.244 354.703 17.1703 355.015 17.023C355.327 16.8757 355.596 16.6417 355.821 16.321C356.055 15.9917 356.237 15.567 356.367 15.047C356.497 14.527 356.562 13.8943 356.562 13.149C356.562 12.4383 356.51 11.8403 356.406 11.355C356.302 10.8697 356.155 10.4797 355.964 10.185C355.782 9.88167 355.561 9.665 355.301 9.535C355.041 9.405 354.751 9.34 354.43 9.34ZM363.143 24.277V6.519H365.639C365.891 6.519 366.099 6.57533 366.263 6.688C366.437 6.80067 366.558 6.96967 366.627 7.195L366.926 8.183C367.186 7.897 367.464 7.637 367.758 7.403C368.062 7.169 368.382 6.96967 368.72 6.805C369.067 6.63167 369.435 6.49733 369.825 6.402C370.224 6.30667 370.657 6.259 371.125 6.259C371.827 6.259 372.477 6.415 373.075 6.727C373.673 7.039 374.189 7.48967 374.622 8.079C375.056 8.66833 375.394 9.392 375.636 10.25C375.888 11.0993 376.013 12.0657 376.013 13.149C376.013 14.163 375.87 15.099 375.584 15.957C375.307 16.815 374.913 17.5603 374.401 18.193C373.899 18.8257 373.292 19.3197 372.581 19.675C371.879 20.0303 371.099 20.208 370.241 20.208C369.539 20.208 368.95 20.1083 368.473 19.909C367.997 19.7097 367.563 19.441 367.173 19.103V24.277H363.143ZM369.721 9.34C369.427 9.34 369.158 9.37033 368.915 9.431C368.681 9.483 368.46 9.561 368.252 9.665C368.053 9.769 367.867 9.90333 367.693 10.068C367.52 10.224 367.347 10.406 367.173 10.614V16.334C367.477 16.672 367.806 16.9103 368.161 17.049C368.517 17.179 368.889 17.244 369.279 17.244C369.652 17.244 369.994 17.1703 370.306 17.023C370.618 16.8757 370.887 16.6417 371.112 16.321C371.346 15.9917 371.528 15.567 371.658 15.047C371.788 14.527 371.853 13.8943 371.853 13.149C371.853 12.4383 371.801 11.8403 371.697 11.355C371.593 10.8697 371.446 10.4797 371.255 10.185C371.073 9.88167 370.852 9.665 370.592 9.535C370.332 9.405 370.042 9.34 369.721 9.34ZM384.206 6.311C385.099 6.311 385.914 6.44967 386.65 6.727C387.396 7.00433 388.033 7.40733 388.561 7.936C389.099 8.46467 389.515 9.11467 389.809 9.886C390.113 10.6487 390.264 11.5153 390.264 12.486C390.264 12.7893 390.251 13.0363 390.225 13.227C390.199 13.4177 390.152 13.5693 390.082 13.682C390.013 13.7947 389.918 13.8727 389.796 13.916C389.684 13.9593 389.536 13.981 389.354 13.981H381.58C381.71 15.1077 382.053 15.9267 382.607 16.438C383.162 16.9407 383.877 17.192 384.752 17.192C385.22 17.192 385.623 17.1357 385.961 17.023C386.299 16.9103 386.598 16.7847 386.858 16.646C387.127 16.5073 387.37 16.3817 387.586 16.269C387.812 16.1563 388.046 16.1 388.288 16.1C388.609 16.1 388.852 16.217 389.016 16.451L390.186 17.894C389.77 18.3707 389.32 18.7607 388.834 19.064C388.358 19.3587 387.864 19.5927 387.352 19.766C386.85 19.9307 386.343 20.0433 385.831 20.104C385.329 20.1733 384.848 20.208 384.388 20.208C383.444 20.208 382.555 20.0563 381.723 19.753C380.9 19.441 380.176 18.9817 379.552 18.375C378.937 17.7683 378.447 17.0143 378.083 16.113C377.728 15.2117 377.55 14.163 377.55 12.967C377.55 12.0657 377.702 11.212 378.005 10.406C378.317 9.6 378.759 8.89367 379.331 8.287C379.912 7.68033 380.61 7.19933 381.424 6.844C382.248 6.48867 383.175 6.311 384.206 6.311ZM384.284 9.093C383.513 9.093 382.911 9.314 382.477 9.756C382.044 10.1893 381.758 10.8177 381.619 11.641H386.65C386.65 11.3203 386.607 11.0083 386.52 10.705C386.442 10.4017 386.308 10.133 386.117 9.899C385.935 9.65633 385.693 9.46133 385.389 9.314C385.086 9.16667 384.718 9.093 384.284 9.093ZM392.837 20V6.519H395.333C395.584 6.519 395.792 6.57533 395.957 6.688C396.13 6.80067 396.252 6.96967 396.321 7.195L396.555 7.975C396.815 7.73233 397.084 7.507 397.361 7.299C397.638 7.091 397.933 6.91767 398.245 6.779C398.566 6.63167 398.908 6.519 399.272 6.441C399.645 6.35433 400.048 6.311 400.481 6.311C401.218 6.311 401.868 6.441 402.431 6.701C403.003 6.95233 403.484 7.30767 403.874 7.767C404.264 8.21767 404.559 8.75933 404.758 9.392C404.957 10.016 405.057 10.6963 405.057 11.433V20H401.027V11.433C401.027 10.7743 400.875 10.263 400.572 9.899C400.269 9.52633 399.822 9.34 399.233 9.34C398.791 9.34 398.375 9.43533 397.985 9.626C397.595 9.81667 397.222 10.0723 396.867 10.393V20H392.837ZM407.399 17.959C407.399 17.647 407.455 17.3567 407.568 17.088C407.689 16.8193 407.85 16.5853 408.049 16.386C408.257 16.1867 408.5 16.0307 408.777 15.918C409.054 15.7967 409.358 15.736 409.687 15.736C410.008 15.736 410.307 15.7967 410.584 15.918C410.861 16.0307 411.104 16.1867 411.312 16.386C411.52 16.5853 411.68 16.8193 411.793 17.088C411.914 17.3567 411.975 17.647 411.975 17.959C411.975 18.271 411.914 18.5657 411.793 18.843C411.68 19.1117 411.52 19.3457 411.312 19.545C411.104 19.7443 410.861 19.9003 410.584 20.013C410.307 20.1257 410.008 20.182 409.687 20.182C409.358 20.182 409.054 20.1257 408.777 20.013C408.5 19.9003 408.257 19.7443 408.049 19.545C407.85 19.3457 407.689 19.1117 407.568 18.843C407.455 18.5657 407.399 18.271 407.399 17.959Z" fill="#121111"/>
</svg>
