<svg fill="none" height="364" viewBox="0 0 268 364" width="268" xmlns="http://www.w3.org/2000/svg"><g fill="#121111"><path d="m42.32 16.72v10.4h-23.92v14.76h19.92v10.44h-19.92v22.68h-13.6v-58.28zm21.3313 36.72v21.56h-13.5201v-58.28h18.9601c4.2133 0 7.8.44 10.76 1.32 2.9866.8533 5.4133 2.0533 7.28 3.6 1.8933 1.5467 3.2666 3.3733 4.1199 5.48.8534 2.1067 1.2801 4.4 1.2801 6.88 0 1.8933-.2534 3.68-.7601 5.36-.5066 1.68-1.2666 3.24-2.2799 4.68-.9867 1.4133-2.2134 2.68-3.68 3.8-1.44 1.12-3.1067 2.04-5 2.76.9066.4533 1.7466 1.0133 2.52 1.68.8.6667 1.4933 1.48 2.08 2.44l12.4 20.28h-12.24c-2.2667 0-3.8934-.8533-4.88-2.56l-9.68-16.92c-.4267-.7467-.9334-1.28-1.52-1.6-.5601-.32-1.3601-.48-2.4-.48zm0-9.32h5.44c1.84 0 3.4-.2267 4.68-.68 1.3066-.48 2.3733-1.1333 3.1999-1.96.8267-.8267 1.4267-1.7867 1.8001-2.88.3733-1.12.56-2.32.56-3.6 0-2.56-.84-4.56-2.52-6-1.6534-1.44-4.2267-2.16-7.72-2.16h-5.44zm95.9717 1.72c0 4.2133-.733 8.1333-2.2 11.76-1.44 3.6267-3.48 6.7867-6.12 9.48-2.64 2.6667-5.827 4.76-9.56 6.28-3.707 1.52-7.827 2.28-12.36 2.28s-8.667-.76-12.4-2.28-6.933-3.6133-9.6-6.28c-2.64-2.6933-4.693-5.8533-6.16-9.48-1.4399-3.6267-2.1599-7.5467-2.1599-11.76s.72-8.1333 2.1599-11.76c1.467-3.6267 3.52-6.7733 6.16-9.44 2.667-2.6667 5.867-4.76 9.6-6.28s7.867-2.28 12.4-2.28 8.653.7733 12.36 2.32c3.733 1.52 6.92 3.6133 9.56 6.28s4.68 5.8133 6.12 9.44c1.467 3.6267 2.2 7.5333 2.2 11.72zm-13.84 0c0-2.88-.373-5.4667-1.12-7.76-.747-2.32-1.827-4.28-3.24-5.88-1.387-1.6-3.093-2.8267-5.12-3.68s-4.333-1.28-6.92-1.28c-2.613 0-4.947.4267-7 1.28-2.027.8533-3.747 2.08-5.16 3.68-1.387 1.6-2.453 3.56-3.2 5.88-.747 2.2933-1.12 4.88-1.12 7.76 0 2.9067.373 5.52 1.12 7.84.747 2.2933 1.813 4.24 3.2 5.84 1.413 1.6 3.133 2.8267 5.16 3.68 2.053.8267 4.387 1.24 7 1.24 2.587 0 4.893-.4133 6.92-1.24 2.027-.8533 3.733-2.08 5.12-3.68 1.413-1.6 2.493-3.5467 3.24-5.84.747-2.32 1.12-4.9333 1.12-7.84zm50.904 2.52c.534 1.0133 1.04 2.0667 1.52 3.16.507 1.0933.987 2.2133 1.44 3.36.454-1.1733.934-2.3067 1.44-3.4.507-1.12 1.027-2.2 1.56-3.24l14.96-29.44c.267-.5067.534-.8933.8-1.16.294-.2933.614-.5067.96-.64.347-.1333.734-.2133 1.16-.24.454-.0267.974-.04 1.56-.04h10.32v58.28h-11.92v-33.52c0-1.6267.08-3.3867.24-5.28l-15.44 29.96c-.48.9333-1.133 1.64-1.96 2.12-.8.48-1.72.72-2.76.72h-1.84c-1.04 0-1.973-.24-2.8-.72-.8-.48-1.44-1.1867-1.92-2.12l-15.52-30c.107.9333.187 1.8667.24 2.8.054.9067.08 1.7467.08 2.52v33.52h-11.92v-58.28h10.32c.587 0 1.094.0133 1.52.04.454.0267.854.1067 1.2.24.347.1333.654.3467.92.64.294.2667.574.6533.84 1.16zm-191.887 114.64v-58.28h21.44c4.0267 0 7.4533.373 10.28 1.12s5.1333 1.8 6.92 3.16 3.08 3.013 3.88 4.96c.8267 1.947 1.24 4.12 1.24 6.52 0 1.307-.1867 2.573-.56 3.8-.3733 1.2-.96 2.333-1.76 3.4s-1.8267 2.04-3.08 2.92c-1.2533.853-2.76 1.6-4.52 2.24 3.84.933 6.68 2.453 8.52 4.56 1.84 2.08 2.76 4.76 2.76 8.04 0 2.48-.48 4.787-1.44 6.92s-2.3733 4-4.24 5.6c-1.84 1.573-4.12 2.813-6.84 3.72-2.72.88-5.8267 1.32-9.32 1.32zm13.52-24.72v14.52h9.52c1.7867 0 3.24-.227 4.36-.68 1.1467-.453 2.04-1.04 2.68-1.76s1.08-1.533 1.32-2.44.36-1.827.36-2.76c0-1.067-.1467-2.027-.44-2.88-.2667-.853-.7467-1.573-1.44-2.16-.6667-.587-1.56-1.04-2.68-1.36s-2.5333-.48-4.24-.48zm0-9.04h7.04c1.4933 0 2.84-.107 4.04-.32s2.2133-.587 3.04-1.12c.8533-.533 1.4933-1.267 1.92-2.2.4533-.933.68-2.107.68-3.52 0-1.387-.1733-2.533-.52-3.44-.3467-.933-.88-1.68-1.6-2.24s-1.64-.96-2.76-1.2c-1.0933-.24-2.4-.36-3.92-.36h-7.92zm53.3 22.96h21.6v10.8h-35.12v-58.28h13.52zm83.081-18.36c0 4.213-.733 8.133-2.2 11.76-1.44 3.627-3.48 6.787-6.12 9.48-2.64 2.667-5.826 4.76-9.56 6.28-3.706 1.52-7.826 2.28-12.36 2.28-4.533 0-8.666-.76-12.4-2.28-3.733-1.52-6.933-3.613-9.6-6.28-2.6398-2.693-4.6931-5.853-6.1598-9.48-1.44-3.627-2.16-7.547-2.16-11.76s.72-8.133 2.16-11.76c1.4667-3.627 3.52-6.773 6.1598-9.44 2.667-2.667 5.867-4.76 9.6-6.28 3.734-1.52 7.867-2.28 12.4-2.28 4.534 0 8.654.773 12.36 2.32 3.734 1.52 6.92 3.613 9.56 6.28s4.68 5.813 6.12 9.44c1.467 3.627 2.2 7.533 2.2 11.72zm-13.84 0c0-2.88-.373-5.467-1.12-7.76-.746-2.32-1.826-4.28-3.24-5.88-1.386-1.6-3.093-2.827-5.12-3.68-2.026-.853-4.333-1.28-6.92-1.28-2.613 0-4.946.427-7 1.28-2.026.853-3.746 2.08-5.16 3.68-1.386 1.6-2.453 3.56-3.2 5.88-.746 2.293-1.12 4.88-1.12 7.76 0 2.907.374 5.52 1.12 7.84.747 2.293 1.814 4.24 3.2 5.84 1.414 1.6 3.134 2.827 5.16 3.68 2.054.827 4.387 1.24 7 1.24 2.587 0 4.894-.413 6.92-1.24 2.027-.853 3.734-2.08 5.12-3.68 1.414-1.6 2.494-3.547 3.24-5.84.747-2.32 1.12-4.933 1.12-7.84zm60.265 14.08c.32 0 .64.067.96.2.32.107.626.307.92.6l5.36 5.64c-2.347 3.067-5.294 5.387-8.84 6.96-3.52 1.547-7.694 2.32-12.52 2.32-4.427 0-8.4-.747-11.92-2.24-3.494-1.52-6.467-3.6-8.92-6.24-2.427-2.667-4.294-5.813-5.6-9.44-1.307-3.653-1.96-7.613-1.96-11.88 0-4.347.746-8.333 2.24-11.96 1.493-3.653 3.573-6.8 6.24-9.44 2.693-2.64 5.906-4.693 9.64-6.16 3.733-1.467 7.853-2.2 12.36-2.2 2.186 0 4.24.2 6.16.6 1.946.373 3.76.907 5.44 1.6 1.68.667 3.226 1.48 4.64 2.44 1.413.933 2.666 1.973 3.76 3.12l-4.56 6.12c-.294.373-.64.72-1.04 1.04-.4.293-.96.44-1.68.44-.48 0-.934-.107-1.36-.32-.427-.213-.88-.467-1.36-.76-.48-.32-1.014-.653-1.6-1-.56-.373-1.24-.707-2.04-1-.774-.32-1.694-.587-2.76-.8-1.04-.213-2.267-.32-3.68-.32-2.454 0-4.694.44-6.72 1.32-2.027.853-3.774 2.093-5.24 3.72-1.44 1.6-2.574 3.547-3.4 5.84-.8 2.293-1.2 4.867-1.2 7.72 0 2.987.4 5.64 1.2 7.96.826 2.32 1.933 4.28 3.32 5.88 1.413 1.573 3.053 2.773 4.92 3.6 1.866.827 3.866 1.24 6 1.24 1.226 0 2.346-.053 3.36-.16 1.013-.133 1.946-.347 2.8-.64.88-.293 1.706-.667 2.48-1.12.8-.48 1.6-1.067 2.4-1.76.32-.267.666-.48 1.04-.64.373-.187.76-.28 1.16-.28zm27.738-19.6h2.16c2 0 3.44-.627 4.32-1.88l13.12-19.04c.72-1.04 1.533-1.747 2.44-2.12.933-.373 2.066-.56 3.4-.56h11.76l-17.28 23.56c-.614.853-1.254 1.56-1.92 2.12-.667.56-1.347 1.027-2.04 1.4 1.013.373 1.933.893 2.76 1.56.853.64 1.626 1.507 2.32 2.6l17.6 27.04h-12.08c-.774 0-1.44-.053-2-.16-.534-.107-1-.267-1.4-.48s-.747-.467-1.04-.76c-.294-.32-.574-.68-.84-1.08l-13.2-20.28c-.48-.747-1.094-1.267-1.84-1.56-.72-.32-1.707-.48-2.96-.48h-3.28v24.8h-13.52v-58.28h13.52zm-181.744 64.4v10.72h-16.4v47.56h-13.52v-47.56h-16.4v-10.72zm61.469 29.12c0 4.213-.734 8.133-2.2 11.76-1.44 3.627-3.48 6.787-6.12 9.48-2.6402 2.667-5.8269 4.76-9.5602 6.28-3.7067 1.52-7.8267 2.28-12.36 2.28-4.5334 0-8.6667-.76-12.4001-2.28-3.7333-1.52-6.9333-3.613-9.6-6.28-2.64-2.693-4.6933-5.853-6.16-9.48-1.44-3.627-2.16-7.547-2.16-11.76s.72-8.133 2.16-11.76c1.4667-3.627 3.52-6.773 6.16-9.44 2.6667-2.667 5.8667-4.76 9.6-6.28 3.7334-1.52 7.8667-2.28 12.4001-2.28 4.5333 0 8.6533.773 12.36 2.32 3.7333 1.52 6.92 3.613 9.5602 6.28 2.64 2.667 4.68 5.813 6.12 9.44 1.466 3.627 2.2 7.533 2.2 11.72zm-13.8403 0c0-2.88-.3733-5.467-1.12-7.76-.7466-2.32-1.8266-4.28-3.2399-5.88-1.3867-1.6-3.0934-2.827-5.12-3.68-2.0267-.853-4.3334-1.28-6.92-1.28-2.6134 0-4.9467.427-7 1.28-2.0267.853-3.7467 2.08-5.16 3.68-1.3867 1.6-2.4534 3.56-3.2001 5.88-.7466 2.293-1.12 4.88-1.12 7.76 0 2.907.3734 5.52 1.12 7.84.7467 2.293 1.8134 4.24 3.2001 5.84 1.4133 1.6 3.1333 2.827 5.16 3.68 2.0533.827 4.3866 1.24 7 1.24 2.5866 0 4.8933-.413 6.92-1.24 2.0266-.853 3.7333-2.08 5.12-3.68 1.4133-1.6 2.4933-3.547 3.2399-5.84.7467-2.32 1.12-4.933 1.12-7.84zm-89.9487 117.16v-58.28h21.44c4.0267 0 7.4533.373 10.28 1.12s5.1333 1.8 6.92 3.16 3.08 3.013 3.88 4.96c.8267 1.947 1.24 4.12 1.24 6.52 0 1.307-.1867 2.573-.56 3.8-.3733 1.2-.96 2.333-1.76 3.4s-1.8267 2.04-3.08 2.92c-1.2533.853-2.76 1.6-4.52 2.24 3.84.933 6.68 2.453 8.52 4.56 1.84 2.08 2.76 4.76 2.76 8.04 0 2.48-.48 4.787-1.44 6.92s-2.3733 4-4.24 5.6c-1.84 1.573-4.12 2.813-6.84 3.72-2.72.88-5.8267 1.32-9.32 1.32zm13.52-24.72v14.52h9.52c1.7867 0 3.24-.227 4.36-.68 1.1467-.453 2.04-1.04 2.68-1.76s1.08-1.533 1.32-2.44.36-1.827.36-2.76c0-1.067-.1467-2.027-.44-2.88-.2667-.853-.7467-1.573-1.44-2.16-.6667-.587-1.56-1.04-2.68-1.36s-2.5333-.48-4.24-.48zm0-9.04h7.04c1.4933 0 2.84-.107 4.04-.32s2.2133-.587 3.04-1.12c.8533-.533 1.4933-1.267 1.92-2.2.4533-.933.68-2.107.68-3.52 0-1.387-.1733-2.533-.52-3.44-.3467-.933-.88-1.68-1.6-2.24s-1.64-.96-2.76-1.2c-1.0933-.24-2.4-.36-3.92-.36h-7.92zm97.3 4.6c0 4.213-.733 8.133-2.2 11.76-1.44 3.627-3.48 6.787-6.12 9.48-2.64 2.667-5.827 4.76-9.56 6.28-3.7067 1.52-7.8267 2.28-12.36 2.28s-8.6667-.76-12.4-2.28-6.9333-3.613-9.6-6.28c-2.64-2.693-4.6933-5.853-6.16-9.48-1.44-3.627-2.16-7.547-2.16-11.76s.72-8.133 2.16-11.76c1.4667-3.627 3.52-6.773 6.16-9.44 2.6667-2.667 5.8667-4.76 9.6-6.28s7.8667-2.28 12.4-2.28 8.6533.773 12.36 2.32c3.733 1.52 6.92 3.613 9.56 6.28s4.68 5.813 6.12 9.44c1.467 3.627 2.2 7.533 2.2 11.72zm-13.84 0c0-2.88-.373-5.467-1.12-7.76-.7467-2.32-1.8267-4.28-3.24-5.88-1.3867-1.6-3.0933-2.827-5.12-3.68s-4.3333-1.28-6.92-1.28c-2.6133 0-4.9467.427-7 1.28-2.0267.853-3.7467 2.08-5.16 3.68-1.3867 1.6-2.4533 3.56-3.2 5.88-.7467 2.293-1.12 4.88-1.12 7.76 0 2.907.3733 5.52 1.12 7.84.7467 2.293 1.8133 4.24 3.2 5.84 1.4133 1.6 3.1333 2.827 5.16 3.68 2.0533.827 4.3867 1.24 7 1.24 2.5867 0 4.8933-.413 6.92-1.24 2.0267-.853 3.7333-2.08 5.12-3.68 1.4133-1.6 2.4933-3.547 3.24-5.84.747-2.32 1.12-4.933 1.12-7.84zm73.984 0c0 4.213-.733 8.107-2.2 11.68-1.44 3.547-3.48 6.627-6.12 9.24-2.64 2.587-5.826 4.613-9.56 6.08-3.706 1.44-7.826 2.16-12.36 2.16h-22.64v-58.28h22.64c4.534 0 8.654.733 12.36 2.2 3.734 1.467 6.92 3.493 9.56 6.08s4.68 5.667 6.12 9.24c1.467 3.547 2.2 7.413 2.2 11.6zm-13.84 0c0-2.88-.373-5.48-1.12-7.8-.746-2.32-1.826-4.28-3.24-5.88-1.386-1.627-3.093-2.867-5.12-3.72-2.026-.88-4.333-1.32-6.92-1.32h-9.04v37.48h9.04c2.587 0 4.894-.427 6.92-1.28 2.027-.88 3.734-2.12 5.12-3.72 1.414-1.627 2.494-3.6 3.24-5.92.747-2.32 1.12-4.933 1.12-7.84zm46.972 7v22.16h-13.52v-22.16l-21.12-36.12h11.92c1.174 0 2.107.28 2.8.84.694.533 1.254 1.227 1.68 2.08l8.24 16.96c.667 1.36 1.28 2.613 1.84 3.76s1.054 2.28 1.48 3.4c.4-1.147.88-2.293 1.44-3.44s1.16-2.387 1.8-3.72l8.16-16.96c.16-.347.374-.693.64-1.04.294-.347.614-.653.96-.92.374-.293.787-.52 1.24-.68.48-.187 1-.28 1.56-.28h12z"/><path d="m240.844 323.219h16.992v13.086c0 4.817-1.003 8.619-3.008 11.406-2.005 2.786-5.43 5.247-10.273 7.383l-3.711-6.953c3.021-1.407 5.091-2.813 6.211-4.219 1.146-1.38 1.784-3.021 1.914-4.922h-8.125z"/></g></svg>