<svg fill="none" height="20" viewBox="0 0 317 20" width="317" xmlns="http://www.w3.org/2000/svg"><path d="m3.9 16h-3.4v-14.57h3.4zm6.9734 0v-14.97h3.1v5.7c.3867-.38.8234-.68333 1.31-.91.4934-.23333 1.07-.35 1.73-.35.54 0 1.04.11667 1.5.35s.8567.57667 1.19 1.03c.3334.44667.5934.99667.78 1.65.1934.65333.29 1.39667.29 2.23 0 .78-.11 1.5-.33 2.16-.2133.66-.5166 1.2333-.91 1.72-.3866.4867-.8533.8667-1.4 1.14-.54.2733-1.14.41-1.8.41-.3066 0-.5833-.03-.83-.09-.24-.06-.4633-.1433-.67-.25-.2-.1133-.3866-.2467-.56-.4-.1666-.1533-.33-.32-.49-.5l-.11.52c-.0466.2133-.1333.36-.26.44-.12.08-.28.12-.48.12zm5.06-8.2c-.2266 0-.4333.02333-.62.07-.18.04-.35.1-.51.18-.1533.08-.2966.18333-.43.31-.1333.12-.2666.26-.4.42v4.4c.2334.26.4867.4433.76.55.2734.1.56.15.86.15.2867 0 .55-.0567.79-.17s.4467-.2933.62-.54c.18-.2533.32-.58.42-.98s.15-.8867.15-1.46c0-.5467-.04-1.00667-.12-1.38s-.1933-.67333-.34-.9c-.14-.23333-.31-.4-.51-.5s-.4233-.15-.67-.15zm9.6416-2.17v6.58c0 .5133.1167.91.35 1.19s.5767.42 1.03.42c.34 0 .6567-.07.95-.21.3-.14.59-.3367.87-.59v-7.39h3.1v10.37h-1.92c-.3867 0-.64-.1733-.76-.52l-.19-.6c-.2.1933-.4067.37-.62.53-.2133.1533-.4433.2867-.69.4-.24.1067-.5.19-.78.25-.28.0667-.5867.1-.92.1-.5667 0-1.07-.0967-1.51-.29-.4333-.2-.8-.4767-1.1-.83s-.5267-.77-.68-1.25-.23-1.0067-.23-1.58v-6.58zm12.1016 0v10.37h-3.1v-10.37zm.36-2.84c0 .24667-.05.48-.15.7-.1.21333-.2367.40333-.41.57-.1734.16-.3767.29-.61.39-.2267.09333-.47.14-.73.14-.2534 0-.49-.04667-.71-.14-.22-.1-.4167-.23-.59-.39-.1667-.16667-.3-.35667-.4-.57-.0934-.22-.14-.45333-.14-.7 0-.25333.0466-.49.14-.71.1-.22.2333-.41333.4-.58.1733-.16667.37-.29667.59-.39s.4566-.14.71-.14c.26 0 .5033.04667.73.14.2333.09333.4366.22333.61.39.1733.16667.31.36.41.58s.15.45667.15.71zm5.5431-1.76v14.97h-3.1v-14.97zm9.9831 14.97c-.1933 0-.3567-.0433-.49-.13-.1267-.0867-.2167-.2167-.27-.39l-.24-.79c-.2067.22-.4233.42-.65.6s-.4733.3367-.74.47c-.26.1267-.5433.2233-.85.29-.3.0733-.6267.11-.98.11-.54 0-1.04-.12-1.5-.36s-.8567-.5867-1.19-1.04-.5967-1.0067-.79-1.66c-.1867-.66-.28-1.41-.28-2.25 0-.7733.1067-1.49.32-2.15.2133-.66667.5133-1.24.9-1.72.3933-.48667.8633-.86667 1.41-1.14s1.15-.41 1.81-.41c.5333 0 .9833.08 1.35.24.3733.15333.71.35667 1.01.61v-5.25h3.1v14.97zm-3.14-2.22c.2267 0 .43-.02.61-.06.1867-.0467.3567-.11.51-.19s.2967-.18.43-.3c.14-.12.2767-.26.41-.42v-4.4c-.24-.26-.4967-.44-.77-.54-.2667-.10667-.55-.16-.85-.16-.2867 0-.55.05667-.79.17s-.45.29667-.63.55c-.1733.24667-.31.57-.41.97s-.15.8833-.15 1.45c0 .5467.04 1.0067.12 1.38s.19.6767.33.91c.1467.2267.32.39.52.49s.4233.15.67.15zm14.6288-8.15v6.58c0 .5133.1166.91.35 1.19.2333.28.5766.42 1.03.42.34 0 .6566-.07.95-.21.3-.14.59-.3367.87-.59v-7.39h3.1v10.37h-1.92c-.3867 0-.64-.1733-.76-.52l-.19-.6c-.2.1933-.4067.37-.62.53-.2134.1533-.4434.2867-.69.4-.24.1067-.5.19-.78.25-.28.0667-.5867.1-.92.1-.5667 0-1.07-.0967-1.51-.29-.4334-.2-.8-.4767-1.1-.83s-.5267-.77-.68-1.25c-.1534-.48-.23-1.0067-.23-1.58v-6.58zm8.9015 13.66v-13.66h1.92c.1934 0 .3534.04333.48.13.1334.08667.2267.21667.28.39l.23.76c.2-.22.4134-.42.64-.6.2334-.18.48-.33333.74-.46.2667-.13333.55-.23667.85-.31.3067-.07333.64-.11 1-.11.54 0 1.04.12 1.5.36s.8567.58667 1.19 1.04c.3334.45333.5934 1.01.78 1.67.1934.65333.29 1.39667.29 2.23 0 .78-.11 1.5-.33 2.16-.2133.66-.5166 1.2333-.91 1.72-.3866.4867-.8533.8667-1.4 1.14-.54.2733-1.14.41-1.8.41-.54 0-.9933-.0767-1.36-.23-.3666-.1533-.7-.36-1-.62v3.98zm5.06-11.49c-.2266 0-.4333.02333-.62.07-.18.04-.35.1-.51.18-.1533.08-.2966.18333-.43.31-.1333.12-.2666.26-.4.42v4.4c.2334.26.4867.4433.76.55.2734.1.56.15.86.15.2867 0 .55-.0567.79-.17s.4467-.2933.62-.54c.18-.2533.32-.58.42-.98s.15-.8867.15-1.46c0-.5467-.04-1.00667-.12-1.38s-.1933-.67333-.34-.9c-.14-.23333-.31-.4-.51-.5s-.4233-.15-.67-.15zm17.9297 8.2c-.2933 0-.5167-.04-.67-.12-.1467-.08-.27-.2467-.37-.5l-.22-.57c-.26.22-.51.4133-.75.58s-.49.31-.75.43c-.2533.1133-.5267.1967-.82.25-.2867.06-.6067.09-.96.09-.4733 0-.9033-.06-1.29-.18-.3867-.1267-.7167-.31-.99-.55-.2667-.24-.4733-.5367-.62-.89-.1467-.36-.22-.7733-.22-1.24 0-.3667.0933-.7433.28-1.13s.51-.7367.97-1.05c.46-.32 1.08-.5867 1.86-.8s1.7633-.33333 2.95-.36v-.44c0-.60667-.1267-1.04333-.38-1.31-.2467-.27333-.6-.41-1.06-.41-.3667 0-.6667.04-.9.12s-.4433.17-.63.27c-.18.1-.3567.19-.53.27s-.38.12-.62.12c-.2133 0-.3967-.05-.55-.15-.1467-.10667-.2633-.23667-.35-.39l-.56-.97c.6267-.55333 1.32-.96333 2.08-1.23.7667-.27333 1.5867-.41 2.46-.41.6267 0 1.19.10333 1.69.31.5067.2.9333.48333 1.28.85.3533.36.6233.79.81 1.29s.28 1.04667.28 1.64v6.48zm-3.56-1.89c.4 0 .75-.07 1.05-.21s.6033-.3667.91-.68v-1.44c-.62.0267-1.13.08-1.53.16s-.7167.18-.95.3-.3967.2567-.49.41c-.0867.1533-.13.32-.13.5 0 .3533.0967.6033.29.75.1933.14.4767.21.85.21zm7.3812 1.89v-10.37h1.92c.193 0 .353.04333.48.13.133.08667.227.21667.28.39l.18.6c.2-.18667.407-.36.62-.52s.44-.29333.68-.4c.247-.11333.51-.2.79-.26.287-.06667.597-.1.93-.1.567 0 1.067.1 1.5.3.44.19333.81.46667 1.11.82.3.34667.527.76333.68 1.25.153.48.23 1.00333.23 1.57v6.59h-3.1v-6.59c0-.50667-.117-.9-.35-1.18-.233-.28667-.577-.43-1.03-.43-.34 0-.66.07333-.96.22s-.587.34333-.86.59v7.39zm19.082 0c-.194 0-.357-.0433-.49-.13-.127-.0867-.217-.2167-.27-.39l-.24-.79c-.207.22-.424.42-.65.6-.227.18-.474.3367-.74.47-.26.1267-.544.2233-.85.29-.3.0733-.627.11-.98.11-.54 0-1.04-.12-1.5-.36s-.857-.5867-1.19-1.04c-.334-.4533-.597-1.0067-.79-1.66-.187-.66-.28-1.41-.28-2.25 0-.7733.106-1.49.32-2.15.213-.66667.513-1.24.9-1.72.393-.48667.863-.86667 1.41-1.14.546-.27333 1.15-.41 1.81-.41.533 0 .983.08 1.35.24.373.15333.71.35667 1.01.61v-5.25h3.1v14.97zm-3.14-2.22c.226 0 .43-.02.61-.06.186-.0467.356-.11.51-.19.153-.08.296-.18.43-.3.14-.12.276-.26.41-.42v-4.4c-.24-.26-.497-.44-.77-.54-.267-.10667-.55-.16-.85-.16-.287 0-.55.05667-.79.17s-.45.29667-.63.55c-.174.24667-.31.57-.41.97s-.15.8833-.15 1.45c0 .5467.04 1.0067.12 1.38s.19.6767.33.91c.146.2267.32.39.52.49s.423.15.67.15zm11.728 2.22v-10.37h1.92c.194 0 .354.04333.48.13.134.08667.227.21667.28.39l.17.56c.174-.18.354-.34333.54-.49.187-.15333.387-.28333.6-.39.22-.11333.454-.2.7-.26.254-.06667.53-.1.83-.1.627 0 1.144.16333 1.55.49.414.32.727.75.94 1.29.174-.32.384-.59333.63-.82.254-.22667.524-.41.81-.55.294-.14.6-.24333.92-.31.327-.06667.65-.1.97-.1.594 0 1.12.09 1.58.27.46.17333.844.43 1.15.77.314.33333.55.74667.71 1.24.16.48667.24 1.04.24 1.66v6.59h-3.1v-6.59c0-1.07333-.46-1.61-1.38-1.61-.42 0-.77.14-1.05.42-.273.27333-.41.67-.41 1.19v6.59h-3.1v-6.59c0-.59333-.116-1.01-.35-1.25-.233-.24-.576-.36-1.03-.36-.28 0-.546.06333-.8.19-.246.12667-.48.29667-.7.51v7.5zm24.587 0c-.293 0-.517-.04-.67-.12-.147-.08-.27-.2467-.37-.5l-.22-.57c-.26.22-.51.4133-.75.58s-.49.31-.75.43c-.253.1133-.527.1967-.82.25-.287.06-.607.09-.96.09-.473 0-.903-.06-1.29-.18-.387-.1267-.717-.31-.99-.55-.267-.24-.473-.5367-.62-.89-.147-.36-.22-.7733-.22-1.24 0-.3667.093-.7433.28-1.13s.51-.7367.97-1.05c.46-.32 1.08-.5867 1.86-.8s1.763-.33333 2.95-.36v-.44c0-.60667-.127-1.04333-.38-1.31-.247-.27333-.6-.41-1.06-.41-.367 0-.667.04-.9.12s-.443.17-.63.27c-.18.1-.357.19-.53.27s-.38.12-.62.12c-.213 0-.397-.05-.55-.15-.147-.10667-.263-.23667-.35-.39l-.56-.97c.627-.55333 1.32-.96333 2.08-1.23.767-.27333 1.587-.41 2.46-.41.627 0 1.19.10333 1.69.31.507.2.933.48333 1.28.85.353.36.623.79.81 1.29s.28 1.04667.28 1.64v6.48zm-3.56-1.89c.4 0 .75-.07 1.05-.21s.603-.3667.91-.68v-1.44c-.62.0267-1.13.08-1.53.16s-.717.18-.95.3-.397.2567-.49.41c-.087.1533-.13.32-.13.5 0 .3533.097.6033.29.75.193.14.477.21.85.21zm10.481-13.08v8.39h.46c.194 0 .34-.02667.44-.08.107-.05333.207-.15.3-.29l1.96-2.92c.114-.17333.247-.3.4-.38.16-.08.36-.12.6-.12h2.84l-2.68 3.69c-.126.17333-.266.32667-.42.46-.146.13333-.306.2533-.48.36.3.2267.56.5267.78.9l2.92 4.96h-2.8c-.233 0-.436-.0367-.61-.11-.166-.08-.303-.2167-.41-.41l-1.96-3.67c-.093-.1667-.19-.2733-.29-.32-.1-.0533-.25-.08-.45-.08h-.6v4.59h-3.1v-14.97zm12.458 4.44c.687 0 1.313.10667 1.88.32.573.21333 1.063.52333 1.47.93.413.40667.733.90667.96 1.5.233.58667.35 1.25333.35 2 0 .2333-.01.4233-.03.57s-.057.2633-.11.35-.127.1467-.22.18c-.087.0333-.2.05-.34.05h-5.98c.1.8667.363 1.4967.79 1.89.427.3867.977.58 1.65.58.36 0 .67-.0433.93-.13s.49-.1833.69-.29c.207-.1067.393-.2033.56-.29.173-.0867.353-.13.54-.13.247 0 .433.09.56.27l.9 1.11c-.32.3667-.667.6667-1.04.9-.367.2267-.747.4067-1.14.54-.387.1267-.777.2133-1.17.26-.387.0533-.757.08-1.11.08-.727 0-1.41-.1167-2.05-.35-.633-.24-1.19-.5933-1.67-1.06-.473-.4667-.85-1.0467-1.13-1.74-.273-.6933-.41-1.5-.41-2.42 0-.69333.117-1.35.35-1.97.24-.62.58-1.16333 1.02-1.63.447-.46667.983-.83667 1.61-1.11.633-.27333 1.347-.41 2.14-.41zm.06 2.14c-.593 0-1.057.17-1.39.51-.333.33333-.553.81667-.66 1.45h3.87c0-.24667-.033-.48667-.1-.72-.06-.23333-.163-.44-.31-.62-.14-.18667-.327-.33667-.56-.45s-.517-.17-.85-.17zm14.286 8.55c-.493 0-.93-.07-1.31-.21-.373-.1467-.69-.35-.95-.61-.253-.2667-.446-.5867-.58-.96-.133-.3733-.2-.79-.2-1.25v-5.36h-.88c-.16 0-.296-.05-.41-.15-.113-.10667-.17-.26-.17-.46v-1.21l1.65-.32.61-2.53c.08-.32.307-.48.68-.48h1.62v3.03h2.52v2.12h-2.52v5.15c0 .24.057.44.17.6.12.1533.29.23.51.23.114 0 .207-.01.28-.03.08-.0267.147-.0533.2-.08.06-.0333.114-.06.16-.08.054-.0267.114-.04.18-.04.094 0 .167.0233.22.07.06.04.12.1067.18.2l.94 1.47c-.4.3-.85.5267-1.35.68-.5.1467-1.016.22-1.55.22zm4.568-.16v-14.97h3.1v5.51c.373-.32.777-.57667 1.21-.77.44-.2.963-.3 1.57-.3.567 0 1.067.1 1.5.3.44.19333.81.46667 1.11.82.3.34667.527.76333.68 1.25.153.48.23 1.00333.23 1.57v6.59h-3.1v-6.59c0-.50667-.117-.9-.35-1.18-.233-.28667-.577-.43-1.03-.43-.34 0-.66.07333-.96.22s-.587.34333-.86.59v7.39zm15.002-10.37v10.37h-3.1v-10.37zm.36-2.84c0 .24667-.05.48-.15.7-.1.21333-.237.40333-.41.57-.174.16-.377.29-.61.39-.227.09333-.47.14-.73.14-.254 0-.49-.04667-.71-.14-.22-.1-.417-.23-.59-.39-.167-.16667-.3-.35667-.4-.57-.094-.22-.14-.45333-.14-.7 0-.25333.046-.49.14-.71.1-.22.233-.41333.4-.58.173-.16667.37-.29667.59-.39s.456-.14.71-.14c.26 0 .503.04667.73.14.233.09333.436.22333.61.39.173.16667.31.36.41.58s.15.45667.15.71zm2.343 13.21v-10.37h1.92c.193 0 .353.04333.48.13.133.08667.226.21667.28.39l.18.6c.2-.18667.406-.36.62-.52.213-.16.44-.29333.68-.4.246-.11333.51-.2.79-.26.286-.06667.596-.1.93-.1.566 0 1.066.1 1.5.3.44.19333.81.46667 1.11.82.3.34667.526.76333.68 1.25.153.48.23 1.00333.23 1.57v6.59h-3.1v-6.59c0-.50667-.117-.9-.35-1.18-.234-.28667-.577-.43-1.03-.43-.34 0-.66.07333-.96.22s-.587.34333-.86.59v7.39zm15.461-10.55c.44 0 .854.04333 1.24.13.394.08667.757.21 1.09.37h3.13v1.13c0 .17333-.05.31-.15.41-.093.1-.256.17667-.49.23l-.76.17c.094.3.14.61.14.93 0 .52-.11.98667-.33 1.4-.213.4133-.51.7667-.89 1.06-.373.2867-.816.51-1.33.67-.513.1533-1.063.23-1.65.23-.326 0-.633-.02-.92-.06-.226.1333-.34.2867-.34.46s.09.3.27.38c.187.0733.43.1267.73.16.3.0267.644.0467 1.03.06.387.0067.78.03 1.18.07.4.0333.794.0933 1.18.18.387.0867.73.2267 1.03.42s.54.4533.72.78c.187.32.28.73.28 1.23 0 .4667-.113.9233-.34 1.37-.226.4467-.56.8433-1 1.19s-.98.6233-1.62.83c-.64.2133-1.373.32-2.2.32-.813 0-1.516-.0767-2.11-.23-.586-.1533-1.076-.3567-1.47-.61-.386-.2467-.673-.5333-.86-.86-.186-.3267-.28-.6667-.28-1.02 0-.46.14-.8467.42-1.16.28-.32.664-.57 1.15-.75-.233-.1533-.42-.35-.56-.59s-.21-.5433-.21-.91c0-.1533.027-.3133.08-.48.054-.1733.137-.34.25-.5.114-.16.257-.3133.43-.46.174-.1467.38-.2767.62-.39-.54-.2867-.966-.6667-1.28-1.14-.306-.47333-.46-1.02333-.46-1.65 0-.52.11-.98667.33-1.4.22-.42.52-.77333.9-1.06.387-.29333.84-.51667 1.36-.67.52-.16 1.084-.24 1.69-.24zm2.3 10.93c0-.1667-.053-.3-.16-.4-.1-.1-.24-.18-.42-.24-.173-.06-.38-.1033-.62-.13-.233-.0267-.486-.0467-.76-.06-.273-.0133-.556-.0233-.85-.03-.293-.0133-.583-.0367-.87-.07-.193.1333-.353.2833-.48.45-.12.16-.18.3433-.18.55 0 .1467.03.28.09.4.067.12.18.2233.34.31s.374.1533.64.2c.274.0533.617.08 1.03.08.447 0 .814-.0267 1.1-.08.287-.0533.514-.1267.68-.22.174-.0933.294-.2067.36-.34.067-.1267.1-.2667.1-.42zm-2.3-6.11c.514 0 .884-.1267 1.11-.38.234-.26.35-.59333.35-1 0-.42-.116-.75-.35-.99-.226-.24-.596-.36-1.11-.36-.513 0-.886.12-1.12.36-.226.24-.34.57-.34.99 0 .2.027.38333.08.55.06.16667.15.31333.27.44.12.12.27.2167.45.29.187.0667.407.1.66.1zm13.349-2.37c-.08.12667-.167.21667-.26.27-.087.05333-.2.08-.34.08-.147 0-.293-.03-.44-.09-.147-.06667-.307-.13667-.48-.21-.167-.07333-.357-.14-.57-.2-.213-.06667-.457-.1-.73-.1-.393 0-.697.07667-.91.23-.207.14667-.31.35333-.31.62 0 .19333.067.35333.2.48.14.12667.323.24.55.34.227.09333.483.18333.77.27s.58.18333.88.29.593.2333.88.38c.287.14.543.3167.77.53.227.2067.407.46.54.76.14.3.21.66.21 1.08 0 .5133-.093.9867-.28 1.42s-.467.8067-.84 1.12c-.367.3133-.823.5567-1.37.73-.54.1733-1.163.26-1.87.26-.353 0-.707-.0333-1.06-.1s-.697-.1567-1.03-.27c-.327-.1133-.63-.2467-.91-.4-.28-.16-.52-.33-.72-.51l.72-1.14c.087-.1333.19-.2367.31-.31.12-.08.277-.12.47-.12.18 0 .34.04.48.12.147.08.303.1667.47.26s.36.18.58.26c.227.08.51.12.85.12.24 0 .443-.0233.61-.07.167-.0533.3-.1233.4-.21s.173-.1833.22-.29.07-.2167.07-.33c0-.2067-.07-.3767-.21-.51s-.323-.2467-.55-.34c-.227-.1-.487-.19-.78-.27-.287-.0867-.58-.1833-.88-.29s-.597-.2333-.89-.38c-.287-.1533-.543-.3433-.77-.57-.227-.2333-.41-.5167-.55-.85-.14-.33333-.21-.73667-.21-1.21 0-.44.083-.85667.25-1.25.173-.4.43-.75.77-1.05s.767-.53667 1.28-.71c.513-.18 1.113-.27 1.8-.27.373 0 .733.03333 1.08.1.353.06667.683.16.99.28s.587.26333.84.43c.253.16.477.33667.67.53zm6.736 8.1v-14.97h3.1v5.51c.373-.32.777-.57667 1.21-.77.44-.2.963-.3 1.57-.3.567 0 1.067.1 1.5.3.44.19333.81.46667 1.11.82.3.34667.527.76333.68 1.25.153.48.23 1.00333.23 1.57v6.59h-3.1v-6.59c0-.50667-.117-.9-.35-1.18-.233-.28667-.577-.43-1.03-.43-.34 0-.66.07333-.96.22s-.587.34333-.86.59v7.39zm18.961 0c-.293 0-.516-.04-.67-.12-.146-.08-.27-.2467-.37-.5l-.22-.57c-.26.22-.51.4133-.75.58s-.49.31-.75.43c-.253.1133-.526.1967-.82.25-.286.06-.606.09-.96.09-.473 0-.903-.06-1.29-.18-.386-.1267-.716-.31-.99-.55-.266-.24-.473-.5367-.62-.89-.146-.36-.22-.7733-.22-1.24 0-.3667.094-.7433.28-1.13.187-.3867.51-.7367.97-1.05.46-.32 1.08-.5867 1.86-.8s1.764-.33333 2.95-.36v-.44c0-.60667-.126-1.04333-.38-1.31-.246-.27333-.6-.41-1.06-.41-.366 0-.666.04-.9.12-.233.08-.443.17-.63.27-.18.1-.356.19-.53.27-.173.08-.38.12-.62.12-.213 0-.396-.05-.55-.15-.146-.10667-.263-.23667-.35-.39l-.56-.97c.627-.55333 1.32-.96333 2.08-1.23.767-.27333 1.587-.41 2.46-.41.627 0 1.19.10333 1.69.31.507.2.934.48333 1.28.85.354.36.624.79.81 1.29.187.5.28 1.04667.28 1.64v6.48zm-3.56-1.89c.4 0 .75-.07 1.05-.21s.604-.3667.91-.68v-1.44c-.62.0267-1.13.08-1.53.16s-.716.18-.95.3c-.233.12-.396.2567-.49.41-.086.1533-.13.32-.13.5 0 .3533.097.6033.29.75.194.14.477.21.85.21zm7.382 5.18v-13.66h1.92c.193 0 .353.04333.48.13.133.08667.226.21667.28.39l.23.76c.2-.22.413-.42.64-.6.233-.18.48-.33333.74-.46.266-.13333.55-.23667.85-.31.306-.07333.64-.11 1-.11.54 0 1.04.12 1.5.36s.856.58667 1.19 1.04c.333.45333.593 1.01.78 1.67.193.65333.29 1.39667.29 2.23 0 .78-.11 1.5-.33 2.16-.214.66-.517 1.2333-.91 1.72-.387.4867-.854.8667-1.4 1.14-.54.2733-1.14.41-1.8.41-.54 0-.994-.0767-1.36-.23-.367-.1533-.7-.36-1-.62v3.98zm5.06-11.49c-.227 0-.434.02333-.62.07-.18.04-.35.1-.51.18-.154.08-.297.18333-.43.31-.134.12-.267.26-.4.42v4.4c.233.26.486.4433.76.55.273.1.56.15.86.15.286 0 .55-.0567.79-.17s.446-.2933.62-.54c.18-.2533.32-.58.42-.98s.15-.8867.15-1.46c0-.5467-.04-1.00667-.12-1.38s-.194-.67333-.34-.9c-.14-.23333-.31-.4-.51-.5s-.424-.15-.67-.15zm6.702 11.49v-13.66h1.92c.193 0 .353.04333.48.13.133.08667.227.21667.28.39l.23.76c.2-.22.413-.42.64-.6.233-.18.48-.33333.74-.46.267-.13333.55-.23667.85-.31.307-.07333.64-.11 1-.11.54 0 1.04.12 1.5.36s.857.58667 1.19 1.04.593 1.01.78 1.67c.193.65333.29 1.39667.29 2.23 0 .78-.11 1.5-.33 2.16-.213.66-.517 1.2333-.91 1.72-.387.4867-.853.8667-1.4 1.14-.54.2733-1.14.41-1.8.41-.54 0-.993-.0767-1.36-.23s-.7-.36-1-.62v3.98zm5.06-11.49c-.227 0-.433.02333-.62.07-.18.04-.35.1-.51.18-.153.08-.297.18333-.43.31-.133.12-.267.26-.4.42v4.4c.233.26.487.4433.76.55.273.1.56.15.86.15.287 0 .55-.0567.79-.17s.447-.2933.62-.54c.18-.2533.32-.58.42-.98s.15-.8867.15-1.46c0-.5467-.04-1.00667-.12-1.38s-.193-.67333-.34-.9c-.14-.23333-.31-.4-.51-.5s-.423-.15-.67-.15zm11.143-2.33c.686 0 1.313.10667 1.88.32.573.21333 1.063.52333 1.47.93.413.40667.733.90667.96 1.5.233.58667.35 1.25333.35 2 0 .2333-.01.4233-.03.57s-.057.2633-.11.35c-.054.0867-.127.1467-.22.18-.087.0333-.2.05-.34.05h-5.98c.1.8667.363 1.4967.79 1.89.426.3867.976.58 1.65.58.36 0 .67-.0433.93-.13s.49-.1833.69-.29c.206-.1067.393-.2033.56-.29.173-.0867.353-.13.54-.13.246 0 .433.09.56.27l.9 1.11c-.32.3667-.667.6667-1.04.9-.367.2267-.747.4067-1.14.54-.387.1267-.777.2133-1.17.26-.387.0533-.757.08-1.11.08-.727 0-1.41-.1167-2.05-.35-.634-.24-1.19-.5933-1.67-1.06-.474-.4667-.85-1.0467-1.13-1.74-.274-.6933-.41-1.5-.41-2.42 0-.69333.116-1.35.35-1.97.24-.62.58-1.16333 1.02-1.63.446-.46667.983-.83667 1.61-1.11.633-.27333 1.346-.41 2.14-.41zm.06 2.14c-.594 0-1.057.17-1.39.51-.334.33333-.554.81667-.66 1.45h3.87c0-.24667-.034-.48667-.1-.72-.06-.23333-.164-.44-.31-.62-.14-.18667-.327-.33667-.56-.45-.234-.11333-.517-.17-.85-.17zm6.579 8.39v-10.37h1.92c.193 0 .353.04333.48.13.133.08667.226.21667.28.39l.18.6c.2-.18667.406-.36.62-.52.213-.16.44-.29333.68-.4.246-.11333.51-.2.79-.26.286-.06667.596-.1.93-.1.566 0 1.066.1 1.5.3.44.19333.81.46667 1.11.82.3.34667.526.76333.68 1.25.153.48.23 1.00333.23 1.57v6.59h-3.1v-6.59c0-.50667-.117-.9-.35-1.18-.234-.28667-.577-.43-1.03-.43-.34 0-.66.07333-.96.22s-.587.34333-.86.59v7.39zm11.201-1.57c0-.24.043-.4633.13-.67.093-.2067.217-.3867.37-.54.16-.1533.347-.2733.56-.36.213-.0933.447-.14.7-.14.247 0 .477.0467.69.14.213.0867.4.2067.56.36s.283.3333.37.54c.093.2067.14.43.14.67s-.047.4667-.14.68c-.087.2067-.21.3867-.37.54s-.347.2733-.56.36-.443.13-.69.13c-.253 0-.487-.0433-.7-.13s-.4-.2067-.56-.36c-.153-.1533-.277-.3333-.37-.54-.087-.2133-.13-.44-.13-.68z" fill="#121111"/></svg>