<svg fill="none" height="25" viewBox="0 0 412 25" width="412" xmlns="http://www.w3.org/2000/svg"><path d="m5.37 20h-4.42v-18.941h4.42zm9.0655 0v-19.461001h4.03v7.410001c.5026-.494 1.0703-.88833 1.703-1.183.6413-.30333 1.391-.455 2.249-.455.702 0 1.352.15167 1.95.455s1.1136.74967 1.547 1.339c.4333.58067.7713 1.29567 1.014 2.145.2513.8493.377 1.8157.377 2.899 0 1.014-.143 1.95-.429 2.808-.2774.858-.6717 1.6033-1.183 2.236-.5027.6327-1.1094 1.1267-1.82 1.482-.702.3553-1.482.533-2.34.533-.3987 0-.7584-.039-1.079-.117-.312-.078-.6024-.1863-.871-.325-.26-.1473-.5027-.3207-.728-.52-.2167-.1993-.429-.416-.637-.65l-.143.676c-.0607.2773-.1734.468-.338.572-.156.104-.364.156-.624.156zm6.578-10.66c-.2947 0-.5634.03033-.806.091-.234.052-.455.13-.663.234-.1994.104-.3857.23833-.559.403-.1734.156-.3467.338-.52.546v5.72c.3033.338.6326.5763.988.715.3553.13.728.195 1.118.195.3726 0 .715-.0737 1.027-.221s.5806-.3813.806-.702c.234-.3293.416-.754.546-1.274s.195-1.1527.195-1.898c0-.7107-.052-1.3087-.156-1.794s-.2514-.8753-.442-1.17c-.182-.30333-.403-.52-.663-.65s-.5504-.195-.871-.195zm12.534-2.821v8.554c0 .6673.1517 1.183.455 1.547s.7497.546 1.339.546c.442 0 .8537-.091 1.235-.273.39-.182.767-.4377 1.131-.767v-9.607h4.03v13.481h-2.496c-.5027 0-.832-.2253-.988-.676l-.247-.78c-.26.2513-.5287.481-.806.689-.2773.1993-.5763.3727-.897.52-.312.1387-.65.247-1.014.325-.364.0867-.7627.13-1.196.13-.7367 0-1.391-.1257-1.963-.377-.5633-.26-1.04-.6197-1.43-1.079s-.6847-1.001-.884-1.625-.299-1.3087-.299-2.054v-8.554zm15.732 0v13.481h-4.03v-13.481zm.468-3.692c0 .32067-.065.624-.195.91-.13.27733-.3076.52433-.533.741-.2253.208-.4896.377-.793.507-.2946.12133-.611.182-.949.182-.3293 0-.637-.06067-.923-.182-.286-.13-.5416-.299-.767-.507-.2166-.21667-.39-.46367-.52-.741-.1213-.286-.182-.58933-.182-.91 0-.32933.0607-.637.182-.923.13-.286.3034-.53733.52-.754.2254-.216667.481-.385667.767-.507001.286-.121333.5937-.181999.923-.181999.338 0 .6544.060666.949.181999.3034.121334.5677.290334.793.507001.2254.21667.403.468.533.754s.195.59367.195.923zm7.2061-2.288001v19.461001h-4.03v-19.461001zm12.9781 19.461001c-.2514 0-.4637-.0563-.637-.169-.1647-.1127-.2817-.2817-.351-.507l-.312-1.027c-.2687.286-.5504.546-.845.78-.2947.234-.6154.4377-.962.611-.338.1647-.7064.2903-1.105.377-.39.0953-.8147.143-1.274.143-.702 0-1.352-.156-1.95-.468s-1.1137-.7627-1.547-1.352c-.4334-.5893-.7757-1.3087-1.027-2.158-.2427-.858-.364-1.833-.364-2.925 0-1.0053.1386-1.937.416-2.795.2773-.86667.6673-1.612 1.17-2.236.5113-.63267 1.1223-1.12667 1.833-1.482.7106-.35533 1.495-.533 2.353-.533.6933 0 1.2783.104 1.755.312.4853.19933.923.46367 1.313.793v-6.825001h4.03v19.461001zm-4.082-2.886c.2946 0 .559-.026.793-.078.2426-.0607.4636-.143.663-.247.1993-.104.3856-.234.559-.39.182-.156.3596-.338.533-.546v-5.72c-.312-.338-.6457-.572-1.001-.702-.3467-.13867-.715-.208-1.105-.208-.3727 0-.715.07367-1.027.221s-.585.38567-.819.715c-.2254.3207-.403.741-.533 1.261s-.195 1.1483-.195 1.885c0 .7107.052 1.3087.156 1.794s.247.8797.429 1.183c.1906.2947.416.507.676.637s.5503.195.871.195zm19.0173-10.595v8.554c0 .6673.1517 1.183.455 1.547.3034.364.7497.546 1.339.546.442 0 .8537-.091 1.235-.273.39-.182.767-.4377 1.131-.767v-9.607h4.03v13.481h-2.496c-.5026 0-.832-.2253-.988-.676l-.247-.78c-.26.2513-.5286.481-.806.689-.2773.1993-.5763.3727-.897.52-.312.1387-.65.247-1.014.325-.364.0867-.7626.13-1.196.13-.7366 0-1.391-.1257-1.963-.377-.5633-.26-1.04-.6197-1.43-1.079s-.6846-1.001-.884-1.625c-.1993-.624-.299-1.3087-.299-2.054v-8.554zm11.5721 17.758v-17.758h2.496c.2513 0 .4593.05633.624.169.1733.11267.2946.28167.364.507l.2989.988c.26-.286.537-.546.832-.78.303-.234.624-.43333.962-.598.347-.17333.715-.30767 1.105-.403.399-.09533.832-.143 1.3-.143.702 0 1.352.156 1.95.468s1.114.76267 1.547 1.352.771 1.313 1.014 2.171c.251.8493.377 1.8157.377 2.899 0 1.014-.143 1.95-.429 2.808-.277.858-.672 1.6033-1.183 2.236-.503.6327-1.109 1.1267-1.82 1.482-.702.3553-1.482.533-2.34.533-.702 0-1.291-.0997-1.768-.299s-.91-.468-1.3-.806v5.174zm6.5779-14.937c-.295 0-.563.03033-.806.091-.234.052-.455.13-.663.234-.199.104-.386.23833-.559.403-.173.156-.347.338-.52.546v5.72c.303.338.633.5763.988.715.355.13.728.195 1.118.195.373 0 .715-.0737 1.027-.221s.581-.3813.806-.702c.234-.3293.416-.754.546-1.274s.195-1.1527.195-1.898c0-.7107-.052-1.3087-.156-1.794s-.251-.8753-.442-1.17c-.182-.30333-.403-.52-.663-.65s-.55-.195-.871-.195zm23.309 10.66c-.382 0-.672-.052-.871-.156-.191-.104-.351-.3207-.481-.65l-.286-.741c-.338.286-.663.5373-.975.754s-.637.403-.975.559c-.33.1473-.685.2557-1.066.325-.373.078-.789.117-1.248.117-.616 0-1.175-.078-1.677-.234-.503-.1647-.932-.403-1.287-.715-.347-.312-.616-.6977-.806-1.157-.191-.468-.286-1.0053-.286-1.612 0-.4767.121-.9663.364-1.469.242-.5027.663-.9577 1.261-1.365.598-.416 1.404-.7627 2.418-1.04s2.292-.4333 3.835-.468v-.572c0-.7887-.165-1.3563-.494-1.703-.321-.35533-.78-.533-1.378-.533-.477 0-.867.052-1.17.156-.304.104-.577.221-.819.351-.234.13-.464.247-.689.351-.226.104-.494.156-.806.156-.278 0-.516-.065-.715-.195-.191-.1387-.343-.30767-.455-.507l-.728-1.261c.814-.71933 1.716-1.25233 2.704-1.599.996-.35533 2.062-.533 3.198-.533.814 0 1.547.13433 2.197.403.658.26 1.213.62833 1.664 1.105.459.468.81 1.027 1.053 1.677.242.65.364 1.3607.364 2.132v8.424zm-4.628-2.457c.52 0 .975-.091 1.365-.273s.784-.4767 1.183-.884v-1.872c-.806.0347-1.469.104-1.989.208s-.932.234-1.235.39c-.304.156-.516.3337-.637.533-.113.1993-.169.416-.169.65 0 .4593.125.7843.377.975.251.182.619.273 1.105.273zm9.595 2.457v-13.481h2.496c.252 0 .46.05633.624.169.174.11267.295.28167.364.507l.234.78c.26-.24267.529-.468.806-.676.278-.208.572-.38133.884-.52.321-.14733.663-.26 1.027-.338.373-.08667.776-.13 1.209-.13.737 0 1.387.13 1.95.39.572.25133 1.053.60667 1.443 1.066.39.45067.685.99233.884 1.625.2.624.299 1.3043.299 2.041v8.567h-4.03v-8.567c0-.6587-.151-1.17-.455-1.534-.303-.37267-.749-.559-1.339-.559-.442 0-.858.09533-1.248.286s-.762.4463-1.118.767v9.607zm24.806 0c-.251 0-.463-.0563-.637-.169-.164-.1127-.281-.2817-.351-.507l-.312-1.027c-.268.286-.55.546-.845.78-.294.234-.615.4377-.962.611-.338.1647-.706.2903-1.105.377-.39.0953-.814.143-1.274.143-.702 0-1.352-.156-1.95-.468s-1.113-.7627-1.547-1.352c-.433-.5893-.775-1.3087-1.027-2.158-.242-.858-.364-1.833-.364-2.925 0-1.0053.139-1.937.416-2.795.278-.86667.668-1.612 1.17-2.236.512-.63267 1.123-1.12667 1.833-1.482.711-.35533 1.495-.533 2.353-.533.694 0 1.279.104 1.755.312.486.19933.923.46367 1.313.793v-6.825001h4.03v19.461001zm-4.082-2.886c.295 0 .559-.026.793-.078.243-.0607.464-.143.663-.247.2-.104.386-.234.559-.39.182-.156.36-.338.533-.546v-5.72c-.312-.338-.645-.572-1.001-.702-.346-.13867-.715-.208-1.105-.208-.372 0-.715.07367-1.027.221s-.585.38567-.819.715c-.225.3207-.403.741-.533 1.261s-.195 1.1483-.195 1.885c0 .7107.052 1.3087.156 1.794s.247.8797.429 1.183c.191.2947.416.507.676.637s.551.195.871.195zm15.248 2.886v-13.481h2.496c.251 0 .459.05633.624.169.173.11267.294.28167.364.507l.221.728c.225-.234.459-.44633.702-.637.242-.19933.502-.36833.78-.507.286-.14733.589-.26.91-.338.329-.08667.689-.13 1.079-.13.814 0 1.486.21233 2.015.637.537.416.944.975 1.222 1.677.225-.416.498-.77133.819-1.066.329-.29467.68-.533 1.053-.715.381-.182.78-.31633 1.196-.403.424-.08667.845-.13 1.261-.13.771 0 1.456.117 2.054.351.598.22533 1.096.559 1.495 1.001.407.43333.715.97067.923 1.612.208.63267.312 1.352.312 2.158v8.567h-4.03v-8.567c0-1.3953-.598-2.093-1.794-2.093-.546 0-1.001.182-1.365.546-.356.3553-.533.871-.533 1.547v8.567h-4.03v-8.567c0-.7713-.152-1.313-.455-1.625-.304-.312-.75-.468-1.339-.468-.364 0-.711.08233-1.04.247-.321.16467-.624.38567-.91.663v9.75zm31.962 0c-.381 0-.671-.052-.871-.156-.19-.104-.351-.3207-.481-.65l-.286-.741c-.338.286-.663.5373-.975.754s-.637.403-.975.559c-.329.1473-.684.2557-1.066.325-.372.078-.788.117-1.248.117-.615 0-1.174-.078-1.677-.234-.502-.1647-.931-.403-1.287-.715-.346-.312-.615-.6977-.806-1.157-.19-.468-.286-1.0053-.286-1.612 0-.4767.122-.9663.364-1.469.243-.5027.663-.9577 1.261-1.365.598-.416 1.404-.7627 2.418-1.04s2.293-.4333 3.835-.468v-.572c0-.7887-.164-1.3563-.494-1.703-.32-.35533-.78-.533-1.378-.533-.476 0-.866.052-1.17.156-.303.104-.576.221-.819.351-.234.13-.463.247-.689.351-.225.104-.494.156-.806.156-.277 0-.515-.065-.715-.195-.19-.1387-.342-.30767-.455-.507l-.728-1.261c.815-.71933 1.716-1.25233 2.704-1.599.997-.35533 2.063-.533 3.198-.533.815 0 1.547.13433 2.197.403.659.26 1.214.62833 1.664 1.105.46.468.811 1.027 1.053 1.677.243.65.364 1.3607.364 2.132v8.424zm-4.628-2.457c.52 0 .975-.091 1.365-.273s.785-.4767 1.183-.884v-1.872c-.806.0347-1.469.104-1.989.208s-.931.234-1.235.39c-.303.156-.515.3337-.637.533-.112.1993-.169.416-.169.65 0 .4593.126.7843.377.975.252.182.62.273 1.105.273zm13.626-17.004001v10.907001h.598c.251 0 .442-.0347.572-.104.139-.0693.269-.195.39-.377l2.548-3.796c.147-.22533.321-.39.52-.494.208-.104.468-.156.78-.156h3.692l-3.484 4.797c-.165.2253-.347.4247-.546.598-.191.1733-.399.3293-.624.468.39.2947.728.6847 1.014 1.17l3.796 6.448h-3.64c-.303 0-.568-.0477-.793-.143-.217-.104-.394-.2817-.533-.533l-2.548-4.771c-.121-.2167-.247-.3553-.377-.416-.13-.0693-.325-.104-.585-.104h-.78v5.967h-4.03v-19.461001zm16.195 5.772001c.893 0 1.708.13867 2.444.416.746.27733 1.383.68033 1.911 1.209.538.52867.954 1.17867 1.248 1.95.304.7627.455 1.6293.455 2.6 0 .3033-.013.5503-.039.741s-.073.3423-.143.455c-.069.1127-.164.1907-.286.234-.112.0433-.26.065-.442.065h-7.774c.13 1.1267.473 1.9457 1.027 2.457.555.5027 1.27.754 2.145.754.468 0 .871-.0563 1.209-.169s.637-.2383.897-.377c.269-.1387.512-.2643.728-.377.226-.1127.46-.169.702-.169.321 0 .564.117.728.351l1.17 1.443c-.416.4767-.866.8667-1.352 1.17-.476.2947-.97.5287-1.482.702-.502.1647-1.009.2773-1.521.338-.502.0693-.983.104-1.443.104-.944 0-1.833-.1517-2.665-.455-.823-.312-1.547-.7713-2.171-1.378-.615-.6067-1.105-1.3607-1.469-2.262-.355-.9013-.533-1.95-.533-3.146 0-.9013.152-1.755.455-2.561.312-.806.754-1.51233 1.326-2.119.581-.60667 1.279-1.08767 2.093-1.443.824-.35533 1.751-.533 2.782-.533zm.078 2.782c-.771 0-1.373.221-1.807.663-.433.4333-.719 1.0617-.858 1.885h5.031c0-.3207-.043-.6327-.13-.936-.078-.3033-.212-.572-.403-.806-.182-.24267-.424-.43767-.728-.585-.303-.14733-.671-.221-1.105-.221zm18.572 11.115c-.641 0-1.209-.091-1.703-.273-.485-.1907-.897-.455-1.235-.793-.329-.3467-.581-.7627-.754-1.248s-.26-1.027-.26-1.625v-6.968h-1.144c-.208 0-.386-.065-.533-.195-.147-.13867-.221-.338-.221-.598v-1.573l2.145-.416.793-3.289c.104-.416.399-.624.884-.624h2.106v3.939h3.276v2.756h-3.276v6.695c0 .312.074.572.221.78.156.1993.377.299.663.299.147 0 .269-.013.364-.039.104-.0347.191-.0693.26-.104.078-.0433.147-.078.208-.104.069-.0347.147-.052.234-.052.121 0 .217.0303.286.091.078.052.156.1387.234.26l1.222 1.911c-.52.39-1.105.6847-1.755.884-.65.1907-1.322.286-2.015.286zm5.938-.208v-19.461001h4.03v7.163001c.486-.416 1.01-.74967 1.573-1.001.572-.26 1.253-.39 2.041-.39.737 0 1.387.13 1.95.39.572.25133 1.053.60667 1.443 1.066.39.45067.685.99233.884 1.625.2.624.299 1.3043.299 2.041v8.567h-4.03v-8.567c0-.6587-.151-1.17-.455-1.534-.303-.37267-.749-.559-1.339-.559-.442 0-.858.09533-1.248.286s-.762.4463-1.118.767v9.607zm19.502-13.481v13.481h-4.03v-13.481zm.468-3.692c0 .32067-.065.624-.195.91-.13.27733-.307.52433-.533.741-.225.208-.489.377-.793.507-.294.12133-.611.182-.949.182-.329 0-.637-.06067-.923-.182-.286-.13-.541-.299-.767-.507-.216-.21667-.39-.46367-.52-.741-.121-.286-.182-.58933-.182-.91 0-.32933.061-.637.182-.923.13-.286.304-.53733.52-.754.226-.216667.481-.385667.767-.507001.286-.121333.594-.181999.923-.181999.338 0 .655.060666.949.181999.304.121334.568.290334.793.507001.226.21667.403.468.533.754s.195.59367.195.923zm3.046 17.173v-13.481h2.496c.252 0 .46.05633.624.169.174.11267.295.28167.364.507l.234.78c.26-.24267.529-.468.806-.676.278-.208.572-.38133.884-.52.321-.14733.663-.26 1.027-.338.373-.08667.776-.13 1.209-.13.737 0 1.387.13 1.95.39.572.25133 1.053.60667 1.443 1.066.39.45067.685.99233.884 1.625.2.624.299 1.3043.299 2.041v8.567h-4.03v-8.567c0-.6587-.151-1.17-.455-1.534-.303-.37267-.749-.559-1.339-.559-.442 0-.858.09533-1.248.286s-.762.4463-1.118.767v9.607zm20.1-13.715c.572 0 1.11.05633 1.612.169.512.11267.984.273 1.417.481h4.069v1.469c0 .22533-.065.403-.195.533-.121.13-.333.22967-.637.299l-.988.221c.122.39.182.793.182 1.209 0 .676-.143 1.2827-.429 1.82-.277.5373-.663.9967-1.157 1.378-.485.3727-1.061.663-1.729.871-.667.1993-1.382.299-2.145.299-.424 0-.823-.026-1.196-.078-.294.1733-.442.3727-.442.598s.117.39.351.494c.243.0953.559.1647.949.208.39.0347.837.0607 1.339.078.503.0087 1.014.039 1.534.091.52.0433 1.032.1213 1.534.234.503.1127.949.2947 1.339.546s.702.5893.936 1.014c.243.416.364.949.364 1.599 0 .6067-.147 1.2003-.442 1.781-.294.5807-.728 1.0963-1.3 1.547s-1.274.8103-2.106 1.079c-.832.2773-1.785.416-2.86.416-1.057 0-1.971-.0997-2.743-.299-.762-.1993-1.399-.4637-1.911-.793-.502-.3207-.875-.6933-1.118-1.118-.242-.4247-.364-.8667-.364-1.326 0-.598.182-1.1007.546-1.508.364-.416.863-.741 1.495-.975-.303-.1993-.546-.455-.728-.767s-.273-.7063-.273-1.183c0-.1993.035-.4073.104-.624.07-.2253.178-.442.325-.65.148-.208.334-.4073.559-.598.226-.1907.494-.3597.806-.507-.702-.3727-1.256-.8667-1.664-1.482-.398-.6153-.598-1.3303-.598-2.145 0-.676.143-1.28267.429-1.82.286-.546.676-1.00533 1.17-1.378.503-.38133 1.092-.67167 1.768-.871.676-.208 1.409-.312 2.197-.312zm2.99 14.209c0-.2167-.069-.39-.208-.52-.13-.13-.312-.234-.546-.312-.225-.078-.494-.1343-.806-.169-.303-.0347-.632-.0607-.988-.078-.355-.0173-.723-.0303-1.105-.039-.381-.0173-.758-.0477-1.131-.091-.251.1733-.459.3683-.624.585-.156.208-.234.4463-.234.715 0 .1907.039.364.117.52.087.156.234.2903.442.403s.486.1993.832.26c.356.0693.802.104 1.339.104.581 0 1.058-.0347 1.43-.104.373-.0693.668-.1647.884-.286.226-.1213.382-.2687.468-.442.087-.1647.13-.3467.13-.546zm-2.99-7.943c.668 0 1.149-.1647 1.443-.494.304-.338.455-.7713.455-1.3 0-.546-.151-.975-.455-1.287-.294-.312-.775-.468-1.443-.468-.667 0-1.152.156-1.456.468-.294.312-.442.741-.442 1.287 0 .26.035.4983.104.715.078.2167.195.4073.351.572.156.156.351.2817.585.377.243.0867.529.13.858.13zm17.354-3.081c-.104.16467-.217.28167-.338.351-.113.06933-.26.104-.442.104-.191 0-.382-.039-.572-.117-.191-.08667-.399-.17767-.624-.273-.217-.09533-.464-.182-.741-.26-.278-.08667-.594-.13-.949-.13-.512 0-.906.09967-1.183.299-.269.19067-.403.45933-.403.806 0 .2513.086.4593.26.624.182.1647.42.312.715.442.294.1213.628.2383 1.001.351.372.1127.754.2383 1.144.377s.771.3033 1.144.494c.372.182.706.4117 1.001.689.294.2687.528.598.702.988.182.39.273.858.273 1.404 0 .6673-.122 1.2827-.364 1.846-.243.5633-.607 1.0487-1.092 1.456-.477.4073-1.071.7237-1.781.949-.702.2253-1.513.338-2.431.338-.46 0-.919-.0433-1.378-.13-.46-.0867-.906-.2037-1.339-.351-.425-.1473-.819-.3207-1.183-.52-.364-.208-.676-.429-.936-.663l.936-1.482c.112-.1733.247-.3077.403-.403.156-.104.359-.156.611-.156.234 0 .442.052.624.156.19.104.394.2167.611.338.216.1213.468.234.754.338.294.104.663.156 1.105.156.312 0 .576-.0303.793-.091.216-.0693.39-.1603.52-.273s.225-.2383.286-.377c.06-.1387.091-.2817.091-.429 0-.2687-.091-.4897-.273-.663s-.421-.3207-.715-.442c-.295-.13-.633-.247-1.014-.351-.373-.1127-.754-.2383-1.144-.377s-.776-.3033-1.157-.494c-.373-.1993-.707-.4463-1.001-.741-.295-.3033-.533-.6717-.715-1.105s-.273-.9577-.273-1.573c0-.572.108-1.11367.325-1.625.225-.52.559-.975 1.001-1.365s.996-.69767 1.664-.923c.667-.234 1.447-.351 2.34-.351.485 0 .953.04333 1.404.13.459.08667.888.208 1.287.364.398.156.762.34233 1.092.559.329.208.619.43767.871.689zm8.756 10.53v-19.461001h4.03v7.163001c.486-.416 1.01-.74967 1.573-1.001.572-.26 1.253-.39 2.041-.39.737 0 1.387.13 1.95.39.572.25133 1.053.60667 1.443 1.066.39.45067.685.99233.884 1.625.2.624.299 1.3043.299 2.041v8.567h-4.03v-8.567c0-.6587-.151-1.17-.455-1.534-.303-.37267-.749-.559-1.339-.559-.442 0-.858.09533-1.248.286s-.762.4463-1.118.767v9.607zm24.65 0c-.381 0-.671-.052-.871-.156-.19-.104-.351-.3207-.481-.65l-.286-.741c-.338.286-.663.5373-.975.754s-.637.403-.975.559c-.329.1473-.684.2557-1.066.325-.372.078-.788.117-1.248.117-.615 0-1.174-.078-1.677-.234-.502-.1647-.931-.403-1.287-.715-.346-.312-.615-.6977-.806-1.157-.19-.468-.286-1.0053-.286-1.612 0-.4767.122-.9663.364-1.469.243-.5027.663-.9577 1.261-1.365.598-.416 1.404-.7627 2.418-1.04s2.293-.4333 3.835-.468v-.572c0-.7887-.164-1.3563-.494-1.703-.32-.35533-.78-.533-1.378-.533-.476 0-.866.052-1.17.156-.303.104-.576.221-.819.351-.234.13-.463.247-.689.351-.225.104-.494.156-.806.156-.277 0-.515-.065-.715-.195-.19-.1387-.342-.30767-.455-.507l-.728-1.261c.815-.71933 1.716-1.25233 2.704-1.599.997-.35533 2.063-.533 3.198-.533.815 0 1.547.13433 2.197.403.659.26 1.214.62833 1.664 1.105.46.468.811 1.027 1.053 1.677.243.65.364 1.3607.364 2.132v8.424zm-4.628-2.457c.52 0 .975-.091 1.365-.273s.785-.4767 1.183-.884v-1.872c-.806.0347-1.469.104-1.989.208s-.931.234-1.235.39c-.303.156-.515.3337-.637.533-.112.1993-.169.416-.169.65 0 .4593.126.7843.377.975.252.182.62.273 1.105.273zm9.596 6.734v-17.758h2.496c.251 0 .459.05633.624.169.173.11267.295.28167.364.507l.299.988c.26-.286.537-.546.832-.78.303-.234.624-.43333.962-.598.347-.17333.715-.30767 1.105-.403.399-.09533.832-.143 1.3-.143.702 0 1.352.156 1.95.468s1.114.76267 1.547 1.352.771 1.313 1.014 2.171c.251.8493.377 1.8157.377 2.899 0 1.014-.143 1.95-.429 2.808-.277.858-.672 1.6033-1.183 2.236-.503.6327-1.109 1.1267-1.82 1.482-.702.3553-1.482.533-2.34.533-.702 0-1.291-.0997-1.768-.299s-.91-.468-1.3-.806v5.174zm6.578-14.937c-.295 0-.563.03033-.806.091-.234.052-.455.13-.663.234-.199.104-.386.23833-.559.403-.173.156-.347.338-.52.546v5.72c.303.338.633.5763.988.715.355.13.728.195 1.118.195.373 0 .715-.0737 1.027-.221s.581-.3813.806-.702c.234-.3293.416-.754.546-1.274s.195-1.1527.195-1.898c0-.7107-.052-1.3087-.156-1.794s-.251-.8753-.442-1.17c-.182-.30333-.403-.52-.663-.65s-.55-.195-.871-.195zm8.713 14.937v-17.758h2.496c.252 0 .46.05633.624.169.174.11267.295.28167.364.507l.299.988c.26-.286.538-.546.832-.78.304-.234.624-.43333.962-.598.347-.17333.715-.30767 1.105-.403.399-.09533.832-.143 1.3-.143.702 0 1.352.156 1.95.468s1.114.76267 1.547 1.352c.434.58933.772 1.313 1.014 2.171.252.8493.377 1.8157.377 2.899 0 1.014-.143 1.95-.429 2.808-.277.858-.671 1.6033-1.183 2.236-.502.6327-1.109 1.1267-1.82 1.482-.702.3553-1.482.533-2.34.533-.702 0-1.291-.0997-1.768-.299-.476-.1993-.91-.468-1.3-.806v5.174zm6.578-14.937c-.294 0-.563.03033-.806.091-.234.052-.455.13-.663.234-.199.104-.385.23833-.559.403-.173.156-.346.338-.52.546v5.72c.304.338.633.5763.988.715.356.13.728.195 1.118.195.373 0 .715-.0737 1.027-.221s.581-.3813.806-.702c.234-.3293.416-.754.546-1.274s.195-1.1527.195-1.898c0-.7107-.052-1.3087-.156-1.794s-.251-.8753-.442-1.17c-.182-.30333-.403-.52-.663-.65s-.55-.195-.871-.195zm14.485-3.029c.893 0 1.708.13867 2.444.416.746.27733 1.383.68033 1.911 1.209.538.52867.954 1.17867 1.248 1.95.304.7627.455 1.6293.455 2.6 0 .3033-.013.5503-.039.741s-.073.3423-.143.455c-.069.1127-.164.1907-.286.234-.112.0433-.26.065-.442.065h-7.774c.13 1.1267.473 1.9457 1.027 2.457.555.5027 1.27.754 2.145.754.468 0 .871-.0563 1.209-.169s.637-.2383.897-.377c.269-.1387.512-.2643.728-.377.226-.1127.46-.169.702-.169.321 0 .564.117.728.351l1.17 1.443c-.416.4767-.866.8667-1.352 1.17-.476.2947-.97.5287-1.482.702-.502.1647-1.009.2773-1.521.338-.502.0693-.983.104-1.443.104-.944 0-1.833-.1517-2.665-.455-.823-.312-1.547-.7713-2.171-1.378-.615-.6067-1.105-1.3607-1.469-2.262-.355-.9013-.533-1.95-.533-3.146 0-.9013.152-1.755.455-2.561.312-.806.754-1.51233 1.326-2.119.581-.60667 1.279-1.08767 2.093-1.443.824-.35533 1.751-.533 2.782-.533zm.078 2.782c-.771 0-1.373.221-1.807.663-.433.4333-.719 1.0617-.858 1.885h5.031c0-.3207-.043-.6327-.13-.936-.078-.3033-.212-.572-.403-.806-.182-.24267-.424-.43767-.728-.585-.303-.14733-.671-.221-1.105-.221zm8.553 10.907v-13.481h2.496c.251 0 .459.05633.624.169.173.11267.295.28167.364.507l.234.78c.26-.24267.529-.468.806-.676s.572-.38133.884-.52c.321-.14733.663-.26 1.027-.338.373-.08667.776-.13 1.209-.13.737 0 1.387.13 1.95.39.572.25133 1.053.60667 1.443 1.066.39.45067.685.99233.884 1.625.199.624.299 1.3043.299 2.041v8.567h-4.03v-8.567c0-.6587-.152-1.17-.455-1.534-.303-.37267-.75-.559-1.339-.559-.442 0-.858.09533-1.248.286s-.763.4463-1.118.767v9.607zm14.562-2.041c0-.312.056-.6023.169-.871.121-.2687.282-.5027.481-.702.208-.1993.451-.3553.728-.468.277-.1213.581-.182.91-.182.321 0 .62.0607.897.182.277.1127.52.2687.728.468s.368.4333.481.702c.121.2687.182.559.182.871s-.061.6067-.182.884c-.113.2687-.273.5027-.481.702s-.451.3553-.728.468-.576.169-.897.169c-.329 0-.633-.0563-.91-.169s-.52-.2687-.728-.468c-.199-.1993-.36-.4333-.481-.702-.113-.2773-.169-.572-.169-.884z" fill="#121111"/></svg>