<svg fill="none" height="42" viewBox="0 0 400 42" width="400" xmlns="http://www.w3.org/2000/svg"><path d="m29.32 34h-7.65v-13.86h-13.32v13.86h-7.65v-32.7825h7.65v13.7025h13.32v-13.7025h7.65zm15.8337-23.6925c1.545 0 2.955.24 4.23.72 1.29.48 2.3925 1.1775 3.3075 2.0925.93.915 1.65 2.04 2.16 3.375.525 1.32.7875 2.82.7875 4.5 0 .525-.0225.9525-.0675 1.2825s-.1275.5925-.2475.7875-.285.33-.495.405c-.195.075-.45.1125-.765.1125h-13.455c.225 1.95.8175 3.3675 1.7775 4.2525.96.87 2.1975 1.305 3.7125 1.305.81 0 1.5075-.0975 2.0925-.2925s1.1025-.4125 1.5525-.6525c.465-.24.885-.4575 1.26-.6525.39-.195.795-.2925 1.215-.2925.555 0 .975.2025 1.26.6075l2.025 2.4975c-.72.825-1.5 1.5-2.34 2.025-.825.51-1.68.915-2.565 1.215-.87.285-1.7475.48-2.6325.585-.87.12-1.7025.18-2.4975.18-1.635 0-3.1725-.2625-4.6125-.7875-1.425-.54-2.6775-1.335-3.7575-2.385-1.065-1.05-1.9125-2.355-2.5425-3.915-.615-1.56-.9225-3.375-.9225-5.445 0-1.56.2625-3.0375.7875-4.4325.54-1.395 1.305-2.6175 2.295-3.6675 1.005-1.05 2.2125-1.8825 3.6225-2.4975 1.425-.615 3.03-.9225 4.815-.9225zm.135 4.815c-1.335 0-2.3775.3825-3.1275 1.1475-.75.75-1.245 1.8375-1.485 3.2625h8.7075c0-.555-.075-1.095-.225-1.62-.135-.525-.3675-.99-.6975-1.395-.315-.42-.735-.7575-1.26-1.0125s-1.1625-.3825-1.9125-.3825zm14.8025 18.8775v-23.3325h4.14c.345 0 .63.03.855.09.24.06.435.1575.585.2925.165.12.285.285.36.495.09.21.165.465.225.765l.3825 2.1825c.855-1.32 1.815-2.3625 2.88-3.1275s2.2275-1.1475 3.4875-1.1475c1.065 0 1.92.255 2.565.765l-.9 5.13c-.06.315-.18.54-.36.675-.18.12-.42.18-.72.18-.255 0-.555-.03-.9-.09-.345-.075-.78-.1125-1.305-.1125-1.83 0-3.27.975-4.32 2.925v14.31zm29.0289-23.6925c1.545 0 2.955.24 4.23.72 1.29.48 2.3925 1.1775 3.3075 2.0925.93.915 1.65 2.04 2.16 3.375.525 1.32.7875 2.82.7875 4.5 0 .525-.0225.9525-.0675 1.2825s-.1275.5925-.2475.7875-.285.33-.495.405c-.195.075-.45.1125-.765.1125h-13.455c.225 1.95.8175 3.3675 1.7775 4.2525.96.87 2.1975 1.305 3.7125 1.305.81 0 1.5075-.0975 2.0925-.2925s1.1025-.4125 1.5525-.6525c.465-.24.885-.4575 1.26-.6525.39-.195.795-.2925 1.215-.2925.555 0 .975.2025 1.26.6075l2.025 2.4975c-.72.825-1.5 1.5-2.34 2.025-.825.51-1.68.915-2.565 1.215-.87.285-1.7475.48-2.6325.585-.87.12-1.7025.18-2.4975.18-1.635 0-3.1725-.2625-4.6125-.7875-1.425-.54-2.6775-1.335-3.7575-2.385-1.065-1.05-1.9125-2.355-2.5425-3.915-.615-1.56-.9225-3.375-.9225-5.445 0-1.56.2625-3.0375.7875-4.4325.54-1.395 1.305-2.6175 2.295-3.6675 1.005-1.05 2.2125-1.8825 3.6225-2.4975 1.425-.615 3.03-.9225 4.815-.9225zm.135 4.815c-1.335 0-2.3775.3825-3.1275 1.1475-.75.75-1.245 1.8375-1.485 3.2625h8.7075c0-.555-.075-1.095-.225-1.62-.135-.525-.3675-.99-.6975-1.395-.315-.42-.735-.7575-1.26-1.0125s-1.1625-.3825-1.9125-.3825zm40.0639 18.8775c-.66 0-1.163-.09-1.508-.27-.33-.18-.607-.555-.832-1.125l-.495-1.2825c-.585.495-1.148.93-1.688 1.305s-1.102.6975-1.687.9675c-.57.255-1.185.4425-1.845.5625-.645.135-1.365.2025-2.16.2025-1.065 0-2.033-.135-2.903-.405-.87-.285-1.612-.6975-2.227-1.2375-.6-.54-1.065-1.2075-1.395-2.0025-.33-.81-.495-1.74-.495-2.79 0-.825.21-1.6725.63-2.5425s1.147-1.6575 2.182-2.3625c1.035-.72 2.43-1.32 4.185-1.8s3.968-.75 6.638-.81v-.99c0-1.365-.285-2.3475-.855-2.9475-.555-.615-1.35-.9225-2.385-.9225-.825 0-1.5.09-2.025.27s-.998.3825-1.418.6075c-.405.225-.802.4275-1.192.6075s-.855.27-1.395.27c-.48 0-.893-.1125-1.238-.3375-.33-.24-.592-.5325-.787-.8775l-1.26-2.1825c1.41-1.245 2.97-2.1675 4.68-2.7675 1.725-.615 3.57-.9225 5.535-.9225 1.41 0 2.677.2325 3.802.6975 1.14.45 2.1 1.0875 2.88 1.9125.795.81 1.403 1.7775 1.823 2.9025s.63 2.355.63 3.69v14.58zm-8.01-4.2525c.9 0 1.687-.1575 2.362-.4725s1.358-.825 2.048-1.53v-3.24c-1.395.06-2.543.18-3.443.36s-1.612.405-2.137.675-.893.5775-1.103.9225c-.195.345-.292.72-.292 1.125 0 .795.217 1.3575.652 1.6875.435.315 1.073.4725 1.913.4725zm16.608 4.2525v-23.3325h4.14c.345 0 .63.03.855.09.24.06.435.1575.585.2925.165.12.285.285.36.495.09.21.165.465.225.765l.382 2.1825c.855-1.32 1.815-2.3625 2.88-3.1275s2.228-1.1475 3.488-1.1475c1.065 0 1.92.255 2.565.765l-.9 5.13c-.06.315-.18.54-.36.675-.18.12-.42.18-.72.18-.255 0-.555-.03-.9-.09-.345-.075-.78-.1125-1.305-.1125-1.83 0-3.27.975-4.32 2.925v14.31zm29.028-23.6925c1.545 0 2.955.24 4.23.72 1.29.48 2.393 1.1775 3.308 2.0925.93.915 1.65 2.04 2.16 3.375.525 1.32.787 2.82.787 4.5 0 .525-.022.9525-.067 1.2825s-.128.5925-.248.7875-.285.33-.495.405c-.195.075-.45.1125-.765.1125h-13.455c.225 1.95.818 3.3675 1.778 4.2525.96.87 2.197 1.305 3.712 1.305.81 0 1.508-.0975 2.093-.2925s1.102-.4125 1.552-.6525c.465-.24.885-.4575 1.26-.6525.39-.195.795-.2925 1.215-.2925.555 0 .975.2025 1.26.6075l2.025 2.4975c-.72.825-1.5 1.5-2.34 2.025-.825.51-1.68.915-2.565 1.215-.87.285-1.747.48-2.632.585-.87.12-1.703.18-2.498.18-1.635 0-3.172-.2625-4.612-.7875-1.425-.54-2.678-1.335-3.758-2.385-1.065-1.05-1.912-2.355-2.542-3.915-.615-1.56-.923-3.375-.923-5.445 0-1.56.263-3.0375.788-4.4325.54-1.395 1.305-2.6175 2.295-3.6675 1.005-1.05 2.212-1.8825 3.622-2.4975 1.425-.615 3.03-.9225 4.815-.9225zm.135 4.815c-1.335 0-2.377.3825-3.127 1.1475-.75.75-1.245 1.8375-1.485 3.2625h8.707c0-.555-.075-1.095-.225-1.62-.135-.525-.367-.99-.697-1.395-.315-.42-.735-.7575-1.26-1.0125s-1.163-.3825-1.913-.3825zm23.954 18.8775v-23.3325h4.32c.435 0 .795.0975 1.08.2925.3.195.51.4875.63.8775l.383 1.26c.39-.405.795-.7725 1.215-1.1025.42-.345.87-.6375 1.35-.8775.495-.255 1.02-.45 1.575-.585.57-.15 1.192-.225 1.867-.225 1.41 0 2.573.3675 3.488 1.1025.93.72 1.635 1.6875 2.115 2.9025.39-.72.862-1.335 1.417-1.845.57-.51 1.178-.9225 1.823-1.2375.66-.315 1.35-.5475 2.07-.6975.735-.15 1.462-.225 2.182-.225 1.335 0 2.52.2025 3.555.6075 1.035.39 1.898.9675 2.588 1.7325.705.75 1.237 1.68 1.597 2.79.36 1.095.54 2.34.54 3.735v14.8275h-6.975v-14.8275c0-2.415-1.035-3.6225-3.105-3.6225-.945 0-1.732.315-2.362.945-.615.615-.923 1.5075-.923 2.6775v14.8275h-6.975v-14.8275c0-1.335-.262-2.2725-.787-2.8125s-1.298-.81-2.318-.81c-.63 0-1.23.1425-1.8.4275-.555.285-1.08.6675-1.575 1.1475v16.875zm47.871 6.0525c-.21.465-.465.8025-.765 1.0125-.3.225-.78.3375-1.44.3375h-5.22l4.5-9.45-9.315-21.285h6.165c.54 0 .96.12 1.26.36s.51.525.63.855l3.825 10.0575c.36.93.653 1.86.878 2.79.15-.48.315-.9525.495-1.4175s.352-.9375.517-1.4175l3.465-10.0125c.12-.345.353-.63.698-.855.36-.24.742-.36 1.147-.36h5.625zm22.234-29.385h5.58c.495 0 .923.1125 1.283.3375s.577.5175.652.8775l2.34 10.4625c.18.795.345 1.5675.495 2.3175s.285 1.4925.405 2.2275c.21-.735.428-1.47.653-2.205.24-.75.472-1.53.697-2.34l2.925-10.485c.09-.345.308-.63.653-.855.345-.24.742-.36 1.192-.36h3.105c.495 0 .915.12 1.26.36.36.225.585.51.675.855l2.79 10.485c.21.795.42 1.5675.63 2.3175.225.75.435 1.5075.63 2.2725.12-.75.263-1.4925.428-2.2275.18-.75.367-1.5375.562-2.3625l2.475-10.4625c.075-.36.285-.6525.63-.8775.36-.225.765-.3375 1.215-.3375h5.31l-7.245 23.3325h-5.67c-.3 0-.555-.09-.765-.27s-.375-.48-.495-.9l-3.33-11.6325c-.15-.525-.292-1.0425-.427-1.5525s-.255-1.02-.36-1.53c-.105.525-.225 1.05-.36 1.575-.12.51-.263 1.0275-.428 1.5525l-3.375 11.5875c-.225.78-.72 1.17-1.485 1.17h-5.4zm50.152-.36c1.77 0 3.382.2775 4.837.8325s2.7 1.35 3.735 2.385c1.05 1.035 1.86 2.295 2.43 3.78.585 1.47.878 3.1275.878 4.9725 0 1.86-.293 3.54-.878 5.04-.57 1.485-1.38 2.7525-2.43 3.8025-1.035 1.035-2.28 1.8375-3.735 2.4075-1.455.555-3.067.8325-4.837.8325-1.785 0-3.413-.2775-4.883-.8325-1.455-.57-2.715-1.3725-3.78-2.4075-1.05-1.05-1.867-2.3175-2.452-3.8025-.57-1.5-.855-3.18-.855-5.04 0-1.845.285-3.5025.855-4.9725.585-1.485 1.402-2.745 2.452-3.78 1.065-1.035 2.325-1.83 3.78-2.385 1.47-.555 3.098-.8325 4.883-.8325zm0 18.8775c1.605 0 2.782-.5625 3.532-1.6875.765-1.14 1.148-2.865 1.148-5.175s-.383-4.0275-1.148-5.1525c-.75-1.125-1.927-1.6875-3.532-1.6875-1.65 0-2.858.5625-3.623 1.6875s-1.147 2.8425-1.147 5.1525.382 4.035 1.147 5.175c.765 1.125 1.973 1.6875 3.623 1.6875zm16.158 4.815v-23.3325h4.14c.345 0 .63.03.855.09.24.06.435.1575.585.2925.165.12.285.285.36.495.09.21.165.465.225.765l.383 2.1825c.855-1.32 1.815-2.3625 2.88-3.1275s2.227-1.1475 3.487-1.1475c1.065 0 1.92.255 2.565.765l-.9 5.13c-.06.315-.18.54-.36.675-.18.12-.42.18-.72.18-.255 0-.555-.03-.9-.09-.345-.075-.78-.1125-1.305-.1125-1.83 0-3.27.975-4.32 2.925v14.31zm26.014-33.682502v18.877502h1.035c.435 0 .765-.06.99-.18.24-.12.465-.3375.675-.6525l4.41-6.57c.255-.39.555-.675.9-.855.36-.18.81-.27 1.35-.27h6.39l-6.03 8.3025c-.285.39-.6.735-.945 1.035-.33.3-.69.57-1.08.81.675.51 1.26 1.185 1.755 2.025l6.57 11.16h-6.3c-.525 0-.982-.0825-1.372-.2475-.375-.18-.683-.4875-.923-.9225l-4.41-8.2575c-.21-.375-.427-.615-.652-.72-.225-.12-.563-.18-1.013-.18h-1.35v10.3275h-6.975v-33.682502zm33.668 15.457502c-.18.285-.375.4875-.585.6075-.195.12-.45.18-.765.18-.33 0-.66-.0675-.99-.2025-.33-.15-.69-.3075-1.08-.4725-.375-.165-.803-.315-1.283-.45-.48-.15-1.027-.225-1.642-.225-.885 0-1.568.1725-2.048.5175-.465.33-.697.795-.697 1.395 0 .435.15.795.45 1.08.315.285.727.54 1.237.765.51.21 1.088.4125 1.733.6075s1.305.4125 1.98.6525 1.335.525 1.98.855c.645.315 1.222.7125 1.732 1.1925.51.465.915 1.035 1.215 1.71.315.675.473 1.485.473 2.43 0 1.155-.21 2.22-.63 3.195s-1.05 1.815-1.89 2.52c-.825.705-1.853 1.2525-3.083 1.6425-1.215.39-2.617.585-4.207.585-.795 0-1.59-.075-2.385-.225s-1.568-.3525-2.318-.6075c-.735-.255-1.417-.555-2.047-.9-.63-.36-1.17-.7425-1.62-1.1475l1.62-2.565c.195-.3.427-.5325.697-.6975.27-.18.623-.27 1.058-.27.405 0 .765.09 1.08.27.33.18.682.375 1.057.585s.81.405 1.305.585c.51.18 1.148.27 1.913.27.54 0 .997-.0525 1.372-.1575.375-.12.675-.2775.9-.4725s.39-.4125.495-.6525.158-.4875.158-.7425c0-.465-.158-.8475-.473-1.1475s-.727-.555-1.237-.765c-.51-.225-1.095-.4275-1.755-.6075-.645-.195-1.305-.4125-1.98-.6525s-1.343-.525-2.003-.855c-.645-.345-1.222-.7725-1.732-1.2825-.51-.525-.923-1.1625-1.238-1.9125s-.472-1.6575-.472-2.7225c0-.99.187-1.9275.562-2.8125.39-.9.968-1.6875 1.733-2.3625s1.725-1.2075 2.88-1.5975c1.155-.405 2.505-.6075 4.05-.6075.84 0 1.65.075 2.43.225.795.15 1.537.36 2.227.63s1.32.5925 1.89.9675c.57.36 1.073.7575 1.508 1.1925zm4.654 14.6925c0-.54.098-1.0425.293-1.5075.21-.465.487-.87.832-1.215.36-.345.78-.615 1.26-.81.48-.21 1.005-.315 1.575-.315.555 0 1.073.105 1.553.315.48.195.9.465 1.26.81s.637.75.832 1.215c.21.465.315.9675.315 1.5075s-.105 1.05-.315 1.53c-.195.465-.472.87-.832 1.215s-.78.615-1.26.81-.998.2925-1.553.2925c-.57 0-1.095-.0975-1.575-.2925s-.9-.465-1.26-.81c-.345-.345-.622-.75-.832-1.215-.195-.48-.293-.99-.293-1.53z" fill="#121111"/></svg>