<svg fill="none" height="20" viewBox="0 0 92 20" width="92" xmlns="http://www.w3.org/2000/svg"><path d="m.56 19v-18.9410002h6.968c1.30867 0 2.42233.1213332 3.341.3640002.9187.242666 1.6683.585 2.249 1.027s1.001.97933 1.261 1.612c.2687.63267.403 1.339.403 2.119 0 .42467-.0607.83633-.182 1.235-.1213.39-.312.75833-.572 1.105s-.5937.663-1.001.949c-.4073.27733-.897.52-1.469.728 1.248.30333 2.171.79733 2.769 1.482.598.676.897 1.547.897 2.613 0 .806-.156 1.5557-.468 2.249s-.7713 1.3-1.378 1.82c-.598.5113-1.339.9143-2.223 1.209-.884.286-1.89367.429-3.029.429zm4.394-8.034v4.719h3.094c.58067 0 1.053-.0737 1.417-.221.37267-.1473.663-.338.871-.572s.351-.4983.429-.793.117-.5937.117-.897c0-.3467-.0477-.6587-.143-.936-.0867-.2773-.2427-.5113-.468-.702-.2167-.1907-.507-.338-.871-.442s-.82333-.156-1.378-.156zm0-2.938h2.288c.48533 0 .923-.03467 1.313-.104s.71933-.19067.988-.364c.27733-.17333.4853-.41167.624-.715.1473-.30333.221-.68467.221-1.144 0-.45067-.0563-.82333-.169-1.118-.1127-.30333-.286-.546-.52-.728s-.533-.312-.897-.39c-.35533-.078-.78-.117-1.274-.117h-2.574zm12.6685 1.443h7.02v3.25h-7.02zm14.537 3.198v6.331h-4.394v-18.9410002h6.682c1.3347 0 2.4787.1603332 3.432.4809992.962.312 1.7507.745331 2.366 1.300001.624.55467 1.0834 1.209 1.378 1.963.2947.754.442 1.56867.442 2.444 0 .94467-.1516 1.81133-.455 2.6-.3033.78867-.767 1.4647-1.391 2.028s-1.417 1.0053-2.379 1.326c-.9533.312-2.0843.468-3.393.468zm0-3.315h2.288c1.144 0 1.9674-.273 2.47-.819.5027-.546.754-1.30867.754-2.288 0-.43333-.065-.82767-.195-1.183s-.3293-.65867-.598-.91c-.26-.26-.5936-.45933-1.001-.598-.3986-.13867-.8753-.208-1.43-.208h-2.288zm12.4461 9.646v-13.481h2.392c.1994 0 .364.01733.494.052.1387.03467.2514.091.338.169.0954.06933.1647.16467.208.286.052.12133.0954.26867.13.442l.221 1.261c.494-.76267 1.0487-1.365 1.664-1.807.6154-.442 1.287-.663 2.015-.663.6154 0 1.1094.14733 1.482.442l-.52 2.964c-.0346.182-.104.312-.208.39-.104.06933-.2426.104-.416.104-.1473 0-.3206-.01733-.52-.052-.1993-.04333-.4506-.065-.754-.065-1.0573 0-1.8893.56333-2.496 1.69v8.268zm17.0063-13.689c1.0226 0 1.9543.16033 2.795.481.8406.32067 1.56.78 2.158 1.378.6066.598 1.0746 1.326 1.404 2.184.338.8493.507 1.807.507 2.873 0 1.0747-.169 2.0453-.507 2.912-.3294.858-.7974 1.5903-1.404 2.197-.598.598-1.3174 1.0617-2.158 1.391-.8407.3207-1.7724.481-2.795.481-1.0314 0-1.9717-.1603-2.821-.481-.8407-.3293-1.5687-.793-2.184-1.391-.6067-.6067-1.079-1.339-1.417-2.197-.3294-.8667-.494-1.8373-.494-2.912 0-1.066.1646-2.0237.494-2.873.338-.858.8103-1.586 1.417-2.184.6153-.598 1.3433-1.05733 2.184-1.378.8493-.32067 1.7896-.481 2.821-.481zm0 10.907c.9273 0 1.6076-.325 2.041-.975.442-.6587.663-1.6553.663-2.99s-.221-2.327-.663-2.977c-.4334-.65-1.1137-.975-2.041-.975-.9534 0-1.651.325-2.093.975s-.663 1.6423-.663 2.977.221 2.3313.663 2.99c.442.65 1.1396.975 2.093.975zm17.578-7.748c-.104.16467-.2167.28167-.338.351-.1127.06933-.26.104-.442.104-.1907 0-.3813-.039-.572-.117-.1907-.08667-.3987-.17767-.624-.273-.2167-.09533-.4637-.182-.741-.26-.2773-.08667-.5937-.13-.949-.13-.5113 0-.9057.09967-1.183.299-.2687.19067-.403.45933-.403.806 0 .25133.0867.45933.26.624.182.1647.4203.312.715.442.2947.1213.6283.2383 1.001.351s.754.2383 1.144.377.7713.3033 1.144.494c.3727.182.7063.4117 1.001.689.2947.2687.5287.598.702.988.182.39.273.858.273 1.404 0 .6673-.1213 1.2827-.364 1.846s-.6067 1.0487-1.092 1.456c-.4767.4073-1.0703.7237-1.781.949-.702.2253-1.5123.338-2.431.338-.4593 0-.9187-.0433-1.378-.13s-.9057-.2037-1.339-.351c-.4247-.1473-.819-.3207-1.183-.52-.364-.208-.676-.429-.936-.663l.936-1.482c.1127-.1733.247-.3077.403-.403.156-.104.3597-.156.611-.156.234 0 .442.052.624.156.1907.104.3943.2167.611.338s.468.234.754.338c.2947.104.663.156 1.105.156.312 0 .5763-.0303.793-.091.2167-.0693.39-.1603.52-.273s.2253-.2383.286-.377.091-.2817.091-.429c0-.2687-.091-.4897-.273-.663s-.4203-.3207-.715-.442c-.2947-.13-.6327-.247-1.014-.351-.3727-.1127-.754-.2383-1.144-.377s-.7757-.3033-1.157-.494c-.3727-.1993-.7063-.4463-1.001-.741-.2947-.3033-.533-.6717-.715-1.105s-.273-.9577-.273-1.573c0-.572.1083-1.11367.325-1.625.2253-.52.559-.975 1.001-1.365s.9967-.69767 1.664-.923c.6673-.234 1.4473-.351 2.34-.351.4853 0 .9533.04333 1.404.13.4593.08667.8883.208 1.287.364s.7627.34233 1.092.559c.3293.208.6197.43767.871.689zm8.2012 10.738c-.6414 0-1.209-.091-1.703-.273-.4854-.1907-.897-.455-1.235-.793-.3294-.3467-.5807-.7627-.754-1.248-.1734-.4853-.26-1.027-.26-1.625v-6.968h-1.144c-.208 0-.3857-.065-.533-.195-.1474-.13867-.221-.338-.221-.598v-1.573l2.145-.416.793-3.289c.104-.416.3986-.624.884-.624h2.106v3.939h3.276v2.756h-3.276v6.695c0 .312.0736.572.221.78.156.1993.377.299.663.299.1473 0 .2686-.013.364-.039.104-.0347.1906-.0693.26-.104.078-.0433.1473-.078.208-.104.0693-.0347.1473-.052.234-.052.1213 0 .2166.0303.286.091.078.052.156.1387.234.26l1.222 1.911c-.52.39-1.105.6847-1.755.884-.65.1907-1.3217.286-2.015.286z" fill="#121111"/></svg>