<svg width="342" height="31" viewBox="0 0 342 31" fill="none" xmlns="http://www.w3.org/2000/svg">
<path d="M24.928 13.336C24.928 15.0213 24.6347 16.5893 24.048 18.04C23.472 19.4907 22.656 20.7547 21.6 21.832C20.544 22.8987 19.2693 23.736 17.776 24.344C16.2933 24.952 14.6453 25.256 12.832 25.256C11.0187 25.256 9.36533 24.952 7.872 24.344C6.37867 23.736 5.09867 22.8987 4.032 21.832C2.976 20.7547 2.15467 19.4907 1.568 18.04C0.992 16.5893 0.704 15.0213 0.704 13.336C0.704 11.6507 0.992 10.0827 1.568 8.632C2.15467 7.18133 2.976 5.92267 4.032 4.856C5.09867 3.78933 6.37867 2.952 7.872 2.344C9.36533 1.736 11.0187 1.432 12.832 1.432C14.6453 1.432 16.2933 1.74133 17.776 2.36C19.2693 2.968 20.544 3.80533 21.6 4.872C22.656 5.93867 23.472 7.19733 24.048 8.648C24.6347 10.0987 24.928 11.6613 24.928 13.336ZM19.392 13.336C19.392 12.184 19.2427 11.1493 18.944 10.232C18.6453 9.304 18.2133 8.52 17.648 7.88C17.0933 7.24 16.4107 6.74933 15.6 6.408C14.7893 6.06667 13.8667 5.896 12.832 5.896C11.7867 5.896 10.8533 6.06667 10.032 6.408C9.22133 6.74933 8.53333 7.24 7.968 7.88C7.41333 8.52 6.98667 9.304 6.688 10.232C6.38933 11.1493 6.24 12.184 6.24 13.336C6.24 14.4987 6.38933 15.544 6.688 16.472C6.98667 17.3893 7.41333 18.168 7.968 18.808C8.53333 19.448 9.22133 19.9387 10.032 20.28C10.8533 20.6107 11.7867 20.776 12.832 20.776C13.8667 20.776 14.7893 20.6107 15.6 20.28C16.4107 19.9387 17.0933 19.448 17.648 18.808C18.2133 18.168 18.6453 17.3893 18.944 16.472C19.2427 15.544 19.392 14.4987 19.392 13.336ZM27.8337 25V8.408H30.7778C31.0231 8.408 31.2257 8.42933 31.3857 8.472C31.5564 8.51467 31.6951 8.584 31.8018 8.68C31.9191 8.76533 32.0044 8.88267 32.0577 9.032C32.1217 9.18133 32.1751 9.36267 32.2178 9.576L32.4897 11.128C33.0978 10.1893 33.7804 9.448 34.5378 8.904C35.2951 8.36 36.1217 8.088 37.0177 8.088C37.7751 8.088 38.3831 8.26933 38.8418 8.632L38.2017 12.28C38.1591 12.504 38.0738 12.664 37.9458 12.76C37.8177 12.8453 37.6471 12.888 37.4338 12.888C37.2524 12.888 37.0391 12.8667 36.7937 12.824C36.5484 12.7707 36.2391 12.744 35.8658 12.744C34.5644 12.744 33.5404 13.4373 32.7937 14.824V25H27.8337ZM46.4925 8.408V25H41.5325V8.408H46.4925ZM47.0685 3.864C47.0685 4.25867 46.9885 4.632 46.8285 4.984C46.6685 5.32533 46.4498 5.62933 46.1725 5.896C45.8952 6.152 45.5698 6.36 45.1965 6.52C44.8338 6.66933 44.4445 6.744 44.0285 6.744C43.6232 6.744 43.2445 6.66933 42.8925 6.52C42.5405 6.36 42.2258 6.152 41.9485 5.896C41.6818 5.62933 41.4685 5.32533 41.3085 4.984C41.1592 4.632 41.0845 4.25867 41.0845 3.864C41.0845 3.45867 41.1592 3.08 41.3085 2.728C41.4685 2.376 41.6818 2.06667 41.9485 1.8C42.2258 1.53333 42.5405 1.32533 42.8925 1.176C43.2445 1.02667 43.6232 0.952 44.0285 0.952C44.4445 0.952 44.8338 1.02667 45.1965 1.176C45.5698 1.32533 45.8952 1.53333 46.1725 1.8C46.4498 2.06667 46.6685 2.376 46.8285 2.728C46.9885 3.08 47.0685 3.45867 47.0685 3.864ZM56.6735 8.12C57.3775 8.12 58.0388 8.18933 58.6575 8.328C59.2868 8.46667 59.8682 8.664 60.4015 8.92H65.4095V10.728C65.4095 11.0053 65.3295 11.224 65.1695 11.384C65.0202 11.544 64.7588 11.6667 64.3855 11.752L63.1695 12.024C63.3188 12.504 63.3935 13 63.3935 13.512C63.3935 14.344 63.2175 15.0907 62.8655 15.752C62.5242 16.4133 62.0495 16.9787 61.4415 17.448C60.8442 17.9067 60.1348 18.264 59.3135 18.52C58.4922 18.7653 57.6122 18.888 56.6735 18.888C56.1508 18.888 55.6602 18.856 55.2015 18.792C54.8388 19.0053 54.6575 19.2507 54.6575 19.528C54.6575 19.8053 54.8015 20.008 55.0895 20.136C55.3882 20.2533 55.7775 20.3387 56.2575 20.392C56.7375 20.4347 57.2868 20.4667 57.9055 20.488C58.5242 20.4987 59.1535 20.536 59.7935 20.6C60.4335 20.6533 61.0628 20.7493 61.6815 20.888C62.3002 21.0267 62.8495 21.2507 63.3295 21.56C63.8095 21.8693 64.1935 22.2853 64.4815 22.808C64.7802 23.32 64.9295 23.976 64.9295 24.776C64.9295 25.5227 64.7482 26.2533 64.3855 26.968C64.0228 27.6827 63.4895 28.3173 62.7855 28.872C62.0815 29.4267 61.2175 29.8693 60.1935 30.2C59.1695 30.5413 57.9962 30.712 56.6735 30.712C55.3722 30.712 54.2468 30.5893 53.2975 30.344C52.3588 30.0987 51.5748 29.7733 50.9455 29.368C50.3268 28.9733 49.8682 28.5147 49.5695 27.992C49.2708 27.4693 49.1215 26.9253 49.1215 26.36C49.1215 25.624 49.3455 25.0053 49.7935 24.504C50.2415 23.992 50.8548 23.592 51.6335 23.304C51.2602 23.0587 50.9615 22.744 50.7375 22.36C50.5135 21.976 50.4015 21.4907 50.4015 20.904C50.4015 20.6587 50.4442 20.4027 50.5295 20.136C50.6148 19.8587 50.7482 19.592 50.9295 19.336C51.1108 19.08 51.3402 18.8347 51.6175 18.6C51.8948 18.3653 52.2255 18.1573 52.6095 17.976C51.7455 17.5173 51.0628 16.9093 50.5615 16.152C50.0708 15.3947 49.8255 14.5147 49.8255 13.512C49.8255 12.68 50.0015 11.9333 50.3535 11.272C50.7055 10.6 51.1855 10.0347 51.7935 9.576C52.4122 9.10667 53.1375 8.74933 53.9695 8.504C54.8015 8.248 55.7028 8.12 56.6735 8.12ZM60.3535 25.608C60.3535 25.3413 60.2682 25.128 60.0975 24.968C59.9375 24.808 59.7135 24.68 59.4255 24.584C59.1482 24.488 58.8175 24.4187 58.4335 24.376C58.0602 24.3333 57.6548 24.3013 57.2175 24.28C56.7802 24.2587 56.3268 24.2427 55.8575 24.232C55.3882 24.2107 54.9242 24.1733 54.4655 24.12C54.1562 24.3333 53.9002 24.5733 53.6975 24.84C53.5055 25.096 53.4095 25.3893 53.4095 25.72C53.4095 25.9547 53.4575 26.168 53.5535 26.36C53.6602 26.552 53.8415 26.7173 54.0975 26.856C54.3535 26.9947 54.6948 27.1013 55.1215 27.176C55.5588 27.2613 56.1082 27.304 56.7695 27.304C57.4842 27.304 58.0708 27.2613 58.5295 27.176C58.9882 27.0907 59.3508 26.9733 59.6175 26.824C59.8948 26.6747 60.0868 26.4933 60.1935 26.28C60.3002 26.0773 60.3535 25.8533 60.3535 25.608ZM56.6735 15.832C57.4948 15.832 58.0868 15.6293 58.4495 15.224C58.8228 14.808 59.0095 14.2747 59.0095 13.624C59.0095 12.952 58.8228 12.424 58.4495 12.04C58.0868 11.656 57.4948 11.464 56.6735 11.464C55.8522 11.464 55.2548 11.656 54.8815 12.04C54.5188 12.424 54.3375 12.952 54.3375 13.624C54.3375 13.944 54.3802 14.2373 54.4655 14.504C54.5615 14.7707 54.7055 15.0053 54.8975 15.208C55.0895 15.4 55.3295 15.5547 55.6175 15.672C55.9162 15.7787 56.2682 15.832 56.6735 15.832ZM73.0075 8.408V25H68.0475V8.408H73.0075ZM73.5835 3.864C73.5835 4.25867 73.5035 4.632 73.3435 4.984C73.1835 5.32533 72.9648 5.62933 72.6875 5.896C72.4102 6.152 72.0848 6.36 71.7115 6.52C71.3488 6.66933 70.9595 6.744 70.5435 6.744C70.1382 6.744 69.7595 6.66933 69.4075 6.52C69.0555 6.36 68.7408 6.152 68.4635 5.896C68.1968 5.62933 67.9835 5.32533 67.8235 4.984C67.6742 4.632 67.5995 4.25867 67.5995 3.864C67.5995 3.45867 67.6742 3.08 67.8235 2.728C67.9835 2.376 68.1968 2.06667 68.4635 1.8C68.7408 1.53333 69.0555 1.32533 69.4075 1.176C69.7595 1.02667 70.1382 0.952 70.5435 0.952C70.9595 0.952 71.3488 1.02667 71.7115 1.176C72.0848 1.32533 72.4102 1.53333 72.6875 1.8C72.9648 2.06667 73.1835 2.376 73.3435 2.728C73.5035 3.08 73.5835 3.45867 73.5835 3.864ZM77.3325 25V8.408H80.4045C80.7138 8.408 80.9698 8.47733 81.1725 8.616C81.3858 8.75467 81.5352 8.96267 81.6205 9.24L81.9085 10.2C82.2285 9.90133 82.5592 9.624 82.9005 9.368C83.2418 9.112 83.6045 8.89867 83.9885 8.728C84.3832 8.54667 84.8045 8.408 85.2525 8.312C85.7112 8.20533 86.2072 8.152 86.7405 8.152C87.6472 8.152 88.4472 8.312 89.1405 8.632C89.8445 8.94133 90.4365 9.37867 90.9165 9.944C91.3965 10.4987 91.7592 11.1653 92.0045 11.944C92.2498 12.712 92.3725 13.5493 92.3725 14.456V25H87.4125V14.456C87.4125 13.6453 87.2258 13.016 86.8525 12.568C86.4792 12.1093 85.9298 11.88 85.2045 11.88C84.6605 11.88 84.1485 11.9973 83.6685 12.232C83.1885 12.4667 82.7298 12.7813 82.2925 13.176V25H77.3325ZM107.671 25C107.202 25 106.844 24.936 106.599 24.808C106.364 24.68 106.167 24.4133 106.007 24.008L105.655 23.096C105.239 23.448 104.839 23.7573 104.455 24.024C104.071 24.2907 103.671 24.52 103.255 24.712C102.85 24.8933 102.412 25.0267 101.943 25.112C101.484 25.208 100.972 25.256 100.407 25.256C99.6497 25.256 98.9617 25.16 98.343 24.968C97.7243 24.7653 97.1963 24.472 96.759 24.088C96.3323 23.704 96.0017 23.2293 95.767 22.664C95.5323 22.088 95.415 21.4267 95.415 20.68C95.415 20.0933 95.5643 19.4907 95.863 18.872C96.1617 18.2533 96.679 17.6933 97.415 17.192C98.151 16.68 99.143 16.2533 100.391 15.912C101.639 15.5707 103.212 15.3787 105.111 15.336V14.632C105.111 13.6613 104.908 12.9627 104.503 12.536C104.108 12.0987 103.543 11.88 102.807 11.88C102.22 11.88 101.74 11.944 101.367 12.072C100.994 12.2 100.658 12.344 100.359 12.504C100.071 12.664 99.7883 12.808 99.511 12.936C99.2337 13.064 98.903 13.128 98.519 13.128C98.1777 13.128 97.8843 13.048 97.639 12.888C97.4043 12.7173 97.2177 12.5093 97.079 12.264L96.183 10.712C97.1857 9.82667 98.295 9.17067 99.511 8.744C100.738 8.30667 102.05 8.088 103.447 8.088C104.45 8.088 105.351 8.25333 106.151 8.584C106.962 8.904 107.644 9.35733 108.199 9.944C108.764 10.52 109.196 11.208 109.495 12.008C109.794 12.808 109.943 13.6827 109.943 14.632V25H107.671ZM101.975 21.976C102.615 21.976 103.175 21.864 103.655 21.64C104.135 21.416 104.62 21.0533 105.111 20.552V18.248C104.119 18.2907 103.303 18.376 102.663 18.504C102.023 18.632 101.516 18.792 101.143 18.984C100.77 19.176 100.508 19.3947 100.359 19.64C100.22 19.8853 100.151 20.152 100.151 20.44C100.151 21.0053 100.306 21.4053 100.615 21.64C100.924 21.864 101.378 21.976 101.975 21.976ZM118.905 1.048V25H113.945V1.048H118.905ZM129.737 25V1.688H138.313C139.924 1.688 141.295 1.83733 142.425 2.136C143.556 2.43467 144.479 2.856 145.193 3.4C145.908 3.944 146.425 4.60533 146.745 5.384C147.076 6.16267 147.241 7.032 147.241 7.992C147.241 8.51467 147.167 9.02133 147.017 9.512C146.868 9.992 146.633 10.4453 146.313 10.872C145.993 11.2987 145.583 11.688 145.081 12.04C144.58 12.3813 143.977 12.68 143.273 12.936C144.809 13.3093 145.945 13.9173 146.681 14.76C147.417 15.592 147.785 16.664 147.785 17.976C147.785 18.968 147.593 19.8907 147.209 20.744C146.825 21.5973 146.26 22.344 145.513 22.984C144.777 23.6133 143.865 24.1093 142.777 24.472C141.689 24.824 140.447 25 139.049 25H129.737ZM135.145 15.112V20.92H138.953C139.668 20.92 140.249 20.8293 140.697 20.648C141.156 20.4667 141.513 20.232 141.769 19.944C142.025 19.656 142.201 19.3307 142.297 18.968C142.393 18.6053 142.441 18.2373 142.441 17.864C142.441 17.4373 142.383 17.0533 142.265 16.712C142.159 16.3707 141.967 16.0827 141.689 15.848C141.423 15.6133 141.065 15.432 140.617 15.304C140.169 15.176 139.604 15.112 138.921 15.112H135.145ZM135.145 11.496H137.961C138.559 11.496 139.097 11.4533 139.577 11.368C140.057 11.2827 140.463 11.1333 140.793 10.92C141.135 10.7067 141.391 10.4133 141.561 10.04C141.743 9.66667 141.833 9.19733 141.833 8.632C141.833 8.07733 141.764 7.61867 141.625 7.256C141.487 6.88267 141.273 6.584 140.985 6.36C140.697 6.136 140.329 5.976 139.881 5.88C139.444 5.784 138.921 5.736 138.313 5.736H135.145V11.496ZM162.513 25C162.044 25 161.687 24.936 161.441 24.808C161.207 24.68 161.009 24.4133 160.849 24.008L160.497 23.096C160.081 23.448 159.681 23.7573 159.297 24.024C158.913 24.2907 158.513 24.52 158.097 24.712C157.692 24.8933 157.255 25.0267 156.785 25.112C156.327 25.208 155.815 25.256 155.249 25.256C154.492 25.256 153.804 25.16 153.185 24.968C152.567 24.7653 152.039 24.472 151.601 24.088C151.175 23.704 150.844 23.2293 150.609 22.664C150.375 22.088 150.257 21.4267 150.257 20.68C150.257 20.0933 150.407 19.4907 150.705 18.872C151.004 18.2533 151.521 17.6933 152.257 17.192C152.993 16.68 153.985 16.2533 155.233 15.912C156.481 15.5707 158.055 15.3787 159.953 15.336V14.632C159.953 13.6613 159.751 12.9627 159.345 12.536C158.951 12.0987 158.385 11.88 157.649 11.88C157.063 11.88 156.583 11.944 156.209 12.072C155.836 12.2 155.5 12.344 155.201 12.504C154.913 12.664 154.631 12.808 154.353 12.936C154.076 13.064 153.745 13.128 153.361 13.128C153.02 13.128 152.727 13.048 152.481 12.888C152.247 12.7173 152.06 12.5093 151.921 12.264L151.025 10.712C152.028 9.82667 153.137 9.17067 154.353 8.744C155.58 8.30667 156.892 8.088 158.289 8.088C159.292 8.088 160.193 8.25333 160.993 8.584C161.804 8.904 162.487 9.35733 163.041 9.944C163.607 10.52 164.039 11.208 164.337 12.008C164.636 12.808 164.785 13.6827 164.785 14.632V25H162.513ZM156.817 21.976C157.457 21.976 158.017 21.864 158.497 21.64C158.977 21.416 159.463 21.0533 159.953 20.552V18.248C158.961 18.2907 158.145 18.376 157.505 18.504C156.865 18.632 156.359 18.792 155.985 18.984C155.612 19.176 155.351 19.3947 155.201 19.64C155.063 19.8853 154.993 20.152 154.993 20.44C154.993 21.0053 155.148 21.4053 155.457 21.64C155.767 21.864 156.22 21.976 156.817 21.976ZM174.484 8.12C175.188 8.12 175.849 8.18933 176.468 8.328C177.097 8.46667 177.678 8.664 178.212 8.92H183.22V10.728C183.22 11.0053 183.14 11.224 182.98 11.384C182.83 11.544 182.569 11.6667 182.196 11.752L180.98 12.024C181.129 12.504 181.204 13 181.204 13.512C181.204 14.344 181.028 15.0907 180.676 15.752C180.334 16.4133 179.86 16.9787 179.252 17.448C178.654 17.9067 177.945 18.264 177.124 18.52C176.302 18.7653 175.422 18.888 174.484 18.888C173.961 18.888 173.47 18.856 173.012 18.792C172.649 19.0053 172.468 19.2507 172.468 19.528C172.468 19.8053 172.612 20.008 172.9 20.136C173.198 20.2533 173.588 20.3387 174.068 20.392C174.548 20.4347 175.097 20.4667 175.716 20.488C176.334 20.4987 176.964 20.536 177.604 20.6C178.244 20.6533 178.873 20.7493 179.492 20.888C180.11 21.0267 180.66 21.2507 181.14 21.56C181.62 21.8693 182.004 22.2853 182.292 22.808C182.59 23.32 182.74 23.976 182.74 24.776C182.74 25.5227 182.558 26.2533 182.196 26.968C181.833 27.6827 181.3 28.3173 180.596 28.872C179.892 29.4267 179.028 29.8693 178.004 30.2C176.98 30.5413 175.806 30.712 174.484 30.712C173.182 30.712 172.057 30.5893 171.108 30.344C170.169 30.0987 169.385 29.7733 168.756 29.368C168.137 28.9733 167.678 28.5147 167.38 27.992C167.081 27.4693 166.932 26.9253 166.932 26.36C166.932 25.624 167.156 25.0053 167.604 24.504C168.052 23.992 168.665 23.592 169.444 23.304C169.07 23.0587 168.772 22.744 168.548 22.36C168.324 21.976 168.212 21.4907 168.212 20.904C168.212 20.6587 168.254 20.4027 168.34 20.136C168.425 19.8587 168.558 19.592 168.74 19.336C168.921 19.08 169.15 18.8347 169.428 18.6C169.705 18.3653 170.036 18.1573 170.42 17.976C169.556 17.5173 168.873 16.9093 168.372 16.152C167.881 15.3947 167.636 14.5147 167.636 13.512C167.636 12.68 167.812 11.9333 168.164 11.272C168.516 10.6 168.996 10.0347 169.604 9.576C170.222 9.10667 170.948 8.74933 171.78 8.504C172.612 8.248 173.513 8.12 174.484 8.12ZM178.164 25.608C178.164 25.3413 178.078 25.128 177.908 24.968C177.748 24.808 177.524 24.68 177.236 24.584C176.958 24.488 176.628 24.4187 176.244 24.376C175.87 24.3333 175.465 24.3013 175.028 24.28C174.59 24.2587 174.137 24.2427 173.668 24.232C173.198 24.2107 172.734 24.1733 172.276 24.12C171.966 24.3333 171.71 24.5733 171.508 24.84C171.316 25.096 171.22 25.3893 171.22 25.72C171.22 25.9547 171.268 26.168 171.364 26.36C171.47 26.552 171.652 26.7173 171.908 26.856C172.164 26.9947 172.505 27.1013 172.932 27.176C173.369 27.2613 173.918 27.304 174.58 27.304C175.294 27.304 175.881 27.2613 176.34 27.176C176.798 27.0907 177.161 26.9733 177.428 26.824C177.705 26.6747 177.897 26.4933 178.004 26.28C178.11 26.0773 178.164 25.8533 178.164 25.608ZM174.484 15.832C175.305 15.832 175.897 15.6293 176.26 15.224C176.633 14.808 176.82 14.2747 176.82 13.624C176.82 12.952 176.633 12.424 176.26 12.04C175.897 11.656 175.305 11.464 174.484 11.464C173.662 11.464 173.065 11.656 172.692 12.04C172.329 12.424 172.148 12.952 172.148 13.624C172.148 13.944 172.19 14.2373 172.276 14.504C172.372 14.7707 172.516 15.0053 172.708 15.208C172.9 15.4 173.14 15.5547 173.428 15.672C173.726 15.7787 174.078 15.832 174.484 15.832ZM207.869 18.968C207.997 18.968 208.125 18.9947 208.253 19.048C208.381 19.0907 208.504 19.1707 208.621 19.288L210.765 21.544C209.826 22.7707 208.648 23.6987 207.229 24.328C205.821 24.9467 204.152 25.256 202.221 25.256C200.45 25.256 198.861 24.9573 197.453 24.36C196.056 23.752 194.866 22.92 193.885 21.864C192.914 20.7973 192.168 19.5387 191.645 18.088C191.122 16.6267 190.861 15.0427 190.861 13.336C190.861 11.5973 191.16 10.0027 191.757 8.552C192.354 7.09067 193.186 5.832 194.253 4.776C195.33 3.72 196.616 2.89867 198.109 2.312C199.602 1.72533 201.25 1.432 203.053 1.432C203.928 1.432 204.749 1.512 205.517 1.672C206.296 1.82133 207.021 2.03466 207.693 2.312C208.365 2.57867 208.984 2.904 209.549 3.288C210.114 3.66133 210.616 4.07733 211.053 4.536L209.229 6.984C209.112 7.13333 208.973 7.272 208.813 7.4C208.653 7.51733 208.429 7.576 208.141 7.576C207.949 7.576 207.768 7.53333 207.597 7.448C207.426 7.36267 207.245 7.26133 207.053 7.144C206.861 7.016 206.648 6.88267 206.413 6.744C206.189 6.59467 205.917 6.46133 205.597 6.344C205.288 6.216 204.92 6.10933 204.493 6.024C204.077 5.93867 203.586 5.896 203.021 5.896C202.04 5.896 201.144 6.072 200.333 6.424C199.522 6.76533 198.824 7.26133 198.237 7.912C197.661 8.552 197.208 9.33067 196.877 10.248C196.557 11.1653 196.397 12.1947 196.397 13.336C196.397 14.5307 196.557 15.592 196.877 16.52C197.208 17.448 197.65 18.232 198.205 18.872C198.77 19.5013 199.426 19.9813 200.173 20.312C200.92 20.6427 201.72 20.808 202.573 20.808C203.064 20.808 203.512 20.7867 203.917 20.744C204.322 20.6907 204.696 20.6053 205.037 20.488C205.389 20.3707 205.72 20.2213 206.029 20.04C206.349 19.848 206.669 19.6133 206.989 19.336C207.117 19.2293 207.256 19.144 207.405 19.08C207.554 19.0053 207.709 18.968 207.869 18.968ZM220.948 8.152C222.207 8.152 223.354 8.34933 224.388 8.744C225.423 9.13867 226.308 9.704 227.044 10.44C227.791 11.176 228.367 12.072 228.772 13.128C229.188 14.1733 229.396 15.352 229.396 16.664C229.396 17.9867 229.188 19.1813 228.772 20.248C228.367 21.304 227.791 22.2053 227.044 22.952C226.308 23.688 225.423 24.2587 224.388 24.664C223.354 25.0587 222.207 25.256 220.948 25.256C219.679 25.256 218.522 25.0587 217.476 24.664C216.442 24.2587 215.546 23.688 214.788 22.952C214.042 22.2053 213.46 21.304 213.044 20.248C212.639 19.1813 212.436 17.9867 212.436 16.664C212.436 15.352 212.639 14.1733 213.044 13.128C213.46 12.072 214.042 11.176 214.788 10.44C215.546 9.704 216.442 9.13867 217.476 8.744C218.522 8.34933 219.679 8.152 220.948 8.152ZM220.948 21.576C222.09 21.576 222.927 21.176 223.46 20.376C224.004 19.5653 224.276 18.3387 224.276 16.696C224.276 15.0533 224.004 13.832 223.46 13.032C222.927 12.232 222.09 11.832 220.948 11.832C219.775 11.832 218.916 12.232 218.372 13.032C217.828 13.832 217.556 15.0533 217.556 16.696C217.556 18.3387 217.828 19.5653 218.372 20.376C218.916 21.176 219.775 21.576 220.948 21.576ZM237.559 1.048V25H232.599V1.048H237.559ZM247.004 1.048V25H242.044V1.048H247.004ZM258.433 8.152C259.531 8.152 260.534 8.32267 261.441 8.664C262.358 9.00533 263.142 9.50133 263.793 10.152C264.454 10.8027 264.966 11.6027 265.329 12.552C265.702 13.4907 265.889 14.5573 265.889 15.752C265.889 16.1253 265.873 16.4293 265.841 16.664C265.809 16.8987 265.75 17.0853 265.665 17.224C265.579 17.3627 265.462 17.4587 265.313 17.512C265.174 17.5653 264.993 17.592 264.769 17.592H255.201C255.361 18.9787 255.782 19.9867 256.465 20.616C257.147 21.2347 258.027 21.544 259.105 21.544C259.681 21.544 260.177 21.4747 260.593 21.336C261.009 21.1973 261.377 21.0427 261.697 20.872C262.027 20.7013 262.326 20.5467 262.593 20.408C262.87 20.2693 263.158 20.2 263.457 20.2C263.851 20.2 264.15 20.344 264.353 20.632L265.793 22.408C265.281 22.9947 264.726 23.4747 264.129 23.848C263.542 24.2107 262.934 24.4987 262.305 24.712C261.686 24.9147 261.062 25.0533 260.433 25.128C259.814 25.2133 259.222 25.256 258.657 25.256C257.494 25.256 256.401 25.0693 255.377 24.696C254.363 24.312 253.473 23.7467 252.705 23C251.947 22.2533 251.345 21.3253 250.897 20.216C250.459 19.1067 250.241 17.816 250.241 16.344C250.241 15.2347 250.427 14.184 250.801 13.192C251.185 12.2 251.729 11.3307 252.433 10.584C253.147 9.83733 254.006 9.24533 255.009 8.808C256.022 8.37067 257.163 8.152 258.433 8.152ZM258.529 11.576C257.579 11.576 256.838 11.848 256.305 12.392C255.771 12.9253 255.419 13.6987 255.249 14.712H261.441C261.441 14.3173 261.387 13.9333 261.281 13.56C261.185 13.1867 261.019 12.856 260.785 12.568C260.561 12.2693 260.262 12.0293 259.889 11.848C259.515 11.6667 259.062 11.576 258.529 11.576ZM281.023 12.344C280.874 12.5253 280.73 12.6693 280.591 12.776C280.452 12.8827 280.255 12.936 279.999 12.936C279.754 12.936 279.53 12.8773 279.327 12.76C279.135 12.6427 278.916 12.5147 278.671 12.376C278.426 12.2267 278.138 12.0933 277.807 11.976C277.476 11.8587 277.066 11.8 276.575 11.8C275.967 11.8 275.439 11.912 274.991 12.136C274.554 12.36 274.191 12.68 273.903 13.096C273.615 13.512 273.402 14.024 273.263 14.632C273.124 15.2293 273.055 15.9067 273.055 16.664C273.055 18.2533 273.359 19.4747 273.967 20.328C274.586 21.1813 275.434 21.608 276.511 21.608C277.087 21.608 277.54 21.5387 277.871 21.4C278.212 21.2507 278.5 21.0907 278.735 20.92C278.97 20.7387 279.183 20.5733 279.375 20.424C279.578 20.2747 279.828 20.2 280.127 20.2C280.522 20.2 280.82 20.344 281.023 20.632L282.463 22.408C281.951 22.9947 281.412 23.4747 280.847 23.848C280.282 24.2107 279.7 24.4987 279.103 24.712C278.516 24.9147 277.924 25.0533 277.327 25.128C276.73 25.2133 276.148 25.256 275.583 25.256C274.57 25.256 273.599 25.064 272.671 24.68C271.754 24.296 270.943 23.7413 270.239 23.016C269.546 22.28 268.991 21.3787 268.575 20.312C268.17 19.2453 267.967 18.0293 267.967 16.664C267.967 15.4693 268.143 14.3547 268.495 13.32C268.858 12.2747 269.386 11.3733 270.079 10.616C270.783 9.848 271.647 9.24533 272.671 8.808C273.706 8.37067 274.9 8.152 276.255 8.152C277.556 8.152 278.698 8.36 279.679 8.776C280.66 9.192 281.546 9.8 282.335 10.6L281.023 12.344ZM290.761 25.256C289.972 25.256 289.273 25.144 288.665 24.92C288.068 24.6853 287.561 24.36 287.145 23.944C286.74 23.5173 286.431 23.0053 286.217 22.408C286.004 21.8107 285.897 21.144 285.897 20.408V11.832H284.489C284.233 11.832 284.015 11.752 283.833 11.592C283.652 11.4213 283.561 11.176 283.561 10.856V8.92L286.201 8.408L287.177 4.36C287.305 3.848 287.668 3.592 288.265 3.592H290.857V8.44H294.889V11.832H290.857V20.072C290.857 20.456 290.948 20.776 291.129 21.032C291.321 21.2773 291.593 21.4 291.945 21.4C292.127 21.4 292.276 21.384 292.393 21.352C292.521 21.3093 292.628 21.2667 292.713 21.224C292.809 21.1707 292.895 21.128 292.969 21.096C293.055 21.0533 293.151 21.032 293.257 21.032C293.407 21.032 293.524 21.0693 293.609 21.144C293.705 21.208 293.801 21.3147 293.897 21.464L295.401 23.816C294.761 24.296 294.041 24.6587 293.241 24.904C292.441 25.1387 291.615 25.256 290.761 25.256ZM303.19 8.408V25H298.23V8.408H303.19ZM303.766 3.864C303.766 4.25867 303.686 4.632 303.526 4.984C303.366 5.32533 303.147 5.62933 302.87 5.896C302.593 6.152 302.267 6.36 301.894 6.52C301.531 6.66933 301.142 6.744 300.726 6.744C300.321 6.744 299.942 6.66933 299.59 6.52C299.238 6.36 298.923 6.152 298.646 5.896C298.379 5.62933 298.166 5.32533 298.006 4.984C297.857 4.632 297.782 4.25867 297.782 3.864C297.782 3.45867 297.857 3.08 298.006 2.728C298.166 2.376 298.379 2.06667 298.646 1.8C298.923 1.53333 299.238 1.32533 299.59 1.176C299.942 1.02667 300.321 0.952 300.726 0.952C301.142 0.952 301.531 1.02667 301.894 1.176C302.267 1.32533 302.593 1.53333 302.87 1.8C303.147 2.06667 303.366 2.376 303.526 2.728C303.686 3.08 303.766 3.45867 303.766 3.864ZM314.907 8.152C316.166 8.152 317.312 8.34933 318.347 8.744C319.382 9.13867 320.267 9.704 321.003 10.44C321.75 11.176 322.326 12.072 322.731 13.128C323.147 14.1733 323.355 15.352 323.355 16.664C323.355 17.9867 323.147 19.1813 322.731 20.248C322.326 21.304 321.75 22.2053 321.003 22.952C320.267 23.688 319.382 24.2587 318.347 24.664C317.312 25.0587 316.166 25.256 314.907 25.256C313.638 25.256 312.48 25.0587 311.435 24.664C310.4 24.2587 309.504 23.688 308.747 22.952C308 22.2053 307.419 21.304 307.003 20.248C306.598 19.1813 306.395 17.9867 306.395 16.664C306.395 15.352 306.598 14.1733 307.003 13.128C307.419 12.072 308 11.176 308.747 10.44C309.504 9.704 310.4 9.13867 311.435 8.744C312.48 8.34933 313.638 8.152 314.907 8.152ZM314.907 21.576C316.048 21.576 316.886 21.176 317.419 20.376C317.963 19.5653 318.235 18.3387 318.235 16.696C318.235 15.0533 317.963 13.832 317.419 13.032C316.886 12.232 316.048 11.832 314.907 11.832C313.734 11.832 312.875 12.232 312.331 13.032C311.787 13.832 311.515 15.0533 311.515 16.696C311.515 18.3387 311.787 19.5653 312.331 20.376C312.875 21.176 313.734 21.576 314.907 21.576ZM326.398 25V8.408H329.47C329.779 8.408 330.035 8.47733 330.238 8.616C330.451 8.75467 330.6 8.96267 330.686 9.24L330.974 10.2C331.294 9.90133 331.624 9.624 331.966 9.368C332.307 9.112 332.67 8.89867 333.054 8.728C333.448 8.54667 333.87 8.408 334.318 8.312C334.776 8.20533 335.272 8.152 335.806 8.152C336.712 8.152 337.512 8.312 338.206 8.632C338.91 8.94133 339.502 9.37867 339.982 9.944C340.462 10.4987 340.824 11.1653 341.07 11.944C341.315 12.712 341.438 13.5493 341.438 14.456V25H336.478V14.456C336.478 13.6453 336.291 13.016 335.918 12.568C335.544 12.1093 334.995 11.88 334.27 11.88C333.726 11.88 333.214 11.9973 332.734 12.232C332.254 12.4667 331.795 12.7813 331.358 13.176V25H326.398Z" fill="#121111"/>
</svg>
