<svg width="214" height="21" viewBox="0 0 214 21" fill="none" xmlns="http://www.w3.org/2000/svg">
<path d="M4.954 12.993V20H0.56V1.059H6.722C8.09133 1.059 9.257 1.202 10.219 1.488C11.1897 1.76533 11.9783 2.15533 12.585 2.658C13.2003 3.16067 13.6467 3.75433 13.924 4.439C14.2013 5.12367 14.34 5.869 14.34 6.675C14.34 7.29033 14.2577 7.871 14.093 8.417C13.9283 8.963 13.6813 9.47 13.352 9.938C13.0313 10.3973 12.6327 10.809 12.156 11.173C11.688 11.537 11.1463 11.836 10.531 12.07C10.8257 12.2173 11.0987 12.3993 11.35 12.616C11.61 12.8327 11.8353 13.097 12.026 13.409L16.056 20H12.078C11.3413 20 10.8127 19.7227 10.492 19.168L7.346 13.669C7.20733 13.4263 7.04267 13.253 6.852 13.149C6.67 13.045 6.41 12.993 6.072 12.993H4.954ZM4.954 9.964H6.722C7.32 9.964 7.827 9.89033 8.243 9.743C8.66767 9.587 9.01433 9.37467 9.283 9.106C9.55167 8.83733 9.74667 8.52533 9.868 8.17C9.98933 7.806 10.05 7.416 10.05 7C10.05 6.168 9.777 5.518 9.231 5.05C8.69367 4.582 7.85733 4.348 6.722 4.348H4.954V9.964ZM27.419 20C27.0377 20 26.7473 19.948 26.548 19.844C26.3573 19.74 26.197 19.5233 26.067 19.194L25.781 18.453C25.443 18.739 25.118 18.9903 24.806 19.207C24.494 19.4237 24.169 19.61 23.831 19.766C23.5017 19.9133 23.1463 20.0217 22.765 20.091C22.3923 20.169 21.9763 20.208 21.517 20.208C20.9017 20.208 20.3427 20.13 19.84 19.974C19.3373 19.8093 18.9083 19.571 18.553 19.259C18.2063 18.947 17.9377 18.5613 17.747 18.102C17.5563 17.634 17.461 17.0967 17.461 16.49C17.461 16.0133 17.5823 15.5237 17.825 15.021C18.0677 14.5183 18.488 14.0633 19.086 13.656C19.684 13.24 20.49 12.8933 21.504 12.616C22.518 12.3387 23.7963 12.1827 25.339 12.148V11.576C25.339 10.7873 25.1743 10.2197 24.845 9.873C24.5243 9.51767 24.065 9.34 23.467 9.34C22.9903 9.34 22.6003 9.392 22.297 9.496C21.9937 9.6 21.7207 9.717 21.478 9.847C21.244 9.977 21.0143 10.094 20.789 10.198C20.5637 10.302 20.295 10.354 19.983 10.354C19.7057 10.354 19.4673 10.289 19.268 10.159C19.0773 10.0203 18.9257 9.85133 18.813 9.652L18.085 8.391C18.8997 7.67167 19.801 7.13867 20.789 6.792C21.7857 6.43667 22.8517 6.259 23.987 6.259C24.8017 6.259 25.534 6.39333 26.184 6.662C26.8427 6.922 27.3973 7.29033 27.848 7.767C28.3073 8.235 28.6583 8.794 28.901 9.444C29.1437 10.094 29.265 10.8047 29.265 11.576V20H27.419ZM22.791 17.543C23.311 17.543 23.766 17.452 24.156 17.27C24.546 17.088 24.9403 16.7933 25.339 16.386V14.514C24.533 14.5487 23.87 14.618 23.35 14.722C22.83 14.826 22.4183 14.956 22.115 15.112C21.8117 15.268 21.5993 15.4457 21.478 15.645C21.3653 15.8443 21.309 16.061 21.309 16.295C21.309 16.7543 21.4347 17.0793 21.686 17.27C21.9373 17.452 22.3057 17.543 22.791 17.543ZM32.3866 20V6.519H34.8826C35.134 6.519 35.342 6.57533 35.5066 6.688C35.68 6.80067 35.8013 6.96967 35.8706 7.195L36.1046 7.975C36.3646 7.73233 36.6333 7.507 36.9106 7.299C37.188 7.091 37.4826 6.91767 37.7946 6.779C38.1153 6.63167 38.4576 6.519 38.8216 6.441C39.1943 6.35433 39.5973 6.311 40.0306 6.311C40.7673 6.311 41.4173 6.441 41.9806 6.701C42.5526 6.95233 43.0336 7.30767 43.4236 7.767C43.8136 8.21767 44.1083 8.75933 44.3076 9.392C44.507 10.016 44.6066 10.6963 44.6066 11.433V20H40.5766V11.433C40.5766 10.7743 40.425 10.263 40.1216 9.899C39.8183 9.52633 39.372 9.34 38.7826 9.34C38.3406 9.34 37.9246 9.43533 37.5346 9.626C37.1446 9.81667 36.772 10.0723 36.4166 10.393V20H32.3866ZM57.4527 9.717C57.3313 9.86433 57.2143 9.98133 57.1017 10.068C56.989 10.1547 56.8287 10.198 56.6207 10.198C56.4213 10.198 56.2393 10.1503 56.0747 10.055C55.9187 9.95967 55.741 9.85567 55.5417 9.743C55.3423 9.62167 55.1083 9.51333 54.8397 9.418C54.571 9.32267 54.2373 9.275 53.8387 9.275C53.3447 9.275 52.9157 9.366 52.5517 9.548C52.1963 9.73 51.9017 9.99 51.6677 10.328C51.4337 10.666 51.2603 11.082 51.1477 11.576C51.035 12.0613 50.9787 12.6117 50.9787 13.227C50.9787 14.5183 51.2257 15.5107 51.7197 16.204C52.2223 16.8973 52.9113 17.244 53.7867 17.244C54.2547 17.244 54.623 17.1877 54.8917 17.075C55.169 16.9537 55.403 16.8237 55.5937 16.685C55.7843 16.5377 55.9577 16.4033 56.1137 16.282C56.2783 16.1607 56.482 16.1 56.7247 16.1C57.0453 16.1 57.288 16.217 57.4527 16.451L58.6227 17.894C58.2067 18.3707 57.769 18.7607 57.3097 19.064C56.8503 19.3587 56.378 19.5927 55.8927 19.766C55.416 19.9307 54.935 20.0433 54.4497 20.104C53.9643 20.1733 53.492 20.208 53.0327 20.208C52.2093 20.208 51.4207 20.052 50.6667 19.74C49.9213 19.428 49.2627 18.9773 48.6907 18.388C48.1273 17.79 47.6767 17.0577 47.3387 16.191C47.0093 15.3243 46.8447 14.3363 46.8447 13.227C46.8447 12.2563 46.9877 11.3507 47.2737 10.51C47.5683 9.66067 47.9973 8.92833 48.5607 8.313C49.1327 7.689 49.8347 7.19933 50.6667 6.844C51.5073 6.48867 52.478 6.311 53.5787 6.311C54.636 6.311 55.5633 6.48 56.3607 6.818C57.158 7.156 57.8773 7.65 58.5187 8.3L57.4527 9.717ZM60.6332 20V0.538999H64.6632V7.702C65.1485 7.286 65.6729 6.95233 66.2362 6.701C66.8082 6.441 67.4885 6.311 68.2772 6.311C69.0139 6.311 69.6639 6.441 70.2272 6.701C70.7992 6.95233 71.2802 7.30767 71.6702 7.767C72.0602 8.21767 72.3549 8.75933 72.5542 9.392C72.7535 10.016 72.8532 10.6963 72.8532 11.433V20H68.8232V11.433C68.8232 10.7743 68.6715 10.263 68.3682 9.899C68.0649 9.52633 67.6185 9.34 67.0292 9.34C66.5872 9.34 66.1712 9.43533 65.7812 9.626C65.3912 9.81667 65.0185 10.0723 64.6632 10.393V20H60.6332ZM81.9812 6.311C83.0039 6.311 83.9356 6.47133 84.7762 6.792C85.6169 7.11267 86.3362 7.572 86.9342 8.17C87.5409 8.768 88.0089 9.496 88.3382 10.354C88.6762 11.2033 88.8452 12.161 88.8452 13.227C88.8452 14.3017 88.6762 15.2723 88.3382 16.139C88.0089 16.997 87.5409 17.7293 86.9342 18.336C86.3362 18.934 85.6169 19.3977 84.7762 19.727C83.9356 20.0477 83.0039 20.208 81.9812 20.208C80.9499 20.208 80.0096 20.0477 79.1602 19.727C78.3196 19.3977 77.5916 18.934 76.9762 18.336C76.3696 17.7293 75.8972 16.997 75.5592 16.139C75.2299 15.2723 75.0652 14.3017 75.0652 13.227C75.0652 12.161 75.2299 11.2033 75.5592 10.354C75.8972 9.496 76.3696 8.768 76.9762 8.17C77.5916 7.572 78.3196 7.11267 79.1602 6.792C80.0096 6.47133 80.9499 6.311 81.9812 6.311ZM81.9812 17.218C82.9086 17.218 83.5889 16.893 84.0222 16.243C84.4642 15.5843 84.6852 14.5877 84.6852 13.253C84.6852 11.9183 84.4642 10.926 84.0222 10.276C83.5889 9.626 82.9086 9.301 81.9812 9.301C81.0279 9.301 80.3302 9.626 79.8882 10.276C79.4462 10.926 79.2252 11.9183 79.2252 13.253C79.2252 14.5877 79.4462 15.5843 79.8882 16.243C80.3302 16.893 81.0279 17.218 81.9812 17.218ZM107.161 4.907C107.031 5.115 106.892 5.271 106.745 5.375C106.606 5.479 106.424 5.531 106.199 5.531C105.999 5.531 105.783 5.47033 105.549 5.349C105.323 5.219 105.063 5.076 104.769 4.92C104.483 4.764 104.153 4.62533 103.781 4.504C103.408 4.374 102.983 4.309 102.507 4.309C101.683 4.309 101.068 4.48667 100.661 4.842C100.262 5.18867 100.063 5.661 100.063 6.259C100.063 6.64033 100.184 6.95667 100.427 7.208C100.669 7.45933 100.986 7.676 101.376 7.858C101.774 8.04 102.225 8.209 102.728 8.365C103.239 8.51233 103.759 8.68133 104.288 8.872C104.816 9.054 105.332 9.27067 105.835 9.522C106.346 9.77333 106.797 10.094 107.187 10.484C107.585 10.874 107.906 11.3507 108.149 11.914C108.391 12.4687 108.513 13.1403 108.513 13.929C108.513 14.8043 108.361 15.6233 108.058 16.386C107.754 17.1487 107.312 17.816 106.732 18.388C106.16 18.9513 105.449 19.3977 104.6 19.727C103.759 20.0477 102.801 20.208 101.727 20.208C101.137 20.208 100.535 20.1473 99.9196 20.026C99.3129 19.9047 98.7236 19.7357 98.1516 19.519C97.5796 19.2937 97.0423 19.0293 96.5396 18.726C96.0369 18.4227 95.5993 18.0847 95.2266 17.712L96.5266 15.658C96.6219 15.502 96.7563 15.3763 96.9296 15.281C97.1029 15.1857 97.2893 15.138 97.4886 15.138C97.7486 15.138 98.0086 15.2203 98.2686 15.385C98.5373 15.5497 98.8363 15.7317 99.1656 15.931C99.5036 16.1303 99.8893 16.3123 100.323 16.477C100.756 16.6417 101.267 16.724 101.857 16.724C102.654 16.724 103.274 16.5507 103.716 16.204C104.158 15.8487 104.379 15.2897 104.379 14.527C104.379 14.085 104.257 13.7253 104.015 13.448C103.772 13.1707 103.451 12.941 103.053 12.759C102.663 12.577 102.216 12.4167 101.714 12.278C101.211 12.1393 100.695 11.9877 100.167 11.823C99.6379 11.6497 99.1223 11.4417 98.6196 11.199C98.1169 10.9477 97.6663 10.6227 97.2676 10.224C96.8776 9.81667 96.5613 9.314 96.3186 8.716C96.0759 8.10933 95.9546 7.364 95.9546 6.48C95.9546 5.76933 96.0976 5.076 96.3836 4.4C96.6696 3.724 97.0899 3.12167 97.6446 2.593C98.1993 2.06433 98.8796 1.644 99.6856 1.332C100.492 1.01133 101.415 0.850999 102.455 0.850999C103.035 0.850999 103.599 0.898666 104.145 0.994C104.699 1.08067 105.224 1.215 105.718 1.397C106.212 1.57033 106.671 1.78267 107.096 2.034C107.529 2.27667 107.915 2.554 108.253 2.866L107.161 4.907ZM116.962 6.311C117.985 6.311 118.917 6.47133 119.757 6.792C120.598 7.11267 121.317 7.572 121.915 8.17C122.522 8.768 122.99 9.496 123.319 10.354C123.657 11.2033 123.826 12.161 123.826 13.227C123.826 14.3017 123.657 15.2723 123.319 16.139C122.99 16.997 122.522 17.7293 121.915 18.336C121.317 18.934 120.598 19.3977 119.757 19.727C118.917 20.0477 117.985 20.208 116.962 20.208C115.931 20.208 114.991 20.0477 114.141 19.727C113.301 19.3977 112.573 18.934 111.957 18.336C111.351 17.7293 110.878 16.997 110.54 16.139C110.211 15.2723 110.046 14.3017 110.046 13.227C110.046 12.161 110.211 11.2033 110.54 10.354C110.878 9.496 111.351 8.768 111.957 8.17C112.573 7.572 113.301 7.11267 114.141 6.792C114.991 6.47133 115.931 6.311 116.962 6.311ZM116.962 17.218C117.89 17.218 118.57 16.893 119.003 16.243C119.445 15.5843 119.666 14.5877 119.666 13.253C119.666 11.9183 119.445 10.926 119.003 10.276C118.57 9.626 117.89 9.301 116.962 9.301C116.009 9.301 115.311 9.626 114.869 10.276C114.427 10.926 114.206 11.9183 114.206 13.253C114.206 14.5877 114.427 15.5843 114.869 16.243C115.311 16.893 116.009 17.218 116.962 17.218ZM126.298 20V6.519H128.794C129.046 6.519 129.254 6.57533 129.418 6.688C129.592 6.80067 129.713 6.96967 129.782 7.195L130.003 7.923C130.229 7.689 130.463 7.47667 130.705 7.286C130.948 7.08667 131.208 6.91767 131.485 6.779C131.771 6.63167 132.075 6.519 132.395 6.441C132.725 6.35433 133.084 6.311 133.474 6.311C134.289 6.311 134.961 6.52333 135.489 6.948C136.027 7.364 136.434 7.923 136.711 8.625C136.937 8.209 137.21 7.85367 137.53 7.559C137.86 7.26433 138.211 7.026 138.583 6.844C138.965 6.662 139.363 6.52767 139.779 6.441C140.204 6.35433 140.624 6.311 141.04 6.311C141.812 6.311 142.496 6.428 143.094 6.662C143.692 6.88733 144.191 7.221 144.589 7.663C144.997 8.09633 145.304 8.63367 145.512 9.275C145.72 9.90767 145.824 10.627 145.824 11.433V20H141.794V11.433C141.794 10.0377 141.196 9.34 140 9.34C139.454 9.34 138.999 9.522 138.635 9.886C138.28 10.2413 138.102 10.757 138.102 11.433V20H134.072V11.433C134.072 10.6617 133.921 10.12 133.617 9.808C133.314 9.496 132.868 9.34 132.278 9.34C131.914 9.34 131.568 9.42233 131.238 9.587C130.918 9.75167 130.614 9.97267 130.328 10.25V20H126.298ZM148.953 20V0.538999H152.983V7.949C153.486 7.455 154.053 7.06067 154.686 6.766C155.327 6.46267 156.077 6.311 156.935 6.311C157.637 6.311 158.287 6.46267 158.885 6.766C159.483 7.06933 159.999 7.51567 160.432 8.105C160.865 8.68567 161.203 9.40067 161.446 10.25C161.697 11.0993 161.823 12.0657 161.823 13.149C161.823 14.163 161.68 15.099 161.394 15.957C161.117 16.815 160.722 17.5603 160.211 18.193C159.708 18.8257 159.102 19.3197 158.391 19.675C157.689 20.0303 156.909 20.208 156.051 20.208C155.652 20.208 155.293 20.169 154.972 20.091C154.66 20.013 154.37 19.9047 154.101 19.766C153.841 19.6187 153.598 19.4453 153.373 19.246C153.156 19.0467 152.944 18.83 152.736 18.596L152.593 19.272C152.532 19.5493 152.42 19.74 152.255 19.844C152.099 19.948 151.891 20 151.631 20H148.953ZM155.531 9.34C155.236 9.34 154.968 9.37033 154.725 9.431C154.491 9.483 154.27 9.561 154.062 9.665C153.863 9.769 153.676 9.90333 153.503 10.068C153.33 10.224 153.156 10.406 152.983 10.614V16.334C153.286 16.672 153.616 16.9103 153.971 17.049C154.326 17.179 154.699 17.244 155.089 17.244C155.462 17.244 155.804 17.1703 156.116 17.023C156.428 16.8757 156.697 16.6417 156.922 16.321C157.156 15.9917 157.338 15.567 157.468 15.047C157.598 14.527 157.663 13.8943 157.663 13.149C157.663 12.4383 157.611 11.8403 157.507 11.355C157.403 10.8697 157.256 10.4797 157.065 10.185C156.883 9.88167 156.662 9.665 156.402 9.535C156.142 9.405 155.852 9.34 155.531 9.34ZM164.295 20V6.519H166.687C166.886 6.519 167.051 6.53633 167.181 6.571C167.32 6.60567 167.432 6.662 167.519 6.74C167.614 6.80933 167.684 6.90467 167.727 7.026C167.779 7.14733 167.822 7.29467 167.857 7.468L168.078 8.729C168.572 7.96633 169.127 7.364 169.742 6.922C170.357 6.48 171.029 6.259 171.757 6.259C172.372 6.259 172.866 6.40633 173.239 6.701L172.719 9.665C172.684 9.847 172.615 9.977 172.511 10.055C172.407 10.1243 172.268 10.159 172.095 10.159C171.948 10.159 171.774 10.1417 171.575 10.107C171.376 10.0637 171.124 10.042 170.821 10.042C169.764 10.042 168.932 10.6053 168.325 11.732V20H164.295ZM181.067 6.311C181.96 6.311 182.775 6.44967 183.511 6.727C184.257 7.00433 184.894 7.40733 185.422 7.936C185.96 8.46467 186.376 9.11467 186.67 9.886C186.974 10.6487 187.125 11.5153 187.125 12.486C187.125 12.7893 187.112 13.0363 187.086 13.227C187.06 13.4177 187.013 13.5693 186.943 13.682C186.874 13.7947 186.779 13.8727 186.657 13.916C186.545 13.9593 186.397 13.981 186.215 13.981H178.441C178.571 15.1077 178.914 15.9267 179.468 16.438C180.023 16.9407 180.738 17.192 181.613 17.192C182.081 17.192 182.484 17.1357 182.822 17.023C183.16 16.9103 183.459 16.7847 183.719 16.646C183.988 16.5073 184.231 16.3817 184.447 16.269C184.673 16.1563 184.907 16.1 185.149 16.1C185.47 16.1 185.713 16.217 185.877 16.451L187.047 17.894C186.631 18.3707 186.181 18.7607 185.695 19.064C185.219 19.3587 184.725 19.5927 184.213 19.766C183.711 19.9307 183.204 20.0433 182.692 20.104C182.19 20.1733 181.709 20.208 181.249 20.208C180.305 20.208 179.416 20.0563 178.584 19.753C177.761 19.441 177.037 18.9817 176.413 18.375C175.798 17.7683 175.308 17.0143 174.944 16.113C174.589 15.2117 174.411 14.163 174.411 12.967C174.411 12.0657 174.563 11.212 174.866 10.406C175.178 9.6 175.62 8.89367 176.192 8.287C176.773 7.68033 177.471 7.19933 178.285 6.844C179.109 6.48867 180.036 6.311 181.067 6.311ZM181.145 9.093C180.374 9.093 179.772 9.314 179.338 9.756C178.905 10.1893 178.619 10.8177 178.48 11.641H183.511C183.511 11.3203 183.468 11.0083 183.381 10.705C183.303 10.4017 183.169 10.133 182.978 9.899C182.796 9.65633 182.554 9.46133 182.25 9.314C181.947 9.16667 181.579 9.093 181.145 9.093ZM189.698 20V6.519H192.09C192.289 6.519 192.454 6.53633 192.584 6.571C192.722 6.60567 192.835 6.662 192.922 6.74C193.017 6.80933 193.086 6.90467 193.13 7.026C193.182 7.14733 193.225 7.29467 193.26 7.468L193.481 8.729C193.975 7.96633 194.529 7.364 195.145 6.922C195.76 6.48 196.432 6.259 197.16 6.259C197.775 6.259 198.269 6.40633 198.642 6.701L198.122 9.665C198.087 9.847 198.018 9.977 197.914 10.055C197.81 10.1243 197.671 10.159 197.498 10.159C197.35 10.159 197.177 10.1417 196.978 10.107C196.778 10.0637 196.527 10.042 196.224 10.042C195.166 10.042 194.334 10.6053 193.728 11.732V20H189.698ZM206.704 6.311C207.727 6.311 208.658 6.47133 209.499 6.792C210.34 7.11267 211.059 7.572 211.657 8.17C212.264 8.768 212.732 9.496 213.061 10.354C213.399 11.2033 213.568 12.161 213.568 13.227C213.568 14.3017 213.399 15.2723 213.061 16.139C212.732 16.997 212.264 17.7293 211.657 18.336C211.059 18.934 210.34 19.3977 209.499 19.727C208.658 20.0477 207.727 20.208 206.704 20.208C205.673 20.208 204.732 20.0477 203.883 19.727C203.042 19.3977 202.314 18.934 201.699 18.336C201.092 17.7293 200.62 16.997 200.282 16.139C199.953 15.2723 199.788 14.3017 199.788 13.227C199.788 12.161 199.953 11.2033 200.282 10.354C200.62 9.496 201.092 8.768 201.699 8.17C202.314 7.572 203.042 7.11267 203.883 6.792C204.732 6.47133 205.673 6.311 206.704 6.311ZM206.704 17.218C207.631 17.218 208.312 16.893 208.745 16.243C209.187 15.5843 209.408 14.5877 209.408 13.253C209.408 11.9183 209.187 10.926 208.745 10.276C208.312 9.626 207.631 9.301 206.704 9.301C205.751 9.301 205.053 9.626 204.611 10.276C204.169 10.926 203.948 11.9183 203.948 13.253C203.948 14.5877 204.169 15.5843 204.611 16.243C205.053 16.893 205.751 17.218 206.704 17.218Z" fill="#121111"/>
</svg>
