<svg width="400" height="42" viewBox="0 0 400 42" fill="none" xmlns="http://www.w3.org/2000/svg">
<path d="M29.32 34H21.67V20.14H8.35V34H0.7V1.2175H8.35V14.92H21.67V1.2175H29.32V34ZM45.1537 10.3075C46.6987 10.3075 48.1087 10.5475 49.3837 11.0275C50.6737 11.5075 51.7762 12.205 52.6912 13.12C53.6212 14.035 54.3412 15.16 54.8512 16.495C55.3762 17.815 55.6387 19.315 55.6387 20.995C55.6387 21.52 55.6162 21.9475 55.5712 22.2775C55.5262 22.6075 55.4437 22.87 55.3237 23.065C55.2037 23.26 55.0387 23.395 54.8287 23.47C54.6337 23.545 54.3787 23.5825 54.0637 23.5825H40.6087C40.8337 25.5325 41.4262 26.95 42.3862 27.835C43.3462 28.705 44.5837 29.14 46.0987 29.14C46.9087 29.14 47.6062 29.0425 48.1912 28.8475C48.7762 28.6525 49.2937 28.435 49.7437 28.195C50.2087 27.955 50.6287 27.7375 51.0037 27.5425C51.3937 27.3475 51.7987 27.25 52.2187 27.25C52.7737 27.25 53.1937 27.4525 53.4787 27.8575L55.5037 30.355C54.7837 31.18 54.0037 31.855 53.1637 32.38C52.3387 32.89 51.4837 33.295 50.5987 33.595C49.7287 33.88 48.8512 34.075 47.9662 34.18C47.0962 34.3 46.2637 34.36 45.4687 34.36C43.8337 34.36 42.2962 34.0975 40.8562 33.5725C39.4312 33.0325 38.1787 32.2375 37.0987 31.1875C36.0337 30.1375 35.1862 28.8325 34.5562 27.2725C33.9412 25.7125 33.6337 23.8975 33.6337 21.8275C33.6337 20.2675 33.8962 18.79 34.4212 17.395C34.9612 16 35.7262 14.7775 36.7162 13.7275C37.7212 12.6775 38.9287 11.845 40.3387 11.23C41.7637 10.615 43.3687 10.3075 45.1537 10.3075ZM45.2887 15.1225C43.9537 15.1225 42.9112 15.505 42.1612 16.27C41.4112 17.02 40.9162 18.1075 40.6762 19.5325H49.3837C49.3837 18.9775 49.3087 18.4375 49.1587 17.9125C49.0237 17.3875 48.7912 16.9225 48.4612 16.5175C48.1462 16.0975 47.7262 15.76 47.2012 15.505C46.6762 15.25 46.0387 15.1225 45.2887 15.1225ZM60.0912 34V10.6675H64.2312C64.5762 10.6675 64.8612 10.6975 65.0862 10.7575C65.3262 10.8175 65.5212 10.915 65.6712 11.05C65.8362 11.17 65.9562 11.335 66.0312 11.545C66.1212 11.755 66.1962 12.01 66.2562 12.31L66.6387 14.4925C67.4937 13.1725 68.4537 12.13 69.5187 11.365C70.5837 10.6 71.7462 10.2175 73.0062 10.2175C74.0712 10.2175 74.9262 10.4725 75.5712 10.9825L74.6712 16.1125C74.6112 16.4275 74.4912 16.6525 74.3112 16.7875C74.1312 16.9075 73.8912 16.9675 73.5912 16.9675C73.3362 16.9675 73.0362 16.9375 72.6912 16.8775C72.3462 16.8025 71.9112 16.765 71.3862 16.765C69.5562 16.765 68.1162 17.74 67.0662 19.69V34H60.0912ZM89.1201 10.3075C90.6651 10.3075 92.0751 10.5475 93.3501 11.0275C94.6401 11.5075 95.7426 12.205 96.6576 13.12C97.5876 14.035 98.3076 15.16 98.8176 16.495C99.3426 17.815 99.6051 19.315 99.6051 20.995C99.6051 21.52 99.5826 21.9475 99.5376 22.2775C99.4926 22.6075 99.4101 22.87 99.2901 23.065C99.1701 23.26 99.0051 23.395 98.7951 23.47C98.6001 23.545 98.3451 23.5825 98.0301 23.5825H84.5751C84.8001 25.5325 85.3926 26.95 86.3526 27.835C87.3126 28.705 88.5501 29.14 90.0651 29.14C90.8751 29.14 91.5726 29.0425 92.1576 28.8475C92.7426 28.6525 93.2601 28.435 93.7101 28.195C94.1751 27.955 94.5951 27.7375 94.9701 27.5425C95.3601 27.3475 95.7651 27.25 96.1851 27.25C96.7401 27.25 97.1601 27.4525 97.4451 27.8575L99.4701 30.355C98.7501 31.18 97.9701 31.855 97.1301 32.38C96.3051 32.89 95.4501 33.295 94.5651 33.595C93.6951 33.88 92.8176 34.075 91.9326 34.18C91.0626 34.3 90.2301 34.36 89.4351 34.36C87.8001 34.36 86.2626 34.0975 84.8226 33.5725C83.3976 33.0325 82.1451 32.2375 81.0651 31.1875C80.0001 30.1375 79.1526 28.8325 78.5226 27.2725C77.9076 25.7125 77.6001 23.8975 77.6001 21.8275C77.6001 20.2675 77.8626 18.79 78.3876 17.395C78.9276 16 79.6926 14.7775 80.6826 13.7275C81.6876 12.6775 82.8951 11.845 84.3051 11.23C85.7301 10.615 87.3351 10.3075 89.1201 10.3075ZM89.2551 15.1225C87.9201 15.1225 86.8776 15.505 86.1276 16.27C85.3776 17.02 84.8826 18.1075 84.6426 19.5325H93.3501C93.3501 18.9775 93.2751 18.4375 93.1251 17.9125C92.9901 17.3875 92.7576 16.9225 92.4276 16.5175C92.1126 16.0975 91.6926 15.76 91.1676 15.505C90.6426 15.25 90.0051 15.1225 89.2551 15.1225ZM129.319 34C128.659 34 128.156 33.91 127.811 33.73C127.481 33.55 127.204 33.175 126.979 32.605L126.484 31.3225C125.899 31.8175 125.336 32.2525 124.796 32.6275C124.256 33.0025 123.694 33.325 123.109 33.595C122.539 33.85 121.924 34.0375 121.264 34.1575C120.619 34.2925 119.899 34.36 119.104 34.36C118.039 34.36 117.071 34.225 116.201 33.955C115.331 33.67 114.589 33.2575 113.974 32.7175C113.374 32.1775 112.909 31.51 112.579 30.715C112.249 29.905 112.084 28.975 112.084 27.925C112.084 27.1 112.294 26.2525 112.714 25.3825C113.134 24.5125 113.861 23.725 114.896 23.02C115.931 22.3 117.326 21.7 119.081 21.22C120.836 20.74 123.049 20.47 125.719 20.41V19.42C125.719 18.055 125.434 17.0725 124.864 16.4725C124.309 15.8575 123.514 15.55 122.479 15.55C121.654 15.55 120.979 15.64 120.454 15.82C119.929 16 119.456 16.2025 119.036 16.4275C118.631 16.6525 118.234 16.855 117.844 17.035C117.454 17.215 116.989 17.305 116.449 17.305C115.969 17.305 115.556 17.1925 115.211 16.9675C114.881 16.7275 114.619 16.435 114.424 16.09L113.164 13.9075C114.574 12.6625 116.134 11.74 117.844 11.14C119.569 10.525 121.414 10.2175 123.379 10.2175C124.789 10.2175 126.056 10.45 127.181 10.915C128.321 11.365 129.281 12.0025 130.061 12.8275C130.856 13.6375 131.464 14.605 131.884 15.73C132.304 16.855 132.514 18.085 132.514 19.42V34H129.319ZM121.309 29.7475C122.209 29.7475 122.996 29.59 123.671 29.275C124.346 28.96 125.029 28.45 125.719 27.745V24.505C124.324 24.565 123.176 24.685 122.276 24.865C121.376 25.045 120.664 25.27 120.139 25.54C119.614 25.81 119.246 26.1175 119.036 26.4625C118.841 26.8075 118.744 27.1825 118.744 27.5875C118.744 28.3825 118.961 28.945 119.396 29.275C119.831 29.59 120.469 29.7475 121.309 29.7475ZM137.917 34V10.6675H142.057C142.402 10.6675 142.687 10.6975 142.912 10.7575C143.152 10.8175 143.347 10.915 143.497 11.05C143.662 11.17 143.782 11.335 143.857 11.545C143.947 11.755 144.022 12.01 144.082 12.31L144.464 14.4925C145.319 13.1725 146.279 12.13 147.344 11.365C148.409 10.6 149.572 10.2175 150.832 10.2175C151.897 10.2175 152.752 10.4725 153.397 10.9825L152.497 16.1125C152.437 16.4275 152.317 16.6525 152.137 16.7875C151.957 16.9075 151.717 16.9675 151.417 16.9675C151.162 16.9675 150.862 16.9375 150.517 16.8775C150.172 16.8025 149.737 16.765 149.212 16.765C147.382 16.765 145.942 17.74 144.892 19.69V34H137.917ZM166.945 10.3075C168.49 10.3075 169.9 10.5475 171.175 11.0275C172.465 11.5075 173.568 12.205 174.483 13.12C175.413 14.035 176.133 15.16 176.643 16.495C177.168 17.815 177.43 19.315 177.43 20.995C177.43 21.52 177.408 21.9475 177.363 22.2775C177.318 22.6075 177.235 22.87 177.115 23.065C176.995 23.26 176.83 23.395 176.62 23.47C176.425 23.545 176.17 23.5825 175.855 23.5825H162.4C162.625 25.5325 163.218 26.95 164.178 27.835C165.138 28.705 166.375 29.14 167.89 29.14C168.7 29.14 169.398 29.0425 169.983 28.8475C170.568 28.6525 171.085 28.435 171.535 28.195C172 27.955 172.42 27.7375 172.795 27.5425C173.185 27.3475 173.59 27.25 174.01 27.25C174.565 27.25 174.985 27.4525 175.27 27.8575L177.295 30.355C176.575 31.18 175.795 31.855 174.955 32.38C174.13 32.89 173.275 33.295 172.39 33.595C171.52 33.88 170.643 34.075 169.758 34.18C168.888 34.3 168.055 34.36 167.26 34.36C165.625 34.36 164.088 34.0975 162.648 33.5725C161.223 33.0325 159.97 32.2375 158.89 31.1875C157.825 30.1375 156.978 28.8325 156.348 27.2725C155.733 25.7125 155.425 23.8975 155.425 21.8275C155.425 20.2675 155.688 18.79 156.213 17.395C156.753 16 157.518 14.7775 158.508 13.7275C159.513 12.6775 160.72 11.845 162.13 11.23C163.555 10.615 165.16 10.3075 166.945 10.3075ZM167.08 15.1225C165.745 15.1225 164.703 15.505 163.953 16.27C163.203 17.02 162.708 18.1075 162.468 19.5325H171.175C171.175 18.9775 171.1 18.4375 170.95 17.9125C170.815 17.3875 170.583 16.9225 170.253 16.5175C169.938 16.0975 169.518 15.76 168.993 15.505C168.468 15.25 167.83 15.1225 167.08 15.1225ZM191.034 34V10.6675H195.354C195.789 10.6675 196.149 10.765 196.434 10.96C196.734 11.155 196.944 11.4475 197.064 11.8375L197.447 13.0975C197.837 12.6925 198.242 12.325 198.662 11.995C199.082 11.65 199.532 11.3575 200.012 11.1175C200.507 10.8625 201.032 10.6675 201.587 10.5325C202.157 10.3825 202.779 10.3075 203.454 10.3075C204.864 10.3075 206.027 10.675 206.942 11.41C207.872 12.13 208.577 13.0975 209.057 14.3125C209.447 13.5925 209.919 12.9775 210.474 12.4675C211.044 11.9575 211.652 11.545 212.297 11.23C212.957 10.915 213.647 10.6825 214.367 10.5325C215.102 10.3825 215.829 10.3075 216.549 10.3075C217.884 10.3075 219.069 10.51 220.104 10.915C221.139 11.305 222.002 11.8825 222.692 12.6475C223.397 13.3975 223.929 14.3275 224.289 15.4375C224.649 16.5325 224.829 17.7775 224.829 19.1725V34H217.854V19.1725C217.854 16.7575 216.819 15.55 214.749 15.55C213.804 15.55 213.017 15.865 212.387 16.495C211.772 17.11 211.464 18.0025 211.464 19.1725V34H204.489V19.1725C204.489 17.8375 204.227 16.9 203.702 16.36C203.177 15.82 202.404 15.55 201.384 15.55C200.754 15.55 200.154 15.6925 199.584 15.9775C199.029 16.2625 198.504 16.645 198.009 17.125V34H191.034ZM238.905 40.0525C238.695 40.5175 238.44 40.855 238.14 41.065C237.84 41.29 237.36 41.4025 236.7 41.4025H231.48L235.98 31.9525L226.665 10.6675H232.83C233.37 10.6675 233.79 10.7875 234.09 11.0275C234.39 11.2675 234.6 11.5525 234.72 11.8825L238.545 21.94C238.905 22.87 239.198 23.8 239.423 24.73C239.573 24.25 239.738 23.7775 239.918 23.3125C240.098 22.8475 240.27 22.375 240.435 21.895L243.9 11.8825C244.02 11.5375 244.253 11.2525 244.598 11.0275C244.958 10.7875 245.34 10.6675 245.745 10.6675H251.37L238.905 40.0525ZM261.139 10.6675H266.719C267.214 10.6675 267.642 10.78 268.002 11.005C268.362 11.23 268.579 11.5225 268.654 11.8825L270.994 22.345C271.174 23.14 271.339 23.9125 271.489 24.6625C271.639 25.4125 271.774 26.155 271.894 26.89C272.104 26.155 272.322 25.42 272.547 24.685C272.787 23.935 273.019 23.155 273.244 22.345L276.169 11.86C276.259 11.515 276.477 11.23 276.822 11.005C277.167 10.765 277.564 10.645 278.014 10.645H281.119C281.614 10.645 282.034 10.765 282.379 11.005C282.739 11.23 282.964 11.515 283.054 11.86L285.844 22.345C286.054 23.14 286.264 23.9125 286.474 24.6625C286.699 25.4125 286.909 26.17 287.104 26.935C287.224 26.185 287.367 25.4425 287.532 24.7075C287.712 23.9575 287.899 23.17 288.094 22.345L290.569 11.8825C290.644 11.5225 290.854 11.23 291.199 11.005C291.559 10.78 291.964 10.6675 292.414 10.6675H297.724L290.479 34H284.809C284.509 34 284.254 33.91 284.044 33.73C283.834 33.55 283.669 33.25 283.549 32.83L280.219 21.1975C280.069 20.6725 279.927 20.155 279.792 19.645C279.657 19.135 279.537 18.625 279.432 18.115C279.327 18.64 279.207 19.165 279.072 19.69C278.952 20.2 278.809 20.7175 278.644 21.2425L275.269 32.83C275.044 33.61 274.549 34 273.784 34H268.384L261.139 10.6675ZM311.291 10.3075C313.061 10.3075 314.673 10.585 316.128 11.14C317.583 11.695 318.828 12.49 319.863 13.525C320.913 14.56 321.723 15.82 322.293 17.305C322.878 18.775 323.171 20.4325 323.171 22.2775C323.171 24.1375 322.878 25.8175 322.293 27.3175C321.723 28.8025 320.913 30.07 319.863 31.12C318.828 32.155 317.583 32.9575 316.128 33.5275C314.673 34.0825 313.061 34.36 311.291 34.36C309.506 34.36 307.878 34.0825 306.408 33.5275C304.953 32.9575 303.693 32.155 302.628 31.12C301.578 30.07 300.761 28.8025 300.176 27.3175C299.606 25.8175 299.321 24.1375 299.321 22.2775C299.321 20.4325 299.606 18.775 300.176 17.305C300.761 15.82 301.578 14.56 302.628 13.525C303.693 12.49 304.953 11.695 306.408 11.14C307.878 10.585 309.506 10.3075 311.291 10.3075ZM311.291 29.185C312.896 29.185 314.073 28.6225 314.823 27.4975C315.588 26.3575 315.971 24.6325 315.971 22.3225C315.971 20.0125 315.588 18.295 314.823 17.17C314.073 16.045 312.896 15.4825 311.291 15.4825C309.641 15.4825 308.433 16.045 307.668 17.17C306.903 18.295 306.521 20.0125 306.521 22.3225C306.521 24.6325 306.903 26.3575 307.668 27.4975C308.433 28.6225 309.641 29.185 311.291 29.185ZM327.449 34V10.6675H331.589C331.934 10.6675 332.219 10.6975 332.444 10.7575C332.684 10.8175 332.879 10.915 333.029 11.05C333.194 11.17 333.314 11.335 333.389 11.545C333.479 11.755 333.554 12.01 333.614 12.31L333.997 14.4925C334.852 13.1725 335.812 12.13 336.877 11.365C337.942 10.6 339.104 10.2175 340.364 10.2175C341.429 10.2175 342.284 10.4725 342.929 10.9825L342.029 16.1125C341.969 16.4275 341.849 16.6525 341.669 16.7875C341.489 16.9075 341.249 16.9675 340.949 16.9675C340.694 16.9675 340.394 16.9375 340.049 16.8775C339.704 16.8025 339.269 16.765 338.744 16.765C336.914 16.765 335.474 17.74 334.424 19.69V34H327.449ZM353.463 0.317498V19.195H354.498C354.933 19.195 355.263 19.135 355.488 19.015C355.728 18.895 355.953 18.6775 356.163 18.3625L360.573 11.7925C360.828 11.4025 361.128 11.1175 361.473 10.9375C361.833 10.7575 362.283 10.6675 362.823 10.6675H369.213L363.183 18.97C362.898 19.36 362.583 19.705 362.238 20.005C361.908 20.305 361.548 20.575 361.158 20.815C361.833 21.325 362.418 22 362.913 22.84L369.483 34H363.183C362.658 34 362.201 33.9175 361.811 33.7525C361.436 33.5725 361.128 33.265 360.888 32.83L356.478 24.5725C356.268 24.1975 356.051 23.9575 355.826 23.8525C355.601 23.7325 355.263 23.6725 354.813 23.6725H353.463V34H346.488V0.317498H353.463ZM387.131 15.775C386.951 16.06 386.756 16.2625 386.546 16.3825C386.351 16.5025 386.096 16.5625 385.781 16.5625C385.451 16.5625 385.121 16.495 384.791 16.36C384.461 16.21 384.101 16.0525 383.711 15.8875C383.336 15.7225 382.908 15.5725 382.428 15.4375C381.948 15.2875 381.401 15.2125 380.786 15.2125C379.901 15.2125 379.218 15.385 378.738 15.73C378.273 16.06 378.041 16.525 378.041 17.125C378.041 17.56 378.191 17.92 378.491 18.205C378.806 18.49 379.218 18.745 379.728 18.97C380.238 19.18 380.816 19.3825 381.461 19.5775C382.106 19.7725 382.766 19.99 383.441 20.23C384.116 20.47 384.776 20.755 385.421 21.085C386.066 21.4 386.643 21.7975 387.153 22.2775C387.663 22.7425 388.068 23.3125 388.368 23.9875C388.683 24.6625 388.841 25.4725 388.841 26.4175C388.841 27.5725 388.631 28.6375 388.211 29.6125C387.791 30.5875 387.161 31.4275 386.321 32.1325C385.496 32.8375 384.468 33.385 383.238 33.775C382.023 34.165 380.621 34.36 379.031 34.36C378.236 34.36 377.441 34.285 376.646 34.135C375.851 33.985 375.078 33.7825 374.328 33.5275C373.593 33.2725 372.911 32.9725 372.281 32.6275C371.651 32.2675 371.111 31.885 370.661 31.48L372.281 28.915C372.476 28.615 372.708 28.3825 372.978 28.2175C373.248 28.0375 373.601 27.9475 374.036 27.9475C374.441 27.9475 374.801 28.0375 375.116 28.2175C375.446 28.3975 375.798 28.5925 376.173 28.8025C376.548 29.0125 376.983 29.2075 377.478 29.3875C377.988 29.5675 378.626 29.6575 379.391 29.6575C379.931 29.6575 380.388 29.605 380.763 29.5C381.138 29.38 381.438 29.2225 381.663 29.0275C381.888 28.8325 382.053 28.615 382.158 28.375C382.263 28.135 382.316 27.8875 382.316 27.6325C382.316 27.1675 382.158 26.785 381.843 26.485C381.528 26.185 381.116 25.93 380.606 25.72C380.096 25.495 379.511 25.2925 378.851 25.1125C378.206 24.9175 377.546 24.7 376.871 24.46C376.196 24.22 375.528 23.935 374.868 23.605C374.223 23.26 373.646 22.8325 373.136 22.3225C372.626 21.7975 372.213 21.16 371.898 20.41C371.583 19.66 371.426 18.7525 371.426 17.6875C371.426 16.6975 371.613 15.76 371.988 14.875C372.378 13.975 372.956 13.1875 373.721 12.5125C374.486 11.8375 375.446 11.305 376.601 10.915C377.756 10.51 379.106 10.3075 380.651 10.3075C381.491 10.3075 382.301 10.3825 383.081 10.5325C383.876 10.6825 384.618 10.8925 385.308 11.1625C385.998 11.4325 386.628 11.755 387.198 12.13C387.768 12.49 388.271 12.8875 388.706 13.3225L387.131 15.775ZM391.785 30.4675C391.785 29.9275 391.883 29.425 392.078 28.96C392.288 28.495 392.565 28.09 392.91 27.745C393.27 27.4 393.69 27.13 394.17 26.935C394.65 26.725 395.175 26.62 395.745 26.62C396.3 26.62 396.818 26.725 397.298 26.935C397.778 27.13 398.198 27.4 398.558 27.745C398.918 28.09 399.195 28.495 399.39 28.96C399.6 29.425 399.705 29.9275 399.705 30.4675C399.705 31.0075 399.6 31.5175 399.39 31.9975C399.195 32.4625 398.918 32.8675 398.558 33.2125C398.198 33.5575 397.778 33.8275 397.298 34.0225C396.818 34.2175 396.3 34.315 395.745 34.315C395.175 34.315 394.65 34.2175 394.17 34.0225C393.69 33.8275 393.27 33.5575 392.91 33.2125C392.565 32.8675 392.288 32.4625 392.078 31.9975C391.883 31.5175 391.785 31.0075 391.785 30.4675Z" fill="#121111"/>
</svg>
