<svg width="285" height="30" viewBox="0 0 285 30" fill="none" xmlns="http://www.w3.org/2000/svg">
<path d="M21.272 24H15.832V14.144H6.36V24H0.92V0.688H6.36V10.432H15.832V0.688H21.272V24ZM32.5315 7.152C33.6302 7.152 34.6328 7.32267 35.5395 7.664C36.4568 8.00533 37.2408 8.50133 37.8915 9.152C38.5528 9.80267 39.0648 10.6027 39.4275 11.552C39.8008 12.4907 39.9875 13.5573 39.9875 14.752C39.9875 15.1253 39.9715 15.4293 39.9395 15.664C39.9075 15.8987 39.8488 16.0853 39.7635 16.224C39.6782 16.3627 39.5608 16.4587 39.4115 16.512C39.2728 16.5653 39.0915 16.592 38.8675 16.592H29.2995C29.4595 17.9787 29.8808 18.9867 30.5635 19.616C31.2462 20.2347 32.1262 20.544 33.2035 20.544C33.7795 20.544 34.2755 20.4747 34.6915 20.336C35.1075 20.1973 35.4755 20.0427 35.7955 19.872C36.1262 19.7013 36.4248 19.5467 36.6915 19.408C36.9688 19.2693 37.2568 19.2 37.5555 19.2C37.9502 19.2 38.2488 19.344 38.4515 19.632L39.8915 21.408C39.3795 21.9947 38.8248 22.4747 38.2275 22.848C37.6408 23.2107 37.0328 23.4987 36.4035 23.712C35.7848 23.9147 35.1608 24.0533 34.5315 24.128C33.9128 24.2133 33.3208 24.256 32.7555 24.256C31.5928 24.256 30.4995 24.0693 29.4755 23.696C28.4622 23.312 27.5715 22.7467 26.8035 22C26.0462 21.2533 25.4435 20.3253 24.9955 19.216C24.5582 18.1067 24.3395 16.816 24.3395 15.344C24.3395 14.2347 24.5262 13.184 24.8995 12.192C25.2835 11.2 25.8275 10.3307 26.5315 9.584C27.2462 8.83733 28.1048 8.24533 29.1075 7.808C30.1208 7.37067 31.2622 7.152 32.5315 7.152ZM32.6275 10.576C31.6782 10.576 30.9368 10.848 30.4035 11.392C29.8702 11.9253 29.5182 12.6987 29.3475 13.712H35.5395C35.5395 13.3173 35.4862 12.9333 35.3795 12.56C35.2835 12.1867 35.1182 11.856 34.8835 11.568C34.6595 11.2693 34.3608 11.0293 33.9875 10.848C33.6142 10.6667 33.1608 10.576 32.6275 10.576ZM43.1537 24V7.408H46.0977C46.3431 7.408 46.5457 7.42933 46.7057 7.472C46.8764 7.51467 47.0151 7.584 47.1217 7.68C47.2391 7.76533 47.3244 7.88267 47.3777 8.032C47.4417 8.18133 47.4951 8.36267 47.5377 8.576L47.8097 10.128C48.4177 9.18933 49.1004 8.448 49.8577 7.904C50.6151 7.36 51.4417 7.088 52.3377 7.088C53.0951 7.088 53.7031 7.26933 54.1617 7.632L53.5217 11.28C53.4791 11.504 53.3938 11.664 53.2657 11.76C53.1377 11.8453 52.9671 11.888 52.7537 11.888C52.5724 11.888 52.3591 11.8667 52.1137 11.824C51.8684 11.7707 51.5591 11.744 51.1858 11.744C49.8844 11.744 48.8604 12.4373 48.1137 13.824V24H43.1537ZM63.7965 7.152C64.8952 7.152 65.8978 7.32267 66.8045 7.664C67.7218 8.00533 68.5058 8.50133 69.1565 9.152C69.8178 9.80267 70.3298 10.6027 70.6925 11.552C71.0658 12.4907 71.2525 13.5573 71.2525 14.752C71.2525 15.1253 71.2365 15.4293 71.2045 15.664C71.1725 15.8987 71.1138 16.0853 71.0285 16.224C70.9432 16.3627 70.8258 16.4587 70.6765 16.512C70.5378 16.5653 70.3565 16.592 70.1325 16.592H60.5645C60.7245 17.9787 61.1458 18.9867 61.8285 19.616C62.5112 20.2347 63.3912 20.544 64.4685 20.544C65.0445 20.544 65.5405 20.4747 65.9565 20.336C66.3725 20.1973 66.7405 20.0427 67.0605 19.872C67.3912 19.7013 67.6898 19.5467 67.9565 19.408C68.2338 19.2693 68.5218 19.2 68.8205 19.2C69.2152 19.2 69.5138 19.344 69.7165 19.632L71.1565 21.408C70.6445 21.9947 70.0898 22.4747 69.4925 22.848C68.9058 23.2107 68.2978 23.4987 67.6685 23.712C67.0498 23.9147 66.4258 24.0533 65.7965 24.128C65.1778 24.2133 64.5858 24.256 64.0205 24.256C62.8578 24.256 61.7645 24.0693 60.7405 23.696C59.7272 23.312 58.8365 22.7467 58.0685 22C57.3112 21.2533 56.7085 20.3253 56.2605 19.216C55.8232 18.1067 55.6045 16.816 55.6045 15.344C55.6045 14.2347 55.7912 13.184 56.1645 12.192C56.5485 11.2 57.0925 10.3307 57.7965 9.584C58.5112 8.83733 59.3698 8.24533 60.3725 7.808C61.3858 7.37067 62.5272 7.152 63.7965 7.152ZM63.8925 10.576C62.9432 10.576 62.2018 10.848 61.6685 11.392C61.1352 11.9253 60.7832 12.6987 60.6125 13.712H66.8045C66.8045 13.3173 66.7512 12.9333 66.6445 12.56C66.5485 12.1867 66.3832 11.856 66.1485 11.568C65.9245 11.2693 65.6258 11.0293 65.2525 10.848C64.8792 10.6667 64.4258 10.576 63.8925 10.576ZM92.3822 24C91.9129 24 91.5556 23.936 91.3102 23.808C91.0756 23.68 90.8782 23.4133 90.7182 23.008L90.3662 22.096C89.9502 22.448 89.5502 22.7573 89.1662 23.024C88.7822 23.2907 88.3822 23.52 87.9662 23.712C87.5609 23.8933 87.1236 24.0267 86.6542 24.112C86.1956 24.208 85.6836 24.256 85.1182 24.256C84.3609 24.256 83.6729 24.16 83.0542 23.968C82.4356 23.7653 81.9076 23.472 81.4702 23.088C81.0436 22.704 80.7129 22.2293 80.4782 21.664C80.2436 21.088 80.1262 20.4267 80.1262 19.68C80.1262 19.0933 80.2756 18.4907 80.5742 17.872C80.8729 17.2533 81.3902 16.6933 82.1262 16.192C82.8622 15.68 83.8542 15.2533 85.1022 14.912C86.3502 14.5707 87.9236 14.3787 89.8222 14.336V13.632C89.8222 12.6613 89.6196 11.9627 89.2142 11.536C88.8196 11.0987 88.2542 10.88 87.5182 10.88C86.9316 10.88 86.4516 10.944 86.0782 11.072C85.7049 11.2 85.3689 11.344 85.0702 11.504C84.7822 11.664 84.4996 11.808 84.2222 11.936C83.9449 12.064 83.6142 12.128 83.2302 12.128C82.8889 12.128 82.5956 12.048 82.3502 11.888C82.1156 11.7173 81.9289 11.5093 81.7902 11.264L80.8942 9.712C81.8969 8.82667 83.0062 8.17067 84.2222 7.744C85.4489 7.30667 86.7609 7.088 88.1582 7.088C89.1609 7.088 90.0622 7.25333 90.8622 7.584C91.6729 7.904 92.3556 8.35733 92.9102 8.944C93.4756 9.52 93.9076 10.208 94.2062 11.008C94.5049 11.808 94.6542 12.6827 94.6542 13.632V24H92.3822ZM86.6862 20.976C87.3262 20.976 87.8862 20.864 88.3662 20.64C88.8462 20.416 89.3316 20.0533 89.8222 19.552V17.248C88.8302 17.2907 88.0142 17.376 87.3742 17.504C86.7342 17.632 86.2276 17.792 85.8542 17.984C85.4809 18.176 85.2196 18.3947 85.0702 18.64C84.9316 18.8853 84.8622 19.152 84.8622 19.44C84.8622 20.0053 85.0169 20.4053 85.3262 20.64C85.6356 20.864 86.0889 20.976 86.6862 20.976ZM98.4962 24V7.408H101.44C101.686 7.408 101.888 7.42933 102.048 7.472C102.219 7.51467 102.358 7.584 102.464 7.68C102.582 7.76533 102.667 7.88267 102.72 8.032C102.784 8.18133 102.838 8.36267 102.88 8.576L103.152 10.128C103.76 9.18933 104.443 8.448 105.2 7.904C105.958 7.36 106.784 7.088 107.68 7.088C108.438 7.088 109.046 7.26933 109.504 7.632L108.864 11.28C108.822 11.504 108.736 11.664 108.608 11.76C108.48 11.8453 108.31 11.888 108.096 11.888C107.915 11.888 107.702 11.8667 107.456 11.824C107.211 11.7707 106.902 11.744 106.528 11.744C105.227 11.744 104.203 12.4373 103.456 13.824V24H98.4962ZM119.139 7.152C120.238 7.152 121.24 7.32267 122.147 7.664C123.064 8.00533 123.848 8.50133 124.499 9.152C125.16 9.80267 125.672 10.6027 126.035 11.552C126.408 12.4907 126.595 13.5573 126.595 14.752C126.595 15.1253 126.579 15.4293 126.547 15.664C126.515 15.8987 126.456 16.0853 126.371 16.224C126.286 16.3627 126.168 16.4587 126.019 16.512C125.88 16.5653 125.699 16.592 125.475 16.592H115.907C116.067 17.9787 116.488 18.9867 117.171 19.616C117.854 20.2347 118.734 20.544 119.811 20.544C120.387 20.544 120.883 20.4747 121.299 20.336C121.715 20.1973 122.083 20.0427 122.403 19.872C122.734 19.7013 123.032 19.5467 123.299 19.408C123.576 19.2693 123.864 19.2 124.163 19.2C124.558 19.2 124.856 19.344 125.059 19.632L126.499 21.408C125.987 21.9947 125.432 22.4747 124.835 22.848C124.248 23.2107 123.64 23.4987 123.011 23.712C122.392 23.9147 121.768 24.0533 121.139 24.128C120.52 24.2133 119.928 24.256 119.363 24.256C118.2 24.256 117.107 24.0693 116.083 23.696C115.07 23.312 114.179 22.7467 113.411 22C112.654 21.2533 112.051 20.3253 111.603 19.216C111.166 18.1067 110.947 16.816 110.947 15.344C110.947 14.2347 111.134 13.184 111.507 12.192C111.891 11.2 112.435 10.3307 113.139 9.584C113.854 8.83733 114.712 8.24533 115.715 7.808C116.728 7.37067 117.87 7.152 119.139 7.152ZM119.235 10.576C118.286 10.576 117.544 10.848 117.011 11.392C116.478 11.9253 116.126 12.6987 115.955 13.712H122.147C122.147 13.3173 122.094 12.9333 121.987 12.56C121.891 12.1867 121.726 11.856 121.491 11.568C121.267 11.2693 120.968 11.0293 120.595 10.848C120.222 10.6667 119.768 10.576 119.235 10.576ZM136.269 24V7.408H139.341C139.65 7.408 139.906 7.47733 140.109 7.616C140.322 7.75467 140.471 7.96267 140.557 8.24L140.829 9.136C141.106 8.848 141.394 8.58667 141.693 8.352C141.991 8.10667 142.311 7.89867 142.653 7.728C143.005 7.54667 143.378 7.408 143.773 7.312C144.178 7.20533 144.621 7.152 145.101 7.152C146.103 7.152 146.93 7.41333 147.581 7.936C148.242 8.448 148.743 9.136 149.085 10C149.362 9.488 149.698 9.05067 150.093 8.688C150.498 8.32533 150.93 8.032 151.389 7.808C151.858 7.584 152.349 7.41867 152.861 7.312C153.383 7.20533 153.901 7.152 154.413 7.152C155.362 7.152 156.205 7.296 156.941 7.584C157.677 7.86133 158.29 8.272 158.781 8.816C159.282 9.34933 159.661 10.0107 159.917 10.8C160.173 11.5787 160.301 12.464 160.301 13.456V24H155.341V13.456C155.341 11.7387 154.605 10.88 153.133 10.88C152.461 10.88 151.901 11.104 151.453 11.552C151.015 11.9893 150.797 12.624 150.797 13.456V24H145.837V13.456C145.837 12.5067 145.65 11.84 145.277 11.456C144.903 11.072 144.354 10.88 143.629 10.88C143.181 10.88 142.754 10.9813 142.349 11.184C141.954 11.3867 141.581 11.6587 141.229 12V24H136.269ZM170.31 28.304C170.161 28.6347 169.98 28.8747 169.766 29.024C169.553 29.184 169.212 29.264 168.742 29.264H165.03L168.23 22.544L161.606 7.408H165.99C166.374 7.408 166.673 7.49333 166.886 7.664C167.1 7.83467 167.249 8.03733 167.334 8.272L170.054 15.424C170.31 16.0853 170.518 16.7467 170.678 17.408C170.785 17.0667 170.902 16.7307 171.03 16.4C171.158 16.0693 171.281 15.7333 171.398 15.392L173.862 8.272C173.948 8.02667 174.113 7.824 174.358 7.664C174.614 7.49333 174.886 7.408 175.174 7.408H179.174L170.31 28.304ZM186.121 7.408H190.089C190.441 7.408 190.745 7.488 191.001 7.648C191.257 7.808 191.412 8.016 191.465 8.272L193.129 15.712C193.257 16.2773 193.375 16.8267 193.481 17.36C193.588 17.8933 193.684 18.4213 193.769 18.944C193.919 18.4213 194.073 17.8987 194.233 17.376C194.404 16.8427 194.569 16.288 194.729 15.712L196.809 8.256C196.873 8.01067 197.028 7.808 197.273 7.648C197.519 7.47733 197.801 7.392 198.121 7.392H200.329C200.681 7.392 200.98 7.47733 201.225 7.648C201.481 7.808 201.641 8.01067 201.705 8.256L203.689 15.712C203.839 16.2773 203.988 16.8267 204.137 17.36C204.297 17.8933 204.447 18.432 204.585 18.976C204.671 18.4427 204.772 17.9147 204.889 17.392C205.017 16.8587 205.151 16.2987 205.289 15.712L207.049 8.272C207.103 8.016 207.252 7.808 207.497 7.648C207.753 7.488 208.041 7.408 208.361 7.408H212.137L206.985 24H202.953C202.74 24 202.559 23.936 202.409 23.808C202.26 23.68 202.143 23.4667 202.057 23.168L199.689 14.896C199.583 14.5227 199.481 14.1547 199.385 13.792C199.289 13.4293 199.204 13.0667 199.129 12.704C199.055 13.0773 198.969 13.4507 198.873 13.824C198.788 14.1867 198.687 14.5547 198.569 14.928L196.169 23.168C196.009 23.7227 195.657 24 195.113 24H191.273L186.121 7.408ZM221.785 7.152C223.043 7.152 224.19 7.34933 225.225 7.744C226.259 8.13867 227.145 8.704 227.881 9.44C228.627 10.176 229.203 11.072 229.609 12.128C230.025 13.1733 230.233 14.352 230.233 15.664C230.233 16.9867 230.025 18.1813 229.609 19.248C229.203 20.304 228.627 21.2053 227.881 21.952C227.145 22.688 226.259 23.2587 225.225 23.664C224.19 24.0587 223.043 24.256 221.785 24.256C220.515 24.256 219.358 24.0587 218.313 23.664C217.278 23.2587 216.382 22.688 215.625 21.952C214.878 21.2053 214.297 20.304 213.881 19.248C213.475 18.1813 213.273 16.9867 213.273 15.664C213.273 14.352 213.475 13.1733 213.881 12.128C214.297 11.072 214.878 10.176 215.625 9.44C216.382 8.704 217.278 8.13867 218.313 7.744C219.358 7.34933 220.515 7.152 221.785 7.152ZM221.785 20.576C222.926 20.576 223.763 20.176 224.297 19.376C224.841 18.5653 225.113 17.3387 225.113 15.696C225.113 14.0533 224.841 12.832 224.297 12.032C223.763 11.232 222.926 10.832 221.785 10.832C220.611 10.832 219.753 11.232 219.209 12.032C218.665 12.832 218.393 14.0533 218.393 15.696C218.393 17.3387 218.665 18.5653 219.209 19.376C219.753 20.176 220.611 20.576 221.785 20.576ZM233.275 24V7.408H236.219C236.464 7.408 236.667 7.42933 236.827 7.472C236.998 7.51467 237.136 7.584 237.243 7.68C237.36 7.76533 237.446 7.88267 237.499 8.032C237.563 8.18133 237.616 8.36267 237.659 8.576L237.931 10.128C238.539 9.18933 239.222 8.448 239.979 7.904C240.736 7.36 241.563 7.088 242.459 7.088C243.216 7.088 243.824 7.26933 244.283 7.632L243.643 11.28C243.6 11.504 243.515 11.664 243.387 11.76C243.259 11.8453 243.088 11.888 242.875 11.888C242.694 11.888 242.48 11.8667 242.235 11.824C241.99 11.7707 241.68 11.744 241.307 11.744C240.006 11.744 238.982 12.4373 238.235 13.824V24H233.275ZM251.774 0.0479984V13.472H252.51C252.819 13.472 253.054 13.4293 253.214 13.344C253.384 13.2587 253.544 13.104 253.694 12.88L256.83 8.208C257.011 7.93067 257.224 7.728 257.47 7.6C257.726 7.472 258.046 7.408 258.43 7.408H262.974L258.686 13.312C258.483 13.5893 258.259 13.8347 258.014 14.048C257.779 14.2613 257.523 14.4533 257.246 14.624C257.726 14.9867 258.142 15.4667 258.494 16.064L263.166 24H258.686C258.312 24 257.987 23.9413 257.71 23.824C257.443 23.696 257.224 23.4773 257.054 23.168L253.918 17.296C253.768 17.0293 253.614 16.8587 253.454 16.784C253.294 16.6987 253.054 16.656 252.734 16.656H251.774V24H246.814V0.0479984H251.774ZM275.715 11.04C275.587 11.2427 275.449 11.3867 275.299 11.472C275.161 11.5573 274.979 11.6 274.755 11.6C274.521 11.6 274.286 11.552 274.051 11.456C273.817 11.3493 273.561 11.2373 273.283 11.12C273.017 11.0027 272.713 10.896 272.371 10.8C272.03 10.6933 271.641 10.64 271.203 10.64C270.574 10.64 270.089 10.7627 269.747 11.008C269.417 11.2427 269.251 11.5733 269.251 12C269.251 12.3093 269.358 12.5653 269.571 12.768C269.795 12.9707 270.089 13.152 270.451 13.312C270.814 13.4613 271.225 13.6053 271.683 13.744C272.142 13.8827 272.611 14.0373 273.091 14.208C273.571 14.3787 274.041 14.5813 274.499 14.816C274.958 15.04 275.369 15.3227 275.731 15.664C276.094 15.9947 276.382 16.4 276.595 16.88C276.819 17.36 276.931 17.936 276.931 18.608C276.931 19.4293 276.782 20.1867 276.483 20.88C276.185 21.5733 275.737 22.1707 275.139 22.672C274.553 23.1733 273.822 23.5627 272.947 23.84C272.083 24.1173 271.086 24.256 269.955 24.256C269.39 24.256 268.825 24.2027 268.259 24.096C267.694 23.9893 267.145 23.8453 266.611 23.664C266.089 23.4827 265.603 23.2693 265.155 23.024C264.707 22.768 264.323 22.496 264.003 22.208L265.155 20.384C265.294 20.1707 265.459 20.0053 265.651 19.888C265.843 19.76 266.094 19.696 266.403 19.696C266.691 19.696 266.947 19.76 267.171 19.888C267.406 20.016 267.657 20.1547 267.923 20.304C268.19 20.4533 268.499 20.592 268.851 20.72C269.214 20.848 269.667 20.912 270.211 20.912C270.595 20.912 270.921 20.8747 271.187 20.8C271.454 20.7147 271.667 20.6027 271.827 20.464C271.987 20.3253 272.105 20.1707 272.179 20C272.254 19.8293 272.291 19.6533 272.291 19.472C272.291 19.1413 272.179 18.8693 271.955 18.656C271.731 18.4427 271.438 18.2613 271.075 18.112C270.713 17.952 270.297 17.808 269.827 17.68C269.369 17.5413 268.899 17.3867 268.419 17.216C267.939 17.0453 267.465 16.8427 266.995 16.608C266.537 16.3627 266.126 16.0587 265.763 15.696C265.401 15.3227 265.107 14.8693 264.883 14.336C264.659 13.8027 264.547 13.1573 264.547 12.4C264.547 11.696 264.681 11.0293 264.947 10.4C265.225 9.76 265.635 9.2 266.179 8.72C266.723 8.24 267.406 7.86133 268.227 7.584C269.049 7.296 270.009 7.152 271.107 7.152C271.705 7.152 272.281 7.20533 272.835 7.312C273.401 7.41867 273.929 7.568 274.419 7.76C274.91 7.952 275.358 8.18133 275.763 8.448C276.169 8.704 276.526 8.98667 276.835 9.296L275.715 11.04ZM279.025 21.488C279.025 21.104 279.094 20.7467 279.233 20.416C279.382 20.0853 279.58 19.7973 279.825 19.552C280.081 19.3067 280.38 19.1147 280.721 18.976C281.062 18.8267 281.436 18.752 281.841 18.752C282.236 18.752 282.604 18.8267 282.945 18.976C283.286 19.1147 283.585 19.3067 283.841 19.552C284.097 19.7973 284.294 20.0853 284.433 20.416C284.582 20.7467 284.657 21.104 284.657 21.488C284.657 21.872 284.582 22.2347 284.433 22.576C284.294 22.9067 284.097 23.1947 283.841 23.44C283.585 23.6853 283.286 23.8773 282.945 24.016C282.604 24.1547 282.236 24.224 281.841 24.224C281.436 24.224 281.062 24.1547 280.721 24.016C280.38 23.8773 280.081 23.6853 279.825 23.44C279.58 23.1947 279.382 22.9067 279.233 22.576C279.094 22.2347 279.025 21.872 279.025 21.488Z" fill="#121111"/>
</svg>
