<svg fill="none" height="23" viewBox="0 0 96 23" width="96" xmlns="http://www.w3.org/2000/svg"><path d="m7.744 22.256c-.78933 0-1.488-.112-2.096-.336-.59733-.2347-1.104-.56-1.52-.976-.40533-.4267-.71467-.9387-.928-1.536s-.32-1.264-.32-2v-8.576h-1.408c-.256 0-.474667-.08-.656-.24-.181333-.17067-.272-.416-.272-.736v-1.936l2.64-.512.976-4.048c.128-.512001.49067-.768001 1.088-.768001h2.592v4.848001h4.032v3.392h-4.032v8.24c0 .384.09067.704.272.96.192.2453.464.368.816.368.18133 0 .33067-.016.448-.048.128-.0427.23467-.0853.32-.128.096-.0533.18133-.096.256-.128.0853-.0427.1813-.064.288-.064.1493 0 .2667.0373.352.112.096.064.192.1707.288.32l1.504 2.352c-.64.48-1.36.8427-2.16 1.088-.8.2347-1.62667.352-2.48.352zm7.3085-.256v-16.592h2.944c.2453 0 .448.02133.608.064.1707.04267.3093.112.416.208.1173.08533.2027.20267.256.352.064.14933.1173.33067.16.544l.272 1.552c.608-.93867 1.2907-1.68 2.048-2.224s1.584-.816 2.48-.816c.7573 0 1.3653.18133 1.824.544l-.64 3.648c-.0427.224-.128.384-.256.48-.128.08533-.2987.128-.512.128-.1813 0-.3947-.02133-.64-.064-.2453-.05333-.5547-.08-.928-.08-1.3013 0-2.3253.6933-3.072 2.08v10.176zm20.9307-16.848c1.2587 0 2.4054.19733 3.4401.592 1.0346.39467 1.92.96 2.656 1.696.7466.736 1.3226 1.632 1.728 2.688.416 1.0453.6239 2.224.6239 3.536 0 1.3227-.2079 2.5173-.6239 3.584-.4054 1.056-.9814 1.9573-1.728 2.704-.736.736-1.6214 1.3067-2.656 1.712-1.0347.3947-2.1814.592-3.4401.592-1.2693 0-2.4266-.1973-3.472-.592-1.0346-.4053-1.9306-.976-2.688-1.712-.7466-.7467-1.328-1.648-1.744-2.704-.4053-1.0667-.608-2.2613-.608-3.584 0-1.312.2027-2.4907.608-3.536.416-1.056.9974-1.952 1.744-2.688.7574-.736 1.6534-1.30133 2.688-1.696 1.0454-.39467 2.2027-.592 3.472-.592zm0 13.424c1.1414 0 1.9787-.4 2.512-1.2.544-.8107.816-2.0373.816-3.68s-.272-2.864-.816-3.664c-.5333-.8-1.3706-1.2-2.512-1.2-1.1733 0-2.032.4-2.576 1.2s-.816 2.0213-.816 3.664.272 2.8693.816 3.68c.544.8 1.4027 1.2 2.576 1.2zm23.4585-9.232c-.1493.18133-.2933.32533-.432.432-.1386.10667-.336.16-.592.16-.2453 0-.4693-.05867-.672-.176-.192-.11733-.4106-.24533-.656-.384-.2453-.14933-.5333-.28267-.864-.4-.3306-.11733-.7413-.176-1.232-.176-.608 0-1.136.112-1.584.336-.4373.224-.8.544-1.088.96s-.5013.928-.64 1.536c-.1386.5973-.208 1.2747-.208 2.032 0 1.5893.304 2.8107.912 3.664.6187.8533 1.4667 1.28 2.544 1.28.576 0 1.0294-.0693 1.36-.208.3414-.1493.6294-.3093.864-.48.2347-.1813.448-.3467.64-.496.2027-.1493.4534-.224.752-.224.3947 0 .6934.144.896.432l1.4401 1.776c-.5121.5867-1.0507 1.0667-1.6161 1.44-.5653.3627-1.1466.6507-1.744.864-.5866.2027-1.1786.3413-1.776.416-.5973.0853-1.1786.128-1.744.128-1.0133 0-1.984-.192-2.912-.576-.9173-.384-1.728-.9387-2.432-1.664-.6933-.736-1.248-1.6373-1.664-2.704-.4053-1.0667-.608-2.2827-.608-3.648 0-1.1947.176-2.3093.528-3.344.3627-1.04533.8907-1.94667 1.584-2.704.704-.768 1.568-1.37067 2.592-1.808 1.0347-.43733 2.2294-.656 3.584-.656 1.3014 0 2.4427.208 3.424.624.9814.416 1.8667 1.024 2.656 1.824zm15.8825 0c-.1493.18133-.2933.32533-.432.432-.1386.10667-.336.16-.592.16-.2453 0-.4693-.05867-.672-.176-.192-.11733-.4106-.24533-.656-.384-.2453-.14933-.5333-.28267-.864-.4-.3306-.11733-.7413-.176-1.232-.176-.608 0-1.136.112-1.584.336-.4373.224-.8.544-1.088.96s-.5013.928-.64 1.536c-.1386.5973-.208 1.2747-.208 2.032 0 1.5893.304 2.8107.912 3.664.6187.8533 1.4667 1.28 2.544 1.28.576 0 1.0294-.0693 1.36-.208.3414-.1493.6294-.3093.864-.48.2347-.1813.448-.3467.64-.496.2027-.1493.4534-.224.752-.224.3947 0 .6934.144.896.432l1.44 1.776c-.512.5867-1.0506 1.0667-1.616 1.44-.5653.3627-1.1466.6507-1.744.864-.5866.2027-1.1786.3413-1.776.416-.5973.0853-1.1786.128-1.744.128-1.0133 0-1.984-.192-2.912-.576-.9173-.384-1.728-.9387-2.432-1.664-.6933-.736-1.248-1.6373-1.664-2.704-.4053-1.0667-.608-2.2827-.608-3.648 0-1.1947.176-2.3093.528-3.344.3627-1.04533.8907-1.94667 1.584-2.704.704-.768 1.568-1.37067 2.592-1.808 1.0347-.43733 2.2294-.656 3.584-.656 1.3014 0 2.4427.208 3.424.624.9814.416 1.8667 1.024 2.656 1.824zm11.3065-4.192c1.2587 0 2.4054.19733 3.44.592 1.0347.39467 1.92.96 2.656 1.696.7467.736 1.3227 1.632 1.7281 2.688.4159 1.0453.6239 2.224.6239 3.536 0 1.3227-.208 2.5173-.6239 3.584-.4054 1.056-.9814 1.9573-1.7281 2.704-.736.736-1.6213 1.3067-2.656 1.712-1.0346.3947-2.1813.592-3.44.592-1.2693 0-2.4266-.1973-3.472-.592-1.0346-.4053-1.9306-.976-2.688-1.712-.7466-.7467-1.328-1.648-1.744-2.704-.4053-1.0667-.608-2.2613-.608-3.584 0-1.312.2027-2.4907.608-3.536.416-1.056.9974-1.952 1.744-2.688.7574-.736 1.6534-1.30133 2.688-1.696 1.0454-.39467 2.2027-.592 3.472-.592zm0 13.424c1.1414 0 1.9787-.4 2.512-1.2.544-.8107.816-2.0373.816-3.68s-.272-2.864-.816-3.664c-.5333-.8-1.3706-1.2-2.512-1.2-1.1733 0-2.032.4-2.576 1.2s-.816 2.0213-.816 3.664.272 2.8693.816 3.68c.544.8 1.4027 1.2 2.576 1.2z" fill="#121111"/></svg>