<svg fill="none" height="25" viewBox="0 0 117 25" width="117" xmlns="http://www.w3.org/2000/svg"><path d="m6.328 11.128h.864c.8 0 1.376-.2507 1.728-.752l5.248-7.616c.288-.416.6133-.69867.976-.848.3733-.14933.8267-.224 1.36-.224h4.704l-6.912 9.424c-.2453.3413-.5013.624-.768.848s-.5387.4107-.816.56c.4053.1493.7733.3573 1.104.624.3413.256.6507.6027.928 1.04l7.04 10.816h-4.832c-.3093 0-.576-.0213-.8-.064-.2133-.0427-.4-.1067-.56-.192s-.2987-.1867-.416-.304c-.1173-.128-.2293-.272-.336-.432l-5.28-8.112c-.192-.2987-.43733-.5067-.736-.624-.288-.128-.68267-.192-1.184-.192h-1.312v9.92h-5.408v-23.312h5.408zm22.8758-2.72v16.592h-4.9601v-16.592zm.5759-4.544c0 .39467-.08.768-.2399 1.12-.1601.34133-.3787.64533-.6561.912-.2773.256-.6026.464-.9759.624-.3627.14933-.7521.224-1.1681.224-.4053 0-.784-.07467-1.136-.224-.352-.16-.6666-.368-.944-.624-.2666-.26667-.48-.57067-.64-.912-.1493-.352-.224-.72533-.224-1.12 0-.40533.0747-.784.224-1.136.16-.352.3734-.66133.64-.928.2774-.26667.592-.47467.944-.624s.7307-.224 1.136-.224c.416 0 .8054.07467 1.1681.224.3733.14933.6986.35733.9759.624.2774.26667.496.576.6561.928.1599.352.2399.73067.2399 1.136zm3.749 21.136v-23.312h8.576c1.6107 0 2.9814.14933 4.1121.448 1.1306.29867 2.0533.72 2.768 1.264.7146.544 1.2319 1.20533 1.552 1.984.3306.77867.496 1.648.496 2.608 0 .52267-.0747 1.02933-.224 1.52-.1494.48-.384.9333-.7041 1.36-.32.4267-.7306.816-1.232 1.168-.5013.3413-1.1039.64-1.808.896 1.536.3733 2.672.9813 3.408 1.824.736.832 1.104 1.904 1.104 3.216 0 .992-.192 1.9147-.576 2.768s-.9493 1.6-1.6959 2.24c-.736.6293-1.648 1.1253-2.736 1.488-1.088.352-2.3307.528-3.7281.528zm5.408-9.888v5.808h3.8081c.7146 0 1.2959-.0907 1.744-.272.4586-.1813.816-.416 1.072-.704.2559-.288.4319-.6133.5279-.976s.144-.7307.144-1.104c0-.4267-.0586-.8107-.1759-1.152-.1067-.3413-.2987-.6293-.576-.864-.2667-.2347-.624-.416-1.0721-.544-.448-.128-1.0133-.192-1.696-.192zm0-3.616h2.816c.5974 0 1.1361-.0427 1.616-.128.48-.0853.8854-.2347 1.2161-.448.3413-.2133.5973-.5067.7679-.88.1814-.37333.2721-.84267.2721-1.408 0-.55467-.0694-1.01333-.2081-1.376-.1386-.37333-.352-.672-.64-.896-.2879-.224-.6559-.384-1.104-.48-.4373-.096-.9599-.144-1.568-.144h-3.168zm30.9201-9.808v4.16h-9.5681v5.44h7.328v4h-7.328v5.552h9.5681v4.16h-15.0081v-23.312zm8.8137 14.688v8.624h-5.408v-23.312h7.584c1.6853 0 3.12.176 4.304.528 1.1947.34133 2.1653.82133 2.912 1.44.7573.61867 1.3067 1.34933 1.648 2.192s.512 1.76.512 2.752c0 .75733-.1013 1.472-.304 2.144s-.5067 1.296-.912 1.872c-.3947.5653-.8853 1.072-1.472 1.52-.576.448-1.2427.816-2 1.104.3627.1813.6987.4053 1.008.672.32.2667.5973.592.832.976l4.96 8.112h-4.896c-.9067 0-1.5573-.3413-1.952-1.024l-3.872-6.768c-.1707-.2987-.3733-.512-.608-.64-.224-.128-.544-.192-.96-.192zm0-3.728h2.176c.736 0 1.36-.0907 1.872-.272.5227-.192.9493-.4533 1.28-.784s.5707-.7147.72-1.152c.1493-.448.224-.928.224-1.44 0-1.024-.336-1.824-1.008-2.4-.6613-.576-1.6907-.864-3.088-.864h-2.176zm37.8895 12.352h-4.192c-.47 0-.859-.1067-1.168-.32-.299-.224-.507-.5067-.624-.848l-1.376-4.064h-8.864l-1.3763 4.064c-.1066.2987-.3146.5707-.624.816-.3093.2347-.688.352-1.136.352h-4.224l9.0243-23.312h5.536zm-14.976-8.912h6.368l-2.144-6.384c-.139-.40533-.304-.88-.496-1.424-.182-.55467-.363-1.152-.544-1.792-.171.65067-.347 1.25333-.528 1.808-.182.55467-.352 1.03467-.512 1.44z" fill="#121111"/></svg>