<svg fill="none" height="30" viewBox="0 0 300 30" width="300" xmlns="http://www.w3.org/2000/svg"><path d="m3.768.688c.23467 0 .432.010666.592.031999s.304.064.432.128001c.128.053333.25067.133333.368.24.11733.10667.25067.25067.4.432l11.072 14c-.0427-.448-.0747-.88-.096-1.296-.0213-.4267-.032-.8267-.032-1.2v-12.336h4.768v23.312h-2.816c-.416 0-.768-.064-1.056-.192s-.5653-.3627-.832-.704l-10.992-13.888c.032.40533.05867.8053.08 1.2.02133.384.032.7467.032 1.088v12.496h-4.768v-23.312zm33.1155 23.312c-.4693 0-.8267-.064-1.072-.192-.2347-.128-.432-.3947-.592-.8l-.352-.912c-.416.352-.816.6613-1.2.928s-.784.496-1.2.688c-.4053.1813-.8427.3147-1.312.4-.4587.096-.9707.144-1.536.144-.7573 0-1.4453-.096-2.064-.288-.6187-.2027-1.1467-.496-1.584-.88-.4267-.384-.7573-.8587-.992-1.424-.2347-.576-.352-1.2373-.352-1.984 0-.5867.1493-1.1893.448-1.808s.816-1.1787 1.552-1.68c.736-.512 1.728-.9387 2.976-1.28s2.8213-.5333 4.72-.576v-.704c0-.9707-.2027-1.6693-.608-2.096-.3947-.4373-.96-.656-1.696-.656-.5867 0-1.0667.064-1.44.192s-.7093.272-1.008.432c-.288.16-.5707.304-.848.432s-.608.192-.992.192c-.3413 0-.6347-.08-.88-.24-.2347-.1707-.4213-.3787-.56-.624l-.896-1.552c1.0027-.88533 2.112-1.54133 3.328-1.968 1.2267-.43733 2.5387-.656 3.936-.656 1.0027 0 1.904.16533 2.704.496.8107.32 1.4933.77333 2.048 1.36.5653.576.9973 1.264 1.296 2.064s.448 1.6747.448 2.624v10.368zm-5.696-3.024c.64 0 1.2-.112 1.68-.336s.9653-.5867 1.456-1.088v-2.304c-.992.0427-1.808.128-2.448.256s-1.1467.288-1.52.48-.6347.4107-.784.656c-.1387.2453-.208.512-.208.8 0 .5653.1547.9653.464 1.2.3093.224.7627.336 1.36.336zm17.666-13.856c.704 0 1.3653.06933 1.984.208.6293.13867 1.2107.336 1.744.592h5.008v1.808c0 .2773-.08.496-.24.656-.1493.16-.4107.2827-.784.368l-1.216.272c.1493.48.224.976.224 1.488 0 .832-.176 1.5787-.528 2.24-.3413.6613-.816 1.2267-1.424 1.696-.5973.4587-1.3067.816-2.128 1.072-.8213.2453-1.7013.368-2.64.368-.5227 0-1.0133-.032-1.472-.096-.3627.2133-.544.4587-.544.736s.144.48.432.608c.2987.1173.688.2027 1.168.256.48.0427 1.0293.0747 1.648.096.6187.0107 1.248.048 1.888.112.64.0533 1.2693.1493 1.888.288s1.168.3627 1.648.672.864.7253 1.152 1.248c.2987.512.448 1.168.448 1.968 0 .7467-.1813 1.4773-.544 2.192s-.896 1.3493-1.6 1.904-1.568.9973-2.592 1.328c-1.024.3413-2.1973.512-3.52.512-1.3013 0-2.4267-.1227-3.376-.368-.9387-.2453-1.7227-.5707-2.352-.976-.6187-.3947-1.0773-.8533-1.376-1.376s-.448-1.0667-.448-1.632c0-.736.224-1.3547.672-1.856.448-.512 1.0613-.912 1.84-1.2-.3733-.2453-.672-.56-.896-.944s-.336-.8693-.336-1.456c0-.2453.0427-.5013.128-.768.0853-.2773.2187-.544.4-.8s.4107-.5013.688-.736.608-.4427.992-.624c-.864-.4587-1.5467-1.0667-2.048-1.824-.4907-.7573-.736-1.6373-.736-2.64 0-.832.176-1.5787.528-2.24.352-.672.832-1.23733 1.44-1.696.6187-.46933 1.344-.82667 2.176-1.072.832-.256 1.7333-.384 2.704-.384zm3.68 17.488c0-.2667-.0853-.48-.256-.64-.16-.16-.384-.288-.672-.384-.2773-.096-.608-.1653-.992-.208-.3733-.0427-.7787-.0747-1.216-.096s-.8907-.0373-1.36-.048c-.4693-.0213-.9333-.0587-1.392-.112-.3093.2133-.5653.4533-.768.72-.192.256-.288.5493-.288.88 0 .2347.048.448.144.64.1067.192.288.3573.544.496s.5973.2453 1.024.32c.4373.0853.9867.128 1.648.128.7147 0 1.3013-.0427 1.76-.128s.8213-.2027 1.088-.352c.2773-.1493.4693-.3307.576-.544.1067-.2027.16-.4267.16-.672zm-3.68-9.776c.8213 0 1.4133-.2027 1.776-.608.3733-.416.56-.9493.56-1.6 0-.672-.1867-1.2-.56-1.584-.3627-.384-.9547-.576-1.776-.576s-1.4187.192-1.792.576c-.3627.384-.544.912-.544 1.584 0 .32.0427.6133.128.88.096.2667.24.5013.432.704.192.192.432.3467.72.464.2987.1067.6507.16 1.056.16zm22.67 9.168c-.4693 0-.8267-.064-1.072-.192-.2347-.128-.432-.3947-.592-.8l-.352-.912c-.416.352-.816.6613-1.2.928s-.784.496-1.2.688c-.4053.1813-.8427.3147-1.312.4-.4587.096-.9707.144-1.536.144-.7573 0-1.4453-.096-2.064-.288-.6187-.2027-1.1467-.496-1.584-.88-.4267-.384-.7573-.8587-.992-1.424-.2347-.576-.352-1.2373-.352-1.984 0-.5867.1493-1.1893.448-1.808s.816-1.1787 1.552-1.68c.736-.512 1.728-.9387 2.976-1.28s2.8213-.5333 4.72-.576v-.704c0-.9707-.2027-1.6693-.608-2.096-.3947-.4373-.96-.656-1.696-.656-.5867 0-1.0667.064-1.44.192s-.7093.272-1.008.432c-.288.16-.5707.304-.848.432s-.608.192-.992.192c-.3413 0-.6347-.08-.88-.24-.2347-.1707-.4213-.3787-.56-.624l-.896-1.552c1.0027-.88533 2.112-1.54133 3.328-1.968 1.2267-.43733 2.5387-.656 3.936-.656 1.0027 0 1.904.16533 2.704.496.8107.32 1.4933.77333 2.048 1.36.5653.576.9973 1.264 1.296 2.064s.448 1.6747.448 2.624v10.368zm-5.696-3.024c.64 0 1.2-.112 1.68-.336s.9653-.5867 1.456-1.088v-2.304c-.992.0427-1.808.128-2.448.256s-1.1467.288-1.52.48-.6347.4107-.784.656c-.1387.2453-.208.512-.208.8 0 .5653.1547.9653.464 1.2.3093.224.7627.336 1.36.336zm19.202-13.824c1.2587 0 2.4053.19733 3.44.592s1.92.96 2.656 1.696c.7467.736 1.3227 1.632 1.728 2.688.416 1.0453.624 2.224.624 3.536 0 1.3227-.208 2.5173-.624 3.584-.4053 1.056-.9813 1.9573-1.728 2.704-.736.736-1.6213 1.3067-2.656 1.712-1.0347.3947-2.1813.592-3.44.592-1.2693 0-2.4267-.1973-3.472-.592-1.0347-.4053-1.9307-.976-2.688-1.712-.7467-.7467-1.328-1.648-1.744-2.704-.4053-1.0667-.608-2.2613-.608-3.584 0-1.312.2027-2.4907.608-3.536.416-1.056.9973-1.952 1.744-2.688.7573-.736 1.6533-1.30133 2.688-1.696 1.0453-.39467 2.2027-.592 3.472-.592zm0 13.424c1.1413 0 1.9787-.4 2.512-1.2.544-.8107.816-2.0373.816-3.68s-.272-2.864-.816-3.664c-.5333-.8-1.3707-1.2-2.512-1.2-1.1733 0-2.032.4-2.576 1.2s-.816 2.0213-.816 3.664.272 2.8693.816 3.68c.544.8 1.4027 1.2 2.576 1.2zm16.4505-20.5280016v13.4240016h.736c.309 0 .544-.0427.704-.128.171-.0853.331-.24.48-.464l3.136-4.672c.181-.27733.395-.48.64-.608.256-.128.576-.192.96-.192h4.544l-4.288 5.904c-.203.2773-.427.5227-.672.736-.235.2133-.491.4053-.768.576.48.3627.896.8427 1.248 1.44l4.672 7.936h-4.48c-.373 0-.699-.0587-.976-.176-.267-.128-.485-.3467-.656-.656l-3.136-5.872c-.149-.2667-.304-.4373-.464-.512-.16-.0853-.4-.128-.72-.128h-.96v7.344h-4.96v-23.9520016zm25.253 23.9520016c-.469 0-.826-.064-1.072-.192-.234-.128-.432-.3947-.592-.8l-.352-.912c-.416.352-.816.6613-1.2.928s-.784.496-1.2.688c-.405.1813-.842.3147-1.312.4-.458.096-.97.144-1.536.144-.757 0-1.445-.096-2.064-.288-.618-.2027-1.146-.496-1.584-.88-.426-.384-.757-.8587-.992-1.424-.234-.576-.352-1.2373-.352-1.984 0-.5867.15-1.1893.448-1.808.299-.6187.816-1.1787 1.552-1.68.736-.512 1.728-.9387 2.976-1.28s2.822-.5333 4.72-.576v-.704c0-.9707-.202-1.6693-.608-2.096-.394-.4373-.96-.656-1.696-.656-.586 0-1.066.064-1.44.192-.373.128-.709.272-1.008.432-.288.16-.57.304-.848.432-.277.128-.608.192-.992.192-.341 0-.634-.08-.88-.24-.234-.1707-.421-.3787-.56-.624l-.896-1.552c1.003-.88533 2.112-1.54133 3.328-1.968 1.227-.43733 2.539-.656 3.936-.656 1.003 0 1.904.16533 2.704.496.811.32 1.494.77333 2.048 1.36.566.576.998 1.264 1.296 2.064.299.8.448 1.6747.448 2.624v10.368zm-5.696-3.024c.64 0 1.2-.112 1.68-.336s.966-.5867 1.456-1.088v-2.304c-.992.0427-1.808.128-2.448.256s-1.146.288-1.52.48c-.373.192-.634.4107-.784.656-.138.2453-.208.512-.208.8 0 .5653.155.9653.464 1.2.31.224.763.336 1.36.336zm23.726-10.848h.864c.8 0 1.376-.25067 1.728-.752l5.248-7.616c.288-.416.613-.69867.976-.848001.373-.149333.827-.223999 1.36-.223999h4.704l-6.912 9.424c-.245.3413-.501.624-.768.848s-.539.4107-.816.56c.405.1493.773.3573 1.104.624.341.256.651.6027.928 1.04l7.04 10.816h-4.832c-.309 0-.576-.0213-.8-.064-.213-.0427-.4-.1067-.56-.192s-.299-.1867-.416-.304c-.117-.128-.229-.272-.336-.432l-5.28-8.112c-.192-.2987-.437-.5067-.736-.624-.288-.128-.683-.192-1.184-.192h-1.312v9.92h-5.408v-23.312h5.408zm24.335-2.976c1.259 0 2.406.19733 3.44.592 1.035.39467 1.92.96 2.656 1.696.747.736 1.323 1.632 1.728 2.688.416 1.0453.624 2.224.624 3.536 0 1.3227-.208 2.5173-.624 3.584-.405 1.056-.981 1.9573-1.728 2.704-.736.736-1.621 1.3067-2.656 1.712-1.034.3947-2.181.592-3.44.592-1.269 0-2.426-.1973-3.472-.592-1.034-.4053-1.93-.976-2.688-1.712-.746-.7467-1.328-1.648-1.744-2.704-.405-1.0667-.608-2.2613-.608-3.584 0-1.312.203-2.4907.608-3.536.416-1.056.998-1.952 1.744-2.688.758-.736 1.654-1.30133 2.688-1.696 1.046-.39467 2.203-.592 3.472-.592zm0 13.424c1.142 0 1.979-.4 2.512-1.2.544-.8107.816-2.0373.816-3.68s-.272-2.864-.816-3.664c-.533-.8-1.37-1.2-2.512-1.2-1.173 0-2.032.4-2.576 1.2s-.816 2.0213-.816 3.664.272 2.8693.816 3.68c.544.8 1.403 1.2 2.576 1.2zm21.635-9.536c-.128.2027-.267.3467-.416.432-.139.0853-.32.128-.544.128-.235 0-.47-.048-.704-.144-.235-.1067-.491-.2187-.768-.336-.267-.1173-.571-.224-.912-.32-.342-.1067-.731-.16-1.168-.16-.63 0-1.115.1227-1.456.368-.331.2347-.496.5653-.496.992 0 .3093.106.5653.32.768.224.2027.517.384.88.544.362.1493.773.2933 1.232.432.458.1387.928.2933 1.408.464s.949.3733 1.408.608c.458.224.869.5067 1.232.848.362.3307.65.736.864 1.216.224.48.336 1.056.336 1.728 0 .8213-.15 1.5787-.448 2.272-.299.6933-.747 1.2907-1.344 1.792-.587.5013-1.318.8907-2.192 1.168-.864.2773-1.862.416-2.992.416-.566 0-1.131-.0533-1.696-.16-.566-.1067-1.115-.2507-1.648-.432-.523-.1813-1.008-.3947-1.456-.64-.448-.256-.832-.528-1.152-.816l1.152-1.824c.138-.2133.304-.3787.496-.496.192-.128.442-.192.752-.192.288 0 .544.064.768.192.234.128.485.2667.752.416.266.1493.576.288.928.416.362.128.816.192 1.36.192.384 0 .709-.0373.976-.112.266-.0853.48-.1973.64-.336s.277-.2933.352-.464c.074-.1707.112-.3467.112-.528 0-.3307-.112-.6027-.336-.816s-.518-.3947-.88-.544c-.363-.16-.779-.304-1.248-.432-.459-.1387-.928-.2933-1.408-.464s-.955-.3733-1.424-.608c-.459-.2453-.87-.5493-1.232-.912-.363-.3733-.656-.8267-.88-1.36s-.336-1.1787-.336-1.936c0-.704.133-1.3707.4-2 .277-.64.688-1.2 1.232-1.68s1.226-.85867 2.048-1.136c.821-.288 1.781-.432 2.88-.432.597 0 1.173.05333 1.728.16.565.10667 1.093.256 1.584.448.49.192.938.42133 1.344.688.405.256.762.53867 1.072.848zm15.726 12.96c-.47 0-.827-.064-1.072-.192-.235-.128-.432-.3947-.592-.8l-.352-.912c-.416.352-.816.6613-1.2.928s-.784.496-1.2.688c-.406.1813-.843.3147-1.312.4-.459.096-.971.144-1.536.144-.758 0-1.446-.096-2.064-.288-.619-.2027-1.147-.496-1.584-.88-.427-.384-.758-.8587-.992-1.424-.235-.576-.352-1.2373-.352-1.984 0-.5867.149-1.1893.448-1.808.298-.6187.816-1.1787 1.552-1.68.736-.512 1.728-.9387 2.976-1.28s2.821-.5333 4.72-.576v-.704c0-.9707-.203-1.6693-.608-2.096-.395-.4373-.96-.656-1.696-.656-.587 0-1.067.064-1.44.192-.374.128-.71.272-1.008.432-.288.16-.571.304-.848.432-.278.128-.608.192-.992.192-.342 0-.635-.08-.88-.24-.235-.1707-.422-.3787-.56-.624l-.896-1.552c1.002-.88533 2.112-1.54133 3.328-1.968 1.226-.43733 2.538-.656 3.936-.656 1.002 0 1.904.16533 2.704.496.81.32 1.493.77333 2.048 1.36.565.576.997 1.264 1.296 2.064.298.8.448 1.6747.448 2.624v10.368zm-5.696-3.024c.64 0 1.2-.112 1.68-.336s.965-.5867 1.456-1.088v-2.304c-.992.0427-1.808.128-2.448.256s-1.147.288-1.52.48c-.374.192-.635.4107-.784.656-.139.2453-.208.512-.208.8 0 .5653.154.9653.464 1.2.309.224.762.336 1.36.336zm16.769-20.9280016v13.4240016h.736c.31 0 .544-.0427.704-.128.171-.0853.331-.24.48-.464l3.136-4.672c.182-.27733.395-.48.64-.608.256-.128.576-.192.96-.192h4.544l-4.288 5.904c-.202.2773-.426.5227-.672.736-.234.2133-.49.4053-.768.576.48.3627.896.8427 1.248 1.44l4.672 7.936h-4.48c-.373 0-.698-.0587-.976-.176-.266-.128-.485-.3467-.656-.656l-3.136-5.872c-.149-.2667-.304-.4373-.464-.512-.16-.0853-.4-.128-.72-.128h-.96v7.344h-4.96v-23.9520016zm18.438 7.3600016v10.528c0 .8213.187 1.456.56 1.904s.923.672 1.648.672c.544 0 1.051-.112 1.52-.336.48-.224.944-.5387 1.392-.944v-11.824h4.96v16.592h-3.072c-.619 0-1.024-.2773-1.216-.832l-.304-.96c-.32.3093-.651.592-.992.848-.341.2453-.709.4587-1.104.64-.384.1707-.8.304-1.248.4-.448.1067-.939.16-1.472.16-.907 0-1.712-.1547-2.416-.464-.693-.32-1.28-.7627-1.76-1.328s-.843-1.232-1.088-2-.368-1.6107-.368-2.528v-10.528zm24.386 3.632c-.128.2027-.266.3467-.416.432-.138.0853-.32.128-.544.128-.234 0-.469-.048-.704-.144-.234-.1067-.49-.2187-.768-.336-.266-.1173-.57-.224-.912-.32-.341-.1067-.73-.16-1.168-.16-.629 0-1.114.1227-1.456.368-.33.2347-.496.5653-.496.992 0 .3093.107.5653.32.768.224.2027.518.384.88.544.363.1493.774.2933 1.232.432.459.1387.928.2933 1.408.464s.95.3733 1.408.608c.459.224.87.5067 1.232.848.363.3307.651.736.864 1.216.224.48.336 1.056.336 1.728 0 .8213-.149 1.5787-.448 2.272-.298.6933-.746 1.2907-1.344 1.792-.586.5013-1.317.8907-2.192 1.168-.864.2773-1.861.416-2.992.416-.565 0-1.13-.0533-1.696-.16-.565-.1067-1.114-.2507-1.648-.432-.522-.1813-1.008-.3947-1.456-.64-.448-.256-.832-.528-1.152-.816l1.152-1.824c.139-.2133.304-.3787.496-.496.192-.128.443-.192.752-.192.288 0 .544.064.768.192.235.128.486.2667.752.416.267.1493.576.288.928.416.363.128.816.192 1.36.192.384 0 .71-.0373.976-.112.267-.0853.48-.1973.64-.336s.278-.2933.352-.464c.075-.1707.112-.3467.112-.528 0-.3307-.112-.6027-.336-.816s-.517-.3947-.88-.544c-.362-.16-.778-.304-1.248-.432-.458-.1387-.928-.2933-1.408-.464s-.954-.3733-1.424-.608c-.458-.2453-.869-.5493-1.232-.912-.362-.3733-.656-.8267-.88-1.36s-.336-1.1787-.336-1.936c0-.704.134-1.3707.4-2 .278-.64.688-1.2 1.232-1.68s1.227-.85867 2.048-1.136c.822-.288 1.782-.432 2.88-.432.598 0 1.174.05333 1.728.16.566.10667 1.094.256 1.584.448.491.192.939.42133 1.344.688.406.256.763.53867 1.072.848zm4.27 12.96v-23.9520016h4.96v8.8160016c.598-.512 1.243-.92267 1.936-1.232.704-.32 1.542-.48 2.512-.48.907 0 1.707.16 2.4.48.704.30933 1.296.74667 1.776 1.312.48.55467.843 1.2213 1.088 2 .246.768.368 1.6053.368 2.512v10.544h-4.96v-10.544c0-.8107-.186-1.44-.56-1.888-.373-.4587-.922-.688-1.648-.688-.544 0-1.056.1173-1.536.352s-.938.5493-1.376.944v11.824zm26.275-16.848c1.258 0 2.405.19733 3.44.592 1.034.39467 1.92.96 2.656 1.696.746.736 1.322 1.632 1.728 2.688.416 1.0453.624 2.224.624 3.536 0 1.3227-.208 2.5173-.624 3.584-.406 1.056-.982 1.9573-1.728 2.704-.736.736-1.622 1.3067-2.656 1.712-1.035.3947-2.182.592-3.44.592-1.27 0-2.427-.1973-3.472-.592-1.035-.4053-1.931-.976-2.688-1.712-.747-.7467-1.328-1.648-1.744-2.704-.406-1.0667-.608-2.2613-.608-3.584 0-1.312.202-2.4907.608-3.536.416-1.056.997-1.952 1.744-2.688.757-.736 1.653-1.30133 2.688-1.696 1.045-.39467 2.202-.592 3.472-.592zm0 13.424c1.141 0 1.978-.4 2.512-1.2.544-.8107.816-2.0373.816-3.68s-.272-2.864-.816-3.664c-.534-.8-1.371-1.2-2.512-1.2-1.174 0-2.032.4-2.576 1.2s-.816 2.0213-.816 3.664.272 2.8693.816 3.68c.544.8 1.402 1.2 2.576 1.2z" fill="#121111"/></svg>