<svg width="278" height="25" viewBox="0 0 278 25" fill="none" xmlns="http://www.w3.org/2000/svg">
<path d="M20.254 10.523C20.254 11.8923 20.0157 13.1663 19.539 14.345C19.071 15.5237 18.408 16.5507 17.55 17.426C16.692 18.2927 15.6563 18.973 14.443 19.467C13.2383 19.961 11.8993 20.208 10.426 20.208C8.95267 20.208 7.60933 19.961 6.396 19.467C5.18267 18.973 4.14267 18.2927 3.276 17.426C2.418 16.5507 1.75067 15.5237 1.274 14.345C0.806 13.1663 0.572 11.8923 0.572 10.523C0.572 9.15367 0.806 7.87967 1.274 6.701C1.75067 5.52233 2.418 4.49967 3.276 3.633C4.14267 2.76633 5.18267 2.086 6.396 1.592C7.60933 1.098 8.95267 0.850999 10.426 0.850999C11.8993 0.850999 13.2383 1.10233 14.443 1.605C15.6563 2.099 16.692 2.77933 17.55 3.646C18.408 4.51267 19.071 5.53533 19.539 6.714C20.0157 7.89267 20.254 9.16233 20.254 10.523ZM15.756 10.523C15.756 9.587 15.6347 8.74633 15.392 8.001C15.1493 7.247 14.7983 6.61 14.339 6.09C13.8883 5.57 13.3337 5.17133 12.675 4.894C12.0163 4.61667 11.2667 4.478 10.426 4.478C9.57667 4.478 8.81833 4.61667 8.151 4.894C7.49233 5.17133 6.93333 5.57 6.474 6.09C6.02333 6.61 5.67667 7.247 5.434 8.001C5.19133 8.74633 5.07 9.587 5.07 10.523C5.07 11.4677 5.19133 12.317 5.434 13.071C5.67667 13.8163 6.02333 14.449 6.474 14.969C6.93333 15.489 7.49233 15.8877 8.151 16.165C8.81833 16.4337 9.57667 16.568 10.426 16.568C11.2667 16.568 12.0163 16.4337 12.675 16.165C13.3337 15.8877 13.8883 15.489 14.339 14.969C14.7983 14.449 15.1493 13.8163 15.392 13.071C15.6347 12.317 15.756 11.4677 15.756 10.523ZM22.6149 20V6.519H25.0069C25.2063 6.519 25.3709 6.53633 25.5009 6.571C25.6396 6.60567 25.7523 6.662 25.8389 6.74C25.9343 6.80933 26.0036 6.90467 26.0469 7.026C26.0989 7.14733 26.1423 7.29467 26.1769 7.468L26.3979 8.729C26.8919 7.96633 27.4466 7.364 28.0619 6.922C28.6773 6.48 29.3489 6.259 30.0769 6.259C30.6923 6.259 31.1863 6.40633 31.5589 6.701L31.0389 9.665C31.0043 9.847 30.9349 9.977 30.8309 10.055C30.7269 10.1243 30.5883 10.159 30.4149 10.159C30.2676 10.159 30.0943 10.1417 29.8949 10.107C29.6956 10.0637 29.4443 10.042 29.1409 10.042C28.0836 10.042 27.2516 10.6053 26.6449 11.732V20H22.6149ZM37.7752 6.519V20H33.7452V6.519H37.7752ZM38.2432 2.827C38.2432 3.14767 38.1782 3.451 38.0482 3.737C37.9182 4.01433 37.7405 4.26133 37.5152 4.478C37.2898 4.686 37.0255 4.855 36.7222 4.985C36.4275 5.10633 36.1112 5.167 35.7732 5.167C35.4438 5.167 35.1362 5.10633 34.8502 4.985C34.5642 4.855 34.3085 4.686 34.0832 4.478C33.8665 4.26133 33.6932 4.01433 33.5632 3.737C33.4418 3.451 33.3812 3.14767 33.3812 2.827C33.3812 2.49767 33.4418 2.19 33.5632 1.904C33.6932 1.618 33.8665 1.36667 34.0832 1.15C34.3085 0.933333 34.5642 0.764333 34.8502 0.642999C35.1362 0.521666 35.4438 0.461 35.7732 0.461C36.1112 0.461 36.4275 0.521666 36.7222 0.642999C37.0255 0.764333 37.2898 0.933333 37.5152 1.15C37.7405 1.36667 37.9182 1.618 38.0482 1.904C38.1782 2.19 38.2432 2.49767 38.2432 2.827ZM46.0472 6.285C46.6192 6.285 47.1566 6.34133 47.6592 6.454C48.1706 6.56667 48.6429 6.727 49.0762 6.935H53.1452V8.404C53.1452 8.62933 53.0802 8.807 52.9502 8.937C52.8289 9.067 52.6166 9.16667 52.3132 9.236L51.3252 9.457C51.4466 9.847 51.5072 10.25 51.5072 10.666C51.5072 11.342 51.3642 11.9487 51.0782 12.486C50.8009 13.0233 50.4152 13.4827 49.9212 13.864C49.4359 14.2367 48.8596 14.527 48.1922 14.735C47.5249 14.9343 46.8099 15.034 46.0472 15.034C45.6226 15.034 45.2239 15.008 44.8512 14.956C44.5566 15.1293 44.4092 15.3287 44.4092 15.554C44.4092 15.7793 44.5262 15.944 44.7602 16.048C45.0029 16.1433 45.3192 16.2127 45.7092 16.256C46.0992 16.2907 46.5456 16.3167 47.0482 16.334C47.5509 16.3427 48.0622 16.373 48.5822 16.425C49.1022 16.4683 49.6136 16.5463 50.1162 16.659C50.6189 16.7717 51.0652 16.9537 51.4552 17.205C51.8452 17.4563 52.1572 17.7943 52.3912 18.219C52.6339 18.635 52.7552 19.168 52.7552 19.818C52.7552 20.4247 52.6079 21.0183 52.3132 21.599C52.0186 22.1797 51.5852 22.6953 51.0132 23.146C50.4412 23.5967 49.7392 23.9563 48.9072 24.225C48.0752 24.5023 47.1219 24.641 46.0472 24.641C44.9899 24.641 44.0756 24.5413 43.3042 24.342C42.5416 24.1427 41.9046 23.8783 41.3932 23.549C40.8906 23.2283 40.5179 22.8557 40.2752 22.431C40.0326 22.0063 39.9112 21.5643 39.9112 21.105C39.9112 20.507 40.0932 20.0043 40.4572 19.597C40.8212 19.181 41.3196 18.856 41.9522 18.622C41.6489 18.4227 41.4062 18.167 41.2242 17.855C41.0422 17.543 40.9512 17.1487 40.9512 16.672C40.9512 16.4727 40.9859 16.2647 41.0552 16.048C41.1246 15.8227 41.2329 15.606 41.3802 15.398C41.5276 15.19 41.7139 14.9907 41.9392 14.8C42.1646 14.6093 42.4332 14.4403 42.7452 14.293C42.0432 13.9203 41.4886 13.4263 41.0812 12.811C40.6826 12.1957 40.4832 11.4807 40.4832 10.666C40.4832 9.99 40.6262 9.38333 40.9122 8.846C41.1982 8.3 41.5882 7.84067 42.0822 7.468C42.5849 7.08667 43.1742 6.79633 43.8502 6.597C44.5262 6.389 45.2586 6.285 46.0472 6.285ZM49.0372 20.494C49.0372 20.2773 48.9679 20.104 48.8292 19.974C48.6992 19.844 48.5172 19.74 48.2832 19.662C48.0579 19.584 47.7892 19.5277 47.4772 19.493C47.1739 19.4583 46.8446 19.4323 46.4892 19.415C46.1339 19.3977 45.7656 19.3847 45.3842 19.376C45.0029 19.3587 44.6259 19.3283 44.2532 19.285C44.0019 19.4583 43.7939 19.6533 43.6292 19.87C43.4732 20.078 43.3952 20.3163 43.3952 20.585C43.3952 20.7757 43.4342 20.949 43.5122 21.105C43.5989 21.261 43.7462 21.3953 43.9542 21.508C44.1622 21.6207 44.4396 21.7073 44.7862 21.768C45.1416 21.8373 45.5879 21.872 46.1252 21.872C46.7059 21.872 47.1826 21.8373 47.5552 21.768C47.9279 21.6987 48.2226 21.6033 48.4392 21.482C48.6646 21.3607 48.8206 21.2133 48.9072 21.04C48.9939 20.8753 49.0372 20.6933 49.0372 20.494ZM46.0472 12.551C46.7146 12.551 47.1956 12.3863 47.4902 12.057C47.7936 11.719 47.9452 11.2857 47.9452 10.757C47.9452 10.211 47.7936 9.782 47.4902 9.47C47.1956 9.158 46.7146 9.002 46.0472 9.002C45.3799 9.002 44.8946 9.158 44.5912 9.47C44.2966 9.782 44.1492 10.211 44.1492 10.757C44.1492 11.017 44.1839 11.2553 44.2532 11.472C44.3312 11.6887 44.4482 11.8793 44.6042 12.044C44.7602 12.2 44.9552 12.3257 45.1892 12.421C45.4319 12.5077 45.7179 12.551 46.0472 12.551ZM59.3186 6.519V20H55.2886V6.519H59.3186ZM59.7866 2.827C59.7866 3.14767 59.7216 3.451 59.5916 3.737C59.4616 4.01433 59.2839 4.26133 59.0586 4.478C58.8333 4.686 58.5689 4.855 58.2656 4.985C57.9709 5.10633 57.6546 5.167 57.3166 5.167C56.9873 5.167 56.6796 5.10633 56.3936 4.985C56.1076 4.855 55.8519 4.686 55.6266 4.478C55.4099 4.26133 55.2366 4.01433 55.1066 3.737C54.9853 3.451 54.9246 3.14767 54.9246 2.827C54.9246 2.49767 54.9853 2.19 55.1066 1.904C55.2366 1.618 55.4099 1.36667 55.6266 1.15C55.8519 0.933333 56.1076 0.764333 56.3936 0.642999C56.6796 0.521666 56.9873 0.461 57.3166 0.461C57.6546 0.461 57.9709 0.521666 58.2656 0.642999C58.5689 0.764333 58.8333 0.933333 59.0586 1.15C59.2839 1.36667 59.4616 1.618 59.5916 1.904C59.7216 2.19 59.7866 2.49767 59.7866 2.827ZM62.8327 20V6.519H65.3287C65.58 6.519 65.788 6.57533 65.9527 6.688C66.126 6.80067 66.2473 6.96967 66.3167 7.195L66.5507 7.975C66.8107 7.73233 67.0793 7.507 67.3567 7.299C67.634 7.091 67.9287 6.91767 68.2407 6.779C68.5613 6.63167 68.9037 6.519 69.2677 6.441C69.6403 6.35433 70.0433 6.311 70.4767 6.311C71.2133 6.311 71.8633 6.441 72.4267 6.701C72.9987 6.95233 73.4797 7.30767 73.8697 7.767C74.2597 8.21767 74.5543 8.75933 74.7537 9.392C74.953 10.016 75.0527 10.6963 75.0527 11.433V20H71.0227V11.433C71.0227 10.7743 70.871 10.263 70.5677 9.899C70.2643 9.52633 69.818 9.34 69.2287 9.34C68.7867 9.34 68.3707 9.43533 67.9807 9.626C67.5907 9.81667 67.218 10.0723 66.8627 10.393V20H62.8327ZM87.4827 20C87.1014 20 86.811 19.948 86.6117 19.844C86.421 19.74 86.2607 19.5233 86.1307 19.194L85.8447 18.453C85.5067 18.739 85.1817 18.9903 84.8697 19.207C84.5577 19.4237 84.2327 19.61 83.8947 19.766C83.5654 19.9133 83.21 20.0217 82.8287 20.091C82.456 20.169 82.04 20.208 81.5807 20.208C80.9654 20.208 80.4064 20.13 79.9037 19.974C79.401 19.8093 78.972 19.571 78.6167 19.259C78.27 18.947 78.0014 18.5613 77.8107 18.102C77.62 17.634 77.5247 17.0967 77.5247 16.49C77.5247 16.0133 77.646 15.5237 77.8887 15.021C78.1314 14.5183 78.5517 14.0633 79.1497 13.656C79.7477 13.24 80.5537 12.8933 81.5677 12.616C82.5817 12.3387 83.86 12.1827 85.4027 12.148V11.576C85.4027 10.7873 85.238 10.2197 84.9087 9.873C84.588 9.51767 84.1287 9.34 83.5307 9.34C83.054 9.34 82.664 9.392 82.3607 9.496C82.0574 9.6 81.7844 9.717 81.5417 9.847C81.3077 9.977 81.078 10.094 80.8527 10.198C80.6274 10.302 80.3587 10.354 80.0467 10.354C79.7694 10.354 79.531 10.289 79.3317 10.159C79.141 10.0203 78.9894 9.85133 78.8767 9.652L78.1487 8.391C78.9634 7.67167 79.8647 7.13867 80.8527 6.792C81.8494 6.43667 82.9154 6.259 84.0507 6.259C84.8654 6.259 85.5977 6.39333 86.2477 6.662C86.9064 6.922 87.461 7.29033 87.9117 7.767C88.371 8.235 88.722 8.794 88.9647 9.444C89.2074 10.094 89.3287 10.8047 89.3287 11.576V20H87.4827ZM82.8547 17.543C83.3747 17.543 83.8297 17.452 84.2197 17.27C84.6097 17.088 85.004 16.7933 85.4027 16.386V14.514C84.5967 14.5487 83.9337 14.618 83.4137 14.722C82.8937 14.826 82.482 14.956 82.1787 15.112C81.8754 15.268 81.663 15.4457 81.5417 15.645C81.429 15.8443 81.3727 16.061 81.3727 16.295C81.3727 16.7543 81.4984 17.0793 81.7497 17.27C82.001 17.452 82.3694 17.543 82.8547 17.543ZM96.6103 0.538999V20H92.5803V0.538999H96.6103ZM105.412 20V1.059H112.38C113.688 1.059 114.802 1.18033 115.721 1.423C116.639 1.66567 117.389 2.008 117.97 2.45C118.55 2.892 118.971 3.42933 119.231 4.062C119.499 4.69467 119.634 5.401 119.634 6.181C119.634 6.60567 119.573 7.01733 119.452 7.416C119.33 7.806 119.14 8.17433 118.88 8.521C118.62 8.86767 118.286 9.184 117.879 9.47C117.471 9.74733 116.982 9.99 116.41 10.198C117.658 10.5013 118.581 10.9953 119.179 11.68C119.777 12.356 120.076 13.227 120.076 14.293C120.076 15.099 119.92 15.8487 119.608 16.542C119.296 17.2353 118.836 17.842 118.23 18.362C117.632 18.8733 116.891 19.2763 116.007 19.571C115.123 19.857 114.113 20 112.978 20H105.412ZM109.806 11.966V16.685H112.9C113.48 16.685 113.953 16.6113 114.317 16.464C114.689 16.3167 114.98 16.126 115.188 15.892C115.396 15.658 115.539 15.3937 115.617 15.099C115.695 14.8043 115.734 14.5053 115.734 14.202C115.734 13.8553 115.686 13.5433 115.591 13.266C115.504 12.9887 115.348 12.7547 115.123 12.564C114.906 12.3733 114.616 12.226 114.252 12.122C113.888 12.018 113.428 11.966 112.874 11.966H109.806ZM109.806 9.028H112.094C112.579 9.028 113.017 8.99333 113.407 8.924C113.797 8.85467 114.126 8.73333 114.395 8.56C114.672 8.38667 114.88 8.14833 115.019 7.845C115.166 7.54167 115.24 7.16033 115.24 6.701C115.24 6.25033 115.183 5.87767 115.071 5.583C114.958 5.27967 114.785 5.037 114.551 4.855C114.317 4.673 114.018 4.543 113.654 4.465C113.298 4.387 112.874 4.348 112.38 4.348H109.806V9.028ZM132.042 20C131.661 20 131.371 19.948 131.171 19.844C130.981 19.74 130.82 19.5233 130.69 19.194L130.404 18.453C130.066 18.739 129.741 18.9903 129.429 19.207C129.117 19.4237 128.792 19.61 128.454 19.766C128.125 19.9133 127.77 20.0217 127.388 20.091C127.016 20.169 126.6 20.208 126.14 20.208C125.525 20.208 124.966 20.13 124.463 19.974C123.961 19.8093 123.532 19.571 123.176 19.259C122.83 18.947 122.561 18.5613 122.37 18.102C122.18 17.634 122.084 17.0967 122.084 16.49C122.084 16.0133 122.206 15.5237 122.448 15.021C122.691 14.5183 123.111 14.0633 123.709 13.656C124.307 13.24 125.113 12.8933 126.127 12.616C127.141 12.3387 128.42 12.1827 129.962 12.148V11.576C129.962 10.7873 129.798 10.2197 129.468 9.873C129.148 9.51767 128.688 9.34 128.09 9.34C127.614 9.34 127.224 9.392 126.92 9.496C126.617 9.6 126.344 9.717 126.101 9.847C125.867 9.977 125.638 10.094 125.412 10.198C125.187 10.302 124.918 10.354 124.606 10.354C124.329 10.354 124.091 10.289 123.891 10.159C123.701 10.0203 123.549 9.85133 123.436 9.652L122.708 8.391C123.523 7.67167 124.424 7.13867 125.412 6.792C126.409 6.43667 127.475 6.259 128.61 6.259C129.425 6.259 130.157 6.39333 130.807 6.662C131.466 6.922 132.021 7.29033 132.471 7.767C132.931 8.235 133.282 8.794 133.524 9.444C133.767 10.094 133.888 10.8047 133.888 11.576V20H132.042ZM127.414 17.543C127.934 17.543 128.389 17.452 128.779 17.27C129.169 17.088 129.564 16.7933 129.962 16.386V14.514C129.156 14.5487 128.493 14.618 127.973 14.722C127.453 14.826 127.042 14.956 126.738 15.112C126.435 15.268 126.223 15.4457 126.101 15.645C125.989 15.8443 125.932 16.061 125.932 16.295C125.932 16.7543 126.058 17.0793 126.309 17.27C126.561 17.452 126.929 17.543 127.414 17.543ZM141.768 6.285C142.34 6.285 142.877 6.34133 143.38 6.454C143.891 6.56667 144.364 6.727 144.797 6.935H148.866V8.404C148.866 8.62933 148.801 8.807 148.671 8.937C148.55 9.067 148.337 9.16667 148.034 9.236L147.046 9.457C147.167 9.847 147.228 10.25 147.228 10.666C147.228 11.342 147.085 11.9487 146.799 12.486C146.522 13.0233 146.136 13.4827 145.642 13.864C145.157 14.2367 144.58 14.527 143.913 14.735C143.246 14.9343 142.531 15.034 141.768 15.034C141.343 15.034 140.945 15.008 140.572 14.956C140.277 15.1293 140.13 15.3287 140.13 15.554C140.13 15.7793 140.247 15.944 140.481 16.048C140.724 16.1433 141.04 16.2127 141.43 16.256C141.82 16.2907 142.266 16.3167 142.769 16.334C143.272 16.3427 143.783 16.373 144.303 16.425C144.823 16.4683 145.334 16.5463 145.837 16.659C146.34 16.7717 146.786 16.9537 147.176 17.205C147.566 17.4563 147.878 17.7943 148.112 18.219C148.355 18.635 148.476 19.168 148.476 19.818C148.476 20.4247 148.329 21.0183 148.034 21.599C147.739 22.1797 147.306 22.6953 146.734 23.146C146.162 23.5967 145.46 23.9563 144.628 24.225C143.796 24.5023 142.843 24.641 141.768 24.641C140.711 24.641 139.796 24.5413 139.025 24.342C138.262 24.1427 137.625 23.8783 137.114 23.549C136.611 23.2283 136.239 22.8557 135.996 22.431C135.753 22.0063 135.632 21.5643 135.632 21.105C135.632 20.507 135.814 20.0043 136.178 19.597C136.542 19.181 137.04 18.856 137.673 18.622C137.37 18.4227 137.127 18.167 136.945 17.855C136.763 17.543 136.672 17.1487 136.672 16.672C136.672 16.4727 136.707 16.2647 136.776 16.048C136.845 15.8227 136.954 15.606 137.101 15.398C137.248 15.19 137.435 14.9907 137.66 14.8C137.885 14.6093 138.154 14.4403 138.466 14.293C137.764 13.9203 137.209 13.4263 136.802 12.811C136.403 12.1957 136.204 11.4807 136.204 10.666C136.204 9.99 136.347 9.38333 136.633 8.846C136.919 8.3 137.309 7.84067 137.803 7.468C138.306 7.08667 138.895 6.79633 139.571 6.597C140.247 6.389 140.979 6.285 141.768 6.285ZM144.758 20.494C144.758 20.2773 144.689 20.104 144.55 19.974C144.42 19.844 144.238 19.74 144.004 19.662C143.779 19.584 143.51 19.5277 143.198 19.493C142.895 19.4583 142.565 19.4323 142.21 19.415C141.855 19.3977 141.486 19.3847 141.105 19.376C140.724 19.3587 140.347 19.3283 139.974 19.285C139.723 19.4583 139.515 19.6533 139.35 19.87C139.194 20.078 139.116 20.3163 139.116 20.585C139.116 20.7757 139.155 20.949 139.233 21.105C139.32 21.261 139.467 21.3953 139.675 21.508C139.883 21.6207 140.16 21.7073 140.507 21.768C140.862 21.8373 141.309 21.872 141.846 21.872C142.427 21.872 142.903 21.8373 143.276 21.768C143.649 21.6987 143.943 21.6033 144.16 21.482C144.385 21.3607 144.541 21.2133 144.628 21.04C144.715 20.8753 144.758 20.6933 144.758 20.494ZM141.768 12.551C142.435 12.551 142.916 12.3863 143.211 12.057C143.514 11.719 143.666 11.2857 143.666 10.757C143.666 10.211 143.514 9.782 143.211 9.47C142.916 9.158 142.435 9.002 141.768 9.002C141.101 9.002 140.615 9.158 140.312 9.47C140.017 9.782 139.87 10.211 139.87 10.757C139.87 11.017 139.905 11.2553 139.974 11.472C140.052 11.6887 140.169 11.8793 140.325 12.044C140.481 12.2 140.676 12.3257 140.91 12.421C141.153 12.5077 141.439 12.551 141.768 12.551ZM168.894 15.099C168.998 15.099 169.102 15.1207 169.206 15.164C169.31 15.1987 169.409 15.2637 169.505 15.359L171.247 17.192C170.484 18.1887 169.526 18.9427 168.374 19.454C167.23 19.9567 165.873 20.208 164.305 20.208C162.866 20.208 161.575 19.9653 160.431 19.48C159.295 18.986 158.329 18.31 157.532 17.452C156.743 16.5853 156.136 15.5627 155.712 14.384C155.287 13.1967 155.075 11.9097 155.075 10.523C155.075 9.11033 155.317 7.81467 155.803 6.636C156.288 5.44867 156.964 4.426 157.831 3.568C158.706 2.71 159.75 2.04267 160.964 1.566C162.177 1.08933 163.516 0.850999 164.981 0.850999C165.691 0.850999 166.359 0.915999 166.983 1.046C167.615 1.16733 168.205 1.34067 168.751 1.566C169.297 1.78267 169.799 2.047 170.259 2.359C170.718 2.66233 171.125 3.00033 171.481 3.373L169.999 5.362C169.903 5.48333 169.791 5.596 169.661 5.7C169.531 5.79533 169.349 5.843 169.115 5.843C168.959 5.843 168.811 5.80833 168.673 5.739C168.534 5.66967 168.387 5.58733 168.231 5.492C168.075 5.388 167.901 5.27967 167.711 5.167C167.529 5.04567 167.308 4.93733 167.048 4.842C166.796 4.738 166.497 4.65133 166.151 4.582C165.813 4.51267 165.414 4.478 164.955 4.478C164.157 4.478 163.429 4.621 162.771 4.907C162.112 5.18433 161.544 5.58733 161.068 6.116C160.6 6.636 160.231 7.26867 159.963 8.014C159.703 8.75933 159.573 9.59567 159.573 10.523C159.573 11.4937 159.703 12.356 159.963 13.11C160.231 13.864 160.591 14.501 161.042 15.021C161.501 15.5323 162.034 15.9223 162.641 16.191C163.247 16.4597 163.897 16.594 164.591 16.594C164.989 16.594 165.353 16.5767 165.683 16.542C166.012 16.4987 166.315 16.4293 166.593 16.334C166.879 16.2387 167.147 16.1173 167.399 15.97C167.659 15.814 167.919 15.6233 168.179 15.398C168.283 15.3113 168.395 15.242 168.517 15.19C168.638 15.1293 168.764 15.099 168.894 15.099ZM179.52 6.311C180.543 6.311 181.475 6.47133 182.315 6.792C183.156 7.11267 183.875 7.572 184.473 8.17C185.08 8.768 185.548 9.496 185.877 10.354C186.215 11.2033 186.384 12.161 186.384 13.227C186.384 14.3017 186.215 15.2723 185.877 16.139C185.548 16.997 185.08 17.7293 184.473 18.336C183.875 18.934 183.156 19.3977 182.315 19.727C181.475 20.0477 180.543 20.208 179.52 20.208C178.489 20.208 177.549 20.0477 176.699 19.727C175.859 19.3977 175.131 18.934 174.515 18.336C173.909 17.7293 173.436 16.997 173.098 16.139C172.769 15.2723 172.604 14.3017 172.604 13.227C172.604 12.161 172.769 11.2033 173.098 10.354C173.436 9.496 173.909 8.768 174.515 8.17C175.131 7.572 175.859 7.11267 176.699 6.792C177.549 6.47133 178.489 6.311 179.52 6.311ZM179.52 17.218C180.448 17.218 181.128 16.893 181.561 16.243C182.003 15.5843 182.224 14.5877 182.224 13.253C182.224 11.9183 182.003 10.926 181.561 10.276C181.128 9.626 180.448 9.301 179.52 9.301C178.567 9.301 177.869 9.626 177.427 10.276C176.985 10.926 176.764 11.9183 176.764 13.253C176.764 14.5877 176.985 15.5843 177.427 16.243C177.869 16.893 178.567 17.218 179.52 17.218ZM193.016 0.538999V20H188.986V0.538999H193.016ZM200.691 0.538999V20H196.661V0.538999H200.691ZM209.977 6.311C210.869 6.311 211.684 6.44967 212.421 6.727C213.166 7.00433 213.803 7.40733 214.332 7.936C214.869 8.46467 215.285 9.11467 215.58 9.886C215.883 10.6487 216.035 11.5153 216.035 12.486C216.035 12.7893 216.022 13.0363 215.996 13.227C215.97 13.4177 215.922 13.5693 215.853 13.682C215.783 13.7947 215.688 13.8727 215.567 13.916C215.454 13.9593 215.307 13.981 215.125 13.981H207.351C207.481 15.1077 207.823 15.9267 208.378 16.438C208.932 16.9407 209.647 17.192 210.523 17.192C210.991 17.192 211.394 17.1357 211.732 17.023C212.07 16.9103 212.369 16.7847 212.629 16.646C212.897 16.5073 213.14 16.3817 213.357 16.269C213.582 16.1563 213.816 16.1 214.059 16.1C214.379 16.1 214.622 16.217 214.787 16.451L215.957 17.894C215.541 18.3707 215.09 18.7607 214.605 19.064C214.128 19.3587 213.634 19.5927 213.123 19.766C212.62 19.9307 212.113 20.0433 211.602 20.104C211.099 20.1733 210.618 20.208 210.159 20.208C209.214 20.208 208.326 20.0563 207.494 19.753C206.67 19.441 205.947 18.9817 205.323 18.375C204.707 17.7683 204.218 17.0143 203.854 16.113C203.498 15.2117 203.321 14.163 203.321 12.967C203.321 12.0657 203.472 11.212 203.776 10.406C204.088 9.6 204.53 8.89367 205.102 8.287C205.682 7.68033 206.38 7.19933 207.195 6.844C208.018 6.48867 208.945 6.311 209.977 6.311ZM210.055 9.093C209.283 9.093 208.681 9.314 208.248 9.756C207.814 10.1893 207.528 10.8177 207.39 11.641H212.421C212.421 11.3203 212.377 11.0083 212.291 10.705C212.213 10.4017 212.078 10.133 211.888 9.899C211.706 9.65633 211.463 9.46133 211.16 9.314C210.856 9.16667 210.488 9.093 210.055 9.093ZM228.331 9.717C228.21 9.86433 228.093 9.98133 227.98 10.068C227.868 10.1547 227.707 10.198 227.499 10.198C227.3 10.198 227.118 10.1503 226.953 10.055C226.797 9.95967 226.62 9.85567 226.42 9.743C226.221 9.62167 225.987 9.51333 225.718 9.418C225.45 9.32267 225.116 9.275 224.717 9.275C224.223 9.275 223.794 9.366 223.43 9.548C223.075 9.73 222.78 9.99 222.546 10.328C222.312 10.666 222.139 11.082 222.026 11.576C221.914 12.0613 221.857 12.6117 221.857 13.227C221.857 14.5183 222.104 15.5107 222.598 16.204C223.101 16.8973 223.79 17.244 224.665 17.244C225.133 17.244 225.502 17.1877 225.77 17.075C226.048 16.9537 226.282 16.8237 226.472 16.685C226.663 16.5377 226.836 16.4033 226.992 16.282C227.157 16.1607 227.361 16.1 227.603 16.1C227.924 16.1 228.167 16.217 228.331 16.451L229.501 17.894C229.085 18.3707 228.648 18.7607 228.188 19.064C227.729 19.3587 227.257 19.5927 226.771 19.766C226.295 19.9307 225.814 20.0433 225.328 20.104C224.843 20.1733 224.371 20.208 223.911 20.208C223.088 20.208 222.299 20.052 221.545 19.74C220.8 19.428 220.141 18.9773 219.569 18.388C219.006 17.79 218.555 17.0577 218.217 16.191C217.888 15.3243 217.723 14.3363 217.723 13.227C217.723 12.2563 217.866 11.3507 218.152 10.51C218.447 9.66067 218.876 8.92833 219.439 8.313C220.011 7.689 220.713 7.19933 221.545 6.844C222.386 6.48867 223.357 6.311 224.457 6.311C225.515 6.311 226.442 6.48 227.239 6.818C228.037 7.156 228.756 7.65 229.397 8.3L228.331 9.717ZM236.244 20.208C235.602 20.208 235.035 20.117 234.541 19.935C234.055 19.7443 233.644 19.48 233.306 19.142C232.976 18.7953 232.725 18.3793 232.552 17.894C232.378 17.4087 232.292 16.867 232.292 16.269V9.301H231.148C230.94 9.301 230.762 9.236 230.615 9.106C230.467 8.96733 230.394 8.768 230.394 8.508V6.935L232.539 6.519L233.332 3.23C233.436 2.814 233.73 2.606 234.216 2.606H236.322V6.545H239.598V9.301H236.322V15.996C236.322 16.308 236.395 16.568 236.543 16.776C236.699 16.9753 236.92 17.075 237.206 17.075C237.353 17.075 237.474 17.062 237.57 17.036C237.674 17.0013 237.76 16.9667 237.83 16.932C237.908 16.8887 237.977 16.854 238.038 16.828C238.107 16.7933 238.185 16.776 238.272 16.776C238.393 16.776 238.488 16.8063 238.558 16.867C238.636 16.919 238.714 17.0057 238.792 17.127L240.014 19.038C239.494 19.428 238.909 19.7227 238.259 19.922C237.609 20.1127 236.937 20.208 236.244 20.208ZM246.342 6.519V20H242.312V6.519H246.342ZM246.81 2.827C246.81 3.14767 246.745 3.451 246.615 3.737C246.485 4.01433 246.307 4.26133 246.082 4.478C245.857 4.686 245.592 4.855 245.289 4.985C244.994 5.10633 244.678 5.167 244.34 5.167C244.011 5.167 243.703 5.10633 243.417 4.985C243.131 4.855 242.875 4.686 242.65 4.478C242.433 4.26133 242.26 4.01433 242.13 3.737C242.009 3.451 241.948 3.14767 241.948 2.827C241.948 2.49767 242.009 2.19 242.13 1.904C242.26 1.618 242.433 1.36667 242.65 1.15C242.875 0.933333 243.131 0.764333 243.417 0.642999C243.703 0.521666 244.011 0.461 244.34 0.461C244.678 0.461 244.994 0.521666 245.289 0.642999C245.592 0.764333 245.857 0.933333 246.082 1.15C246.307 1.36667 246.485 1.618 246.615 1.904C246.745 2.19 246.81 2.49767 246.81 2.827ZM255.862 6.311C256.885 6.311 257.816 6.47133 258.657 6.792C259.498 7.11267 260.217 7.572 260.815 8.17C261.422 8.768 261.89 9.496 262.219 10.354C262.557 11.2033 262.726 12.161 262.726 13.227C262.726 14.3017 262.557 15.2723 262.219 16.139C261.89 16.997 261.422 17.7293 260.815 18.336C260.217 18.934 259.498 19.3977 258.657 19.727C257.816 20.0477 256.885 20.208 255.862 20.208C254.831 20.208 253.89 20.0477 253.041 19.727C252.2 19.3977 251.472 18.934 250.857 18.336C250.25 17.7293 249.778 16.997 249.44 16.139C249.111 15.2723 248.946 14.3017 248.946 13.227C248.946 12.161 249.111 11.2033 249.44 10.354C249.778 9.496 250.25 8.768 250.857 8.17C251.472 7.572 252.2 7.11267 253.041 6.792C253.89 6.47133 254.831 6.311 255.862 6.311ZM255.862 17.218C256.789 17.218 257.47 16.893 257.903 16.243C258.345 15.5843 258.566 14.5877 258.566 13.253C258.566 11.9183 258.345 10.926 257.903 10.276C257.47 9.626 256.789 9.301 255.862 9.301C254.909 9.301 254.211 9.626 253.769 10.276C253.327 10.926 253.106 11.9183 253.106 13.253C253.106 14.5877 253.327 15.5843 253.769 16.243C254.211 16.893 254.909 17.218 255.862 17.218ZM265.198 20V6.519H267.694C267.945 6.519 268.153 6.57533 268.318 6.688C268.491 6.80067 268.613 6.96967 268.682 7.195L268.916 7.975C269.176 7.73233 269.445 7.507 269.722 7.299C269.999 7.091 270.294 6.91767 270.606 6.779C270.927 6.63167 271.269 6.519 271.633 6.441C272.006 6.35433 272.409 6.311 272.842 6.311C273.579 6.311 274.229 6.441 274.792 6.701C275.364 6.95233 275.845 7.30767 276.235 7.767C276.625 8.21767 276.92 8.75933 277.119 9.392C277.318 10.016 277.418 10.6963 277.418 11.433V20H273.388V11.433C273.388 10.7743 273.236 10.263 272.933 9.899C272.63 9.52633 272.183 9.34 271.594 9.34C271.152 9.34 270.736 9.43533 270.346 9.626C269.956 9.81667 269.583 10.0723 269.228 10.393V20H265.198Z" fill="#121111"/>
</svg>
