<svg fill="none" height="21" viewBox="0 0 90 21" width="90" xmlns="http://www.w3.org/2000/svg"><path d="m14.287 15.099c.104 0 .208.0217.312.065.104.0347.2037.0997.299.195l1.742 1.833c-.7627.9967-1.7203 1.7507-2.873 2.262-1.144.5027-2.5003.754-4.069.754-1.43867 0-2.73-.2427-3.874-.728-1.13533-.494-2.10167-1.17-2.899-2.028-.78867-.8667-1.39533-1.8893-1.82-3.068-.424667-1.1873-.637-2.4743-.637-3.861 0-1.41267.242667-2.70833.728-3.887.48533-1.18733 1.16133-2.21 2.028-3.068.87533-.858 1.91967-1.52533 3.133-2.002s2.55233-.715001 4.017-.715001c.7107 0 1.378.065 2.002.195001.6327.12133 1.222.29467 1.768.52.546.21667 1.0487.481 1.508.793.4593.30333.8667.64133 1.222 1.014l-1.482 1.989c-.0953.12133-.208.234-.338.338-.13.09533-.312.143-.546.143-.156 0-.3033-.03467-.442-.104s-.286-.15167-.442-.247c-.156-.104-.3293-.21233-.52-.325-.182-.12133-.403-.22967-.663-.325-.2513-.104-.5503-.19067-.897-.26-.338-.06933-.7367-.104-1.196-.104-.79733 0-1.52533.143-2.184.429-.65867.27733-1.22633.68033-1.703 1.209-.468.52-.83633 1.15267-1.105 1.898-.26.74533-.39 1.58167-.39 2.509 0 .9707.13 1.833.39 2.587.26867.754.62833 1.391 1.079 1.911.45933.5113.99233.9013 1.599 1.17s1.25667.403 1.95.403c.3987 0 .7627-.0173 1.092-.052.3293-.0433.6327-.1127.91-.208.286-.0953.5547-.2167.806-.364.26-.156.52-.3467.78-.572.104-.0867.2167-.156.338-.208.1213-.0607.247-.091.377-.091zm9.0149 1.391h7.02v3.51h-11.414v-18.941h4.394zm14.1584 3.51h-4.42v-18.941h4.42zm8.1721-6.331v6.331h-4.394v-18.941h6.682c1.3347 0 2.4787.16033 3.432.481.962.312 1.7507.74533 2.366 1.3.624.55467 1.0834 1.209 1.378 1.963.2947.754.442 1.56867.442 2.444 0 .94467-.1516 1.81133-.455 2.6-.3033.7887-.767 1.4647-1.391 2.028s-1.417 1.0053-2.379 1.326c-.9533.312-2.0843.468-3.393.468zm0-3.315h2.288c1.144 0 1.9674-.273 2.47-.819.5027-.546.754-1.30867.754-2.288 0-.43333-.065-.82767-.195-1.183s-.3293-.65867-.598-.91c-.26-.26-.5936-.45933-1.001-.598-.3986-.13867-.8753-.208-1.43-.208h-2.288zm16.8401 6.136h7.02v3.51h-11.414v-18.941h4.394zm26.9764 3.51h-3.406c-.3813 0-.6976-.0867-.949-.26-.2426-.182-.4116-.4117-.507-.689l-1.118-3.302h-7.202l-1.118 3.302c-.0866.2427-.2556.4637-.507.663-.2513.1907-.559.286-.923.286h-3.432l7.332-18.941h4.498zm-12.168-7.241h5.174l-1.742-5.187c-.1126-.32933-.247-.715-.403-1.157-.1473-.45067-.2946-.936-.442-1.456-.1386.52867-.2816 1.01833-.429 1.469-.1473.45067-.286.84067-.416 1.17z" fill="#121111"/></svg>