<svg fill="none" height="25" viewBox="0 0 196 25" width="196" xmlns="http://www.w3.org/2000/svg"><path d="m14.536 15.136v8.864h-5.408v-8.864l-8.448-14.448h4.768c.46933 0 .84267.111999 1.12.336.27733.21333.50133.49067.672.832l3.296 6.784c.2667.544.512 1.04533.736 1.504.224.4587.4213.912.592 1.36.16-.4587.352-.9173.576-1.376.224-.45867.464-.95467.72-1.488l3.264-6.784c.064-.13867.1493-.27733.256-.416.1173-.13867.2453-.26133.384-.368.1493-.117335.3147-.208002.496-.272001.192-.074666.4-.111999.624-.111999h4.8zm15.1897-7.984c1.2587 0 2.4054.19733 3.4401.592 1.0346.39467 1.92.96 2.656 1.696.7466.736 1.3226 1.632 1.728 2.688.416 1.0453.6239 2.224.6239 3.536 0 1.3227-.2079 2.5173-.6239 3.584-.4054 1.056-.9814 1.9573-1.728 2.704-.736.736-1.6214 1.3067-2.656 1.712-1.0347.3947-2.1814.592-3.4401.592-1.2693 0-2.4266-.1973-3.472-.592-1.0346-.4053-1.9306-.976-2.688-1.712-.7466-.7467-1.328-1.648-1.744-2.704-.4053-1.0667-.608-2.2613-.608-3.584 0-1.312.2027-2.4907.608-3.536.416-1.056.9974-1.952 1.744-2.688.7574-.736 1.6534-1.30133 2.688-1.696 1.0454-.39467 2.2027-.592 3.472-.592zm0 13.424c1.1414 0 1.9787-.4 2.5121-1.2.544-.8107.816-2.0373.816-3.68s-.272-2.864-.816-3.664c-.5334-.8-1.3707-1.2-2.5121-1.2-1.1733 0-2.0319.4-2.5759 1.2-.5441.8-.8161 2.0213-.8161 3.664s.272 2.8693.8161 3.68c.544.8 1.4026 1.2 2.5759 1.2zm16.4505-20.5280016v13.4240016h.736c.3094 0 .544-.0427.7041-.128.1706-.0853.3306-.24.4799-.464l3.1361-4.672c.1813-.27733.3946-.48.6399-.608.2561-.128.5761-.192.96-.192h4.544l-4.2879 5.904c-.2027.2773-.4267.5227-.672.736-.2347.2133-.4907.4053-.7681.576.48.3627.896.8427 1.248 1.44l4.6721 7.936h-4.48c-.3734 0-.6987-.0587-.976-.176-.2667-.128-.4854-.3467-.656-.656l-3.1361-5.872c-.1493-.2667-.304-.4373-.464-.512-.16-.0853-.4-.128-.72-.128h-.96v7.344h-4.96v-23.9520016zm20.2208 7.1040016c1.2587 0 2.4053.19733 3.44.592s1.92.96 2.656 1.696c.7467.736 1.3227 1.632 1.728 2.688.416 1.0453.624 2.224.624 3.536 0 1.3227-.208 2.5173-.624 3.584-.4053 1.056-.9813 1.9573-1.728 2.704-.736.736-1.6213 1.3067-2.656 1.712-1.0347.3947-2.1813.592-3.44.592-1.2693 0-2.4267-.1973-3.472-.592-1.0347-.4053-1.9307-.976-2.688-1.712-.7467-.7467-1.328-1.648-1.744-2.704-.4053-1.0667-.608-2.2613-.608-3.584 0-1.312.2027-2.4907.608-3.536.416-1.056.9973-1.952 1.744-2.688.7573-.736 1.6533-1.30133 2.688-1.696 1.0453-.39467 2.2027-.592 3.472-.592zm0 13.424c1.1413 0 1.9787-.4 2.512-1.2.544-.8107.816-2.0373.816-3.68s-.272-2.864-.816-3.664c-.5333-.8-1.3707-1.2-2.512-1.2-1.1733 0-2.032.4-2.576 1.2s-.816 2.0213-.816 3.664.272 2.8693.816 3.68c.544.8 1.4027 1.2 2.576 1.2zm21.6345-9.536c-.128.2027-.2667.3467-.416.432-.1387.0853-.32.128-.544.128-.2347 0-.4693-.048-.704-.144-.2347-.1067-.4907-.2187-.768-.336-.2667-.1173-.5707-.224-.912-.32-.3413-.1067-.7307-.16-1.168-.16-.6293 0-1.1147.1227-1.456.368-.3307.2347-.496.5653-.496.992 0 .3093.1067.5653.32.768.224.2027.5173.384.88.544.3627.1493.7733.2933 1.232.432s.928.2933 1.408.464.9493.3733 1.408.608c.4587.224.8693.5067 1.232.848.3627.3307.6507.736.864 1.216.224.48.336 1.056.336 1.728 0 .8213-.1493 1.5787-.448 2.272s-.7467 1.2907-1.344 1.792c-.5867.5013-1.3173.8907-2.192 1.168-.864.2773-1.8613.416-2.992.416-.5653 0-1.1307-.0533-1.696-.16s-1.1147-.2507-1.648-.432c-.5227-.1813-1.008-.3947-1.456-.64-.448-.256-.832-.528-1.152-.816l1.152-1.824c.1387-.2133.304-.3787.496-.496.192-.128.4427-.192.752-.192.288 0 .544.064.768.192.2347.128.4853.2667.752.416s.576.288.928.416c.3627.128.816.192 1.36.192.384 0 .7093-.0373.976-.112.2667-.0853.48-.1973.64-.336s.2773-.2933.352-.464.112-.3467.112-.528c0-.3307-.112-.6027-.336-.816s-.5173-.3947-.88-.544c-.3627-.16-.7787-.304-1.248-.432-.4587-.1387-.928-.2933-1.408-.464s-.9547-.3733-1.424-.608c-.4587-.2453-.8693-.5493-1.232-.912-.3627-.3733-.656-.8267-.88-1.36s-.336-1.1787-.336-1.936c0-.704.1333-1.3707.4-2 .2773-.64.688-1.2 1.232-1.68s1.2267-.85867 2.048-1.136c.8213-.288 1.7813-.432 2.88-.432.5973 0 1.1733.05333 1.728.16.5653.10667 1.0933.256 1.584.448s.9387.42133 1.344.688c.4053.256.7627.53867 1.072.848zm8.9097-3.632v10.528c0 .8213.1867 1.456.56 1.904.3734.448.9227.672 1.648.672.544 0 1.0508-.112 1.5198-.336.48-.224.944-.5387 1.392-.944v-11.824h4.96v16.592h-3.072c-.618 0-1.024-.2773-1.216-.832l-.304-.96c-.32.3093-.65.592-.992.848-.341.2453-.709.4587-1.104.64-.3838.1707-.7998.304-1.2478.4-.448.1067-.9386.16-1.472.16-.9066 0-1.712-.1547-2.416-.464-.6933-.32-1.28-.7627-1.76-1.328s-.8426-1.232-1.088-2c-.2453-.768-.368-1.6107-.368-2.528v-10.528zm19.2028-7.3600016v13.4240016h.736c.309 0 .544-.0427.704-.128.17-.0853.33-.24.48-.464l3.136-4.672c.181-.27733.394-.48.64-.608.256-.128.576-.192.96-.192h4.544l-4.288 5.904c-.203.2773-.427.5227-.672.736-.235.2133-.491.4053-.768.576.48.3627.896.8427 1.248 1.44l4.672 7.936h-4.48c-.374 0-.699-.0587-.976-.176-.267-.128-.486-.3467-.656-.656l-3.136-5.872c-.15-.2667-.304-.4373-.464-.512-.16-.0853-.4-.128-.72-.128h-.96v7.344h-4.96v-23.9520016zm25.253 23.9520016c-.469 0-.826-.064-1.072-.192-.234-.128-.432-.3947-.592-.8l-.352-.912c-.416.352-.816.6613-1.2.928s-.784.496-1.2.688c-.405.1813-.842.3147-1.312.4-.458.096-.97.144-1.536.144-.757 0-1.445-.096-2.064-.288-.618-.2027-1.146-.496-1.584-.88-.426-.384-.757-.8587-.992-1.424-.234-.576-.352-1.2373-.352-1.984 0-.5867.15-1.1893.448-1.808.299-.6187.816-1.1787 1.552-1.68.736-.512 1.728-.9387 2.976-1.28s2.822-.5333 4.72-.576v-.704c0-.9707-.202-1.6693-.608-2.096-.394-.4373-.96-.656-1.696-.656-.586 0-1.066.064-1.44.192-.373.128-.709.272-1.008.432-.288.16-.57.304-.848.432-.277.128-.608.192-.992.192-.341 0-.634-.08-.88-.24-.234-.1707-.421-.3787-.56-.624l-.896-1.552c1.003-.88533 2.112-1.54133 3.328-1.968 1.227-.43733 2.539-.656 3.936-.656 1.003 0 1.904.16533 2.704.496.811.32 1.494.77333 2.048 1.36.566.576.998 1.264 1.296 2.064.299.8.448 1.6747.448 2.624v10.368zm-5.696-3.024c.64 0 1.2-.112 1.68-.336s.966-.5867 1.456-1.088v-2.304c-.992.0427-1.808.128-2.448.256s-1.146.288-1.52.48c-.373.192-.634.4107-.784.656-.138.2453-.208.512-.208.8 0 .5653.155.9653.464 1.2.31.224.763.336 1.36.336zm28.238-5.424c0 1.3013-.166 2.4853-.496 3.552-.32 1.0667-.811 1.984-1.472 2.752-.651.7573-1.472 1.3493-2.464 1.776-.992.416-2.16.624-3.504.624-.608 0-1.211-.032-1.808-.096-.587-.064-1.2-.1707-1.84-.32l.288-3.152c.021-.2773.128-.5013.32-.672.202-.1707.48-.256.832-.256.181 0 .405.032.672.096.266.0533.586.08.96.08.522 0 .976-.0693 1.36-.208.394-.1493.72-.3893.976-.72.256-.3413.448-.784.576-1.328s.192-1.216.192-2.016v-14.976h5.408zm19.814 2.416c.128 0 .256.0267.384.08.128.0427.25.1227.368.24l2.144 2.256c-.939 1.2267-2.118 2.1547-3.536 2.784-1.408.6187-3.078.928-5.008.928-1.771 0-3.36-.2987-4.768-.896-1.398-.608-2.587-1.44-3.568-2.496-.971-1.0667-1.718-2.3253-2.24-3.776-.523-1.4613-.784-3.0453-.784-4.752 0-1.7387.298-3.33333.896-4.784.597-1.46133 1.429-2.72 2.496-3.776 1.077-1.056 2.362-1.87733 3.856-2.464 1.493-.586668 3.141-.880001 4.944-.880001.874 0 1.696.08 2.464.24.778.149333 1.504.362661 2.176.640001.672.26667 1.29.592 1.856.976.565.37333 1.066.78933 1.504 1.248l-1.824 2.448c-.118.14933-.256.288-.416.416-.16.11733-.384.176-.672.176-.192 0-.374-.04267-.544-.128-.171-.08533-.352-.18667-.544-.304-.192-.128-.406-.26133-.64-.4-.224-.14933-.496-.28267-.816-.4-.31-.128-.678-.23467-1.104-.32-.416-.08533-.907-.128-1.472-.128-.982 0-1.878.176-2.688.528-.811.34133-1.51.83733-2.096 1.488-.576.64-1.03 1.41867-1.36 2.336-.32.9173-.48 1.9467-.48 3.088 0 1.1947.16 2.256.48 3.184.33.928.773 1.712 1.328 2.352.565.6293 1.221 1.1093 1.968 1.44.746.3307 1.546.496 2.4.496.49 0 .938-.0213 1.344-.064.405-.0533.778-.1387 1.12-.256.352-.1173.682-.2667.992-.448.32-.192.64-.4267.96-.704.128-.1067.266-.192.416-.256.149-.0747.304-.112.464-.112zm11.607 6.032h-5.44v-23.312h5.44z" fill="#121111"/></svg>