<svg fill="none" height="25" viewBox="0 0 111 25" width="111" xmlns="http://www.w3.org/2000/svg"><path d="m17.584 17.968c.128 0 .256.0267.384.08.128.0427.2507.1227.368.24l2.144 2.256c-.9387 1.2267-2.1173 2.1547-3.536 2.784-1.408.6187-3.0773.928-5.008.928-1.7707 0-3.36-.2987-4.768-.896-1.39733-.608-2.58667-1.44-3.568-2.496-.97067-1.0667-1.71733-2.3253-2.24-3.776-.522667-1.4613-.784-3.0453-.784-4.752 0-1.7387.298667-3.33333.896-4.784.59733-1.46133 1.42933-2.72 2.496-3.776 1.07733-1.056 2.36267-1.87733 3.856-2.464 1.49333-.586668 3.1413-.880001 4.944-.880001.8747 0 1.696.08 2.464.24.7787.149333 1.504.362661 2.176.640001.672.26667 1.2907.592 1.856.976.5653.37333 1.0667.78933 1.504 1.248l-1.824 2.448c-.1173.14933-.256.288-.416.416-.16.11733-.384.176-.672.176-.192 0-.3733-.04267-.544-.128s-.352-.18667-.544-.304c-.192-.128-.4053-.26133-.64-.4-.224-.14933-.496-.28267-.816-.4-.3093-.128-.6773-.23467-1.104-.32-.416-.08533-.9067-.128-1.472-.128-.9813 0-1.8773.176-2.688.528-.81067.34133-1.50933.83733-2.096 1.488-.576.64-1.02933 1.41867-1.36 2.336-.32.9173-.48 1.9467-.48 3.088 0 1.1947.16 2.256.48 3.184.33067.928.77333 1.712 1.328 2.352.56533.6293 1.22133 1.1093 1.968 1.44.7467.3307 1.5467.496 2.4.496.4907 0 .9387-.0213 1.344-.064.4053-.0533.7787-.1387 1.12-.256.352-.1173.6827-.2667.992-.448.32-.192.64-.4267.96-.704.128-.1067.2667-.192.416-.256.1493-.0747.304-.112.464-.112zm11.0953 1.712h8.64v4.32h-14.0481v-23.312h5.4081zm17.4257 4.32h-5.44v-23.312h5.44zm10.058-7.792v7.792h-5.408v-23.312h8.224c1.6427 0 3.0507.197333 4.224.592 1.184.384 2.1547.91733 2.912 1.6.768.68267 1.3333 1.488 1.696 2.416s.544 1.93067.544 3.008c0 1.16267-.1867 2.2293-.56 3.2s-.944 1.8027-1.712 2.496-1.744 1.2373-2.928 1.632c-1.1733.384-2.5653.576-4.176.576zm0-4.08h2.816c1.408 0 2.4213-.336 3.04-1.008s.928-1.61067.928-2.816c0-.53333-.08-1.01867-.24-1.456s-.4053-.81067-.736-1.12c-.32-.32-.7307-.56533-1.232-.736-.4907-.17067-1.0773-.256-1.76-.256h-2.816zm20.7262 7.552h8.64v4.32h-14.048v-23.312h5.408zm33.2018 4.32h-4.192c-.469 0-.859-.1067-1.168-.32-.299-.224-.507-.5067-.624-.848l-1.376-4.064h-8.864l-1.376 4.064c-.1067.2987-.3147.5707-.624.816-.3093.2347-.688.352-1.136.352h-4.224l9.024-23.312h5.536zm-14.976-8.912h6.368l-2.144-6.384c-.1387-.40533-.304-.88-.496-1.424-.1813-.55467-.3627-1.152-.544-1.792-.1707.65067-.3467 1.25333-.528 1.808s-.352 1.03467-.512 1.44z" fill="#121111"/></svg>