<svg width="264" height="25" viewBox="0 0 264 25" fill="none" xmlns="http://www.w3.org/2000/svg">
<path d="M6.328 15.376V24H0.92V0.688H8.504C10.1893 0.688 11.624 0.864 12.808 1.216C14.0027 1.55733 14.9733 2.03733 15.72 2.656C16.4773 3.27467 17.0267 4.00533 17.368 4.848C17.7093 5.69067 17.88 6.608 17.88 7.6C17.88 8.35733 17.7787 9.072 17.576 9.744C17.3733 10.416 17.0693 11.04 16.664 11.616C16.2693 12.1813 15.7787 12.688 15.192 13.136C14.616 13.584 13.9493 13.952 13.192 14.24C13.5547 14.4213 13.8907 14.6453 14.2 14.912C14.52 15.1787 14.7973 15.504 15.032 15.888L19.992 24H15.096C14.1893 24 13.5387 23.6587 13.144 22.976L9.272 16.208C9.10133 15.9093 8.89867 15.696 8.664 15.568C8.44 15.44 8.12 15.376 7.704 15.376H6.328ZM6.328 11.648H8.504C9.24 11.648 9.864 11.5573 10.376 11.376C10.8987 11.184 11.3253 10.9227 11.656 10.592C11.9867 10.2613 12.2267 9.87733 12.376 9.44C12.5253 8.992 12.6 8.512 12.6 8C12.6 6.976 12.264 6.176 11.592 5.6C10.9307 5.024 9.90133 4.736 8.504 4.736H6.328V11.648ZM33.9773 24C33.5079 24 33.1506 23.936 32.9053 23.808C32.6706 23.68 32.4733 23.4133 32.3133 23.008L31.9613 22.096C31.5452 22.448 31.1453 22.7573 30.7613 23.024C30.3773 23.2907 29.9773 23.52 29.5612 23.712C29.1559 23.8933 28.7186 24.0267 28.2492 24.112C27.7906 24.208 27.2786 24.256 26.7133 24.256C25.9559 24.256 25.2679 24.16 24.6493 23.968C24.0306 23.7653 23.5026 23.472 23.0652 23.088C22.6386 22.704 22.3079 22.2293 22.0732 21.664C21.8386 21.088 21.7212 20.4267 21.7212 19.68C21.7212 19.0933 21.8706 18.4907 22.1692 17.872C22.4679 17.2533 22.9852 16.6933 23.7212 16.192C24.4572 15.68 25.4492 15.2533 26.6972 14.912C27.9453 14.5707 29.5186 14.3787 31.4173 14.336V13.632C31.4173 12.6613 31.2146 11.9627 30.8092 11.536C30.4146 11.0987 29.8492 10.88 29.1132 10.88C28.5266 10.88 28.0466 10.944 27.6733 11.072C27.2999 11.2 26.9639 11.344 26.6652 11.504C26.3773 11.664 26.0946 11.808 25.8172 11.936C25.5399 12.064 25.2092 12.128 24.8252 12.128C24.4839 12.128 24.1906 12.048 23.9452 11.888C23.7106 11.7173 23.5239 11.5093 23.3852 11.264L22.4892 9.712C23.4919 8.82667 24.6012 8.17067 25.8172 7.744C27.0439 7.30667 28.3559 7.088 29.7533 7.088C30.7559 7.088 31.6573 7.25333 32.4573 7.584C33.2679 7.904 33.9506 8.35733 34.5052 8.944C35.0706 9.52 35.5026 10.208 35.8013 11.008C36.0999 11.808 36.2493 12.6827 36.2493 13.632V24H33.9773ZM28.2812 20.976C28.9213 20.976 29.4813 20.864 29.9613 20.64C30.4413 20.416 30.9266 20.0533 31.4173 19.552V17.248C30.4253 17.2907 29.6092 17.376 28.9692 17.504C28.3293 17.632 27.8226 17.792 27.4493 17.984C27.0759 18.176 26.8146 18.3947 26.6652 18.64C26.5266 18.8853 26.4573 19.152 26.4573 19.44C26.4573 20.0053 26.6119 20.4053 26.9212 20.64C27.2306 20.864 27.6839 20.976 28.2812 20.976ZM40.0912 24V7.408H43.1632C43.4726 7.408 43.7286 7.47733 43.9312 7.616C44.1446 7.75467 44.2939 7.96267 44.3792 8.24L44.6672 9.2C44.9872 8.90133 45.3179 8.624 45.6592 8.368C46.0006 8.112 46.3632 7.89867 46.7472 7.728C47.1419 7.54667 47.5632 7.408 48.0112 7.312C48.4699 7.20533 48.9659 7.152 49.4992 7.152C50.4059 7.152 51.2059 7.312 51.8993 7.632C52.6032 7.94133 53.1952 8.37867 53.6753 8.944C54.1553 9.49867 54.5179 10.1653 54.7633 10.944C55.0086 11.712 55.1313 12.5493 55.1313 13.456V24H50.1713V13.456C50.1713 12.6453 49.9846 12.016 49.6112 11.568C49.2379 11.1093 48.6886 10.88 47.9633 10.88C47.4193 10.88 46.9073 10.9973 46.4272 11.232C45.9472 11.4667 45.4886 11.7813 45.0512 12.176V24H40.0912ZM70.9417 11.344C70.7924 11.5253 70.6484 11.6693 70.5097 11.776C70.3711 11.8827 70.1737 11.936 69.9177 11.936C69.6724 11.936 69.4484 11.8773 69.2457 11.76C69.0537 11.6427 68.8351 11.5147 68.5897 11.376C68.3444 11.2267 68.0564 11.0933 67.7257 10.976C67.3951 10.8587 66.9844 10.8 66.4937 10.8C65.8857 10.8 65.3577 10.912 64.9097 11.136C64.4724 11.36 64.1097 11.68 63.8217 12.096C63.5337 12.512 63.3204 13.024 63.1817 13.632C63.0431 14.2293 62.9737 14.9067 62.9737 15.664C62.9737 17.2533 63.2777 18.4747 63.8857 19.328C64.5044 20.1813 65.3524 20.608 66.4297 20.608C67.0057 20.608 67.4591 20.5387 67.7897 20.4C68.1311 20.2507 68.4191 20.0907 68.6537 19.92C68.8884 19.7387 69.1017 19.5733 69.2937 19.424C69.4964 19.2747 69.7471 19.2 70.0457 19.2C70.4404 19.2 70.7391 19.344 70.9417 19.632L72.3818 21.408C71.8697 21.9947 71.3311 22.4747 70.7657 22.848C70.2004 23.2107 69.6191 23.4987 69.0217 23.712C68.4351 23.9147 67.8431 24.0533 67.2457 24.128C66.6484 24.2133 66.0671 24.256 65.5017 24.256C64.4884 24.256 63.5177 24.064 62.5897 23.68C61.6724 23.296 60.8617 22.7413 60.1577 22.016C59.4644 21.28 58.9097 20.3787 58.4937 19.312C58.0884 18.2453 57.8857 17.0293 57.8857 15.664C57.8857 14.4693 58.0617 13.3547 58.4137 12.32C58.7764 11.2747 59.3044 10.3733 59.9977 9.616C60.7017 8.848 61.5657 8.24533 62.5897 7.808C63.6244 7.37067 64.8191 7.152 66.1737 7.152C67.4751 7.152 68.6164 7.36 69.5977 7.776C70.5791 8.192 71.4644 8.8 72.2537 9.6L70.9417 11.344ZM74.8562 24V0.0479984H79.8162V8.864C80.4136 8.352 81.0589 7.94133 81.7522 7.632C82.4562 7.312 83.2936 7.152 84.2642 7.152C85.1709 7.152 85.9709 7.312 86.6642 7.632C87.3682 7.94133 87.9602 8.37867 88.4402 8.944C88.9202 9.49867 89.2829 10.1653 89.5282 10.944C89.7736 11.712 89.8962 12.5493 89.8962 13.456V24H84.9362V13.456C84.9362 12.6453 84.7496 12.016 84.3762 11.568C84.0029 11.1093 83.4536 10.88 82.7282 10.88C82.1842 10.88 81.6722 10.9973 81.1922 11.232C80.7122 11.4667 80.2536 11.7813 79.8162 12.176V24H74.8562ZM101.131 7.152C102.389 7.152 103.536 7.34933 104.571 7.744C105.605 8.13867 106.491 8.704 107.227 9.44C107.973 10.176 108.549 11.072 108.955 12.128C109.371 13.1733 109.579 14.352 109.579 15.664C109.579 16.9867 109.371 18.1813 108.955 19.248C108.549 20.304 107.973 21.2053 107.227 21.952C106.491 22.688 105.605 23.2587 104.571 23.664C103.536 24.0587 102.389 24.256 101.131 24.256C99.8614 24.256 98.7041 24.0587 97.6587 23.664C96.6241 23.2587 95.7281 22.688 94.9707 21.952C94.2241 21.2053 93.6427 20.304 93.2267 19.248C92.8214 18.1813 92.6187 16.9867 92.6187 15.664C92.6187 14.352 92.8214 13.1733 93.2267 12.128C93.6427 11.072 94.2241 10.176 94.9707 9.44C95.7281 8.704 96.6241 8.13867 97.6587 7.744C98.7041 7.34933 99.8614 7.152 101.131 7.152ZM101.131 20.576C102.272 20.576 103.109 20.176 103.643 19.376C104.187 18.5653 104.459 17.3387 104.459 15.696C104.459 14.0533 104.187 12.832 103.643 12.032C103.109 11.232 102.272 10.832 101.131 10.832C99.9574 10.832 99.0987 11.232 98.5547 12.032C98.0107 12.832 97.7387 14.0533 97.7387 15.696C97.7387 17.3387 98.0107 18.5653 98.5547 19.376C99.0987 20.176 99.9574 20.576 101.131 20.576ZM132.121 5.424C131.961 5.68 131.79 5.872 131.609 6C131.438 6.128 131.214 6.192 130.937 6.192C130.691 6.192 130.425 6.11733 130.137 5.968C129.859 5.808 129.539 5.632 129.177 5.44C128.825 5.248 128.419 5.07733 127.961 4.928C127.502 4.768 126.979 4.688 126.393 4.688C125.379 4.688 124.622 4.90667 124.121 5.344C123.63 5.77067 123.385 6.352 123.385 7.088C123.385 7.55733 123.534 7.94667 123.833 8.256C124.131 8.56533 124.521 8.832 125.001 9.056C125.491 9.28 126.046 9.488 126.665 9.68C127.294 9.86133 127.934 10.0693 128.585 10.304C129.235 10.528 129.87 10.7947 130.489 11.104C131.118 11.4133 131.673 11.808 132.153 12.288C132.643 12.768 133.038 13.3547 133.337 14.048C133.635 14.7307 133.785 15.5573 133.785 16.528C133.785 17.6053 133.598 18.6133 133.225 19.552C132.851 20.4907 132.307 21.312 131.593 22.016C130.889 22.7093 130.014 23.2587 128.969 23.664C127.934 24.0587 126.755 24.256 125.433 24.256C124.707 24.256 123.966 24.1813 123.209 24.032C122.462 23.8827 121.737 23.6747 121.033 23.408C120.329 23.1307 119.667 22.8053 119.049 22.432C118.43 22.0587 117.891 21.6427 117.433 21.184L119.033 18.656C119.15 18.464 119.315 18.3093 119.529 18.192C119.742 18.0747 119.971 18.016 120.217 18.016C120.537 18.016 120.857 18.1173 121.177 18.32C121.507 18.5227 121.875 18.7467 122.281 18.992C122.697 19.2373 123.171 19.4613 123.705 19.664C124.238 19.8667 124.867 19.968 125.593 19.968C126.574 19.968 127.337 19.7547 127.881 19.328C128.425 18.8907 128.697 18.2027 128.697 17.264C128.697 16.72 128.547 16.2773 128.249 15.936C127.95 15.5947 127.555 15.312 127.065 15.088C126.585 14.864 126.035 14.6667 125.417 14.496C124.798 14.3253 124.163 14.1387 123.513 13.936C122.862 13.7227 122.227 13.4667 121.609 13.168C120.99 12.8587 120.435 12.4587 119.945 11.968C119.465 11.4667 119.075 10.848 118.777 10.112C118.478 9.36533 118.329 8.448 118.329 7.36C118.329 6.48533 118.505 5.632 118.857 4.8C119.209 3.968 119.726 3.22666 120.409 2.576C121.091 1.92533 121.929 1.408 122.921 1.024C123.913 0.629332 125.049 0.431999 126.329 0.431999C127.043 0.431999 127.737 0.490666 128.409 0.608C129.091 0.714666 129.737 0.879999 130.345 1.104C130.953 1.31733 131.518 1.57867 132.041 1.888C132.574 2.18667 133.049 2.528 133.465 2.912L132.121 5.424ZM144.184 7.152C145.443 7.152 146.59 7.34933 147.624 7.744C148.659 8.13867 149.544 8.704 150.28 9.44C151.027 10.176 151.603 11.072 152.008 12.128C152.424 13.1733 152.632 14.352 152.632 15.664C152.632 16.9867 152.424 18.1813 152.008 19.248C151.603 20.304 151.027 21.2053 150.28 21.952C149.544 22.688 148.659 23.2587 147.624 23.664C146.59 24.0587 145.443 24.256 144.184 24.256C142.915 24.256 141.758 24.0587 140.712 23.664C139.678 23.2587 138.782 22.688 138.024 21.952C137.278 21.2053 136.696 20.304 136.28 19.248C135.875 18.1813 135.672 16.9867 135.672 15.664C135.672 14.352 135.875 13.1733 136.28 12.128C136.696 11.072 137.278 10.176 138.024 9.44C138.782 8.704 139.678 8.13867 140.712 7.744C141.758 7.34933 142.915 7.152 144.184 7.152ZM144.184 20.576C145.326 20.576 146.163 20.176 146.696 19.376C147.24 18.5653 147.512 17.3387 147.512 15.696C147.512 14.0533 147.24 12.832 146.696 12.032C146.163 11.232 145.326 10.832 144.184 10.832C143.011 10.832 142.152 11.232 141.608 12.032C141.064 12.832 140.792 14.0533 140.792 15.696C140.792 17.3387 141.064 18.5653 141.608 19.376C142.152 20.176 143.011 20.576 144.184 20.576ZM155.675 24V7.408H158.747C159.056 7.408 159.312 7.47733 159.515 7.616C159.728 7.75467 159.878 7.96267 159.963 8.24L160.235 9.136C160.512 8.848 160.8 8.58667 161.099 8.352C161.398 8.10667 161.718 7.89867 162.059 7.728C162.411 7.54667 162.784 7.408 163.179 7.312C163.584 7.20533 164.027 7.152 164.507 7.152C165.51 7.152 166.336 7.41333 166.987 7.936C167.648 8.448 168.15 9.136 168.491 10C168.768 9.488 169.104 9.05067 169.499 8.688C169.904 8.32533 170.336 8.032 170.795 7.808C171.264 7.584 171.755 7.41867 172.267 7.312C172.79 7.20533 173.307 7.152 173.819 7.152C174.768 7.152 175.611 7.296 176.347 7.584C177.083 7.86133 177.696 8.272 178.187 8.816C178.688 9.34933 179.067 10.0107 179.323 10.8C179.579 11.5787 179.707 12.464 179.707 13.456V24H174.747V13.456C174.747 11.7387 174.011 10.88 172.539 10.88C171.867 10.88 171.307 11.104 170.859 11.552C170.422 11.9893 170.203 12.624 170.203 13.456V24H165.243V13.456C165.243 12.5067 165.056 11.84 164.683 11.456C164.31 11.072 163.76 10.88 163.035 10.88C162.587 10.88 162.16 10.9813 161.755 11.184C161.36 11.3867 160.987 11.6587 160.635 12V24H155.675ZM183.557 24V0.0479984H188.517V9.168C189.136 8.56 189.835 8.07467 190.613 7.712C191.403 7.33867 192.325 7.152 193.381 7.152C194.245 7.152 195.045 7.33867 195.781 7.712C196.517 8.08533 197.152 8.63467 197.685 9.36C198.219 10.0747 198.635 10.9547 198.933 12C199.243 13.0453 199.397 14.2347 199.397 15.568C199.397 16.816 199.221 17.968 198.869 19.024C198.528 20.08 198.043 20.9973 197.413 21.776C196.795 22.5547 196.048 23.1627 195.173 23.6C194.309 24.0373 193.349 24.256 192.293 24.256C191.803 24.256 191.36 24.208 190.965 24.112C190.581 24.016 190.224 23.8827 189.893 23.712C189.573 23.5307 189.275 23.3173 188.997 23.072C188.731 22.8267 188.469 22.56 188.213 22.272L188.037 23.104C187.963 23.4453 187.824 23.68 187.621 23.808C187.429 23.936 187.173 24 186.853 24H183.557ZM191.653 10.88C191.291 10.88 190.96 10.9173 190.661 10.992C190.373 11.056 190.101 11.152 189.845 11.28C189.6 11.408 189.371 11.5733 189.157 11.776C188.944 11.968 188.731 12.192 188.517 12.448V19.488C188.891 19.904 189.296 20.1973 189.733 20.368C190.171 20.528 190.629 20.608 191.109 20.608C191.568 20.608 191.989 20.5173 192.373 20.336C192.757 20.1547 193.088 19.8667 193.365 19.472C193.653 19.0667 193.877 18.544 194.037 17.904C194.197 17.264 194.277 16.4853 194.277 15.568C194.277 14.6933 194.213 13.9573 194.085 13.36C193.957 12.7627 193.776 12.2827 193.541 11.92C193.317 11.5467 193.045 11.28 192.725 11.12C192.405 10.96 192.048 10.88 191.653 10.88ZM202.44 24V7.408H205.384C205.629 7.408 205.832 7.42933 205.992 7.472C206.163 7.51467 206.301 7.584 206.408 7.68C206.525 7.76533 206.611 7.88267 206.664 8.032C206.728 8.18133 206.781 8.36267 206.824 8.576L207.096 10.128C207.704 9.18933 208.387 8.448 209.144 7.904C209.901 7.36 210.728 7.088 211.624 7.088C212.381 7.088 212.989 7.26933 213.448 7.632L212.808 11.28C212.765 11.504 212.68 11.664 212.552 11.76C212.424 11.8453 212.253 11.888 212.04 11.888C211.859 11.888 211.645 11.8667 211.4 11.824C211.155 11.7707 210.845 11.744 210.472 11.744C209.171 11.744 208.147 12.4373 207.4 13.824V24H202.44ZM223.083 7.152C224.181 7.152 225.184 7.32267 226.091 7.664C227.008 8.00533 227.792 8.50133 228.443 9.152C229.104 9.80267 229.616 10.6027 229.979 11.552C230.352 12.4907 230.539 13.5573 230.539 14.752C230.539 15.1253 230.523 15.4293 230.491 15.664C230.459 15.8987 230.4 16.0853 230.315 16.224C230.229 16.3627 230.112 16.4587 229.963 16.512C229.824 16.5653 229.643 16.592 229.419 16.592H219.851C220.011 17.9787 220.432 18.9867 221.115 19.616C221.797 20.2347 222.677 20.544 223.755 20.544C224.331 20.544 224.827 20.4747 225.243 20.336C225.659 20.1973 226.027 20.0427 226.347 19.872C226.677 19.7013 226.976 19.5467 227.243 19.408C227.52 19.2693 227.808 19.2 228.107 19.2C228.501 19.2 228.8 19.344 229.003 19.632L230.443 21.408C229.931 21.9947 229.376 22.4747 228.779 22.848C228.192 23.2107 227.584 23.4987 226.955 23.712C226.336 23.9147 225.712 24.0533 225.083 24.128C224.464 24.2133 223.872 24.256 223.307 24.256C222.144 24.256 221.051 24.0693 220.027 23.696C219.013 23.312 218.123 22.7467 217.355 22C216.597 21.2533 215.995 20.3253 215.547 19.216C215.109 18.1067 214.891 16.816 214.891 15.344C214.891 14.2347 215.077 13.184 215.451 12.192C215.835 11.2 216.379 10.3307 217.083 9.584C217.797 8.83733 218.656 8.24533 219.659 7.808C220.672 7.37067 221.813 7.152 223.083 7.152ZM223.179 10.576C222.229 10.576 221.488 10.848 220.955 11.392C220.421 11.9253 220.069 12.6987 219.899 13.712H226.091C226.091 13.3173 226.037 12.9333 225.931 12.56C225.835 12.1867 225.669 11.856 225.435 11.568C225.211 11.2693 224.912 11.0293 224.539 10.848C224.165 10.6667 223.712 10.576 223.179 10.576ZM233.705 24V7.408H236.649C236.894 7.408 237.097 7.42933 237.257 7.472C237.428 7.51467 237.566 7.584 237.673 7.68C237.79 7.76533 237.876 7.88267 237.929 8.032C237.993 8.18133 238.046 8.36267 238.089 8.576L238.361 10.128C238.969 9.18933 239.652 8.448 240.409 7.904C241.166 7.36 241.993 7.088 242.889 7.088C243.646 7.088 244.254 7.26933 244.713 7.632L244.073 11.28C244.03 11.504 243.945 11.664 243.817 11.76C243.689 11.8453 243.518 11.888 243.305 11.888C243.124 11.888 242.91 11.8667 242.665 11.824C242.42 11.7707 242.11 11.744 241.737 11.744C240.436 11.744 239.412 12.4373 238.665 13.824V24H233.705ZM254.636 7.152C255.894 7.152 257.041 7.34933 258.076 7.744C259.11 8.13867 259.996 8.704 260.732 9.44C261.478 10.176 262.054 11.072 262.46 12.128C262.876 13.1733 263.084 14.352 263.084 15.664C263.084 16.9867 262.876 18.1813 262.46 19.248C262.054 20.304 261.478 21.2053 260.732 21.952C259.996 22.688 259.11 23.2587 258.076 23.664C257.041 24.0587 255.894 24.256 254.636 24.256C253.366 24.256 252.209 24.0587 251.164 23.664C250.129 23.2587 249.233 22.688 248.476 21.952C247.729 21.2053 247.148 20.304 246.732 19.248C246.326 18.1813 246.124 16.9867 246.124 15.664C246.124 14.352 246.326 13.1733 246.732 12.128C247.148 11.072 247.729 10.176 248.476 9.44C249.233 8.704 250.129 8.13867 251.164 7.744C252.209 7.34933 253.366 7.152 254.636 7.152ZM254.636 20.576C255.777 20.576 256.614 20.176 257.148 19.376C257.692 18.5653 257.964 17.3387 257.964 15.696C257.964 14.0533 257.692 12.832 257.148 12.032C256.614 11.232 255.777 10.832 254.636 10.832C253.462 10.832 252.604 11.232 252.06 12.032C251.516 12.832 251.244 14.0533 251.244 15.696C251.244 17.3387 251.516 18.5653 252.06 19.376C252.604 20.176 253.462 20.576 254.636 20.576Z" fill="#121111"/>
</svg>
