<svg fill="none" height="26" viewBox="0 0 173 26" width="173" xmlns="http://www.w3.org/2000/svg"><path d="m6.04 8.408v16.592h-4.96v-16.592zm.576-4.544c0 .39467-.08.768-.24 1.12-.16.34133-.37867.64533-.656.912-.27733.256-.60267.464-.976.624-.36267.14933-.752.224-1.168.224-.40533 0-.784-.07467-1.136-.224-.352-.16-.66667-.368-.944-.624-.26667-.26667-.48-.57067-.64-.912-.149333-.352-.224-.72533-.224-1.12 0-.40533.074667-.784.224-1.136.16-.352.37333-.66133.64-.928.27733-.26667.592-.47467.944-.624s.73067-.224 1.136-.224c.416 0 .80533.07467 1.168.224.37333.14933.69867.35733.976.624s.496.576.656.928.24.73067.24 1.136zm10.853 4.288c1.0987 0 2.1013.17067 3.008.512.9173.34133 1.7013.83733 2.352 1.488.6613.6507 1.1733 1.4507 1.536 2.4.3733.9387.56 2.0053.56 3.2 0 .3733-.016.6773-.048.912s-.0907.4213-.176.56-.2027.2347-.352.288c-.1387.0533-.32.08-.544.08h-9.568c.16 1.3867.5813 2.3947 1.264 3.024.6827.6187 1.5627.928 2.64.928.576 0 1.072-.0693 1.488-.208s.784-.2933 1.104-.464c.3307-.1707.6293-.3253.896-.464.2773-.1387.5653-.208.864-.208.3947 0 .6933.144.896.432l1.44 1.776c-.512.5867-1.0667 1.0667-1.664 1.44-.5867.3627-1.1947.6507-1.824.864-.6187.2027-1.2427.3413-1.872.416-.6187.0853-1.2107.128-1.776.128-1.1627 0-2.256-.1867-3.28-.56-1.0133-.384-1.904-.9493-2.672-1.696-.7573-.7467-1.36-1.6747-1.808-2.784-.43733-1.1093-.656-2.4-.656-3.872 0-1.1093.18667-2.16.56-3.152.384-.992.928-1.8613 1.632-2.608.7147-.74667 1.5733-1.33867 2.576-1.776 1.0133-.43733 2.1547-.656 3.424-.656zm.096 3.424c-.9493 0-1.6907.272-2.224.816-.5333.5333-.8853 1.3067-1.056 2.32h6.192c0-.3947-.0533-.7787-.16-1.152-.096-.3733-.2613-.704-.496-.992-.224-.2987-.5227-.5387-.896-.72s-.8267-.272-1.36-.272zm10.2062 1.696h8.6401v4h-8.6401zm19.5878-5.12c1.0987 0 2.1013.17067 3.008.512.9173.34133 1.7013.83733 2.352 1.488.6613.6507 1.1733 1.4507 1.536 2.4.3733.9387.56 2.0053.56 3.2 0 .3733-.016.6773-.048.912s-.0907.4213-.176.56-.2027.2347-.352.288c-.1387.0533-.32.08-.544.08h-9.568c.16 1.3867.5813 2.3947 1.264 3.024.6827.6187 1.5627.928 2.64.928.576 0 1.072-.0693 1.488-.208s.784-.2933 1.104-.464c.3307-.1707.6293-.3253.896-.464.2773-.1387.5653-.208.864-.208.3947 0 .6933.144.896.432l1.44 1.776c-.512.5867-1.0667 1.0667-1.664 1.44-.5867.3627-1.1947.6507-1.824.864-.6187.2027-1.2427.3413-1.872.416-.6187.0853-1.2107.128-1.776.128-1.1627 0-2.256-.1867-3.28-.56-1.0133-.384-1.904-.9493-2.672-1.696-.7573-.7467-1.36-1.6747-1.808-2.784-.4373-1.1093-.656-2.4-.656-3.872 0-1.1093.1867-2.16.56-3.152.384-.992.928-1.8613 1.632-2.608.7147-.74667 1.5733-1.33867 2.576-1.776 1.0133-.43733 2.1547-.656 3.424-.656zm.096 3.424c-.9493 0-1.6907.272-2.224.816-.5333.5333-.8853 1.3067-1.056 2.32h6.192c0-.3947-.0533-.7787-.16-1.152-.096-.3733-.2613-.704-.496-.992-.224-.2987-.5227-.5387-.896-.72s-.8267-.272-1.36-.272zm10.5262 13.424v-16.592h2.944c.2454 0 .448.02133.608.064.1707.04267.3094.112.416.208.1174.08533.2027.20267.256.352.064.14933.1174.33067.16.544l.272 1.552c.608-.9387 1.2907-1.68 2.048-2.224.7574-.544 1.584-.816 2.48-.816.7574 0 1.3654.18133 1.824.544l-.64 3.648c-.0426.224-.128.384-.256.48-.128.0853-.2986.128-.512.128-.1813 0-.3946-.0213-.64-.064-.2453-.0533-.5546-.08-.928-.08-1.3013 0-2.3253.6933-3.072 2.08v10.176zm24.6823 0c-.4693 0-.8267-.064-1.072-.192-.2347-.128-.432-.3947-.592-.8l-.352-.912c-.416.352-.816.6613-1.2.928s-.784.496-1.2.688c-.4053.1813-.8427.3147-1.312.4-.4587.096-.9707.144-1.536.144-.7573 0-1.4453-.096-2.064-.288-.6187-.2027-1.1467-.496-1.584-.88-.4267-.384-.7573-.8587-.992-1.424-.2347-.576-.352-1.2373-.352-1.984 0-.5867.1493-1.1893.448-1.808s.816-1.1787 1.552-1.68c.736-.512 1.728-.9387 2.976-1.28s2.8213-.5333 4.72-.576v-.704c0-.9707-.2027-1.6693-.608-2.096-.3947-.4373-.96-.656-1.696-.656-.5867 0-1.0667.064-1.44.192s-.7093.272-1.008.432c-.288.16-.5707.304-.848.432s-.608.192-.992.192c-.3413 0-.6347-.08-.88-.24-.2347-.1707-.4213-.3787-.56-.624l-.896-1.552c1.0027-.88533 2.112-1.54133 3.328-1.968 1.2267-.43733 2.5387-.656 3.936-.656 1.0027 0 1.904.16533 2.704.496.8107.32 1.4933.77333 2.048 1.36.5653.576.9973 1.264 1.296 2.064s.448 1.6747.448 2.624v10.368zm-5.696-3.024c.64 0 1.2-.112 1.68-.336s.9653-.5867 1.456-1.088v-2.304c-.992.0427-1.808.128-2.448.256s-1.1467.288-1.52.48-.6347.4107-.784.656c-.1387.2453-.208.512-.208.8 0 .5653.1547.9653.464 1.2.3093.224.7627.336 1.36.336zm11.81 3.024v-23.952h4.96v9.12c.6187-.608 1.3173-1.09333 2.096-1.456.7893-.37333 1.712-.56 2.768-.56.864 0 1.6635.18667 2.3995.56s1.371.92267 1.904 1.648c.534.7147.95 1.5947 1.248 2.64.31 1.0453.464 2.2347.464 3.568 0 1.248-.176 2.4-.528 3.456-.341 1.056-.826 1.9733-1.456 2.752-.618.7787-1.365 1.3867-2.24 1.824-.8635.4373-1.8235.656-2.8795.656-.4907 0-.9333-.048-1.328-.144-.384-.096-.7413-.2293-1.072-.4-.32-.1813-.6187-.3947-.896-.64-.2667-.2453-.528-.512-.784-.8l-.176.832c-.0747.3413-.2133.576-.416.704-.192.128-.448.192-.768.192zm8.096-13.12c-.3627 0-.6933.0373-.992.112-.288.064-.56.16-.816.288-.2453.128-.4747.2933-.688.496-.2133.192-.4267.416-.64.672v7.04c.3733.416.7787.7093 1.216.88.4373.16.896.24 1.376.24.4587 0 .88-.0907 1.264-.272s.7147-.4693.992-.864c.288-.4053.512-.928.672-1.568s.24-1.4187.24-2.336c0-.8747-.064-1.6107-.192-2.208s-.3093-1.0773-.544-1.44c-.224-.3733-.496-.64-.816-.8s-.6773-.24-1.072-.24zm15.9065-3.472v16.592h-4.96v-16.592zm.576-4.544c0 .39467-.08.768-.24 1.12-.16.34133-.379.64533-.656.912-.277.256-.603.464-.976.624-.363.14933-.752.224-1.168.224-.405 0-.784-.07467-1.136-.224-.352-.16-.667-.368-.944-.624-.267-.26667-.48-.57067-.64-.912-.149-.352-.224-.72533-.224-1.12 0-.40533.075-.784.224-1.136.16-.352.373-.66133.64-.928.277-.26667.592-.47467.944-.624s.731-.224 1.136-.224c.416 0 .805.07467 1.168.224.373.14933.699.35733.976.624s.496.576.656.928.24.73067.24 1.136zm2.789 18.624c0-.384.069-.7413.208-1.072.149-.3307.347-.6187.592-.864.256-.2453.555-.4373.896-.576.341-.1493.715-.224 1.12-.224.395 0 .763.0747 1.104.224.341.1387.64.3307.896.576s.453.5333.592.864c.149.3307.224.688.224 1.072s-.075.7467-.224 1.088c-.139.3307-.336.6187-.592.864s-.555.4373-.896.576-.709.208-1.104.208c-.405 0-.779-.0693-1.12-.208s-.64-.3307-.896-.576c-.245-.2453-.443-.5333-.592-.864-.139-.3413-.208-.704-.208-1.088zm8.842 2.512v-16.592h3.072c.31 0 .566.06933.768.208.214.13867.363.34667.448.624l.288.96c.32-.29867.651-.576.992-.832.342-.256.704-.46933 1.088-.64.395-.18133.816-.32 1.264-.416.459-.10667.955-.16 1.488-.16.907 0 1.707.16 2.4.48.704.30933 1.296.74667 1.776 1.312.48.5547.843 1.2213 1.088 2 .246.768.368 1.6053.368 2.512v10.544h-4.96v-10.544c0-.8107-.186-1.44-.56-1.888-.373-.4587-.922-.688-1.648-.688-.544 0-1.056.1173-1.536.352s-.938.5493-1.376.944v11.824zm25.987-16.848c1.099 0 2.101.17067 3.008.512.917.34133 1.701.83733 2.352 1.488.661.6507 1.173 1.4507 1.536 2.4.373.9387.56 2.0053.56 3.2 0 .3733-.016.6773-.048.912s-.091.4213-.176.56-.203.2347-.352.288c-.139.0533-.32.08-.544.08h-9.568c.16 1.3867.581 2.3947 1.264 3.024.683.6187 1.563.928 2.64.928.576 0 1.072-.0693 1.488-.208s.784-.2933 1.104-.464c.331-.1707.629-.3253.896-.464.277-.1387.565-.208.864-.208.395 0 .693.144.896.432l1.44 1.776c-.512.5867-1.067 1.0667-1.664 1.44-.587.3627-1.195.6507-1.824.864-.619.2027-1.243.3413-1.872.416-.619.0853-1.211.128-1.776.128-1.163 0-2.256-.1867-3.28-.56-1.013-.384-1.904-.9493-2.672-1.696-.757-.7467-1.36-1.6747-1.808-2.784-.437-1.1093-.656-2.4-.656-3.872 0-1.1093.187-2.16.56-3.152.384-.992.928-1.8613 1.632-2.608.715-.74667 1.573-1.33867 2.576-1.776 1.013-.43733 2.155-.656 3.424-.656zm.096 3.424c-.949 0-1.691.272-2.224.816-.533.5333-.885 1.3067-1.056 2.32h6.192c0-.3947-.053-.7787-.16-1.152-.096-.3733-.261-.704-.496-.992-.224-.2987-.523-.5387-.896-.72s-.827-.272-1.36-.272zm16.35 13.68c-.789 0-1.488-.112-2.096-.336-.597-.2347-1.104-.56-1.52-.976-.405-.4267-.714-.9387-.928-1.536-.213-.5973-.32-1.264-.32-2v-8.576h-1.408c-.256 0-.474-.08-.656-.24-.181-.1707-.272-.416-.272-.736v-1.936l2.64-.512.976-4.048c.128-.512.491-.768 1.088-.768h2.592v4.848h4.032v3.392h-4.032v8.24c0 .384.091.704.272.96.192.2453.464.368.816.368.182 0 .331-.016.448-.048.128-.0427.235-.0853.32-.128.096-.0533.182-.096.256-.128.086-.0427.182-.064.288-.064.15 0 .267.0373.352.112.096.064.192.1707.288.32l1.504 2.352c-.64.48-1.36.8427-2.16 1.088-.8.2347-1.626.352-2.48.352z" fill="#121111"/></svg>