<svg width="244" height="25" viewBox="0 0 244 25" fill="none" xmlns="http://www.w3.org/2000/svg">
<path d="M2.874 1.059C3.06467 1.059 3.225 1.06767 3.355 1.085C3.485 1.10233 3.602 1.137 3.706 1.189C3.81 1.23233 3.90967 1.29733 4.005 1.384C4.10033 1.47067 4.20867 1.58767 4.33 1.735L13.326 13.11C13.2913 12.746 13.2653 12.395 13.248 12.057C13.2307 11.7103 13.222 11.3853 13.222 11.082V1.059H17.096V20H14.808C14.47 20 14.184 19.948 13.95 19.844C13.716 19.74 13.4907 19.5493 13.274 19.272L4.343 7.988C4.369 8.31733 4.39067 8.64233 4.408 8.963C4.42533 9.275 4.434 9.56967 4.434 9.847V20H0.56V1.059H2.874ZM29.7803 20C29.399 20 29.1087 19.948 28.9093 19.844C28.7187 19.74 28.5583 19.5233 28.4283 19.194L28.1423 18.453C27.8043 18.739 27.4793 18.9903 27.1673 19.207C26.8553 19.4237 26.5303 19.61 26.1923 19.766C25.863 19.9133 25.5077 20.0217 25.1263 20.091C24.7537 20.169 24.3377 20.208 23.8783 20.208C23.263 20.208 22.704 20.13 22.2013 19.974C21.6987 19.8093 21.2697 19.571 20.9143 19.259C20.5677 18.947 20.299 18.5613 20.1083 18.102C19.9177 17.634 19.8223 17.0967 19.8223 16.49C19.8223 16.0133 19.9437 15.5237 20.1863 15.021C20.429 14.5183 20.8493 14.0633 21.4473 13.656C22.0453 13.24 22.8513 12.8933 23.8653 12.616C24.8793 12.3387 26.1577 12.1827 27.7003 12.148V11.576C27.7003 10.7873 27.5357 10.2197 27.2063 9.873C26.8857 9.51767 26.4263 9.34 25.8283 9.34C25.3517 9.34 24.9617 9.392 24.6583 9.496C24.355 9.6 24.082 9.717 23.8393 9.847C23.6053 9.977 23.3757 10.094 23.1503 10.198C22.925 10.302 22.6563 10.354 22.3443 10.354C22.067 10.354 21.8287 10.289 21.6293 10.159C21.4387 10.0203 21.287 9.85133 21.1743 9.652L20.4463 8.391C21.261 7.67167 22.1623 7.13867 23.1503 6.792C24.147 6.43667 25.213 6.259 26.3483 6.259C27.163 6.259 27.8953 6.39333 28.5453 6.662C29.204 6.922 29.7587 7.29033 30.2093 7.767C30.6687 8.235 31.0197 8.794 31.2623 9.444C31.505 10.094 31.6263 10.8047 31.6263 11.576V20H29.7803ZM25.1523 17.543C25.6723 17.543 26.1273 17.452 26.5173 17.27C26.9073 17.088 27.3017 16.7933 27.7003 16.386V14.514C26.8943 14.5487 26.2313 14.618 25.7113 14.722C25.1913 14.826 24.7797 14.956 24.4763 15.112C24.173 15.268 23.9607 15.4457 23.8393 15.645C23.7267 15.8443 23.6703 16.061 23.6703 16.295C23.6703 16.7543 23.796 17.0793 24.0473 17.27C24.2987 17.452 24.667 17.543 25.1523 17.543ZM39.506 6.285C40.078 6.285 40.6153 6.34133 41.118 6.454C41.6293 6.56667 42.1016 6.727 42.535 6.935H46.604V8.404C46.604 8.62933 46.539 8.807 46.409 8.937C46.2876 9.067 46.0753 9.16667 45.772 9.236L44.784 9.457C44.9053 9.847 44.966 10.25 44.966 10.666C44.966 11.342 44.823 11.9487 44.537 12.486C44.2596 13.0233 43.874 13.4827 43.38 13.864C42.8946 14.2367 42.3183 14.527 41.651 14.735C40.9836 14.9343 40.2686 15.034 39.506 15.034C39.0813 15.034 38.6826 15.008 38.31 14.956C38.0153 15.1293 37.868 15.3287 37.868 15.554C37.868 15.7793 37.985 15.944 38.219 16.048C38.4616 16.1433 38.778 16.2127 39.168 16.256C39.558 16.2907 40.0043 16.3167 40.507 16.334C41.0096 16.3427 41.521 16.373 42.041 16.425C42.561 16.4683 43.0723 16.5463 43.575 16.659C44.0776 16.7717 44.524 16.9537 44.914 17.205C45.304 17.4563 45.616 17.7943 45.85 18.219C46.0926 18.635 46.214 19.168 46.214 19.818C46.214 20.4247 46.0666 21.0183 45.772 21.599C45.4773 22.1797 45.044 22.6953 44.472 23.146C43.9 23.5967 43.198 23.9563 42.366 24.225C41.534 24.5023 40.5806 24.641 39.506 24.641C38.4486 24.641 37.5343 24.5413 36.763 24.342C36.0003 24.1427 35.3633 23.8783 34.852 23.549C34.3493 23.2283 33.9766 22.8557 33.734 22.431C33.4913 22.0063 33.37 21.5643 33.37 21.105C33.37 20.507 33.552 20.0043 33.916 19.597C34.28 19.181 34.7783 18.856 35.411 18.622C35.1076 18.4227 34.865 18.167 34.683 17.855C34.501 17.543 34.41 17.1487 34.41 16.672C34.41 16.4727 34.4446 16.2647 34.514 16.048C34.5833 15.8227 34.6916 15.606 34.839 15.398C34.9863 15.19 35.1726 14.9907 35.398 14.8C35.6233 14.6093 35.892 14.4403 36.204 14.293C35.502 13.9203 34.9473 13.4263 34.54 12.811C34.1413 12.1957 33.942 11.4807 33.942 10.666C33.942 9.99 34.085 9.38333 34.371 8.846C34.657 8.3 35.047 7.84067 35.541 7.468C36.0436 7.08667 36.633 6.79633 37.309 6.597C37.985 6.389 38.7173 6.285 39.506 6.285ZM42.496 20.494C42.496 20.2773 42.4266 20.104 42.288 19.974C42.158 19.844 41.976 19.74 41.742 19.662C41.5166 19.584 41.248 19.5277 40.936 19.493C40.6326 19.4583 40.3033 19.4323 39.948 19.415C39.5926 19.3977 39.2243 19.3847 38.843 19.376C38.4616 19.3587 38.0846 19.3283 37.712 19.285C37.4606 19.4583 37.2526 19.6533 37.088 19.87C36.932 20.078 36.854 20.3163 36.854 20.585C36.854 20.7757 36.893 20.949 36.971 21.105C37.0576 21.261 37.205 21.3953 37.413 21.508C37.621 21.6207 37.8983 21.7073 38.245 21.768C38.6003 21.8373 39.0466 21.872 39.584 21.872C40.1646 21.872 40.6413 21.8373 41.014 21.768C41.3866 21.6987 41.6813 21.6033 41.898 21.482C42.1233 21.3607 42.2793 21.2133 42.366 21.04C42.4526 20.8753 42.496 20.6933 42.496 20.494ZM39.506 12.551C40.1733 12.551 40.6543 12.3863 40.949 12.057C41.2523 11.719 41.404 11.2857 41.404 10.757C41.404 10.211 41.2523 9.782 40.949 9.47C40.6543 9.158 40.1733 9.002 39.506 9.002C38.8386 9.002 38.3533 9.158 38.05 9.47C37.7553 9.782 37.608 10.211 37.608 10.757C37.608 11.017 37.6426 11.2553 37.712 11.472C37.79 11.6887 37.907 11.8793 38.063 12.044C38.219 12.2 38.414 12.3257 38.648 12.421C38.8906 12.5077 39.1766 12.551 39.506 12.551ZM57.9253 20C57.544 20 57.2537 19.948 57.0543 19.844C56.8637 19.74 56.7033 19.5233 56.5733 19.194L56.2873 18.453C55.9493 18.739 55.6243 18.9903 55.3123 19.207C55.0003 19.4237 54.6753 19.61 54.3373 19.766C54.008 19.9133 53.6527 20.0217 53.2713 20.091C52.8987 20.169 52.4827 20.208 52.0233 20.208C51.408 20.208 50.849 20.13 50.3463 19.974C49.8437 19.8093 49.4147 19.571 49.0593 19.259C48.7127 18.947 48.444 18.5613 48.2533 18.102C48.0627 17.634 47.9673 17.0967 47.9673 16.49C47.9673 16.0133 48.0887 15.5237 48.3313 15.021C48.574 14.5183 48.9943 14.0633 49.5923 13.656C50.1903 13.24 50.9963 12.8933 52.0103 12.616C53.0243 12.3387 54.3027 12.1827 55.8453 12.148V11.576C55.8453 10.7873 55.6807 10.2197 55.3513 9.873C55.0307 9.51767 54.5713 9.34 53.9733 9.34C53.4967 9.34 53.1067 9.392 52.8033 9.496C52.5 9.6 52.227 9.717 51.9843 9.847C51.7503 9.977 51.5207 10.094 51.2953 10.198C51.07 10.302 50.8013 10.354 50.4893 10.354C50.212 10.354 49.9737 10.289 49.7743 10.159C49.5837 10.0203 49.432 9.85133 49.3193 9.652L48.5913 8.391C49.406 7.67167 50.3073 7.13867 51.2953 6.792C52.292 6.43667 53.358 6.259 54.4933 6.259C55.308 6.259 56.0403 6.39333 56.6903 6.662C57.349 6.922 57.9037 7.29033 58.3543 7.767C58.8137 8.235 59.1647 8.794 59.4073 9.444C59.65 10.094 59.7713 10.8047 59.7713 11.576V20H57.9253ZM53.2973 17.543C53.8173 17.543 54.2723 17.452 54.6623 17.27C55.0523 17.088 55.4467 16.7933 55.8453 16.386V14.514C55.0393 14.5487 54.3763 14.618 53.8563 14.722C53.3363 14.826 52.9247 14.956 52.6213 15.112C52.318 15.268 52.1057 15.4457 51.9843 15.645C51.8717 15.8443 51.8153 16.061 51.8153 16.295C51.8153 16.7543 51.941 17.0793 52.1923 17.27C52.4437 17.452 52.812 17.543 53.2973 17.543ZM68.899 6.311C69.9216 6.311 70.8533 6.47133 71.694 6.792C72.5346 7.11267 73.254 7.572 73.852 8.17C74.4586 8.768 74.9266 9.496 75.256 10.354C75.594 11.2033 75.763 12.161 75.763 13.227C75.763 14.3017 75.594 15.2723 75.256 16.139C74.9266 16.997 74.4586 17.7293 73.852 18.336C73.254 18.934 72.5346 19.3977 71.694 19.727C70.8533 20.0477 69.9216 20.208 68.899 20.208C67.8676 20.208 66.9273 20.0477 66.078 19.727C65.2373 19.3977 64.5093 18.934 63.894 18.336C63.2873 17.7293 62.815 16.997 62.477 16.139C62.1476 15.2723 61.983 14.3017 61.983 13.227C61.983 12.161 62.1476 11.2033 62.477 10.354C62.815 9.496 63.2873 8.768 63.894 8.17C64.5093 7.572 65.2373 7.11267 66.078 6.792C66.9273 6.47133 67.8676 6.311 68.899 6.311ZM68.899 17.218C69.8263 17.218 70.5066 16.893 70.94 16.243C71.382 15.5843 71.603 14.5877 71.603 13.253C71.603 11.9183 71.382 10.926 70.94 10.276C70.5066 9.626 69.8263 9.301 68.899 9.301C67.9456 9.301 67.248 9.626 66.806 10.276C66.364 10.926 66.143 11.9183 66.143 13.253C66.143 14.5877 66.364 15.5843 66.806 16.243C67.248 16.893 67.9456 17.218 68.899 17.218ZM82.265 0.538999V11.446H82.863C83.1143 11.446 83.305 11.4113 83.435 11.342C83.5737 11.2727 83.7037 11.147 83.825 10.965L86.373 7.169C86.5203 6.94367 86.6937 6.779 86.893 6.675C87.101 6.571 87.361 6.519 87.673 6.519H91.365L87.881 11.316C87.7163 11.5413 87.5343 11.7407 87.335 11.914C87.1443 12.0873 86.9363 12.2433 86.711 12.382C87.101 12.6767 87.439 13.0667 87.725 13.552L91.521 20H87.881C87.5777 20 87.3133 19.9523 87.088 19.857C86.8713 19.753 86.6937 19.5753 86.555 19.324L84.007 14.553C83.8857 14.3363 83.76 14.1977 83.63 14.137C83.5 14.0677 83.305 14.033 83.045 14.033H82.265V20H78.235V0.538999H82.265ZM102.783 20C102.402 20 102.112 19.948 101.912 19.844C101.722 19.74 101.561 19.5233 101.431 19.194L101.145 18.453C100.807 18.739 100.482 18.9903 100.17 19.207C99.8585 19.4237 99.5335 19.61 99.1955 19.766C98.8661 19.9133 98.5108 20.0217 98.1295 20.091C97.7568 20.169 97.3408 20.208 96.8815 20.208C96.2661 20.208 95.7071 20.13 95.2045 19.974C94.7018 19.8093 94.2728 19.571 93.9175 19.259C93.5708 18.947 93.3021 18.5613 93.1115 18.102C92.9208 17.634 92.8255 17.0967 92.8255 16.49C92.8255 16.0133 92.9468 15.5237 93.1895 15.021C93.4321 14.5183 93.8525 14.0633 94.4505 13.656C95.0485 13.24 95.8545 12.8933 96.8685 12.616C97.8825 12.3387 99.1608 12.1827 100.703 12.148V11.576C100.703 10.7873 100.539 10.2197 100.209 9.873C99.8888 9.51767 99.4295 9.34 98.8315 9.34C98.3548 9.34 97.9648 9.392 97.6615 9.496C97.3581 9.6 97.0851 9.717 96.8425 9.847C96.6085 9.977 96.3788 10.094 96.1535 10.198C95.9281 10.302 95.6595 10.354 95.3475 10.354C95.0701 10.354 94.8318 10.289 94.6325 10.159C94.4418 10.0203 94.2901 9.85133 94.1775 9.652L93.4495 8.391C94.2641 7.67167 95.1655 7.13867 96.1535 6.792C97.1501 6.43667 98.2161 6.259 99.3515 6.259C100.166 6.259 100.898 6.39333 101.548 6.662C102.207 6.922 102.762 7.29033 103.212 7.767C103.672 8.235 104.023 8.794 104.265 9.444C104.508 10.094 104.629 10.8047 104.629 11.576V20H102.783ZM98.1555 17.543C98.6755 17.543 99.1305 17.452 99.5205 17.27C99.9105 17.088 100.305 16.7933 100.703 16.386V14.514C99.8975 14.5487 99.2345 14.618 98.7145 14.722C98.1945 14.826 97.7828 14.956 97.4795 15.112C97.1761 15.268 96.9638 15.4457 96.8425 15.645C96.7298 15.8443 96.6735 16.061 96.6735 16.295C96.6735 16.7543 96.7991 17.0793 97.0505 17.27C97.3018 17.452 97.6701 17.543 98.1555 17.543ZM117.432 8.729H118.134C118.784 8.729 119.252 8.52533 119.538 8.118L123.802 1.93C124.036 1.592 124.301 1.36233 124.595 1.241C124.899 1.11967 125.267 1.059 125.7 1.059H129.522L123.906 8.716C123.707 8.99333 123.499 9.223 123.282 9.405C123.066 9.587 122.845 9.73867 122.619 9.86C122.949 9.98133 123.248 10.1503 123.516 10.367C123.794 10.575 124.045 10.8567 124.27 11.212L129.99 20H126.064C125.813 20 125.596 19.9827 125.414 19.948C125.241 19.9133 125.089 19.8613 124.959 19.792C124.829 19.7227 124.717 19.6403 124.621 19.545C124.526 19.441 124.435 19.324 124.348 19.194L120.058 12.603C119.902 12.3603 119.703 12.1913 119.46 12.096C119.226 11.992 118.906 11.94 118.498 11.94H117.432V20H113.038V1.059H117.432V8.729ZM137.205 6.311C138.227 6.311 139.159 6.47133 140 6.792C140.84 7.11267 141.56 7.572 142.158 8.17C142.764 8.768 143.232 9.496 143.562 10.354C143.9 11.2033 144.069 12.161 144.069 13.227C144.069 14.3017 143.9 15.2723 143.562 16.139C143.232 16.997 142.764 17.7293 142.158 18.336C141.56 18.934 140.84 19.3977 140 19.727C139.159 20.0477 138.227 20.208 137.205 20.208C136.173 20.208 135.233 20.0477 134.384 19.727C133.543 19.3977 132.815 18.934 132.2 18.336C131.593 17.7293 131.121 16.997 130.783 16.139C130.453 15.2723 130.289 14.3017 130.289 13.227C130.289 12.161 130.453 11.2033 130.783 10.354C131.121 9.496 131.593 8.768 132.2 8.17C132.815 7.572 133.543 7.11267 134.384 6.792C135.233 6.47133 136.173 6.311 137.205 6.311ZM137.205 17.218C138.132 17.218 138.812 16.893 139.246 16.243C139.688 15.5843 139.909 14.5877 139.909 13.253C139.909 11.9183 139.688 10.926 139.246 10.276C138.812 9.626 138.132 9.301 137.205 9.301C136.251 9.301 135.554 9.626 135.112 10.276C134.67 10.926 134.449 11.9183 134.449 13.253C134.449 14.5877 134.67 15.5843 135.112 16.243C135.554 16.893 136.251 17.218 137.205 17.218ZM154.783 9.47C154.679 9.63467 154.566 9.75167 154.445 9.821C154.332 9.89033 154.185 9.925 154.003 9.925C153.812 9.925 153.622 9.886 153.431 9.808C153.24 9.72133 153.032 9.63033 152.807 9.535C152.59 9.43967 152.343 9.353 152.066 9.275C151.789 9.18833 151.472 9.145 151.117 9.145C150.606 9.145 150.211 9.24467 149.934 9.444C149.665 9.63467 149.531 9.90333 149.531 10.25C149.531 10.5013 149.618 10.7093 149.791 10.874C149.973 11.0387 150.211 11.186 150.506 11.316C150.801 11.4373 151.134 11.5543 151.507 11.667C151.88 11.7797 152.261 11.9053 152.651 12.044C153.041 12.1827 153.422 12.3473 153.795 12.538C154.168 12.72 154.501 12.9497 154.796 13.227C155.091 13.4957 155.325 13.825 155.498 14.215C155.68 14.605 155.771 15.073 155.771 15.619C155.771 16.2863 155.65 16.9017 155.407 17.465C155.164 18.0283 154.8 18.5137 154.315 18.921C153.838 19.3283 153.245 19.6447 152.534 19.87C151.832 20.0953 151.022 20.208 150.103 20.208C149.644 20.208 149.184 20.1647 148.725 20.078C148.266 19.9913 147.819 19.8743 147.386 19.727C146.961 19.5797 146.567 19.4063 146.203 19.207C145.839 18.999 145.527 18.778 145.267 18.544L146.203 17.062C146.316 16.8887 146.45 16.7543 146.606 16.659C146.762 16.555 146.966 16.503 147.217 16.503C147.451 16.503 147.659 16.555 147.841 16.659C148.032 16.763 148.235 16.8757 148.452 16.997C148.669 17.1183 148.92 17.231 149.206 17.335C149.501 17.439 149.869 17.491 150.311 17.491C150.623 17.491 150.887 17.4607 151.104 17.4C151.321 17.3307 151.494 17.2397 151.624 17.127C151.754 17.0143 151.849 16.8887 151.91 16.75C151.971 16.6113 152.001 16.4683 152.001 16.321C152.001 16.0523 151.91 15.8313 151.728 15.658C151.546 15.4847 151.308 15.3373 151.013 15.216C150.718 15.086 150.38 14.969 149.999 14.865C149.626 14.7523 149.245 14.6267 148.855 14.488C148.465 14.3493 148.079 14.1847 147.698 13.994C147.325 13.7947 146.992 13.5477 146.697 13.253C146.402 12.9497 146.164 12.5813 145.982 12.148C145.8 11.7147 145.709 11.1903 145.709 10.575C145.709 10.003 145.817 9.46133 146.034 8.95C146.259 8.43 146.593 7.975 147.035 7.585C147.477 7.195 148.032 6.88733 148.699 6.662C149.366 6.428 150.146 6.311 151.039 6.311C151.524 6.311 151.992 6.35433 152.443 6.441C152.902 6.52767 153.331 6.649 153.73 6.805C154.129 6.961 154.493 7.14733 154.822 7.364C155.151 7.572 155.442 7.80167 155.693 8.053L154.783 9.47ZM167.56 20C167.179 20 166.888 19.948 166.689 19.844C166.498 19.74 166.338 19.5233 166.208 19.194L165.922 18.453C165.584 18.739 165.259 18.9903 164.947 19.207C164.635 19.4237 164.31 19.61 163.972 19.766C163.643 19.9133 163.287 20.0217 162.906 20.091C162.533 20.169 162.117 20.208 161.658 20.208C161.043 20.208 160.484 20.13 159.981 19.974C159.478 19.8093 159.049 19.571 158.694 19.259C158.347 18.947 158.079 18.5613 157.888 18.102C157.697 17.634 157.602 17.0967 157.602 16.49C157.602 16.0133 157.723 15.5237 157.966 15.021C158.209 14.5183 158.629 14.0633 159.227 13.656C159.825 13.24 160.631 12.8933 161.645 12.616C162.659 12.3387 163.937 12.1827 165.48 12.148V11.576C165.48 10.7873 165.315 10.2197 164.986 9.873C164.665 9.51767 164.206 9.34 163.608 9.34C163.131 9.34 162.741 9.392 162.438 9.496C162.135 9.6 161.862 9.717 161.619 9.847C161.385 9.977 161.155 10.094 160.93 10.198C160.705 10.302 160.436 10.354 160.124 10.354C159.847 10.354 159.608 10.289 159.409 10.159C159.218 10.0203 159.067 9.85133 158.954 9.652L158.226 8.391C159.041 7.67167 159.942 7.13867 160.93 6.792C161.927 6.43667 162.993 6.259 164.128 6.259C164.943 6.259 165.675 6.39333 166.325 6.662C166.984 6.922 167.538 7.29033 167.989 7.767C168.448 8.235 168.799 8.794 169.042 9.444C169.285 10.094 169.406 10.8047 169.406 11.576V20H167.56ZM162.932 17.543C163.452 17.543 163.907 17.452 164.297 17.27C164.687 17.088 165.081 16.7933 165.48 16.386V14.514C164.674 14.5487 164.011 14.618 163.491 14.722C162.971 14.826 162.559 14.956 162.256 15.112C161.953 15.268 161.74 15.4457 161.619 15.645C161.506 15.8443 161.45 16.061 161.45 16.295C161.45 16.7543 161.576 17.0793 161.827 17.27C162.078 17.452 162.447 17.543 162.932 17.543ZM176.558 0.538999V11.446H177.156C177.407 11.446 177.598 11.4113 177.728 11.342C177.866 11.2727 177.996 11.147 178.118 10.965L180.666 7.169C180.813 6.94367 180.986 6.779 181.186 6.675C181.394 6.571 181.654 6.519 181.966 6.519H185.658L182.174 11.316C182.009 11.5413 181.827 11.7407 181.628 11.914C181.437 12.0873 181.229 12.2433 181.004 12.382C181.394 12.6767 181.732 13.0667 182.018 13.552L185.814 20H182.174C181.87 20 181.606 19.9523 181.381 19.857C181.164 19.753 180.986 19.5753 180.848 19.324L178.3 14.553C178.178 14.3363 178.053 14.1977 177.923 14.137C177.793 14.0677 177.598 14.033 177.338 14.033H176.558V20H172.528V0.538999H176.558ZM191.538 6.519V15.073C191.538 15.7403 191.69 16.256 191.993 16.62C192.296 16.984 192.743 17.166 193.332 17.166C193.774 17.166 194.186 17.075 194.567 16.893C194.957 16.711 195.334 16.4553 195.698 16.126V6.519H199.728V20H197.232C196.729 20 196.4 19.7747 196.244 19.324L195.997 18.544C195.737 18.7953 195.468 19.025 195.191 19.233C194.914 19.4323 194.615 19.6057 194.294 19.753C193.982 19.8917 193.644 20 193.28 20.078C192.916 20.1647 192.517 20.208 192.084 20.208C191.347 20.208 190.693 20.0823 190.121 19.831C189.558 19.571 189.081 19.2113 188.691 18.752C188.301 18.2927 188.006 17.751 187.807 17.127C187.608 16.503 187.508 15.8183 187.508 15.073V6.519H191.538ZM211.352 9.47C211.248 9.63467 211.135 9.75167 211.014 9.821C210.901 9.89033 210.754 9.925 210.572 9.925C210.381 9.925 210.191 9.886 210 9.808C209.809 9.72133 209.601 9.63033 209.376 9.535C209.159 9.43967 208.912 9.353 208.635 9.275C208.358 9.18833 208.041 9.145 207.686 9.145C207.175 9.145 206.78 9.24467 206.503 9.444C206.234 9.63467 206.1 9.90333 206.1 10.25C206.1 10.5013 206.187 10.7093 206.36 10.874C206.542 11.0387 206.78 11.186 207.075 11.316C207.37 11.4373 207.703 11.5543 208.076 11.667C208.449 11.7797 208.83 11.9053 209.22 12.044C209.61 12.1827 209.991 12.3473 210.364 12.538C210.737 12.72 211.07 12.9497 211.365 13.227C211.66 13.4957 211.894 13.825 212.067 14.215C212.249 14.605 212.34 15.073 212.34 15.619C212.34 16.2863 212.219 16.9017 211.976 17.465C211.733 18.0283 211.369 18.5137 210.884 18.921C210.407 19.3283 209.814 19.6447 209.103 19.87C208.401 20.0953 207.591 20.208 206.672 20.208C206.213 20.208 205.753 20.1647 205.294 20.078C204.835 19.9913 204.388 19.8743 203.955 19.727C203.53 19.5797 203.136 19.4063 202.772 19.207C202.408 18.999 202.096 18.778 201.836 18.544L202.772 17.062C202.885 16.8887 203.019 16.7543 203.175 16.659C203.331 16.555 203.535 16.503 203.786 16.503C204.02 16.503 204.228 16.555 204.41 16.659C204.601 16.763 204.804 16.8757 205.021 16.997C205.238 17.1183 205.489 17.231 205.775 17.335C206.07 17.439 206.438 17.491 206.88 17.491C207.192 17.491 207.456 17.4607 207.673 17.4C207.89 17.3307 208.063 17.2397 208.193 17.127C208.323 17.0143 208.418 16.8887 208.479 16.75C208.54 16.6113 208.57 16.4683 208.57 16.321C208.57 16.0523 208.479 15.8313 208.297 15.658C208.115 15.4847 207.877 15.3373 207.582 15.216C207.287 15.086 206.949 14.969 206.568 14.865C206.195 14.7523 205.814 14.6267 205.424 14.488C205.034 14.3493 204.648 14.1847 204.267 13.994C203.894 13.7947 203.561 13.5477 203.266 13.253C202.971 12.9497 202.733 12.5813 202.551 12.148C202.369 11.7147 202.278 11.1903 202.278 10.575C202.278 10.003 202.386 9.46133 202.603 8.95C202.828 8.43 203.162 7.975 203.604 7.585C204.046 7.195 204.601 6.88733 205.268 6.662C205.935 6.428 206.715 6.311 207.608 6.311C208.093 6.311 208.561 6.35433 209.012 6.441C209.471 6.52767 209.9 6.649 210.299 6.805C210.698 6.961 211.062 7.14733 211.391 7.364C211.72 7.572 212.011 7.80167 212.262 8.053L211.352 9.47ZM214.821 20V0.538999H218.851V7.702C219.337 7.286 219.861 6.95233 220.424 6.701C220.996 6.441 221.677 6.311 222.465 6.311C223.202 6.311 223.852 6.441 224.415 6.701C224.987 6.95233 225.468 7.30767 225.858 7.767C226.248 8.21767 226.543 8.75933 226.742 9.392C226.942 10.016 227.041 10.6963 227.041 11.433V20H223.011V11.433C223.011 10.7743 222.86 10.263 222.556 9.899C222.253 9.52633 221.807 9.34 221.217 9.34C220.775 9.34 220.359 9.43533 219.969 9.626C219.579 9.81667 219.207 10.0723 218.851 10.393V20H214.821ZM236.169 6.311C237.192 6.311 238.124 6.47133 238.964 6.792C239.805 7.11267 240.524 7.572 241.122 8.17C241.729 8.768 242.197 9.496 242.526 10.354C242.864 11.2033 243.033 12.161 243.033 13.227C243.033 14.3017 242.864 15.2723 242.526 16.139C242.197 16.997 241.729 17.7293 241.122 18.336C240.524 18.934 239.805 19.3977 238.964 19.727C238.124 20.0477 237.192 20.208 236.169 20.208C235.138 20.208 234.198 20.0477 233.348 19.727C232.508 19.3977 231.78 18.934 231.164 18.336C230.558 17.7293 230.085 16.997 229.747 16.139C229.418 15.2723 229.253 14.3017 229.253 13.227C229.253 12.161 229.418 11.2033 229.747 10.354C230.085 9.496 230.558 8.768 231.164 8.17C231.78 7.572 232.508 7.11267 233.348 6.792C234.198 6.47133 235.138 6.311 236.169 6.311ZM236.169 17.218C237.097 17.218 237.777 16.893 238.21 16.243C238.652 15.5843 238.873 14.5877 238.873 13.253C238.873 11.9183 238.652 10.926 238.21 10.276C237.777 9.626 237.097 9.301 236.169 9.301C235.216 9.301 234.518 9.626 234.076 10.276C233.634 10.926 233.413 11.9183 233.413 13.253C233.413 14.5877 233.634 15.5843 234.076 16.243C234.518 16.893 235.216 17.218 236.169 17.218Z" fill="#121111"/>
</svg>
