<svg fill="none" height="25" viewBox="0 0 61 25" width="61" xmlns="http://www.w3.org/2000/svg"><path d="m6.328 16.208v7.792h-5.408v-23.312h8.224c1.6427 0 3.0507.197333 4.224.592 1.184.384 2.1547.91733 2.912 1.6.768.68267 1.3333 1.488 1.696 2.416s.544 1.93067.544 3.008c0 1.16267-.1867 2.2293-.56 3.2s-.944 1.8027-1.712 2.496-1.744 1.2373-2.928 1.632c-1.1733.384-2.5653.576-4.176.576zm0-4.08h2.816c1.408 0 2.4213-.336 3.04-1.008s.928-1.61067.928-2.816c0-.53333-.08-1.01867-.24-1.456s-.4053-.81067-.736-1.12c-.32-.32-.7307-.56533-1.232-.736-.4907-.17067-1.07733-.256-1.76-.256h-2.816zm30.9823 5.84c.128 0 .256.0267.384.08.128.0427.2506.1227.368.24l2.144 2.256c-.9387 1.2267-2.1174 2.1547-3.5361 2.784-1.4079.6187-3.0773.928-5.0079.928-1.7707 0-3.36-.2987-4.7681-.896-1.3973-.608-2.5866-1.44-3.568-2.496-.9706-1.0667-1.7173-2.3253-2.24-3.776-.5226-1.4613-.784-3.0453-.784-4.752 0-1.7387.2987-3.33333.896-4.784.5974-1.46133 1.4294-2.72 2.496-3.776 1.0774-1.056 2.3627-1.87733 3.8561-2.464 1.4933-.586668 3.1413-.880001 4.944-.880001.8746 0 1.696.08 2.464.24.7786.149333 1.504.362661 2.176.640001.672.26667 1.2906.592 1.856.976.5653.37333 1.0666.78933 1.504 1.248l-1.8241 2.448c-.1173.14933-.2559.288-.4159.416-.16.11733-.384.176-.672.176-.192 0-.3734-.04267-.5441-.128-.1706-.08533-.3519-.18667-.5439-.304-.192-.128-.4054-.26133-.6401-.4-.2239-.14933-.4959-.28267-.816-.4-.3093-.128-.6773-.23467-1.1039-.32-.416-.08533-.9067-.128-1.472-.128-.9814 0-1.8774.176-2.688.528-.8107.34133-1.5094.83733-2.0961 1.488-.576.64-1.0293 1.41867-1.3599 2.336-.32.9173-.48 1.9467-.48 3.088 0 1.1947.16 2.256.48 3.184.3306.928.7733 1.712 1.328 2.352.5653.6293 1.2213 1.1093 1.968 1.44.7466.3307 1.5466.496 2.3999.496.4907 0 .9387-.0213 1.3441-.064.4053-.0533.7786-.1387 1.12-.256.352-.1173.6826-.2667.992-.448.32-.192.64-.4267.96-.704.1279-.1067.2666-.192.416-.256.1493-.0747.304-.112.464-.112zm11.0952-1.76v7.792h-5.408v-23.312h8.224c1.6427 0 3.0507.197333 4.224.592 1.184.384 2.1547.91733 2.912 1.6.768.68267 1.3333 1.488 1.696 2.416s.544 1.93067.544 3.008c0 1.16267-.1867 2.2293-.56 3.2s-.944 1.8027-1.712 2.496-1.744 1.2373-2.928 1.632c-1.1733.384-2.5653.576-4.176.576zm0-4.08h2.816c1.408 0 2.4213-.336 3.04-1.008s.928-1.61067.928-2.816c0-.53333-.08-1.01867-.24-1.456s-.4053-.81067-.736-1.12c-.32-.32-.7307-.56533-1.232-.736-.4907-.17067-1.0773-.256-1.76-.256h-2.816z" fill="#121111"/></svg>