<svg width="300" height="30" viewBox="0 0 300 30" fill="none" xmlns="http://www.w3.org/2000/svg">
<path d="M3.768 0.688C4.00267 0.688 4.2 0.698666 4.36 0.719999C4.52 0.741332 4.664 0.783999 4.792 0.848C4.92 0.901333 5.04267 0.981333 5.16 1.088C5.27733 1.19467 5.41067 1.33867 5.56 1.52L16.632 15.52C16.5893 15.072 16.5573 14.64 16.536 14.224C16.5147 13.7973 16.504 13.3973 16.504 13.024V0.688H21.272V24H18.456C18.04 24 17.688 23.936 17.4 23.808C17.112 23.68 16.8347 23.4453 16.568 23.104L5.576 9.216C5.608 9.62133 5.63467 10.0213 5.656 10.416C5.67733 10.8 5.688 11.1627 5.688 11.504V24H0.92V0.688H3.768ZM36.8835 24C36.4142 24 36.0568 23.936 35.8115 23.808C35.5768 23.68 35.3795 23.4133 35.2195 23.008L34.8675 22.096C34.4515 22.448 34.0515 22.7573 33.6675 23.024C33.2835 23.2907 32.8835 23.52 32.4675 23.712C32.0622 23.8933 31.6248 24.0267 31.1555 24.112C30.6968 24.208 30.1848 24.256 29.6195 24.256C28.8622 24.256 28.1742 24.16 27.5555 23.968C26.9368 23.7653 26.4088 23.472 25.9715 23.088C25.5448 22.704 25.2142 22.2293 24.9795 21.664C24.7448 21.088 24.6275 20.4267 24.6275 19.68C24.6275 19.0933 24.7768 18.4907 25.0755 17.872C25.3742 17.2533 25.8915 16.6933 26.6275 16.192C27.3635 15.68 28.3555 15.2533 29.6035 14.912C30.8515 14.5707 32.4248 14.3787 34.3235 14.336V13.632C34.3235 12.6613 34.1208 11.9627 33.7155 11.536C33.3208 11.0987 32.7555 10.88 32.0195 10.88C31.4328 10.88 30.9528 10.944 30.5795 11.072C30.2062 11.2 29.8702 11.344 29.5715 11.504C29.2835 11.664 29.0008 11.808 28.7235 11.936C28.4462 12.064 28.1155 12.128 27.7315 12.128C27.3902 12.128 27.0968 12.048 26.8515 11.888C26.6168 11.7173 26.4302 11.5093 26.2915 11.264L25.3955 9.712C26.3982 8.82667 27.5075 8.17067 28.7235 7.744C29.9502 7.30667 31.2622 7.088 32.6595 7.088C33.6622 7.088 34.5635 7.25333 35.3635 7.584C36.1742 7.904 36.8568 8.35733 37.4115 8.944C37.9768 9.52 38.4088 10.208 38.7075 11.008C39.0062 11.808 39.1555 12.6827 39.1555 13.632V24H36.8835ZM31.1875 20.976C31.8275 20.976 32.3875 20.864 32.8675 20.64C33.3475 20.416 33.8328 20.0533 34.3235 19.552V17.248C33.3315 17.2907 32.5155 17.376 31.8755 17.504C31.2355 17.632 30.7288 17.792 30.3555 17.984C29.9822 18.176 29.7208 18.3947 29.5715 18.64C29.4328 18.8853 29.3635 19.152 29.3635 19.44C29.3635 20.0053 29.5182 20.4053 29.8275 20.64C30.1368 20.864 30.5902 20.976 31.1875 20.976ZM48.8535 7.12C49.5575 7.12 50.2188 7.18933 50.8375 7.328C51.4668 7.46667 52.0482 7.664 52.5815 7.92H57.5895V9.728C57.5895 10.0053 57.5095 10.224 57.3495 10.384C57.2002 10.544 56.9388 10.6667 56.5655 10.752L55.3495 11.024C55.4988 11.504 55.5735 12 55.5735 12.512C55.5735 13.344 55.3975 14.0907 55.0455 14.752C54.7042 15.4133 54.2295 15.9787 53.6215 16.448C53.0242 16.9067 52.3148 17.264 51.4935 17.52C50.6722 17.7653 49.7922 17.888 48.8535 17.888C48.3308 17.888 47.8402 17.856 47.3815 17.792C47.0188 18.0053 46.8375 18.2507 46.8375 18.528C46.8375 18.8053 46.9815 19.008 47.2695 19.136C47.5682 19.2533 47.9575 19.3387 48.4375 19.392C48.9175 19.4347 49.4668 19.4667 50.0855 19.488C50.7042 19.4987 51.3335 19.536 51.9735 19.6C52.6135 19.6533 53.2428 19.7493 53.8615 19.888C54.4802 20.0267 55.0295 20.2507 55.5095 20.56C55.9895 20.8693 56.3735 21.2853 56.6615 21.808C56.9602 22.32 57.1095 22.976 57.1095 23.776C57.1095 24.5227 56.9282 25.2533 56.5655 25.968C56.2028 26.6827 55.6695 27.3173 54.9655 27.872C54.2615 28.4267 53.3975 28.8693 52.3735 29.2C51.3495 29.5413 50.1762 29.712 48.8535 29.712C47.5522 29.712 46.4268 29.5893 45.4775 29.344C44.5388 29.0987 43.7548 28.7733 43.1255 28.368C42.5068 27.9733 42.0482 27.5147 41.7495 26.992C41.4508 26.4693 41.3015 25.9253 41.3015 25.36C41.3015 24.624 41.5255 24.0053 41.9735 23.504C42.4215 22.992 43.0348 22.592 43.8135 22.304C43.4402 22.0587 43.1415 21.744 42.9175 21.36C42.6935 20.976 42.5815 20.4907 42.5815 19.904C42.5815 19.6587 42.6242 19.4027 42.7095 19.136C42.7948 18.8587 42.9282 18.592 43.1095 18.336C43.2908 18.08 43.5202 17.8347 43.7975 17.6C44.0748 17.3653 44.4055 17.1573 44.7895 16.976C43.9255 16.5173 43.2428 15.9093 42.7415 15.152C42.2508 14.3947 42.0055 13.5147 42.0055 12.512C42.0055 11.68 42.1815 10.9333 42.5335 10.272C42.8855 9.6 43.3655 9.03467 43.9735 8.576C44.5922 8.10667 45.3175 7.74933 46.1495 7.504C46.9815 7.248 47.8828 7.12 48.8535 7.12ZM52.5335 24.608C52.5335 24.3413 52.4482 24.128 52.2775 23.968C52.1175 23.808 51.8935 23.68 51.6055 23.584C51.3282 23.488 50.9975 23.4187 50.6135 23.376C50.2402 23.3333 49.8348 23.3013 49.3975 23.28C48.9602 23.2587 48.5068 23.2427 48.0375 23.232C47.5682 23.2107 47.1042 23.1733 46.6455 23.12C46.3362 23.3333 46.0802 23.5733 45.8775 23.84C45.6855 24.096 45.5895 24.3893 45.5895 24.72C45.5895 24.9547 45.6375 25.168 45.7335 25.36C45.8402 25.552 46.0215 25.7173 46.2775 25.856C46.5335 25.9947 46.8748 26.1013 47.3015 26.176C47.7388 26.2613 48.2882 26.304 48.9495 26.304C49.6642 26.304 50.2508 26.2613 50.7095 26.176C51.1682 26.0907 51.5308 25.9733 51.7975 25.824C52.0748 25.6747 52.2668 25.4933 52.3735 25.28C52.4802 25.0773 52.5335 24.8533 52.5335 24.608ZM48.8535 14.832C49.6748 14.832 50.2668 14.6293 50.6295 14.224C51.0028 13.808 51.1895 13.2747 51.1895 12.624C51.1895 11.952 51.0028 11.424 50.6295 11.04C50.2668 10.656 49.6748 10.464 48.8535 10.464C48.0322 10.464 47.4348 10.656 47.0615 11.04C46.6988 11.424 46.5175 11.952 46.5175 12.624C46.5175 12.944 46.5602 13.2373 46.6455 13.504C46.7415 13.7707 46.8855 14.0053 47.0775 14.208C47.2695 14.4 47.5095 14.5547 47.7975 14.672C48.0962 14.7787 48.4482 14.832 48.8535 14.832ZM71.5235 24C71.0542 24 70.6968 23.936 70.4515 23.808C70.2168 23.68 70.0195 23.4133 69.8595 23.008L69.5075 22.096C69.0915 22.448 68.6915 22.7573 68.3075 23.024C67.9235 23.2907 67.5235 23.52 67.1075 23.712C66.7022 23.8933 66.2648 24.0267 65.7955 24.112C65.3368 24.208 64.8248 24.256 64.2595 24.256C63.5022 24.256 62.8142 24.16 62.1955 23.968C61.5768 23.7653 61.0488 23.472 60.6115 23.088C60.1848 22.704 59.8542 22.2293 59.6195 21.664C59.3848 21.088 59.2675 20.4267 59.2675 19.68C59.2675 19.0933 59.4168 18.4907 59.7155 17.872C60.0142 17.2533 60.5315 16.6933 61.2675 16.192C62.0035 15.68 62.9955 15.2533 64.2435 14.912C65.4915 14.5707 67.0648 14.3787 68.9635 14.336V13.632C68.9635 12.6613 68.7608 11.9627 68.3555 11.536C67.9608 11.0987 67.3955 10.88 66.6595 10.88C66.0728 10.88 65.5928 10.944 65.2195 11.072C64.8462 11.2 64.5102 11.344 64.2115 11.504C63.9235 11.664 63.6408 11.808 63.3635 11.936C63.0862 12.064 62.7555 12.128 62.3715 12.128C62.0302 12.128 61.7368 12.048 61.4915 11.888C61.2568 11.7173 61.0702 11.5093 60.9315 11.264L60.0355 9.712C61.0382 8.82667 62.1475 8.17067 63.3635 7.744C64.5902 7.30667 65.9022 7.088 67.2995 7.088C68.3022 7.088 69.2035 7.25333 70.0035 7.584C70.8142 7.904 71.4968 8.35733 72.0515 8.944C72.6168 9.52 73.0488 10.208 73.3475 11.008C73.6462 11.808 73.7955 12.6827 73.7955 13.632V24H71.5235ZM65.8275 20.976C66.4675 20.976 67.0275 20.864 67.5075 20.64C67.9875 20.416 68.4728 20.0533 68.9635 19.552V17.248C67.9715 17.2907 67.1555 17.376 66.5155 17.504C65.8755 17.632 65.3688 17.792 64.9955 17.984C64.6222 18.176 64.3608 18.3947 64.2115 18.64C64.0728 18.8853 64.0035 19.152 64.0035 19.44C64.0035 20.0053 64.1582 20.4053 64.4675 20.64C64.7768 20.864 65.2302 20.976 65.8275 20.976ZM85.0295 7.152C86.2882 7.152 87.4348 7.34933 88.4695 7.744C89.5042 8.13867 90.3895 8.704 91.1255 9.44C91.8722 10.176 92.4482 11.072 92.8535 12.128C93.2695 13.1733 93.4775 14.352 93.4775 15.664C93.4775 16.9867 93.2695 18.1813 92.8535 19.248C92.4482 20.304 91.8722 21.2053 91.1255 21.952C90.3895 22.688 89.5042 23.2587 88.4695 23.664C87.4348 24.0587 86.2882 24.256 85.0295 24.256C83.7602 24.256 82.6028 24.0587 81.5575 23.664C80.5228 23.2587 79.6268 22.688 78.8695 21.952C78.1228 21.2053 77.5415 20.304 77.1255 19.248C76.7202 18.1813 76.5175 16.9867 76.5175 15.664C76.5175 14.352 76.7202 13.1733 77.1255 12.128C77.5415 11.072 78.1228 10.176 78.8695 9.44C79.6268 8.704 80.5228 8.13867 81.5575 7.744C82.6028 7.34933 83.7602 7.152 85.0295 7.152ZM85.0295 20.576C86.1708 20.576 87.0082 20.176 87.5415 19.376C88.0855 18.5653 88.3575 17.3387 88.3575 15.696C88.3575 14.0533 88.0855 12.832 87.5415 12.032C87.0082 11.232 86.1708 10.832 85.0295 10.832C83.8562 10.832 82.9975 11.232 82.4535 12.032C81.9095 12.832 81.6375 14.0533 81.6375 15.696C81.6375 17.3387 81.9095 18.5653 82.4535 19.376C82.9975 20.176 83.8562 20.576 85.0295 20.576ZM101.48 0.0479984V13.472H102.216C102.525 13.472 102.76 13.4293 102.92 13.344C103.091 13.2587 103.251 13.104 103.4 12.88L106.536 8.208C106.717 7.93067 106.931 7.728 107.176 7.6C107.432 7.472 107.752 7.408 108.136 7.408H112.68L108.392 13.312C108.189 13.5893 107.965 13.8347 107.72 14.048C107.485 14.2613 107.229 14.4533 106.952 14.624C107.432 14.9867 107.848 15.4667 108.2 16.064L112.872 24H108.392C108.019 24 107.693 23.9413 107.416 23.824C107.149 23.696 106.931 23.4773 106.76 23.168L103.624 17.296C103.475 17.0293 103.32 16.8587 103.16 16.784C103 16.6987 102.76 16.656 102.44 16.656H101.48V24H96.52V0.0479984H101.48ZM126.733 24C126.264 24 125.907 23.936 125.661 23.808C125.427 23.68 125.229 23.4133 125.069 23.008L124.717 22.096C124.301 22.448 123.901 22.7573 123.517 23.024C123.133 23.2907 122.733 23.52 122.317 23.712C121.912 23.8933 121.475 24.0267 121.005 24.112C120.547 24.208 120.035 24.256 119.469 24.256C118.712 24.256 118.024 24.16 117.405 23.968C116.787 23.7653 116.259 23.472 115.821 23.088C115.395 22.704 115.064 22.2293 114.829 21.664C114.595 21.088 114.477 20.4267 114.477 19.68C114.477 19.0933 114.627 18.4907 114.925 17.872C115.224 17.2533 115.741 16.6933 116.477 16.192C117.213 15.68 118.205 15.2533 119.453 14.912C120.701 14.5707 122.275 14.3787 124.173 14.336V13.632C124.173 12.6613 123.971 11.9627 123.565 11.536C123.171 11.0987 122.605 10.88 121.869 10.88C121.283 10.88 120.803 10.944 120.429 11.072C120.056 11.2 119.72 11.344 119.421 11.504C119.133 11.664 118.851 11.808 118.573 11.936C118.296 12.064 117.965 12.128 117.581 12.128C117.24 12.128 116.947 12.048 116.701 11.888C116.467 11.7173 116.28 11.5093 116.141 11.264L115.245 9.712C116.248 8.82667 117.357 8.17067 118.573 7.744C119.8 7.30667 121.112 7.088 122.509 7.088C123.512 7.088 124.413 7.25333 125.213 7.584C126.024 7.904 126.707 8.35733 127.261 8.944C127.827 9.52 128.259 10.208 128.557 11.008C128.856 11.808 129.005 12.6827 129.005 13.632V24H126.733ZM121.037 20.976C121.677 20.976 122.237 20.864 122.717 20.64C123.197 20.416 123.683 20.0533 124.173 19.552V17.248C123.181 17.2907 122.365 17.376 121.725 17.504C121.085 17.632 120.579 17.792 120.205 17.984C119.832 18.176 119.571 18.3947 119.421 18.64C119.283 18.8853 119.213 19.152 119.213 19.44C119.213 20.0053 119.368 20.4053 119.677 20.64C119.987 20.864 120.44 20.976 121.037 20.976ZM144.763 10.128H145.627C146.427 10.128 147.003 9.87733 147.355 9.376L152.603 1.76C152.891 1.344 153.216 1.06133 153.579 0.911999C153.952 0.762666 154.406 0.688 154.939 0.688H159.643L152.731 10.112C152.486 10.4533 152.23 10.736 151.963 10.96C151.696 11.184 151.424 11.3707 151.147 11.52C151.552 11.6693 151.92 11.8773 152.251 12.144C152.592 12.4 152.902 12.7467 153.179 13.184L160.219 24H155.387C155.078 24 154.811 23.9787 154.587 23.936C154.374 23.8933 154.187 23.8293 154.027 23.744C153.867 23.6587 153.728 23.5573 153.611 23.44C153.494 23.312 153.382 23.168 153.275 23.008L147.995 14.896C147.803 14.5973 147.558 14.3893 147.259 14.272C146.971 14.144 146.576 14.08 146.075 14.08H144.763V24H139.355V0.688H144.763V10.128ZM169.098 7.152C170.357 7.152 171.504 7.34933 172.538 7.744C173.573 8.13867 174.458 8.704 175.194 9.44C175.941 10.176 176.517 11.072 176.922 12.128C177.338 13.1733 177.546 14.352 177.546 15.664C177.546 16.9867 177.338 18.1813 176.922 19.248C176.517 20.304 175.941 21.2053 175.194 21.952C174.458 22.688 173.573 23.2587 172.538 23.664C171.504 24.0587 170.357 24.256 169.098 24.256C167.829 24.256 166.672 24.0587 165.626 23.664C164.592 23.2587 163.696 22.688 162.938 21.952C162.192 21.2053 161.61 20.304 161.194 19.248C160.789 18.1813 160.586 16.9867 160.586 15.664C160.586 14.352 160.789 13.1733 161.194 12.128C161.61 11.072 162.192 10.176 162.938 9.44C163.696 8.704 164.592 8.13867 165.626 7.744C166.672 7.34933 167.829 7.152 169.098 7.152ZM169.098 20.576C170.24 20.576 171.077 20.176 171.61 19.376C172.154 18.5653 172.426 17.3387 172.426 15.696C172.426 14.0533 172.154 12.832 171.61 12.032C171.077 11.232 170.24 10.832 169.098 10.832C167.925 10.832 167.066 11.232 166.522 12.032C165.978 12.832 165.706 14.0533 165.706 15.696C165.706 17.3387 165.978 18.5653 166.522 19.376C167.066 20.176 167.925 20.576 169.098 20.576ZM190.733 11.04C190.605 11.2427 190.466 11.3867 190.317 11.472C190.178 11.5573 189.997 11.6 189.773 11.6C189.538 11.6 189.303 11.552 189.069 11.456C188.834 11.3493 188.578 11.2373 188.301 11.12C188.034 11.0027 187.73 10.896 187.389 10.8C187.047 10.6933 186.658 10.64 186.221 10.64C185.591 10.64 185.106 10.7627 184.765 11.008C184.434 11.2427 184.269 11.5733 184.269 12C184.269 12.3093 184.375 12.5653 184.589 12.768C184.813 12.9707 185.106 13.152 185.469 13.312C185.831 13.4613 186.242 13.6053 186.701 13.744C187.159 13.8827 187.629 14.0373 188.109 14.208C188.589 14.3787 189.058 14.5813 189.517 14.816C189.975 15.04 190.386 15.3227 190.749 15.664C191.111 15.9947 191.399 16.4 191.613 16.88C191.837 17.36 191.949 17.936 191.949 18.608C191.949 19.4293 191.799 20.1867 191.501 20.88C191.202 21.5733 190.754 22.1707 190.157 22.672C189.57 23.1733 188.839 23.5627 187.965 23.84C187.101 24.1173 186.103 24.256 184.973 24.256C184.407 24.256 183.842 24.2027 183.277 24.096C182.711 23.9893 182.162 23.8453 181.629 23.664C181.106 23.4827 180.621 23.2693 180.173 23.024C179.725 22.768 179.341 22.496 179.021 22.208L180.173 20.384C180.311 20.1707 180.477 20.0053 180.669 19.888C180.861 19.76 181.111 19.696 181.421 19.696C181.709 19.696 181.965 19.76 182.189 19.888C182.423 20.016 182.674 20.1547 182.941 20.304C183.207 20.4533 183.517 20.592 183.869 20.72C184.231 20.848 184.685 20.912 185.229 20.912C185.613 20.912 185.938 20.8747 186.205 20.8C186.471 20.7147 186.685 20.6027 186.845 20.464C187.005 20.3253 187.122 20.1707 187.197 20C187.271 19.8293 187.309 19.6533 187.309 19.472C187.309 19.1413 187.197 18.8693 186.973 18.656C186.749 18.4427 186.455 18.2613 186.093 18.112C185.73 17.952 185.314 17.808 184.845 17.68C184.386 17.5413 183.917 17.3867 183.437 17.216C182.957 17.0453 182.482 16.8427 182.013 16.608C181.554 16.3627 181.143 16.0587 180.781 15.696C180.418 15.3227 180.125 14.8693 179.901 14.336C179.677 13.8027 179.565 13.1573 179.565 12.4C179.565 11.696 179.698 11.0293 179.965 10.4C180.242 9.76 180.653 9.2 181.197 8.72C181.741 8.24 182.423 7.86133 183.245 7.584C184.066 7.296 185.026 7.152 186.125 7.152C186.722 7.152 187.298 7.20533 187.853 7.312C188.418 7.41867 188.946 7.568 189.437 7.76C189.927 7.952 190.375 8.18133 190.781 8.448C191.186 8.704 191.543 8.98667 191.853 9.296L190.733 11.04ZM206.459 24C205.989 24 205.632 23.936 205.387 23.808C205.152 23.68 204.955 23.4133 204.795 23.008L204.443 22.096C204.027 22.448 203.627 22.7573 203.243 23.024C202.859 23.2907 202.459 23.52 202.043 23.712C201.637 23.8933 201.2 24.0267 200.731 24.112C200.272 24.208 199.76 24.256 199.195 24.256C198.437 24.256 197.749 24.16 197.131 23.968C196.512 23.7653 195.984 23.472 195.547 23.088C195.12 22.704 194.789 22.2293 194.555 21.664C194.32 21.088 194.203 20.4267 194.203 19.68C194.203 19.0933 194.352 18.4907 194.651 17.872C194.949 17.2533 195.467 16.6933 196.203 16.192C196.939 15.68 197.931 15.2533 199.179 14.912C200.427 14.5707 202 14.3787 203.899 14.336V13.632C203.899 12.6613 203.696 11.9627 203.291 11.536C202.896 11.0987 202.331 10.88 201.595 10.88C201.008 10.88 200.528 10.944 200.155 11.072C199.781 11.2 199.445 11.344 199.147 11.504C198.859 11.664 198.576 11.808 198.299 11.936C198.021 12.064 197.691 12.128 197.307 12.128C196.965 12.128 196.672 12.048 196.427 11.888C196.192 11.7173 196.005 11.5093 195.867 11.264L194.971 9.712C195.973 8.82667 197.083 8.17067 198.299 7.744C199.525 7.30667 200.837 7.088 202.235 7.088C203.237 7.088 204.139 7.25333 204.939 7.584C205.749 7.904 206.432 8.35733 206.987 8.944C207.552 9.52 207.984 10.208 208.283 11.008C208.581 11.808 208.731 12.6827 208.731 13.632V24H206.459ZM200.763 20.976C201.403 20.976 201.963 20.864 202.443 20.64C202.923 20.416 203.408 20.0533 203.899 19.552V17.248C202.907 17.2907 202.091 17.376 201.451 17.504C200.811 17.632 200.304 17.792 199.931 17.984C199.557 18.176 199.296 18.3947 199.147 18.64C199.008 18.8853 198.939 19.152 198.939 19.44C198.939 20.0053 199.093 20.4053 199.403 20.64C199.712 20.864 200.165 20.976 200.763 20.976ZM217.532 0.0479984V13.472H218.268C218.578 13.472 218.812 13.4293 218.972 13.344C219.143 13.2587 219.303 13.104 219.452 12.88L222.588 8.208C222.77 7.93067 222.983 7.728 223.228 7.6C223.484 7.472 223.804 7.408 224.188 7.408H228.732L224.444 13.312C224.242 13.5893 224.018 13.8347 223.772 14.048C223.538 14.2613 223.282 14.4533 223.004 14.624C223.484 14.9867 223.9 15.4667 224.252 16.064L228.924 24H224.444C224.071 24 223.746 23.9413 223.468 23.824C223.202 23.696 222.983 23.4773 222.812 23.168L219.676 17.296C219.527 17.0293 219.372 16.8587 219.212 16.784C219.052 16.6987 218.812 16.656 218.492 16.656H217.532V24H212.572V0.0479984H217.532ZM235.97 7.408V17.936C235.97 18.7573 236.157 19.392 236.53 19.84C236.903 20.288 237.453 20.512 238.178 20.512C238.722 20.512 239.229 20.4 239.698 20.176C240.178 19.952 240.642 19.6373 241.09 19.232V7.408H246.05V24H242.978C242.359 24 241.954 23.7227 241.762 23.168L241.458 22.208C241.138 22.5173 240.807 22.8 240.466 23.056C240.125 23.3013 239.757 23.5147 239.362 23.696C238.978 23.8667 238.562 24 238.114 24.096C237.666 24.2027 237.175 24.256 236.642 24.256C235.735 24.256 234.93 24.1013 234.226 23.792C233.533 23.472 232.946 23.0293 232.466 22.464C231.986 21.8987 231.623 21.232 231.378 20.464C231.133 19.696 231.01 18.8533 231.01 17.936V7.408H235.97ZM260.356 11.04C260.228 11.2427 260.09 11.3867 259.94 11.472C259.802 11.5573 259.62 11.6 259.396 11.6C259.162 11.6 258.927 11.552 258.692 11.456C258.458 11.3493 258.202 11.2373 257.924 11.12C257.658 11.0027 257.354 10.896 257.012 10.8C256.671 10.6933 256.282 10.64 255.844 10.64C255.215 10.64 254.73 10.7627 254.388 11.008C254.058 11.2427 253.892 11.5733 253.892 12C253.892 12.3093 253.999 12.5653 254.212 12.768C254.436 12.9707 254.73 13.152 255.092 13.312C255.455 13.4613 255.866 13.6053 256.324 13.744C256.783 13.8827 257.252 14.0373 257.732 14.208C258.212 14.3787 258.682 14.5813 259.14 14.816C259.599 15.04 260.01 15.3227 260.372 15.664C260.735 15.9947 261.023 16.4 261.236 16.88C261.46 17.36 261.572 17.936 261.572 18.608C261.572 19.4293 261.423 20.1867 261.124 20.88C260.826 21.5733 260.378 22.1707 259.78 22.672C259.194 23.1733 258.463 23.5627 257.588 23.84C256.724 24.1173 255.727 24.256 254.596 24.256C254.031 24.256 253.466 24.2027 252.9 24.096C252.335 23.9893 251.786 23.8453 251.252 23.664C250.73 23.4827 250.244 23.2693 249.796 23.024C249.348 22.768 248.964 22.496 248.644 22.208L249.796 20.384C249.935 20.1707 250.1 20.0053 250.292 19.888C250.484 19.76 250.735 19.696 251.044 19.696C251.332 19.696 251.588 19.76 251.812 19.888C252.047 20.016 252.298 20.1547 252.564 20.304C252.831 20.4533 253.14 20.592 253.492 20.72C253.855 20.848 254.308 20.912 254.852 20.912C255.236 20.912 255.562 20.8747 255.828 20.8C256.095 20.7147 256.308 20.6027 256.468 20.464C256.628 20.3253 256.746 20.1707 256.82 20C256.895 19.8293 256.932 19.6533 256.932 19.472C256.932 19.1413 256.82 18.8693 256.596 18.656C256.372 18.4427 256.079 18.2613 255.716 18.112C255.354 17.952 254.938 17.808 254.468 17.68C254.01 17.5413 253.54 17.3867 253.06 17.216C252.58 17.0453 252.106 16.8427 251.636 16.608C251.178 16.3627 250.767 16.0587 250.404 15.696C250.042 15.3227 249.748 14.8693 249.524 14.336C249.3 13.8027 249.188 13.1573 249.188 12.4C249.188 11.696 249.322 11.0293 249.588 10.4C249.866 9.76 250.276 9.2 250.82 8.72C251.364 8.24 252.047 7.86133 252.868 7.584C253.69 7.296 254.65 7.152 255.748 7.152C256.346 7.152 256.922 7.20533 257.476 7.312C258.042 7.41867 258.57 7.568 259.06 7.76C259.551 7.952 259.999 8.18133 260.404 8.448C260.81 8.704 261.167 8.98667 261.476 9.296L260.356 11.04ZM264.626 24V0.0479984H269.586V8.864C270.184 8.352 270.829 7.94133 271.522 7.632C272.226 7.312 273.064 7.152 274.034 7.152C274.941 7.152 275.741 7.312 276.434 7.632C277.138 7.94133 277.73 8.37867 278.21 8.944C278.69 9.49867 279.053 10.1653 279.298 10.944C279.544 11.712 279.666 12.5493 279.666 13.456V24H274.706V13.456C274.706 12.6453 274.52 12.016 274.146 11.568C273.773 11.1093 273.224 10.88 272.498 10.88C271.954 10.88 271.442 10.9973 270.962 11.232C270.482 11.4667 270.024 11.7813 269.586 12.176V24H264.626ZM290.901 7.152C292.159 7.152 293.306 7.34933 294.341 7.744C295.375 8.13867 296.261 8.704 296.997 9.44C297.743 10.176 298.319 11.072 298.725 12.128C299.141 13.1733 299.349 14.352 299.349 15.664C299.349 16.9867 299.141 18.1813 298.725 19.248C298.319 20.304 297.743 21.2053 296.997 21.952C296.261 22.688 295.375 23.2587 294.341 23.664C293.306 24.0587 292.159 24.256 290.901 24.256C289.631 24.256 288.474 24.0587 287.429 23.664C286.394 23.2587 285.498 22.688 284.741 21.952C283.994 21.2053 283.413 20.304 282.997 19.248C282.591 18.1813 282.389 16.9867 282.389 15.664C282.389 14.352 282.591 13.1733 282.997 12.128C283.413 11.072 283.994 10.176 284.741 9.44C285.498 8.704 286.394 8.13867 287.429 7.744C288.474 7.34933 289.631 7.152 290.901 7.152ZM290.901 20.576C292.042 20.576 292.879 20.176 293.413 19.376C293.957 18.5653 294.229 17.3387 294.229 15.696C294.229 14.0533 293.957 12.832 293.413 12.032C292.879 11.232 292.042 10.832 290.901 10.832C289.727 10.832 288.869 11.232 288.325 12.032C287.781 12.832 287.509 14.0533 287.509 15.696C287.509 17.3387 287.781 18.5653 288.325 19.376C288.869 20.176 289.727 20.576 290.901 20.576Z" fill="#121111"/>
</svg>
