<svg fill="none" height="25" viewBox="0 0 266 25" width="266" xmlns="http://www.w3.org/2000/svg"><path d="m.92 24v-16.592h3.072c.30933 0 .56533.06933.768.208.21333.13867.36267.34667.448.624l.272.896c.27733-.288.56533-.54933.864-.784.29867-.24533.61867-.45333.96-.624.352-.18133.72533-.32 1.12-.416.40533-.10667.848-.16 1.328-.16 1.0027 0 1.8293.26133 2.48.784.6613.512 1.1627 1.2 1.504 2.064.2773-.512.6133-.94933 1.008-1.312.4053-.36267.8373-.656 1.296-.88.4693-.224.96-.38933 1.472-.496.5227-.10667 1.04-.16 1.552-.16.9493 0 1.792.144 2.528.432.736.27733 1.3493.688 1.84 1.232.5013.53333.88 1.1947 1.136 1.984.256.7787.384 1.664.384 2.656v10.544h-4.96v-10.544c0-1.7173-.736-2.576-2.208-2.576-.672 0-1.232.224-1.68.672-.4373.4373-.656 1.072-.656 1.904v10.544h-4.96v-10.544c0-.9493-.1867-1.616-.56-2-.37333-.384-.92267-.576-1.648-.576-.448 0-.87467.1013-1.28.304-.39467.2027-.768.4747-1.12.816v12zm39.3385 0c-.4693 0-.8267-.064-1.072-.192-.2347-.128-.432-.3947-.592-.8l-.352-.912c-.416.352-.816.6613-1.2.928s-.784.496-1.2.688c-.4053.1813-.8427.3147-1.312.4-.4587.096-.9707.144-1.536.144-.7573 0-1.4453-.096-2.064-.288-.6187-.2027-1.1467-.496-1.584-.88-.4267-.384-.7573-.8587-.992-1.424-.2347-.576-.352-1.2373-.352-1.984 0-.5867.1493-1.1893.448-1.808s.816-1.1787 1.552-1.68c.736-.512 1.728-.9387 2.976-1.28s2.8213-.5333 4.72-.576v-.704c0-.9707-.2027-1.6693-.608-2.096-.3947-.4373-.96-.656-1.696-.656-.5867 0-1.0667.064-1.44.192s-.7093.272-1.008.432c-.288.16-.5707.304-.848.432s-.608.192-.992.192c-.3413 0-.6347-.08-.88-.24-.2347-.1707-.4213-.3787-.56-.624l-.896-1.552c1.0027-.88533 2.112-1.54133 3.328-1.968 1.2267-.43733 2.5387-.656 3.936-.656 1.0027 0 1.904.16533 2.704.496.8107.32 1.4933.77333 2.048 1.36.5653.576.9973 1.264 1.296 2.064s.448 1.6747.448 2.624v10.368zm-5.696-3.024c.64 0 1.2-.112 1.68-.336s.9653-.5867 1.456-1.088v-2.304c-.992.0427-1.808.128-2.448.256s-1.1467.288-1.52.48-.6347.4107-.784.656c-.1387.2453-.208.512-.208.8 0 .5653.1547.9653.464 1.2.3093.224.7627.336 1.36.336zm11.81 3.024v-23.9520016h4.96v8.8160016c.5973-.512 1.2427-.92267 1.936-1.232.704-.32 1.5413-.48 2.512-.48.9067 0 1.7067.16 2.4.48.704.30933 1.296.74667 1.776 1.312.48.55467.8427 1.2213 1.088 2 .2453.768.368 1.6053.368 2.512v10.544h-4.96v-10.544c0-.8107-.1867-1.44-.56-1.888-.3733-.4587-.9227-.688-1.648-.688-.544 0-1.056.1173-1.536.352s-.9387.5493-1.376.944v11.824zm18.8825 0v-16.592h3.072c.3093 0 .5653.06933.768.208.2133.13867.3627.34667.448.624l.288.96c.32-.29867.6507-.576.992-.832s.704-.46933 1.088-.64c.3947-.18133.816-.32 1.264-.416.4587-.10667.9547-.16 1.488-.16.9067 0 1.7067.16 2.4.48.704.30933 1.296.74667 1.776 1.312.48.55467.8427 1.2213 1.088 2 .2453.768.368 1.6053.368 2.512v10.544h-4.96v-10.544c0-.8107-.1867-1.44-.56-1.888-.3733-.4587-.9227-.688-1.648-.688-.544 0-1.056.1173-1.536.352s-.9387.5493-1.376.944v11.824zm30.3385 0c-.4693 0-.8267-.064-1.072-.192-.2347-.128-.432-.3947-.592-.8l-.352-.912c-.416.352-.816.6613-1.2.928s-.784.496-1.2.688c-.4053.1813-.8427.3147-1.312.4-.4587.096-.9707.144-1.536.144-.7573 0-1.4453-.096-2.064-.288-.6187-.2027-1.1467-.496-1.584-.88-.4267-.384-.7573-.8587-.992-1.424-.2347-.576-.352-1.2373-.352-1.984 0-.5867.1493-1.1893.448-1.808s.816-1.1787 1.552-1.68c.736-.512 1.728-.9387 2.976-1.28s2.8213-.5333 4.72-.576v-.704c0-.9707-.2027-1.6693-.608-2.096-.3947-.4373-.96-.656-1.696-.656-.5867 0-1.0667.064-1.44.192s-.7093.272-1.008.432c-.288.16-.5707.304-.848.432s-.608.192-.992.192c-.3413 0-.6347-.08-.88-.24-.2347-.1707-.4213-.3787-.56-.624l-.896-1.552c1.0027-.88533 2.112-1.54133 3.328-1.968 1.2267-.43733 2.5387-.656 3.936-.656 1.0027 0 1.904.16533 2.704.496.8107.32 1.4933.77333 2.048 1.36.5653.576.9973 1.264 1.296 2.064s.448 1.6747.448 2.624v10.368zm-5.696-3.024c.64 0 1.2-.112 1.68-.336s.9653-.5867 1.456-1.088v-2.304c-.992.0427-1.808.128-2.448.256s-1.1467.288-1.52.48-.6347.4107-.784.656c-.1387.2453-.208.512-.208.8 0 .5653.1547.9653.464 1.2.3093.224.7627.336 1.36.336zm18.3175 3.024v-16.592h3.072c.309 0 .565.06933.768.208.213.13867.363.34667.448.624l.272.896c.277-.288.565-.54933.864-.784.299-.24533.619-.45333.96-.624.352-.18133.725-.32 1.12-.416.405-.10667.848-.16 1.328-.16 1.003 0 1.829.26133 2.48.784.661.512 1.163 1.2 1.504 2.064.277-.512.613-.94933 1.008-1.312.405-.36267.837-.656 1.296-.88.469-.224.96-.38933 1.472-.496.523-.10667 1.04-.16 1.552-.16.949 0 1.792.144 2.528.432.736.27733 1.349.688 1.84 1.232.501.53333.88 1.1947 1.136 1.984.256.7787.384 1.664.384 2.656v10.544h-4.96v-10.544c0-1.7173-.736-2.576-2.208-2.576-.672 0-1.232.224-1.68.672-.437.4373-.656 1.072-.656 1.904v10.544h-4.96v-10.544c0-.9493-.187-1.616-.56-2s-.923-.576-1.648-.576c-.448 0-.875.1013-1.28.304-.395.2027-.768.4747-1.12.816v12zm39.339 0c-.47 0-.827-.064-1.072-.192-.235-.128-.432-.3947-.592-.8l-.352-.912c-.416.352-.816.6613-1.2.928s-.784.496-1.2.688c-.406.1813-.843.3147-1.312.4-.459.096-.971.144-1.536.144-.758 0-1.446-.096-2.064-.288-.619-.2027-1.147-.496-1.584-.88-.427-.384-.758-.8587-.992-1.424-.235-.576-.352-1.2373-.352-1.984 0-.5867.149-1.1893.448-1.808.298-.6187.816-1.1787 1.552-1.68.736-.512 1.728-.9387 2.976-1.28s2.821-.5333 4.72-.576v-.704c0-.9707-.203-1.6693-.608-2.096-.395-.4373-.96-.656-1.696-.656-.587 0-1.067.064-1.44.192-.374.128-.71.272-1.008.432-.288.16-.571.304-.848.432-.278.128-.608.192-.992.192-.342 0-.635-.08-.88-.24-.235-.1707-.422-.3787-.56-.624l-.896-1.552c1.002-.88533 2.112-1.54133 3.328-1.968 1.226-.43733 2.538-.656 3.936-.656 1.002 0 1.904.16533 2.704.496.81.32 1.493.77333 2.048 1.36.565.576.997 1.264 1.296 2.064.298.8.448 1.6747.448 2.624v10.368zm-5.696-3.024c.64 0 1.2-.112 1.68-.336s.965-.5867 1.456-1.088v-2.304c-.992.0427-1.808.128-2.448.256s-1.147.288-1.52.48c-.374.192-.635.4107-.784.656-.139.2453-.208.512-.208.8 0 .5653.154.9653.464 1.2.309.224.762.336 1.36.336zm11.809 3.024v-23.9520016h4.96v8.8160016c.598-.512 1.243-.92267 1.936-1.232.704-.32 1.542-.48 2.512-.48.907 0 1.707.16 2.4.48.704.30933 1.296.74667 1.776 1.312.48.55467.843 1.2213 1.088 2 .246.768.368 1.6053.368 2.512v10.544h-4.96v-10.544c0-.8107-.186-1.44-.56-1.888-.373-.4587-.922-.688-1.648-.688-.544 0-1.056.1173-1.536.352s-.938.5493-1.376.944v11.824zm18.883 0v-16.592h3.072c.309 0 .565.06933.768.208.213.13867.363.34667.448.624l.288.96c.32-.29867.651-.576.992-.832s.704-.46933 1.088-.64c.395-.18133.816-.32 1.264-.416.459-.10667.955-.16 1.488-.16.907 0 1.707.16 2.4.48.704.30933 1.296.74667 1.776 1.312.48.55467.843 1.2213 1.088 2 .245.768.368 1.6053.368 2.512v10.544h-4.96v-10.544c0-.8107-.187-1.44-.56-1.888-.373-.4587-.923-.688-1.648-.688-.544 0-1.056.1173-1.536.352s-.939.5493-1.376.944v11.824zm30.338 0c-.469 0-.826-.064-1.072-.192-.234-.128-.432-.3947-.592-.8l-.352-.912c-.416.352-.816.6613-1.2.928s-.784.496-1.2.688c-.405.1813-.842.3147-1.312.4-.458.096-.97.144-1.536.144-.757 0-1.445-.096-2.064-.288-.618-.2027-1.146-.496-1.584-.88-.426-.384-.757-.8587-.992-1.424-.234-.576-.352-1.2373-.352-1.984 0-.5867.15-1.1893.448-1.808.299-.6187.816-1.1787 1.552-1.68.736-.512 1.728-.9387 2.976-1.28s2.822-.5333 4.72-.576v-.704c0-.9707-.202-1.6693-.608-2.096-.394-.4373-.96-.656-1.696-.656-.586 0-1.066.064-1.44.192-.373.128-.709.272-1.008.432-.288.16-.57.304-.848.432-.277.128-.608.192-.992.192-.341 0-.634-.08-.88-.24-.234-.1707-.421-.3787-.56-.624l-.896-1.552c1.003-.88533 2.112-1.54133 3.328-1.968 1.227-.43733 2.539-.656 3.936-.656 1.003 0 1.904.16533 2.704.496.811.32 1.494.77333 2.048 1.36.566.576.998 1.264 1.296 2.064.299.8.448 1.6747.448 2.624v10.368zm-5.696-3.024c.64 0 1.2-.112 1.68-.336s.966-.5867 1.456-1.088v-2.304c-.992.0427-1.808.128-2.448.256s-1.146.288-1.52.48c-.373.192-.634.4107-.784.656-.138.2453-.208.512-.208.8 0 .5653.155.9653.464 1.2.31.224.763.336 1.36.336zm24.238 3.024h-5.44v-23.312h5.44zm4.65 0v-16.592h3.072c.309 0 .565.06933.768.208.213.13867.363.34667.448.624l.288.96c.32-.29867.651-.576.992-.832s.704-.46933 1.088-.64c.395-.18133.816-.32 1.264-.416.459-.10667.955-.16 1.488-.16.907 0 1.707.16 2.4.48.704.30933 1.296.74667 1.776 1.312.48.55467.843 1.2213 1.088 2 .245.768.368 1.6053.368 2.512v10.544h-4.96v-10.544c0-.8107-.187-1.44-.56-1.888-.373-.4587-.923-.688-1.648-.688-.544 0-1.056.1173-1.536.352s-.939.5493-1.376.944v11.824zm30.85-12.656c-.149.1813-.293.3253-.432.432-.138.1067-.336.16-.592.16-.245 0-.469-.0587-.672-.176-.192-.1173-.41-.2453-.656-.384-.245-.1493-.533-.2827-.864-.4-.33-.1173-.741-.176-1.232-.176-.608 0-1.136.112-1.584.336-.437.224-.8.544-1.088.96s-.501.928-.64 1.536c-.138.5973-.208 1.2747-.208 2.032 0 1.5893.304 2.8107.912 3.664.619.8533 1.467 1.28 2.544 1.28.576 0 1.03-.0693 1.36-.208.342-.1493.63-.3093.864-.48.235-.1813.448-.3467.64-.496.203-.1493.454-.224.752-.224.395 0 .694.144.896.432l1.44 1.776c-.512.5867-1.05 1.0667-1.616 1.44-.565.3627-1.146.6507-1.744.864-.586.2027-1.178.3413-1.776.416-.597.0853-1.178.128-1.744.128-1.013 0-1.984-.192-2.912-.576-.917-.384-1.728-.9387-2.432-1.664-.693-.736-1.248-1.6373-1.664-2.704-.405-1.0667-.608-2.2827-.608-3.648 0-1.1947.176-2.3093.528-3.344.363-1.0453.891-1.9467 1.584-2.704.704-.768 1.568-1.37067 2.592-1.808 1.035-.43733 2.23-.656 3.584-.656 1.302 0 2.443.208 3.424.624.982.416 1.867 1.024 2.656 1.824zm2.955 10.144c0-.384.069-.7413.208-1.072.149-.3307.347-.6187.592-.864.256-.2453.555-.4373.896-.576.341-.1493.715-.224 1.12-.224.395 0 .763.0747 1.104.224.341.1387.64.3307.896.576s.453.5333.592.864c.149.3307.224.688.224 1.072s-.075.7467-.224 1.088c-.139.3307-.336.6187-.592.864s-.555.4373-.896.576-.709.208-1.104.208c-.405 0-.779-.0693-1.12-.208s-.64-.3307-.896-.576c-.245-.2453-.443-.5333-.592-.864-.139-.3413-.208-.704-.208-1.088z" fill="#121111"/></svg>