<svg fill="none" height="21" viewBox="0 0 159 21" width="159" xmlns="http://www.w3.org/2000/svg"><path d="m11.998 12.798v7.202h-4.394v-7.202l-6.864-11.739h3.874c.38133 0 .68467.091.91.273.22533.17333.40733.39867.546.676l2.678 5.512c.21667.442.416.84933.598 1.222s.34233.741.481 1.105c.13-.37267.286-.74533.468-1.118s.377-.77567.585-1.209l2.652-5.512c.052-.11267.1213-.22533.208-.338.0953-.11267.1993-.21233.312-.299.1213-.09533.2557-.169.403-.221.156-.06067.325-.091.507-.091h3.9zm12.3417-6.487c1.0226 0 1.9543.16033 2.795.481.8406.32067 1.56.78 2.158 1.378.6066.598 1.0746 1.326 1.404 2.184.338.8493.507 1.807.507 2.873 0 1.0747-.169 2.0453-.507 2.912-.3294.858-.7974 1.5903-1.404 2.197-.598.598-1.3174 1.0617-2.158 1.391-.8407.3207-1.7724.481-2.795.481-1.0314 0-1.9717-.1603-2.821-.481-.8407-.3293-1.5687-.793-2.184-1.391-.6067-.6067-1.079-1.339-1.417-2.197-.3294-.8667-.494-1.8373-.494-2.912 0-1.066.1646-2.0237.494-2.873.338-.858.8103-1.586 1.417-2.184.6153-.598 1.3433-1.05733 2.184-1.378.8493-.32067 1.7896-.481 2.821-.481zm0 10.907c.9273 0 1.6076-.325 2.041-.975.442-.6587.663-1.6553.663-2.99s-.221-2.327-.663-2.977c-.4334-.65-1.1137-.975-2.041-.975-.9534 0-1.651.325-2.093.975s-.663 1.6423-.663 2.977.221 2.3313.663 2.99c.442.65 1.1396.975 2.093.975zm13.366-16.679001v10.907001h.598c.2513 0 .442-.0347.572-.104.1387-.0693.2687-.195.39-.377l2.548-3.796c.1473-.22533.3207-.39.52-.494.208-.104.468-.156.78-.156h3.692l-3.484 4.797c-.1647.2253-.3467.4247-.546.598-.1907.1733-.3987.3293-.624.468.39.2947.728.6847 1.014 1.17l3.796 6.448h-3.64c-.3033 0-.5677-.0477-.793-.143-.2167-.104-.3943-.2817-.533-.533l-2.548-4.771c-.1213-.2167-.247-.3553-.377-.416-.13-.0693-.325-.104-.585-.104h-.78v5.967h-4.03v-19.461001zm16.4294 5.772001c1.0226 0 1.9543.16033 2.795.481.8406.32067 1.56.78 2.158 1.378.6066.598 1.0746 1.326 1.404 2.184.338.8493.507 1.807.507 2.873 0 1.0747-.169 2.0453-.507 2.912-.3294.858-.7974 1.5903-1.404 2.197-.598.598-1.3174 1.0617-2.158 1.391-.8407.3207-1.7724.481-2.795.481-1.0314 0-1.9717-.1603-2.821-.481-.8407-.3293-1.5687-.793-2.184-1.391-.6067-.6067-1.079-1.339-1.417-2.197-.3294-.8667-.494-1.8373-.494-2.912 0-1.066.1646-2.0237.494-2.873.338-.858.8103-1.586 1.417-2.184.6153-.598 1.3433-1.05733 2.184-1.378.8493-.32067 1.7896-.481 2.821-.481zm0 10.907c.9273 0 1.6076-.325 2.041-.975.442-.6587.663-1.6553.663-2.99s-.221-2.327-.663-2.977c-.4334-.65-1.1137-.975-2.041-.975-.9534 0-1.651.325-2.093.975s-.663 1.6423-.663 2.977.221 2.3313.663 2.99c.442.65 1.1396.975 2.093.975zm17.578-7.748c-.104.16467-.2167.28167-.338.351-.1127.06933-.26.104-.442.104-.1907 0-.3813-.039-.572-.117-.1907-.08667-.3987-.17767-.624-.273-.2167-.09533-.4637-.182-.741-.26-.2773-.08667-.5937-.13-.949-.13-.5113 0-.9057.09967-1.183.299-.2687.19067-.403.45933-.403.806 0 .2513.0867.4593.26.624.182.1647.4203.312.715.442.2947.1213.6283.2383 1.001.351s.754.2383 1.144.377.7713.3033 1.144.494c.3727.182.7063.4117 1.001.689.2947.2687.5287.598.702.988.182.39.273.858.273 1.404 0 .6673-.1213 1.2827-.364 1.846s-.6067 1.0487-1.092 1.456c-.4767.4073-1.0703.7237-1.781.949-.702.2253-1.5123.338-2.431.338-.4593 0-.9187-.0433-1.378-.13s-.9057-.2037-1.339-.351c-.4247-.1473-.819-.3207-1.183-.52-.364-.208-.676-.429-.936-.663l.936-1.482c.1127-.1733.247-.3077.403-.403.156-.104.3597-.156.611-.156.234 0 .442.052.624.156.1907.104.3943.2167.611.338s.468.234.754.338c.2947.104.663.156 1.105.156.312 0 .5763-.0303.793-.091.2167-.0693.39-.1603.52-.273s.2253-.2383.286-.377.091-.2817.091-.429c0-.2687-.091-.4897-.273-.663s-.4203-.3207-.715-.442c-.2947-.13-.6327-.247-1.014-.351-.3727-.1127-.754-.2383-1.144-.377s-.7757-.3033-1.157-.494c-.3727-.1993-.7063-.4463-1.001-.741-.2947-.3033-.533-.6717-.715-1.105s-.273-.9577-.273-1.573c0-.572.1083-1.11367.325-1.625.2253-.52.559-.975 1.001-1.365s.9967-.69767 1.664-.923c.6673-.234 1.4473-.351 2.34-.351.4853 0 .9533.04333 1.404.13.4593.08667.8883.208 1.287.364s.7627.34233 1.092.559c.3293.208.6197.43767.871.689zm7.2392-2.951v8.554c0 .6673.1516 1.183.455 1.547.3033.364.7496.546 1.339.546.442 0 .8536-.091 1.235-.273.39-.182.767-.4377 1.131-.767v-9.607h4.03v13.481h-2.496c-.5027 0-.832-.2253-.988-.676l-.247-.78c-.26.2513-.5287.481-.806.689-.2774.1993-.5764.3727-.897.52-.312.1387-.65.247-1.014.325-.364.0867-.7627.13-1.196.13-.7367 0-1.391-.1257-1.963-.377-.5634-.26-1.04-.6197-1.43-1.079s-.6847-1.001-.884-1.625c-.1994-.624-.299-1.3087-.299-2.054v-8.554zm15.602-5.980001v10.907001h.598c.2513 0 .442-.0347.572-.104.1387-.0693.2687-.195.39-.377l2.548-3.796c.1473-.22533.3207-.39.52-.494.208-.104.468-.156.78-.156h3.6917l-3.484 4.797c-.164.2253-.3464.4247-.5457.598-.1907.1733-.3987.3293-.624.468.39.2947.728.6847 1.0137 1.17l3.796 6.448h-3.64c-.303 0-.5674-.0477-.7927-.143-.2167-.104-.3943-.2817-.533-.533l-2.548-4.771c-.1213-.2167-.247-.3553-.377-.416-.13-.0693-.325-.104-.585-.104h-.78v5.967h-4.03v-19.461001zm20.5187 19.461001c-.382 0-.672-.052-.871-.156-.191-.104-.351-.3207-.481-.65l-.286-.741c-.338.286-.663.5373-.975.754s-.637.403-.975.559c-.33.1473-.685.2557-1.066.325-.373.078-.789.117-1.248.117-.616 0-1.175-.078-1.677-.234-.503-.1647-.932-.403-1.287-.715-.347-.312-.616-.6977-.806-1.157-.191-.468-.286-1.0053-.286-1.612 0-.4767.121-.9663.364-1.469.242-.5027.663-.9577 1.261-1.365.598-.416 1.404-.7627 2.418-1.04s2.292-.4333 3.835-.468v-.572c0-.7887-.165-1.3563-.494-1.703-.321-.35533-.78-.533-1.378-.533-.477 0-.867.052-1.17.156-.304.104-.577.221-.819.351-.234.13-.464.247-.689.351-.226.104-.494.156-.806.156-.278 0-.516-.065-.715-.195-.191-.1387-.343-.30767-.455-.507l-.728-1.261c.814-.71933 1.716-1.25233 2.704-1.599.996-.35533 2.062-.533 3.198-.533.814 0 1.547.13433 2.197.403.658.26 1.213.62833 1.664 1.105.459.468.81 1.027 1.053 1.677.242.65.364 1.3607.364 2.132v8.424zm-4.628-2.457c.52 0 .975-.091 1.365-.273s.784-.4767 1.183-.884v-1.872c-.806.0347-1.469.104-1.989.208s-.932.234-1.235.39c-.304.156-.516.3337-.637.533-.113.1993-.169.416-.169.65 0 .4593.125.7843.377.975.251.182.619.273 1.105.273zm22.943-4.407c0 1.0573-.135 2.0193-.403 2.886-.26.8667-.659 1.612-1.196 2.236-.529.6153-1.196 1.0963-2.002 1.443-.806.338-1.755.507-2.847.507-.494 0-.984-.026-1.469-.078-.477-.052-.975-.1387-1.495-.26l.234-2.561c.017-.2253.104-.4073.26-.546.164-.1387.39-.208.676-.208.147 0 .329.026.546.078.216.0433.476.065.78.065.424 0 .793-.0563 1.105-.169.32-.1213.585-.3163.793-.585.208-.2773.364-.637.468-1.079s.156-.988.156-1.638v-12.168h4.394zm16.099 1.963c.104 0 .208.0217.312.065.104.0347.203.0997.299.195l1.742 1.833c-.763.9967-1.721 1.7507-2.873 2.262-1.144.5027-2.501.754-4.069.754-1.439 0-2.73-.2427-3.874-.728-1.136-.494-2.102-1.17-2.899-2.028-.789-.8667-1.396-1.8893-1.82-3.068-.425-1.1873-.637-2.4743-.637-3.861 0-1.41267.242-2.70833.728-3.887.485-1.18733 1.161-2.21 2.028-3.068.875-.858 1.919-1.52533 3.133-2.002 1.213-.47667 2.552-.715001 4.017-.715001.71 0 1.378.065 2.002.195001.632.12133 1.222.29467 1.768.52.546.21667 1.048.481 1.508.793.459.30333.866.64133 1.222 1.014l-1.482 1.989c-.096.12133-.208.234-.338.338-.13.09533-.312.143-.546.143-.156 0-.304-.03467-.442-.104-.139-.06933-.286-.15167-.442-.247-.156-.104-.33-.21233-.52-.325-.182-.12133-.403-.22967-.663-.325-.252-.104-.551-.19067-.897-.26-.338-.06933-.737-.104-1.196-.104-.798 0-1.526.143-2.184.429-.659.27733-1.227.68033-1.703 1.209-.468.52-.837 1.15267-1.105 1.898-.26.74533-.39 1.58167-.39 2.509 0 .9707.13 1.833.39 2.587.268.754.628 1.391 1.079 1.911.459.5113.992.9013 1.599 1.17.606.2687 1.256.403 1.95.403.398 0 .762-.0173 1.092-.052.329-.0433.632-.1127.91-.208.286-.0953.554-.2167.806-.364.26-.156.52-.3467.78-.572.104-.0867.216-.156.338-.208.121-.0607.247-.091.377-.091zm9.431 4.901h-4.42v-18.941h4.42z" fill="#121111"/></svg>