<svg fill="none" height="24" viewBox="0 0 89 24" width="89" xmlns="http://www.w3.org/2000/svg"><path d="m0 .688h4.352c.46933 0 .85333.106666 1.152.32.29867.21333.512.496.64.848l4.512 12.48c.2027.544.4053 1.136.608 1.776.2133.64.4107 1.312.592 2.016.1493-.704.32-1.376.512-2.016.2027-.64.4-1.232.592-1.776l4.48-12.48c.1067-.29867.3147-.56533.624-.8.3093-.245334.688-.368 1.136-.368h4.384l-9.344 23.312h-4.896zm44.3423 23.312h-4.192c-.4694 0-.8587-.1067-1.168-.32-.2987-.224-.5067-.5067-.6241-.848l-1.3759-4.064h-8.8641l-1.376 4.064c-.1066.2987-.3146.5707-.624.816-.3093.2347-.6879.352-1.136.352h-4.224l9.0241-23.312h5.536zm-14.976-8.912h6.368l-2.144-6.384c-.1387-.40533-.304-.88-.496-1.424-.1814-.55467-.3627-1.152-.544-1.792-.1707.65067-.3467 1.25333-.528 1.808-.1814.55467-.3521 1.03467-.512 1.44zm22.6017.288v8.624h-5.408v-23.312h7.584c1.6853 0 3.12.176 4.304.528 1.1947.34133 2.1653.82133 2.912 1.44.7573.61867 1.3067 1.34933 1.648 2.192s.512 1.76.512 2.752c0 .75733-.1013 1.472-.304 2.144s-.5067 1.296-.912 1.872c-.3947.5653-.8853 1.072-1.472 1.52-.576.448-1.2427.816-2 1.104.3627.1813.6987.4053 1.008.672.32.2667.5973.592.832.976l4.96 8.112h-4.896c-.9067 0-1.5573-.3413-1.952-1.024l-3.872-6.768c-.1707-.2987-.3733-.512-.608-.64-.224-.128-.544-.192-.96-.192zm0-3.728h2.176c.736 0 1.36-.0907 1.872-.272.5227-.192.9493-.4533 1.28-.784s.5707-.71467.72-1.152c.1493-.448.224-.928.224-1.44 0-1.024-.336-1.824-1.008-2.4-.6613-.576-1.6907-.864-3.088-.864h-2.176zm27.8092 3.488v8.864h-5.408v-8.864l-8.448-14.448h4.768c.4694 0 .8427.111999 1.12.336.2774.21333.5014.49067.672.832l3.296 6.784c.2667.544.512 1.04533.736 1.504.224.4587.4214.912.592 1.36.16-.4587.352-.9173.576-1.376.224-.45867.4641-.95467.72-1.488l3.264-6.784c.064-.13867.1494-.27733.256-.416.1174-.13867.2454-.26133.3841-.368.1493-.117335.3146-.208002.496-.272001.192-.074666.4-.111999.6239-.111999h4.8001z" fill="#121111"/></svg>