<?xml version="1.0" standalone="no"?>
<!DOCTYPE svg PUBLIC "-//W3C//DTD SVG 20010904//EN"
 "http://www.w3.org/TR/2001/REC-SVG-20010904/DTD/svg10.dtd">
<svg version="1.0" xmlns="http://www.w3.org/2000/svg"
 width="260.000000pt" height="260.000000pt" viewBox="0 0 260.000000 260.000000"
 preserveAspectRatio="xMidYMid meet">
<metadata>
Created by potrace 1.11, written by Peter Selinger 2001-2013
</metadata>
<g transform="translate(0.000000,260.000000) scale(0.100000,-0.100000)"
fill="#000000" stroke="none">
<path d="M710 1950 l0 -360 -202 -2 -203 -3 0 -645 0 -645 445 0 c428 0 448 1
533 23 240 60 410 168 516 328 72 108 94 187 89 317 -3 56 -8 109 -12 118 -5
12 1 20 25 29 67 28 176 109 240 178 205 222 207 514 3 741 -126 140 -341 242
-569 270 -51 6 -256 11 -477 11 l-388 0 0 -360z m975 202 c44 -12 122 -43 174
-68 121 -60 221 -155 272 -259 31 -64 34 -77 34 -165 0 -91 -2 -100 -37 -172
-64 -129 -197 -238 -360 -294 -142 -49 -194 -54 -574 -54 l-354 0 0 521 0 520
383 -3 c354 -4 388 -6 462 -26z m-1238 -1474 c-1 -145 -2 -27 -2 262 0 289 1
407 2 263 2 -145 2 -381 0 -525z m250 445 c-1 -65 -3 -14 -3 112 0 127 2 180
3 118 2 -62 2 -165 0 -230z m1053 -93 c0 -5 -7 -7 -15 -4 -8 4 -15 8 -15 10 0
2 7 4 15 4 8 0 15 -4 15 -10z m-43 -6 c-3 -3 -12 -4 -19 -1 -8 3 -5 6 6 6 11
1 17 -2 13 -5z m-54 -11 c-7 -2 -19 -2 -25 0 -7 3 -2 5 12 5 14 0 19 -2 13 -5z
m-55 -10 c-10 -2 -28 -2 -40 0 -13 2 -5 4 17 4 22 1 32 -1 23 -4z m-275 -10
c-111 -2 -295 -2 -410 0 -114 1 -24 2 202 2 226 0 319 -1 208 -2z m434 -85
c-2 -18 -4 -4 -4 32 0 36 2 50 4 33 2 -18 2 -48 0 -65z m-10 -70 c-3 -8 -6 -5
-6 6 -1 11 2 17 5 13 3 -3 4 -12 1 -19z m-16 -45 c-12 -20 -14 -14 -5 12 4 9
9 14 11 11 3 -2 0 -13 -6 -23z m-31 -62 c-5 -11 -15 -23 -21 -27 -6 -3 -3 5 6
20 20 30 30 35 15 7z m-70 -86 c-24 -25 -46 -45 -49 -45 -3 0 15 20 39 45 24
25 46 45 49 45 3 0 -15 -20 -39 -45z m-60 -49 c0 -2 -8 -10 -17 -17 -16 -13
-17 -12 -4 4 13 16 21 21 21 13z m-70 -51 c0 -6 -76 -45 -87 -45 -4 1 12 12
37 25 50 27 50 27 50 20z m-267 -102 c-7 -2 -19 -2 -25 0 -7 3 -2 5 12 5 14 0
19 -2 13 -5z m-65 -10 c-10 -2 -26 -2 -35 0 -10 3 -2 5 17 5 19 0 27 -2 18 -5z"/>
</g>
</svg>
