<svg height="260pt" preserveAspectRatio="xMidYMid meet" viewBox="0 0 260 260" width="260pt" xmlns="http://www.w3.org/2000/svg"><path d="m710 1950v-360l-202-2-203-3v-645-645h445c428 0 448 1 533 23 240 60 410 168 516 328 72 108 94 187 89 317-3 56-8 109-12 118-5 12 1 20 25 29 67 28 176 109 240 178 205 222 207 514 3 741-126 140-341 242-569 270-51 6-256 11-477 11h-388zm975 202c44-12 122-43 174-68 121-60 221-155 272-259 31-64 34-77 34-165 0-91-2-100-37-172-64-129-197-238-360-294-142-49-194-54-574-54h-354v521 520l383-3c354-4 388-6 462-26zm-1238-1474c-1-145-2-27-2 262s1 407 2 263c2-145 2-381 0-525zm250 445c-1-65-3-14-3 112 0 127 2 180 3 118 2-62 2-165 0-230zm1053-93c0-5-7-7-15-4-8 4-15 8-15 10s7 4 15 4 15-4 15-10zm-43-6c-3-3-12-4-19-1-8 3-5 6 6 6 11 1 17-2 13-5zm-54-11c-7-2-19-2-25 0-7 3-2 5 12 5s19-2 13-5zm-55-10c-10-2-28-2-40 0-13 2-5 4 17 4 22 1 32-1 23-4zm-275-10c-111-2-295-2-410 0-114 1-24 2 202 2s319-1 208-2zm434-85c-2-18-4-4-4 32s2 50 4 33c2-18 2-48 0-65zm-10-70c-3-8-6-5-6 6-1 11 2 17 5 13 3-3 4-12 1-19zm-16-45c-12-20-14-14-5 12 4 9 9 14 11 11 3-2 0-13-6-23zm-31-62c-5-11-15-23-21-27-6-3-3 5 6 20 20 30 30 35 15 7zm-70-86c-24-25-46-45-49-45s15 20 39 45 46 45 49 45-15-20-39-45zm-60-49c0-2-8-10-17-17-16-13-17-12-4 4s21 21 21 13zm-70-51c0-6-76-45-87-45-4 1 12 12 37 25 50 27 50 27 50 20zm-267-102c-7-2-19-2-25 0-7 3-2 5 12 5s19-2 13-5zm-65-10c-10-2-26-2-35 0-10 3-2 5 17 5s27-2 18-5z" transform="matrix(.1 0 0 -.1 0 260)"/></svg>