<svg width="331" height="26" fill="none" xmlns="http://www.w3.org/2000/svg"><path d="M5.412 17.22h7.56V21H.68V.602h4.732V17.22zM20.869 6.258c.961 0 1.838.15 2.632.448a5.659 5.659 0 0 1 2.058 1.302c.578.57 1.026 1.27 1.344 2.1.326.821.49 1.755.49 2.8 0 .327-.014.593-.042.798-.028.205-.08.369-.154.49a.584.584 0 0 1-.308.252c-.122.047-.28.07-.476.07H18.04c.14 1.213.508 2.095 1.106 2.646.597.541 1.367.812 2.31.812.504 0 .938-.06 1.302-.182.364-.121.686-.257.966-.406l.784-.406a1.67 1.67 0 0 1 .756-.182c.345 0 .606.126.784.378l1.26 1.554a6.539 6.539 0 0 1-1.456 1.26 7.785 7.785 0 0 1-1.596.756 8.45 8.45 0 0 1-1.638.364 11.38 11.38 0 0 1-1.554.112 8.313 8.313 0 0 1-2.87-.49 6.747 6.747 0 0 1-2.338-1.484c-.663-.653-1.19-1.465-1.582-2.436-.383-.97-.574-2.1-.574-3.388 0-.97.163-1.89.49-2.758a6.943 6.943 0 0 1 1.428-2.282 6.895 6.895 0 0 1 2.254-1.554c.886-.383 1.885-.574 2.996-.574zm.084 2.996c-.831 0-1.48.238-1.946.714-.467.467-.775 1.143-.924 2.03H23.5c0-.345-.047-.681-.14-1.008a2.239 2.239 0 0 0-.434-.868 2.112 2.112 0 0 0-.784-.63c-.327-.159-.724-.238-1.19-.238zm14.026 11.97c-.69 0-1.302-.098-1.834-.294a3.838 3.838 0 0 1-1.33-.854 3.76 3.76 0 0 1-.812-1.344 5.178 5.178 0 0 1-.28-1.75V9.478h-1.232a.838.838 0 0 1-.574-.21c-.159-.15-.238-.364-.238-.644V6.93l2.31-.448.854-3.542c.112-.448.43-.672.952-.672h2.268V6.51h3.528v2.968h-3.528v7.21c0 .336.08.616.238.84.168.215.406.322.714.322.159 0 .29-.014.392-.042.112-.037.206-.075.28-.112.084-.047.159-.084.224-.112a.556.556 0 0 1 .252-.056c.13 0 .234.033.308.098.084.056.168.15.252.28l1.316 2.058c-.56.42-1.19.737-1.89.952a7.67 7.67 0 0 1-2.17.308zM46.51 21V6.482h2.687c.27 0 .495.06.672.182a.96.96 0 0 1 .392.546l.238.784c.243-.252.495-.48.756-.686.262-.215.541-.397.84-.546.308-.159.635-.28.98-.364.355-.093.742-.14 1.162-.14.878 0 1.6.229 2.17.686.579.448 1.017 1.05 1.316 1.806.243-.448.537-.83.882-1.148a4.971 4.971 0 0 1 1.134-.77c.41-.196.84-.34 1.288-.434a6.8 6.8 0 0 1 1.358-.14c.83 0 1.568.126 2.212.378a4.06 4.06 0 0 1 1.61 1.078c.439.467.77 1.045.994 1.736.224.681.336 1.456.336 2.324V21h-4.34v-9.226c0-1.503-.644-2.254-1.932-2.254-.588 0-1.078.196-1.47.588-.383.383-.574.938-.574 1.666V21h-4.34v-9.226c0-.83-.163-1.414-.49-1.75-.327-.336-.807-.504-1.442-.504-.392 0-.765.089-1.12.266a4.102 4.102 0 0 0-.98.714V21h-4.34zM76.84 6.258c.962 0 1.839.15 2.632.448a5.657 5.657 0 0 1 2.058 1.302c.579.57 1.027 1.27 1.344 2.1.327.821.49 1.755.49 2.8 0 .327-.014.593-.042.798a1.258 1.258 0 0 1-.154.49.584.584 0 0 1-.308.252 1.34 1.34 0 0 1-.476.07h-8.372c.14 1.213.509 2.095 1.106 2.646.598.541 1.368.812 2.31.812.504 0 .938-.06 1.302-.182.364-.121.686-.257.966-.406l.784-.406c.243-.121.495-.182.756-.182.346 0 .607.126.784.378l1.26 1.554a6.536 6.536 0 0 1-1.456 1.26 7.78 7.78 0 0 1-1.596.756 8.447 8.447 0 0 1-1.638.364c-.541.075-1.059.112-1.554.112a8.313 8.313 0 0 1-2.87-.49 6.747 6.747 0 0 1-2.338-1.484c-.662-.653-1.19-1.465-1.582-2.436-.382-.97-.574-2.1-.574-3.388 0-.97.164-1.89.49-2.758a6.943 6.943 0 0 1 1.428-2.282 6.896 6.896 0 0 1 2.254-1.554c.887-.383 1.886-.574 2.996-.574zm.084 2.996c-.83 0-1.479.238-1.946.714-.466.467-.774 1.143-.924 2.03h5.418a3.63 3.63 0 0 0-.14-1.008 2.239 2.239 0 0 0-.434-.868 2.112 2.112 0 0 0-.784-.63c-.326-.159-.723-.238-1.19-.238zm23.221.406a1.092 1.092 0 0 1-.364.378.898.898 0 0 1-.476.112c-.206 0-.41-.042-.616-.126-.206-.093-.43-.191-.672-.294a6.063 6.063 0 0 0-.798-.28 3.425 3.425 0 0 0-1.022-.14c-.55 0-.975.107-1.274.322-.29.205-.434.495-.434.868 0 .27.093.495.28.672.196.177.453.336.77.476.317.13.676.257 1.078.378a27 27 0 0 1 1.232.406c.42.15.83.327 1.232.532.401.196.76.443 1.078.742.317.29.569.644.756 1.064.196.42.294.924.294 1.512 0 .719-.131 1.381-.392 1.988a4.182 4.182 0 0 1-1.176 1.568c-.513.439-1.153.78-1.918 1.022-.756.243-1.629.364-2.618.364-.495 0-.99-.047-1.484-.14-.495-.093-.975-.22-1.442-.378a8.336 8.336 0 0 1-1.274-.56 5.811 5.811 0 0 1-1.008-.714l1.008-1.596c.121-.187.266-.331.434-.434.168-.112.387-.168.658-.168.252 0 .476.056.672.168.205.112.424.233.658.364.233.13.504.252.812.364.317.112.714.168 1.19.168.336 0 .62-.033.854-.098.233-.075.42-.173.56-.294.14-.121.243-.257.308-.406a1.14 1.14 0 0 0 .098-.462.943.943 0 0 0-.294-.714 2.462 2.462 0 0 0-.77-.476 7.798 7.798 0 0 0-1.092-.378 27.04 27.04 0 0 1-1.232-.406c-.42-.15-.835-.327-1.246-.532a4.554 4.554 0 0 1-1.078-.798 3.795 3.795 0 0 1-.77-1.19c-.196-.467-.294-1.031-.294-1.694 0-.616.117-1.2.35-1.75a4.13 4.13 0 0 1 1.078-1.47c.476-.42 1.073-.751 1.792-.994.719-.252 1.559-.378 2.52-.378a7.99 7.99 0 0 1 1.512.14 7.71 7.71 0 0 1 1.386.392c.43.168.821.369 1.176.602.355.224.667.471.938.742l-.98 1.526zM103.602 21V.042h4.34v7.714a6.938 6.938 0 0 1 1.694-1.078c.616-.28 1.349-.42 2.198-.42.793 0 1.493.14 2.1.42a4.25 4.25 0 0 1 1.554 1.148 4.88 4.88 0 0 1 .952 1.75 7.18 7.18 0 0 1 .322 2.198V21h-4.34v-9.226c0-.71-.163-1.26-.49-1.652-.327-.401-.807-.602-1.442-.602a3.02 3.02 0 0 0-1.344.308c-.42.205-.821.48-1.204.826V21h-4.34zm26.266 0c-.411 0-.723-.056-.938-.168-.205-.112-.378-.345-.518-.7l-.308-.798c-.364.308-.714.579-1.05.812a6.932 6.932 0 0 1-1.05.602 4.983 4.983 0 0 1-1.148.35 6.576 6.576 0 0 1-1.344.126 6.073 6.073 0 0 1-1.806-.252 3.926 3.926 0 0 1-1.386-.77 3.405 3.405 0 0 1-.868-1.246c-.205-.504-.308-1.083-.308-1.736 0-.513.131-1.04.392-1.582.261-.541.714-1.031 1.358-1.47.644-.448 1.512-.821 2.604-1.12 1.092-.299 2.469-.467 4.13-.504v-.616c0-.85-.177-1.46-.532-1.834-.345-.383-.84-.574-1.484-.574-.513 0-.933.056-1.26.168a5.934 5.934 0 0 0-.882.378c-.252.14-.499.266-.742.378a2.058 2.058 0 0 1-.868.168c-.299 0-.555-.07-.77-.21a1.71 1.71 0 0 1-.49-.546l-.784-1.358a8.74 8.74 0 0 1 2.912-1.722 10.177 10.177 0 0 1 3.444-.574c.877 0 1.666.145 2.366.434.709.28 1.307.677 1.792 1.19a5.068 5.068 0 0 1 1.134 1.806c.261.7.392 1.465.392 2.296V21h-1.988zm-4.984-2.646c.56 0 1.05-.098 1.47-.294.42-.196.845-.513 1.274-.952v-2.016c-.868.037-1.582.112-2.142.224-.56.112-1.003.252-1.33.42-.327.168-.555.36-.686.574a1.402 1.402 0 0 0-.182.7c0 .495.135.845.406 1.05.271.196.667.294 1.19.294zM134.938 21V6.482h2.576c.214 0 .392.019.532.056.149.037.27.098.364.182a.639.639 0 0 1 .224.308c.056.13.102.29.14.476l.238 1.358c.532-.821 1.129-1.47 1.792-1.946a3.64 3.64 0 0 1 2.17-.714c.662 0 1.194.159 1.596.476l-.56 3.192c-.038.196-.112.336-.224.42a.797.797 0 0 1-.448.112c-.159 0-.346-.019-.56-.056a3.922 3.922 0 0 0-.812-.07c-1.139 0-2.035.607-2.688 1.82V21h-4.34zM152.72 6.258c.962 0 1.839.15 2.632.448a5.652 5.652 0 0 1 2.058 1.302c.579.57 1.027 1.27 1.344 2.1.327.821.49 1.755.49 2.8 0 .327-.014.593-.042.798a1.258 1.258 0 0 1-.154.49.58.58 0 0 1-.308.252 1.34 1.34 0 0 1-.476.07h-8.372c.14 1.213.509 2.095 1.106 2.646.598.541 1.368.812 2.31.812.504 0 .938-.06 1.302-.182.364-.121.686-.257.966-.406l.784-.406c.243-.121.495-.182.756-.182.346 0 .607.126.784.378l1.26 1.554a6.53 6.53 0 0 1-1.456 1.26 7.766 7.766 0 0 1-1.596.756 8.438 8.438 0 0 1-1.638.364c-.541.075-1.059.112-1.554.112a8.314 8.314 0 0 1-2.87-.49 6.753 6.753 0 0 1-2.338-1.484c-.662-.653-1.19-1.465-1.582-2.436-.382-.97-.574-2.1-.574-3.388 0-.97.164-1.89.49-2.758a6.943 6.943 0 0 1 1.428-2.282 6.907 6.907 0 0 1 2.254-1.554c.887-.383 1.886-.574 2.996-.574zm.084 2.996c-.83 0-1.479.238-1.946.714-.466.467-.774 1.143-.924 2.03h5.418a3.63 3.63 0 0 0-.14-1.008 2.23 2.23 0 0 0-.434-.868 2.11 2.11 0 0 0-.784-.63c-.326-.159-.723-.238-1.19-.238zM167.149 21V6.482h2.688c.27 0 .494.06.672.182a.965.965 0 0 1 .392.546l.238.784a7.32 7.32 0 0 1 .756-.686c.261-.215.541-.397.84-.546.308-.159.634-.28.98-.364a4.57 4.57 0 0 1 1.162-.14c.877 0 1.6.229 2.17.686.578.448 1.017 1.05 1.316 1.806a4.35 4.35 0 0 1 .882-1.148 4.94 4.94 0 0 1 1.134-.77c.41-.196.84-.34 1.288-.434a6.8 6.8 0 0 1 1.358-.14c.83 0 1.568.126 2.212.378a4.06 4.06 0 0 1 1.61 1.078c.438.467.77 1.045.994 1.736.224.681.336 1.456.336 2.324V21h-4.34v-9.226c0-1.503-.644-2.254-1.932-2.254-.588 0-1.078.196-1.47.588-.383.383-.574.938-.574 1.666V21h-4.34v-9.226c0-.83-.164-1.414-.49-1.75-.327-.336-.808-.504-1.442-.504a2.47 2.47 0 0 0-1.12.266 4.088 4.088 0 0 0-.98.714V21h-4.34zm29.506 3.766c-.131.29-.289.5-.476.63-.187.14-.485.21-.896.21h-3.248l2.8-5.88-5.796-13.244h3.836c.336 0 .597.075.784.224.187.15.317.327.392.532l2.38 6.258c.224.579.406 1.157.546 1.736.093-.299.196-.593.308-.882.112-.29.219-.583.322-.882l2.156-6.23c.075-.215.219-.392.434-.532a1.26 1.26 0 0 1 .714-.224h3.5l-7.756 18.284zm20.051-3.542c-.691 0-1.302-.098-1.834-.294a3.834 3.834 0 0 1-1.33-.854 3.744 3.744 0 0 1-.812-1.344 5.168 5.168 0 0 1-.28-1.75V9.478h-1.232a.836.836 0 0 1-.574-.21c-.159-.15-.238-.364-.238-.644V6.93l2.31-.448.854-3.542c.112-.448.429-.672.952-.672h2.268V6.51h3.528v2.968h-3.528v7.21c0 .336.079.616.238.84.168.215.406.322.714.322.158 0 .289-.014.392-.042.112-.037.205-.075.28-.112.084-.047.158-.084.224-.112a.552.552 0 0 1 .252-.056c.13 0 .233.033.308.098.084.056.168.15.252.28l1.316 2.058c-.56.42-1.19.737-1.89.952-.7.205-1.424.308-2.17.308zm6.115-.224V.042h4.34v7.714a6.92 6.92 0 0 1 1.694-1.078c.616-.28 1.348-.42 2.198-.42.793 0 1.493.14 2.1.42a4.25 4.25 0 0 1 1.554 1.148 4.88 4.88 0 0 1 .952 1.75 7.21 7.21 0 0 1 .322 2.198V21h-4.34v-9.226c0-.71-.164-1.26-.49-1.652-.327-.401-.808-.602-1.442-.602a3.02 3.02 0 0 0-1.344.308 5.18 5.18 0 0 0-1.204.826V21h-4.34zm22.71-14.742c1.101 0 2.104.173 3.01.518a6.53 6.53 0 0 1 2.324 1.484c.653.644 1.157 1.428 1.512 2.352.364.915.546 1.946.546 3.094 0 1.157-.182 2.203-.546 3.136a6.694 6.694 0 0 1-1.512 2.366 6.697 6.697 0 0 1-2.324 1.498c-.906.345-1.909.518-3.01.518-1.111 0-2.124-.173-3.038-.518a6.98 6.98 0 0 1-2.352-1.498 6.838 6.838 0 0 1-1.526-2.366c-.355-.933-.532-1.979-.532-3.136 0-1.148.177-2.18.532-3.094.364-.924.872-1.708 1.526-2.352a6.806 6.806 0 0 1 2.352-1.484c.914-.345 1.927-.518 3.038-.518zm0 11.746c.998 0 1.731-.35 2.198-1.05.476-.71.714-1.783.714-3.22 0-1.437-.238-2.506-.714-3.206-.467-.7-1.2-1.05-2.198-1.05-1.027 0-1.778.35-2.254 1.05-.476.7-.714 1.769-.714 3.206s.238 2.51.714 3.22c.476.7 1.227 1.05 2.254 1.05zm13.834-11.522v9.212c0 .719.163 1.274.49 1.666.327.392.807.588 1.442.588.476 0 .919-.098 1.33-.294.42-.196.826-.471 1.218-.826V6.482h4.34V21h-2.688c-.541 0-.896-.243-1.064-.728l-.266-.84c-.28.27-.569.518-.868.742a5.824 5.824 0 0 1-.966.56c-.336.15-.7.266-1.092.35-.392.093-.821.14-1.288.14-.793 0-1.498-.135-2.114-.406a4.421 4.421 0 0 1-1.54-1.162 5.043 5.043 0 0 1-.952-1.75 7.228 7.228 0 0 1-.322-2.212V6.482h4.34zm17.306-.252c.616 0 1.195.06 1.736.182a6.97 6.97 0 0 1 1.526.518h4.382v1.582c0 .243-.07.434-.21.574-.13.14-.359.247-.686.322l-1.064.238c.131.42.196.854.196 1.302 0 .728-.154 1.381-.462 1.96a4.41 4.41 0 0 1-1.246 1.484c-.522.401-1.143.714-1.862.938a8.026 8.026 0 0 1-2.31.322c-.457 0-.886-.028-1.288-.084-.317.187-.476.401-.476.644s.126.42.378.532c.262.103.602.177 1.022.224.42.037.901.065 1.442.084.542.01 1.092.042 1.652.098.56.047 1.111.13 1.652.252a4.415 4.415 0 0 1 1.442.588c.42.27.756.635 1.008 1.092.262.448.392 1.022.392 1.722 0 .653-.158 1.293-.476 1.918-.317.625-.784 1.18-1.4 1.666-.616.485-1.372.873-2.268 1.162-.896.299-1.922.448-3.08.448-1.138 0-2.123-.107-2.954-.322-.821-.215-1.507-.5-2.058-.854-.541-.345-.942-.747-1.204-1.204a2.843 2.843 0 0 1-.392-1.428c0-.644.196-1.185.588-1.624.392-.448.929-.798 1.61-1.05a2.465 2.465 0 0 1-.784-.826c-.196-.336-.294-.76-.294-1.274a2.486 2.486 0 0 1 .462-1.372c.159-.224.36-.439.602-.644a3.95 3.95 0 0 1 .868-.546c-.756-.401-1.353-.933-1.792-1.596-.429-.663-.644-1.433-.644-2.31 0-.728.154-1.381.462-1.96a4.387 4.387 0 0 1 1.26-1.484 5.864 5.864 0 0 1 1.904-.938 8.01 8.01 0 0 1 2.366-.336zm3.22 15.302a.729.729 0 0 0-.224-.56 1.478 1.478 0 0 0-.588-.336 4.027 4.027 0 0 0-.868-.182 16.469 16.469 0 0 0-1.064-.084 45.357 45.357 0 0 0-1.19-.042c-.41-.019-.816-.051-1.218-.098-.27.187-.494.397-.672.63a1.25 1.25 0 0 0-.252.77c0 .205.042.392.126.56.094.168.252.313.476.434.224.121.523.215.896.28.383.075.864.112 1.442.112.626 0 1.139-.037 1.54-.112.402-.075.719-.177.952-.308.243-.13.411-.29.504-.476.094-.177.14-.373.14-.588zm-3.22-8.554c.719 0 1.237-.177 1.554-.532.327-.364.49-.83.49-1.4 0-.588-.163-1.05-.49-1.386-.317-.336-.835-.504-1.554-.504-.718 0-1.241.168-1.568.504-.317.336-.476.798-.476 1.386 0 .28.038.537.112.77.084.233.21.439.378.616.168.168.378.303.63.406.262.093.57.14.924.14zM286.203 21V.042h4.34v7.714a6.957 6.957 0 0 1 1.694-1.078c.616-.28 1.349-.42 2.198-.42.794 0 1.494.14 2.1.42a4.25 4.25 0 0 1 1.554 1.148c.42.485.738 1.069.952 1.75a7.18 7.18 0 0 1 .322 2.198V21h-4.34v-9.226c0-.71-.163-1.26-.49-1.652-.326-.401-.807-.602-1.442-.602a3.02 3.02 0 0 0-1.344.308c-.42.205-.821.48-1.204.826V21h-4.34zm21.339.224c-.691 0-1.302-.098-1.834-.294a3.834 3.834 0 0 1-1.33-.854 3.744 3.744 0 0 1-.812-1.344 5.168 5.168 0 0 1-.28-1.75V9.478h-1.232a.836.836 0 0 1-.574-.21c-.159-.15-.238-.364-.238-.644V6.93l2.31-.448.854-3.542c.112-.448.429-.672.952-.672h2.268V6.51h3.528v2.968h-3.528v7.21c0 .336.079.616.238.84.168.215.406.322.714.322.158 0 .289-.014.392-.042.112-.037.205-.075.28-.112.084-.047.158-.084.224-.112a.552.552 0 0 1 .252-.056c.13 0 .233.033.308.098.084.056.168.15.252.28l1.316 2.058c-.56.42-1.19.737-1.89.952-.7.205-1.424.308-2.17.308zM322.533 9.66a1.098 1.098 0 0 1-.364.378.9.9 0 0 1-.476.112c-.206 0-.411-.042-.616-.126-.206-.093-.43-.191-.672-.294a6.136 6.136 0 0 0-.798-.28 3.43 3.43 0 0 0-1.022-.14c-.551 0-.976.107-1.274.322-.29.205-.434.495-.434.868 0 .27.093.495.28.672.196.177.452.336.77.476.317.13.676.257 1.078.378.401.121.812.257 1.232.406.42.15.83.327 1.232.532.401.196.76.443 1.078.742.317.29.569.644.756 1.064.196.42.294.924.294 1.512 0 .719-.131 1.381-.392 1.988a4.204 4.204 0 0 1-1.176 1.568c-.514.439-1.153.78-1.918 1.022-.756.243-1.629.364-2.618.364-.495 0-.99-.047-1.484-.14a10.56 10.56 0 0 1-1.442-.378 8.306 8.306 0 0 1-1.274-.56 5.811 5.811 0 0 1-1.008-.714l1.008-1.596c.121-.187.266-.331.434-.434.168-.112.387-.168.658-.168.252 0 .476.056.672.168.205.112.424.233.658.364.233.13.504.252.812.364.317.112.714.168 1.19.168.336 0 .62-.033.854-.098.233-.075.42-.173.56-.294.14-.121.242-.257.308-.406.065-.15.098-.303.098-.462a.943.943 0 0 0-.294-.714 2.467 2.467 0 0 0-.77-.476 7.861 7.861 0 0 0-1.092-.378 26.759 26.759 0 0 1-1.232-.406c-.42-.15-.836-.327-1.246-.532a4.532 4.532 0 0 1-1.078-.798 3.783 3.783 0 0 1-.77-1.19c-.196-.467-.294-1.031-.294-1.694 0-.616.116-1.2.35-1.75a4.13 4.13 0 0 1 1.078-1.47c.476-.42 1.073-.751 1.792-.994.718-.252 1.558-.378 2.52-.378.522 0 1.026.047 1.512.14a7.76 7.76 0 0 1 1.386.392c.429.168.821.369 1.176.602.354.224.667.471.938.742l-.98 1.526zm2.616 9.142c0-.336.06-.649.182-.938.13-.29.303-.541.518-.756.224-.215.485-.383.784-.504.298-.13.625-.196.98-.196.345 0 .667.065.966.196.298.121.56.29.784.504.224.215.396.467.518.756.13.29.196.602.196.938 0 .336-.066.653-.196.952a2.24 2.24 0 0 1-.518.756 2.464 2.464 0 0 1-.784.504 2.545 2.545 0 0 1-.966.182c-.355 0-.682-.06-.98-.182a2.453 2.453 0 0 1-.784-.504 2.514 2.514 0 0 1-.518-.756 2.492 2.492 0 0 1-.182-.952z" fill="#121111"/></svg>