<svg fill="none" height="31" viewBox="0 0 193 31" width="193" xmlns="http://www.w3.org/2000/svg"><path d="m12.896 21.096c.7467 0 1.408-.064 1.984-.192s1.12-.2987 1.632-.512v-3.536h-2.304c-.3413 0-.608-.0907-.8-.272s-.288-.4107-.288-.688v-2.976h8.288v9.84c-.5973.4373-1.2213.816-1.872 1.136-.64.3093-1.328.5653-2.064.768-.7253.2027-1.504.352-2.336.448-.8213.096-1.7067.144-2.656.144-1.7067 0-3.28533-.2987-4.736-.896-1.45067-.608-2.70933-1.44-3.776-2.496-1.056-1.0667-1.888-2.3253-2.496-3.776-.597333-1.4613-.896-3.0453-.896-4.752 0-1.7387.288-3.3333.864-4.784.576-1.46133 1.39733-2.72 2.464-3.776 1.07733-1.056 2.37333-1.87733 3.888-2.464 1.52533-.58667 3.2267-.88 5.104-.88.9707 0 1.8827.08 2.736.24s1.6373.37867 2.352.656c.7253.27733 1.3867.608 1.984.992s1.1307.8 1.6 1.248l-1.568 2.384c-.1493.224-.3307.4-.544.528-.2027.128-.4267.192-.672.192-.32 0-.6507-.10667-.992-.32-.4267-.256-.832-.47467-1.216-.656-.3733-.192-.7573-.34667-1.152-.464s-.8107-.20267-1.248-.256-.928-.08-1.472-.08c-1.0133 0-1.9253.18133-2.736.544-.81067.352-1.504.85333-2.08 1.504-.56533.65067-1.00267 1.43467-1.312 2.352-.30933.9067-.464 1.92-.464 3.04 0 1.2373.17067 2.336.512 3.296s.81067 1.7707 1.408 2.432c.608.6613 1.32267 1.168 2.144 1.52.832.3413 1.7387.512 2.72.512zm17.2453-12.688v16.592h-4.9601v-16.592zm.5759-4.544c0 .39467-.08.768-.2399 1.12-.1601.34133-.3787.64533-.6561.912-.2773.256-.6026.464-.9759.624-.3627.14933-.7521.224-1.1681.224-.4053 0-.784-.07467-1.136-.224-.352-.16-.6666-.368-.944-.624-.2666-.26667-.48-.57067-.64-.912-.1493-.352-.224-.72533-.224-1.12 0-.40533.0747-.784.224-1.136.16-.352.3734-.66133.64-.928.2774-.26667.592-.47467.944-.624s.7307-.224 1.136-.224c.416 0 .8054.07467 1.1681.224.3733.14933.6986.35733.9759.624.2774.26667.496.576.6561.928.1599.352.2399.73067.2399 1.136zm3.749 21.136v-16.592h3.072c.3094 0 .5654.06933.768.208.2134.13867.3627.34667.448.624l.272.896c.2774-.288.5654-.54933.864-.784.2987-.24533.6187-.45333.9601-.624.352-.18133.7253-.32 1.12-.416.4053-.10667.848-.16 1.328-.16 1.0026 0 1.8293.26133 2.4799.784.6614.512 1.1627 1.2 1.5041 2.064.2773-.512.6133-.9493 1.0079-1.312.4054-.36267.8374-.656 1.2961-.88.4693-.224.96-.38933 1.472-.496.5226-.10667 1.04-.16 1.552-.16.9493 0 1.792.144 2.528.432.736.27733 1.3493.688 1.84 1.232.5013.5333.88 1.1947 1.136 1.984.256.7787.384 1.664.384 2.656v10.544h-4.9601v-10.544c0-1.7173-.736-2.576-2.208-2.576-.6719 0-1.2319.224-1.68.672-.4373.4373-.656 1.072-.656 1.904v10.544h-4.9599v-10.544c0-.9493-.1867-1.616-.5601-2-.3733-.384-.9226-.576-1.6479-.576-.448 0-.8747.1013-1.2801.304-.3946.2027-.768.4747-1.12.816v12zm27.8825 0v-23.952h4.96v9.12c.6187-.608 1.3174-1.09333 2.096-1.456.7894-.37333 1.712-.56 2.768-.56.864 0 1.6641.18667 2.4001.56s1.3706.92267 1.9039 1.648c.5334.7147.9494 1.5947 1.2481 2.64.3093 1.0453.4639 2.2347.4639 3.568 0 1.248-.176 2.4-.528 3.456-.3413 1.056-.8266 1.9733-1.4559 2.752-.6187.7787-1.3654 1.3867-2.2401 1.824-.864.4373-1.824.656-2.88.656-.4906 0-.9333-.048-1.328-.144-.384-.096-.7413-.2293-1.072-.4-.32-.1813-.6186-.3947-.896-.64-.2666-.2453-.528-.512-.784-.8l-.176.832c-.0746.3413-.2133.576-.416.704-.192.128-.448.192-.768.192zm8.096-13.12c-.3626 0-.6933.0373-.992.112-.288.064-.56.16-.816.288-.2453.128-.4746.2933-.688.496-.2133.192-.4266.416-.64.672v7.04c.3734.416.7787.7093 1.216.88.4374.16.896.24 1.376.24.4587 0 .88-.0907 1.264-.272s.7147-.4693.992-.864c.288-.4053.512-.928.672-1.568s.24-1.4187.24-2.336c0-.8747-.064-1.6107-.192-2.208s-.3093-1.0773-.544-1.44c-.224-.3733-.496-.64-.816-.8s-.6773-.24-1.072-.24zm22.2425 13.12c-.4693 0-.8266-.064-1.072-.192-.2346-.128-.432-.3947-.592-.8l-.352-.912c-.416.352-.816.6613-1.2.928s-.784.496-1.2.688c-.4053.1813-.8426.3147-1.312.4-.4586.096-.9706.144-1.536.144-.7573 0-1.4453-.096-2.064-.288-.6186-.2027-1.1466-.496-1.584-.88-.4266-.384-.7573-.8587-.992-1.424-.2346-.576-.352-1.2373-.352-1.984 0-.5867.1494-1.1893.448-1.808.2987-.6187.816-1.1787 1.552-1.68.736-.512 1.728-.9387 2.976-1.28s2.8214-.5333 4.72-.576v-.704c0-.9707-.2026-1.6693-.608-2.096-.3946-.4373-.96-.656-1.696-.656-.5866 0-1.0666.064-1.44.192-.3733.128-.7093.272-1.008.432-.288.16-.5706.304-.848.432-.2773.128-.608.192-.992.192-.3413 0-.6346-.08-.88-.24-.2346-.1707-.4213-.3787-.56-.624l-.896-1.552c1.0027-.88533 2.112-1.54133 3.328-1.968 1.2267-.43733 2.5387-.656 3.936-.656 1.0027 0 1.904.16533 2.704.496.8107.32 1.4934.77333 2.048 1.36.5654.576.9974 1.264 1.296 2.064.2987.8.448 1.6747.448 2.624v10.368zm-5.696-3.024c.64 0 1.2-.112 1.68-.336s.9654-.5867 1.456-1.088v-2.304c-.992.0427-1.808.128-2.448.256s-1.1466.288-1.52.48c-.3733.192-.6346.4107-.784.656-.1386.2453-.208.512-.208.8 0 .5653.1547.9653.464 1.2.3094.224.7627.336 1.36.336zm11.81 8.288v-21.856h3.0718c.31 0 .566.06933.768.208.214.13867.363.34667.448.624l.368 1.216c.32-.352.662-.672 1.024-.96.374-.288.768-.53333 1.184-.736.427-.21333.88-.37867 1.36-.496.491-.11733 1.024-.176 1.6-.176.864 0 1.664.192 2.4.576s1.371.93867 1.904 1.664c.534.7253.95 1.616 1.248 2.672.31 1.0453.464 2.2347.464 3.568 0 1.248-.176 2.4-.528 3.456-.341 1.056-.826 1.9733-1.456 2.752-.618.7787-1.365 1.3867-2.24 1.824-.864.4373-1.824.656-2.88.656-.864 0-1.589-.1227-2.176-.368-.586-.2453-1.12-.576-1.6-.992v6.368zm8.0958-18.384c-.362 0-.693.0373-.992.112-.288.064-.56.16-.816.288-.245.128-.474.2933-.688.496-.213.192-.426.416-.64.672v7.04c.374.416.779.7093 1.216.88.438.16.896.24 1.376.24.459 0 .88-.0907 1.264-.272s.715-.4693.992-.864c.288-.4053.512-.928.672-1.568s.24-1.4187.24-2.336c0-.8747-.064-1.6107-.192-2.208s-.309-1.0773-.544-1.44c-.224-.3733-.496-.64-.816-.8s-.677-.24-1.072-.24zm32.896 7.088c.128 0 .256.0267.384.08.128.0427.25.1227.368.24l2.144 2.256c-.939 1.2267-2.118 2.1547-3.536 2.784-1.408.6187-3.078.928-5.008.928-1.771 0-3.36-.2987-4.768-.896-1.398-.608-2.587-1.44-3.568-2.496-.971-1.0667-1.718-2.3253-2.24-3.776-.523-1.4613-.784-3.0453-.784-4.752 0-1.7387.298-3.3333.896-4.784.597-1.46133 1.429-2.72 2.496-3.776 1.077-1.056 2.362-1.87733 3.856-2.464 1.493-.58667 3.141-.88 4.944-.88.874 0 1.696.08 2.464.24.778.14933 1.504.36266 2.176.64.672.26667 1.29.592 1.856.976.565.37333 1.066.78933 1.504 1.248l-1.824 2.448c-.118.14933-.256.288-.416.416-.16.11733-.384.176-.672.176-.192 0-.374-.04267-.544-.128-.171-.08533-.352-.18667-.544-.304-.192-.128-.406-.26133-.64-.4-.224-.14933-.496-.28267-.816-.4-.31-.128-.678-.23467-1.104-.32-.416-.08533-.907-.128-1.472-.128-.982 0-1.878.176-2.688.528-.811.34133-1.51.83733-2.096 1.488-.576.64-1.03 1.41867-1.36 2.336-.32.9173-.48 1.9467-.48 3.088 0 1.1947.16 2.256.48 3.184.33.928.773 1.712 1.328 2.352.565.6293 1.221 1.1093 1.968 1.44.746.3307 1.546.496 2.4.496.49 0 .938-.0213 1.344-.064.405-.0533.778-.1387 1.12-.256.352-.1173.682-.2667.992-.448.32-.192.64-.4267.96-.704.128-.1067.266-.192.416-.256.149-.0747.304-.112.464-.112zm5.687 6.032v-23.952h4.96v8.816c.597-.512 1.243-.92267 1.936-1.232.704-.32 1.541-.48 2.512-.48.907 0 1.707.16 2.4.48.704.30933 1.296.74667 1.776 1.312.48.5547.843 1.2213 1.088 2 .245.768.368 1.6053.368 2.512v10.544h-4.96v-10.544c0-.8107-.187-1.44-.56-1.888-.373-.4587-.923-.688-1.648-.688-.544 0-1.056.1173-1.536.352s-.939.5493-1.376.944v11.824zm30.339 0c-.47 0-.827-.064-1.072-.192-.235-.128-.432-.3947-.592-.8l-.352-.912c-.416.352-.816.6613-1.2.928s-.784.496-1.2.688c-.406.1813-.843.3147-1.312.4-.459.096-.971.144-1.536.144-.758 0-1.446-.096-2.064-.288-.619-.2027-1.147-.496-1.584-.88-.427-.384-.758-.8587-.992-1.424-.235-.576-.352-1.2373-.352-1.984 0-.5867.149-1.1893.448-1.808.298-.6187.816-1.1787 1.552-1.68.736-.512 1.728-.9387 2.976-1.28s2.821-.5333 4.72-.576v-.704c0-.9707-.203-1.6693-.608-2.096-.395-.4373-.96-.656-1.696-.656-.587 0-1.067.064-1.44.192-.374.128-.71.272-1.008.432-.288.16-.571.304-.848.432-.278.128-.608.192-.992.192-.342 0-.635-.08-.88-.24-.235-.1707-.422-.3787-.56-.624l-.896-1.552c1.002-.88533 2.112-1.54133 3.328-1.968 1.226-.43733 2.538-.656 3.936-.656 1.002 0 1.904.16533 2.704.496.81.32 1.493.77333 2.048 1.36.565.576.997 1.264 1.296 2.064.298.8.448 1.6747.448 2.624v10.368zm-5.696-3.024c.64 0 1.2-.112 1.68-.336s.965-.5867 1.456-1.088v-2.304c-.992.0427-1.808.128-2.448.256s-1.147.288-1.52.48c-.374.192-.635.4107-.784.656-.139.2453-.208.512-.208.8 0 .5653.154.9653.464 1.2.309.224.762.336 1.36.336zm17.633 3.28c-.789 0-1.488-.112-2.096-.336-.597-.2347-1.104-.56-1.52-.976-.405-.4267-.714-.9387-.928-1.536-.213-.5973-.32-1.264-.32-2v-8.576h-1.408c-.256 0-.474-.08-.656-.24-.181-.1707-.272-.416-.272-.736v-1.936l2.64-.512.976-4.048c.128-.512.491-.768 1.088-.768h2.592v4.848h4.032v3.392h-4.032v8.24c0 .384.091.704.272.96.192.2453.464.368.816.368.182 0 .331-.016.448-.048.128-.0427.235-.0853.32-.128.096-.0533.182-.096.256-.128.086-.0427.182-.064.288-.064.15 0 .267.0373.352.112.096.064.192.1707.288.32l1.504 2.352c-.64.48-1.36.8427-2.16 1.088-.8.2347-1.626.352-2.48.352z" fill="#121111"/></svg>