<svg width="264" height="25" fill="none" xmlns="http://www.w3.org/2000/svg"><path d="M6.328 15.376V24H.92V.688h7.584c1.685 0 3.12.176 4.304.528 1.195.341 2.165.821 2.912 1.44.757.619 1.307 1.35 1.648 2.192A7.27 7.27 0 0 1 17.88 7.6c0 .757-.101 1.472-.304 2.144a6.49 6.49 0 0 1-.912 1.872 6.837 6.837 0 0 1-1.472 1.52 7.677 7.677 0 0 1-2 1.104c.363.181.699.405 1.008.672.32.267.597.592.832.976L19.992 24h-4.896c-.907 0-1.557-.341-1.952-1.024l-3.872-6.768c-.17-.299-.373-.512-.608-.64-.224-.128-.544-.192-.96-.192H6.328zm0-3.728h2.176c.736 0 1.36-.09 1.872-.272.523-.192.95-.453 1.28-.784.33-.33.57-.715.72-1.152.15-.448.224-.928.224-1.44 0-1.024-.336-1.824-1.008-2.4-.661-.576-1.69-.864-3.088-.864H6.328v6.912zM33.978 24c-.47 0-.827-.064-1.073-.192-.234-.128-.432-.395-.592-.8l-.352-.912a16.02 16.02 0 0 1-1.2.928 7.912 7.912 0 0 1-1.2.688 5.693 5.693 0 0 1-1.312.4c-.458.096-.97.144-1.536.144a6.944 6.944 0 0 1-2.064-.288 4.483 4.483 0 0 1-1.584-.88 3.893 3.893 0 0 1-.992-1.424c-.234-.576-.352-1.237-.352-1.984 0-.587.15-1.19.448-1.808.299-.619.816-1.179 1.552-1.68.736-.512 1.728-.939 2.976-1.28 1.248-.341 2.822-.533 4.72-.576v-.704c0-.97-.202-1.67-.608-2.096-.394-.437-.96-.656-1.696-.656-.586 0-1.066.064-1.44.192a6.8 6.8 0 0 0-1.008.432c-.288.16-.57.304-.848.432-.277.128-.608.192-.992.192-.341 0-.634-.08-.88-.24a1.956 1.956 0 0 1-.56-.624l-.896-1.552a9.993 9.993 0 0 1 3.328-1.968c1.227-.437 2.539-.656 3.936-.656 1.003 0 1.904.165 2.704.496a5.6 5.6 0 0 1 2.048 1.36 5.803 5.803 0 0 1 1.296 2.064c.299.8.448 1.675.448 2.624V24h-2.272zm-5.697-3.024c.64 0 1.2-.112 1.68-.336.48-.224.966-.587 1.456-1.088v-2.304c-.992.043-1.808.128-2.448.256-.64.128-1.146.288-1.52.48-.373.192-.634.41-.784.656a1.599 1.599 0 0 0-.208.8c0 .565.155.965.464 1.2.31.224.763.336 1.36.336zM40.091 24V7.408h3.072c.31 0 .566.07.768.208.214.139.363.347.448.624l.288.96c.32-.299.65-.576.992-.832a5.6 5.6 0 0 1 1.088-.64c.395-.181.816-.32 1.264-.416.459-.107.955-.16 1.488-.16.907 0 1.707.16 2.4.48.704.31 1.296.747 1.776 1.312.48.555.843 1.221 1.088 2 .246.768.368 1.605.368 2.512V24h-4.96V13.456c0-.81-.186-1.44-.56-1.888-.373-.459-.922-.688-1.648-.688-.544 0-1.056.117-1.536.352s-.938.55-1.376.944V24h-4.96zm30.85-12.656a2.784 2.784 0 0 1-.431.432c-.139.107-.336.16-.592.16-.246 0-.47-.059-.672-.176a23.15 23.15 0 0 0-.656-.384 4.655 4.655 0 0 0-.864-.4c-.33-.117-.742-.176-1.232-.176-.608 0-1.136.112-1.584.336a2.93 2.93 0 0 0-1.088.96c-.288.416-.502.928-.64 1.536a9.024 9.024 0 0 0-.208 2.032c0 1.59.304 2.81.912 3.664.618.853 1.466 1.28 2.544 1.28.576 0 1.03-.07 1.36-.208.341-.15.63-.31.864-.48l.64-.496c.202-.15.453-.224.752-.224.394 0 .693.144.896.432l1.44 1.776a8.045 8.045 0 0 1-1.616 1.44 8.55 8.55 0 0 1-1.744.864 8.75 8.75 0 0 1-1.776.416c-.598.085-1.179.128-1.744.128a7.543 7.543 0 0 1-2.912-.576 7.273 7.273 0 0 1-2.432-1.664c-.694-.736-1.248-1.637-1.664-2.704-.406-1.067-.608-2.283-.608-3.648 0-1.195.176-2.31.528-3.344.362-1.045.89-1.947 1.584-2.704.704-.768 1.568-1.37 2.592-1.808 1.034-.437 2.23-.656 3.584-.656 1.301 0 2.442.208 3.424.624A8.215 8.215 0 0 1 72.254 9.6l-1.312 1.744zM74.857 24V.048h4.96v8.816a7.931 7.931 0 0 1 1.936-1.232c.704-.32 1.542-.48 2.512-.48.907 0 1.707.16 2.4.48.704.31 1.296.747 1.776 1.312.48.555.843 1.221 1.088 2 .246.768.368 1.605.368 2.512V24h-4.96V13.456c0-.81-.186-1.44-.56-1.888-.373-.459-.922-.688-1.648-.688a3.45 3.45 0 0 0-1.536.352c-.48.235-.938.55-1.376.944V24h-4.96zm26.275-16.848c1.258 0 2.405.197 3.44.592a7.47 7.47 0 0 1 2.656 1.696c.746.736 1.322 1.632 1.728 2.688.416 1.045.624 2.224.624 3.536 0 1.323-.208 2.517-.624 3.584-.406 1.056-.982 1.957-1.728 2.704a7.655 7.655 0 0 1-2.656 1.712c-1.035.395-2.182.592-3.44.592-1.27 0-2.427-.197-3.472-.592a7.992 7.992 0 0 1-2.688-1.712c-.747-.747-1.328-1.648-1.744-2.704-.406-1.067-.608-2.261-.608-3.584 0-1.312.202-2.49.608-3.536.416-1.056.997-1.952 1.744-2.688a7.793 7.793 0 0 1 2.688-1.696c1.045-.395 2.202-.592 3.472-.592zm0 13.424c1.141 0 1.978-.4 2.512-1.2.544-.81.816-2.037.816-3.68 0-1.643-.272-2.864-.816-3.664-.534-.8-1.371-1.2-2.512-1.2-1.174 0-2.032.4-2.576 1.2-.544.8-.816 2.021-.816 3.664 0 1.643.272 2.87.816 3.68.544.8 1.402 1.2 2.576 1.2zm30.99-15.152c-.16.256-.331.448-.512.576-.171.128-.395.192-.672.192-.246 0-.512-.075-.8-.224-.278-.16-.598-.336-.96-.528a7.212 7.212 0 0 0-1.216-.512 4.751 4.751 0 0 0-1.568-.24c-1.014 0-1.771.219-2.272.656-.491.427-.736 1.008-.736 1.744 0 .47.149.859.448 1.168.298.31.688.576 1.168.8.49.224 1.045.432 1.664.624.629.181 1.269.39 1.92.624.65.224 1.285.49 1.904.8.629.31 1.184.704 1.664 1.184.49.48.885 1.067 1.184 1.76.298.683.448 1.51.448 2.48a8.114 8.114 0 0 1-.56 3.024 7.126 7.126 0 0 1-1.632 2.464c-.704.693-1.579 1.243-2.624 1.648-1.035.395-2.214.592-3.536.592-.726 0-1.467-.075-2.224-.224a13.72 13.72 0 0 1-2.176-.624 13.153 13.153 0 0 1-1.984-.976 8.396 8.396 0 0 1-1.616-1.248l1.6-2.528c.117-.192.282-.347.496-.464.213-.117.442-.176.688-.176.32 0 .64.101.96.304.33.203.698.427 1.104.672.416.245.89.47 1.424.672.533.203 1.162.304 1.888.304.981 0 1.744-.213 2.288-.64.544-.437.816-1.125.816-2.064 0-.544-.15-.987-.448-1.328-.299-.341-.694-.624-1.184-.848-.48-.224-1.03-.421-1.648-.592a59.8 59.8 0 0 1-1.904-.56 15.365 15.365 0 0 1-1.904-.768 6.345 6.345 0 0 1-1.664-1.2c-.48-.501-.87-1.12-1.168-1.856-.299-.747-.448-1.664-.448-2.752a6.603 6.603 0 0 1 2.08-4.784c.682-.65 1.52-1.168 2.512-1.552.992-.395 2.128-.592 3.408-.592.714 0 1.408.059 2.08.176a10.13 10.13 0 0 1 1.936.496 9.497 9.497 0 0 1 1.696.784 7.49 7.49 0 0 1 1.424 1.024l-1.344 2.512zm12.063 1.728c1.259 0 2.406.197 3.44.592 1.035.395 1.92.96 2.656 1.696.747.736 1.323 1.632 1.728 2.688.416 1.045.624 2.224.624 3.536 0 1.323-.208 2.517-.624 3.584-.405 1.056-.981 1.957-1.728 2.704a7.646 7.646 0 0 1-2.656 1.712c-1.034.395-2.181.592-3.44.592-1.269 0-2.426-.197-3.472-.592a8.004 8.004 0 0 1-2.688-1.712c-.746-.747-1.328-1.648-1.744-2.704-.405-1.067-.608-2.261-.608-3.584 0-1.312.203-2.49.608-3.536.416-1.056.998-1.952 1.744-2.688a7.805 7.805 0 0 1 2.688-1.696c1.046-.395 2.203-.592 3.472-.592zm0 13.424c1.142 0 1.979-.4 2.512-1.2.544-.81.816-2.037.816-3.68 0-1.643-.272-2.864-.816-3.664-.533-.8-1.37-1.2-2.512-1.2-1.173 0-2.032.4-2.576 1.2-.544.8-.816 2.021-.816 3.664 0 1.643.272 2.87.816 3.68.544.8 1.403 1.2 2.576 1.2zM155.675 24V7.408h3.072c.309 0 .565.07.768.208a1.1 1.1 0 0 1 .448.624l.272.896c.277-.288.565-.55.864-.784a5.16 5.16 0 0 1 .96-.624c.352-.181.725-.32 1.12-.416.405-.107.848-.16 1.328-.16 1.003 0 1.829.261 2.48.784.661.512 1.163 1.2 1.504 2.064.277-.512.613-.95 1.008-1.312a5.665 5.665 0 0 1 1.296-.88 6.43 6.43 0 0 1 1.472-.496 7.748 7.748 0 0 1 1.552-.16c.949 0 1.792.144 2.528.432a4.632 4.632 0 0 1 1.84 1.232c.501.533.88 1.195 1.136 1.984.256.779.384 1.664.384 2.656V24h-4.96V13.456c0-1.717-.736-2.576-2.208-2.576-.672 0-1.232.224-1.68.672-.437.437-.656 1.072-.656 1.904V24h-4.96V13.456c0-.95-.187-1.616-.56-2-.373-.384-.923-.576-1.648-.576a2.82 2.82 0 0 0-1.28.304 4.683 4.683 0 0 0-1.12.816v12h-4.96zm27.882 0V.048h4.96v9.12a7.485 7.485 0 0 1 2.096-1.456c.79-.373 1.712-.56 2.768-.56.864 0 1.664.187 2.4.56.736.373 1.371.923 1.904 1.648.534.715.95 1.595 1.248 2.64.31 1.045.464 2.235.464 3.568 0 1.248-.176 2.4-.528 3.456-.341 1.056-.826 1.973-1.456 2.752a6.594 6.594 0 0 1-2.24 1.824c-.864.437-1.824.656-2.88.656-.49 0-.933-.048-1.328-.144a4.946 4.946 0 0 1-1.072-.4 5.298 5.298 0 0 1-.896-.64 11.298 11.298 0 0 1-.784-.8l-.176.832c-.074.341-.213.576-.416.704-.192.128-.448.192-.768.192h-3.296zm8.096-13.12a4.08 4.08 0 0 0-.992.112c-.288.064-.56.16-.816.288a3.06 3.06 0 0 0-.688.496 6.61 6.61 0 0 0-.64.672v7.04c.374.416.779.71 1.216.88.438.16.896.24 1.376.24.459 0 .88-.09 1.264-.272.384-.181.715-.47.992-.864.288-.405.512-.928.672-1.568.16-.64.24-1.419.24-2.336 0-.875-.064-1.61-.192-2.208-.128-.597-.309-1.077-.544-1.44-.224-.373-.496-.64-.816-.8-.32-.16-.677-.24-1.072-.24zM202.44 24V7.408h2.944c.245 0 .448.021.608.064a.956.956 0 0 1 .416.208.723.723 0 0 1 .256.352c.064.15.117.33.16.544l.272 1.552c.608-.939 1.291-1.68 2.048-2.224.757-.544 1.584-.816 2.48-.816.757 0 1.365.181 1.824.544l-.64 3.648c-.043.224-.128.384-.256.48-.128.085-.299.128-.512.128a3.8 3.8 0 0 1-.64-.064 4.48 4.48 0 0 0-.928-.08c-1.301 0-2.325.693-3.072 2.08V24h-4.96zm20.643-16.848c1.098 0 2.101.17 3.008.512a6.471 6.471 0 0 1 2.352 1.488c.661.65 1.173 1.45 1.536 2.4.373.939.56 2.005.56 3.2 0 .373-.016.677-.048.912a1.45 1.45 0 0 1-.176.56.67.67 0 0 1-.352.288 1.55 1.55 0 0 1-.544.08h-9.568c.16 1.387.581 2.395 1.264 3.024.682.619 1.562.928 2.64.928.576 0 1.072-.07 1.488-.208a7.164 7.164 0 0 0 1.104-.464l.896-.464c.277-.139.565-.208.864-.208.394 0 .693.144.896.432l1.44 1.776a7.475 7.475 0 0 1-1.664 1.44 8.903 8.903 0 0 1-1.824.864 9.666 9.666 0 0 1-1.872.416 13.07 13.07 0 0 1-1.776.128 9.5 9.5 0 0 1-3.28-.56A7.704 7.704 0 0 1 217.355 22c-.758-.747-1.36-1.675-1.808-2.784-.438-1.11-.656-2.4-.656-3.872 0-1.11.186-2.16.56-3.152a7.935 7.935 0 0 1 1.632-2.608 7.87 7.87 0 0 1 2.576-1.776c1.013-.437 2.154-.656 3.424-.656zm.096 3.424c-.95 0-1.691.272-2.224.816-.534.533-.886 1.307-1.056 2.32h6.192c0-.395-.054-.779-.16-1.152a2.568 2.568 0 0 0-.496-.992 2.415 2.415 0 0 0-.896-.72c-.374-.181-.827-.272-1.36-.272zM233.705 24V7.408h2.944c.245 0 .448.021.608.064a.956.956 0 0 1 .416.208.723.723 0 0 1 .256.352c.064.15.117.33.16.544l.272 1.552c.608-.939 1.291-1.68 2.048-2.224.757-.544 1.584-.816 2.48-.816.757 0 1.365.181 1.824.544l-.64 3.648c-.043.224-.128.384-.256.48-.128.085-.299.128-.512.128a3.8 3.8 0 0 1-.64-.064 4.48 4.48 0 0 0-.928-.08c-1.301 0-2.325.693-3.072 2.08V24h-4.96zm20.931-16.848c1.258 0 2.405.197 3.44.592a7.47 7.47 0 0 1 2.656 1.696c.746.736 1.322 1.632 1.728 2.688.416 1.045.624 2.224.624 3.536 0 1.323-.208 2.517-.624 3.584-.406 1.056-.982 1.957-1.728 2.704a7.655 7.655 0 0 1-2.656 1.712c-1.035.395-2.182.592-3.44.592-1.27 0-2.427-.197-3.472-.592a7.984 7.984 0 0 1-2.688-1.712c-.747-.747-1.328-1.648-1.744-2.704-.406-1.067-.608-2.261-.608-3.584 0-1.312.202-2.49.608-3.536.416-1.056.997-1.952 1.744-2.688a7.786 7.786 0 0 1 2.688-1.696c1.045-.395 2.202-.592 3.472-.592zm0 13.424c1.141 0 1.978-.4 2.512-1.2.544-.81.816-2.037.816-3.68 0-1.643-.272-2.864-.816-3.664-.534-.8-1.371-1.2-2.512-1.2-1.174 0-2.032.4-2.576 1.2-.544.8-.816 2.021-.816 3.664 0 1.643.272 2.87.816 3.68.544.8 1.402 1.2 2.576 1.2z" fill="#121111"/></svg>