<svg width="244" height="25" fill="none" xmlns="http://www.w3.org/2000/svg"><path d="M2.874 1.059c.19 0 .351.009.481.026s.247.052.351.104c.104.043.204.108.299.195.095.087.204.204.325.351l8.996 11.375c-.035-.364-.06-.715-.078-1.053a19.631 19.631 0 0 1-.026-.975V1.059h3.874V20h-2.288c-.338 0-.624-.052-.858-.156-.234-.104-.46-.295-.676-.572L4.343 7.988c.026.33.048.654.065.975.017.312.026.607.026.884V20H.56V1.059h2.314zM29.78 20c-.381 0-.671-.052-.87-.156-.191-.104-.352-.32-.482-.65l-.286-.741a13 13 0 0 1-.975.754 6.431 6.431 0 0 1-.975.559 4.612 4.612 0 0 1-1.066.325 6.11 6.11 0 0 1-1.248.117 5.643 5.643 0 0 1-1.677-.234 3.643 3.643 0 0 1-1.287-.715 3.163 3.163 0 0 1-.806-1.157c-.19-.468-.286-1.005-.286-1.612 0-.477.122-.966.364-1.469.243-.503.663-.958 1.261-1.365.598-.416 1.404-.763 2.418-1.04 1.014-.277 2.293-.433 3.835-.468v-.572c0-.789-.164-1.356-.494-1.703-.32-.355-.78-.533-1.378-.533-.476 0-.866.052-1.17.156a5.541 5.541 0 0 0-.819.351c-.234.13-.463.247-.689.351a1.91 1.91 0 0 1-.806.156 1.28 1.28 0 0 1-.715-.195 1.59 1.59 0 0 1-.455-.507l-.728-1.261a8.119 8.119 0 0 1 2.704-1.599 9.453 9.453 0 0 1 3.198-.533c.815 0 1.547.134 2.197.403.659.26 1.214.628 1.664 1.105a4.71 4.71 0 0 1 1.053 1.677c.243.65.364 1.36.364 2.132V20H29.78zm-4.628-2.457c.52 0 .975-.091 1.365-.273.39-.182.785-.477 1.183-.884v-1.872c-.806.035-1.469.104-1.989.208s-.931.234-1.235.39c-.303.156-.515.334-.637.533a1.3 1.3 0 0 0-.169.65c0 .46.126.784.377.975.252.182.62.273 1.105.273zM39.506 6.285c.572 0 1.11.056 1.612.169.511.113.984.273 1.417.481h4.069v1.469c0 .225-.065.403-.195.533-.121.13-.334.23-.637.299l-.988.221c.121.39.182.793.182 1.209 0 .676-.143 1.283-.429 1.82a4.104 4.104 0 0 1-1.157 1.378 5.494 5.494 0 0 1-1.729.871c-.667.2-1.382.299-2.145.299-.425 0-.823-.026-1.196-.078-.295.173-.442.373-.442.598 0 .225.117.39.351.494a3.8 3.8 0 0 0 .949.208c.39.035.836.06 1.339.078.503.009 1.014.039 1.534.091.52.043 1.031.121 1.534.234.503.113.949.295 1.339.546.39.251.702.59.936 1.014.243.416.364.949.364 1.599 0 .607-.147 1.2-.442 1.781-.295.58-.728 1.096-1.3 1.547-.572.45-1.274.81-2.106 1.079-.832.277-1.785.416-2.86.416-1.057 0-1.972-.1-2.743-.299-.763-.2-1.4-.464-1.911-.793-.503-.32-.875-.693-1.118-1.118a2.636 2.636 0 0 1-.364-1.326c0-.598.182-1.1.546-1.508.364-.416.862-.741 1.495-.975a2.281 2.281 0 0 1-.728-.767c-.182-.312-.273-.706-.273-1.183a2.315 2.315 0 0 1 .429-1.274c.147-.208.334-.407.559-.598.225-.19.494-.36.806-.507a4.457 4.457 0 0 1-1.664-1.482c-.399-.615-.598-1.33-.598-2.145 0-.676.143-1.283.429-1.82a4.074 4.074 0 0 1 1.17-1.378 5.438 5.438 0 0 1 1.768-.871 7.437 7.437 0 0 1 2.197-.312zm2.99 14.209a.68.68 0 0 0-.208-.52 1.373 1.373 0 0 0-.546-.312 3.752 3.752 0 0 0-.806-.169 15.26 15.26 0 0 0-.988-.078c-.355-.017-.724-.03-1.105-.039a16.125 16.125 0 0 1-1.131-.091c-.251.173-.46.368-.624.585a1.16 1.16 0 0 0-.234.715c0 .19.039.364.117.52.087.156.234.29.442.403.208.113.485.2.832.26.355.07.802.104 1.339.104.58 0 1.057-.035 1.43-.104.373-.07.667-.165.884-.286.225-.121.381-.269.468-.442.087-.165.13-.347.13-.546zm-2.99-7.943c.667 0 1.148-.165 1.443-.494.303-.338.455-.771.455-1.3 0-.546-.152-.975-.455-1.287-.295-.312-.776-.468-1.443-.468s-1.153.156-1.456.468c-.295.312-.442.741-.442 1.287 0 .26.035.498.104.715.078.217.195.407.351.572.156.156.351.282.585.377.243.087.529.13.858.13zM57.926 20c-.382 0-.672-.052-.872-.156-.19-.104-.35-.32-.48-.65l-.287-.741a13 13 0 0 1-.975.754 6.431 6.431 0 0 1-.975.559 4.612 4.612 0 0 1-1.066.325 6.11 6.11 0 0 1-1.248.117 5.643 5.643 0 0 1-1.677-.234 3.643 3.643 0 0 1-1.287-.715 3.163 3.163 0 0 1-.806-1.157c-.19-.468-.286-1.005-.286-1.612 0-.477.122-.966.364-1.469.243-.503.663-.958 1.261-1.365.598-.416 1.404-.763 2.418-1.04 1.014-.277 2.293-.433 3.835-.468v-.572c0-.789-.164-1.356-.494-1.703-.32-.355-.78-.533-1.378-.533-.476 0-.866.052-1.17.156a5.541 5.541 0 0 0-.819.351c-.234.13-.463.247-.689.351a1.91 1.91 0 0 1-.806.156 1.28 1.28 0 0 1-.715-.195 1.59 1.59 0 0 1-.455-.507l-.728-1.261a8.119 8.119 0 0 1 2.704-1.599 9.453 9.453 0 0 1 3.198-.533c.815 0 1.547.134 2.197.403.659.26 1.214.628 1.664 1.105a4.71 4.71 0 0 1 1.053 1.677c.243.65.364 1.36.364 2.132V20h-1.846zm-4.629-2.457c.52 0 .975-.091 1.365-.273.39-.182.785-.477 1.183-.884v-1.872c-.806.035-1.469.104-1.989.208s-.931.234-1.235.39c-.303.156-.515.334-.637.533a1.3 1.3 0 0 0-.169.65c0 .46.126.784.377.975.252.182.62.273 1.105.273zM68.9 6.311c1.023 0 1.954.16 2.795.481.84.32 1.56.78 2.158 1.378a6.08 6.08 0 0 1 1.404 2.184c.338.85.507 1.807.507 2.873 0 1.075-.169 2.045-.507 2.912a6.21 6.21 0 0 1-1.404 2.197 6.215 6.215 0 0 1-2.158 1.391c-.84.32-1.772.481-2.795.481-1.031 0-1.972-.16-2.821-.481a6.491 6.491 0 0 1-2.184-1.391 6.359 6.359 0 0 1-1.417-2.197c-.33-.867-.494-1.837-.494-2.912 0-1.066.165-2.024.494-2.873a6.223 6.223 0 0 1 1.417-2.184 6.33 6.33 0 0 1 2.184-1.378c.85-.32 1.79-.481 2.821-.481zm0 10.907c.927 0 1.608-.325 2.041-.975.442-.659.663-1.655.663-2.99 0-1.335-.221-2.327-.663-2.977-.433-.65-1.114-.975-2.041-.975-.953 0-1.651.325-2.093.975-.442.65-.663 1.642-.663 2.977s.221 2.331.663 2.99c.442.65 1.14.975 2.093.975zM82.265.539v10.907h.598c.251 0 .442-.035.572-.104.139-.07.269-.195.39-.377l2.548-3.796a1.4 1.4 0 0 1 .52-.494c.208-.104.468-.156.78-.156h3.692l-3.484 4.797a3.617 3.617 0 0 1-.546.598c-.19.173-.399.33-.624.468.39.295.728.685 1.014 1.17L91.521 20h-3.64a2.03 2.03 0 0 1-.793-.143 1.216 1.216 0 0 1-.533-.533l-2.548-4.771c-.121-.217-.247-.355-.377-.416-.13-.07-.325-.104-.585-.104h-.78V20h-4.03V.539h4.03zM102.783 20c-.381 0-.671-.052-.871-.156-.19-.104-.351-.32-.481-.65l-.286-.741a13 13 0 0 1-.975.754 6.402 6.402 0 0 1-.975.559 4.612 4.612 0 0 1-1.066.325 6.11 6.11 0 0 1-1.248.117 5.642 5.642 0 0 1-1.677-.234 3.641 3.641 0 0 1-1.286-.715 3.161 3.161 0 0 1-.806-1.157c-.191-.468-.286-1.005-.286-1.612 0-.477.12-.966.364-1.469.242-.503.663-.958 1.26-1.365.599-.416 1.404-.763 2.418-1.04 1.014-.277 2.293-.433 3.835-.468v-.572c0-.789-.164-1.356-.494-1.703-.32-.355-.78-.533-1.377-.533-.477 0-.867.052-1.17.156a5.532 5.532 0 0 0-.82.351c-.233.13-.463.247-.689.351a1.91 1.91 0 0 1-.806.156 1.28 1.28 0 0 1-.715-.195 1.587 1.587 0 0 1-.455-.507l-.728-1.261a8.118 8.118 0 0 1 2.704-1.599 9.453 9.453 0 0 1 3.198-.533c.815 0 1.547.134 2.197.403.659.26 1.214.628 1.664 1.105.46.468.811 1.027 1.053 1.677.243.65.364 1.36.364 2.132V20h-1.846zm-4.627-2.457c.52 0 .974-.091 1.364-.273.39-.182.785-.477 1.183-.884v-1.872c-.806.035-1.469.104-1.989.208s-.931.234-1.234.39c-.304.156-.516.334-.638.533-.112.2-.168.416-.168.65 0 .46.125.784.376.975.252.182.62.273 1.106.273zm19.276-8.814h.702c.65 0 1.118-.204 1.404-.611l4.264-6.188c.234-.338.499-.568.793-.689.304-.121.672-.182 1.105-.182h3.822l-5.616 7.657a3.73 3.73 0 0 1-1.287 1.144c.33.121.629.29.897.507.278.208.529.49.754.845L129.99 20h-3.926c-.251 0-.468-.017-.65-.052a1.658 1.658 0 0 1-.455-.156 1.43 1.43 0 0 1-.338-.247 2.96 2.96 0 0 1-.273-.351l-4.29-6.591a1.245 1.245 0 0 0-.598-.507c-.234-.104-.554-.156-.962-.156h-1.066V20h-4.394V1.059h4.394v7.67zm19.773-2.418c1.022 0 1.954.16 2.795.481.84.32 1.56.78 2.158 1.378a6.096 6.096 0 0 1 1.404 2.184c.338.85.507 1.807.507 2.873 0 1.075-.169 2.045-.507 2.912a6.226 6.226 0 0 1-1.404 2.197A6.22 6.22 0 0 1 140 19.727c-.841.32-1.773.481-2.795.481-1.032 0-1.972-.16-2.821-.481a6.485 6.485 0 0 1-2.184-1.391 6.355 6.355 0 0 1-1.417-2.197c-.33-.867-.494-1.837-.494-2.912 0-1.066.164-2.024.494-2.873A6.22 6.22 0 0 1 132.2 8.17a6.325 6.325 0 0 1 2.184-1.378c.849-.32 1.789-.481 2.821-.481zm0 10.907c.927 0 1.607-.325 2.041-.975.442-.659.663-1.655.663-2.99 0-1.335-.221-2.327-.663-2.977-.434-.65-1.114-.975-2.041-.975-.954 0-1.651.325-2.093.975-.442.65-.663 1.642-.663 2.977s.221 2.331.663 2.99c.442.65 1.139.975 2.093.975zm17.578-7.748a1.017 1.017 0 0 1-.338.351.835.835 0 0 1-.442.104 1.5 1.5 0 0 1-.572-.117 27.12 27.12 0 0 0-.624-.273 5.67 5.67 0 0 0-.741-.26 3.18 3.18 0 0 0-.949-.13c-.511 0-.906.1-1.183.299-.269.19-.403.46-.403.806 0 .251.087.46.26.624.182.165.42.312.715.442.295.121.628.238 1.001.351.373.113.754.238 1.144.377.39.139.771.303 1.144.494.373.182.706.412 1.001.689.295.269.529.598.702.988.182.39.273.858.273 1.404a4.61 4.61 0 0 1-.364 1.846 3.898 3.898 0 0 1-1.092 1.456c-.477.407-1.07.724-1.781.949-.702.225-1.512.338-2.431.338-.459 0-.919-.043-1.378-.13a9.806 9.806 0 0 1-1.339-.351 7.725 7.725 0 0 1-1.183-.52 5.396 5.396 0 0 1-.936-.663l.936-1.482a1.28 1.28 0 0 1 .403-.403c.156-.104.36-.156.611-.156.234 0 .442.052.624.156.191.104.394.217.611.338.217.121.468.234.754.338.295.104.663.156 1.105.156.312 0 .576-.03.793-.091.217-.07.39-.16.52-.273a1.055 1.055 0 0 0 .377-.806.876.876 0 0 0-.273-.663 2.283 2.283 0 0 0-.715-.442 7.274 7.274 0 0 0-1.014-.351 24.962 24.962 0 0 1-1.144-.377c-.39-.139-.776-.303-1.157-.494a4.224 4.224 0 0 1-1.001-.741 3.518 3.518 0 0 1-.715-1.105c-.182-.433-.273-.958-.273-1.573 0-.572.108-1.114.325-1.625.225-.52.559-.975 1.001-1.365.442-.39.997-.698 1.664-.923.667-.234 1.447-.351 2.34-.351.485 0 .953.043 1.404.13a7.22 7.22 0 0 1 1.287.364c.399.156.763.342 1.092.559.329.208.62.438.871.689l-.91 1.417zM167.56 20c-.381 0-.672-.052-.871-.156-.191-.104-.351-.32-.481-.65l-.286-.741a13 13 0 0 1-.975.754 6.431 6.431 0 0 1-.975.559 4.627 4.627 0 0 1-1.066.325 6.115 6.115 0 0 1-1.248.117 5.646 5.646 0 0 1-1.677-.234 3.636 3.636 0 0 1-1.287-.715 3.162 3.162 0 0 1-.806-1.157c-.191-.468-.286-1.005-.286-1.612 0-.477.121-.966.364-1.469.243-.503.663-.958 1.261-1.365.598-.416 1.404-.763 2.418-1.04 1.014-.277 2.292-.433 3.835-.468v-.572c0-.789-.165-1.356-.494-1.703-.321-.355-.78-.533-1.378-.533-.477 0-.867.052-1.17.156a5.569 5.569 0 0 0-.819.351c-.234.13-.464.247-.689.351a1.91 1.91 0 0 1-.806.156 1.28 1.28 0 0 1-.715-.195 1.588 1.588 0 0 1-.455-.507l-.728-1.261a8.122 8.122 0 0 1 2.704-1.599 9.456 9.456 0 0 1 3.198-.533c.815 0 1.547.134 2.197.403a4.55 4.55 0 0 1 1.664 1.105c.459.468.81 1.027 1.053 1.677.243.65.364 1.36.364 2.132V20h-1.846zm-4.628-2.457c.52 0 .975-.091 1.365-.273.39-.182.784-.477 1.183-.884v-1.872c-.806.035-1.469.104-1.989.208s-.932.234-1.235.39c-.303.156-.516.334-.637.533-.113.2-.169.416-.169.65 0 .46.126.784.377.975.251.182.62.273 1.105.273zM176.558.539v10.907h.598c.251 0 .442-.035.572-.104.138-.07.268-.195.39-.377l2.548-3.796a1.4 1.4 0 0 1 .52-.494c.208-.104.468-.156.78-.156h3.692l-3.484 4.797a3.643 3.643 0 0 1-.546.598c-.191.173-.399.33-.624.468.39.295.728.685 1.014 1.17L185.814 20h-3.64c-.304 0-.568-.048-.793-.143a1.211 1.211 0 0 1-.533-.533l-2.548-4.771c-.122-.217-.247-.355-.377-.416-.13-.07-.325-.104-.585-.104h-.78V20h-4.03V.539h4.03zm14.98 5.98v8.554c0 .667.152 1.183.455 1.547.303.364.75.546 1.339.546a2.83 2.83 0 0 0 1.235-.273 4.58 4.58 0 0 0 1.131-.767V6.519h4.03V20h-2.496c-.503 0-.832-.225-.988-.676l-.247-.78c-.26.251-.529.481-.806.689-.277.2-.576.373-.897.52-.312.139-.65.247-1.014.325-.364.087-.763.13-1.196.13-.737 0-1.391-.126-1.963-.377a4.112 4.112 0 0 1-1.43-1.079 4.672 4.672 0 0 1-.884-1.625 6.731 6.731 0 0 1-.299-2.054V6.519h4.03zm19.814 2.951a1.017 1.017 0 0 1-.338.351.835.835 0 0 1-.442.104 1.5 1.5 0 0 1-.572-.117 27.12 27.12 0 0 0-.624-.273 5.67 5.67 0 0 0-.741-.26 3.18 3.18 0 0 0-.949-.13c-.511 0-.906.1-1.183.299-.269.19-.403.46-.403.806 0 .251.087.46.26.624.182.165.42.312.715.442.295.121.628.238 1.001.351.373.113.754.238 1.144.377.39.139.771.303 1.144.494.373.182.706.412 1.001.689.295.269.529.598.702.988.182.39.273.858.273 1.404a4.61 4.61 0 0 1-.364 1.846 3.898 3.898 0 0 1-1.092 1.456c-.477.407-1.07.724-1.781.949-.702.225-1.512.338-2.431.338-.459 0-.919-.043-1.378-.13a9.806 9.806 0 0 1-1.339-.351 7.725 7.725 0 0 1-1.183-.52 5.396 5.396 0 0 1-.936-.663l.936-1.482a1.28 1.28 0 0 1 .403-.403c.156-.104.36-.156.611-.156.234 0 .442.052.624.156.191.104.394.217.611.338.217.121.468.234.754.338.295.104.663.156 1.105.156.312 0 .576-.03.793-.091.217-.07.39-.16.52-.273a1.055 1.055 0 0 0 .377-.806.876.876 0 0 0-.273-.663 2.283 2.283 0 0 0-.715-.442 7.274 7.274 0 0 0-1.014-.351 24.962 24.962 0 0 1-1.144-.377c-.39-.139-.776-.303-1.157-.494a4.224 4.224 0 0 1-1.001-.741 3.518 3.518 0 0 1-.715-1.105c-.182-.433-.273-.958-.273-1.573 0-.572.108-1.114.325-1.625.225-.52.559-.975 1.001-1.365.442-.39.997-.698 1.664-.923.667-.234 1.447-.351 2.34-.351.485 0 .953.043 1.404.13a7.22 7.22 0 0 1 1.287.364c.399.156.763.342 1.092.559.329.208.62.438.871.689l-.91 1.417zM214.821 20V.539h4.03v7.163a6.461 6.461 0 0 1 1.573-1.001c.572-.26 1.253-.39 2.041-.39.737 0 1.387.13 1.95.39a3.946 3.946 0 0 1 1.443 1.066c.39.45.685.992.884 1.625.2.624.299 1.304.299 2.041V20h-4.03v-8.567c0-.659-.151-1.17-.455-1.534-.303-.373-.749-.559-1.339-.559a2.8 2.8 0 0 0-1.248.286c-.39.19-.762.446-1.118.767V20h-4.03zm21.348-13.689c1.023 0 1.955.16 2.795.481.841.32 1.56.78 2.158 1.378a6.069 6.069 0 0 1 1.404 2.184c.338.85.507 1.807.507 2.873 0 1.075-.169 2.045-.507 2.912a6.199 6.199 0 0 1-1.404 2.197 6.212 6.212 0 0 1-2.158 1.391c-.84.32-1.772.481-2.795.481-1.031 0-1.971-.16-2.821-.481a6.505 6.505 0 0 1-2.184-1.391 6.369 6.369 0 0 1-1.417-2.197c-.329-.867-.494-1.837-.494-2.912 0-1.066.165-2.024.494-2.873a6.233 6.233 0 0 1 1.417-2.184 6.344 6.344 0 0 1 2.184-1.378c.85-.32 1.79-.481 2.821-.481zm0 10.907c.928 0 1.608-.325 2.041-.975.442-.659.663-1.655.663-2.99 0-1.335-.221-2.327-.663-2.977-.433-.65-1.113-.975-2.041-.975-.953 0-1.651.325-2.093.975-.442.65-.663 1.642-.663 2.977s.221 2.331.663 2.99c.442.65 1.14.975 2.093.975z" fill="#121111"/></svg>