<svg fill="none" height="20" viewBox="0 0 95 20" width="95" xmlns="http://www.w3.org/2000/svg"><path d="m4.954 8.729h.702c.65 0 1.118-.20367 1.404-.611l4.264-6.188c.234-.338.4983-.56767.793-.689.3033-.12133.6717-.182 1.105-.182h3.822l-5.616 7.657c-.1993.27733-.4073.507-.624.689s-.4377.33367-.663.455c.3293.12133.6283.2903.897.507.2773.208.5287.4897.754.845l5.72 8.788h-3.926c-.2513 0-.468-.0173-.65-.052-.1733-.0347-.325-.0867-.455-.156s-.2427-.1517-.338-.247c-.0953-.104-.1863-.221-.273-.351l-4.29-6.591c-.156-.2427-.35533-.4117-.598-.507-.234-.104-.55467-.156-.962-.156h-1.066v8.06h-4.394v-18.941h4.394zm18.5865-2.21v13.481h-4.03v-13.481zm.468-3.692c0 .32067-.065.624-.195.91-.13.27733-.3076.52433-.533.741-.2253.208-.4896.377-.793.507-.2946.12133-.611.182-.949.182-.3293 0-.637-.06067-.923-.182-.286-.13-.5416-.299-.767-.507-.2166-.21667-.39-.46367-.52-.741-.1213-.286-.182-.58933-.182-.91 0-.32933.0607-.637.182-.923.13-.286.3034-.53733.52-.754.2254-.216667.481-.385667.767-.507001.286-.121333.5937-.181999.923-.181999.338 0 .6544.060666.949.181999.3034.121334.5677.290334.793.507001.2254.21667.403.468.533.754s.195.59367.195.923zm3.0461 17.173v-18.941h6.968c1.3087 0 2.4223.12133 3.341.364s1.6683.585 2.249 1.027 1.001.97933 1.261 1.612c.2687.63267.403 1.339.403 2.119 0 .42467-.0607.83633-.182 1.235-.1213.39-.312.75833-.572 1.105s-.5937.663-1.001.949c-.4073.27733-.897.52-1.469.728 1.248.3033 2.171.7973 2.769 1.482.598.676.897 1.547.897 2.613 0 .806-.156 1.5557-.468 2.249s-.7713 1.3-1.378 1.82c-.598.5113-1.339.9143-2.223 1.209-.884.286-1.8937.429-3.029.429zm4.394-8.034v4.719h3.094c.5807 0 1.053-.0737 1.417-.221.3727-.1473.663-.338.871-.572s.351-.4983.429-.793.117-.5937.117-.897c0-.3467-.0477-.6587-.143-.936-.0867-.2773-.2427-.5113-.468-.702-.2167-.1907-.507-.338-.871-.442s-.8233-.156-1.378-.156zm0-2.938h2.288c.4853 0 .923-.03467 1.313-.104s.7193-.19067.988-.364c.2773-.17333.4853-.41167.624-.715.1473-.30333.221-.68467.221-1.144 0-.45067-.0563-.82333-.169-1.118-.1127-.30333-.286-.546-.52-.728s-.533-.312-.897-.39c-.3553-.078-.78-.117-1.274-.117h-2.574zm25.1225-7.969v3.38h-7.774v4.42h5.954v3.25h-5.954v4.511h7.774v3.38h-12.194v-18.941zm7.1612 11.934v7.007h-4.394v-18.941h6.162c1.3693 0 2.535.143 3.497.429.9706.27733 1.7593.66733 2.366 1.17.6153.50267 1.0616 1.09633 1.339 1.781.2773.68467.416 1.43.416 2.236 0 .61533-.0824 1.196-.247 1.742-.1647.546-.4117 1.053-.741 1.521-.3207.4593-.7194.871-1.196 1.235-.468.364-1.0097.663-1.625.897.2946.1473.5676.3293.819.546.26.2167.4853.481.676.793l4.03 6.591h-3.978c-.7367 0-1.2654-.2773-1.586-.832l-3.146-5.499c-.1387-.2427-.3034-.416-.494-.52-.182-.104-.442-.156-.78-.156zm0-3.029h1.768c.598 0 1.105-.07367 1.521-.221.4246-.156.7713-.36833 1.04-.637.2686-.26867.4636-.58067.585-.936.1213-.364.182-.754.182-1.17 0-.832-.273-1.482-.819-1.95-.5374-.468-1.3737-.702-2.509-.702h-1.768zm30.785 10.036h-3.406c-.3813 0-.6977-.0867-.949-.26-.2427-.182-.4117-.4117-.507-.689l-1.118-3.302h-7.202l-1.118 3.302c-.0867.2427-.2557.4637-.507.663-.2513.1907-.559.286-.923.286h-3.432l7.332-18.941h4.498zm-12.168-7.241h5.174l-1.742-5.187c-.1127-.32933-.247-.715-.403-1.157-.1473-.45067-.2947-.936-.442-1.456-.1387.52867-.2817 1.01833-.429 1.469s-.286.84067-.416 1.17z" fill="#121111"/></svg>