<svg fill="none" height="30" viewBox="0 0 285 30" width="285" xmlns="http://www.w3.org/2000/svg"><path d="m21.272 24h-5.44v-9.856h-9.472v9.856h-5.44v-23.312h5.44v9.744h9.472v-9.744h5.44zm11.2595-16.848c1.0987 0 2.1013.17067 3.008.512.9173.34133 1.7013.83733 2.352 1.488.6613.65067 1.1733 1.4507 1.536 2.4.3733.9387.56 2.0053.56 3.2 0 .3733-.016.6773-.048.912s-.0907.4213-.176.56-.2027.2347-.352.288c-.1387.0533-.32.08-.544.08h-9.568c.16 1.3867.5813 2.3947 1.264 3.024.6827.6187 1.5627.928 2.64.928.576 0 1.072-.0693 1.488-.208s.784-.2933 1.104-.464c.3307-.1707.6293-.3253.896-.464.2773-.1387.5653-.208.864-.208.3947 0 .6933.144.896.432l1.44 1.776c-.512.5867-1.0667 1.0667-1.664 1.44-.5867.3627-1.1947.6507-1.824.864-.6187.2027-1.2427.3413-1.872.416-.6187.0853-1.2107.128-1.776.128-1.1627 0-2.256-.1867-3.28-.56-1.0133-.384-1.904-.9493-2.672-1.696-.7573-.7467-1.36-1.6747-1.808-2.784-.4373-1.1093-.656-2.4-.656-3.872 0-1.1093.1867-2.16.56-3.152.384-.992.928-1.8613 1.632-2.608.7147-.74667 1.5733-1.33867 2.576-1.776 1.0133-.43733 2.1547-.656 3.424-.656zm.096 3.424c-.9493 0-1.6907.272-2.224.816-.5333.5333-.8853 1.3067-1.056 2.32h6.192c0-.3947-.0533-.7787-.16-1.152-.096-.3733-.2613-.704-.496-.992-.224-.2987-.5227-.5387-.896-.72s-.8267-.272-1.36-.272zm10.5262 13.424v-16.592h2.944c.2454 0 .448.02133.608.064.1707.04267.3094.112.416.208.1174.08533.2027.20267.256.352.064.14933.1174.33067.16.544l.272 1.552c.608-.93867 1.2907-1.68 2.048-2.224.7574-.544 1.584-.816 2.48-.816.7574 0 1.3654.18133 1.824.544l-.64 3.648c-.0426.224-.1279.384-.256.48-.128.0853-.2986.128-.512.128-.1813 0-.3946-.0213-.64-.064-.2453-.0533-.5546-.08-.9279-.08-1.3014 0-2.3254.6933-3.0721 2.08v10.176zm20.6428-16.848c1.0987 0 2.1013.17067 3.008.512.9173.34133 1.7013.83733 2.352 1.488.6613.65067 1.1733 1.4507 1.536 2.4.3733.9387.56 2.0053.56 3.2 0 .3733-.016.6773-.048.912s-.0907.4213-.176.56-.2027.2347-.352.288c-.1387.0533-.32.08-.544.08h-9.568c.16 1.3867.5813 2.3947 1.264 3.024.6827.6187 1.5627.928 2.64.928.576 0 1.072-.0693 1.488-.208s.784-.2933 1.104-.464c.3307-.1707.6293-.3253.896-.464.2773-.1387.5653-.208.864-.208.3947 0 .6933.144.896.432l1.44 1.776c-.512.5867-1.0667 1.0667-1.664 1.44-.5867.3627-1.1947.6507-1.824.864-.6187.2027-1.2427.3413-1.872.416-.6187.0853-1.2107.128-1.776.128-1.1627 0-2.256-.1867-3.28-.56-1.0133-.384-1.904-.9493-2.672-1.696-.7573-.7467-1.36-1.6747-1.808-2.784-.4373-1.1093-.656-2.4-.656-3.872 0-1.1093.1867-2.16.56-3.152.384-.992.928-1.8613 1.632-2.608.7147-.74667 1.5733-1.33867 2.576-1.776 1.0133-.43733 2.1547-.656 3.424-.656zm.096 3.424c-.9493 0-1.6907.272-2.224.816-.5333.5333-.8853 1.3067-1.056 2.32h6.192c0-.3947-.0533-.7787-.16-1.152-.096-.3733-.2613-.704-.496-.992-.224-.2987-.5227-.5387-.896-.72s-.8267-.272-1.36-.272zm28.4897 13.424c-.4693 0-.8266-.064-1.072-.192-.2346-.128-.432-.3947-.592-.8l-.352-.912c-.416.352-.816.6613-1.2.928s-.784.496-1.2.688c-.4053.1813-.8426.3147-1.312.4-.4586.096-.9706.144-1.536.144-.7573 0-1.4453-.096-2.064-.288-.6186-.2027-1.1466-.496-1.584-.88-.4266-.384-.7573-.8587-.992-1.424-.2346-.576-.352-1.2373-.352-1.984 0-.5867.1494-1.1893.448-1.808.2987-.6187.816-1.1787 1.552-1.68.736-.512 1.728-.9387 2.976-1.28s2.8214-.5333 4.72-.576v-.704c0-.9707-.2026-1.6693-.608-2.096-.3946-.4373-.96-.656-1.696-.656-.5866 0-1.0666.064-1.44.192-.3733.128-.7093.272-1.008.432-.288.16-.5706.304-.848.432-.2773.128-.608.192-.992.192-.3413 0-.6346-.08-.88-.24-.2346-.1707-.4213-.3787-.56-.624l-.896-1.552c1.0027-.88533 2.112-1.54133 3.328-1.968 1.2267-.43733 2.5387-.656 3.936-.656 1.0027 0 1.904.16533 2.704.496.8107.32 1.4934.77333 2.048 1.36.5654.576.9974 1.264 1.296 2.064.2987.8.448 1.6747.448 2.624v10.368zm-5.696-3.024c.64 0 1.2-.112 1.68-.336s.9654-.5867 1.456-1.088v-2.304c-.992.0427-1.808.128-2.448.256s-1.1466.288-1.52.48c-.3733.192-.6346.4107-.784.656-.1386.2453-.208.512-.208.8 0 .5653.1547.9653.464 1.2.3094.224.7627.336 1.36.336zm11.81 3.024v-16.592h2.9438c.246 0 .448.02133.608.064.171.04267.31.112.416.208.118.08533.203.20267.256.352.064.14933.118.33067.16.544l.272 1.552c.608-.93867 1.291-1.68 2.048-2.224.758-.544 1.584-.816 2.48-.816.758 0 1.366.18133 1.824.544l-.64 3.648c-.042.224-.128.384-.256.48-.128.0853-.298.128-.512.128-.181 0-.394-.0213-.64-.064-.245-.0533-.554-.08-.928-.08-1.301 0-2.325.6933-3.072 2.08v10.176zm20.6428-16.848c1.099 0 2.101.17067 3.008.512.917.34133 1.701.83733 2.352 1.488.661.65067 1.173 1.4507 1.536 2.4.373.9387.56 2.0053.56 3.2 0 .3733-.016.6773-.048.912s-.091.4213-.176.56-.203.2347-.352.288c-.139.0533-.32.08-.544.08h-9.568c.16 1.3867.581 2.3947 1.264 3.024.683.6187 1.563.928 2.64.928.576 0 1.072-.0693 1.488-.208s.784-.2933 1.104-.464c.331-.1707.629-.3253.896-.464.277-.1387.565-.208.864-.208.395 0 .693.144.896.432l1.44 1.776c-.512.5867-1.067 1.0667-1.664 1.44-.587.3627-1.195.6507-1.824.864-.619.2027-1.243.3413-1.872.416-.619.0853-1.211.128-1.776.128-1.163 0-2.256-.1867-3.28-.56-1.013-.384-1.904-.9493-2.672-1.696-.757-.7467-1.36-1.6747-1.808-2.784-.437-1.1093-.656-2.4-.656-3.872 0-1.1093.187-2.16.56-3.152.384-.992.928-1.8613 1.632-2.608.715-.74667 1.573-1.33867 2.576-1.776 1.013-.43733 2.155-.656 3.424-.656zm.096 3.424c-.949 0-1.691.272-2.224.816-.533.5333-.885 1.3067-1.056 2.32h6.192c0-.3947-.053-.7787-.16-1.152-.096-.3733-.261-.704-.496-.992-.224-.2987-.523-.5387-.896-.72s-.827-.272-1.36-.272zm17.034 13.424v-16.592h3.072c.309 0 .565.06933.768.208.213.13867.362.34667.448.624l.272.896c.277-.288.565-.54933.864-.784.298-.24533.618-.45333.96-.624.352-.18133.725-.32 1.12-.416.405-.10667.848-.16 1.328-.16 1.002 0 1.829.26133 2.48.784.661.512 1.162 1.2 1.504 2.064.277-.512.613-.94933 1.008-1.312.405-.36267.837-.656 1.296-.88.469-.224.96-.38933 1.472-.496.522-.10667 1.04-.16 1.552-.16.949 0 1.792.144 2.528.432.736.27733 1.349.688 1.84 1.232.501.53333.88 1.1947 1.136 1.984.256.7787.384 1.664.384 2.656v10.544h-4.96v-10.544c0-1.7173-.736-2.576-2.208-2.576-.672 0-1.232.224-1.68.672-.438.4373-.656 1.072-.656 1.904v10.544h-4.96v-10.544c0-.9493-.187-1.616-.56-2-.374-.384-.923-.576-1.648-.576-.448 0-.875.1013-1.28.304-.395.2027-.768.4747-1.12.816v12zm34.041 4.304c-.149.3307-.33.5707-.544.72-.213.16-.554.24-1.024.24h-3.712l3.2-6.72-6.624-15.136h4.384c.384 0 .683.08533.896.256.214.17067.363.37333.448.608l2.72 7.152c.256.6613.464 1.3227.624 1.984.107-.3413.224-.6773.352-1.008s.251-.6667.368-1.008l2.464-7.12c.086-.24533.251-.448.496-.608.256-.17067.528-.256.816-.256h4zm15.811-20.896h3.968c.352 0 .656.08.912.24s.411.368.464.624l1.664 7.44c.128.5653.246 1.1147.352 1.648.107.5333.203 1.0613.288 1.584.15-.5227.304-1.0453.464-1.568.171-.5333.336-1.088.496-1.664l2.08-7.456c.064-.24533.219-.448.464-.608.246-.17067.528-.256.848-.256h2.208c.352 0 .651.08533.896.256.256.16.416.36267.48.608l1.984 7.456c.15.5653.299 1.1147.448 1.648.16.5333.31 1.072.448 1.616.086-.5333.187-1.0613.304-1.584.128-.5333.262-1.0933.4-1.68l1.76-7.44c.054-.256.203-.464.448-.624.256-.16.544-.24.864-.24h3.776l-5.152 16.592h-4.032c-.213 0-.394-.064-.544-.192-.149-.128-.266-.3413-.352-.64l-2.368-8.272c-.106-.3733-.208-.7413-.304-1.104s-.181-.7253-.256-1.088c-.074.3733-.16.7467-.256 1.12-.085.3627-.186.7307-.304 1.104l-2.4 8.24c-.16.5547-.512.832-1.056.832h-3.84zm35.664-.256c1.258 0 2.405.19733 3.44.592 1.034.39467 1.92.96 2.656 1.696.746.736 1.322 1.632 1.728 2.688.416 1.0453.624 2.224.624 3.536 0 1.3227-.208 2.5173-.624 3.584-.406 1.056-.982 1.9573-1.728 2.704-.736.736-1.622 1.3067-2.656 1.712-1.035.3947-2.182.592-3.44.592-1.27 0-2.427-.1973-3.472-.592-1.035-.4053-1.931-.976-2.688-1.712-.747-.7467-1.328-1.648-1.744-2.704-.406-1.0667-.608-2.2613-.608-3.584 0-1.312.202-2.4907.608-3.536.416-1.056.997-1.952 1.744-2.688.757-.736 1.653-1.30133 2.688-1.696 1.045-.39467 2.202-.592 3.472-.592zm0 13.424c1.141 0 1.978-.4 2.512-1.2.544-.8107.816-2.0373.816-3.68s-.272-2.864-.816-3.664c-.534-.8-1.371-1.2-2.512-1.2-1.174 0-2.032.4-2.576 1.2s-.816 2.0213-.816 3.664.272 2.8693.816 3.68c.544.8 1.402 1.2 2.576 1.2zm11.49 3.424v-16.592h2.944c.245 0 .448.02133.608.064.171.04267.309.112.416.208.117.08533.203.20267.256.352.064.14933.117.33067.16.544l.272 1.552c.608-.93867 1.291-1.68 2.048-2.224s1.584-.816 2.48-.816c.757 0 1.365.18133 1.824.544l-.64 3.648c-.043.224-.128.384-.256.48-.128.0853-.299.128-.512.128-.181 0-.395-.0213-.64-.064-.245-.0533-.555-.08-.928-.08-1.301 0-2.325.6933-3.072 2.08v10.176zm18.499-23.9520016v13.4240016h.736c.309 0 .544-.0427.704-.128.17-.0853.33-.24.48-.464l3.136-4.672c.181-.27733.394-.48.64-.608.256-.128.576-.192.96-.192h4.544l-4.288 5.904c-.203.2773-.427.5227-.672.736-.235.2133-.491.4053-.768.576.48.3627.896.8427 1.248 1.44l4.672 7.936h-4.48c-.374 0-.699-.0587-.976-.176-.267-.128-.486-.3467-.656-.656l-3.136-5.872c-.15-.2667-.304-.4373-.464-.512-.16-.0853-.4-.128-.72-.128h-.96v7.344h-4.96v-23.9520016zm23.941 10.9920016c-.128.2027-.266.3467-.416.432-.138.0853-.32.128-.544.128-.234 0-.469-.048-.704-.144-.234-.1067-.49-.2187-.768-.336-.266-.1173-.57-.224-.912-.32-.341-.1067-.73-.16-1.168-.16-.629 0-1.114.1227-1.456.368-.33.2347-.496.5653-.496.992 0 .3093.107.5653.32.768.224.2027.518.384.88.544.363.1493.774.2933 1.232.432.459.1387.928.2933 1.408.464s.95.3733 1.408.608c.459.224.87.5067 1.232.848.363.3307.651.736.864 1.216.224.48.336 1.056.336 1.728 0 .8213-.149 1.5787-.448 2.272-.298.6933-.746 1.2907-1.344 1.792-.586.5013-1.317.8907-2.192 1.168-.864.2773-1.861.416-2.992.416-.565 0-1.13-.0533-1.696-.16-.565-.1067-1.114-.2507-1.648-.432-.522-.1813-1.008-.3947-1.456-.64-.448-.256-.832-.528-1.152-.816l1.152-1.824c.139-.2133.304-.3787.496-.496.192-.128.443-.192.752-.192.288 0 .544.064.768.192.235.128.486.2667.752.416.267.1493.576.288.928.416.363.128.816.192 1.36.192.384 0 .71-.0373.976-.112.267-.0853.48-.1973.64-.336s.278-.2933.352-.464c.075-.1707.112-.3467.112-.528 0-.3307-.112-.6027-.336-.816s-.517-.3947-.88-.544c-.362-.16-.778-.304-1.248-.432-.458-.1387-.928-.2933-1.408-.464s-.954-.3733-1.424-.608c-.458-.2453-.869-.5493-1.232-.912-.362-.3733-.656-.8267-.88-1.36s-.336-1.1787-.336-1.936c0-.704.134-1.3707.4-2 .278-.64.688-1.2 1.232-1.68s1.227-.85867 2.048-1.136c.822-.288 1.782-.432 2.88-.432.598 0 1.174.05333 1.728.16.566.10667 1.094.256 1.584.448.491.192.939.42133 1.344.688.406.256.763.53867 1.072.848zm3.31 10.448c0-.384.069-.7413.208-1.072.149-.3307.347-.6187.592-.864.256-.2453.555-.4373.896-.576.341-.1493.715-.224 1.12-.224.395 0 .763.0747 1.104.224.341.1387.64.3307.896.576s.453.5333.592.864c.149.3307.224.688.224 1.072s-.075.7467-.224 1.088c-.139.3307-.336.6187-.592.864s-.555.4373-.896.576-.709.208-1.104.208c-.405 0-.779-.0693-1.12-.208s-.64-.3307-.896-.576c-.245-.2453-.443-.5333-.592-.864-.139-.3413-.208-.704-.208-1.088z" fill="#121111"/></svg>