<svg fill="none" height="25" viewBox="0 0 244 25" width="244" xmlns="http://www.w3.org/2000/svg"><path d="m2.874 1.059c.19067 0 .351.00867.481.026s.247.052.351.104c.104.04333.20367.10833.299.195s.20367.20367.325.351l8.996 11.375c-.0347-.364-.0607-.715-.078-1.053-.0173-.3467-.026-.6717-.026-.975v-10.023h3.874v18.941h-2.288c-.338 0-.624-.052-.858-.156s-.4593-.2947-.676-.572l-8.931-11.284c.026.32933.04767.65433.065.975.01733.312.026.60667.026.884v10.153h-3.874v-18.941zm26.9063 18.941c-.3813 0-.6716-.052-.871-.156-.1906-.104-.351-.3207-.481-.65l-.286-.741c-.338.286-.663.5373-.975.754s-.637.403-.975.559c-.3293.1473-.6846.2557-1.066.325-.3726.078-.7886.117-1.248.117-.6153 0-1.1743-.078-1.677-.234-.5026-.1647-.9316-.403-1.287-.715-.3466-.312-.6153-.6977-.806-1.157-.1906-.468-.286-1.0053-.286-1.612 0-.4767.1214-.9663.364-1.469.2427-.5027.663-.9577 1.261-1.365.598-.416 1.404-.7627 2.418-1.04s2.2924-.4333 3.835-.468v-.572c0-.7887-.1646-1.3563-.494-1.703-.3206-.35533-.78-.533-1.378-.533-.4766 0-.8666.052-1.17.156-.3033.104-.5763.221-.819.351-.234.13-.4636.247-.689.351-.2253.104-.494.156-.806.156-.2773 0-.5156-.065-.715-.195-.1906-.1387-.3423-.30767-.455-.507l-.728-1.261c.8147-.71933 1.716-1.25233 2.704-1.599.9967-.35533 2.0627-.533 3.198-.533.8147 0 1.547.13433 2.197.403.6587.26 1.2134.62833 1.664 1.105.4594.468.8104 1.027 1.053 1.677.2427.65.364 1.3607.364 2.132v8.424zm-4.628-2.457c.52 0 .975-.091 1.365-.273s.7844-.4767 1.183-.884v-1.872c-.806.0347-1.469.104-1.989.208s-.9316.234-1.235.39c-.3033.156-.5156.3337-.637.533-.1126.1993-.169.416-.169.65 0 .4593.1257.7843.377.975.2514.182.6197.273 1.105.273zm14.3537-11.258c.572 0 1.1093.05633 1.612.169.5113.11267.9836.273 1.417.481h4.069v1.469c0 .22533-.065.403-.195.533-.1214.13-.3337.22967-.637.299l-.988.221c.1213.39.182.793.182 1.209 0 .676-.143 1.2827-.429 1.82-.2774.5373-.663.9967-1.157 1.378-.4854.3727-1.0617.663-1.729.871-.6674.1993-1.3824.299-2.145.299-.4247 0-.8234-.026-1.196-.078-.2947.1733-.442.3727-.442.598s.117.39.351.494c.2426.0953.559.1647.949.208.39.0347.8363.0607 1.339.078.5026.0087 1.014.039 1.534.091.52.0433 1.0313.1213 1.534.234.5026.1127.949.2947 1.339.546s.702.5893.936 1.014c.2426.416.364.949.364 1.599 0 .6067-.1474 1.2003-.442 1.781-.2947.5807-.728 1.0963-1.3 1.547s-1.274.8103-2.106 1.079c-.832.2773-1.7854.416-2.86.416-1.0574 0-1.9717-.0997-2.743-.299-.7627-.1993-1.3997-.4637-1.911-.793-.5027-.3207-.8754-.6933-1.118-1.118-.2427-.4247-.364-.8667-.364-1.326 0-.598.182-1.1007.546-1.508.364-.416.8623-.741 1.495-.975-.3034-.1993-.546-.455-.728-.767s-.273-.7063-.273-1.183c0-.1993.0346-.4073.104-.624.0693-.2253.1776-.442.325-.65.1473-.208.3336-.4073.559-.598.2253-.1907.494-.3597.806-.507-.702-.3727-1.2567-.8667-1.664-1.482-.3987-.6153-.598-1.3303-.598-2.145 0-.676.143-1.28267.429-1.82.286-.546.676-1.00533 1.17-1.378.5026-.38133 1.092-.67167 1.768-.871.676-.208 1.4083-.312 2.197-.312zm2.99 14.209c0-.2167-.0694-.39-.208-.52-.13-.13-.312-.234-.546-.312-.2254-.078-.494-.1343-.806-.169-.3034-.0347-.6327-.0607-.988-.078-.3554-.0173-.7237-.0303-1.105-.039-.3814-.0173-.7584-.0477-1.131-.091-.2514.1733-.4594.3683-.624.585-.156.208-.234.4463-.234.715 0 .1907.039.364.117.52.0866.156.234.2903.442.403s.4853.1993.832.26c.3553.0693.8016.104 1.339.104.5806 0 1.0573-.0347 1.43-.104.3726-.0693.6673-.1647.884-.286.2253-.1213.3813-.2687.468-.442.0866-.1647.13-.3467.13-.546zm-2.99-7.943c.6673 0 1.1483-.1647 1.443-.494.3033-.338.455-.7713.455-1.3 0-.546-.1517-.975-.455-1.287-.2947-.312-.7757-.468-1.443-.468-.6674 0-1.1527.156-1.456.468-.2947.312-.442.741-.442 1.287 0 .26.0346.4983.104.715.078.2167.195.4073.351.572.156.156.351.2817.585.377.2426.0867.5286.13.858.13zm18.4193 7.449c-.3813 0-.6716-.052-.871-.156-.1906-.104-.351-.3207-.481-.65l-.286-.741c-.338.286-.663.5373-.975.754s-.637.403-.975.559c-.3293.1473-.6846.2557-1.066.325-.3726.078-.7886.117-1.248.117-.6153 0-1.1743-.078-1.677-.234-.5026-.1647-.9316-.403-1.287-.715-.3466-.312-.6153-.6977-.806-1.157-.1906-.468-.286-1.0053-.286-1.612 0-.4767.1214-.9663.364-1.469.2427-.5027.663-.9577 1.261-1.365.598-.416 1.404-.7627 2.418-1.04s2.2924-.4333 3.835-.468v-.572c0-.7887-.1646-1.3563-.494-1.703-.3206-.35533-.78-.533-1.378-.533-.4766 0-.8666.052-1.17.156-.3033.104-.5763.221-.819.351-.234.13-.4636.247-.689.351-.2253.104-.494.156-.806.156-.2773 0-.5156-.065-.715-.195-.1906-.1387-.3423-.30767-.455-.507l-.728-1.261c.8147-.71933 1.716-1.25233 2.704-1.599.9967-.35533 2.0627-.533 3.198-.533.8147 0 1.547.13433 2.197.403.6587.26 1.2134.62833 1.664 1.105.4594.468.8104 1.027 1.053 1.677.2427.65.364 1.3607.364 2.132v8.424zm-4.628-2.457c.52 0 .975-.091 1.365-.273s.7844-.4767 1.183-.884v-1.872c-.806.0347-1.469.104-1.989.208s-.9316.234-1.235.39c-.3033.156-.5156.3337-.637.533-.1126.1993-.169.416-.169.65 0 .4593.1257.7843.377.975.2514.182.6197.273 1.105.273zm15.6017-11.232c1.0226 0 1.9543.16033 2.795.481.8406.32067 1.56.78 2.158 1.378.6066.598 1.0746 1.326 1.404 2.184.338.8493.507 1.807.507 2.873 0 1.0747-.169 2.0453-.507 2.912-.3294.858-.7974 1.5903-1.404 2.197-.598.598-1.3174 1.0617-2.158 1.391-.8407.3207-1.7724.481-2.795.481-1.0314 0-1.9717-.1603-2.821-.481-.8407-.3293-1.5687-.793-2.184-1.391-.6067-.6067-1.079-1.339-1.417-2.197-.3294-.8667-.494-1.8373-.494-2.912 0-1.066.1646-2.0237.494-2.873.338-.858.8103-1.586 1.417-2.184.6153-.598 1.3433-1.05733 2.184-1.378.8493-.32067 1.7896-.481 2.821-.481zm0 10.907c.9273 0 1.6076-.325 2.041-.975.442-.6587.663-1.6553.663-2.99s-.221-2.327-.663-2.977c-.4334-.65-1.1137-.975-2.041-.975-.9534 0-1.651.325-2.093.975s-.663 1.6423-.663 2.977.221 2.3313.663 2.99c.442.65 1.1396.975 2.093.975zm13.366-16.679001v10.907001h.598c.2513 0 .442-.0347.572-.104.1387-.0693.2687-.195.39-.377l2.548-3.796c.1473-.22533.3207-.39.52-.494.208-.104.468-.156.78-.156h3.692l-3.484 4.797c-.1647.2253-.3467.4247-.546.598-.1907.1733-.3987.3293-.624.468.39.2947.728.6847 1.014 1.17l3.796 6.448h-3.64c-.3033 0-.5677-.0477-.793-.143-.2167-.104-.3943-.2817-.533-.533l-2.548-4.771c-.1213-.2167-.247-.3553-.377-.416-.13-.0693-.325-.104-.585-.104h-.78v5.967h-4.03v-19.461001zm20.518 19.461001c-.381 0-.671-.052-.871-.156-.19-.104-.351-.3207-.481-.65l-.286-.741c-.338.286-.663.5373-.975.754-.3115.2167-.6365.403-.9745.559-.3294.1473-.6847.2557-1.066.325-.3727.078-.7887.117-1.248.117-.6154 0-1.1744-.078-1.677-.234-.5027-.1647-.9317-.403-1.287-.715-.3467-.312-.6154-.6977-.806-1.157-.1907-.468-.286-1.0053-.286-1.612 0-.4767.1213-.9663.364-1.469.2426-.5027.663-.9577 1.261-1.365.598-.416 1.404-.7627 2.418-1.04s2.2923-.4333 3.8345-.468v-.572c0-.7887-.164-1.3563-.494-1.703-.3202-.35533-.7795-.533-1.3775-.533-.4767 0-.8667.052-1.17.156-.3034.104-.5764.221-.819.351-.234.13-.4637.247-.689.351-.2254.104-.494.156-.806.156-.2774 0-.5157-.065-.715-.195-.1907-.1387-.3424-.30767-.455-.507l-.728-1.261c.8146-.71933 1.716-1.25233 2.704-1.599.9966-.35533 2.0626-.533 3.198-.533.8145 0 1.5465.13433 2.1965.403.659.26 1.214.62833 1.664 1.105.46.468.811 1.027 1.053 1.677.243.65.364 1.3607.364 2.132v8.424zm-4.6275-2.457c.52 0 .975-.091 1.365-.273s.7845-.4767 1.1825-.884v-1.872c-.8055.0347-1.4685.104-1.9885.208s-.9317.234-1.235.39c-.3034.156-.5157.3337-.637.533-.1127.1993-.169.416-.169.65 0 .4593.1256.7843.377.975.2513.182.6196.273 1.105.273zm19.2765-8.814h.702c.65 0 1.118-.20367 1.404-.611l4.264-6.188c.234-.338.499-.56767.793-.689.304-.12133.672-.182 1.105-.182h3.822l-5.616 7.657c-.199.27733-.407.507-.624.689-.216.182-.437.33367-.663.455.33.12133.629.2903.897.507.278.208.529.4897.754.845l5.72 8.788h-3.926c-.251 0-.468-.0173-.65-.052-.173-.0347-.325-.0867-.455-.156s-.242-.1517-.338-.247c-.095-.104-.186-.221-.273-.351l-4.29-6.591c-.156-.2427-.355-.4117-.598-.507-.234-.104-.554-.156-.962-.156h-1.066v8.06h-4.394v-18.941h4.394zm19.773-2.418c1.022 0 1.954.16033 2.795.481.84.32067 1.56.78 2.158 1.378.606.598 1.074 1.326 1.404 2.184.338.8493.507 1.807.507 2.873 0 1.0747-.169 2.0453-.507 2.912-.33.858-.798 1.5903-1.404 2.197-.598.598-1.318 1.0617-2.158 1.391-.841.3207-1.773.481-2.795.481-1.032 0-1.972-.1603-2.821-.481-.841-.3293-1.569-.793-2.184-1.391-.607-.6067-1.079-1.339-1.417-2.197-.33-.8667-.494-1.8373-.494-2.912 0-1.066.164-2.0237.494-2.873.338-.858.81-1.586 1.417-2.184.615-.598 1.343-1.05733 2.184-1.378.849-.32067 1.789-.481 2.821-.481zm0 10.907c.927 0 1.607-.325 2.041-.975.442-.6587.663-1.6553.663-2.99s-.221-2.327-.663-2.977c-.434-.65-1.114-.975-2.041-.975-.954 0-1.651.325-2.093.975s-.663 1.6423-.663 2.977.221 2.3313.663 2.99c.442.65 1.139.975 2.093.975zm17.578-7.748c-.104.16467-.217.28167-.338.351-.113.06933-.26.104-.442.104-.191 0-.381-.039-.572-.117-.191-.08667-.399-.17767-.624-.273-.217-.09533-.464-.182-.741-.26-.277-.08667-.594-.13-.949-.13-.511 0-.906.09967-1.183.299-.269.19067-.403.45933-.403.806 0 .2513.087.4593.26.624.182.1647.42.312.715.442.295.1213.628.2383 1.001.351s.754.2383 1.144.377.771.3033 1.144.494c.373.182.706.4117 1.001.689.295.2687.529.598.702.988.182.39.273.858.273 1.404 0 .6673-.121 1.2827-.364 1.846s-.607 1.0487-1.092 1.456c-.477.4073-1.07.7237-1.781.949-.702.2253-1.512.338-2.431.338-.459 0-.919-.0433-1.378-.13s-.906-.2037-1.339-.351c-.425-.1473-.819-.3207-1.183-.52-.364-.208-.676-.429-.936-.663l.936-1.482c.113-.1733.247-.3077.403-.403.156-.104.36-.156.611-.156.234 0 .442.052.624.156.191.104.394.2167.611.338s.468.234.754.338c.295.104.663.156 1.105.156.312 0 .576-.0303.793-.091.217-.0693.39-.1603.52-.273s.225-.2383.286-.377.091-.2817.091-.429c0-.2687-.091-.4897-.273-.663s-.42-.3207-.715-.442c-.295-.13-.633-.247-1.014-.351-.373-.1127-.754-.2383-1.144-.377s-.776-.3033-1.157-.494c-.373-.1993-.706-.4463-1.001-.741-.295-.3033-.533-.6717-.715-1.105s-.273-.9577-.273-1.573c0-.572.108-1.11367.325-1.625.225-.52.559-.975 1.001-1.365s.997-.69767 1.664-.923c.667-.234 1.447-.351 2.34-.351.485 0 .953.04333 1.404.13.459.08667.888.208 1.287.364s.763.34233 1.092.559c.329.208.62.43767.871.689zm12.777 10.53c-.381 0-.672-.052-.871-.156-.191-.104-.351-.3207-.481-.65l-.286-.741c-.338.286-.663.5373-.975.754s-.637.403-.975.559c-.329.1473-.685.2557-1.066.325-.373.078-.789.117-1.248.117-.615 0-1.174-.078-1.677-.234-.503-.1647-.932-.403-1.287-.715-.347-.312-.615-.6977-.806-1.157-.191-.468-.286-1.0053-.286-1.612 0-.4767.121-.9663.364-1.469s.663-.9577 1.261-1.365c.598-.416 1.404-.7627 2.418-1.04s2.292-.4333 3.835-.468v-.572c0-.7887-.165-1.3563-.494-1.703-.321-.35533-.78-.533-1.378-.533-.477 0-.867.052-1.17.156s-.576.221-.819.351c-.234.13-.464.247-.689.351s-.494.156-.806.156c-.277 0-.516-.065-.715-.195-.191-.1387-.342-.30767-.455-.507l-.728-1.261c.815-.71933 1.716-1.25233 2.704-1.599.997-.35533 2.063-.533 3.198-.533.815 0 1.547.13433 2.197.403.659.26 1.213.62833 1.664 1.105.459.468.81 1.027 1.053 1.677s.364 1.3607.364 2.132v8.424zm-4.628-2.457c.52 0 .975-.091 1.365-.273s.784-.4767 1.183-.884v-1.872c-.806.0347-1.469.104-1.989.208s-.932.234-1.235.39-.516.3337-.637.533c-.113.1993-.169.416-.169.65 0 .4593.126.7843.377.975.251.182.62.273 1.105.273zm13.626-17.004001v10.907001h.598c.251 0 .442-.0347.572-.104.138-.0693.268-.195.39-.377l2.548-3.796c.147-.22533.32-.39.52-.494.208-.104.468-.156.78-.156h3.692l-3.484 4.797c-.165.2253-.347.4247-.546.598-.191.1733-.399.3293-.624.468.39.2947.728.6847 1.014 1.17l3.796 6.448h-3.64c-.304 0-.568-.0477-.793-.143-.217-.104-.395-.2817-.533-.533l-2.548-4.771c-.122-.2167-.247-.3553-.377-.416-.13-.0693-.325-.104-.585-.104h-.78v5.967h-4.03v-19.461001zm14.98 5.980001v8.554c0 .6673.152 1.183.455 1.547s.75.546 1.339.546c.442 0 .854-.091 1.235-.273.39-.182.767-.4377 1.131-.767v-9.607h4.03v13.481h-2.496c-.503 0-.832-.2253-.988-.676l-.247-.78c-.26.2513-.529.481-.806.689-.277.1993-.576.3727-.897.52-.312.1387-.65.247-1.014.325-.364.0867-.763.13-1.196.13-.737 0-1.391-.1257-1.963-.377-.563-.26-1.04-.6197-1.43-1.079s-.685-1.001-.884-1.625-.299-1.3087-.299-2.054v-8.554zm19.814 2.951c-.104.16467-.217.28167-.338.351-.113.06933-.26.104-.442.104-.191 0-.381-.039-.572-.117-.191-.08667-.399-.17767-.624-.273-.217-.09533-.464-.182-.741-.26-.277-.08667-.594-.13-.949-.13-.511 0-.906.09967-1.183.299-.269.19067-.403.45933-.403.806 0 .2513.087.4593.26.624.182.1647.42.312.715.442.295.1213.628.2383 1.001.351s.754.2383 1.144.377.771.3033 1.144.494c.373.182.706.4117 1.001.689.295.2687.529.598.702.988.182.39.273.858.273 1.404 0 .6673-.121 1.2827-.364 1.846s-.607 1.0487-1.092 1.456c-.477.4073-1.07.7237-1.781.949-.702.2253-1.512.338-2.431.338-.459 0-.919-.0433-1.378-.13s-.906-.2037-1.339-.351c-.425-.1473-.819-.3207-1.183-.52-.364-.208-.676-.429-.936-.663l.936-1.482c.113-.1733.247-.3077.403-.403.156-.104.36-.156.611-.156.234 0 .442.052.624.156.191.104.394.2167.611.338s.468.234.754.338c.295.104.663.156 1.105.156.312 0 .576-.0303.793-.091.217-.0693.39-.1603.52-.273s.225-.2383.286-.377.091-.2817.091-.429c0-.2687-.091-.4897-.273-.663s-.42-.3207-.715-.442c-.295-.13-.633-.247-1.014-.351-.373-.1127-.754-.2383-1.144-.377s-.776-.3033-1.157-.494c-.373-.1993-.706-.4463-1.001-.741-.295-.3033-.533-.6717-.715-1.105s-.273-.9577-.273-1.573c0-.572.108-1.11367.325-1.625.225-.52.559-.975 1.001-1.365s.997-.69767 1.664-.923c.667-.234 1.447-.351 2.34-.351.485 0 .953.04333 1.404.13.459.08667.888.208 1.287.364s.763.34233 1.092.559c.329.208.62.43767.871.689zm3.469 10.53v-19.461001h4.03v7.163001c.486-.416 1.01-.74967 1.573-1.001.572-.26 1.253-.39 2.041-.39.737 0 1.387.13 1.95.39.572.25133 1.053.60667 1.443 1.066.39.45067.685.99233.884 1.625.2.624.299 1.3043.299 2.041v8.567h-4.03v-8.567c0-.6587-.151-1.17-.455-1.534-.303-.37267-.749-.559-1.339-.559-.442 0-.858.09533-1.248.286s-.762.4463-1.118.767v9.607zm21.348-13.689c1.023 0 1.955.16033 2.795.481.841.32067 1.56.78 2.158 1.378.607.598 1.075 1.326 1.404 2.184.338.8493.507 1.807.507 2.873 0 1.0747-.169 2.0453-.507 2.912-.329.858-.797 1.5903-1.404 2.197-.598.598-1.317 1.0617-2.158 1.391-.84.3207-1.772.481-2.795.481-1.031 0-1.971-.1603-2.821-.481-.84-.3293-1.568-.793-2.184-1.391-.606-.6067-1.079-1.339-1.417-2.197-.329-.8667-.494-1.8373-.494-2.912 0-1.066.165-2.0237.494-2.873.338-.858.811-1.586 1.417-2.184.616-.598 1.344-1.05733 2.184-1.378.85-.32067 1.79-.481 2.821-.481zm0 10.907c.928 0 1.608-.325 2.041-.975.442-.6587.663-1.6553.663-2.99s-.221-2.327-.663-2.977c-.433-.65-1.113-.975-2.041-.975-.953 0-1.651.325-2.093.975s-.663 1.6423-.663 2.977.221 2.3313.663 2.99c.442.65 1.14.975 2.093.975z" fill="#121111"/></svg>