<svg fill="none" height="21" viewBox="0 0 50 21" width="50" xmlns="http://www.w3.org/2000/svg"><path d="m4.954 13.669v6.331h-4.394v-18.941h6.682c1.33467 0 2.47867.16033 3.432.481.962.312 1.7507.74533 2.366 1.3.624.55467 1.0833 1.209 1.378 1.963s.442 1.56867.442 2.444c0 .94467-.1517 1.81133-.455 2.6-.3033.7887-.767 1.4647-1.391 2.028s-1.417 1.0053-2.379 1.326c-.95333.312-2.08433.468-3.393.468zm0-3.315h2.288c1.144 0 1.96733-.273 2.47-.819.5027-.546.754-1.30867.754-2.288 0-.43333-.065-.82767-.195-1.183s-.32933-.65867-.598-.91c-.26-.26-.59367-.45933-1.001-.598-.39867-.13867-.87533-.208-1.43-.208h-2.288zm25.1731 4.745c.104 0 .208.0217.312.065.104.0347.2036.0997.299.195l1.742 1.833c-.7627.9967-1.7204 1.7507-2.873 2.262-1.144.5027-2.5004.754-4.069.754-1.4387 0-2.73-.2427-3.874-.728-1.1354-.494-2.1017-1.17-2.899-2.028-.7887-.8667-1.3954-1.8893-1.82-3.068-.4247-1.1873-.637-2.4743-.637-3.861 0-1.41267.2426-2.70833.728-3.887.4853-1.18733 1.1613-2.21 2.028-3.068.8753-.858 1.9196-1.52533 3.133-2.002 1.2133-.47667 2.5523-.715001 4.017-.715001.7106 0 1.378.065 2.002.195001.6326.12133 1.222.29467 1.768.52.546.21667 1.0486.481 1.508.793.4593.30333.8666.64133 1.222 1.014l-1.482 1.989c-.0954.12133-.208.234-.338.338-.13.09533-.312.143-.546.143-.156 0-.3034-.03467-.442-.104-.1387-.06933-.286-.15167-.442-.247-.156-.104-.3294-.21233-.52-.325-.182-.12133-.403-.22967-.663-.325-.2514-.104-.5504-.19067-.897-.26-.338-.06933-.7367-.104-1.196-.104-.7974 0-1.5254.143-2.184.429-.6587.27733-1.2264.68033-1.703 1.209-.468.52-.8364 1.15267-1.105 1.898-.26.74533-.39 1.58167-.39 2.509 0 .9707.13 1.833.39 2.587.2686.754.6283 1.391 1.079 1.911.4593.5113.9923.9013 1.599 1.17.6066.2687 1.2566.403 1.95.403.3986 0 .7626-.0173 1.092-.052.3293-.0433.6326-.1127.91-.208.286-.0953.5546-.2167.806-.364.26-.156.52-.3467.78-.572.104-.0867.2166-.156.338-.208.1213-.0607.247-.091.377-.091zm9.0149-1.43v6.331h-4.394v-18.941h6.682c1.3346 0 2.4786.16033 3.432.481.962.312 1.7506.74533 2.366 1.3.624.55467 1.0833 1.209 1.378 1.963.2946.754.442 1.56867.442 2.444 0 .94467-.1517 1.81133-.455 2.6-.3034.7887-.767 1.4647-1.391 2.028s-1.417 1.0053-2.379 1.326c-.9534.312-2.0844.468-3.393.468zm0-3.315h2.288c1.144 0 1.9673-.273 2.47-.819.5026-.546.754-1.30867.754-2.288 0-.43333-.065-.82767-.195-1.183s-.3294-.65867-.598-.91c-.26-.26-.5937-.45933-1.001-.598-.3987-.13867-.8754-.208-1.43-.208h-2.288z" fill="#121111"/></svg>