<svg width="278" height="25" fill="none" xmlns="http://www.w3.org/2000/svg"><path d="M20.254 10.523c0 1.37-.238 2.643-.715 3.822a9.2 9.2 0 0 1-1.989 3.081c-.858.867-1.894 1.547-3.107 2.041-1.205.494-2.544.741-4.017.741-1.473 0-2.817-.247-4.03-.741s-2.253-1.174-3.12-2.041a9.368 9.368 0 0 1-2.002-3.081c-.468-1.179-.702-2.453-.702-3.822 0-1.37.234-2.643.702-3.822a9.223 9.223 0 0 1 2.002-3.068c.867-.867 1.907-1.547 3.12-2.041s2.557-.741 4.03-.741c1.473 0 2.812.251 4.017.754 1.213.494 2.249 1.174 3.107 2.041a9.06 9.06 0 0 1 1.989 3.068c.477 1.179.715 2.448.715 3.809zm-4.498 0c0-.936-.121-1.777-.364-2.522-.243-.754-.594-1.391-1.053-1.911a4.455 4.455 0 0 0-1.664-1.196c-.659-.277-1.408-.416-2.249-.416-.85 0-1.608.139-2.275.416A4.572 4.572 0 0 0 6.474 6.09c-.45.52-.797 1.157-1.04 1.911-.243.745-.364 1.586-.364 2.522 0 .945.121 1.794.364 2.548.243.745.59 1.378 1.04 1.898.46.52 1.018.919 1.677 1.196.667.269 1.426.403 2.275.403.84 0 1.59-.134 2.249-.403a4.455 4.455 0 0 0 1.664-1.196c.46-.52.81-1.153 1.053-1.898.243-.754.364-1.603.364-2.548zM22.615 20V6.519h2.392c.2 0 .364.017.494.052a.777.777 0 0 1 .338.169c.095.07.165.165.208.286.052.121.095.269.13.442l.22 1.261c.495-.763 1.05-1.365 1.665-1.807a3.381 3.381 0 0 1 2.015-.663c.615 0 1.11.147 1.482.442l-.52 2.964c-.035.182-.104.312-.208.39a.74.74 0 0 1-.416.104c-.147 0-.32-.017-.52-.052a3.64 3.64 0 0 0-.754-.065c-1.057 0-1.89.563-2.496 1.69V20h-4.03zm15.16-13.481V20h-4.03V6.519h4.03zm.468-3.692c0 .32-.065.624-.195.91-.13.277-.308.524-.533.741a2.76 2.76 0 0 1-.793.507 2.468 2.468 0 0 1-.949.182c-.33 0-.637-.06-.923-.182a2.878 2.878 0 0 1-.767-.507 2.601 2.601 0 0 1-.52-.741 2.305 2.305 0 0 1-.182-.91c0-.33.06-.637.182-.923.13-.286.303-.537.52-.754.226-.217.481-.386.767-.507.286-.121.594-.182.923-.182.338 0 .654.06.95.182a2.438 2.438 0 0 1 1.325 1.261c.13.286.195.594.195.923zm7.804 3.458c.572 0 1.11.056 1.612.169a6.49 6.49 0 0 1 1.417.481h4.07v1.469c0 .225-.066.403-.196.533-.121.13-.333.23-.637.299l-.988.221c.122.39.182.793.182 1.209 0 .676-.143 1.283-.429 1.82a4.103 4.103 0 0 1-1.157 1.378 5.492 5.492 0 0 1-1.729.871 7.46 7.46 0 0 1-2.145.299c-.424 0-.823-.026-1.196-.078-.294.173-.442.373-.442.598 0 .225.117.39.351.494.243.095.56.165.95.208.39.035.836.06 1.338.078a18.66 18.66 0 0 1 1.534.091c.52.043 1.032.121 1.534.234.503.113.95.295 1.34.546.39.251.701.59.935 1.014.243.416.364.949.364 1.599 0 .607-.147 1.2-.442 1.781-.294.58-.728 1.096-1.3 1.547-.572.45-1.274.81-2.106 1.079-.832.277-1.785.416-2.86.416-1.057 0-1.971-.1-2.743-.299-.762-.2-1.4-.464-1.91-.793-.503-.32-.876-.693-1.119-1.118a2.637 2.637 0 0 1-.364-1.326c0-.598.182-1.1.546-1.508.364-.416.863-.741 1.495-.975a2.282 2.282 0 0 1-.728-.767c-.182-.312-.273-.706-.273-1.183a2.288 2.288 0 0 1 .429-1.274c.148-.208.334-.407.56-.598.225-.19.493-.36.805-.507a4.458 4.458 0 0 1-1.664-1.482c-.398-.615-.598-1.33-.598-2.145 0-.676.143-1.283.43-1.82a4.074 4.074 0 0 1 1.17-1.378 5.44 5.44 0 0 1 1.767-.871 7.437 7.437 0 0 1 2.197-.312zm2.99 14.209a.68.68 0 0 0-.208-.52 1.373 1.373 0 0 0-.546-.312 3.75 3.75 0 0 0-.806-.169c-.303-.035-.632-.06-.988-.078-.355-.017-.723-.03-1.105-.039a16.134 16.134 0 0 1-1.13-.091c-.252.173-.46.368-.625.585a1.16 1.16 0 0 0-.234.715c0 .19.04.364.117.52.087.156.234.29.442.403.208.113.486.2.832.26.356.07.802.104 1.34.104.58 0 1.057-.035 1.43-.104.372-.07.667-.165.883-.286.226-.121.382-.269.468-.442.087-.165.13-.347.13-.546zm-2.99-7.943c.668 0 1.149-.165 1.443-.494.304-.338.455-.771.455-1.3 0-.546-.151-.975-.455-1.287-.294-.312-.775-.468-1.443-.468-.667 0-1.152.156-1.456.468-.294.312-.442.741-.442 1.287 0 .26.035.498.104.715.078.217.195.407.351.572.156.156.351.282.585.377.243.087.529.13.858.13zM59.32 6.519V20h-4.03V6.519h4.03zm.468-3.692c0 .32-.065.624-.195.91-.13.277-.308.524-.533.741a2.76 2.76 0 0 1-.793.507 2.468 2.468 0 0 1-.95.182c-.329 0-.636-.06-.922-.182a2.878 2.878 0 0 1-.767-.507 2.601 2.601 0 0 1-.52-.741 2.306 2.306 0 0 1-.182-.91c0-.33.06-.637.182-.923.13-.286.303-.537.52-.754.225-.217.48-.386.767-.507.286-.121.593-.182.923-.182.338 0 .654.06.949.182a2.436 2.436 0 0 1 1.326 1.261c.13.286.195.594.195.923zM62.833 20V6.519h2.496c.251 0 .459.056.624.169a.892.892 0 0 1 .364.507l.234.78a9.78 9.78 0 0 1 .806-.676c.277-.208.572-.381.884-.52a4.92 4.92 0 0 1 1.027-.338 5.33 5.33 0 0 1 1.209-.13c.736 0 1.386.13 1.95.39a3.946 3.946 0 0 1 1.443 1.066c.39.45.684.992.884 1.625.199.624.299 1.304.299 2.041V20h-4.03v-8.567c0-.659-.152-1.17-.455-1.534-.304-.373-.75-.559-1.34-.559-.441 0-.857.095-1.247.286-.39.19-.763.446-1.118.767V20h-4.03zm24.65 0c-.382 0-.672-.052-.871-.156-.191-.104-.351-.32-.481-.65l-.286-.741a13 13 0 0 1-.975.754 6.431 6.431 0 0 1-.975.559c-.33.147-.685.256-1.066.325a6.11 6.11 0 0 1-1.248.117 5.643 5.643 0 0 1-1.677-.234 3.641 3.641 0 0 1-1.287-.715 3.162 3.162 0 0 1-.806-1.157c-.191-.468-.286-1.005-.286-1.612 0-.477.121-.966.364-1.469.242-.503.663-.958 1.26-1.365.599-.416 1.405-.763 2.419-1.04s2.292-.433 3.835-.468v-.572c0-.789-.165-1.356-.494-1.703-.321-.355-.78-.533-1.378-.533-.477 0-.867.052-1.17.156a5.541 5.541 0 0 0-.82.351c-.233.13-.463.247-.688.351a1.91 1.91 0 0 1-.806.156 1.28 1.28 0 0 1-.715-.195 1.588 1.588 0 0 1-.455-.507l-.728-1.261a8.119 8.119 0 0 1 2.704-1.599 9.453 9.453 0 0 1 3.198-.533c.814 0 1.547.134 2.197.403.658.26 1.213.628 1.664 1.105.459.468.81 1.027 1.053 1.677.242.65.364 1.36.364 2.132V20h-1.846zm-4.628-2.457c.52 0 .975-.091 1.365-.273.39-.182.784-.477 1.183-.884v-1.872c-.806.035-1.47.104-1.99.208s-.931.234-1.234.39c-.304.156-.516.334-.637.533-.113.2-.17.416-.17.65 0 .46.126.784.378.975.251.182.62.273 1.105.273zM96.61.539V20h-4.03V.539h4.03zM105.412 20V1.059h6.968c1.308 0 2.422.121 3.341.364.918.243 1.668.585 2.249 1.027a3.85 3.85 0 0 1 1.261 1.612c.268.633.403 1.339.403 2.119 0 .425-.061.836-.182 1.235-.122.39-.312.758-.572 1.105a4.39 4.39 0 0 1-1.001.949 6.66 6.66 0 0 1-1.469.728c1.248.303 2.171.797 2.769 1.482.598.676.897 1.547.897 2.613 0 .806-.156 1.556-.468 2.249a5.187 5.187 0 0 1-1.378 1.82c-.598.511-1.339.914-2.223 1.209-.884.286-1.894.429-3.029.429h-7.566zm4.394-8.034v4.719h3.094c.58 0 1.053-.074 1.417-.221.372-.147.663-.338.871-.572.208-.234.351-.498.429-.793.078-.295.117-.594.117-.897 0-.347-.048-.659-.143-.936a1.487 1.487 0 0 0-.468-.702c-.217-.19-.507-.338-.871-.442-.364-.104-.824-.156-1.378-.156h-3.068zm0-2.938h2.288c.485 0 .923-.035 1.313-.104.39-.07.719-.19.988-.364a1.62 1.62 0 0 0 .624-.715c.147-.303.221-.685.221-1.144 0-.45-.057-.823-.169-1.118a1.61 1.61 0 0 0-.52-.728c-.234-.182-.533-.312-.897-.39a6.024 6.024 0 0 0-1.274-.117h-2.574v4.68zM132.042 20c-.381 0-.671-.052-.871-.156-.19-.104-.351-.32-.481-.65l-.286-.741a13 13 0 0 1-.975.754 6.431 6.431 0 0 1-.975.559 4.612 4.612 0 0 1-1.066.325 6.101 6.101 0 0 1-1.248.117 5.646 5.646 0 0 1-1.677-.234 3.653 3.653 0 0 1-1.287-.715 3.174 3.174 0 0 1-.806-1.157c-.19-.468-.286-1.005-.286-1.612 0-.477.122-.966.364-1.469.243-.503.663-.958 1.261-1.365.598-.416 1.404-.763 2.418-1.04 1.014-.277 2.293-.433 3.835-.468v-.572c0-.789-.164-1.356-.494-1.703-.32-.355-.78-.533-1.378-.533-.476 0-.866.052-1.17.156a5.569 5.569 0 0 0-.819.351c-.234.13-.463.247-.689.351a1.91 1.91 0 0 1-.806.156c-.277 0-.515-.065-.715-.195a1.6 1.6 0 0 1-.455-.507l-.728-1.261a8.122 8.122 0 0 1 2.704-1.599 9.456 9.456 0 0 1 3.198-.533c.815 0 1.547.134 2.197.403.659.26 1.214.628 1.664 1.105.46.468.811 1.027 1.053 1.677.243.65.364 1.36.364 2.132V20h-1.846zm-4.628-2.457c.52 0 .975-.091 1.365-.273.39-.182.785-.477 1.183-.884v-1.872c-.806.035-1.469.104-1.989.208s-.931.234-1.235.39c-.303.156-.515.334-.637.533-.112.2-.169.416-.169.65 0 .46.126.784.377.975.252.182.62.273 1.105.273zm14.354-11.258a7.36 7.36 0 0 1 1.612.169 6.49 6.49 0 0 1 1.417.481h4.069v1.469c0 .225-.065.403-.195.533-.121.13-.334.23-.637.299l-.988.221c.121.39.182.793.182 1.209 0 .676-.143 1.283-.429 1.82a4.1 4.1 0 0 1-1.157 1.378 5.493 5.493 0 0 1-1.729.871c-.667.2-1.382.299-2.145.299-.425 0-.823-.026-1.196-.078-.295.173-.442.373-.442.598 0 .225.117.39.351.494a3.8 3.8 0 0 0 .949.208c.39.035.836.06 1.339.078.503.009 1.014.039 1.534.091.52.043 1.031.121 1.534.234.503.113.949.295 1.339.546.39.251.702.59.936 1.014.243.416.364.949.364 1.599 0 .607-.147 1.2-.442 1.781-.295.58-.728 1.096-1.3 1.547-.572.45-1.274.81-2.106 1.079-.832.277-1.785.416-2.86.416-1.057 0-1.972-.1-2.743-.299-.763-.2-1.4-.464-1.911-.793-.503-.32-.875-.693-1.118-1.118a2.633 2.633 0 0 1-.364-1.326c0-.598.182-1.1.546-1.508.364-.416.862-.741 1.495-.975a2.285 2.285 0 0 1-.728-.767c-.182-.312-.273-.706-.273-1.183a2.289 2.289 0 0 1 .429-1.274c.147-.208.334-.407.559-.598.225-.19.494-.36.806-.507-.702-.373-1.257-.867-1.664-1.482-.399-.615-.598-1.33-.598-2.145 0-.676.143-1.283.429-1.82a4.074 4.074 0 0 1 1.17-1.378 5.442 5.442 0 0 1 1.768-.871 7.435 7.435 0 0 1 2.197-.312zm2.99 14.209a.678.678 0 0 0-.208-.52 1.373 1.373 0 0 0-.546-.312 3.747 3.747 0 0 0-.806-.169c-.303-.035-.633-.06-.988-.078-.355-.017-.724-.03-1.105-.039a16.164 16.164 0 0 1-1.131-.091 2.71 2.71 0 0 0-.624.585 1.16 1.16 0 0 0-.234.715c0 .19.039.364.117.52.087.156.234.29.442.403.208.113.485.2.832.26.355.07.802.104 1.339.104.581 0 1.057-.035 1.43-.104.373-.07.667-.165.884-.286.225-.121.381-.269.468-.442a1.15 1.15 0 0 0 .13-.546zm-2.99-7.943c.667 0 1.148-.165 1.443-.494.303-.338.455-.771.455-1.3 0-.546-.152-.975-.455-1.287-.295-.312-.776-.468-1.443-.468s-1.153.156-1.456.468c-.295.312-.442.741-.442 1.287 0 .26.035.498.104.715.078.217.195.407.351.572.156.156.351.282.585.377.243.087.529.13.858.13zm27.126 2.548c.104 0 .208.022.312.065.104.035.203.1.299.195l1.742 1.833a7.282 7.282 0 0 1-2.873 2.262c-1.144.503-2.501.754-4.069.754-1.439 0-2.73-.243-3.874-.728a8.56 8.56 0 0 1-2.899-2.028c-.789-.867-1.396-1.89-1.82-3.068-.425-1.187-.637-2.474-.637-3.861 0-1.413.242-2.708.728-3.887a9.104 9.104 0 0 1 2.028-3.068c.875-.858 1.919-1.525 3.133-2.002 1.213-.477 2.552-.715 4.017-.715.71 0 1.378.065 2.002.195a9.146 9.146 0 0 1 1.768.52 7.8 7.8 0 0 1 1.508.793c.459.303.866.641 1.222 1.014l-1.482 1.989a2.104 2.104 0 0 1-.338.338c-.13.095-.312.143-.546.143a.973.973 0 0 1-.442-.104 5.926 5.926 0 0 1-.442-.247c-.156-.104-.33-.212-.52-.325a3.15 3.15 0 0 0-.663-.325 4.88 4.88 0 0 0-.897-.26 6.023 6.023 0 0 0-1.196-.104c-.798 0-1.526.143-2.184.429a4.735 4.735 0 0 0-1.703 1.209c-.468.52-.837 1.153-1.105 1.898-.26.745-.39 1.582-.39 2.509 0 .97.13 1.833.39 2.587.268.754.628 1.391 1.079 1.911a4.674 4.674 0 0 0 3.549 1.573c.398 0 .762-.017 1.092-.052.329-.043.632-.113.91-.208.286-.095.554-.217.806-.364.26-.156.52-.347.78-.572.104-.087.216-.156.338-.208a.832.832 0 0 1 .377-.091zm10.626-8.788c1.023 0 1.955.16 2.795.481.841.32 1.56.78 2.158 1.378a6.069 6.069 0 0 1 1.404 2.184c.338.85.507 1.807.507 2.873 0 1.075-.169 2.045-.507 2.912a6.199 6.199 0 0 1-1.404 2.197 6.212 6.212 0 0 1-2.158 1.391c-.84.32-1.772.481-2.795.481-1.031 0-1.971-.16-2.821-.481a6.505 6.505 0 0 1-2.184-1.391 6.369 6.369 0 0 1-1.417-2.197c-.329-.867-.494-1.837-.494-2.912 0-1.066.165-2.024.494-2.873a6.233 6.233 0 0 1 1.417-2.184 6.344 6.344 0 0 1 2.184-1.378c.85-.32 1.79-.481 2.821-.481zm0 10.907c.928 0 1.608-.325 2.041-.975.442-.659.663-1.655.663-2.99 0-1.335-.221-2.327-.663-2.977-.433-.65-1.113-.975-2.041-.975-.953 0-1.651.325-2.093.975-.442.65-.663 1.642-.663 2.977s.221 2.331.663 2.99c.442.65 1.14.975 2.093.975zM193.016.539V20h-4.03V.539h4.03zm7.675 0V20h-4.03V.539h4.03zm9.286 5.772c.892 0 1.707.139 2.444.416a5.25 5.25 0 0 1 1.911 1.209 5.405 5.405 0 0 1 1.248 1.95c.303.763.455 1.63.455 2.6 0 .303-.013.55-.039.741-.026.19-.074.342-.143.455a.545.545 0 0 1-.286.234c-.113.043-.26.065-.442.065h-7.774c.13 1.127.472 1.946 1.027 2.457.554.503 1.269.754 2.145.754.468 0 .871-.056 1.209-.169a5.82 5.82 0 0 0 .897-.377l.728-.377c.225-.113.459-.169.702-.169.32 0 .563.117.728.351l1.17 1.443a6.074 6.074 0 0 1-1.352 1.17 7.236 7.236 0 0 1-1.482.702 7.856 7.856 0 0 1-1.521.338c-.503.07-.984.104-1.443.104a7.72 7.72 0 0 1-2.665-.455 6.258 6.258 0 0 1-2.171-1.378c-.616-.607-1.105-1.36-1.469-2.262-.356-.901-.533-1.95-.533-3.146 0-.901.151-1.755.455-2.561a6.447 6.447 0 0 1 1.326-2.119 6.393 6.393 0 0 1 2.093-1.443c.823-.355 1.75-.533 2.782-.533zm.078 2.782c-.772 0-1.374.221-1.807.663-.434.433-.72 1.062-.858 1.885h5.031c0-.32-.044-.633-.13-.936a2.088 2.088 0 0 0-.403-.806 1.963 1.963 0 0 0-.728-.585c-.304-.147-.672-.221-1.105-.221zm18.276.624a2.2 2.2 0 0 1-.351.351c-.112.087-.273.13-.481.13-.199 0-.381-.048-.546-.143a17.45 17.45 0 0 0-.533-.312 3.764 3.764 0 0 0-.702-.325c-.268-.095-.602-.143-1.001-.143-.494 0-.923.091-1.287.273-.355.182-.65.442-.884.78-.234.338-.407.754-.52 1.248a7.368 7.368 0 0 0-.169 1.651c0 1.291.247 2.284.741 2.977.503.693 1.192 1.04 2.067 1.04.468 0 .837-.056 1.105-.169.278-.121.512-.251.702-.39l.52-.403c.165-.121.369-.182.611-.182.321 0 .564.117.728.351l1.17 1.443a6.517 6.517 0 0 1-1.313 1.17 6.923 6.923 0 0 1-1.417.702 7.09 7.09 0 0 1-1.443.338c-.485.07-.957.104-1.417.104a6.13 6.13 0 0 1-2.366-.468 5.913 5.913 0 0 1-1.976-1.352c-.563-.598-1.014-1.33-1.352-2.197-.329-.867-.494-1.855-.494-2.964 0-.97.143-1.876.429-2.717a6.246 6.246 0 0 1 1.287-2.197 6.022 6.022 0 0 1 2.106-1.469c.841-.355 1.812-.533 2.912-.533 1.058 0 1.985.169 2.782.507a6.665 6.665 0 0 1 2.158 1.482l-1.066 1.417zm7.913 10.491c-.642 0-1.209-.091-1.703-.273a3.558 3.558 0 0 1-1.235-.793 3.477 3.477 0 0 1-.754-1.248 4.79 4.79 0 0 1-.26-1.625V9.301h-1.144a.777.777 0 0 1-.533-.195c-.148-.139-.221-.338-.221-.598V6.935l2.145-.416.793-3.289c.104-.416.398-.624.884-.624h2.106v3.939h3.276v2.756h-3.276v6.695c0 .312.073.572.221.78.156.2.377.299.663.299.147 0 .268-.013.364-.039.104-.035.19-.07.26-.104a2.28 2.28 0 0 1 .208-.104.514.514 0 0 1 .234-.052.42.42 0 0 1 .286.091.878.878 0 0 1 .234.26l1.222 1.911c-.52.39-1.105.685-1.755.884-.65.19-1.322.286-2.015.286zm10.098-13.689V20h-4.03V6.519h4.03zm.468-3.692c0 .32-.065.624-.195.91-.13.277-.308.524-.533.741a2.76 2.76 0 0 1-.793.507 2.47 2.47 0 0 1-.949.182 2.34 2.34 0 0 1-.923-.182 2.873 2.873 0 0 1-.767-.507 2.595 2.595 0 0 1-.52-.741 2.312 2.312 0 0 1-.182-.91c0-.33.061-.637.182-.923a2.54 2.54 0 0 1 .52-.754 2.5 2.5 0 0 1 .767-.507 2.34 2.34 0 0 1 .923-.182c.338 0 .654.06.949.182a2.436 2.436 0 0 1 1.326 1.261c.13.286.195.594.195.923zm9.052 3.484c1.023 0 1.954.16 2.795.481.841.32 1.56.78 2.158 1.378a6.069 6.069 0 0 1 1.404 2.184c.338.85.507 1.807.507 2.873 0 1.075-.169 2.045-.507 2.912a6.199 6.199 0 0 1-1.404 2.197 6.212 6.212 0 0 1-2.158 1.391c-.841.32-1.772.481-2.795.481-1.031 0-1.972-.16-2.821-.481a6.485 6.485 0 0 1-2.184-1.391 6.355 6.355 0 0 1-1.417-2.197c-.329-.867-.494-1.837-.494-2.912 0-1.066.165-2.024.494-2.873a6.22 6.22 0 0 1 1.417-2.184 6.325 6.325 0 0 1 2.184-1.378c.849-.32 1.79-.481 2.821-.481zm0 10.907c.927 0 1.608-.325 2.041-.975.442-.659.663-1.655.663-2.99 0-1.335-.221-2.327-.663-2.977-.433-.65-1.114-.975-2.041-.975-.953 0-1.651.325-2.093.975-.442.65-.663 1.642-.663 2.977s.221 2.331.663 2.99c.442.65 1.14.975 2.093.975zM265.198 20V6.519h2.496c.251 0 .459.056.624.169a.892.892 0 0 1 .364.507l.234.78a9.78 9.78 0 0 1 .806-.676 4.928 4.928 0 0 1 1.911-.858c.373-.087.776-.13 1.209-.13.737 0 1.387.13 1.95.39a3.946 3.946 0 0 1 1.443 1.066c.39.45.685.992.884 1.625.199.624.299 1.304.299 2.041V20h-4.03v-8.567c0-.659-.152-1.17-.455-1.534-.303-.373-.75-.559-1.339-.559a2.8 2.8 0 0 0-1.248.286c-.39.19-.763.446-1.118.767V20h-4.03z" fill="#121111"/></svg>