<svg fill="none" height="25" viewBox="0 0 264 25" width="264" xmlns="http://www.w3.org/2000/svg"><path d="m6.328 15.376v8.624h-5.408v-23.312h7.584c1.6853 0 3.12.176 4.304.528 1.1947.34133 2.1653.82133 2.912 1.44.7573.61867 1.3067 1.34933 1.648 2.192s.512 1.76.512 2.752c0 .75733-.1013 1.472-.304 2.144s-.5067 1.296-.912 1.872c-.3947.5653-.8853 1.072-1.472 1.52-.576.448-1.2427.816-2 1.104.3627.1813.6987.4053 1.008.672.32.2667.5973.592.832.976l4.96 8.112h-4.896c-.9067 0-1.5573-.3413-1.952-1.024l-3.872-6.768c-.17067-.2987-.37333-.512-.608-.64-.224-.128-.544-.192-.96-.192zm0-3.728h2.176c.736 0 1.36-.0907 1.872-.272.5227-.192.9493-.4533 1.28-.784s.5707-.71467.72-1.152c.1493-.448.224-.928.224-1.44 0-1.024-.336-1.824-1.008-2.4-.6613-.576-1.69067-.864-3.088-.864h-2.176zm27.6493 12.352c-.4694 0-.8267-.064-1.072-.192-.2347-.128-.432-.3947-.592-.8l-.352-.912c-.4161.352-.816.6613-1.2.928s-.784.496-1.2001.688c-.4053.1813-.8426.3147-1.312.4-.4586.096-.9706.144-1.5359.144-.7574 0-1.4454-.096-2.064-.288-.6187-.2027-1.1467-.496-1.5841-.88-.4266-.384-.7573-.8587-.992-1.424-.2346-.576-.352-1.2373-.352-1.984 0-.5867.1494-1.1893.448-1.808.2987-.6187.816-1.1787 1.552-1.68.736-.512 1.728-.9387 2.976-1.28 1.2481-.3413 2.8214-.5333 4.7201-.576v-.704c0-.9707-.2027-1.6693-.6081-2.096-.3946-.4373-.96-.656-1.696-.656-.5866 0-1.0666.064-1.4399.192-.3734.128-.7094.272-1.0081.432-.2879.16-.5706.304-.848.432-.2773.128-.608.192-.992.192-.3413 0-.6346-.08-.88-.24-.2346-.1707-.4213-.3787-.56-.624l-.896-1.552c1.0027-.88533 2.112-1.54133 3.328-1.968 1.2267-.43733 2.5387-.656 3.9361-.656 1.0026 0 1.904.16533 2.704.496.8106.32 1.4933.77333 2.0479 1.36.5654.576.9974 1.264 1.2961 2.064.2986.8.448 1.6747.448 2.624v10.368zm-5.6961-3.024c.6401 0 1.2001-.112 1.6801-.336s.9653-.5867 1.456-1.088v-2.304c-.992.0427-1.8081.128-2.4481.256-.6399.128-1.1466.288-1.5199.48-.3734.192-.6347.4107-.7841.656-.1386.2453-.2079.512-.2079.8 0 .5653.1546.9653.4639 1.2.3094.224.7627.336 1.36.336zm11.81 3.024v-16.592h3.072c.3094 0 .5654.06933.768.208.2134.13867.3627.34667.448.624l.288.96c.32-.29867.6507-.576.992-.832.3414-.256.704-.46933 1.088-.64.3947-.18133.816-.32 1.264-.416.4587-.10667.9547-.16 1.488-.16.9067 0 1.7067.16 2.4001.48.7039.30933 1.2959.74667 1.776 1.312.48.55467.8426 1.2213 1.088 2 .2453.768.368 1.6053.368 2.512v10.544h-4.96v-10.544c0-.8107-.1867-1.44-.5601-1.888-.3733-.4587-.9226-.688-1.6479-.688-.544 0-1.056.1173-1.5361.352-.48.2347-.9386.5493-1.376.944v11.824zm30.8505-12.656c-.1493.1813-.2933.3253-.432.432-.1386.1067-.336.16-.592.16-.2453 0-.4693-.0587-.672-.176-.192-.1173-.4106-.2453-.656-.384-.2453-.1493-.5333-.2827-.864-.4-.3306-.1173-.7413-.176-1.232-.176-.608 0-1.136.112-1.584.336-.4373.224-.8.544-1.088.96s-.5013.928-.64 1.536c-.1386.5973-.208 1.2747-.208 2.032 0 1.5893.304 2.8107.912 3.664.6187.8533 1.4667 1.28 2.544 1.28.576 0 1.0294-.0693 1.36-.208.3414-.1493.6294-.3093.864-.48.2347-.1813.448-.3467.64-.496.2027-.1493.4534-.224.752-.224.3947 0 .6934.144.896.432l1.4401 1.776c-.5121.5867-1.0507 1.0667-1.6161 1.44-.5653.3627-1.1466.6507-1.744.864-.5866.2027-1.1786.3413-1.776.416-.5973.0853-1.1786.128-1.744.128-1.0133 0-1.984-.192-2.912-.576-.9173-.384-1.728-.9387-2.432-1.664-.6933-.736-1.248-1.6373-1.664-2.704-.4053-1.0667-.608-2.2827-.608-3.648 0-1.1947.176-2.3093.528-3.344.3627-1.0453.8907-1.9467 1.584-2.704.704-.768 1.568-1.37067 2.592-1.808 1.0347-.43733 2.2294-.656 3.584-.656 1.3014 0 2.4427.208 3.424.624.9814.416 1.8667 1.024 2.656 1.824zm3.9145 12.656v-23.9520016h4.96v8.8160016c.5974-.512 1.2427-.92267 1.936-1.232.704-.32 1.5414-.48 2.512-.48.9067 0 1.7067.16 2.4.48.704.30933 1.296.74667 1.776 1.312.48.55467.8427 1.2213 1.088 2 .2454.768.368 1.6053.368 2.512v10.544h-4.96v-10.544c0-.8107-.1866-1.44-.56-1.888-.3733-.4587-.9226-.688-1.648-.688-.544 0-1.056.1173-1.536.352s-.9386.5493-1.376.944v11.824zm26.2748-16.848c1.258 0 2.405.19733 3.44.592 1.034.39467 1.92.96 2.656 1.696.746.736 1.322 1.632 1.728 2.688.416 1.0453.624 2.224.624 3.536 0 1.3227-.208 2.5173-.624 3.584-.406 1.056-.982 1.9573-1.728 2.704-.736.736-1.622 1.3067-2.656 1.712-1.035.3947-2.182.592-3.44.592-1.2696 0-2.4269-.1973-3.4723-.592-1.0346-.4053-1.9306-.976-2.688-1.712-.7466-.7467-1.328-1.648-1.744-2.704-.4053-1.0667-.608-2.2613-.608-3.584 0-1.312.2027-2.4907.608-3.536.416-1.056.9974-1.952 1.744-2.688.7574-.736 1.6534-1.30133 2.688-1.696 1.0454-.39467 2.2027-.592 3.4723-.592zm0 13.424c1.141 0 1.978-.4 2.512-1.2.544-.8107.816-2.0373.816-3.68s-.272-2.864-.816-3.664c-.534-.8-1.371-1.2-2.512-1.2-1.1736 0-2.0323.4-2.5763 1.2s-.816 2.0213-.816 3.664.272 2.8693.816 3.68c.544.8 1.4027 1.2 2.5763 1.2zm30.99-15.152c-.16.256-.331.448-.512.576-.171.128-.395.192-.672.192-.246 0-.512-.07467-.8-.224-.278-.16-.598-.336-.96-.528-.352-.192-.758-.36267-1.216-.512-.459-.16-.982-.24-1.568-.24-1.014 0-1.771.21867-2.272.656-.491.42667-.736 1.008-.736 1.744 0 .46933.149.85867.448 1.168.298.30933.688.576 1.168.8.49.224 1.045.432 1.664.624.629.18133 1.269.3893 1.92.624.65.224 1.285.4907 1.904.8.629.3093 1.184.704 1.664 1.184.49.48.885 1.0667 1.184 1.76.298.6827.448 1.5093.448 2.48 0 1.0773-.187 2.0853-.56 3.024-.374.9387-.918 1.76-1.632 2.464-.704.6933-1.579 1.2427-2.624 1.648-1.035.3947-2.214.592-3.536.592-.726 0-1.467-.0747-2.224-.224-.747-.1493-1.472-.3573-2.176-.624-.704-.2773-1.366-.6027-1.984-.976-.619-.3733-1.158-.7893-1.616-1.248l1.6-2.528c.117-.192.282-.3467.496-.464.213-.1173.442-.176.688-.176.32 0 .64.1013.96.304.33.2027.698.4267 1.104.672.416.2453.89.4693 1.424.672.533.2027 1.162.304 1.888.304.981 0 1.744-.2133 2.288-.64.544-.4373.816-1.1253.816-2.064 0-.544-.15-.9867-.448-1.328-.299-.3413-.694-.624-1.184-.848-.48-.224-1.03-.4213-1.648-.592-.619-.1707-1.254-.3573-1.904-.56-.651-.2133-1.286-.4693-1.904-.768-.619-.3093-1.174-.7093-1.664-1.2-.48-.5013-.87-1.12-1.168-1.856-.299-.74667-.448-1.664-.448-2.752 0-.87467.176-1.728.528-2.56s.869-1.57334 1.552-2.224c.682-.65067 1.52-1.168 2.512-1.552.992-.394668 2.128-.592001 3.408-.592001.714 0 1.408.058667 2.08.176001.682.106666 1.328.271999 1.936.496.608.21333 1.173.47467 1.696.784.533.29867 1.008.64 1.424 1.024zm12.063 1.728c1.259 0 2.406.19733 3.44.592 1.035.39467 1.92.96 2.656 1.696.747.736 1.323 1.632 1.728 2.688.416 1.0453.624 2.224.624 3.536 0 1.3227-.208 2.5173-.624 3.584-.405 1.056-.981 1.9573-1.728 2.704-.736.736-1.621 1.3067-2.656 1.712-1.034.3947-2.181.592-3.44.592-1.269 0-2.426-.1973-3.472-.592-1.034-.4053-1.93-.976-2.688-1.712-.746-.7467-1.328-1.648-1.744-2.704-.405-1.0667-.608-2.2613-.608-3.584 0-1.312.203-2.4907.608-3.536.416-1.056.998-1.952 1.744-2.688.758-.736 1.654-1.30133 2.688-1.696 1.046-.39467 2.203-.592 3.472-.592zm0 13.424c1.142 0 1.979-.4 2.512-1.2.544-.8107.816-2.0373.816-3.68s-.272-2.864-.816-3.664c-.533-.8-1.37-1.2-2.512-1.2-1.173 0-2.032.4-2.576 1.2s-.816 2.0213-.816 3.664.272 2.8693.816 3.68c.544.8 1.403 1.2 2.576 1.2zm11.491 3.424v-16.592h3.072c.309 0 .565.06933.768.208.213.13867.363.34667.448.624l.272.896c.277-.288.565-.54933.864-.784.299-.24533.619-.45333.96-.624.352-.18133.725-.32 1.12-.416.405-.10667.848-.16 1.328-.16 1.003 0 1.829.26133 2.48.784.661.512 1.163 1.2 1.504 2.064.277-.512.613-.94933 1.008-1.312.405-.36267.837-.656 1.296-.88.469-.224.96-.38933 1.472-.496.523-.10667 1.04-.16 1.552-.16.949 0 1.792.144 2.528.432.736.27733 1.349.688 1.84 1.232.501.53333.88 1.1947 1.136 1.984.256.7787.384 1.664.384 2.656v10.544h-4.96v-10.544c0-1.7173-.736-2.576-2.208-2.576-.672 0-1.232.224-1.68.672-.437.4373-.656 1.072-.656 1.904v10.544h-4.96v-10.544c0-.9493-.187-1.616-.56-2s-.923-.576-1.648-.576c-.448 0-.875.1013-1.28.304-.395.2027-.768.4747-1.12.816v12zm27.882 0v-23.9520016h4.96v9.1200016c.619-.608 1.318-1.09333 2.096-1.456.79-.37333 1.712-.56 2.768-.56.864 0 1.664.18667 2.4.56s1.371.92267 1.904 1.648c.534.7147.95 1.5947 1.248 2.64.31 1.0453.464 2.2347.464 3.568 0 1.248-.176 2.4-.528 3.456-.341 1.056-.826 1.9733-1.456 2.752-.618.7787-1.365 1.3867-2.24 1.824-.864.4373-1.824.656-2.88.656-.49 0-.933-.048-1.328-.144-.384-.096-.741-.2293-1.072-.4-.32-.1813-.618-.3947-.896-.64-.266-.2453-.528-.512-.784-.8l-.176.832c-.074.3413-.213.576-.416.704-.192.128-.448.192-.768.192zm8.096-13.12c-.362 0-.693.0373-.992.112-.288.064-.56.16-.816.288-.245.128-.474.2933-.688.496-.213.192-.426.416-.64.672v7.04c.374.416.779.7093 1.216.88.438.16.896.24 1.376.24.459 0 .88-.0907 1.264-.272s.715-.4693.992-.864c.288-.4053.512-.928.672-1.568s.24-1.4187.24-2.336c0-.8747-.064-1.6107-.192-2.208s-.309-1.0773-.544-1.44c-.224-.3733-.496-.64-.816-.8s-.677-.24-1.072-.24zm10.787 13.12v-16.592h2.944c.245 0 .448.02133.608.064.171.04267.309.112.416.208.117.08533.203.20267.256.352.064.14933.117.33067.16.544l.272 1.552c.608-.93867 1.291-1.68 2.048-2.224s1.584-.816 2.48-.816c.757 0 1.365.18133 1.824.544l-.64 3.648c-.043.224-.128.384-.256.48-.128.0853-.299.128-.512.128-.181 0-.395-.0213-.64-.064-.245-.0533-.555-.08-.928-.08-1.301 0-2.325.6933-3.072 2.08v10.176zm20.643-16.848c1.098 0 2.101.17067 3.008.512.917.34133 1.701.83733 2.352 1.488.661.65067 1.173 1.4507 1.536 2.4.373.9387.56 2.0053.56 3.2 0 .3733-.016.6773-.048.912s-.091.4213-.176.56c-.086.1387-.203.2347-.352.288-.139.0533-.32.08-.544.08h-9.568c.16 1.3867.581 2.3947 1.264 3.024.682.6187 1.562.928 2.64.928.576 0 1.072-.0693 1.488-.208s.784-.2933 1.104-.464c.33-.1707.629-.3253.896-.464.277-.1387.565-.208.864-.208.394 0 .693.144.896.432l1.44 1.776c-.512.5867-1.067 1.0667-1.664 1.44-.587.3627-1.195.6507-1.824.864-.619.2027-1.243.3413-1.872.416-.619.0853-1.211.128-1.776.128-1.163 0-2.256-.1867-3.28-.56-1.014-.384-1.904-.9493-2.672-1.696-.758-.7467-1.36-1.6747-1.808-2.784-.438-1.1093-.656-2.4-.656-3.872 0-1.1093.186-2.16.56-3.152.384-.992.928-1.8613 1.632-2.608.714-.74667 1.573-1.33867 2.576-1.776 1.013-.43733 2.154-.656 3.424-.656zm.096 3.424c-.95 0-1.691.272-2.224.816-.534.5333-.886 1.3067-1.056 2.32h6.192c0-.3947-.054-.7787-.16-1.152-.096-.3733-.262-.704-.496-.992-.224-.2987-.523-.5387-.896-.72-.374-.1813-.827-.272-1.36-.272zm10.526 13.424v-16.592h2.944c.245 0 .448.02133.608.064.171.04267.309.112.416.208.117.08533.203.20267.256.352.064.14933.117.33067.16.544l.272 1.552c.608-.93867 1.291-1.68 2.048-2.224s1.584-.816 2.48-.816c.757 0 1.365.18133 1.824.544l-.64 3.648c-.043.224-.128.384-.256.48-.128.0853-.299.128-.512.128-.181 0-.395-.0213-.64-.064-.245-.0533-.555-.08-.928-.08-1.301 0-2.325.6933-3.072 2.08v10.176zm20.931-16.848c1.258 0 2.405.19733 3.44.592 1.034.39467 1.92.96 2.656 1.696.746.736 1.322 1.632 1.728 2.688.416 1.0453.624 2.224.624 3.536 0 1.3227-.208 2.5173-.624 3.584-.406 1.056-.982 1.9573-1.728 2.704-.736.736-1.622 1.3067-2.656 1.712-1.035.3947-2.182.592-3.44.592-1.27 0-2.427-.1973-3.472-.592-1.035-.4053-1.931-.976-2.688-1.712-.747-.7467-1.328-1.648-1.744-2.704-.406-1.0667-.608-2.2613-.608-3.584 0-1.312.202-2.4907.608-3.536.416-1.056.997-1.952 1.744-2.688.757-.736 1.653-1.30133 2.688-1.696 1.045-.39467 2.202-.592 3.472-.592zm0 13.424c1.141 0 1.978-.4 2.512-1.2.544-.8107.816-2.0373.816-3.68s-.272-2.864-.816-3.664c-.534-.8-1.371-1.2-2.512-1.2-1.174 0-2.032.4-2.576 1.2s-.816 2.0213-.816 3.664.272 2.8693.816 3.68c.544.8 1.402 1.2 2.576 1.2z" fill="#121111"/></svg>