<svg width="92" height="20" fill="none" xmlns="http://www.w3.org/2000/svg"><path d="M.56 19V.059h6.968c1.309 0 2.422.121 3.341.364s1.668.585 2.249 1.027a3.85 3.85 0 0 1 1.261 1.612c.269.633.403 1.339.403 2.119 0 .425-.06.836-.182 1.235a3.63 3.63 0 0 1-.572 1.105c-.26.347-.594.663-1.001.949-.407.277-.897.52-1.469.728 1.248.303 2.171.797 2.769 1.482.598.676.897 1.547.897 2.613 0 .806-.156 1.556-.468 2.249a5.179 5.179 0 0 1-1.378 1.82c-.598.511-1.339.914-2.223 1.209-.884.286-1.894.429-3.029.429H.56zm4.394-8.034v4.719h3.094c.58 0 1.053-.074 1.417-.221.373-.147.663-.338.871-.572.208-.234.351-.498.429-.793.078-.295.117-.594.117-.897a2.87 2.87 0 0 0-.143-.936 1.483 1.483 0 0 0-.468-.702c-.217-.19-.507-.338-.871-.442-.364-.104-.823-.156-1.378-.156H4.954zm0-2.938h2.288a7.54 7.54 0 0 0 1.313-.104c.39-.07.72-.19.988-.364a1.62 1.62 0 0 0 .624-.715c.147-.303.221-.685.221-1.144 0-.45-.056-.823-.169-1.118a1.607 1.607 0 0 0-.52-.728c-.234-.182-.533-.312-.897-.39a6.02 6.02 0 0 0-1.274-.117H4.954v4.68zm12.668 1.443h7.02v3.25h-7.02v-3.25zm14.538 3.198V19h-4.394V.059h6.681c1.335 0 2.48.16 3.432.481.963.312 1.751.745 2.367 1.3a5.063 5.063 0 0 1 1.377 1.963 6.65 6.65 0 0 1 .443 2.444c0 .945-.152 1.811-.456 2.6a5.217 5.217 0 0 1-1.39 2.028c-.624.563-1.417 1.005-2.38 1.326-.953.312-2.084.468-3.393.468H32.16zm0-3.315h2.288c1.144 0 1.967-.273 2.47-.819.502-.546.754-1.309.754-2.288 0-.433-.066-.828-.195-1.183a2.317 2.317 0 0 0-.598-.91 2.55 2.55 0 0 0-1.002-.598c-.398-.139-.875-.208-1.43-.208H32.16v6.006zM44.605 19V5.519h2.392c.199 0 .364.017.494.052a.777.777 0 0 1 .338.169c.095.07.164.165.208.286.052.121.095.269.13.442l.22 1.261c.495-.763 1.05-1.365 1.665-1.807a3.381 3.381 0 0 1 2.015-.663c.615 0 1.109.147 1.482.442l-.52 2.964c-.035.182-.104.312-.208.39a.74.74 0 0 1-.416.104c-.148 0-.321-.017-.52-.052a3.668 3.668 0 0 0-.754-.065c-1.058 0-1.89.563-2.496 1.69V19h-4.03zM61.612 5.311c1.023 0 1.954.16 2.795.481.84.32 1.56.78 2.158 1.378a6.08 6.08 0 0 1 1.404 2.184c.338.85.507 1.807.507 2.873 0 1.075-.17 2.045-.507 2.912a6.21 6.21 0 0 1-1.404 2.197 6.215 6.215 0 0 1-2.158 1.391c-.84.32-1.772.481-2.795.481-1.032 0-1.972-.16-2.821-.481a6.491 6.491 0 0 1-2.184-1.391 6.359 6.359 0 0 1-1.417-2.197c-.33-.867-.494-1.837-.494-2.912 0-1.066.165-2.024.494-2.873a6.223 6.223 0 0 1 1.417-2.184 6.33 6.33 0 0 1 2.184-1.378c.85-.32 1.79-.481 2.82-.481zm0 10.907c.927 0 1.607-.325 2.04-.975.443-.659.664-1.655.664-2.99 0-1.335-.221-2.327-.663-2.977-.434-.65-1.114-.975-2.041-.975-.954 0-1.651.325-2.093.975-.442.65-.663 1.642-.663 2.977s.22 2.331.663 2.99c.442.65 1.14.975 2.093.975zM79.19 8.47a1.014 1.014 0 0 1-.338.351.834.834 0 0 1-.442.104 1.5 1.5 0 0 1-.572-.117 26.02 26.02 0 0 0-.624-.273 5.638 5.638 0 0 0-.741-.26 3.18 3.18 0 0 0-.95-.13c-.51 0-.905.1-1.182.299-.269.19-.403.46-.403.806 0 .251.087.46.26.624.182.165.42.312.715.442.295.121.628.238 1 .351.374.113.755.238 1.145.377s.771.303 1.144.494c.373.182.706.412 1 .689.296.269.53.598.703.988.182.39.273.858.273 1.404a4.61 4.61 0 0 1-.364 1.846 3.892 3.892 0 0 1-1.092 1.456c-.477.407-1.07.724-1.781.949-.702.225-1.512.338-2.431.338a7.38 7.38 0 0 1-1.378-.13 9.806 9.806 0 0 1-1.34-.351 7.738 7.738 0 0 1-1.182-.52 5.396 5.396 0 0 1-.936-.663l.936-1.482a1.28 1.28 0 0 1 .403-.403c.156-.104.36-.156.61-.156.235 0 .443.052.625.156.19.104.394.217.61.338.218.121.469.234.755.338.295.104.663.156 1.105.156.312 0 .576-.03.793-.091.217-.07.39-.16.52-.273.13-.113.225-.238.286-.377a1.06 1.06 0 0 0 .09-.429.876.876 0 0 0-.272-.663 2.287 2.287 0 0 0-.715-.442 7.246 7.246 0 0 0-1.014-.351 25.083 25.083 0 0 1-1.144-.377c-.39-.139-.776-.303-1.157-.494a4.224 4.224 0 0 1-1.001-.741 3.523 3.523 0 0 1-.715-1.105c-.182-.433-.273-.958-.273-1.573 0-.572.108-1.114.325-1.625.225-.52.559-.975 1-1.365.443-.39.998-.698 1.665-.923.667-.234 1.447-.351 2.34-.351.485 0 .953.043 1.404.13.46.087.888.208 1.287.364.399.156.763.342 1.092.559.33.208.62.438.87.689l-.91 1.417zm8.201 10.738c-.641 0-1.209-.091-1.703-.273a3.563 3.563 0 0 1-1.235-.793 3.49 3.49 0 0 1-.754-1.248 4.804 4.804 0 0 1-.26-1.625V8.301h-1.144a.778.778 0 0 1-.533-.195c-.147-.139-.22-.338-.22-.598V5.935l2.144-.416.793-3.289c.104-.416.399-.624.884-.624h2.106v3.939h3.276v2.756H87.47v6.695c0 .312.074.572.221.78.156.2.377.299.663.299.147 0 .269-.013.364-.039.104-.035.19-.07.26-.104a2.36 2.36 0 0 1 .208-.104.515.515 0 0 1 .234-.052.42.42 0 0 1 .286.091.878.878 0 0 1 .234.26l1.222 1.911c-.52.39-1.105.685-1.755.884a7.12 7.12 0 0 1-2.015.286z" fill="#121111"/></svg>