<svg width="72" height="19" fill="none" xmlns="http://www.w3.org/2000/svg"><path d="M0 .059h3.536c.381 0 .693.087.936.26.243.173.416.403.52.689l3.666 10.14c.165.442.33.923.494 1.443.173.52.334 1.066.481 1.638.121-.572.26-1.118.416-1.638.165-.52.325-1.001.481-1.443l3.64-10.14c.087-.243.256-.46.507-.65.251-.2.559-.299.923-.299h3.562L11.57 19H7.592L0 .059zM36.028 19h-3.406c-.381 0-.698-.087-.949-.26a1.425 1.425 0 0 1-.507-.689l-1.118-3.302h-7.202l-1.118 3.302c-.087.243-.256.464-.507.663-.251.19-.559.286-.923.286h-3.432L24.198.059h4.498L36.028 19zM23.86 11.759h5.174l-1.742-5.187c-.113-.33-.247-.715-.403-1.157-.147-.45-.295-.936-.442-1.456a25.891 25.891 0 0 1-.429 1.469c-.147.45-.286.84-.416 1.17l-1.742 5.161zm18.364.234V19H37.83V.059h6.162c1.37 0 2.535.143 3.497.429.97.277 1.76.667 2.366 1.17a4.43 4.43 0 0 1 1.339 1.781 5.9 5.9 0 0 1 .416 2.236c0 .615-.082 1.196-.247 1.742a5.273 5.273 0 0 1-.741 1.521c-.32.46-.72.871-1.196 1.235a6.238 6.238 0 0 1-1.625.897c.295.147.568.33.819.546.26.217.485.481.676.793L53.326 19h-3.978c-.737 0-1.265-.277-1.586-.832l-3.146-5.499c-.139-.243-.303-.416-.494-.52-.182-.104-.442-.156-.78-.156h-1.118zm0-3.029h1.768c.598 0 1.105-.074 1.521-.221a2.82 2.82 0 0 0 1.04-.637c.269-.269.464-.58.585-.936.121-.364.182-.754.182-1.17 0-.832-.273-1.482-.819-1.95-.537-.468-1.374-.702-2.509-.702h-1.768v5.616zm22.595 2.834V19h-4.394v-7.202L53.561.059h3.874c.381 0 .685.091.91.273.225.173.407.399.546.676l2.678 5.512.598 1.222c.182.373.342.741.481 1.105.13-.373.286-.745.468-1.118.182-.373.377-.776.585-1.209l2.652-5.512a1.78 1.78 0 0 1 .208-.338c.095-.113.2-.212.312-.299.121-.095.256-.169.403-.221a1.4 1.4 0 0 1 .507-.091h3.9l-6.864 11.739z" fill="#121111"/></svg>