<svg width="193" height="31" fill="none" xmlns="http://www.w3.org/2000/svg"><path d="M12.896 21.096a9.2 9.2 0 0 0 1.984-.192 9.715 9.715 0 0 0 1.632-.512v-3.536h-2.304c-.341 0-.608-.09-.8-.272a.906.906 0 0 1-.288-.688V12.92h8.288v9.84c-.597.437-1.221.816-1.872 1.136-.64.31-1.328.565-2.064.768-.725.203-1.504.352-2.336.448-.821.096-1.707.144-2.656.144-1.707 0-3.285-.299-4.736-.896a11.773 11.773 0 0 1-3.776-2.496 11.773 11.773 0 0 1-2.496-3.776c-.597-1.461-.896-3.045-.896-4.752 0-1.739.288-3.333.864-4.784.576-1.461 1.397-2.72 2.464-3.776C4.981 3.72 6.277 2.899 7.792 2.312c1.525-.587 3.227-.88 5.104-.88.97 0 1.883.08 2.736.24.853.16 1.637.379 2.352.656a10.767 10.767 0 0 1 3.584 2.24L20 6.952c-.15.224-.33.4-.544.528a1.233 1.233 0 0 1-.672.192c-.32 0-.65-.107-.992-.32a13.99 13.99 0 0 0-1.216-.656 6.67 6.67 0 0 0-1.152-.464 7.604 7.604 0 0 0-1.248-.256c-.437-.053-.928-.08-1.472-.08-1.013 0-1.925.181-2.736.544a5.858 5.858 0 0 0-2.08 1.504c-.565.65-1.003 1.435-1.312 2.352-.31.907-.464 1.92-.464 3.04 0 1.237.17 2.336.512 3.296.341.96.81 1.77 1.408 2.432a6.199 6.199 0 0 0 2.144 1.52 7.105 7.105 0 0 0 2.72.512zM30.141 8.408V25h-4.96V8.408h4.96zm.576-4.544c0 .395-.08.768-.24 1.12-.16.341-.378.645-.656.912a3.397 3.397 0 0 1-.976.624c-.362.15-.752.224-1.168.224-.405 0-.784-.075-1.136-.224a3.544 3.544 0 0 1-.944-.624 3.204 3.204 0 0 1-.64-.912 2.839 2.839 0 0 1-.224-1.12c0-.405.075-.784.224-1.136.16-.352.374-.661.64-.928.278-.267.592-.475.944-.624.352-.15.73-.224 1.136-.224.416 0 .806.075 1.168.224a2.998 2.998 0 0 1 1.632 1.552c.16.352.24.73.24 1.136zM34.467 25V8.408h3.071c.31 0 .566.07.768.208.214.139.363.347.448.624l.272.896a8.5 8.5 0 0 1 .864-.784 5.16 5.16 0 0 1 .96-.624c.352-.181.726-.32 1.12-.416.406-.107.848-.16 1.328-.16 1.003 0 1.83.261 2.48.784.662.512 1.163 1.2 1.504 2.064.278-.512.614-.95 1.008-1.312a5.68 5.68 0 0 1 1.296-.88c.47-.224.96-.39 1.472-.496a7.745 7.745 0 0 1 1.552-.16c.95 0 1.792.144 2.528.432a4.63 4.63 0 0 1 1.84 1.232c.502.533.88 1.195 1.136 1.984.256.779.384 1.664.384 2.656V25h-4.96V14.456c0-1.717-.736-2.576-2.208-2.576-.672 0-1.232.224-1.68.672-.437.437-.656 1.072-.656 1.904V25h-4.96V14.456c0-.95-.186-1.616-.56-2-.373-.384-.922-.576-1.648-.576-.448 0-.874.101-1.28.304a4.691 4.691 0 0 0-1.12.816v12h-4.96zm27.882 0V1.048h4.96v9.12a7.472 7.472 0 0 1 2.096-1.456c.79-.373 1.712-.56 2.768-.56a5.23 5.23 0 0 1 2.4.56c.736.373 1.37.923 1.904 1.648.533.715.95 1.595 1.248 2.64.31 1.045.464 2.235.464 3.568 0 1.248-.176 2.4-.528 3.456-.342 1.056-.827 1.973-1.456 2.752a6.604 6.604 0 0 1-2.24 1.824c-.864.437-1.824.656-2.88.656a5.63 5.63 0 0 1-1.328-.144 4.94 4.94 0 0 1-1.072-.4 5.274 5.274 0 0 1-.896-.64 11.17 11.17 0 0 1-.784-.8l-.176.832c-.075.341-.214.576-.416.704-.192.128-.448.192-.768.192h-3.296zm8.096-13.12a4.09 4.09 0 0 0-.992.112c-.288.064-.56.16-.816.288a3.04 3.04 0 0 0-.688.496 6.514 6.514 0 0 0-.64.672v7.04c.373.416.778.71 1.216.88.437.16.896.24 1.376.24.458 0 .88-.09 1.264-.272.384-.181.714-.47.992-.864.288-.405.512-.928.672-1.568.16-.64.24-1.419.24-2.336 0-.875-.064-1.61-.192-2.208-.128-.597-.31-1.077-.544-1.44-.224-.373-.496-.64-.816-.8-.32-.16-.678-.24-1.072-.24zM92.687 25c-.47 0-.826-.064-1.072-.192-.234-.128-.432-.395-.592-.8l-.352-.912c-.416.352-.816.661-1.2.928a7.916 7.916 0 0 1-1.2.688 5.693 5.693 0 0 1-1.312.4 7.52 7.52 0 0 1-1.536.144 6.945 6.945 0 0 1-2.064-.288 4.483 4.483 0 0 1-1.584-.88 3.893 3.893 0 0 1-.992-1.424c-.234-.576-.352-1.237-.352-1.984 0-.587.15-1.19.448-1.808.299-.619.816-1.179 1.552-1.68.736-.512 1.728-.939 2.976-1.28 1.248-.341 2.822-.533 4.72-.576v-.704c0-.97-.202-1.67-.608-2.096-.394-.437-.96-.656-1.696-.656-.586 0-1.066.064-1.44.192a6.82 6.82 0 0 0-1.008.432c-.288.16-.57.304-.848.432-.277.128-.608.192-.992.192-.341 0-.634-.08-.88-.24a1.956 1.956 0 0 1-.56-.624l-.896-1.552a9.993 9.993 0 0 1 3.328-1.968c1.227-.437 2.539-.656 3.936-.656 1.003 0 1.904.165 2.704.496a5.6 5.6 0 0 1 2.048 1.36 5.801 5.801 0 0 1 1.296 2.064c.299.8.448 1.675.448 2.624V25h-2.272zm-5.696-3.024c.64 0 1.2-.112 1.68-.336.48-.224.966-.587 1.456-1.088v-2.304c-.992.043-1.808.128-2.448.256-.64.128-1.146.288-1.52.48-.373.192-.634.41-.784.656a1.6 1.6 0 0 0-.208.8c0 .565.155.965.464 1.2.31.224.763.336 1.36.336zm11.81 8.288V8.408h3.072c.31 0 .566.07.768.208.214.139.363.347.448.624l.368 1.216c.32-.352.662-.672 1.024-.96a6.863 6.863 0 0 1 1.184-.736c.427-.213.88-.379 1.36-.496a6.875 6.875 0 0 1 1.6-.176 5.11 5.11 0 0 1 2.4.576c.736.384 1.371.939 1.904 1.664.534.725.95 1.616 1.248 2.672.31 1.045.464 2.235.464 3.568 0 1.248-.176 2.4-.528 3.456-.341 1.056-.826 1.973-1.456 2.752a6.594 6.594 0 0 1-2.24 1.824c-.864.437-1.824.656-2.88.656-.864 0-1.589-.123-2.176-.368a5.917 5.917 0 0 1-1.6-.992v6.368h-4.96zm8.096-18.384a4.08 4.08 0 0 0-.992.112c-.288.064-.56.16-.816.288a3.06 3.06 0 0 0-.688.496 6.61 6.61 0 0 0-.64.672v7.04c.374.416.779.71 1.216.88.438.16.896.24 1.376.24.459 0 .88-.09 1.264-.272.384-.181.715-.47.992-.864.288-.405.512-.928.672-1.568.16-.64.24-1.419.24-2.336 0-.875-.064-1.61-.192-2.208-.128-.597-.309-1.077-.544-1.44-.224-.373-.496-.64-.816-.8-.32-.16-.677-.24-1.072-.24zm32.896 7.088c.128 0 .256.027.384.08.128.043.25.123.368.24l2.144 2.256a8.96 8.96 0 0 1-3.536 2.784c-1.408.619-3.078.928-5.008.928-1.771 0-3.36-.299-4.768-.896-1.398-.608-2.587-1.44-3.568-2.496-.971-1.067-1.718-2.325-2.24-3.776-.523-1.461-.784-3.045-.784-4.752 0-1.739.298-3.333.896-4.784.597-1.461 1.429-2.72 2.496-3.776 1.077-1.056 2.362-1.877 3.856-2.464 1.493-.587 3.141-.88 4.944-.88.874 0 1.696.08 2.464.24.778.15 1.504.363 2.176.64.672.267 1.29.592 1.856.976a8.7 8.7 0 0 1 1.504 1.248l-1.824 2.448c-.118.15-.256.288-.416.416-.16.117-.384.176-.672.176-.192 0-.374-.043-.544-.128a7.309 7.309 0 0 1-.544-.304 14.35 14.35 0 0 0-.64-.4 3.878 3.878 0 0 0-.816-.4 5.999 5.999 0 0 0-1.104-.32 7.412 7.412 0 0 0-1.472-.128c-.982 0-1.878.176-2.688.528a5.83 5.83 0 0 0-2.096 1.488c-.576.64-1.03 1.419-1.36 2.336-.32.917-.48 1.947-.48 3.088 0 1.195.16 2.256.48 3.184.33.928.773 1.712 1.328 2.352a5.753 5.753 0 0 0 1.968 1.44c.746.33 1.546.496 2.4.496.49 0 .938-.021 1.344-.064a5.766 5.766 0 0 0 1.12-.256c.352-.117.682-.267.992-.448.32-.192.64-.427.96-.704a1.67 1.67 0 0 1 .416-.256 1.02 1.02 0 0 1 .464-.112zM145.48 25V1.048h4.96v8.816a7.93 7.93 0 0 1 1.936-1.232c.704-.32 1.541-.48 2.512-.48.907 0 1.707.16 2.4.48.704.31 1.296.747 1.776 1.312.48.555.843 1.221 1.088 2 .245.768.368 1.605.368 2.512V25h-4.96V14.456c0-.81-.187-1.44-.56-1.888-.373-.459-.923-.688-1.648-.688a3.45 3.45 0 0 0-1.536.352c-.48.235-.939.55-1.376.944V25h-4.96zm30.339 0c-.47 0-.827-.064-1.072-.192-.235-.128-.432-.395-.592-.8l-.352-.912c-.416.352-.816.661-1.2.928a7.916 7.916 0 0 1-1.2.688 5.71 5.71 0 0 1-1.312.4 7.525 7.525 0 0 1-1.536.144 6.938 6.938 0 0 1-2.064-.288 4.476 4.476 0 0 1-1.584-.88 3.88 3.88 0 0 1-.992-1.424c-.235-.576-.352-1.237-.352-1.984 0-.587.149-1.19.448-1.808.298-.619.816-1.179 1.552-1.68.736-.512 1.728-.939 2.976-1.28 1.248-.341 2.821-.533 4.72-.576v-.704c0-.97-.203-1.67-.608-2.096-.395-.437-.96-.656-1.696-.656-.587 0-1.067.064-1.44.192-.374.128-.71.272-1.008.432-.288.16-.571.304-.848.432-.278.128-.608.192-.992.192-.342 0-.635-.08-.88-.24a1.943 1.943 0 0 1-.56-.624l-.896-1.552a9.986 9.986 0 0 1 3.328-1.968c1.226-.437 2.538-.656 3.936-.656 1.002 0 1.904.165 2.704.496.81.32 1.493.773 2.048 1.36a5.812 5.812 0 0 1 1.296 2.064c.298.8.448 1.675.448 2.624V25h-2.272zm-5.696-3.024c.64 0 1.2-.112 1.68-.336.48-.224.965-.587 1.456-1.088v-2.304c-.992.043-1.808.128-2.448.256-.64.128-1.147.288-1.52.48-.374.192-.635.41-.784.656a1.595 1.595 0 0 0-.208.8c0 .565.154.965.464 1.2.309.224.762.336 1.36.336zm17.633 3.28c-.789 0-1.488-.112-2.096-.336a4.39 4.39 0 0 1-1.52-.976 4.31 4.31 0 0 1-.928-1.536c-.213-.597-.32-1.264-.32-2v-8.576h-1.408a.959.959 0 0 1-.656-.24c-.181-.17-.272-.416-.272-.736V8.92l2.64-.512.976-4.048c.128-.512.491-.768 1.088-.768h2.592V8.44h4.032v3.392h-4.032v8.24c0 .384.091.704.272.96.192.245.464.368.816.368.182 0 .331-.016.448-.048.128-.043.235-.085.32-.128.096-.053.182-.096.256-.128a.639.639 0 0 1 .288-.064c.15 0 .267.037.352.112.096.064.192.17.288.32l1.504 2.352a6.97 6.97 0 0 1-2.16 1.088 8.76 8.76 0 0 1-2.48.352z" fill="#121111"/></svg>