<svg fill="none" height="25" viewBox="0 0 157 25" width="157" xmlns="http://www.w3.org/2000/svg"><path d="m10.478 16.828c.6067 0 1.144-.052 1.612-.156s.91-.2427 1.326-.416v-2.873h-1.872c-.2773 0-.494-.0737-.65-.221s-.234-.3337-.234-.559v-2.418h6.734v7.995c-.4853.3553-.9923.663-1.521.923-.52.2513-1.079.4593-1.677.624-.5893.1647-1.222.286-1.898.364-.6673.078-1.3867.117-2.158.117-1.38667 0-2.66933-.2427-3.848-.728-1.17867-.494-2.20133-1.17-3.068-2.028-.858-.8667-1.534-1.8893-2.028-3.068-.485333-1.1873-.728-2.4743-.728-3.861 0-1.41267.234-2.70833.702-3.887.468-1.18733 1.13533-2.21 2.002-3.068.87533-.858 1.92833-1.52533 3.159-2.002 1.23933-.47667 2.62167-.715001 4.147-.715001.7887 0 1.5297.065 2.223.195001.6933.13 1.3303.30767 1.911.533.5893.22533 1.1267.494 1.612.806s.9187.65 1.3 1.014l-1.274 1.937c-.1213.182-.2687.325-.442.429-.1647.104-.3467.156-.546.156-.26 0-.5287-.08667-.806-.26-.3467-.208-.676-.38567-.988-.533-.3033-.156-.6153-.28167-.936-.377s-.6587-.16467-1.014-.208-.754-.065-1.196-.065c-.82333 0-1.56433.14733-2.223.442-.65867.286-1.222.69333-1.69 1.222-.45933.52867-.81467 1.16567-1.066 1.911-.25133.73667-.377 1.56-.377 2.47 0 1.0053.13867 1.898.416 2.678s.65867 1.4387 1.144 1.976c.494.5373 1.07467.949 1.742 1.235.676.2773 1.41267.416 2.21.416zm14.0118-10.309v13.481h-4.03v-13.481zm.468-3.692c0 .32067-.065.624-.195.91-.13.27733-.3077.52433-.533.741-.2254.208-.4897.377-.793.507-.2947.12133-.611.182-.949.182-.3294 0-.637-.06067-.923-.182-.286-.13-.5417-.299-.767-.507-.2167-.21667-.39-.46367-.52-.741-.1214-.286-.182-.58933-.182-.91 0-.32933.0606-.637.182-.923.13-.286.3033-.53733.52-.754.2253-.216667.481-.385667.767-.507001.286-.121333.5936-.181999.923-.181999.338 0 .6543.060666.949.181999.3033.121334.5676.290334.793.507001.2253.21667.403.468.533.754s.195.59367.195.923zm3.046 17.173v-13.481h2.496c.2514 0 .4594.05633.624.169.1734.11267.2947.28167.364.507l.221.728c.2254-.234.4594-.44633.702-.637.2427-.19933.5027-.36833.78-.507.286-.14733.5894-.26.91-.338.3294-.08667.689-.13 1.079-.13.8147 0 1.4864.21233 2.015.637.5374.416.9447.975 1.222 1.677.2254-.416.4984-.77133.819-1.066.3294-.29467.6804-.533 1.053-.715.3814-.182.78-.31633 1.196-.403.4247-.08667.845-.13 1.261-.13.7714 0 1.456.117 2.054.351.598.22533 1.0964.559 1.495 1.001.4074.43333.715.97067.923 1.612.208.63267.312 1.352.312 2.158v8.567h-4.03v-8.567c0-1.3953-.598-2.093-1.794-2.093-.546 0-1.001.182-1.365.546-.3553.3553-.533.871-.533 1.547v8.567h-4.03v-8.567c0-.7713-.1516-1.313-.455-1.625-.3033-.312-.7496-.468-1.339-.468-.364 0-.7106.08233-1.04.247-.3206.16467-.624.38567-.91.663v9.75zm22.6546 0v-19.461001h4.03v7.410001c.5026-.494 1.0703-.88833 1.703-1.183.6413-.30333 1.391-.455 2.249-.455.702 0 1.352.15167 1.95.455s1.1136.74967 1.547 1.339c.4333.58067.7713 1.29567 1.014 2.145.2513.8493.377 1.8157.377 2.899 0 1.014-.143 1.95-.429 2.808-.2774.858-.6717 1.6033-1.183 2.236-.5027.6327-1.1094 1.1267-1.82 1.482-.702.3553-1.482.533-2.34.533-.3987 0-.7584-.039-1.079-.117-.312-.078-.6024-.1863-.871-.325-.26-.1473-.5027-.3207-.728-.52-.2167-.1993-.429-.416-.637-.65l-.143.676c-.0607.2773-.1734.468-.338.572-.156.104-.364.156-.624.156zm6.578-10.66c-.2947 0-.5634.03033-.806.091-.234.052-.455.13-.663.234-.1994.104-.3857.23833-.559.403-.1734.156-.3467.338-.52.546v5.72c.3033.338.6326.5763.988.715.3553.13.728.195 1.118.195.3726 0 .715-.0737 1.027-.221s.5806-.3813.806-.702c.234-.3293.416-.754.546-1.274s.195-1.1527.195-1.898c0-.7107-.052-1.3087-.156-1.794s-.2514-.8753-.442-1.17c-.182-.30333-.403-.52-.663-.65s-.5504-.195-.871-.195zm18.072 10.66c-.3813 0-.6717-.052-.871-.156-.1907-.104-.351-.3207-.481-.65l-.286-.741c-.338.286-.663.5373-.975.754s-.637.403-.975.559c-.3293.1473-.6847.2557-1.066.325-.3727.078-.7887.117-1.248.117-.6153 0-1.1743-.078-1.677-.234-.5027-.1647-.9317-.403-1.287-.715-.3467-.312-.6153-.6977-.806-1.157-.1907-.468-.286-1.0053-.286-1.612 0-.4767.1213-.9663.364-1.469s.663-.9577 1.261-1.365c.598-.416 1.404-.7627 2.418-1.04s2.2923-.4333 3.835-.468v-.572c0-.7887-.1647-1.3563-.494-1.703-.3207-.35533-.78-.533-1.378-.533-.4767 0-.8667.052-1.17.156s-.5763.221-.819.351c-.234.13-.4637.247-.689.351s-.494.156-.806.156c-.2773 0-.5157-.065-.715-.195-.1907-.1387-.3423-.30767-.455-.507l-.728-1.261c.8147-.71933 1.716-1.25233 2.704-1.599.9967-.35533 2.0627-.533 3.198-.533.8147 0 1.547.13433 2.197.403.6587.26 1.2133.62833 1.664 1.105.4593.468.8103 1.027 1.053 1.677s.364 1.3607.364 2.132v8.424zm-4.628-2.457c.52 0 .975-.091 1.365-.273s.7843-.4767 1.183-.884v-1.872c-.806.0347-1.469.104-1.989.208s-.9317.234-1.235.39-.5157.3337-.637.533c-.1127.1993-.169.416-.169.65 0 .4593.1257.7843.377.975.2513.182.6197.273 1.105.273zm9.5956 6.734v-17.758h2.496c.2514 0 .4594.05633.624.169.1734.11267.2947.28167.364.507l.299.988c.26-.286.5374-.546.832-.78.3034-.234.624-.43333.962-.598.3467-.17333.715-.30767 1.105-.403.3987-.09533.832-.143 1.3-.143.702 0 1.352.156 1.95.468s1.1137.76267 1.547 1.352c.4334.58933.7714 1.313 1.014 2.171.2514.8493.377 1.8157.377 2.899 0 1.014-.143 1.95-.429 2.808-.2773.858-.6716 1.6033-1.183 2.236-.5026.6327-1.1093 1.1267-1.82 1.482-.702.3553-1.482.533-2.34.533-.702 0-1.2913-.0997-1.768-.299-.4766-.1993-.91-.468-1.3-.806v5.174zm6.578-14.937c-.2946 0-.5633.03033-.806.091-.234.052-.455.13-.663.234-.1993.104-.3856.23833-.559.403-.1733.156-.3466.338-.52.546v5.72c.3034.338.6327.5763.988.715.3554.13.728.195 1.118.195.3727 0 .715-.0737 1.027-.221s.5807-.3813.806-.702c.234-.3293.416-.754.546-1.274s.195-1.1527.195-1.898c0-.7107-.052-1.3087-.156-1.794s-.2513-.8753-.442-1.17c-.182-.30333-.403-.52-.663-.65s-.5503-.195-.871-.195zm26.728 5.759c.104 0 .208.0217.312.065.104.0347.203.0997.299.195l1.742 1.833c-.763.9967-1.721 1.7507-2.873 2.262-1.144.5027-2.501.754-4.069.754-1.439 0-2.73-.2427-3.874-.728-1.136-.494-2.102-1.17-2.899-2.028-.789-.8667-1.396-1.8893-1.82-3.068-.4251-1.1873-.6374-2.4743-.6374-3.861 0-1.41267.2424-2.70833.7284-3.887.485-1.18733 1.161-2.21 2.028-3.068.875-.858 1.919-1.52533 3.133-2.002 1.213-.47667 2.552-.715001 4.017-.715001.71 0 1.378.065 2.002.195001.632.12133 1.222.29467 1.768.52.546.21667 1.048.481 1.508.793.459.30333.866.64133 1.222 1.014l-1.482 1.989c-.096.12133-.208.234-.338.338-.13.09533-.312.143-.546.143-.156 0-.304-.03467-.442-.104-.139-.06933-.286-.15167-.442-.247-.156-.104-.33-.21233-.52-.325-.182-.12133-.403-.22967-.663-.325-.252-.104-.551-.19067-.897-.26-.338-.06933-.737-.104-1.196-.104-.798 0-1.526.143-2.184.429-.659.27733-1.227.68033-1.703 1.209-.468.52-.837 1.15267-1.105 1.898-.26.74533-.39 1.58167-.39 2.509 0 .9707.13 1.833.39 2.587.268.754.628 1.391 1.079 1.911.459.5113.992.9013 1.599 1.17.606.2687 1.256.403 1.95.403.398 0 .762-.0173 1.092-.052.329-.0433.632-.1127.91-.208.286-.0953.554-.2167.806-.364.26-.156.52-.3467.78-.572.104-.0867.216-.156.338-.208.121-.0607.247-.091.377-.091zm4.621 4.901v-19.461001h4.03v7.163001c.485-.416 1.009-.74967 1.573-1.001.572-.26 1.252-.39 2.041-.39.736 0 1.386.13 1.95.39.572.25133 1.053.60667 1.443 1.066.39.45067.684.99233.884 1.625.199.624.299 1.3043.299 2.041v8.567h-4.03v-8.567c0-.6587-.152-1.17-.455-1.534-.304-.37267-.75-.559-1.339-.559-.442 0-.858.09533-1.248.286s-.763.4463-1.118.767v9.607zm24.65 0c-.382 0-.672-.052-.871-.156-.191-.104-.351-.3207-.481-.65l-.286-.741c-.338.286-.663.5373-.975.754s-.637.403-.975.559c-.33.1473-.685.2557-1.066.325-.373.078-.789.117-1.248.117-.616 0-1.175-.078-1.677-.234-.503-.1647-.932-.403-1.287-.715-.347-.312-.616-.6977-.806-1.157-.191-.468-.286-1.0053-.286-1.612 0-.4767.121-.9663.364-1.469.242-.5027.663-.9577 1.261-1.365.598-.416 1.404-.7627 2.418-1.04s2.292-.4333 3.835-.468v-.572c0-.7887-.165-1.3563-.494-1.703-.321-.35533-.78-.533-1.378-.533-.477 0-.867.052-1.17.156-.304.104-.577.221-.819.351-.234.13-.464.247-.689.351-.226.104-.494.156-.806.156-.278 0-.516-.065-.715-.195-.191-.1387-.343-.30767-.455-.507l-.728-1.261c.814-.71933 1.716-1.25233 2.704-1.599.996-.35533 2.062-.533 3.198-.533.814 0 1.547.13433 2.197.403.658.26 1.213.62833 1.664 1.105.459.468.81 1.027 1.053 1.677.242.65.364 1.3607.364 2.132v8.424zm-4.628-2.457c.52 0 .975-.091 1.365-.273s.784-.4767 1.183-.884v-1.872c-.806.0347-1.469.104-1.989.208s-.932.234-1.235.39c-.304.156-.516.3337-.637.533-.113.1993-.169.416-.169.65 0 .4593.125.7843.377.975.251.182.619.273 1.105.273zm14.327 2.665c-.641 0-1.209-.091-1.703-.273-.485-.1907-.897-.455-1.235-.793-.329-.3467-.581-.7627-.754-1.248s-.26-1.027-.26-1.625v-6.968h-1.144c-.208 0-.386-.065-.533-.195-.147-.13867-.221-.338-.221-.598v-1.573l2.145-.416.793-3.289c.104-.416.399-.624.884-.624h2.106v3.939h3.276v2.756h-3.276v6.695c0 .312.074.572.221.78.156.1993.377.299.663.299.147 0 .269-.013.364-.039.104-.0347.191-.0693.26-.104.078-.0433.147-.078.208-.104.069-.0347.147-.052.234-.052.121 0 .217.0303.286.091.078.052.156.1387.234.26l1.222 1.911c-.52.39-1.105.6847-1.755.884-.65.1907-1.322.286-2.015.286z" fill="#121111"/></svg>