<svg width="76" height="24" fill="none" xmlns="http://www.w3.org/2000/svg"><path d="M.8 23V.545h4.65V8.81a7.434 7.434 0 0 1 1.815-1.155c.66-.3 1.445-.45 2.355-.45.85 0 1.6.15 2.25.45.66.29 1.215.7 1.665 1.23.45.52.79 1.145 1.02 1.875.23.72.345 1.505.345 2.355V23h-4.65v-9.885c0-.76-.175-1.35-.525-1.77-.35-.43-.865-.645-1.545-.645-.51 0-.99.11-1.44.33a5.6 5.6 0 0 0-1.29.885V23H.8zM25.432 7.205c1.18 0 2.255.185 3.225.555.97.37 1.8.9 2.49 1.59.7.69 1.24 1.53 1.62 2.52.39.98.585 2.085.585 3.315 0 1.24-.195 2.36-.585 3.36-.38.99-.92 1.835-1.62 2.535a7.171 7.171 0 0 1-2.49 1.605c-.97.37-2.045.555-3.225.555-1.19 0-2.275-.185-3.255-.555a7.491 7.491 0 0 1-2.52-1.605c-.7-.7-1.245-1.545-1.635-2.535-.38-1-.57-2.12-.57-3.36 0-1.23.19-2.335.57-3.315.39-.99.935-1.83 1.635-2.52.71-.69 1.55-1.22 2.52-1.59.98-.37 2.065-.555 3.255-.555zm0 12.585c1.07 0 1.855-.375 2.355-1.125.51-.76.765-1.91.765-3.45 0-1.54-.255-2.685-.765-3.435-.5-.75-1.285-1.125-2.355-1.125-1.1 0-1.905.375-2.415 1.125s-.765 1.895-.765 3.435.255 2.69.765 3.45c.51.75 1.315 1.125 2.415 1.125zM36.205 23V7.445h2.88c.29 0 .53.065.72.195.2.13.34.325.42.585l.255.84c.26-.27.53-.515.81-.735.28-.23.58-.425.9-.585.33-.17.68-.3 1.05-.39.38-.1.795-.15 1.245-.15.94 0 1.715.245 2.325.735.62.48 1.09 1.125 1.41 1.935.26-.48.575-.89.945-1.23.38-.34.785-.615 1.215-.825.44-.21.9-.365 1.38-.465.49-.1.975-.15 1.455-.15.89 0 1.68.135 2.37.405a4.34 4.34 0 0 1 1.725 1.155c.47.5.825 1.12 1.065 1.86.24.73.36 1.56.36 2.49V23h-4.65v-9.885c0-1.61-.69-2.415-2.07-2.415-.63 0-1.155.21-1.575.63-.41.41-.615 1.005-.615 1.785V23h-4.65v-9.885c0-.89-.175-1.515-.525-1.875-.35-.36-.865-.54-1.545-.54-.42 0-.82.095-1.2.285-.37.19-.72.445-1.05.765V23h-4.65zm32.8-15.795c1.03 0 1.97.16 2.82.48.86.32 1.594.785 2.204 1.395.62.61 1.1 1.36 1.44 2.25.35.88.526 1.88.526 3 0 .35-.016.635-.046.855-.03.22-.084.395-.165.525-.08.13-.19.22-.33.27-.13.05-.3.075-.51.075h-8.97c.15 1.3.545 2.245 1.185 2.835.64.58 1.465.87 2.475.87.54 0 1.005-.065 1.395-.195.39-.13.736-.275 1.035-.435l.84-.435c.26-.13.53-.195.81-.195.37 0 .65.135.84.405l1.35 1.665c-.48.55-1 1-1.56 1.35-.55.34-1.12.61-1.71.81-.58.19-1.165.32-1.755.39-.58.08-1.135.12-1.665.12a8.908 8.908 0 0 1-3.075-.525 7.228 7.228 0 0 1-2.504-1.59c-.71-.7-1.276-1.57-1.695-2.61-.41-1.04-.615-2.25-.615-3.63 0-1.04.174-2.025.524-2.955.36-.93.87-1.745 1.53-2.445a7.388 7.388 0 0 1 2.416-1.665c.95-.41 2.02-.615 3.21-.615zm.09 3.21c-.89 0-1.585.255-2.085.765-.5.5-.83 1.225-.99 2.175h5.805c0-.37-.05-.73-.15-1.08-.09-.35-.245-.66-.465-.93-.21-.28-.49-.505-.84-.675-.35-.17-.776-.255-1.276-.255z" fill="#121111"/></svg>