<svg fill="none" height="24" viewBox="0 0 73 24" width="73" xmlns="http://www.w3.org/2000/svg"><path d="m0 7.445h3.72c.33 0 .615.075.855.225s.385.345.435.585l1.56 6.975c.12.53.23 1.045.33 1.545s.19.995.27 1.485c.14-.49.285-.98.435-1.47.16-.5.315-1.02.465-1.56l1.95-6.99c.06-.23.205-.42.435-.57.23-.16.495-.24.795-.24h2.07c.33 0 .61.08.84.24.24.15.39.34.45.57l1.86 6.99c.14.53.28 1.045.42 1.545.15.5.29 1.005.42 1.515.08-.5.175-.995.285-1.485.12-.5.245-1.025.375-1.575l1.65-6.975c.05-.24.19-.435.42-.585.24-.15.51-.225.81-.225h3.54l-4.83 15.555h-3.78c-.2 0-.37-.06-.51-.18s-.25-.32-.33-.6l-2.22-7.755c-.1-.35-.195-.695-.285-1.035s-.17-.68-.24-1.02c-.07.35-.15.7-.24 1.05-.08.34-.175.685-.285 1.035l-2.25 7.725c-.15.52-.48.78-.99.78h-3.6zm33.4343-.24c1.18 0 2.255.185 3.225.555s1.8.9 2.49 1.59c.7.69 1.24 1.53 1.62 2.52.39.98.585 2.085.585 3.315 0 1.24-.195 2.36-.585 3.36-.38.99-.92 1.835-1.62 2.535-.69.69-1.52 1.225-2.49 1.605-.97.37-2.045.555-3.225.555-1.19 0-2.275-.185-3.255-.555-.97-.38-1.81-.915-2.52-1.605-.7-.7-1.245-1.545-1.635-2.535-.38-1-.57-2.12-.57-3.36 0-1.23.19-2.335.57-3.315.39-.99.935-1.83 1.635-2.52.71-.69 1.55-1.22 2.52-1.59.98-.37 2.065-.555 3.255-.555zm0 12.585c1.07 0 1.855-.375 2.355-1.125.51-.76.765-1.91.765-3.45s-.255-2.685-.765-3.435c-.5-.75-1.285-1.125-2.355-1.125-1.1 0-1.905.375-2.415 1.125s-.765 1.895-.765 3.435.255 2.69.765 3.45c.51.75 1.315 1.125 2.415 1.125zm10.7723 3.21v-15.555h2.76c.23 0 .42.02.57.06.16.04.29.105.39.195.11.08.19.19.24.33.06.14.11.31.15.51l.255 1.455c.57-.88 1.21-1.575 1.92-2.085s1.485-.765 2.325-.765c.71 0 1.28.17 1.71.51l-.6 3.42c-.04.21-.12.36-.24.45-.12.08-.28.12-.48.12-.17 0-.37-.02-.6-.06-.23-.05-.52-.075-.87-.075-1.22 0-2.18.65-2.88 1.95v9.54zm17.3426-22.455001v12.585001h.69c.29 0 .51-.04.66-.12.16-.08.31-.225.45-.435l2.94-4.38c.17-.26.37-.45.6-.57.24-.12.54-.18.9-.18h4.26l-4.02 5.535c-.19.26-.4.49-.63.69-.22.2-.46.38-.72.54.45.34.84.79 1.17 1.35l4.38 7.44h-4.2c-.35 0-.655-.055-.915-.165-.25-.12-.455-.325-.615-.615l-2.94-5.505c-.14-.25-.285-.41-.435-.48-.15-.08-.375-.12-.675-.12h-.9v6.885h-4.65v-22.455001z" fill="#121111"/></svg>