<svg width="79" height="13" viewBox="0 0 79 13" fill="none" xmlns="http://www.w3.org/2000/svg">
<path d="M2.675 12H0.125V1.0725H2.675V12ZM6.33969 1.0725C6.44969 1.0725 6.54219 1.0775 6.61719 1.0875C6.69219 1.0975 6.75969 1.1175 6.81969 1.1475C6.87969 1.1725 6.93719 1.21 6.99219 1.26C7.04719 1.31 7.10969 1.3775 7.17969 1.4625L12.3697 8.025C12.3497 7.815 12.3347 7.6125 12.3247 7.4175C12.3147 7.2175 12.3097 7.03 12.3097 6.855V1.0725H14.5447V12H13.2247C13.0297 12 12.8647 11.97 12.7297 11.91C12.5947 11.85 12.4647 11.74 12.3397 11.58L7.18719 5.07C7.20219 5.26 7.21469 5.4475 7.22469 5.6325C7.23469 5.8125 7.23969 5.9825 7.23969 6.1425V12H5.00469V1.0725H6.33969ZM24.5776 1.0725V3.0825H21.5026V12H18.9676V3.0825H15.8926V1.0725H24.5776ZM32.9571 1.0725V3.0225H28.4721V5.5725H31.9071V7.4475H28.4721V10.05H32.9571V12H25.9221V1.0725H32.9571ZM37.2385 7.9575V12H34.7035V1.0725H38.2585C39.0485 1.0725 39.721 1.155 40.276 1.32C40.836 1.48 41.291 1.705 41.641 1.995C41.996 2.285 42.2535 2.6275 42.4135 3.0225C42.5735 3.4175 42.6535 3.8475 42.6535 4.3125C42.6535 4.6675 42.606 5.0025 42.511 5.3175C42.416 5.6325 42.2735 5.925 42.0835 6.195C41.8985 6.46 41.6685 6.6975 41.3935 6.9075C41.1235 7.1175 40.811 7.29 40.456 7.425C40.626 7.51 40.7835 7.615 40.9285 7.74C41.0785 7.865 41.2085 8.0175 41.3185 8.1975L43.6435 12H41.3485C40.9235 12 40.6185 11.84 40.4335 11.52L38.6185 8.3475C38.5385 8.2075 38.4435 8.1075 38.3335 8.0475C38.2285 7.9875 38.0785 7.9575 37.8835 7.9575H37.2385ZM37.2385 6.21H38.2585C38.6035 6.21 38.896 6.1675 39.136 6.0825C39.381 5.9925 39.581 5.87 39.736 5.715C39.891 5.56 40.0035 5.38 40.0735 5.175C40.1435 4.965 40.1785 4.74 40.1785 4.5C40.1785 4.02 40.021 3.645 39.706 3.375C39.396 3.105 38.9135 2.97 38.2585 2.97H37.2385V6.21ZM52.0141 1.0725V3.0225H47.5291V5.5725H50.9641V7.4475H47.5291V10.05H52.0141V12H44.9791V1.0725H52.0141ZM59.8505 3.2925C59.7755 3.4125 59.6955 3.5025 59.6105 3.5625C59.5305 3.6225 59.4255 3.6525 59.2955 3.6525C59.1805 3.6525 59.0555 3.6175 58.9205 3.5475C58.7905 3.4725 58.6405 3.39 58.4705 3.3C58.3055 3.21 58.1155 3.13 57.9005 3.06C57.6855 2.985 57.4405 2.9475 57.1655 2.9475C56.6905 2.9475 56.3355 3.05 56.1005 3.255C55.8705 3.455 55.7555 3.7275 55.7555 4.0725C55.7555 4.2925 55.8255 4.475 55.9655 4.62C56.1055 4.765 56.288 4.89 56.513 4.995C56.743 5.1 57.003 5.1975 57.293 5.2875C57.588 5.3725 57.888 5.47 58.193 5.58C58.498 5.685 58.7955 5.81 59.0855 5.955C59.3805 6.1 59.6405 6.285 59.8655 6.51C60.0955 6.735 60.2805 7.01 60.4205 7.335C60.5605 7.655 60.6305 8.0425 60.6305 8.4975C60.6305 9.0025 60.543 9.475 60.368 9.915C60.193 10.355 59.938 10.74 59.603 11.07C59.273 11.395 58.863 11.6525 58.373 11.8425C57.888 12.0275 57.3355 12.12 56.7155 12.12C56.3755 12.12 56.028 12.085 55.673 12.015C55.323 11.945 54.983 11.8475 54.653 11.7225C54.323 11.5925 54.013 11.44 53.723 11.265C53.433 11.09 53.1805 10.895 52.9655 10.68L53.7155 9.495C53.7705 9.405 53.848 9.3325 53.948 9.2775C54.048 9.2225 54.1555 9.195 54.2705 9.195C54.4205 9.195 54.5705 9.2425 54.7205 9.3375C54.8755 9.4325 55.048 9.5375 55.238 9.6525C55.433 9.7675 55.6555 9.8725 55.9055 9.9675C56.1555 10.0625 56.4505 10.11 56.7905 10.11C57.2505 10.11 57.608 10.01 57.863 9.81C58.118 9.605 58.2455 9.2825 58.2455 8.8425C58.2455 8.5875 58.1755 8.38 58.0355 8.22C57.8955 8.06 57.7105 7.9275 57.4805 7.8225C57.2555 7.7175 56.998 7.625 56.708 7.545C56.418 7.465 56.1205 7.3775 55.8155 7.2825C55.5105 7.1825 55.213 7.0625 54.923 6.9225C54.633 6.7775 54.373 6.59 54.143 6.36C53.918 6.125 53.7355 5.835 53.5955 5.49C53.4555 5.14 53.3855 4.71 53.3855 4.2C53.3855 3.79 53.468 3.39 53.633 3C53.798 2.61 54.0405 2.2625 54.3605 1.9575C54.6805 1.6525 55.073 1.41 55.538 1.23C56.003 1.045 56.5355 0.9525 57.1355 0.9525C57.4705 0.9525 57.7955 0.98 58.1105 1.035C58.4305 1.085 58.733 1.1625 59.018 1.2675C59.303 1.3675 59.568 1.49 59.813 1.635C60.063 1.775 60.2855 1.935 60.4805 2.115L59.8505 3.2925ZM70.1254 1.0725V3.0825H67.0504V12H64.5154V3.0825H61.4404V1.0725H70.1254ZM77.5599 3.2925C77.4849 3.4125 77.4049 3.5025 77.3199 3.5625C77.2399 3.6225 77.1349 3.6525 77.0049 3.6525C76.8899 3.6525 76.7649 3.6175 76.6299 3.5475C76.4999 3.4725 76.3499 3.39 76.1799 3.3C76.0149 3.21 75.8249 3.13 75.6099 3.06C75.3949 2.985 75.1499 2.9475 74.8749 2.9475C74.3999 2.9475 74.0449 3.05 73.8099 3.255C73.5799 3.455 73.4649 3.7275 73.4649 4.0725C73.4649 4.2925 73.5349 4.475 73.6749 4.62C73.8149 4.765 73.9974 4.89 74.2224 4.995C74.4524 5.1 74.7124 5.1975 75.0024 5.2875C75.2974 5.3725 75.5974 5.47 75.9024 5.58C76.2074 5.685 76.5049 5.81 76.7949 5.955C77.0899 6.1 77.3499 6.285 77.5749 6.51C77.8049 6.735 77.9899 7.01 78.1299 7.335C78.2699 7.655 78.3399 8.0425 78.3399 8.4975C78.3399 9.0025 78.2524 9.475 78.0774 9.915C77.9024 10.355 77.6474 10.74 77.3124 11.07C76.9824 11.395 76.5724 11.6525 76.0824 11.8425C75.5974 12.0275 75.0449 12.12 74.4249 12.12C74.0849 12.12 73.7374 12.085 73.3824 12.015C73.0324 11.945 72.6924 11.8475 72.3624 11.7225C72.0324 11.5925 71.7224 11.44 71.4324 11.265C71.1424 11.09 70.8899 10.895 70.6749 10.68L71.4249 9.495C71.4799 9.405 71.5574 9.3325 71.6574 9.2775C71.7574 9.2225 71.8649 9.195 71.9799 9.195C72.1299 9.195 72.2799 9.2425 72.4299 9.3375C72.5849 9.4325 72.7574 9.5375 72.9474 9.6525C73.1424 9.7675 73.3649 9.8725 73.6149 9.9675C73.8649 10.0625 74.1599 10.11 74.4999 10.11C74.9599 10.11 75.3174 10.01 75.5724 9.81C75.8274 9.605 75.9549 9.2825 75.9549 8.8425C75.9549 8.5875 75.8849 8.38 75.7449 8.22C75.6049 8.06 75.4199 7.9275 75.1899 7.8225C74.9649 7.7175 74.7074 7.625 74.4174 7.545C74.1274 7.465 73.8299 7.3775 73.5249 7.2825C73.2199 7.1825 72.9224 7.0625 72.6324 6.9225C72.3424 6.7775 72.0824 6.59 71.8524 6.36C71.6274 6.125 71.4449 5.835 71.3049 5.49C71.1649 5.14 71.0949 4.71 71.0949 4.2C71.0949 3.79 71.1774 3.39 71.3424 3C71.5074 2.61 71.7499 2.2625 72.0699 1.9575C72.3899 1.6525 72.7824 1.41 73.2474 1.23C73.7124 1.045 74.2449 0.9525 74.8449 0.9525C75.1799 0.9525 75.5049 0.98 75.8199 1.035C76.1399 1.085 76.4424 1.1625 76.7274 1.2675C77.0124 1.3675 77.2774 1.49 77.5224 1.635C77.7724 1.775 77.9949 1.935 78.1899 2.115L77.5599 3.2925Z" fill="#121111"/>
</svg>
