<svg width="51" height="13" viewBox="0 0 51 13" fill="none" xmlns="http://www.w3.org/2000/svg">
<path d="M6.045 10.17C6.395 10.17 6.705 10.14 6.975 10.08C7.245 10.02 7.5 9.94 7.74 9.84V8.1825H6.66C6.5 8.1825 6.375 8.14 6.285 8.055C6.195 7.97 6.15 7.8625 6.15 7.7325V6.3375H10.035V10.95C9.755 11.155 9.4625 11.3325 9.1575 11.4825C8.8575 11.6275 8.535 11.7475 8.19 11.8425C7.85 11.9375 7.485 12.0075 7.095 12.0525C6.71 12.0975 6.295 12.12 5.85 12.12C5.05 12.12 4.31 11.98 3.63 11.7C2.95 11.415 2.36 11.025 1.86 10.53C1.365 10.03 0.975 9.44 0.69 8.76C0.41 8.075 0.27 7.3325 0.27 6.5325C0.27 5.7175 0.405 4.97 0.675 4.29C0.945 3.605 1.33 3.015 1.83 2.52C2.335 2.025 2.9425 1.64 3.6525 1.365C4.3675 1.09 5.165 0.9525 6.045 0.9525C6.5 0.9525 6.9275 0.99 7.3275 1.065C7.7275 1.14 8.095 1.2425 8.43 1.3725C8.77 1.5025 9.08 1.6575 9.36 1.8375C9.64 2.0175 9.89 2.2125 10.11 2.4225L9.375 3.54C9.305 3.645 9.22 3.7275 9.12 3.7875C9.025 3.8475 8.92 3.8775 8.805 3.8775C8.655 3.8775 8.5 3.8275 8.34 3.7275C8.14 3.6075 7.95 3.505 7.77 3.42C7.595 3.33 7.415 3.2575 7.23 3.2025C7.045 3.1475 6.85 3.1075 6.645 3.0825C6.44 3.0575 6.21 3.045 5.955 3.045C5.48 3.045 5.0525 3.13 4.6725 3.3C4.2925 3.465 3.9675 3.7 3.6975 4.005C3.4325 4.31 3.2275 4.6775 3.0825 5.1075C2.9375 5.5325 2.865 6.0075 2.865 6.5325C2.865 7.1125 2.945 7.6275 3.105 8.0775C3.265 8.5275 3.485 8.9075 3.765 9.2175C4.05 9.5275 4.385 9.765 4.77 9.93C5.16 10.09 5.585 10.17 6.045 10.17ZM22.6637 6.5325C22.6637 7.3225 22.5262 8.0575 22.2512 8.7375C21.9812 9.4175 21.5987 10.01 21.1037 10.515C20.6087 11.015 20.0112 11.4075 19.3112 11.6925C18.6162 11.9775 17.8437 12.12 16.9937 12.12C16.1437 12.12 15.3687 11.9775 14.6687 11.6925C13.9687 11.4075 13.3687 11.015 12.8687 10.515C12.3737 10.01 11.9887 9.4175 11.7137 8.7375C11.4437 8.0575 11.3087 7.3225 11.3087 6.5325C11.3087 5.7425 11.4437 5.0075 11.7137 4.3275C11.9887 3.6475 12.3737 3.0575 12.8687 2.5575C13.3687 2.0575 13.9687 1.665 14.6687 1.38C15.3687 1.095 16.1437 0.9525 16.9937 0.9525C17.8437 0.9525 18.6162 1.0975 19.3112 1.3875C20.0112 1.6725 20.6087 2.065 21.1037 2.565C21.5987 3.065 21.9812 3.655 22.2512 4.335C22.5262 5.015 22.6637 5.7475 22.6637 6.5325ZM20.0687 6.5325C20.0687 5.9925 19.9987 5.5075 19.8587 5.0775C19.7187 4.6425 19.5162 4.275 19.2512 3.975C18.9912 3.675 18.6712 3.445 18.2912 3.285C17.9112 3.125 17.4787 3.045 16.9937 3.045C16.5037 3.045 16.0662 3.125 15.6812 3.285C15.3012 3.445 14.9787 3.675 14.7137 3.975C14.4537 4.275 14.2537 4.6425 14.1137 5.0775C13.9737 5.5075 13.9037 5.9925 13.9037 6.5325C13.9037 7.0775 13.9737 7.5675 14.1137 8.0025C14.2537 8.4325 14.4537 8.7975 14.7137 9.0975C14.9787 9.3975 15.3012 9.6275 15.6812 9.7875C16.0662 9.9425 16.5037 10.02 16.9937 10.02C17.4787 10.02 17.9112 9.9425 18.2912 9.7875C18.6712 9.6275 18.9912 9.3975 19.2512 9.0975C19.5162 8.7975 19.7187 8.4325 19.8587 8.0025C19.9987 7.5675 20.0687 7.0775 20.0687 6.5325ZM33.8917 12H31.9267C31.7067 12 31.5242 11.95 31.3792 11.85C31.2392 11.745 31.1417 11.6125 31.0867 11.4525L30.4417 9.5475H26.2867L25.6417 11.4525C25.5917 11.5925 25.4942 11.72 25.3492 11.835C25.2042 11.945 25.0267 12 24.8167 12H22.8367L27.0667 1.0725H29.6617L33.8917 12ZM26.8717 7.8225H29.8567L28.8517 4.83C28.7867 4.64 28.7092 4.4175 28.6192 4.1625C28.5342 3.9025 28.4492 3.6225 28.3642 3.3225C28.2842 3.6275 28.2017 3.91 28.1167 4.17C28.0317 4.43 27.9517 4.655 27.8767 4.845L26.8717 7.8225ZM37.6163 9.975H41.6663V12H35.0813V1.0725H37.6163V9.975ZM49.2496 3.2925C49.1746 3.4125 49.0946 3.5025 49.0096 3.5625C48.9296 3.6225 48.8246 3.6525 48.6946 3.6525C48.5796 3.6525 48.4546 3.6175 48.3196 3.5475C48.1896 3.4725 48.0396 3.39 47.8696 3.3C47.7046 3.21 47.5146 3.13 47.2996 3.06C47.0846 2.985 46.8396 2.9475 46.5646 2.9475C46.0896 2.9475 45.7346 3.05 45.4996 3.255C45.2696 3.455 45.1546 3.7275 45.1546 4.0725C45.1546 4.2925 45.2246 4.475 45.3646 4.62C45.5046 4.765 45.6871 4.89 45.9121 4.995C46.1421 5.1 46.4021 5.1975 46.6921 5.2875C46.9871 5.3725 47.2871 5.47 47.5921 5.58C47.8971 5.685 48.1946 5.81 48.4846 5.955C48.7796 6.1 49.0396 6.285 49.2646 6.51C49.4946 6.735 49.6796 7.01 49.8196 7.335C49.9596 7.655 50.0296 8.0425 50.0296 8.4975C50.0296 9.0025 49.9421 9.475 49.7671 9.915C49.5921 10.355 49.3371 10.74 49.0021 11.07C48.6721 11.395 48.2621 11.6525 47.7721 11.8425C47.2871 12.0275 46.7346 12.12 46.1146 12.12C45.7746 12.12 45.4271 12.085 45.0721 12.015C44.7221 11.945 44.3821 11.8475 44.0521 11.7225C43.7221 11.5925 43.4121 11.44 43.1221 11.265C42.8321 11.09 42.5796 10.895 42.3646 10.68L43.1146 9.495C43.1696 9.405 43.2471 9.3325 43.3471 9.2775C43.4471 9.2225 43.5546 9.195 43.6696 9.195C43.8196 9.195 43.9696 9.2425 44.1196 9.3375C44.2746 9.4325 44.4471 9.5375 44.6371 9.6525C44.8321 9.7675 45.0546 9.8725 45.3046 9.9675C45.5546 10.0625 45.8496 10.11 46.1896 10.11C46.6496 10.11 47.0071 10.01 47.2621 9.81C47.5171 9.605 47.6446 9.2825 47.6446 8.8425C47.6446 8.5875 47.5746 8.38 47.4346 8.22C47.2946 8.06 47.1096 7.9275 46.8796 7.8225C46.6546 7.7175 46.3971 7.625 46.1071 7.545C45.8171 7.465 45.5196 7.3775 45.2146 7.2825C44.9096 7.1825 44.6121 7.0625 44.3221 6.9225C44.0321 6.7775 43.7721 6.59 43.5421 6.36C43.3171 6.125 43.1346 5.835 42.9946 5.49C42.8546 5.14 42.7846 4.71 42.7846 4.2C42.7846 3.79 42.8671 3.39 43.0321 3C43.1971 2.61 43.4396 2.2625 43.7596 1.9575C44.0796 1.6525 44.4721 1.41 44.9371 1.23C45.4021 1.045 45.9346 0.9525 46.5346 0.9525C46.8696 0.9525 47.1946 0.98 47.5096 1.035C47.8296 1.085 48.1321 1.1625 48.4171 1.2675C48.7021 1.3675 48.9671 1.49 49.2121 1.635C49.4621 1.775 49.6846 1.935 49.8796 2.115L49.2496 3.2925Z" fill="#121111"/>
</svg>
