<svg width="42" height="13" viewBox="0 0 42 13" fill="none" xmlns="http://www.w3.org/2000/svg">
<path d="M4.515 0.9525C5.055 0.9525 5.54 1.0325 5.97 1.1925C6.405 1.3475 6.775 1.565 7.08 1.845C7.385 2.125 7.6175 2.46 7.7775 2.85C7.9425 3.235 8.025 3.66 8.025 4.125C8.025 4.525 7.9675 4.895 7.8525 5.235C7.7425 5.575 7.59 5.9 7.395 6.21C7.2 6.515 6.9725 6.8125 6.7125 7.1025C6.4575 7.3875 6.185 7.6775 5.895 7.9725L3.7575 10.1625C4.0325 10.0825 4.3025 10.02 4.5675 9.975C4.8375 9.925 5.09 9.9 5.325 9.9H7.365C7.615 9.9 7.8125 9.97 7.9575 10.11C8.1025 10.245 8.175 10.425 8.175 10.65V12H0.495V11.25C0.495 11.105 0.525 10.95 0.585 10.785C0.645 10.62 0.75 10.47 0.9 10.335L4.05 7.1625C4.32 6.8925 4.555 6.635 4.755 6.39C4.955 6.145 5.12 5.905 5.25 5.67C5.38 5.43 5.4775 5.1925 5.5425 4.9575C5.6075 4.7175 5.64 4.465 5.64 4.2C5.64 3.765 5.535 3.4325 5.325 3.2025C5.12 2.9675 4.805 2.85 4.38 2.85C4.205 2.85 4.045 2.875 3.9 2.925C3.755 2.975 3.625 3.0425 3.51 3.1275C3.395 3.2125 3.295 3.3125 3.21 3.4275C3.13 3.5425 3.065 3.6675 3.015 3.8025C2.935 4.0275 2.8325 4.19 2.7075 4.29C2.5875 4.39 2.4225 4.44 2.2125 4.44C2.1625 4.44 2.1075 4.4375 2.0475 4.4325C1.9925 4.4275 1.935 4.42 1.875 4.41L0.645 4.1925C0.725 3.6475 0.8775 3.1725 1.1025 2.7675C1.3325 2.3625 1.615 2.025 1.95 1.755C2.29 1.485 2.6775 1.285 3.1125 1.155C3.5475 1.02 4.015 0.9525 4.515 0.9525ZM16.9512 6.5325C16.9512 7.4875 16.8487 8.315 16.6437 9.015C16.4387 9.715 16.1537 10.295 15.7887 10.755C15.4287 11.215 14.9987 11.5575 14.4987 11.7825C14.0037 12.0075 13.4662 12.12 12.8862 12.12C12.3062 12.12 11.7687 12.0075 11.2737 11.7825C10.7837 11.5575 10.3587 11.215 9.99867 10.755C9.63867 10.295 9.35617 9.715 9.15117 9.015C8.95117 8.315 8.85117 7.4875 8.85117 6.5325C8.85117 5.5775 8.95117 4.75 9.15117 4.05C9.35617 3.35 9.63867 2.77 9.99867 2.31C10.3587 1.85 10.7837 1.51 11.2737 1.29C11.7687 1.065 12.3062 0.9525 12.8862 0.9525C13.4662 0.9525 14.0037 1.065 14.4987 1.29C14.9987 1.51 15.4287 1.85 15.7887 2.31C16.1537 2.77 16.4387 3.35 16.6437 4.05C16.8487 4.75 16.9512 5.5775 16.9512 6.5325ZM14.5512 6.5325C14.5512 5.7775 14.5037 5.16 14.4087 4.68C14.3137 4.195 14.1862 3.815 14.0262 3.54C13.8712 3.265 13.6937 3.0775 13.4937 2.9775C13.2937 2.8725 13.0912 2.82 12.8862 2.82C12.6812 2.82 12.4787 2.8725 12.2787 2.9775C12.0837 3.0775 11.9087 3.265 11.7537 3.54C11.6037 3.815 11.4812 4.195 11.3862 4.68C11.2962 5.16 11.2512 5.7775 11.2512 6.5325C11.2512 7.2925 11.2962 7.9125 11.3862 8.3925C11.4812 8.8725 11.6037 9.2525 11.7537 9.5325C11.9087 9.8075 12.0837 9.9975 12.2787 10.1025C12.4787 10.2025 12.6812 10.2525 12.8862 10.2525C13.0912 10.2525 13.2937 10.2025 13.4937 10.1025C13.6937 9.9975 13.8712 9.8075 14.0262 9.5325C14.1862 9.2525 14.3137 8.8725 14.4087 8.3925C14.5037 7.9125 14.5512 7.2925 14.5512 6.5325ZM18.9923 10.32H21.0923V4.8075C21.0923 4.5375 21.0998 4.255 21.1148 3.96L19.8773 4.9875C19.7973 5.0525 19.7173 5.1 19.6373 5.13C19.5573 5.155 19.4798 5.1675 19.4048 5.1675C19.2748 5.1675 19.1573 5.14 19.0523 5.085C18.9523 5.025 18.8773 4.9625 18.8273 4.8975L18.0923 3.9225L21.4973 1.065H23.4173V10.32H25.2173V12H18.9923V10.32ZM29.4935 7.74C29.1385 7.74 28.7835 7.6775 28.4285 7.5525C28.0735 7.4225 27.751 7.2275 27.461 6.9675C27.176 6.7075 26.9435 6.38 26.7635 5.985C26.5835 5.59 26.4935 5.1225 26.4935 4.5825C26.4935 4.0875 26.5835 3.62 26.7635 3.18C26.9485 2.74 27.2085 2.355 27.5435 2.025C27.8835 1.695 28.2885 1.435 28.7585 1.245C29.2285 1.05 29.7535 0.9525 30.3335 0.9525C30.9235 0.9525 31.451 1.0425 31.916 1.2225C32.381 1.4025 32.7735 1.655 33.0935 1.98C33.4185 2.305 33.666 2.6925 33.836 3.1425C34.011 3.5875 34.0985 4.08 34.0985 4.62C34.0985 4.98 34.0685 5.3175 34.0085 5.6325C33.9535 5.9475 33.8735 6.25 33.7685 6.54C33.6685 6.825 33.546 7.1 33.401 7.365C33.256 7.625 33.0935 7.8825 32.9135 8.1375L30.5585 11.4825C30.4585 11.6275 30.301 11.75 30.086 11.85C29.871 11.95 29.6285 12 29.3585 12H27.2135L30.6785 7.86C30.7485 7.775 30.8135 7.695 30.8735 7.62C30.9385 7.54 31.001 7.46 31.061 7.38C30.836 7.5 30.591 7.59 30.326 7.65C30.061 7.71 29.7835 7.74 29.4935 7.74ZM31.8785 4.41C31.8785 4.145 31.8385 3.9125 31.7585 3.7125C31.6835 3.5075 31.576 3.3375 31.436 3.2025C31.301 3.0675 31.136 2.965 30.941 2.895C30.746 2.825 30.5335 2.79 30.3035 2.79C30.0685 2.79 29.8585 2.8325 29.6735 2.9175C29.4935 2.9975 29.3385 3.11 29.2085 3.255C29.0835 3.4 28.986 3.5725 28.916 3.7725C28.851 3.9675 28.8185 4.18 28.8185 4.41C28.8185 5.5 29.3235 6.045 30.3335 6.045C30.8285 6.045 31.2085 5.8975 31.4735 5.6025C31.7435 5.3025 31.8785 4.905 31.8785 4.41ZM37.7051 6.5025H41.7551V8.3775H37.7051V6.5025Z" fill="#121111"/>
</svg>
