<svg width="300" height="107" viewBox="0 0 300 107" fill="none" xmlns="http://www.w3.org/2000/svg">
<path d="M22.272 25H16.832V15.144H7.36V25H1.92V1.688H7.36V11.432H16.832V1.688H22.272V25ZM31.5475 8.408V25H26.5875V8.408H31.5475ZM32.1235 3.864C32.1235 4.25867 32.0435 4.632 31.8835 4.984C31.7235 5.32533 31.5048 5.62933 31.2275 5.896C30.9502 6.152 30.6248 6.36 30.2515 6.52C29.8888 6.66933 29.4995 6.744 29.0835 6.744C28.6782 6.744 28.2995 6.66933 27.9475 6.52C27.5955 6.36 27.2808 6.152 27.0035 5.896C26.7368 5.62933 26.5235 5.32533 26.3635 4.984C26.2142 4.632 26.1395 4.25867 26.1395 3.864C26.1395 3.45867 26.2142 3.08 26.3635 2.728C26.5235 2.376 26.7368 2.06667 27.0035 1.8C27.2808 1.53333 27.5955 1.32533 27.9475 1.176C28.2995 1.02667 28.6782 0.952 29.0835 0.952C29.4995 0.952 29.8888 1.02667 30.2515 1.176C30.6248 1.32533 30.9502 1.53333 31.2275 1.8C31.5048 2.06667 31.7235 2.376 31.8835 2.728C32.0435 3.08 32.1235 3.45867 32.1235 3.864ZM35.0405 22.184C35.0405 21.8427 35.1045 21.528 35.2325 21.24C35.3605 20.9413 35.5418 20.6853 35.7765 20.472C36.0218 20.248 36.3045 20.072 36.6245 19.944C36.9552 19.816 37.3232 19.752 37.7285 19.752C38.2085 19.752 38.6245 19.8373 38.9765 20.008C39.3285 20.168 39.6218 20.392 39.8565 20.68C40.0912 20.9573 40.2618 21.2827 40.3685 21.656C40.4858 22.0187 40.5445 22.4027 40.5445 22.808C40.5445 23.3413 40.4592 23.912 40.2885 24.52C40.1178 25.1173 39.8618 25.72 39.5205 26.328C39.1898 26.936 38.7738 27.5333 38.2725 28.12C37.7712 28.7067 37.1952 29.24 36.5445 29.72L35.6805 28.952C35.5632 28.8347 35.4725 28.7227 35.4085 28.616C35.3552 28.52 35.3285 28.3973 35.3285 28.248C35.3285 28.1413 35.3658 28.024 35.4405 27.896C35.5152 27.7787 35.6058 27.672 35.7125 27.576C35.8405 27.448 35.9898 27.2933 36.1605 27.112C36.3312 26.9307 36.5018 26.728 36.6725 26.504C36.8432 26.28 36.9978 26.0347 37.1365 25.768C37.2858 25.5013 37.3978 25.2187 37.4725 24.92C37.0992 24.888 36.7632 24.7973 36.4645 24.648C36.1658 24.4987 35.9098 24.3013 35.6965 24.056C35.4938 23.8107 35.3338 23.5333 35.2165 23.224C35.0992 22.904 35.0405 22.5573 35.0405 22.184ZM56.1825 25H50.7425V1.688H56.1825V25ZM64.3205 0.183998C64.7472 0.855999 65.0618 1.528 65.2645 2.2C65.4778 2.872 65.5845 3.53867 65.5845 4.2C65.5845 5.34133 65.2858 6.43467 64.6885 7.48C64.0912 8.52533 63.2112 9.49067 62.0485 10.376L60.4805 9.448C60.3525 9.36267 60.2565 9.272 60.1925 9.176C60.1392 9.06933 60.1125 8.96267 60.1125 8.856C60.1125 8.73867 60.1392 8.62667 60.1925 8.52C60.2458 8.41333 60.3098 8.32267 60.3845 8.248C60.5018 8.12 60.6298 7.96533 60.7685 7.784C60.9178 7.592 61.0565 7.37333 61.1845 7.128C61.3125 6.88266 61.4192 6.60533 61.5045 6.296C61.6005 5.98667 61.6485 5.656 61.6485 5.304C61.6485 4.92 61.5792 4.50933 61.4405 4.072C61.3125 3.63467 61.0938 3.16533 60.7845 2.664C60.6778 2.49333 60.6245 2.32267 60.6245 2.152C60.6245 1.96 60.6885 1.78933 60.8165 1.64C60.9445 1.49067 61.1205 1.37333 61.3445 1.288L64.3205 0.183998ZM68.715 25V8.408H71.787C72.0963 8.408 72.3523 8.47733 72.555 8.616C72.7683 8.75467 72.9177 8.96267 73.003 9.24L73.275 10.136C73.5523 9.848 73.8403 9.58667 74.139 9.352C74.4377 9.10667 74.7577 8.89867 75.099 8.728C75.451 8.54667 75.8243 8.408 76.219 8.312C76.6243 8.20533 77.067 8.152 77.547 8.152C78.5497 8.152 79.3763 8.41333 80.027 8.936C80.6883 9.448 81.1897 10.136 81.531 11C81.8083 10.488 82.1443 10.0507 82.539 9.688C82.9443 9.32533 83.3763 9.032 83.835 8.808C84.3043 8.584 84.795 8.41867 85.307 8.312C85.8297 8.20533 86.347 8.152 86.859 8.152C87.8083 8.152 88.651 8.296 89.387 8.584C90.123 8.86133 90.7363 9.272 91.227 9.816C91.7283 10.3493 92.107 11.0107 92.363 11.8C92.619 12.5787 92.747 13.464 92.747 14.456V25H87.787V14.456C87.787 12.7387 87.051 11.88 85.579 11.88C84.907 11.88 84.347 12.104 83.899 12.552C83.4617 12.9893 83.243 13.624 83.243 14.456V25H78.283V14.456C78.283 13.5067 78.0963 12.84 77.723 12.456C77.3497 12.072 76.8003 11.88 76.075 11.88C75.627 11.88 75.2003 11.9813 74.795 12.184C74.4003 12.3867 74.027 12.6587 73.675 13V25H68.715ZM114.561 25C114.092 25 113.734 24.936 113.489 24.808C113.254 24.68 113.057 24.4133 112.897 24.008L112.545 23.096C112.129 23.448 111.729 23.7573 111.345 24.024C110.961 24.2907 110.561 24.52 110.145 24.712C109.74 24.8933 109.302 25.0267 108.833 25.112C108.374 25.208 107.862 25.256 107.297 25.256C106.54 25.256 105.852 25.16 105.233 24.968C104.614 24.7653 104.086 24.472 103.649 24.088C103.222 23.704 102.892 23.2293 102.657 22.664C102.422 22.088 102.305 21.4267 102.305 20.68C102.305 20.0933 102.454 19.4907 102.753 18.872C103.052 18.2533 103.569 17.6933 104.305 17.192C105.041 16.68 106.033 16.2533 107.281 15.912C108.529 15.5707 110.102 15.3787 112.001 15.336V14.632C112.001 13.6613 111.798 12.9627 111.393 12.536C110.998 12.0987 110.433 11.88 109.697 11.88C109.11 11.88 108.63 11.944 108.257 12.072C107.884 12.2 107.548 12.344 107.249 12.504C106.961 12.664 106.678 12.808 106.401 12.936C106.124 13.064 105.793 13.128 105.409 13.128C105.068 13.128 104.774 13.048 104.529 12.888C104.294 12.7173 104.108 12.5093 103.969 12.264L103.073 10.712C104.076 9.82667 105.185 9.17067 106.401 8.744C107.628 8.30667 108.94 8.088 110.337 8.088C111.34 8.088 112.241 8.25333 113.041 8.584C113.852 8.904 114.534 9.35733 115.089 9.944C115.654 10.52 116.086 11.208 116.385 12.008C116.684 12.808 116.833 13.6827 116.833 14.632V25H114.561ZM108.865 21.976C109.505 21.976 110.065 21.864 110.545 21.64C111.025 21.416 111.51 21.0533 112.001 20.552V18.248C111.009 18.2907 110.193 18.376 109.553 18.504C108.913 18.632 108.406 18.792 108.033 18.984C107.66 19.176 107.398 19.3947 107.249 19.64C107.11 19.8853 107.041 20.152 107.041 20.44C107.041 21.0053 107.196 21.4053 107.505 21.64C107.814 21.864 108.268 21.976 108.865 21.976ZM2.656 63V49.816L1.568 49.592C1.19467 49.5067 0.890667 49.3733 0.656 49.192C0.432 49.0107 0.32 48.744 0.32 48.392V46.44H2.656V45.496C2.656 44.5467 2.80533 43.688 3.104 42.92C3.41333 42.152 3.85067 41.496 4.416 40.952C4.992 40.408 5.69067 39.9867 6.512 39.688C7.33333 39.3893 8.26667 39.24 9.312 39.24C9.71733 39.24 10.0907 39.2667 10.432 39.32C10.784 39.3627 11.1467 39.4373 11.52 39.544L11.424 41.96C11.4133 42.1307 11.3653 42.2747 11.28 42.392C11.2053 42.4987 11.1093 42.5893 10.992 42.664C10.8747 42.728 10.7413 42.776 10.592 42.808C10.4533 42.84 10.3147 42.856 10.176 42.856C9.73867 42.856 9.34933 42.8987 9.008 42.984C8.66667 43.0693 8.37867 43.224 8.144 43.448C7.92 43.6613 7.74933 43.9493 7.632 44.312C7.51467 44.664 7.456 45.112 7.456 45.656V46.44H11.36V49.832H7.616V63H2.656ZM13.8337 63V46.408H16.7778C17.0231 46.408 17.2257 46.4293 17.3857 46.472C17.5564 46.5147 17.6951 46.584 17.8018 46.68C17.9191 46.7653 18.0044 46.8827 18.0577 47.032C18.1217 47.1813 18.1751 47.3627 18.2178 47.576L18.4897 49.128C19.0978 48.1893 19.7804 47.448 20.5378 46.904C21.2951 46.36 22.1217 46.088 23.0177 46.088C23.7751 46.088 24.3831 46.2693 24.8418 46.632L24.2017 50.28C24.1591 50.504 24.0738 50.664 23.9458 50.76C23.8177 50.8453 23.6471 50.888 23.4338 50.888C23.2524 50.888 23.0391 50.8667 22.7937 50.824C22.5484 50.7707 22.2391 50.744 21.8658 50.744C20.5644 50.744 19.5404 51.4373 18.7937 52.824V63H13.8337ZM34.7645 46.152C36.0232 46.152 37.1698 46.3493 38.2045 46.744C39.2392 47.1387 40.1245 47.704 40.8605 48.44C41.6072 49.176 42.1832 50.072 42.5885 51.128C43.0045 52.1733 43.2125 53.352 43.2125 54.664C43.2125 55.9867 43.0045 57.1813 42.5885 58.248C42.1832 59.304 41.6072 60.2053 40.8605 60.952C40.1245 61.688 39.2392 62.2587 38.2045 62.664C37.1698 63.0587 36.0232 63.256 34.7645 63.256C33.4952 63.256 32.3378 63.0587 31.2925 62.664C30.2578 62.2587 29.3618 61.688 28.6045 60.952C27.8578 60.2053 27.2765 59.304 26.8605 58.248C26.4552 57.1813 26.2525 55.9867 26.2525 54.664C26.2525 53.352 26.4552 52.1733 26.8605 51.128C27.2765 50.072 27.8578 49.176 28.6045 48.44C29.3618 47.704 30.2578 47.1387 31.2925 46.744C32.3378 46.3493 33.4952 46.152 34.7645 46.152ZM34.7645 59.576C35.9058 59.576 36.7432 59.176 37.2765 58.376C37.8205 57.5653 38.0925 56.3387 38.0925 54.696C38.0925 53.0533 37.8205 51.832 37.2765 51.032C36.7432 50.232 35.9058 49.832 34.7645 49.832C33.5912 49.832 32.7325 50.232 32.1885 51.032C31.6445 51.832 31.3725 53.0533 31.3725 54.696C31.3725 56.3387 31.6445 57.5653 32.1885 58.376C32.7325 59.176 33.5912 59.576 34.7645 59.576ZM46.255 63V46.408H49.327C49.6363 46.408 49.8923 46.4773 50.095 46.616C50.3083 46.7547 50.4577 46.9627 50.543 47.24L50.831 48.2C51.151 47.9013 51.4817 47.624 51.823 47.368C52.1643 47.112 52.527 46.8987 52.911 46.728C53.3057 46.5467 53.727 46.408 54.175 46.312C54.6337 46.2053 55.1297 46.152 55.663 46.152C56.5697 46.152 57.3697 46.312 58.063 46.632C58.767 46.9413 59.359 47.3787 59.839 47.944C60.319 48.4987 60.6817 49.1653 60.927 49.944C61.1723 50.712 61.295 51.5493 61.295 52.456V63H56.335V52.456C56.335 51.6453 56.1483 51.016 55.775 50.568C55.4017 50.1093 54.8523 49.88 54.127 49.88C53.583 49.88 53.071 49.9973 52.591 50.232C52.111 50.4667 51.6523 50.7813 51.215 51.176V63H46.255ZM70.9615 63.256C70.1722 63.256 69.4735 63.144 68.8655 62.92C68.2682 62.6853 67.7615 62.36 67.3455 61.944C66.9402 61.5173 66.6308 61.0053 66.4175 60.408C66.2042 59.8107 66.0975 59.144 66.0975 58.408V49.832H64.6895C64.4335 49.832 64.2148 49.752 64.0335 49.592C63.8522 49.4213 63.7615 49.176 63.7615 48.856V46.92L66.4015 46.408L67.3775 42.36C67.5055 41.848 67.8682 41.592 68.4655 41.592H71.0575V46.44H75.0895V49.832H71.0575V58.072C71.0575 58.456 71.1482 58.776 71.3295 59.032C71.5215 59.2773 71.7935 59.4 72.1455 59.4C72.3268 59.4 72.4762 59.384 72.5935 59.352C72.7215 59.3093 72.8282 59.2667 72.9135 59.224C73.0095 59.1707 73.0948 59.128 73.1695 59.096C73.2548 59.0533 73.3508 59.032 73.4575 59.032C73.6068 59.032 73.7242 59.0693 73.8095 59.144C73.9055 59.208 74.0015 59.3147 74.0975 59.464L75.6015 61.816C74.9615 62.296 74.2415 62.6587 73.4415 62.904C72.6415 63.1387 71.8148 63.256 70.9615 63.256ZM77.95 51.272H86.59V55.272H77.95V51.272ZM97.5377 46.152C98.6364 46.152 99.6391 46.3227 100.546 46.664C101.463 47.0053 102.247 47.5013 102.898 48.152C103.559 48.8027 104.071 49.6027 104.434 50.552C104.807 51.4907 104.994 52.5573 104.994 53.752C104.994 54.1253 104.978 54.4293 104.946 54.664C104.914 54.8987 104.855 55.0853 104.77 55.224C104.684 55.3627 104.567 55.4587 104.418 55.512C104.279 55.5653 104.098 55.592 103.874 55.592H94.3057C94.4657 56.9787 94.8871 57.9867 95.5697 58.616C96.2524 59.2347 97.1324 59.544 98.2097 59.544C98.7857 59.544 99.2817 59.4747 99.6977 59.336C100.114 59.1973 100.482 59.0427 100.802 58.872C101.132 58.7013 101.431 58.5467 101.698 58.408C101.975 58.2693 102.263 58.2 102.562 58.2C102.956 58.2 103.255 58.344 103.458 58.632L104.898 60.408C104.386 60.9947 103.831 61.4747 103.234 61.848C102.647 62.2107 102.039 62.4987 101.41 62.712C100.791 62.9147 100.167 63.0533 99.5377 63.128C98.9191 63.2133 98.3271 63.256 97.7617 63.256C96.5991 63.256 95.5057 63.0693 94.4817 62.696C93.4684 62.312 92.5777 61.7467 91.8097 61C91.0524 60.2533 90.4497 59.3253 90.0017 58.216C89.5644 57.1067 89.3457 55.816 89.3457 54.344C89.3457 53.2347 89.5324 52.184 89.9057 51.192C90.2897 50.2 90.8337 49.3307 91.5377 48.584C92.2524 47.8373 93.1111 47.2453 94.1137 46.808C95.1271 46.3707 96.2684 46.152 97.5377 46.152ZM97.6337 49.576C96.6844 49.576 95.9431 49.848 95.4097 50.392C94.8764 50.9253 94.5244 51.6987 94.3537 52.712H100.546C100.546 52.3173 100.492 51.9333 100.386 51.56C100.29 51.1867 100.124 50.856 99.8897 50.568C99.6657 50.2693 99.3671 50.0293 98.9937 49.848C98.6204 49.6667 98.1671 49.576 97.6337 49.576ZM108.16 63V46.408H111.232C111.541 46.408 111.797 46.4773 112 46.616C112.213 46.7547 112.363 46.9627 112.448 47.24L112.736 48.2C113.056 47.9013 113.387 47.624 113.728 47.368C114.069 47.112 114.432 46.8987 114.816 46.728C115.211 46.5467 115.632 46.408 116.08 46.312C116.539 46.2053 117.035 46.152 117.568 46.152C118.475 46.152 119.275 46.312 119.968 46.632C120.672 46.9413 121.264 47.3787 121.744 47.944C122.224 48.4987 122.587 49.1653 122.832 49.944C123.077 50.712 123.2 51.5493 123.2 52.456V63H118.24V52.456C118.24 51.6453 118.053 51.016 117.68 50.568C117.307 50.1093 116.757 49.88 116.032 49.88C115.488 49.88 114.976 49.9973 114.496 50.232C114.016 50.4667 113.557 50.7813 113.12 51.176V63H108.16ZM138.69 63C138.381 63 138.12 62.9307 137.906 62.792C137.704 62.6533 137.56 62.4453 137.474 62.168L137.09 60.904C136.76 61.256 136.413 61.576 136.05 61.864C135.688 62.152 135.293 62.4027 134.866 62.616C134.45 62.8187 133.997 62.9733 133.506 63.08C133.026 63.1973 132.504 63.256 131.938 63.256C131.074 63.256 130.274 63.064 129.538 62.68C128.802 62.296 128.168 61.7413 127.634 61.016C127.101 60.2907 126.68 59.4053 126.37 58.36C126.072 57.304 125.922 56.104 125.922 54.76C125.922 53.5227 126.093 52.376 126.434 51.32C126.776 50.2533 127.256 49.336 127.874 48.568C128.504 47.7893 129.256 47.1813 130.13 46.744C131.005 46.3067 131.97 46.088 133.026 46.088C133.88 46.088 134.6 46.216 135.186 46.472C135.784 46.7173 136.322 47.0427 136.802 47.448V39.048H141.762V63H138.69ZM133.666 59.448C134.029 59.448 134.354 59.416 134.642 59.352C134.941 59.2773 135.213 59.176 135.458 59.048C135.704 58.92 135.933 58.76 136.146 58.568C136.37 58.376 136.589 58.152 136.802 57.896V50.856C136.418 50.44 136.008 50.152 135.57 49.992C135.144 49.8213 134.69 49.736 134.21 49.736C133.752 49.736 133.33 49.8267 132.946 50.008C132.562 50.1893 132.226 50.4827 131.938 50.888C131.661 51.2827 131.442 51.8 131.282 52.44C131.122 53.08 131.042 53.8533 131.042 54.76C131.042 55.6347 131.106 56.3707 131.234 56.968C131.362 57.5653 131.538 58.0507 131.762 58.424C131.997 58.7867 132.274 59.048 132.594 59.208C132.914 59.368 133.272 59.448 133.666 59.448ZM164.08 63C163.771 63 163.51 62.9307 163.296 62.792C163.094 62.6533 162.95 62.4453 162.864 62.168L162.48 60.904C162.15 61.256 161.803 61.576 161.44 61.864C161.078 62.152 160.683 62.4027 160.256 62.616C159.84 62.8187 159.387 62.9733 158.896 63.08C158.416 63.1973 157.894 63.256 157.328 63.256C156.464 63.256 155.664 63.064 154.928 62.68C154.192 62.296 153.558 61.7413 153.024 61.016C152.491 60.2907 152.07 59.4053 151.76 58.36C151.462 57.304 151.312 56.104 151.312 54.76C151.312 53.5227 151.483 52.376 151.824 51.32C152.166 50.2533 152.646 49.336 153.264 48.568C153.894 47.7893 154.646 47.1813 155.52 46.744C156.395 46.3067 157.36 46.088 158.416 46.088C159.27 46.088 159.99 46.216 160.576 46.472C161.174 46.7173 161.712 47.0427 162.192 47.448V39.048H167.152V63H164.08ZM159.056 59.448C159.419 59.448 159.744 59.416 160.032 59.352C160.331 59.2773 160.603 59.176 160.848 59.048C161.094 58.92 161.323 58.76 161.536 58.568C161.76 58.376 161.979 58.152 162.192 57.896V50.856C161.808 50.44 161.398 50.152 160.96 49.992C160.534 49.8213 160.08 49.736 159.6 49.736C159.142 49.736 158.72 49.8267 158.336 50.008C157.952 50.1893 157.616 50.4827 157.328 50.888C157.051 51.2827 156.832 51.8 156.672 52.44C156.512 53.08 156.432 53.8533 156.432 54.76C156.432 55.6347 156.496 56.3707 156.624 56.968C156.752 57.5653 156.928 58.0507 157.152 58.424C157.387 58.7867 157.664 59.048 157.984 59.208C158.304 59.368 158.662 59.448 159.056 59.448ZM178.419 46.152C179.518 46.152 180.52 46.3227 181.427 46.664C182.344 47.0053 183.128 47.5013 183.779 48.152C184.44 48.8027 184.952 49.6027 185.315 50.552C185.688 51.4907 185.875 52.5573 185.875 53.752C185.875 54.1253 185.859 54.4293 185.827 54.664C185.795 54.8987 185.736 55.0853 185.651 55.224C185.566 55.3627 185.448 55.4587 185.299 55.512C185.16 55.5653 184.979 55.592 184.755 55.592H175.187C175.347 56.9787 175.768 57.9867 176.451 58.616C177.134 59.2347 178.014 59.544 179.091 59.544C179.667 59.544 180.163 59.4747 180.579 59.336C180.995 59.1973 181.363 59.0427 181.683 58.872C182.014 58.7013 182.312 58.5467 182.579 58.408C182.856 58.2693 183.144 58.2 183.443 58.2C183.838 58.2 184.136 58.344 184.339 58.632L185.779 60.408C185.267 60.9947 184.712 61.4747 184.115 61.848C183.528 62.2107 182.92 62.4987 182.291 62.712C181.672 62.9147 181.048 63.0533 180.419 63.128C179.8 63.2133 179.208 63.256 178.643 63.256C177.48 63.256 176.387 63.0693 175.363 62.696C174.35 62.312 173.459 61.7467 172.691 61C171.934 60.2533 171.331 59.3253 170.883 58.216C170.446 57.1067 170.227 55.816 170.227 54.344C170.227 53.2347 170.414 52.184 170.787 51.192C171.171 50.2 171.715 49.3307 172.419 48.584C173.134 47.8373 173.992 47.2453 174.995 46.808C176.008 46.3707 177.15 46.152 178.419 46.152ZM178.515 49.576C177.566 49.576 176.824 49.848 176.291 50.392C175.758 50.9253 175.406 51.6987 175.235 52.712H181.427C181.427 52.3173 181.374 51.9333 181.267 51.56C181.171 51.1867 181.006 50.856 180.771 50.568C180.547 50.2693 180.248 50.0293 179.875 49.848C179.502 49.6667 179.048 49.576 178.515 49.576ZM197.6 63H193.088L186.656 46.408H190.784C191.136 46.408 191.43 46.4933 191.664 46.664C191.91 46.824 192.075 47.0267 192.16 47.272L194.464 54.712C194.646 55.32 194.816 55.912 194.976 56.488C195.147 57.064 195.291 57.64 195.408 58.216C195.526 57.64 195.67 57.064 195.84 56.488C196.011 55.912 196.192 55.32 196.384 54.712L198.784 47.272C198.87 47.0267 199.03 46.824 199.264 46.664C199.499 46.4933 199.776 46.408 200.096 46.408H204.032L197.6 63ZM212.903 46.152C214.001 46.152 215.004 46.3227 215.911 46.664C216.828 47.0053 217.612 47.5013 218.263 48.152C218.924 48.8027 219.436 49.6027 219.799 50.552C220.172 51.4907 220.359 52.5573 220.359 53.752C220.359 54.1253 220.343 54.4293 220.311 54.664C220.279 54.8987 220.22 55.0853 220.135 55.224C220.049 55.3627 219.932 55.4587 219.783 55.512C219.644 55.5653 219.463 55.592 219.239 55.592H209.671C209.831 56.9787 210.252 57.9867 210.935 58.616C211.617 59.2347 212.497 59.544 213.575 59.544C214.151 59.544 214.647 59.4747 215.063 59.336C215.479 59.1973 215.847 59.0427 216.167 58.872C216.497 58.7013 216.796 58.5467 217.063 58.408C217.34 58.2693 217.628 58.2 217.927 58.2C218.321 58.2 218.62 58.344 218.823 58.632L220.263 60.408C219.751 60.9947 219.196 61.4747 218.599 61.848C218.012 62.2107 217.404 62.4987 216.775 62.712C216.156 62.9147 215.532 63.0533 214.903 63.128C214.284 63.2133 213.692 63.256 213.127 63.256C211.964 63.256 210.871 63.0693 209.847 62.696C208.833 62.312 207.943 61.7467 207.175 61C206.417 60.2533 205.815 59.3253 205.367 58.216C204.929 57.1067 204.711 55.816 204.711 54.344C204.711 53.2347 204.897 52.184 205.271 51.192C205.655 50.2 206.199 49.3307 206.903 48.584C207.617 47.8373 208.476 47.2453 209.479 46.808C210.492 46.3707 211.633 46.152 212.903 46.152ZM212.999 49.576C212.049 49.576 211.308 49.848 210.775 50.392C210.241 50.9253 209.889 51.6987 209.719 52.712H215.911C215.911 52.3173 215.857 51.9333 215.751 51.56C215.655 51.1867 215.489 50.856 215.255 50.568C215.031 50.2693 214.732 50.0293 214.359 49.848C213.985 49.6667 213.532 49.576 212.999 49.576ZM228.645 39.048V63H223.685V39.048H228.645ZM240.362 46.152C241.621 46.152 242.767 46.3493 243.802 46.744C244.837 47.1387 245.722 47.704 246.458 48.44C247.205 49.176 247.781 50.072 248.186 51.128C248.602 52.1733 248.81 53.352 248.81 54.664C248.81 55.9867 248.602 57.1813 248.186 58.248C247.781 59.304 247.205 60.2053 246.458 60.952C245.722 61.688 244.837 62.2587 243.802 62.664C242.767 63.0587 241.621 63.256 240.362 63.256C239.093 63.256 237.935 63.0587 236.89 62.664C235.855 62.2587 234.959 61.688 234.202 60.952C233.455 60.2053 232.874 59.304 232.458 58.248C232.053 57.1813 231.85 55.9867 231.85 54.664C231.85 53.352 232.053 52.1733 232.458 51.128C232.874 50.072 233.455 49.176 234.202 48.44C234.959 47.704 235.855 47.1387 236.89 46.744C237.935 46.3493 239.093 46.152 240.362 46.152ZM240.362 59.576C241.503 59.576 242.341 59.176 242.874 58.376C243.418 57.5653 243.69 56.3387 243.69 54.696C243.69 53.0533 243.418 51.832 242.874 51.032C242.341 50.232 241.503 49.832 240.362 49.832C239.189 49.832 238.33 50.232 237.786 51.032C237.242 51.832 236.97 53.0533 236.97 54.696C236.97 56.3387 237.242 57.5653 237.786 58.376C238.33 59.176 239.189 59.576 240.362 59.576ZM251.852 68.264V46.408H254.924C255.234 46.408 255.49 46.4773 255.692 46.616C255.906 46.7547 256.055 46.9627 256.14 47.24L256.508 48.456C256.828 48.104 257.17 47.784 257.532 47.496C257.906 47.208 258.3 46.9627 258.716 46.76C259.143 46.5467 259.596 46.3813 260.076 46.264C260.567 46.1467 261.1 46.088 261.676 46.088C262.54 46.088 263.34 46.28 264.076 46.664C264.812 47.048 265.447 47.6027 265.98 48.328C266.514 49.0533 266.93 49.944 267.228 51C267.538 52.0453 267.692 53.2347 267.692 54.568C267.692 55.816 267.516 56.968 267.164 58.024C266.823 59.08 266.338 59.9973 265.708 60.776C265.09 61.5547 264.343 62.1627 263.468 62.6C262.604 63.0373 261.644 63.256 260.588 63.256C259.724 63.256 258.999 63.1333 258.412 62.888C257.826 62.6427 257.292 62.312 256.812 61.896V68.264H251.852ZM259.948 49.88C259.586 49.88 259.255 49.9173 258.956 49.992C258.668 50.056 258.396 50.152 258.14 50.28C257.895 50.408 257.666 50.5733 257.452 50.776C257.239 50.968 257.026 51.192 256.812 51.448V58.488C257.186 58.904 257.591 59.1973 258.028 59.368C258.466 59.528 258.924 59.608 259.404 59.608C259.863 59.608 260.284 59.5173 260.668 59.336C261.052 59.1547 261.383 58.8667 261.66 58.472C261.948 58.0667 262.172 57.544 262.332 56.904C262.492 56.264 262.572 55.4853 262.572 54.568C262.572 53.6933 262.508 52.9573 262.38 52.36C262.252 51.7627 262.071 51.2827 261.836 50.92C261.612 50.5467 261.34 50.28 261.02 50.12C260.7 49.96 260.343 49.88 259.948 49.88ZM277.777 46.152C278.875 46.152 279.878 46.3227 280.785 46.664C281.702 47.0053 282.486 47.5013 283.137 48.152C283.798 48.8027 284.31 49.6027 284.673 50.552C285.046 51.4907 285.233 52.5573 285.233 53.752C285.233 54.1253 285.217 54.4293 285.185 54.664C285.153 54.8987 285.094 55.0853 285.009 55.224C284.923 55.3627 284.806 55.4587 284.657 55.512C284.518 55.5653 284.337 55.592 284.113 55.592H274.545C274.705 56.9787 275.126 57.9867 275.809 58.616C276.491 59.2347 277.371 59.544 278.449 59.544C279.025 59.544 279.521 59.4747 279.937 59.336C280.353 59.1973 280.721 59.0427 281.041 58.872C281.371 58.7013 281.67 58.5467 281.937 58.408C282.214 58.2693 282.502 58.2 282.801 58.2C283.195 58.2 283.494 58.344 283.697 58.632L285.137 60.408C284.625 60.9947 284.07 61.4747 283.473 61.848C282.886 62.2107 282.278 62.4987 281.649 62.712C281.03 62.9147 280.406 63.0533 279.777 63.128C279.158 63.2133 278.566 63.256 278.001 63.256C276.838 63.256 275.745 63.0693 274.721 62.696C273.707 62.312 272.817 61.7467 272.049 61C271.291 60.2533 270.689 59.3253 270.241 58.216C269.803 57.1067 269.585 55.816 269.585 54.344C269.585 53.2347 269.771 52.184 270.145 51.192C270.529 50.2 271.073 49.3307 271.777 48.584C272.491 47.8373 273.35 47.2453 274.353 46.808C275.366 46.3707 276.507 46.152 277.777 46.152ZM277.873 49.576C276.923 49.576 276.182 49.848 275.649 50.392C275.115 50.9253 274.763 51.6987 274.593 52.712H280.785C280.785 52.3173 280.731 51.9333 280.625 51.56C280.529 51.1867 280.363 50.856 280.129 50.568C279.905 50.2693 279.606 50.0293 279.233 49.848C278.859 49.6667 278.406 49.576 277.873 49.576ZM288.399 63V46.408H291.343C291.588 46.408 291.791 46.4293 291.951 46.472C292.121 46.5147 292.26 46.584 292.367 46.68C292.484 46.7653 292.569 46.8827 292.623 47.032C292.687 47.1813 292.74 47.3627 292.783 47.576L293.055 49.128C293.663 48.1893 294.345 47.448 295.103 46.904C295.86 46.36 296.687 46.088 297.583 46.088C298.34 46.088 298.948 46.2693 299.407 46.632L298.767 50.28C298.724 50.504 298.639 50.664 298.511 50.76C298.383 50.8453 298.212 50.888 297.999 50.888C297.817 50.888 297.604 50.8667 297.359 50.824C297.113 50.7707 296.804 50.744 296.431 50.744C295.129 50.744 294.105 51.4373 293.359 52.824V63H288.399ZM0 84.408H3.968C4.32 84.408 4.624 84.488 4.88 84.648C5.136 84.808 5.29067 85.016 5.344 85.272L7.008 92.712C7.136 93.2773 7.25333 93.8267 7.36 94.36C7.46667 94.8933 7.56267 95.4213 7.648 95.944C7.79733 95.4213 7.952 94.8987 8.112 94.376C8.28267 93.8427 8.448 93.288 8.608 92.712L10.688 85.256C10.752 85.0107 10.9067 84.808 11.152 84.648C11.3973 84.4773 11.68 84.392 12 84.392H14.208C14.56 84.392 14.8587 84.4773 15.104 84.648C15.36 84.808 15.52 85.0107 15.584 85.256L17.568 92.712C17.7173 93.2773 17.8667 93.8267 18.016 94.36C18.176 94.8933 18.3253 95.432 18.464 95.976C18.5493 95.4427 18.6507 94.9147 18.768 94.392C18.896 93.8587 19.0293 93.2987 19.168 92.712L20.928 85.272C20.9813 85.016 21.1307 84.808 21.376 84.648C21.632 84.488 21.92 84.408 22.24 84.408H26.016L20.864 101H16.832C16.6187 101 16.4373 100.936 16.288 100.808C16.1387 100.68 16.0213 100.467 15.936 100.168L13.568 91.896C13.4613 91.5227 13.36 91.1547 13.264 90.792C13.168 90.4293 13.0827 90.0667 13.008 89.704C12.9333 90.0773 12.848 90.4507 12.752 90.824C12.6667 91.1867 12.5653 91.5547 12.448 91.928L10.048 100.168C9.888 100.723 9.536 101 8.992 101H5.152L0 84.408ZM28.2712 101V77.048H33.2312V85.864C33.8286 85.352 34.4739 84.9413 35.1672 84.632C35.8713 84.312 36.7086 84.152 37.6792 84.152C38.5859 84.152 39.3859 84.312 40.0793 84.632C40.7833 84.9413 41.3753 85.3787 41.8553 85.944C42.3353 86.4987 42.6979 87.1653 42.9433 87.944C43.1886 88.712 43.3113 89.5493 43.3113 90.456V101H38.3513V90.456C38.3513 89.6453 38.1646 89.016 37.7913 88.568C37.4179 88.1093 36.8686 87.88 36.1433 87.88C35.5993 87.88 35.0873 87.9973 34.6073 88.232C34.1273 88.4667 33.6686 88.7813 33.2312 89.176V101H28.2712ZM54.5457 84.152C55.8044 84.152 56.9511 84.3493 57.9858 84.744C59.0204 85.1387 59.9058 85.704 60.6418 86.44C61.3884 87.176 61.9644 88.072 62.3698 89.128C62.7858 90.1733 62.9937 91.352 62.9937 92.664C62.9937 93.9867 62.7858 95.1813 62.3698 96.248C61.9644 97.304 61.3884 98.2053 60.6418 98.952C59.9058 99.688 59.0204 100.259 57.9858 100.664C56.9511 101.059 55.8044 101.256 54.5457 101.256C53.2764 101.256 52.1191 101.059 51.0737 100.664C50.0391 100.259 49.1431 99.688 48.3857 98.952C47.6391 98.2053 47.0577 97.304 46.6417 96.248C46.2364 95.1813 46.0337 93.9867 46.0337 92.664C46.0337 91.352 46.2364 90.1733 46.6417 89.128C47.0577 88.072 47.6391 87.176 48.3857 86.44C49.1431 85.704 50.0391 85.1387 51.0737 84.744C52.1191 84.3493 53.2764 84.152 54.5457 84.152ZM54.5457 97.576C55.6871 97.576 56.5244 97.176 57.0577 96.376C57.6017 95.5653 57.8737 94.3387 57.8737 92.696C57.8737 91.0533 57.6017 89.832 57.0577 89.032C56.5244 88.232 55.6871 87.832 54.5457 87.832C53.3724 87.832 52.5137 88.232 51.9697 89.032C51.4257 89.832 51.1537 91.0533 51.1537 92.696C51.1537 94.3387 51.4257 95.5653 51.9697 96.376C52.5137 97.176 53.3724 97.576 54.5457 97.576ZM84.5117 88.344C84.3624 88.5253 84.2184 88.6693 84.0797 88.776C83.9411 88.8827 83.7437 88.936 83.4877 88.936C83.2424 88.936 83.0184 88.8773 82.8157 88.76C82.6237 88.6427 82.4051 88.5147 82.1597 88.376C81.9144 88.2267 81.6264 88.0933 81.2957 87.976C80.9651 87.8587 80.5544 87.8 80.0637 87.8C79.4557 87.8 78.9277 87.912 78.4797 88.136C78.0424 88.36 77.6797 88.68 77.3917 89.096C77.1037 89.512 76.8904 90.024 76.7517 90.632C76.6131 91.2293 76.5437 91.9067 76.5437 92.664C76.5437 94.2533 76.8477 95.4747 77.4557 96.328C78.0744 97.1813 78.9224 97.608 79.9997 97.608C80.5757 97.608 81.0291 97.5387 81.3597 97.4C81.7011 97.2507 81.9891 97.0907 82.2237 96.92C82.4584 96.7387 82.6717 96.5733 82.8637 96.424C83.0664 96.2747 83.3171 96.2 83.6157 96.2C84.0104 96.2 84.3091 96.344 84.5117 96.632L85.9517 98.408C85.4397 98.9947 84.9011 99.4747 84.3357 99.848C83.7704 100.211 83.1891 100.499 82.5917 100.712C82.0051 100.915 81.4131 101.053 80.8157 101.128C80.2184 101.213 79.6371 101.256 79.0717 101.256C78.0584 101.256 77.0877 101.064 76.1597 100.68C75.2424 100.296 74.4317 99.7413 73.7277 99.016C73.0344 98.28 72.4797 97.3787 72.0637 96.312C71.6584 95.2453 71.4557 94.0293 71.4557 92.664C71.4557 91.4693 71.6317 90.3547 71.9837 89.32C72.3464 88.2747 72.8744 87.3733 73.5677 86.616C74.2717 85.848 75.1357 85.2453 76.1597 84.808C77.1944 84.3707 78.3891 84.152 79.7437 84.152C81.0451 84.152 82.1864 84.36 83.1677 84.776C84.1491 85.192 85.0344 85.8 85.8237 86.6L84.5117 88.344ZM99.8822 101C99.4129 101 99.0556 100.936 98.8102 100.808C98.5756 100.68 98.3782 100.413 98.2182 100.008L97.8662 99.096C97.4502 99.448 97.0502 99.7573 96.6662 100.024C96.2822 100.291 95.8822 100.52 95.4662 100.712C95.0609 100.893 94.6236 101.027 94.1542 101.112C93.6956 101.208 93.1836 101.256 92.6182 101.256C91.8609 101.256 91.1729 101.16 90.5542 100.968C89.9356 100.765 89.4076 100.472 88.9702 100.088C88.5436 99.704 88.2129 99.2293 87.9782 98.664C87.7436 98.088 87.6262 97.4267 87.6262 96.68C87.6262 96.0933 87.7756 95.4907 88.0742 94.872C88.3729 94.2533 88.8902 93.6933 89.6262 93.192C90.3622 92.68 91.3542 92.2533 92.6022 91.912C93.8502 91.5707 95.4236 91.3787 97.3222 91.336V90.632C97.3222 89.6613 97.1196 88.9627 96.7142 88.536C96.3196 88.0987 95.7542 87.88 95.0182 87.88C94.4316 87.88 93.9516 87.944 93.5782 88.072C93.2049 88.2 92.8689 88.344 92.5702 88.504C92.2822 88.664 91.9996 88.808 91.7222 88.936C91.4449 89.064 91.1142 89.128 90.7302 89.128C90.3889 89.128 90.0956 89.048 89.8502 88.888C89.6156 88.7173 89.4289 88.5093 89.2902 88.264L88.3942 86.712C89.3969 85.8267 90.5062 85.1707 91.7222 84.744C92.9489 84.3067 94.2609 84.088 95.6582 84.088C96.6609 84.088 97.5622 84.2533 98.3622 84.584C99.1729 84.904 99.8556 85.3573 100.41 85.944C100.976 86.52 101.408 87.208 101.706 88.008C102.005 88.808 102.154 89.6827 102.154 90.632V101H99.8822ZM94.1862 97.976C94.8262 97.976 95.3862 97.864 95.8662 97.64C96.3462 97.416 96.8316 97.0533 97.3222 96.552V94.248C96.3302 94.2907 95.5142 94.376 94.8742 94.504C94.2342 94.632 93.7276 94.792 93.3542 94.984C92.9809 95.176 92.7196 95.3947 92.5702 95.64C92.4316 95.8853 92.3622 96.152 92.3622 96.44C92.3622 97.0053 92.5169 97.4053 92.8262 97.64C93.1356 97.864 93.5889 97.976 94.1862 97.976ZM105.996 101V84.408H109.068C109.378 84.408 109.634 84.4773 109.836 84.616C110.05 84.7547 110.199 84.9627 110.284 85.24L110.572 86.2C110.892 85.9013 111.223 85.624 111.564 85.368C111.906 85.112 112.268 84.8987 112.652 84.728C113.047 84.5467 113.468 84.408 113.916 84.312C114.375 84.2053 114.871 84.152 115.404 84.152C116.311 84.152 117.111 84.312 117.804 84.632C118.508 84.9413 119.1 85.3787 119.58 85.944C120.06 86.4987 120.423 87.1653 120.668 87.944C120.914 88.712 121.036 89.5493 121.036 90.456V101H116.076V90.456C116.076 89.6453 115.89 89.016 115.516 88.568C115.143 88.1093 114.594 87.88 113.868 87.88C113.324 87.88 112.812 87.9973 112.332 88.232C111.852 88.4667 111.394 88.7813 110.956 89.176V101H105.996ZM143.034 101C142.725 101 142.464 100.931 142.25 100.792C142.048 100.653 141.904 100.445 141.818 100.168L141.434 98.904C141.104 99.256 140.757 99.576 140.394 99.864C140.032 100.152 139.637 100.403 139.21 100.616C138.794 100.819 138.341 100.973 137.85 101.08C137.37 101.197 136.848 101.256 136.282 101.256C135.418 101.256 134.618 101.064 133.882 100.68C133.146 100.296 132.512 99.7413 131.978 99.016C131.445 98.2907 131.024 97.4053 130.714 96.36C130.416 95.304 130.266 94.104 130.266 92.76C130.266 91.5227 130.437 90.376 130.778 89.32C131.12 88.2533 131.6 87.336 132.218 86.568C132.848 85.7893 133.6 85.1813 134.474 84.744C135.349 84.3067 136.314 84.088 137.37 84.088C138.224 84.088 138.944 84.216 139.53 84.472C140.128 84.7173 140.666 85.0427 141.146 85.448V77.048H146.106V101H143.034ZM138.01 97.448C138.373 97.448 138.698 97.416 138.986 97.352C139.285 97.2773 139.557 97.176 139.802 97.048C140.048 96.92 140.277 96.76 140.49 96.568C140.714 96.376 140.933 96.152 141.146 95.896V88.856C140.762 88.44 140.352 88.152 139.914 87.992C139.488 87.8213 139.034 87.736 138.554 87.736C138.096 87.736 137.674 87.8267 137.29 88.008C136.906 88.1893 136.57 88.4827 136.282 88.888C136.005 89.2827 135.786 89.8 135.626 90.44C135.466 91.08 135.386 91.8533 135.386 92.76C135.386 93.6347 135.45 94.3707 135.578 94.968C135.706 95.5653 135.882 96.0507 136.106 96.424C136.341 96.7867 136.618 97.048 136.938 97.208C137.258 97.368 137.616 97.448 138.01 97.448ZM157.373 84.152C158.471 84.152 159.474 84.3227 160.381 84.664C161.298 85.0053 162.082 85.5013 162.733 86.152C163.394 86.8027 163.906 87.6027 164.269 88.552C164.642 89.4907 164.829 90.5573 164.829 91.752C164.829 92.1253 164.813 92.4293 164.781 92.664C164.749 92.8987 164.69 93.0853 164.605 93.224C164.519 93.3627 164.402 93.4587 164.253 93.512C164.114 93.5653 163.933 93.592 163.709 93.592H154.141C154.301 94.9787 154.722 95.9867 155.405 96.616C156.087 97.2347 156.967 97.544 158.045 97.544C158.621 97.544 159.117 97.4747 159.533 97.336C159.949 97.1973 160.317 97.0427 160.637 96.872C160.967 96.7013 161.266 96.5467 161.533 96.408C161.81 96.2693 162.098 96.2 162.397 96.2C162.791 96.2 163.09 96.344 163.293 96.632L164.733 98.408C164.221 98.9947 163.666 99.4747 163.069 99.848C162.482 100.211 161.874 100.499 161.245 100.712C160.626 100.915 160.002 101.053 159.373 101.128C158.754 101.213 158.162 101.256 157.597 101.256C156.434 101.256 155.341 101.069 154.317 100.696C153.303 100.312 152.413 99.7467 151.645 99C150.887 98.2533 150.285 97.3253 149.837 96.216C149.399 95.1067 149.181 93.816 149.181 92.344C149.181 91.2347 149.367 90.184 149.741 89.192C150.125 88.2 150.669 87.3307 151.373 86.584C152.087 85.8373 152.946 85.2453 153.949 84.808C154.962 84.3707 156.103 84.152 157.373 84.152ZM157.469 87.576C156.519 87.576 155.778 87.848 155.245 88.392C154.711 88.9253 154.359 89.6987 154.189 90.712H160.381C160.381 90.3173 160.327 89.9333 160.221 89.56C160.125 89.1867 159.959 88.856 159.725 88.568C159.501 88.2693 159.202 88.0293 158.829 87.848C158.455 87.6667 158.002 87.576 157.469 87.576ZM178.139 88.04C178.011 88.2427 177.872 88.3867 177.723 88.472C177.584 88.5573 177.403 88.6 177.179 88.6C176.944 88.6 176.71 88.552 176.475 88.456C176.24 88.3493 175.984 88.2373 175.707 88.12C175.44 88.0027 175.136 87.896 174.795 87.8C174.454 87.6933 174.064 87.64 173.627 87.64C172.998 87.64 172.512 87.7627 172.171 88.008C171.84 88.2427 171.675 88.5733 171.675 89C171.675 89.3093 171.782 89.5653 171.995 89.768C172.219 89.9707 172.512 90.152 172.875 90.312C173.238 90.4613 173.648 90.6053 174.107 90.744C174.566 90.8827 175.035 91.0373 175.515 91.208C175.995 91.3787 176.464 91.5813 176.923 91.816C177.382 92.04 177.792 92.3227 178.155 92.664C178.518 92.9947 178.806 93.4 179.019 93.88C179.243 94.36 179.355 94.936 179.355 95.608C179.355 96.4293 179.206 97.1867 178.907 97.88C178.608 98.5733 178.16 99.1707 177.563 99.672C176.976 100.173 176.246 100.563 175.371 100.84C174.507 101.117 173.51 101.256 172.379 101.256C171.814 101.256 171.248 101.203 170.683 101.096C170.118 100.989 169.568 100.845 169.035 100.664C168.512 100.483 168.027 100.269 167.579 100.024C167.131 99.768 166.747 99.496 166.427 99.208L167.579 97.384C167.718 97.1707 167.883 97.0053 168.075 96.888C168.267 96.76 168.518 96.696 168.827 96.696C169.115 96.696 169.371 96.76 169.595 96.888C169.83 97.016 170.08 97.1547 170.347 97.304C170.614 97.4533 170.923 97.592 171.275 97.72C171.638 97.848 172.091 97.912 172.635 97.912C173.019 97.912 173.344 97.8747 173.611 97.8C173.878 97.7147 174.091 97.6027 174.251 97.464C174.411 97.3253 174.528 97.1707 174.603 97C174.678 96.8293 174.715 96.6533 174.715 96.472C174.715 96.1413 174.603 95.8693 174.379 95.656C174.155 95.4427 173.862 95.2613 173.499 95.112C173.136 94.952 172.72 94.808 172.251 94.68C171.792 94.5413 171.323 94.3867 170.843 94.216C170.363 94.0453 169.888 93.8427 169.419 93.608C168.96 93.3627 168.55 93.0587 168.187 92.696C167.824 92.3227 167.531 91.8693 167.307 91.336C167.083 90.8027 166.971 90.1573 166.971 89.4C166.971 88.696 167.104 88.0293 167.371 87.4C167.648 86.76 168.059 86.2 168.603 85.72C169.147 85.24 169.83 84.8613 170.651 84.584C171.472 84.296 172.432 84.152 173.531 84.152C174.128 84.152 174.704 84.2053 175.259 84.312C175.824 84.4187 176.352 84.568 176.843 84.76C177.334 84.952 177.782 85.1813 178.187 85.448C178.592 85.704 178.95 85.9867 179.259 86.296L178.139 88.04ZM187.529 84.408V101H182.569V84.408H187.529ZM188.105 79.864C188.105 80.2587 188.025 80.632 187.865 80.984C187.705 81.3253 187.486 81.6293 187.209 81.896C186.931 82.152 186.606 82.36 186.233 82.52C185.87 82.6693 185.481 82.744 185.065 82.744C184.659 82.744 184.281 82.6693 183.929 82.52C183.577 82.36 183.262 82.152 182.985 81.896C182.718 81.6293 182.505 81.3253 182.345 80.984C182.195 80.632 182.121 80.2587 182.121 79.864C182.121 79.4587 182.195 79.08 182.345 78.728C182.505 78.376 182.718 78.0667 182.985 77.8C183.262 77.5333 183.577 77.3253 183.929 77.176C184.281 77.0267 184.659 76.952 185.065 76.952C185.481 76.952 185.87 77.0267 186.233 77.176C186.606 77.3253 186.931 77.5333 187.209 77.8C187.486 78.0667 187.705 78.376 187.865 78.728C188.025 79.08 188.105 79.4587 188.105 79.864ZM197.71 84.12C198.414 84.12 199.075 84.1893 199.694 84.328C200.323 84.4667 200.904 84.664 201.438 84.92H206.446V86.728C206.446 87.0053 206.366 87.224 206.206 87.384C206.056 87.544 205.795 87.6667 205.422 87.752L204.206 88.024C204.355 88.504 204.43 89 204.43 89.512C204.43 90.344 204.254 91.0907 203.902 91.752C203.56 92.4133 203.086 92.9787 202.478 93.448C201.88 93.9067 201.171 94.264 200.35 94.52C199.528 94.7653 198.648 94.888 197.71 94.888C197.187 94.888 196.696 94.856 196.238 94.792C195.875 95.0053 195.694 95.2507 195.694 95.528C195.694 95.8053 195.838 96.008 196.126 96.136C196.424 96.2533 196.814 96.3387 197.294 96.392C197.774 96.4347 198.323 96.4667 198.942 96.488C199.56 96.4987 200.19 96.536 200.83 96.6C201.47 96.6533 202.099 96.7493 202.718 96.888C203.336 97.0267 203.886 97.2507 204.366 97.56C204.846 97.8693 205.23 98.2853 205.518 98.808C205.816 99.32 205.966 99.976 205.966 100.776C205.966 101.523 205.784 102.253 205.422 102.968C205.059 103.683 204.526 104.317 203.822 104.872C203.118 105.427 202.254 105.869 201.23 106.2C200.206 106.541 199.032 106.712 197.71 106.712C196.408 106.712 195.283 106.589 194.334 106.344C193.395 106.099 192.611 105.773 191.982 105.368C191.363 104.973 190.904 104.515 190.606 103.992C190.307 103.469 190.158 102.925 190.158 102.36C190.158 101.624 190.382 101.005 190.83 100.504C191.278 99.992 191.891 99.592 192.67 99.304C192.296 99.0587 191.998 98.744 191.774 98.36C191.55 97.976 191.438 97.4907 191.438 96.904C191.438 96.6587 191.48 96.4027 191.566 96.136C191.651 95.8587 191.784 95.592 191.966 95.336C192.147 95.08 192.376 94.8347 192.654 94.6C192.931 94.3653 193.262 94.1573 193.646 93.976C192.782 93.5173 192.099 92.9093 191.598 92.152C191.107 91.3947 190.862 90.5147 190.862 89.512C190.862 88.68 191.038 87.9333 191.39 87.272C191.742 86.6 192.222 86.0347 192.83 85.576C193.448 85.1067 194.174 84.7493 195.006 84.504C195.838 84.248 196.739 84.12 197.71 84.12ZM201.39 101.608C201.39 101.341 201.304 101.128 201.134 100.968C200.974 100.808 200.75 100.68 200.462 100.584C200.184 100.488 199.854 100.419 199.47 100.376C199.096 100.333 198.691 100.301 198.254 100.28C197.816 100.259 197.363 100.243 196.894 100.232C196.424 100.211 195.96 100.173 195.502 100.12C195.192 100.333 194.936 100.573 194.734 100.84C194.542 101.096 194.446 101.389 194.446 101.72C194.446 101.955 194.494 102.168 194.59 102.36C194.696 102.552 194.878 102.717 195.134 102.856C195.39 102.995 195.731 103.101 196.158 103.176C196.595 103.261 197.144 103.304 197.806 103.304C198.52 103.304 199.107 103.261 199.566 103.176C200.024 103.091 200.387 102.973 200.654 102.824C200.931 102.675 201.123 102.493 201.23 102.28C201.336 102.077 201.39 101.853 201.39 101.608ZM197.71 91.832C198.531 91.832 199.123 91.6293 199.486 91.224C199.859 90.808 200.046 90.2747 200.046 89.624C200.046 88.952 199.859 88.424 199.486 88.04C199.123 87.656 198.531 87.464 197.71 87.464C196.888 87.464 196.291 87.656 195.918 88.04C195.555 88.424 195.374 88.952 195.374 89.624C195.374 89.944 195.416 90.2373 195.502 90.504C195.598 90.7707 195.742 91.0053 195.934 91.208C196.126 91.4 196.366 91.5547 196.654 91.672C196.952 91.7787 197.304 91.832 197.71 91.832ZM208.924 101V84.408H211.996C212.305 84.408 212.561 84.4773 212.764 84.616C212.977 84.7547 213.126 84.9627 213.212 85.24L213.5 86.2C213.82 85.9013 214.15 85.624 214.492 85.368C214.833 85.112 215.196 84.8987 215.58 84.728C215.974 84.5467 216.396 84.408 216.844 84.312C217.302 84.2053 217.798 84.152 218.332 84.152C219.238 84.152 220.038 84.312 220.732 84.632C221.436 84.9413 222.028 85.3787 222.508 85.944C222.988 86.4987 223.35 87.1653 223.596 87.944C223.841 88.712 223.964 89.5493 223.964 90.456V101H219.004V90.456C219.004 89.6453 218.817 89.016 218.444 88.568C218.07 88.1093 217.521 87.88 216.796 87.88C216.252 87.88 215.74 87.9973 215.26 88.232C214.78 88.4667 214.321 88.7813 213.884 89.176V101H208.924ZM226.846 98.488C226.846 98.104 226.916 97.7467 227.054 97.416C227.204 97.0853 227.401 96.7973 227.646 96.552C227.902 96.3067 228.201 96.1147 228.542 95.976C228.884 95.8267 229.257 95.752 229.662 95.752C230.057 95.752 230.425 95.8267 230.766 95.976C231.108 96.1147 231.406 96.3067 231.662 96.552C231.918 96.7973 232.116 97.0853 232.254 97.416C232.404 97.7467 232.478 98.104 232.478 98.488C232.478 98.872 232.404 99.2347 232.254 99.576C232.116 99.9067 231.918 100.195 231.662 100.44C231.406 100.685 231.108 100.877 230.766 101.016C230.425 101.155 230.057 101.224 229.662 101.224C229.257 101.224 228.884 101.155 228.542 101.016C228.201 100.877 227.902 100.685 227.646 100.44C227.401 100.195 227.204 99.9067 227.054 99.576C226.916 99.2347 226.846 98.872 226.846 98.488Z" fill="#121111"/>
</svg>
