<svg fill="none" height="107" viewBox="0 0 300 107" width="300" xmlns="http://www.w3.org/2000/svg" xmlns:xlink="http://www.w3.org/1999/xlink"><clipPath id="a"><path d="m0 0h300v107h-300z"/></clipPath><g clip-path="url(#a)" fill="#121111"><path d="m22.32 1.78399v23.21601h-4.832v-10h-10.22398v10h-4.832v-23.21601h4.832v9.85601h10.22398v-9.85601z"/><path d="m31.2193 8.50399v16.49601h-4.416v-16.49601zm.528-4.68801c0 .37334-.0747.72001-.224 1.04001-.1494.32-.352.60266-.608.848-.2454.24533-.5387.43733-.88.576-.3307.13866-.688.208-1.072.208-.3627 0-.7094-.06934-1.04-.208-.32-.13867-.6027-.33067-.848-.576-.2454-.24534-.4427-.528-.592-.848-.1387-.32-.208-.66667-.208-1.04001 0-.37333.0693-.71999.208-1.03999.1493-.33067.3466-.61867.592-.864.2453-.24534.528-.43734.848-.576.3306-.13867.6773-.208 1.04-.208.384 0 .7413.06933 1.072.208.3413.13866.6346.33066.88.576.256.24533.4586.53333.608.864.1493.32.224.66666.224 1.03999z"/><path d="m35.2918 28.936c-.1174-.096-.2027-.192-.256-.288-.0427-.096-.064-.2133-.064-.352 0-.096.032-.2027.096-.32.0746-.1067.16-.208.256-.304.1173-.128.2613-.288.432-.48.1706-.1813.3413-.3893.512-.624.1706-.224.3253-.4747.464-.752.1493-.2773.2613-.5707.336-.88-.352-.0107-.672-.0853-.96-.224s-.5334-.32-.736-.544c-.2027-.224-.3627-.4853-.48-.784-.1067-.3093-.16-.64-.16-.992 0-.32.0586-.6187.176-.896.1173-.2773.2826-.5173.496-.72.224-.2027.4853-.3627.784-.48.3093-.1173.6506-.176 1.024-.176.4373 0 .816.08 1.136.24.3306.1493.6026.352.816.608.2133.256.3733.56.48.912.1066.3413.16.704.16 1.088 0 .5227-.08 1.0773-.24 1.664-.16.576-.4 1.1573-.72 1.744s-.7147 1.1573-1.184 1.712c-.4587.5653-.992 1.0773-1.6 1.536z"/><path d="m56.544 25h-4.832v-23.21601h4.832z"/><path d="m64.1035.247986c.544.874664.9067 1.781334 1.088 2.720004.192.93866.208 1.86666.048 2.784-.16.90666-.496 1.78133-1.008 2.624-.5013.84266-1.1787 1.6-2.032 2.27201l-1.376-.83201c-.128-.07467-.2187-.16-.272-.256-.0427-.10667-.064-.208-.064-.304.0107-.10667.0373-.20267.08-.288.0427-.096.096-.176.16-.24.2027-.23467.4053-.56.608-.976.2133-.42667.3627-.90667.448-1.44.0853-.544.08-1.13067-.016-1.76001-.096-.62933-.3413-1.26399-.736-1.90399-.2133-.33067-.272-.61867-.176-.864.096-.256.288-.432.576-.528z"/><path d="m68.5878 25v-16.49601h2.72c.5546 0 .9226.256 1.104.768l.256 1.07201c.288-.2987.5813-.57601.88-.83201.3093-.256.64-.47467.992-.656.352-.192.7306-.34134 1.136-.448.416-.10667.864-.16 1.344-.16 1.0133 0 1.8506.272 2.512.816.6613.53333 1.1626 1.24801 1.504 2.14401.2666-.5227.592-.9707.976-1.34401.3946-.384.8213-.69334 1.28-.928.4693-.23467.96-.40534 1.472-.512.5226-.11734 1.0453-.176 1.568-.176.928 0 1.7493.13866 2.464.416.7146.27733 1.312.688 1.792 1.232.4906.53331.864 1.18931 1.12 1.96801s.384 1.664.384 2.656v10.48h-4.416v-10.48c0-1.9307-.8267-2.896-2.48-2.896-.3734 0-.72.064-1.04.192-.3094.1173-.5867.2987-.832.544-.2347.2453-.4214.5493-.56.912-.128.3627-.192.7787-.192 1.248v10.48h-4.416v-10.48c0-1.0453-.208-1.7867-.624-2.224-.4054-.448-1.008-.672-1.808-.672-.512 0-.9974.1227-1.456.368-.448.2347-.8694.5653-1.264.992v12.016z"/><path d="m112.446 18.104c-1.078.0533-1.974.1493-2.688.288-.715.128-1.286.2987-1.712.512-.416.2133-.715.4587-.896.736-.171.2667-.256.56-.256.88 0 .64.176 1.0933.528 1.36.362.2667.864.4 1.504.4.736 0 1.37-.128 1.904-.384.544-.2667 1.082-.6773 1.616-1.232zm-8.992-7.312c.97-.87468 2.042-1.52535 3.216-1.95201 1.173-.43734 2.442-.656 3.808-.656.981 0 1.856.16 2.624.48.778.32 1.434.768 1.968 1.34401.544.5653.96 1.2427 1.248 2.032s.432 1.6533.432 2.592v10.368h-2.016c-.416 0-.736-.0587-.96-.176-.214-.1173-.39-.3627-.528-.736l-.352-1.056c-.416.3627-.822.6827-1.216.96-.384.2773-.784.512-1.2.704-.416.1813-.864.32-1.344.416-.47.096-.998.144-1.584.144-.726 0-1.387-.096-1.984-.288-.598-.192-1.115-.4747-1.552-.848-.427-.384-.758-.8587-.992-1.424-.235-.5653-.352-1.216-.352-1.952 0-.608.154-1.216.464-1.824.309-.608.837-1.1573 1.584-1.648.757-.5013 1.76-.912 3.008-1.232 1.258-.3307 2.832-.5173 4.72-.56v-.848c0-1.0347-.219-1.792-.656-2.272-.438-.4907-1.067-.736-1.888-.736-.608 0-1.115.0747-1.52.224-.406.1387-.763.2933-1.072.464-.299.16-.582.3147-.848.464-.267.1387-.576.208-.928.208-.31 0-.571-.0747-.784-.224-.203-.16-.374-.3467-.512-.56z"/><path d="m3.02402 63v-13.328l-1.28-.224c-.33067-.064-.60267-.1813-.816003-.352-.202667-.1707-.304-.416-.304-.736v-1.76h2.400003v-1.088c0-.9387.144-1.7867.432-2.544.29866-.768.72-1.4134 1.264-1.936.544-.5334 1.21066-.944 2-1.232.78933-.288 1.68-.432 2.672-.432.384 0 .74668.0266 1.08798.08.352.0427.704.112 1.056.208l-.096 2.176c-.0213.3307-.1653.5493-.432.656-.256.096-.544.144-.864.144-.44798 0-.85332.048-1.21598.144-.352.096-.65067.2613-.896.496-.24534.224-.432.5333-.56.928-.128.384-.192.864-.192 1.44v.96h4.09598v3.072h-3.95198v13.328z"/><path d="m17.8818 49.224c.5226-.9387 1.1253-1.68 1.808-2.224.6826-.544 1.4826-.816 2.4-.816.7466 0 1.3546.176 1.824.528l-.288 3.264c-.0534.2133-.1387.3627-.256.448-.1067.0747-.256.112-.448.112-.1707 0-.416-.0213-.736-.064-.32-.0533-.6187-.08-.896-.08-.4054 0-.768.0587-1.088.176-.3094.1173-.5867.2827-.832.496-.2454.2133-.4694.4747-.672.784-.192.3093-.3734.6613-.544 1.056v10.096h-4.416v-16.496h2.608c.448 0 .7573.08.928.24.1706.16.2933.4373.368.832z"/><path d="m33.1853 46.248c1.2373 0 2.3626.1973 3.376.592 1.0133.3947 1.8826.96 2.608 1.696.7253.7253 1.2853 1.6107 1.68 2.656.3946 1.0453.592 2.224.592 3.536s-.1974 2.496-.592 3.552c-.3947 1.0453-.9547 1.936-1.68 2.672-.7254.736-1.5947 1.3013-2.608 1.696-1.0134.3947-2.1387.592-3.376.592-1.248 0-2.384-.1973-3.408-.592-1.0134-.3947-1.8827-.96-2.608-1.696-.7254-.736-1.2907-1.6267-1.696-2.672-.3947-1.056-.592-2.24-.592-3.552s.1973-2.4907.592-3.536c.4053-1.0453.9706-1.9307 1.696-2.656.7253-.736 1.5946-1.3013 2.608-1.696 1.024-.3947 2.16-.592 3.408-.592zm0 13.68c1.2586 0 2.192-.432 2.8-1.296.608-.8747.912-2.1707.912-3.888 0-1.7067-.304-2.992-.912-3.856-.608-.8747-1.5414-1.312-2.8-1.312-1.2907 0-2.24.4373-2.848 1.312-.608.864-.912 2.1493-.912 3.856 0 1.7173.304 3.0133.912 3.888.608.864 1.5573 1.296 2.848 1.296z"/><path d="m48.63 48.424c.3307-.32.672-.6134 1.024-.88.3627-.2667.7413-.496 1.136-.688.4054-.192.8373-.3414 1.296-.448.4693-.1067.976-.16 1.52-.16.896 0 1.6907.1546 2.384.464.6933.3093 1.2747.7413 1.744 1.296.48.5547.8373 1.216 1.072 1.984.2453.768.368 1.6107.368 2.528v10.48h-4.4v-10.48c0-.9173-.2133-1.6267-.64-2.128-.4267-.512-1.056-.768-1.888-.768-.6187 0-1.2.1333-1.744.4s-1.0613.64-1.552 1.12v11.856h-4.416v-16.496h2.72c.5547 0 .9227.256 1.104.768z"/><path d="m68.4875 63.256c-.7466 0-1.408-.1067-1.984-.32-.576-.224-1.0613-.5387-1.456-.944-.3947-.4054-.6933-.896-.896-1.472s-.304-1.2267-.304-1.952v-8.896h-1.552c-.2347 0-.4373-.0747-.608-.224-.16-.1494-.24-.3733-.24-.672v-1.728l2.64-.48.896-4.272c.1173-.48.4427-.72.976-.72h2.304v5.024h4.256v3.072h-4.256v8.608c0 .4587.1067.8213.32 1.088.224.2666.5387.4.944.4.2133 0 .3947-.0213.544-.064.1494-.0533.2773-.1067.384-.16.1067-.064.2027-.1173.288-.16.096-.0533.192-.08.288-.08.128 0 .2347.032.32.096.0853.0533.1707.1493.256.288l1.328 2.112c-.608.48-1.296.8427-2.064 1.088s-1.5626.368-2.384.368z"/><path d="m75.1253 51.496h8.448v3.616h-8.448z"/><path d="m97.9268 52.808c0-.4587-.064-.896-.192-1.312-.1174-.416-.3094-.784-.576-1.104-.2667-.32-.6027-.5707-1.008-.752-.4054-.192-.8907-.288-1.456-.288-1.056 0-1.8827.2987-2.48.896-.5974.5973-.9867 1.4506-1.168 2.56zm-6.944 2.624c.1386 1.5467.576 2.6773 1.312 3.392.7466.7146 1.7173 1.072 2.912 1.072.608 0 1.1306-.0693 1.568-.208.448-.1493.8373-.3093 1.168-.48.3413-.1813.6453-.3414.912-.48.2773-.1494.5493-.224.816-.224.3412 0 .6082.128.8002.384l1.28 1.6c-.47.544-.987.9973-1.552 1.36-.5656.352-1.1522.6347-1.7602.848-.608.2027-1.2214.3413-1.84.416-.6187.0853-1.216.128-1.792.128-1.152 0-2.2294-.1867-3.232-.56-.992-.384-1.8614-.944-2.608-1.68-.736-.7467-1.3174-1.6693-1.744-2.768-.4267-1.0987-.64-2.3733-.64-3.824 0-1.12.1813-2.176.544-3.168.3733-.992.9066-1.856 1.6-2.592.6933-.736 1.536-1.3173 2.528-1.744.992-.4373 2.112-.656 3.36-.656 1.056 0 2.0266.1707 2.912.512.896.3307 1.664.816 2.304 1.456.6502.64 1.1522 1.4293 1.5042 2.368.362.928.544 1.9893.544 3.184 0 .3306-.016.6027-.048.816s-.086.384-.16.512c-.075.128-.176.2187-.304.272-.128.0427-.294.064-.496.064z"/><path d="m109.035 48.424c.331-.32.672-.6134 1.024-.88.363-.2667.741-.496 1.136-.688.405-.192.837-.3414 1.296-.448.469-.1067.976-.16 1.52-.16.896 0 1.691.1546 2.384.464.693.3093 1.275.7413 1.744 1.296.48.5547.837 1.216 1.072 1.984.245.768.368 1.6107.368 2.528v10.48h-4.4v-10.48c0-.9173-.213-1.6267-.64-2.128-.427-.512-1.056-.768-1.888-.768-.619 0-1.2.1333-1.744.4s-1.061.64-1.552 1.12v11.856h-4.416v-16.496h2.72c.555 0 .923.256 1.104.768z"/><path d="m133.607 50.792c-.416-.48-.869-.816-1.36-1.008-.48-.192-.992-.288-1.536-.288-.533 0-1.018.1013-1.456.304-.437.2027-.816.5227-1.136.96-.309.4267-.549.976-.72 1.648-.17.672-.256 1.472-.256 2.4 0 .9173.07 1.696.208 2.336.139.64.336 1.1573.592 1.552.267.3947.587.6826.96.864.374.1706.79.256 1.248.256.779 0 1.43-.1547 1.952-.464.534-.3094 1.035-.7467 1.504-1.312zm4.416-11.648v23.856h-2.72c-.565 0-.928-.256-1.088-.768l-.368-1.44c-.33.3627-.682.6933-1.056.992-.362.2986-.757.56-1.184.784-.426.2133-.885.3787-1.376.496-.49.1173-1.024.176-1.6.176-.885 0-1.696-.1867-2.432-.56s-1.376-.9174-1.92-1.632c-.533-.7254-.949-1.6107-1.248-2.656-.298-1.0454-.448-2.24-.448-3.584 0-1.2267.166-2.368.496-3.424.342-1.056.822-1.968 1.44-2.736.619-.768 1.366-1.3707 2.24-1.808.875-.4373 1.846-.656 2.912-.656.896 0 1.648.1333 2.256.4.619.2667 1.179.6293 1.68 1.088v-8.528z"/><path d="m160.122 50.792c-.416-.48-.869-.816-1.36-1.008-.48-.192-.992-.288-1.536-.288-.533 0-1.018.1013-1.456.304-.437.2027-.816.5227-1.136.96-.309.4267-.549.976-.72 1.648-.17.672-.256 1.472-.256 2.4 0 .9173.07 1.696.208 2.336.139.64.336 1.1573.592 1.552.267.3947.587.6826.96.864.374.1706.79.256 1.248.256.779 0 1.43-.1547 1.952-.464.534-.3094 1.035-.7467 1.504-1.312zm4.416-11.648v23.856h-2.72c-.565 0-.928-.256-1.088-.768l-.368-1.44c-.33.3627-.682.6933-1.056.992-.362.2986-.757.56-1.184.784-.426.2133-.885.3787-1.376.496-.49.1173-1.024.176-1.6.176-.885 0-1.696-.1867-2.432-.56s-1.376-.9174-1.92-1.632c-.533-.7254-.949-1.6107-1.248-2.656-.298-1.0454-.448-2.24-.448-3.584 0-1.2267.166-2.368.496-3.424.342-1.056.822-1.968 1.44-2.736.619-.768 1.366-1.3707 2.24-1.808.875-.4373 1.846-.656 2.912-.656.896 0 1.648.1333 2.256.4.619.2667 1.179.6293 1.68 1.088v-8.528z"/><path d="m178.996 52.808c0-.4587-.064-.896-.192-1.312-.118-.416-.31-.784-.576-1.104-.267-.32-.603-.5707-1.008-.752-.406-.192-.891-.288-1.456-.288-1.056 0-1.883.2987-2.48.896-.598.5973-.987 1.4506-1.168 2.56zm-6.944 2.624c.138 1.5467.576 2.6773 1.312 3.392.746.7146 1.717 1.072 2.912 1.072.608 0 1.13-.0693 1.568-.208.448-.1493.837-.3093 1.168-.48.341-.1813.645-.3414.912-.48.277-.1494.549-.224.816-.224.341 0 .608.128.8.384l1.28 1.6c-.47.544-.987.9973-1.552 1.36-.566.352-1.152.6347-1.76.848-.608.2027-1.222.3413-1.84.416-.619.0853-1.216.128-1.792.128-1.152 0-2.23-.1867-3.232-.56-.992-.384-1.862-.944-2.608-1.68-.736-.7467-1.318-1.6693-1.744-2.768-.427-1.0987-.64-2.3733-.64-3.824 0-1.12.181-2.176.544-3.168.373-.992.906-1.856 1.6-2.592.693-.736 1.536-1.3173 2.528-1.744.992-.4373 2.112-.656 3.36-.656 1.056 0 2.026.1707 2.912.512.896.3307 1.664.816 2.304 1.456.65.64 1.152 1.4293 1.504 2.368.362.928.544 1.9893.544 3.184 0 .3306-.016.6027-.048.816s-.086.384-.16.512c-.075.128-.176.2187-.304.272-.128.0427-.294.064-.496.064z"/><path d="m200.754 46.504-6.48 16.496h-4l-6.48-16.496h3.664c.32 0 .587.0746.8.224.214.1493.363.3413.448.576l2.768 8.16c.182.5547.342 1.0987.48 1.632.139.5227.262 1.0507.368 1.584.118-.5333.246-1.0613.384-1.584.15-.5333.32-1.0773.512-1.632l2.864-8.16c.075-.2347.219-.4267.432-.576.214-.1494.464-.224.752-.224z"/><path d="m212.886 52.808c0-.4587-.064-.896-.192-1.312-.118-.416-.31-.784-.576-1.104-.267-.32-.603-.5707-1.008-.752-.406-.192-.891-.288-1.456-.288-1.056 0-1.883.2987-2.48.896-.598.5973-.987 1.4506-1.168 2.56zm-6.944 2.624c.138 1.5467.576 2.6773 1.312 3.392.746.7146 1.717 1.072 2.912 1.072.608 0 1.13-.0693 1.568-.208.448-.1493.837-.3093 1.168-.48.341-.1813.645-.3414.912-.48.277-.1494.549-.224.816-.224.341 0 .608.128.8.384l1.28 1.6c-.47.544-.987.9973-1.552 1.36-.566.352-1.152.6347-1.76.848-.608.2027-1.222.3413-1.84.416-.619.0853-1.216.128-1.792.128-1.152 0-2.23-.1867-3.232-.56-.992-.384-1.862-.944-2.608-1.68-.736-.7467-1.318-1.6693-1.744-2.768-.427-1.0987-.64-2.3733-.64-3.824 0-1.12.181-2.176.544-3.168.373-.992.906-1.856 1.6-2.592.693-.736 1.536-1.3173 2.528-1.744.992-.4373 2.112-.656 3.36-.656 1.056 0 2.026.1707 2.912.512.896.3307 1.664.816 2.304 1.456.65.64 1.152 1.4293 1.504 2.368.362.928.544 1.9893.544 3.184 0 .3306-.016.6027-.048.816s-.086.384-.16.512c-.075.128-.176.2187-.304.272-.128.0427-.294.064-.496.064z"/><path d="m224.346 39.144v23.856h-4.416v-23.856z"/><path d="m235.783 46.248c1.237 0 2.362.1973 3.376.592 1.013.3947 1.882.96 2.608 1.696.725.7253 1.285 1.6107 1.68 2.656.394 1.0453.592 2.224.592 3.536s-.198 2.496-.592 3.552c-.395 1.0453-.955 1.936-1.68 2.672-.726.736-1.595 1.3013-2.608 1.696-1.014.3947-2.139.592-3.376.592-1.248 0-2.384-.1973-3.408-.592-1.014-.3947-1.883-.96-2.608-1.696-.726-.736-1.291-1.6267-1.696-2.672-.395-1.056-.592-2.24-.592-3.552s.197-2.4907.592-3.536c.405-1.0453.97-1.9307 1.696-2.656.725-.736 1.594-1.3013 2.608-1.696 1.024-.3947 2.16-.592 3.408-.592zm0 13.68c1.258 0 2.192-.432 2.8-1.296.608-.8747.912-2.1707.912-3.888 0-1.7067-.304-2.992-.912-3.856-.608-.8747-1.542-1.312-2.8-1.312-1.291 0-2.24.4373-2.848 1.312-.608.864-.912 2.1493-.912 3.856 0 1.7173.304 3.0133.912 3.888.608.864 1.557 1.296 2.848 1.296z"/><path d="m251.548 58.648c.416.48.864.816 1.344 1.008.49.192 1.013.288 1.568.288.533 0 1.018-.1013 1.456-.304.437-.2027.81-.5173 1.12-.944.32-.4373.565-.992.736-1.664.17-.672.256-1.472.256-2.4 0-.9173-.075-1.696-.224-2.336-.139-.64-.342-1.1573-.608-1.552-.256-.3947-.571-.6773-.944-.848-.374-.1813-.79-.272-1.248-.272-.779 0-1.435.1546-1.968.464-.523.2986-1.019.7413-1.488 1.328zm-.256-9.984c.33-.3627.682-.6934 1.056-.992.373-.3094.773-.5707 1.2-.784.426-.224.885-.3947 1.376-.512.49-.128 1.024-.192 1.6-.192.885 0 1.696.192 2.432.576.746.3733 1.386.9226 1.92 1.648.533.7146.949 1.5947 1.248 2.64.298 1.0453.448 2.24.448 3.584 0 1.2373-.171 2.384-.512 3.44-.331 1.0453-.806 1.952-1.424 2.72-.619.768-1.366 1.3706-2.24 1.808-.864.4266-1.83.64-2.896.64-.896 0-1.659-.1334-2.288-.4-.619-.2667-1.174-.6293-1.664-1.088v6.576h-4.416v-21.824h2.72c.554 0 .922.256 1.104.768z"/><path d="m276.197 52.808c0-.4587-.064-.896-.192-1.312-.118-.416-.31-.784-.576-1.104-.267-.32-.603-.5707-1.008-.752-.406-.192-.891-.288-1.456-.288-1.056 0-1.883.2987-2.48.896-.598.5973-.987 1.4506-1.168 2.56zm-6.944 2.624c.138 1.5467.576 2.6773 1.312 3.392.746.7146 1.717 1.072 2.912 1.072.608 0 1.13-.0693 1.568-.208.448-.1493.837-.3093 1.168-.48.341-.1813.645-.3414.912-.48.277-.1494.549-.224.816-.224.341 0 .608.128.8.384l1.28 1.6c-.47.544-.987.9973-1.552 1.36-.566.352-1.152.6347-1.76.848-.608.2027-1.222.3413-1.84.416-.619.0853-1.216.128-1.792.128-1.152 0-2.23-.1867-3.232-.56-.992-.384-1.862-.944-2.608-1.68-.736-.7467-1.318-1.6693-1.744-2.768-.427-1.0987-.64-2.3733-.64-3.824 0-1.12.181-2.176.544-3.168.373-.992.906-1.856 1.6-2.592.693-.736 1.536-1.3173 2.528-1.744.992-.4373 2.112-.656 3.36-.656 1.056 0 2.026.1707 2.912.512.896.3307 1.664.816 2.304 1.456.65.64 1.152 1.4293 1.504 2.368.362.928.544 1.9893.544 3.184 0 .3306-.016.6027-.048.816s-.086.384-.16.512c-.075.128-.176.2187-.304.272-.128.0427-.294.064-.496.064z"/><path d="m287.353 49.224c.523-.9387 1.125-1.68 1.808-2.224s1.483-.816 2.4-.816c.747 0 1.355.176 1.824.528l-.288 3.264c-.053.2133-.139.3627-.256.448-.107.0747-.256.112-.448.112-.171 0-.416-.0213-.736-.064-.32-.0533-.619-.08-.896-.08-.405 0-.768.0587-1.088.176-.309.1173-.587.2827-.832.496s-.469.4747-.672.784c-.192.3093-.373.6613-.544 1.056v10.096h-4.416v-16.496h2.608c.448 0 .757.08.928.24s.293.4373.368.832z"/><path d="m25.712 84.504-5.184 16.496h-3.568c-.1813 0-.3466-.059-.496-.176-.1386-.117-.2453-.315-.32-.592l-2.688-8.928c-.1067-.3413-.2027-.6774-.288-1.008-.0746-.3414-.144-.6827-.208-1.024-.0746.3413-.1547.688-.24 1.04-.0746.3413-.1653.6826-.272 1.024l-2.71998 8.896c-.14934.512-.46934.768-.96.768h-3.392l-5.184003-16.496h3.520003c.32 0 .58666.0746.8.224.224.1493.37333.3413.448.576l2.032 8.16c.128.5226.24 1.0293.336 1.52s.18666.976.272 1.456c.128-.48.26133-.9653.4-1.456.14933-.4907.304-.9974.464-1.52l2.41598-8.192c.0747-.224.2187-.4107.432-.56.2134-.1494.464-.224.752-.224h1.952c.3094 0 .5707.0746.784.224.224.1493.3734.336.448.56l2.336 8.192c.1494.512.2934 1.0187.432 1.52.1387.4907.2667.9867.384 1.488.0854-.4907.176-.9813.272-1.472.1067-.5013.2294-1.0134.368-1.536l2.128-8.16c.0747-.2347.2187-.4267.432-.576.2134-.1494.464-.224.752-.224z"/><path d="m32.4663 86.12c.3093-.2774.6293-.528.96-.752.3413-.2347.6986-.432 1.072-.592.384-.1707.7893-.2987 1.216-.384.4373-.096.9066-.144 1.408-.144.896 0 1.6906.1546 2.384.464.6933.3093 1.2746.7413 1.744 1.296.48.5546.8373 1.216 1.072 1.984.2453.768.368 1.6106.368 2.528v10.48h-4.4v-10.48c0-.9174-.2134-1.6267-.64-2.128-.4267-.512-1.056-.768-1.888-.768-.6187 0-1.2.1333-1.744.4s-1.0614.64-1.552 1.12v11.856h-4.416v-23.856h4.416z"/><path d="m53.9665 84.248c1.2373 0 2.3627.1973 3.376.592 1.0133.3946 1.8827.96 2.608 1.696.7253.7253 1.2853 1.6107 1.68 2.656s.592 2.224.592 3.536-.1973 2.496-.592 3.552c-.3947 1.0453-.9547 1.936-1.68 2.672s-1.5947 1.301-2.608 1.696-2.1387.592-3.376.592c-1.248 0-2.384-.197-3.408-.592-1.0133-.395-1.8827-.96-2.608-1.696s-1.2907-1.6267-1.696-2.672c-.3947-1.056-.592-2.24-.592-3.552s.1973-2.4907.592-3.536c.4053-1.0453.9707-1.9307 1.696-2.656.7253-.736 1.5947-1.3014 2.608-1.696 1.024-.3947 2.16-.592 3.408-.592zm0 13.68c1.2587 0 2.192-.432 2.8-1.296.608-.8747.912-2.1707.912-3.888 0-1.7067-.304-2.992-.912-3.856-.608-.8747-1.5413-1.312-2.8-1.312-1.2907 0-2.24.4373-2.848 1.312-.608.864-.912 2.1493-.912 3.856 0 1.7173.304 3.0133.912 3.888.608.864 1.5573 1.296 2.848 1.296z"/><path d="m77.677 77.144v23.856h-4.416v-23.856z"/><path d="m89.114 84.248c1.2373 0 2.3627.1973 3.376.592 1.0133.3946 1.8827.96 2.608 1.696.7253.7253 1.2853 1.6107 1.68 2.656s.592 2.224.592 3.536-.1973 2.496-.592 3.552c-.3947 1.0453-.9547 1.936-1.68 2.672s-1.5947 1.301-2.608 1.696-2.1387.592-3.376.592c-1.248 0-2.384-.197-3.408-.592-1.0133-.395-1.8827-.96-2.608-1.696s-1.2907-1.6267-1.696-2.672c-.3947-1.056-.592-2.24-.592-3.552s.1973-2.4907.592-3.536c.4053-1.0453.9707-1.9307 1.696-2.656.7253-.736 1.5947-1.3014 2.608-1.696 1.024-.3947 2.16-.592 3.408-.592zm0 13.68c1.2587 0 2.192-.432 2.8-1.296.608-.8747.912-2.1707.912-3.888 0-1.7067-.304-2.992-.912-3.856-.608-.8747-1.5413-1.312-2.8-1.312-1.2907 0-2.24.4373-2.848 1.312-.608.864-.912 2.1493-.912 3.856 0 1.7173.304 3.0133.912 3.888.608.864 1.5573 1.296 2.848 1.296z"/><path d="m115.116 84.504-6.48 16.496h-4l-6.4805-16.496h3.6645c.32 0 .586.0746.8.224.213.1493.362.3413.448.576l2.768 8.16c.181.5546.341 1.0987.48 1.632.138.5227.261 1.0507.368 1.584.117-.5333.245-1.0613.384-1.584.149-.5333.32-1.0774.512-1.632l2.864-8.16c.074-.2347.218-.4267.432-.576.213-.1494.464-.224.752-.224z"/><path d="m127.247 90.808c0-.4587-.064-.896-.192-1.312-.118-.416-.31-.784-.576-1.104-.267-.32-.603-.5707-1.008-.752-.406-.192-.891-.288-1.456-.288-1.056 0-1.883.2987-2.48.896-.598.5973-.987 1.4506-1.168 2.56zm-6.944 2.624c.138 1.5467.576 2.6773 1.312 3.392.746.7146 1.717 1.072 2.912 1.072.608 0 1.13-.0693 1.568-.208.448-.1493.837-.3093 1.168-.48.341-.1813.645-.3414.912-.48.277-.1494.549-.224.816-.224.341 0 .608.128.8.384l1.28 1.6c-.47.544-.987.9973-1.552 1.36-.566.352-1.152.635-1.76.848-.608.203-1.222.341-1.84.416-.619.085-1.216.128-1.792.128-1.152 0-2.23-.187-3.232-.56-.992-.384-1.862-.944-2.608-1.68-.736-.7467-1.318-1.6693-1.744-2.768-.427-1.0987-.64-2.3734-.64-3.824 0-1.12.181-2.176.544-3.168.373-.992.906-1.856 1.6-2.592.693-.736 1.536-1.3173 2.528-1.744.992-.4373 2.112-.656 3.36-.656 1.056 0 2.026.1706 2.912.512.896.3306 1.664.816 2.304 1.456.65.64 1.152 1.4293 1.504 2.368.362.928.544 1.9893.544 3.184 0 .3306-.016.6027-.048.816s-.086.384-.16.512c-.075.128-.176.2186-.304.272-.128.0426-.294.064-.496.064z"/><path d="m144.515 87.896c-.117.1813-.24.3146-.368.4-.117.0746-.283.112-.496.112s-.432-.0533-.656-.16-.475-.2187-.752-.336c-.277-.128-.597-.2454-.96-.352-.352-.1067-.763-.16-1.232-.16-.715 0-1.269.1493-1.664.448-.395.288-.592.672-.592 1.152 0 .3307.112.608.336.832s.517.4213.88.592c.373.16.795.3147 1.264.464.469.1387.949.2933 1.44.464.501.1706.987.368 1.456.592s.885.5067 1.248.848c.373.3307.672.736.896 1.216.224.4693.336 1.04.336 1.712 0 .8-.149 1.5413-.448 2.224-.288.672-.715 1.2533-1.28 1.744-.565.491-1.269.875-2.112 1.152s-1.813.416-2.912.416c-.565 0-1.125-.053-1.68-.16-.555-.096-1.083-.235-1.584-.416-.501-.192-.971-.411-1.408-.656-.437-.2453-.816-.512-1.136-.8l1.024-1.648c.117-.192.261-.3414.432-.448.181-.1067.411-.16.688-.16.267 0 .512.0693.736.208.224.128.475.272.752.432.277.1493.603.2933.976.432.384.128.859.192 1.424.192.427 0 .795-.048 1.104-.144s.56-.224.752-.384c.192-.1707.331-.3574.416-.56.096-.2134.144-.432.144-.656 0-.3627-.117-.656-.352-.88-.224-.2347-.523-.4373-.896-.608-.363-.1707-.784-.3253-1.264-.464s-.971-.2933-1.472-.464c-.491-.1707-.976-.3734-1.456-.608-.469-.2347-.891-.528-1.264-.88-.363-.3627-.661-.8054-.896-1.328-.224-.5227-.336-1.1574-.336-1.904 0-.6827.133-1.328.4-1.936.267-.6187.667-1.1627 1.2-1.632.533-.4694 1.195-.8427 1.984-1.12.8-.2773 1.723-.416 2.768-.416 1.173 0 2.24.192 3.2.576s1.749.8853 2.368 1.504z"/><path d="m166.841 88.792c-.416-.48-.869-.816-1.36-1.008-.48-.192-.992-.288-1.536-.288-.533 0-1.019.1013-1.456.304s-.816.5227-1.136.96c-.309.4267-.549.976-.72 1.648s-.256 1.472-.256 2.4c0 .9173.069 1.696.208 2.336s.336 1.1573.592 1.552c.267.3947.587.6826.96.864.373.1706.789.256 1.248.256.779 0 1.429-.1547 1.952-.464.533-.3094 1.035-.7467 1.504-1.312zm4.416-11.648v23.856h-2.72c-.565 0-.928-.256-1.088-.768l-.368-1.44c-.331.3627-.683.6933-1.056.992-.363.299-.757.56-1.184.784-.427.213-.885.379-1.376.496s-1.024.176-1.6.176c-.885 0-1.696-.187-2.432-.56s-1.376-.9174-1.92-1.632c-.533-.7254-.949-1.6107-1.248-2.656-.299-1.0454-.448-2.24-.448-3.584 0-1.2267.165-2.368.496-3.424.341-1.056.821-1.968 1.44-2.736s1.365-1.3707 2.24-1.808c.875-.4374 1.845-.656 2.912-.656.896 0 1.648.1333 2.256.4.619.2667 1.179.6293 1.68 1.088v-8.528z"/><path d="m185.714 90.808c0-.4587-.064-.896-.192-1.312-.117-.416-.309-.784-.576-1.104-.266-.32-.602-.5707-1.008-.752-.405-.192-.89-.288-1.456-.288-1.056 0-1.882.2987-2.48.896-.597.5973-.986 1.4506-1.168 2.56zm-6.944 2.624c.139 1.5467.576 2.6773 1.312 3.392.747.7146 1.718 1.072 2.912 1.072.608 0 1.131-.0693 1.568-.208.448-.1493.838-.3093 1.168-.48.342-.1813.646-.3414.912-.48.278-.1494.55-.224.816-.224.342 0 .608.128.8.384l1.28 1.6c-.469.544-.986.9973-1.552 1.36-.565.352-1.152.635-1.76.848-.608.203-1.221.341-1.84.416-.618.085-1.216.128-1.792.128-1.152 0-2.229-.187-3.232-.56-.992-.384-1.861-.944-2.608-1.68-.736-.7467-1.317-1.6693-1.744-2.768-.426-1.0987-.64-2.3734-.64-3.824 0-1.12.182-2.176.544-3.168.374-.992.907-1.856 1.6-2.592.694-.736 1.536-1.3173 2.528-1.744.992-.4373 2.112-.656 3.36-.656 1.056 0 2.027.1706 2.912.512.896.3306 1.664.816 2.304 1.456.651.64 1.152 1.4293 1.504 2.368.363.928.544 1.9893.544 3.184 0 .3306-.016.6027-.048.816s-.085.384-.16.512c-.074.128-.176.2186-.304.272-.128.0426-.293.064-.496.064z"/><path d="m202.983 87.896c-.118.1813-.24.3146-.368.4-.118.0746-.283.112-.496.112-.214 0-.432-.0533-.656-.16s-.475-.2187-.752-.336c-.278-.128-.598-.2454-.96-.352-.352-.1067-.763-.16-1.232-.16-.715 0-1.27.1493-1.664.448-.395.288-.592.672-.592 1.152 0 .3307.112.608.336.832s.517.4213.88.592c.373.16.794.3147 1.264.464.469.1387.949.2933 1.44.464.501.1706.986.368 1.456.592.469.224.885.5067 1.248.848.373.3307.672.736.896 1.216.224.4693.336 1.04.336 1.712 0 .8-.15 1.5413-.448 2.224-.288.672-.715 1.2533-1.28 1.744-.566.491-1.27.875-2.112 1.152-.843.277-1.814.416-2.912.416-.566 0-1.126-.053-1.68-.16-.555-.096-1.083-.235-1.584-.416-.502-.192-.971-.411-1.408-.656-.438-.2453-.816-.512-1.136-.8l1.024-1.648c.117-.192.261-.3414.432-.448.181-.1067.41-.16.688-.16.266 0 .512.0693.736.208.224.128.474.272.752.432.277.1493.602.2933.976.432.384.128.858.192 1.424.192.426 0 .794-.048 1.104-.144.309-.096.56-.224.752-.384.192-.1707.33-.3574.416-.56.096-.2134.144-.432.144-.656 0-.3627-.118-.656-.352-.88-.224-.2347-.523-.4373-.896-.608-.363-.1707-.784-.3253-1.264-.464s-.971-.2933-1.472-.464c-.491-.1707-.976-.3734-1.456-.608-.47-.2347-.891-.528-1.264-.88-.363-.3627-.662-.8054-.896-1.328-.224-.5227-.336-1.1574-.336-1.904 0-.6827.133-1.328.4-1.936.266-.6187.666-1.1627 1.2-1.632.533-.4694 1.194-.8427 1.984-1.12.8-.2773 1.722-.416 2.768-.416 1.173 0 2.24.192 3.2.576s1.749.8853 2.368 1.504z"/><path d="m211.747 84.504v16.496h-4.416v-16.496zm.528-4.688c0 .3733-.075.72-.224 1.04-.15.32-.352.6026-.608.848-.246.2453-.539.4373-.88.576-.331.1387-.688.208-1.072.208-.363 0-.71-.0693-1.04-.208-.32-.1387-.603-.3307-.848-.576-.246-.2454-.443-.528-.592-.848-.139-.32-.208-.6667-.208-1.04 0-.3734.069-.72.208-1.04.149-.3307.346-.6187.592-.864.245-.2453.528-.4373.848-.576.33-.1387.677-.208 1.04-.208.384 0 .741.0693 1.072.208.341.1387.634.3307.88.576.256.2453.458.5333.608.864.149.32.224.6666.224 1.04z"/><path d="m221.979 92.136c.907 0 1.574-.2294 2-.688.438-.4587.656-1.0507.656-1.776 0-.7574-.218-1.3494-.656-1.776-.426-.4374-1.093-.656-2-.656-.906 0-1.573.2186-2 .656-.426.4266-.64 1.0186-.64 1.776 0 .7146.214 1.3066.64 1.776.438.4586 1.104.688 2 .688zm4.176 9.536c0-.288-.09-.523-.272-.704-.181-.181-.426-.325-.736-.432-.298-.107-.656-.181-1.072-.224-.416-.053-.858-.091-1.328-.112-.469-.032-.954-.059-1.456-.08-.501-.021-.992-.059-1.472-.112-.373.224-.682.491-.928.8-.234.299-.352.64-.352 1.024 0 .267.059.512.176.736.128.224.336.416.624.576s.667.283 1.136.368c.47.096 1.056.144 1.76.144.726 0 1.339-.048 1.84-.144.502-.096.907-.235 1.216-.416.31-.171.528-.379.656-.624.139-.245.208-.512.208-.8zm4.384-16.624v1.616c0 .256-.074.4587-.224.608-.138.1493-.373.2613-.704.336l-1.344.272c.182.5226.272 1.0826.272 1.68 0 .8213-.17 1.5626-.512 2.224-.33.6506-.789 1.2106-1.376 1.68-.586.4586-1.28.816-2.08 1.072-.8.2453-1.664.368-2.592.368-.586 0-1.136-.048-1.648-.144-.448.2773-.672.5813-.672.912 0 .3093.15.5333.448.672.31.1387.71.24 1.2.304.502.0533 1.067.0907 1.696.112.64.0107 1.286.0427 1.936.096.662.0533 1.307.1493 1.936.288.64.128 1.206.3467 1.696.656.502.2987.902.6987 1.2 1.2.31.5013.464 1.147.464 1.936 0 .736-.181 1.451-.544 2.144-.362.693-.89 1.312-1.584 1.856-.682.544-1.525.981-2.528 1.312-1.002.331-2.144.496-3.424.496-1.269 0-2.373-.123-3.312-.368-.928-.235-1.701-.555-2.32-.96-.608-.395-1.061-.853-1.36-1.376-.298-.523-.448-1.067-.448-1.632 0-.736.224-1.36.672-1.872s1.067-.9227 1.856-1.232c-.416-.2347-.752-.5387-1.008-.912-.245-.384-.368-.88-.368-1.488 0-.4907.176-1.008.528-1.552.363-.544.918-.9974 1.664-1.36-.842-.448-1.509-1.0454-2-1.792-.49-.7574-.736-1.6374-.736-2.64 0-.8214.166-1.5627.496-2.224.342-.6614.811-1.2214 1.408-1.68.598-.4694 1.302-.8267 2.112-1.072.811-.2453 1.691-.368 2.64-.368 1.408 0 2.651.2773 3.728.832z"/><path d="m237.251 86.424c.331-.32.672-.6134 1.024-.88.363-.2667.742-.496 1.136-.688.406-.192.838-.3414 1.296-.448.47-.1067.976-.16 1.52-.16.896 0 1.691.1546 2.384.464.694.3093 1.275.7413 1.744 1.296.48.5546.838 1.216 1.072 1.984.246.768.368 1.6106.368 2.528v10.48h-4.4v-10.48c0-.9174-.213-1.6267-.64-2.128-.426-.512-1.056-.768-1.888-.768-.618 0-1.2.1333-1.744.4s-1.061.64-1.552 1.12v11.856h-4.416v-16.496h2.72c.555 0 .923.256 1.104.768z"/><path d="m251.008 98.68c0-.352.064-.6827.192-.992.138-.32.325-.592.56-.816.234-.2347.506-.416.816-.544.32-.1387.666-.208 1.04-.208.362 0 .704.0693 1.024.208.32.128.597.3093.832.544.234.224.416.496.544.816.138.3093.208.64.208.992 0 .3627-.07.6987-.208 1.008-.128.3093-.31.581-.544.816-.235.224-.512.4-.832.528s-.662.192-1.024.192c-.374 0-.72-.064-1.04-.192-.31-.128-.582-.304-.816-.528-.235-.235-.422-.5067-.56-.816-.128-.3093-.192-.6453-.192-1.008z"/></g></svg>