<svg fill="none" height="98" viewBox="0 0 598 98" width="598" xmlns="http://www.w3.org/2000/svg" xmlns:xlink="http://www.w3.org/1999/xlink"><clipPath id="a"><path d="m0 0h598v98h-598z"/></clipPath><g clip-path="url(#a)" fill="#121111"><path d="m31.3875 3.3525v32.6475h-6.795v-14.0625h-14.3775v14.0625h-6.795v-32.6475h6.795v13.86h14.3775v-13.86z"/><path d="m43.9021 12.8025v23.1975h-6.21v-23.1975zm.7425-6.5925c0 .525-.105 1.0125-.315 1.4625s-.495.8475-.855 1.1925c-.345.345-.7575.615-1.2375.81-.465.19501-.9675.2925-1.5075.2925-.51 0-.9975-.09749-1.4625-.2925-.45-.195-.8475-.465-1.1925-.81s-.6225-.7425-.8325-1.1925c-.195-.45-.2925-.9375-.2925-1.4625s.0975-1.0125.2925-1.4625c.21-.465.4875-.87.8325-1.215s.7425-.615 1.1925-.81c.465-.195.9525-.2925 1.4625-.2925.54 0 1.0425.0975 1.5075.2925.48.195.8925.465 1.2375.81.36.345.645.75.855 1.215.21.45.315.9375.315 1.4625z"/><path d="m49.629 41.535c-.165-.135-.285-.27-.36-.405-.06-.135-.09-.3-.09-.495 0-.135.045-.285.135-.45.105-.15.225-.2925.36-.4275.165-.18.3675-.405.6075-.675.24-.255.48-.5475.72-.8775.24-.315.4575-.6675.6525-1.0575.21-.39.3675-.8025.4725-1.2375-.495-.015-.945-.12-1.35-.315s-.75-.45-1.035-.765-.51-.6825-.675-1.1025c-.15-.435-.225-.9-.225-1.395 0-.45.0825-.87.2475-1.26s.3975-.7275.6975-1.0125c.315-.285.6825-.51 1.1025-.675.435-.165.915-.2475 1.44-.2475.615 0 1.1475.1125 1.5975.3375.465.21.8475.495 1.1475.855s.525.7875.675 1.2825c.15.48.225.99.225 1.53 0 .735-.1125 1.515-.3375 2.34-.225.81-.5625 1.6275-1.0125 2.4525s-1.005 1.6275-1.665 2.4075c-.645.795-1.395 1.515-2.25 2.16z"/><path d="m79.515 36h-6.795v-32.6475h6.795z"/><path d="m90.1455 1.1925c.765 1.23001 1.275 2.505 1.53 3.825.27 1.32.2925 2.62501.0675 3.915-.225 1.275-.6975 2.505-1.4175 3.69-.705 1.185-1.6575 2.25-2.8575 3.195l-1.9349-1.17c-.18-.105-.3076-.225-.3826-.36-.06-.15-.09-.2925-.09-.4275.015-.15.0525-.285.1125-.405.06-.135.135-.2475.225-.3375.285-.33.57-.7875.855-1.3725.3-.6.51-1.275.63-2.025.12-.765.1125-1.59-.0225-2.475-.1349-.885-.48-1.7775-1.035-2.6775-.3-.465-.3825-.87-.2475-1.215.135-.36.405-.6075.81-.7425z"/><path d="m96.4515 36v-23.1975h3.8255c.78 0 1.297.36 1.552 1.08l.36 1.5075c.405-.42.818-.81 1.238-1.17.435-.36.9-.6675 1.395-.9225.495-.27 1.027-.48 1.597-.63.585-.15 1.215-.225 1.89-.225 1.425 0 2.603.3825 3.533 1.1475.93.75 1.635 1.755 2.115 3.015.375-.735.832-1.365 1.372-1.89.555-.54 1.155-.975 1.8-1.305.66-.33 1.35-.57 2.07-.72.735-.165 1.47-.2475 2.205-.2475 1.305 0 2.46.195 3.465.585s1.845.9675 2.52 1.7325c.69.75 1.215 1.6725 1.575 2.7675s.54 2.34.54 3.735v14.7375h-6.21v-14.7375c0-2.715-1.162-4.0725-3.487-4.0725-.525 0-1.013.09-1.463.27-.435.165-.825.42-1.17.765-.33.345-.592.7725-.787 1.2825-.18.51-.27 1.095-.27 1.755v14.7375h-6.21v-14.7375c0-1.47-.293-2.5125-.878-3.1275-.57-.63-1.417-.945-2.542-.945-.72 0-1.403.1725-2.048.5175-.63.33-1.222.795-1.777 1.395v16.8975z"/><path d="m158.126 26.3025c-1.515.075-2.775.21-3.78.405-1.005.18-1.807.42-2.407.72-.585.3-1.005.645-1.26 1.035-.24.375-.36.7875-.36 1.2375 0 .9.247 1.5375.742 1.9125.51.375 1.215.5625 2.115.5625 1.035 0 1.928-.18 2.678-.54.765-.375 1.522-.9525 2.272-1.7325zm-12.645-10.2825c1.365-1.23 2.873-2.145 4.523-2.745 1.65-.615 3.435-.9225 5.355-.9225 1.38 0 2.61.225 3.69.675 1.095.45 2.017 1.08 2.767 1.89.765.795 1.35 1.7475 1.755 2.8575s.608 2.325.608 3.645v14.58h-2.835c-.585 0-1.035-.0825-1.35-.2475-.3-.165-.548-.51-.743-1.035l-.495-1.485c-.585.51-1.155.96-1.71 1.35-.54.39-1.102.72-1.687.99-.585.255-1.215.45-1.89.585-.66.135-1.403.2025-2.228.2025-1.02 0-1.95-.135-2.79-.405s-1.567-.6675-2.182-1.1925c-.6-.54-1.065-1.2075-1.395-2.0025s-.495-1.71-.495-2.745c0-.855.217-1.71.652-2.565s1.178-1.6275 2.228-2.3175c1.065-.705 2.475-1.2825 4.23-1.7325 1.77-.465 3.982-.7275 6.637-.7875v-1.1925c0-1.455-.307-2.52-.922-3.195-.615-.69-1.5-1.035-2.655-1.035-.855 0-1.568.105-2.138.315-.57.195-1.072.4125-1.507.6525-.42.225-.818.4425-1.193.6525-.375.195-.81.2925-1.305.2925-.435 0-.802-.105-1.102-.315-.285-.225-.525-.4875-.72-.7875z"/><path d="m182.293 36v-18.7425l-1.8-.315c-.465-.09-.848-.255-1.148-.495-.285-.24-.427-.585-.427-1.035v-2.475h3.375v-1.53c0-1.32.202-2.5125.607-3.5775.42-1.08 1.013-1.9875 1.778-2.7225.765-.75 1.702-1.3275 2.812-1.7325s2.363-.6075 3.758-.6075c.54 0 1.05.0375 1.53.1125.495.06.99.1575 1.485.2925l-.135 3.06c-.03.465-.233.7725-.608.9225-.36.13501-.765.20251-1.215.20251-.63 0-1.2.0675-1.71.20249-.495.135-.915.3675-1.26.69751-.345.315-.607.74999-.787 1.30499-.18.54-.27 1.215-.27 2.025v1.35h5.76v4.32h-5.558v18.7425z"/><path d="m203.186 16.6275c.735-1.32 1.583-2.3625 2.543-3.1275s2.085-1.1475 3.375-1.1475c1.05 0 1.905.2475 2.565.7425l-.405 4.59c-.075.3-.195.51-.36.63-.15.105-.36.1575-.63.1575-.24 0-.585-.03-1.035-.09-.45-.075-.87-.1125-1.26-.1125-.57 0-1.08.0825-1.53.2475-.435.165-.825.3975-1.17.6975s-.66.6675-.945 1.1025c-.27.435-.525.93-.765 1.485v14.1975h-6.21v-23.1975h3.667c.63 0 1.065.1125 1.305.3375s.413.615.518 1.17z"/><path d="m224.707 12.4425c1.74 0 3.322.2775 4.747.8325s2.648 1.35 3.668 2.385c1.02 1.02 1.807 2.265 2.362 3.735s.833 3.1275.833 4.9725-.278 3.51-.833 4.995c-.555 1.47-1.342 2.7225-2.362 3.7575s-2.243 1.83-3.668 2.385-3.007.8325-4.747.8325c-1.755 0-3.353-.2775-4.793-.8325-1.425-.555-2.647-1.35-3.667-2.385s-1.815-2.2875-2.385-3.7575c-.555-1.485-.833-3.15-.833-4.995s.278-3.5025.833-4.9725c.57-1.47 1.365-2.715 2.385-3.735 1.02-1.035 2.242-1.83 3.667-2.385 1.44-.555 3.038-.8325 4.793-.8325zm0 19.2375c1.77 0 3.082-.6075 3.937-1.8225.855-1.23 1.283-3.0525 1.283-5.4675 0-2.4-.428-4.2075-1.283-5.4225-.855-1.23-2.167-1.845-3.937-1.845-1.815 0-3.15.615-4.005 1.845-.855 1.215-1.283 3.0225-1.283 5.4225 0 2.415.428 4.2375 1.283 5.4675.855 1.215 2.19 1.8225 4.005 1.8225z"/><path d="m246.426 15.5025c.465-.45.945-.8625 1.44-1.2375.51-.375 1.042-.6975 1.597-.9675.57-.27 1.178-.48 1.823-.63.66-.15 1.372-.225 2.137-.225 1.26 0 2.378.2175 3.353.6525s1.792 1.0425 2.452 1.8225c.675.78 1.178 1.71 1.508 2.79.345 1.08.517 2.265.517 3.555v14.7375h-6.187v-14.7375c0-1.29-.3-2.2875-.9-2.9925-.6-.72-1.485-1.08-2.655-1.08-.87 0-1.688.1875-2.453.5625s-1.492.9-2.182 1.575v16.6725h-6.21v-23.1975h3.825c.78 0 1.297.36 1.552 1.08z"/><path d="m274.351 36.36c-1.05 0-1.98-.15-2.79-.45-.81-.315-1.493-.7575-2.048-1.3275s-.975-1.26-1.26-2.07-.427-1.725-.427-2.745v-12.51h-2.183c-.33 0-.615-.105-.855-.315-.225-.21-.337-.525-.337-.945v-2.43l3.712-.675 1.26-6.0075c.165-.675.623-1.0125 1.373-1.0125h3.24v7.065h5.985v4.32h-5.985v12.105c0 .645.15 1.155.45 1.53.315.375.757.5625 1.327.5625.3 0 .555-.03.765-.09.21-.075.39-.15.54-.225.15-.09.285-.165.405-.225.135-.075.27-.1125.405-.1125.18 0 .33.045.45.135.12.075.24.21.36.405l1.868 2.97c-.855.675-1.823 1.185-2.903 1.53s-2.197.5175-3.352.5175z"/><path d="m283.685 19.8225h11.88v5.085h-11.88z"/><path d="m315.75 21.6675c0-.645-.09-1.26-.27-1.845-.165-.585-.435-1.1025-.81-1.5525s-.848-.8025-1.418-1.0575c-.57-.27-1.252-.405-2.047-.405-1.485 0-2.648.42-3.488 1.26s-1.387 2.04-1.642 3.6zm-9.765 3.69c.195 2.175.81 3.765 1.845 4.77 1.05 1.005 2.415 1.5075 4.095 1.5075.855 0 1.59-.0975 2.205-.2925.63-.21 1.177-.435 1.642-.675.48-.255.908-.48 1.283-.675.39-.21.772-.315 1.147-.315.48 0 .855.18 1.125.54l1.8 2.25c-.66.765-1.387 1.4025-2.182 1.9125-.795.495-1.62.8925-2.475 1.1925-.855.285-1.718.48-2.588.585-.87.12-1.71.18-2.52.18-1.62 0-3.135-.2625-4.545-.7875-1.395-.54-2.617-1.3275-3.667-2.3625-1.035-1.05-1.853-2.3475-2.453-3.8925s-.9-3.3375-.9-5.3775c0-1.575.255-3.06.765-4.455.525-1.395 1.275-2.61 2.25-3.645s2.16-1.8525 3.555-2.4525c1.395-.615 2.97-.9225 4.725-.9225 1.485 0 2.85.24 4.095.72 1.26.465 2.34 1.1475 3.24 2.0475.915.9 1.62 2.01 2.115 3.33.51 1.305.765 2.7975.765 4.4775 0 .465-.022.8475-.067 1.1475s-.12.54-.225.72-.248.3075-.428.3825c-.18.06-.412.09-.697.09z"/><path d="m331.371 15.5025c.465-.45.945-.8625 1.44-1.2375.51-.375 1.042-.6975 1.597-.9675.57-.27 1.178-.48 1.823-.63.66-.15 1.372-.225 2.137-.225 1.26 0 2.377.2175 3.352.6525s1.793 1.0425 2.453 1.8225c.675.78 1.178 1.71 1.508 2.79.345 1.08.517 2.265.517 3.555v14.7375h-6.187v-14.7375c0-1.29-.3-2.2875-.9-2.9925-.6-.72-1.485-1.08-2.655-1.08-.87 0-1.688.1875-2.453.5625s-1.492.9-2.182 1.575v16.6725h-6.21v-23.1975h3.825c.78 0 1.297.36 1.552 1.08z"/><path d="m365.925 18.8325c-.585-.675-1.222-1.1475-1.912-1.4175-.675-.27-1.395-.405-2.16-.405-.75 0-1.433.1425-2.048.4275s-1.147.735-1.597 1.35c-.435.6-.773 1.3725-1.013 2.3175s-.36 2.07-.36 3.375c0 1.29.098 2.385.293 3.285s.472 1.6275.832 2.1825c.375.555.825.96 1.35 1.215.525.24 1.11.36 1.755.36 1.095 0 2.01-.2175 2.745-.6525.75-.435 1.455-1.05 2.115-1.845zm6.21-16.38v33.5475h-3.825c-.795 0-1.305-.36-1.53-1.08l-.517-2.025c-.465.51-.96.975-1.485 1.395-.51.42-1.065.7875-1.665 1.1025-.6.3-1.245.5325-1.935.6975s-1.44.2475-2.25.2475c-1.245 0-2.385-.2625-3.42-.7875s-1.935-1.29-2.7-2.295c-.75-1.02-1.335-2.265-1.755-3.735s-.63-3.15-.63-5.04c0-1.725.232-3.33.697-4.815.48-1.485 1.155-2.7675 2.025-3.8475s1.92-1.9275 3.15-2.5425 2.595-.9225 4.095-.9225c1.26 0 2.318.1875 3.173.5625.87.375 1.657.885 2.362 1.53v-11.9925z"/><path d="m403.212 18.8325c-.585-.675-1.223-1.1475-1.913-1.4175-.675-.27-1.395-.405-2.16-.405-.75 0-1.432.1425-2.047.4275s-1.148.735-1.598 1.35c-.435.6-.772 1.3725-1.012 2.3175s-.36 2.07-.36 3.375c0 1.29.097 2.385.292 3.285s.473 1.6275.833 2.1825c.375.555.825.96 1.35 1.215.525.24 1.11.36 1.755.36 1.095 0 2.01-.2175 2.745-.6525.75-.435 1.455-1.05 2.115-1.845zm6.21-16.38v33.5475h-3.825c-.795 0-1.305-.36-1.53-1.08l-.518-2.025c-.465.51-.96.975-1.485 1.395-.51.42-1.065.7875-1.665 1.1025-.6.3-1.245.5325-1.935.6975s-1.44.2475-2.25.2475c-1.245 0-2.385-.2625-3.42-.7875s-1.935-1.29-2.7-2.295c-.75-1.02-1.335-2.265-1.755-3.735s-.63-3.15-.63-5.04c0-1.725.233-3.33.698-4.815.48-1.485 1.155-2.7675 2.025-3.8475s1.92-1.9275 3.15-2.5425 2.595-.9225 4.095-.9225c1.26 0 2.317.1875 3.172.5625.87.375 1.658.885 2.363 1.53v-11.9925z"/><path d="m429.752 21.6675c0-.645-.09-1.26-.27-1.845-.165-.585-.435-1.1025-.81-1.5525s-.847-.8025-1.417-1.0575c-.57-.27-1.253-.405-2.048-.405-1.485 0-2.647.42-3.487 1.26s-1.388 2.04-1.643 3.6zm-9.765 3.69c.195 2.175.81 3.765 1.845 4.77 1.05 1.005 2.415 1.5075 4.095 1.5075.855 0 1.59-.0975 2.205-.2925.63-.21 1.178-.435 1.643-.675.48-.255.907-.48 1.282-.675.39-.21.773-.315 1.148-.315.48 0 .855.18 1.125.54l1.8 2.25c-.66.765-1.388 1.4025-2.183 1.9125-.795.495-1.62.8925-2.475 1.1925-.855.285-1.717.48-2.587.585-.87.12-1.71.18-2.52.18-1.62 0-3.135-.2625-4.545-.7875-1.395-.54-2.618-1.3275-3.668-2.3625-1.035-1.05-1.852-2.3475-2.452-3.8925s-.9-3.3375-.9-5.3775c0-1.575.255-3.06.765-4.455.525-1.395 1.275-2.61 2.25-3.645s2.16-1.8525 3.555-2.4525c1.395-.615 2.97-.9225 4.725-.9225 1.485 0 2.85.24 4.095.72 1.26.465 2.34 1.1475 3.24 2.0475.915.9 1.62 2.01 2.115 3.33.51 1.305.765 2.7975.765 4.4775 0 .465-.023.8475-.068 1.1475s-.12.54-.225.72-.247.3075-.427.3825c-.18.06-.413.09-.698.09z"/><path d="m460.351 12.8025-9.113 23.1975h-5.625l-9.112-23.1975h5.152c.45 0 .825.105 1.125.315s.51.48.63.81l3.893 11.475c.255.78.48 1.545.675 2.295.195.735.367 1.4775.517 2.2275.165-.75.345-1.4925.54-2.2275.21-.75.45-1.515.72-2.295l4.028-11.475c.105-.33.307-.6.607-.81s.653-.315 1.058-.315z"/><path d="m477.41 21.6675c0-.645-.09-1.26-.27-1.845-.165-.585-.435-1.1025-.81-1.5525s-.847-.8025-1.417-1.0575c-.57-.27-1.253-.405-2.048-.405-1.485 0-2.647.42-3.487 1.26s-1.388 2.04-1.643 3.6zm-9.765 3.69c.195 2.175.81 3.765 1.845 4.77 1.05 1.005 2.415 1.5075 4.095 1.5075.855 0 1.59-.0975 2.205-.2925.63-.21 1.178-.435 1.643-.675.48-.255.907-.48 1.282-.675.39-.21.773-.315 1.148-.315.48 0 .855.18 1.125.54l1.8 2.25c-.66.765-1.388 1.4025-2.183 1.9125-.795.495-1.62.8925-2.475 1.1925-.855.285-1.717.48-2.587.585-.87.12-1.71.18-2.52.18-1.62 0-3.135-.2625-4.545-.7875-1.395-.54-2.618-1.3275-3.668-2.3625-1.035-1.05-1.852-2.3475-2.452-3.8925s-.9-3.3375-.9-5.3775c0-1.575.255-3.06.765-4.455.525-1.395 1.275-2.61 2.25-3.645s2.16-1.8525 3.555-2.4525c1.395-.615 2.97-.9225 4.725-.9225 1.485 0 2.85.24 4.095.72 1.26.465 2.34 1.1475 3.24 2.0475.915.9 1.62 2.01 2.115 3.33.51 1.305.765 2.7975.765 4.4775 0 .465-.023.8475-.068 1.1475s-.12.54-.225.72-.247.3075-.427.3825c-.18.06-.413.09-.698.09z"/><path d="m493.526 2.4525v33.5475h-6.21v-33.5475z"/><path d="m509.61 12.4425c1.74 0 3.322.2775 4.747.8325s2.648 1.35 3.668 2.385c1.02 1.02 1.807 2.265 2.362 3.735s.833 3.1275.833 4.9725-.278 3.51-.833 4.995c-.555 1.47-1.342 2.7225-2.362 3.7575s-2.243 1.83-3.668 2.385-3.007.8325-4.747.8325c-1.755 0-3.353-.2775-4.793-.8325-1.425-.555-2.647-1.35-3.667-2.385s-1.815-2.2875-2.385-3.7575c-.555-1.485-.833-3.15-.833-4.995s.278-3.5025.833-4.9725c.57-1.47 1.365-2.715 2.385-3.735 1.02-1.035 2.242-1.83 3.667-2.385 1.44-.555 3.038-.8325 4.793-.8325zm0 19.2375c1.77 0 3.082-.6075 3.937-1.8225.855-1.23 1.283-3.0525 1.283-5.4675 0-2.4-.428-4.2075-1.283-5.4225-.855-1.23-2.167-1.845-3.937-1.845-1.815 0-3.15.615-4.005 1.845-.855 1.215-1.283 3.0225-1.283 5.4225 0 2.415.428 4.2375 1.283 5.4675.855 1.215 2.19 1.8225 4.005 1.8225z"/><path d="m531.779 29.88c.585.675 1.215 1.1475 1.89 1.4175.69.27 1.425.405 2.205.405.75 0 1.432-.1425 2.047-.4275s1.14-.7275 1.575-1.3275c.45-.615.795-1.395 1.035-2.34s.36-2.07.36-3.375c0-1.29-.105-2.385-.315-3.285-.195-.9-.48-1.6275-.855-2.1825-.36-.555-.802-.9525-1.327-1.1925-.525-.255-1.11-.3825-1.755-.3825-1.095 0-2.018.2175-2.768.6525-.735.42-1.432 1.0425-2.092 1.8675zm-.36-14.04c.465-.51.96-.975 1.485-1.395.525-.435 1.087-.8025 1.687-1.1025.6-.315 1.245-.555 1.935-.72.69-.18 1.44-.27 2.25-.27 1.245 0 2.385.27 3.42.81 1.05.525 1.95 1.2975 2.7 2.3175.75 1.005 1.335 2.2425 1.755 3.7125s.63 3.15.63 5.04c0 1.74-.24 3.3525-.72 4.8375-.465 1.47-1.132 2.745-2.002 3.825s-1.92 1.9275-3.15 2.5425c-1.215.6-2.573.9-4.073.9-1.26 0-2.332-.1875-3.217-.5625-.87-.375-1.65-.885-2.34-1.53v9.2475h-6.21v-30.69h3.825c.78 0 1.297.36 1.552 1.08z"/><path d="m566.442 21.6675c0-.645-.09-1.26-.27-1.845-.165-.585-.435-1.1025-.81-1.5525s-.848-.8025-1.418-1.0575c-.57-.27-1.252-.405-2.047-.405-1.485 0-2.648.42-3.488 1.26s-1.387 2.04-1.642 3.6zm-9.765 3.69c.195 2.175.81 3.765 1.845 4.77 1.05 1.005 2.415 1.5075 4.095 1.5075.855 0 1.59-.0975 2.205-.2925.63-.21 1.177-.435 1.642-.675.48-.255.908-.48 1.283-.675.39-.21.772-.315 1.147-.315.48 0 .855.18 1.125.54l1.8 2.25c-.66.765-1.387 1.4025-2.182 1.9125-.795.495-1.62.8925-2.475 1.1925-.855.285-1.718.48-2.588.585-.87.12-1.71.18-2.52.18-1.62 0-3.135-.2625-4.545-.7875-1.395-.54-2.617-1.3275-3.667-2.3625-1.035-1.05-1.853-2.3475-2.453-3.8925s-.9-3.3375-.9-5.3775c0-1.575.255-3.06.765-4.455.525-1.395 1.275-2.61 2.25-3.645s2.16-1.8525 3.555-2.4525c1.395-.615 2.97-.9225 4.725-.9225 1.485 0 2.85.24 4.095.72 1.26.465 2.34 1.1475 3.24 2.0475.915.9 1.62 2.01 2.115 3.33.51 1.305.765 2.7975.765 4.4775 0 .465-.022.8475-.067 1.1475s-.12.54-.225.72-.248.3075-.428.3825c-.18.06-.412.09-.697.09z"/><path d="m582.13 16.6275c.735-1.32 1.583-2.3625 2.543-3.1275s2.085-1.1475 3.375-1.1475c1.05 0 1.905.2475 2.565.7425l-.405 4.59c-.075.3-.195.51-.36.63-.15.105-.36.1575-.63.1575-.24 0-.585-.03-1.035-.09-.45-.075-.87-.1125-1.26-.1125-.57 0-1.08.0825-1.53.2475-.435.165-.825.3975-1.17.6975s-.66.6675-.945 1.1025c-.27.435-.525.93-.765 1.485v14.1975h-6.21v-23.1975h3.667c.63 0 1.065.1125 1.305.3375s.413.615.518 1.17z"/><path d="m36.1575 66.8025-7.29 23.1975h-5.0175c-.255 0-.4875-.0825-.6975-.2475-.195-.165-.345-.4425-.45-.8325l-3.78-12.555c-.15-.48-.285-.9525-.405-1.4175-.105-.48-.2025-.96-.2925-1.44-.105.48-.2175.9675-.3375 1.4625-.105.48-.2325.96-.3825 1.44l-3.825 12.51c-.21.72-.66 1.08-1.35 1.08h-4.77l-7.290003-23.1975h4.950003c.45 0 .825.105 1.125.315.315.21.525.48.63.81l2.8575 11.475c.18.735.3375 1.4475.4725 2.1375s.2625 1.3725.3825 2.0475c.18-.675.3675-1.3575.5625-2.0475.21-.69.4275-1.4025.6525-2.1375l3.3975-11.52c.105-.315.3075-.5775.6075-.7875s.6525-.315 1.0575-.315h2.745c.435 0 .8025.105 1.1025.315.315.21.525.4725.63.7875l3.285 11.52c.21.72.4125 1.4325.6075 2.1375.195.69.375 1.3875.54 2.0925.12-.69.2475-1.38.3825-2.07.15-.705.3225-1.425.5175-2.16l2.9925-11.475c.105-.33.3075-.6.6075-.81s.6525-.315 1.0575-.315z"/><path d="m45.6557 69.075c.435-.39.885-.7425 1.35-1.0575.48-.33.9825-.6075 1.5075-.8325.54-.24 1.11-.42 1.71-.54.615-.135 1.275-.2025 1.98-.2025 1.26 0 2.3775.2175 3.3525.6525s1.7925 1.0425 2.4525 1.8225c.675.78 1.1775 1.71 1.5075 2.79.345 1.08.5175 2.265.5175 3.555v14.7375h-6.1875v-14.7375c0-1.29-.3-2.2875-.9-2.9925-.6-.72-1.485-1.08-2.655-1.08-.87 0-1.6875.1875-2.4525.5625s-1.4925.9-2.1825 1.575v16.6725h-6.21v-33.5475h6.21z"/><path d="m75.8904 66.4425c1.74 0 3.3225.2775 4.7475.8325s2.6475 1.35 3.6675 2.385c1.02 1.02 1.8075 2.265 2.3625 3.735s.8325 3.1275.8325 4.9725-.2775 3.51-.8325 4.995c-.555 1.47-1.3425 2.7225-2.3625 3.7575s-2.2425 1.83-3.6675 2.385-3.0075.8325-4.7475.8325c-1.755 0-3.3525-.2775-4.7925-.8325-1.425-.555-2.6475-1.35-3.6675-2.385s-1.815-2.2875-2.385-3.7575c-.555-1.485-.8325-3.15-.8325-4.995s.2775-3.5025.8325-4.9725c.57-1.47 1.365-2.715 2.385-3.735 1.02-1.035 2.2425-1.83 3.6675-2.385 1.44-.555 3.0375-.8325 4.7925-.8325zm0 19.2375c1.77 0 3.0825-.6075 3.9375-1.8225.855-1.23 1.2825-3.0525 1.2825-5.4675 0-2.4-.4275-4.2075-1.2825-5.4225-.855-1.23-2.1675-1.845-3.9375-1.845-1.815 0-3.15.615-4.005 1.845-.855 1.215-1.2825 3.0225-1.2825 5.4225 0 2.415.4275 4.2375 1.2825 5.4675.855 1.215 2.19 1.8225 4.005 1.8225z"/><path d="m109.233 56.4525v33.5475h-6.21v-33.5475z"/><path d="m125.317 66.4425c1.74 0 3.322.2775 4.747.8325s2.648 1.35 3.668 2.385c1.02 1.02 1.807 2.265 2.362 3.735s.833 3.1275.833 4.9725-.278 3.51-.833 4.995c-.555 1.47-1.342 2.7225-2.362 3.7575s-2.243 1.83-3.668 2.385-3.007.8325-4.747.8325c-1.755 0-3.353-.2775-4.793-.8325-1.425-.555-2.647-1.35-3.667-2.385s-1.815-2.2875-2.385-3.7575c-.555-1.485-.833-3.15-.833-4.995s.278-3.5025.833-4.9725c.57-1.47 1.365-2.715 2.385-3.735 1.02-1.035 2.242-1.83 3.667-2.385 1.44-.555 3.038-.8325 4.793-.8325zm0 19.2375c1.77 0 3.082-.6075 3.937-1.8225.855-1.23 1.283-3.0525 1.283-5.4675 0-2.4-.428-4.2075-1.283-5.4225-.855-1.23-2.167-1.845-3.937-1.845-1.815 0-3.15.615-4.005 1.845-.855 1.215-1.283 3.0225-1.283 5.4225 0 2.415.428 4.2375 1.283 5.4675.855 1.215 2.19 1.8225 4.005 1.8225z"/><path d="m161.881 66.8025-9.112 23.1975h-5.625l-9.113-23.1975h5.153c.45 0 .825.105 1.125.315s.51.48.63.81l3.892 11.475c.255.78.48 1.545.675 2.295.195.735.368 1.4775.518 2.2275.165-.75.345-1.4925.54-2.2275.21-.75.45-1.515.72-2.295l4.027-11.475c.105-.33.308-.6.608-.81s.652-.315 1.057-.315z"/><path d="m178.941 75.6675c0-.645-.09-1.26-.27-1.845-.165-.585-.435-1.1025-.81-1.5525s-.848-.8025-1.418-1.0575c-.57-.27-1.252-.405-2.047-.405-1.485 0-2.648.42-3.488 1.26s-1.387 2.04-1.642 3.6zm-9.765 3.69c.195 2.175.81 3.765 1.845 4.77 1.05 1.005 2.415 1.5075 4.095 1.5075.855 0 1.59-.0975 2.205-.2925.63-.21 1.177-.435 1.642-.675.48-.255.908-.48 1.283-.675.39-.21.772-.315 1.147-.315.48 0 .855.18 1.125.54l1.8 2.25c-.66.765-1.387 1.4025-2.182 1.9125-.795.495-1.62.8925-2.475 1.1925-.855.285-1.718.48-2.588.585-.87.12-1.71.18-2.52.18-1.62 0-3.135-.2625-4.545-.7875-1.395-.54-2.617-1.3275-3.667-2.3625-1.035-1.05-1.853-2.3475-2.453-3.8925s-.9-3.3375-.9-5.3775c0-1.575.255-3.06.765-4.455.525-1.395 1.275-2.61 2.25-3.645s2.16-1.8525 3.555-2.4525c1.395-.615 2.97-.9225 4.725-.9225 1.485 0 2.85.24 4.095.72 1.26.465 2.34 1.1475 3.24 2.0475.915.9 1.62 2.01 2.115 3.33.51 1.305.765 2.7975.765 4.4775 0 .465-.022.8475-.067 1.1475s-.12.54-.225.72-.248.3075-.428.3825c-.18.06-.412.09-.697.09z"/><path d="m203.224 71.5725c-.165.255-.337.4425-.517.5625-.165.105-.398.1575-.698.1575s-.607-.075-.922-.225-.668-.3075-1.058-.4725c-.39-.18-.84-.345-1.35-.495-.495-.15-1.072-.225-1.732-.225-1.005 0-1.785.21-2.34.63-.555.405-.833.945-.833 1.62 0 .465.158.855.473 1.17s.727.5925 1.237.8325c.525.225 1.118.4425 1.778.6525.66.195 1.335.4125 2.025.6525.705.24 1.387.5175 2.047.8325s1.245.7125 1.755 1.1925c.525.465.945 1.035 1.26 1.71.315.66.473 1.4625.473 2.4075 0 1.125-.21 2.1675-.63 3.1275-.405.945-1.005 1.7625-1.8 2.4525s-1.785 1.23-2.97 1.62-2.55.585-4.095.585c-.795 0-1.583-.075-2.363-.225-.78-.135-1.522-.33-2.227-.585-.705-.27-1.365-.5775-1.98-.9225s-1.148-.72-1.598-1.125l1.44-2.3175c.165-.27.368-.48.608-.63.255-.15.577-.225.967-.225.375 0 .72.0975 1.035.2925.315.18.668.3825 1.058.6075.39.21.847.4125 1.372.6075.54.18 1.208.27 2.003.27.6 0 1.117-.0675 1.552-.2025s.788-.315 1.058-.54c.27-.24.465-.5025.585-.7875.135-.3.202-.6075.202-.9225 0-.51-.165-.9225-.495-1.2375-.315-.33-.735-.615-1.26-.855-.51-.24-1.102-.4575-1.777-.6525s-1.365-.4125-2.07-.6525c-.69-.24-1.373-.525-2.048-.855-.66-.33-1.252-.7425-1.777-1.2375-.51-.51-.93-1.1325-1.26-1.8675-.315-.735-.473-1.6275-.473-2.6775 0-.96.188-1.8675.563-2.7225.375-.87.937-1.635 1.687-2.295s1.68-1.185 2.79-1.575c1.125-.39 2.423-.585 3.893-.585 1.65 0 3.15.27 4.5.81s2.46 1.245 3.33 2.115z"/><path d="m234.62 72.8325c-.585-.675-1.222-1.1475-1.912-1.4175-.675-.27-1.395-.405-2.16-.405-.75 0-1.433.1425-2.048.4275s-1.147.735-1.597 1.35c-.435.6-.773 1.3725-1.013 2.3175s-.36 2.07-.36 3.375c0 1.29.098 2.385.293 3.285s.472 1.6275.832 2.1825c.375.555.825.96 1.35 1.215.525.24 1.11.36 1.755.36 1.095 0 2.01-.2175 2.745-.6525.75-.435 1.455-1.05 2.115-1.845zm6.21-16.38v33.5475h-3.825c-.795 0-1.305-.36-1.53-1.08l-.517-2.025c-.465.51-.96.975-1.485 1.395-.51.42-1.065.7875-1.665 1.1025-.6.3-1.245.5325-1.935.6975s-1.44.2475-2.25.2475c-1.245 0-2.385-.2625-3.42-.7875s-1.935-1.29-2.7-2.295c-.75-1.02-1.335-2.265-1.755-3.735s-.63-3.15-.63-5.04c0-1.725.232-3.33.697-4.815.48-1.485 1.155-2.7675 2.025-3.8475s1.92-1.9275 3.15-2.5425 2.595-.9225 4.095-.9225c1.26 0 2.318.1875 3.173.5625.87.375 1.657.885 2.362 1.53v-11.9925z"/><path d="m261.161 75.6675c0-.645-.09-1.26-.27-1.845-.165-.585-.435-1.1025-.81-1.5525s-.848-.8025-1.418-1.0575c-.57-.27-1.252-.405-2.047-.405-1.485 0-2.648.42-3.488 1.26s-1.387 2.04-1.642 3.6zm-9.765 3.69c.195 2.175.81 3.765 1.845 4.77 1.05 1.005 2.415 1.5075 4.095 1.5075.855 0 1.59-.0975 2.205-.2925.63-.21 1.177-.435 1.642-.675.48-.255.908-.48 1.283-.675.39-.21.772-.315 1.147-.315.48 0 .855.18 1.125.54l1.8 2.25c-.66.765-1.387 1.4025-2.182 1.9125-.795.495-1.62.8925-2.475 1.1925-.855.285-1.718.48-2.588.585-.87.12-1.71.18-2.52.18-1.62 0-3.135-.2625-4.545-.7875-1.395-.54-2.617-1.3275-3.667-2.3625-1.035-1.05-1.853-2.3475-2.453-3.8925s-.9-3.3375-.9-5.3775c0-1.575.255-3.06.765-4.455.525-1.395 1.275-2.61 2.25-3.645s2.16-1.8525 3.555-2.4525c1.395-.615 2.97-.9225 4.725-.9225 1.485 0 2.85.24 4.095.72 1.26.465 2.34 1.1475 3.24 2.0475.915.9 1.62 2.01 2.115 3.33.51 1.305.765 2.7975.765 4.4775 0 .465-.022.8475-.067 1.1475s-.12.54-.225.72-.248.3075-.428.3825c-.18.06-.412.09-.697.09z"/><path d="m285.444 71.5725c-.165.255-.337.4425-.517.5625-.165.105-.398.1575-.698.1575s-.607-.075-.922-.225-.668-.3075-1.058-.4725c-.39-.18-.84-.345-1.35-.495-.495-.15-1.072-.225-1.732-.225-1.005 0-1.785.21-2.34.63-.555.405-.833.945-.833 1.62 0 .465.158.855.473 1.17s.727.5925 1.237.8325c.525.225 1.118.4425 1.778.6525.66.195 1.335.4125 2.025.6525.705.24 1.387.5175 2.047.8325s1.245.7125 1.755 1.1925c.525.465.945 1.035 1.26 1.71.315.66.473 1.4625.473 2.4075 0 1.125-.21 2.1675-.63 3.1275-.405.945-1.005 1.7625-1.8 2.4525s-1.785 1.23-2.97 1.62-2.55.585-4.095.585c-.795 0-1.583-.075-2.363-.225-.78-.135-1.522-.33-2.227-.585-.705-.27-1.365-.5775-1.98-.9225s-1.148-.72-1.598-1.125l1.44-2.3175c.165-.27.368-.48.608-.63.255-.15.577-.225.967-.225.375 0 .72.0975 1.035.2925.315.18.668.3825 1.058.6075.39.21.847.4125 1.372.6075.54.18 1.208.27 2.003.27.6 0 1.117-.0675 1.552-.2025s.788-.315 1.058-.54c.27-.24.465-.5025.585-.7875.135-.3.202-.6075.202-.9225 0-.51-.165-.9225-.495-1.2375-.315-.33-.735-.615-1.26-.855-.51-.24-1.102-.4575-1.777-.6525s-1.365-.4125-2.07-.6525c-.69-.24-1.373-.525-2.048-.855-.66-.33-1.252-.7425-1.777-1.2375-.51-.51-.93-1.1325-1.26-1.8675-.315-.735-.473-1.6275-.473-2.6775 0-.96.188-1.8675.563-2.7225.375-.87.937-1.635 1.687-2.295s1.68-1.185 2.79-1.575c1.125-.39 2.423-.585 3.893-.585 1.65 0 3.15.27 4.5.81s2.46 1.245 3.33 2.115z"/><path d="m297.769 66.8025v23.1975h-6.21v-23.1975zm.742-6.5925c0 .525-.105 1.0125-.315 1.4625s-.495.8475-.855 1.1925c-.345.345-.757.615-1.237.81-.465.195-.968.2925-1.508.2925-.51 0-.997-.0975-1.462-.2925-.45-.195-.848-.465-1.193-.81s-.622-.7425-.832-1.1925c-.195-.45-.293-.9375-.293-1.4625s.098-1.0125.293-1.4625c.21-.465.487-.87.832-1.215s.743-.615 1.193-.81c.465-.195.952-.2925 1.462-.2925.54 0 1.043.0975 1.508.2925.48.195.892.465 1.237.81.36.345.645.75.855 1.215.21.45.315.9375.315 1.4625z"/><path d="m312.158 77.535c1.275 0 2.213-.3225 2.813-.9675.615-.645.922-1.4775.922-2.4975 0-1.065-.307-1.8975-.922-2.4975-.6-.615-1.538-.9225-2.813-.9225s-2.212.3075-2.812.9225c-.6.6-.9 1.4325-.9 2.4975 0 1.005.3 1.8375.9 2.4975.615.645 1.552.9675 2.812.9675zm5.873 13.41c0-.405-.128-.735-.383-.99s-.6-.4575-1.035-.6075c-.42-.15-.922-.255-1.507-.315-.585-.075-1.208-.1275-1.868-.1575-.66-.045-1.342-.0825-2.047-.1125s-1.395-.0825-2.07-.1575c-.525.315-.96.69-1.305 1.125-.33.42-.495.9-.495 1.44 0 .375.082.72.247 1.035.18.315.473.585.878.81s.937.3975 1.597.5175c.66.135 1.485.2025 2.475.2025 1.02 0 1.883-.0675 2.588-.2025s1.275-.33 1.71-.585c.435-.24.742-.5325.922-.8775.195-.345.293-.72.293-1.125zm6.165-23.3775v2.2725c0 .36-.105.645-.315.855-.195.21-.525.3675-.99.4725l-1.89.3825c.255.735.382 1.5225.382 2.3625 0 1.155-.24 2.1975-.72 3.1275-.465.915-1.11 1.7025-1.935 2.3625-.825.645-1.8 1.1475-2.925 1.5075-1.125.345-2.34.5175-3.645.5175-.825 0-1.597-.0675-2.317-.2025-.63.39-.945.8175-.945 1.2825 0 .435.21.75.63.945.435.195.997.3375 1.687.4275.705.075 1.5.1275 2.385.1575.9.015 1.808.06 2.723.135.93.075 1.837.21 2.722.405.9.18 1.695.4875 2.385.9225.705.42 1.268.9825 1.688 1.6875.435.705.652 1.6125.652 2.7225 0 1.035-.255 2.04-.765 3.015s-1.252 1.845-2.227 2.61c-.96.765-2.145 1.38-3.555 1.845s-3.015.6975-4.815.6975c-1.785 0-3.338-.1725-4.658-.5175-1.305-.33-2.392-.78-3.262-1.35-.855-.555-1.493-1.2-1.913-1.935s-.63-1.5-.63-2.295c0-1.035.315-1.9125.945-2.6325s1.5-1.2975 2.61-1.7325c-.585-.33-1.057-.7575-1.417-1.2825-.345-.54-.518-1.2375-.518-2.0925 0-.69.248-1.4175.743-2.1825.51-.765 1.29-1.4025 2.34-1.9125-1.185-.63-2.123-1.47-2.813-2.52-.69-1.065-1.035-2.3025-1.035-3.7125 0-1.155.233-2.1975.698-3.1275.48-.93 1.14-1.7175 1.98-2.3625.84-.66 1.83-1.1625 2.97-1.5075s2.377-.5175 3.712-.5175c1.98 0 3.728.39 5.243 1.17z"/><path d="m333.635 69.5025c.465-.45.945-.8625 1.44-1.2375.51-.375 1.042-.6975 1.597-.9675.57-.27 1.178-.48 1.823-.63.66-.15 1.372-.225 2.137-.225 1.26 0 2.378.2175 3.353.6525s1.792 1.0425 2.452 1.8225c.675.78 1.178 1.71 1.508 2.79.345 1.08.517 2.265.517 3.555v14.7375h-6.187v-14.7375c0-1.29-.3-2.2875-.9-2.9925-.6-.72-1.485-1.08-2.655-1.08-.87 0-1.688.1875-2.453.5625s-1.492.9-2.182 1.575v16.6725h-6.21v-23.1975h3.825c.78 0 1.297.36 1.552 1.08z"/><path d="m352.979 86.7375c0-.495.09-.96.27-1.395.195-.45.458-.8325.788-1.1475.33-.33.712-.585 1.147-.765.45-.195.938-.2925 1.463-.2925.51 0 .99.0975 1.44.2925.45.18.84.435 1.17.765.33.315.585.6975.765 1.1475.195.435.292.9.292 1.395 0 .51-.097.9825-.292 1.4175-.18.435-.435.8175-.765 1.1475-.33.315-.72.5625-1.17.7425s-.93.27-1.44.27c-.525 0-1.013-.09-1.463-.27-.435-.18-.817-.4275-1.147-.7425-.33-.33-.593-.7125-.788-1.1475-.18-.435-.27-.9075-.27-1.4175z"/></g></svg>