<svg width="598" height="98" viewBox="0 0 598 98" fill="none" xmlns="http://www.w3.org/2000/svg">
<path d="M31.32 35H23.67V21.14H10.35V35H2.7V2.2175H10.35V15.92H23.67V2.2175H31.32V35ZM44.3637 11.6675V35H37.3887V11.6675H44.3637ZM45.1737 5.2775C45.1737 5.8325 45.0612 6.3575 44.8362 6.8525C44.6112 7.3325 44.3037 7.76 43.9137 8.135C43.5237 8.495 43.0662 8.7875 42.5412 9.0125C42.0312 9.2225 41.4837 9.3275 40.8987 9.3275C40.3287 9.3275 39.7962 9.2225 39.3012 9.0125C38.8062 8.7875 38.3637 8.495 37.9737 8.135C37.5987 7.76 37.2987 7.3325 37.0737 6.8525C36.8637 6.3575 36.7587 5.8325 36.7587 5.2775C36.7587 4.7075 36.8637 4.175 37.0737 3.68C37.2987 3.185 37.5987 2.75 37.9737 2.375C38.3637 2 38.8062 1.7075 39.3012 1.4975C39.7962 1.2875 40.3287 1.1825 40.8987 1.1825C41.4837 1.1825 42.0312 1.2875 42.5412 1.4975C43.0662 1.7075 43.5237 2 43.9137 2.375C44.3037 2.75 44.6112 3.185 44.8362 3.68C45.0612 4.175 45.1737 4.7075 45.1737 5.2775ZM49.2757 31.04C49.2757 30.56 49.3657 30.1175 49.5457 29.7125C49.7257 29.2925 49.9807 28.9325 50.3107 28.6325C50.6557 28.3175 51.0532 28.07 51.5032 27.89C51.9682 27.71 52.4857 27.62 53.0557 27.62C53.7307 27.62 54.3157 27.74 54.8107 27.98C55.3057 28.205 55.7182 28.52 56.0482 28.925C56.3782 29.315 56.6182 29.7725 56.7682 30.2975C56.9332 30.8075 57.0157 31.3475 57.0157 31.9175C57.0157 32.6675 56.8957 33.47 56.6557 34.325C56.4157 35.165 56.0557 36.0125 55.5757 36.8675C55.1107 37.7225 54.5257 38.5625 53.8207 39.3875C53.1157 40.2125 52.3057 40.9625 51.3907 41.6375L50.1757 40.5575C50.0107 40.3925 49.8832 40.235 49.7932 40.085C49.7182 39.95 49.6807 39.7775 49.6807 39.5675C49.6807 39.4175 49.7332 39.2525 49.8382 39.0725C49.9432 38.9075 50.0707 38.7575 50.2207 38.6225C50.4007 38.4425 50.6107 38.225 50.8507 37.97C51.0907 37.715 51.3307 37.43 51.5707 37.115C51.8107 36.8 52.0282 36.455 52.2232 36.08C52.4332 35.705 52.5907 35.3075 52.6957 34.8875C52.1707 34.8425 51.6982 34.715 51.2782 34.505C50.8582 34.295 50.4982 34.0175 50.1982 33.6725C49.9132 33.3275 49.6882 32.9375 49.5232 32.5025C49.3582 32.0525 49.2757 31.565 49.2757 31.04ZM79.0066 35H71.3566V2.2175H79.0066V35ZM90.4507 0.102497C91.0507 1.0475 91.4932 1.9925 91.7782 2.9375C92.0782 3.8825 92.2282 4.82 92.2282 5.75C92.2282 7.355 91.8082 8.8925 90.9682 10.3625C90.1282 11.8325 88.8907 13.19 87.2557 14.435L85.0507 13.13C84.8707 13.01 84.7357 12.8825 84.6457 12.7475C84.5707 12.5975 84.5332 12.4475 84.5332 12.2975C84.5332 12.1325 84.5707 11.975 84.6457 11.825C84.7207 11.675 84.8107 11.5475 84.9157 11.4425C85.0807 11.2625 85.2607 11.045 85.4557 10.79C85.6657 10.52 85.8607 10.2125 86.0407 9.8675C86.2207 9.5225 86.3707 9.1325 86.4907 8.6975C86.6257 8.2625 86.6932 7.7975 86.6932 7.3025C86.6932 6.7625 86.5957 6.185 86.4007 5.57C86.2207 4.955 85.9132 4.295 85.4782 3.59C85.3282 3.35 85.2532 3.11 85.2532 2.87C85.2532 2.6 85.3432 2.36 85.5232 2.15C85.7032 1.94 85.9507 1.775 86.2657 1.655L90.4507 0.102497ZM96.6305 35V11.6675H100.95C101.385 11.6675 101.745 11.765 102.03 11.96C102.33 12.155 102.54 12.4475 102.66 12.8375L103.043 14.0975C103.433 13.6925 103.838 13.325 104.258 12.995C104.678 12.65 105.128 12.3575 105.608 12.1175C106.103 11.8625 106.628 11.6675 107.183 11.5325C107.753 11.3825 108.375 11.3075 109.05 11.3075C110.46 11.3075 111.623 11.675 112.538 12.41C113.468 13.13 114.173 14.0975 114.653 15.3125C115.043 14.5925 115.515 13.9775 116.07 13.4675C116.64 12.9575 117.248 12.545 117.893 12.23C118.553 11.915 119.243 11.6825 119.963 11.5325C120.698 11.3825 121.425 11.3075 122.145 11.3075C123.48 11.3075 124.665 11.51 125.7 11.915C126.735 12.305 127.598 12.8825 128.288 13.6475C128.993 14.3975 129.525 15.3275 129.885 16.4375C130.245 17.5325 130.425 18.7775 130.425 20.1725V35H123.45V20.1725C123.45 17.7575 122.415 16.55 120.345 16.55C119.4 16.55 118.613 16.865 117.983 17.495C117.368 18.11 117.06 19.0025 117.06 20.1725V35H110.085V20.1725C110.085 18.8375 109.823 17.9 109.298 17.36C108.773 16.82 108 16.55 106.98 16.55C106.35 16.55 105.75 16.6925 105.18 16.9775C104.625 17.2625 104.1 17.645 103.605 18.125V35H96.6305ZM161.101 35C160.441 35 159.939 34.91 159.594 34.73C159.264 34.55 158.986 34.175 158.761 33.605L158.266 32.3225C157.681 32.8175 157.119 33.2525 156.579 33.6275C156.039 34.0025 155.476 34.325 154.891 34.595C154.321 34.85 153.706 35.0375 153.046 35.1575C152.401 35.2925 151.681 35.36 150.886 35.36C149.821 35.36 148.854 35.225 147.984 34.955C147.114 34.67 146.371 34.2575 145.756 33.7175C145.156 33.1775 144.691 32.51 144.361 31.715C144.031 30.905 143.866 29.975 143.866 28.925C143.866 28.1 144.076 27.2525 144.496 26.3825C144.916 25.5125 145.644 24.725 146.679 24.02C147.714 23.3 149.109 22.7 150.864 22.22C152.619 21.74 154.831 21.47 157.501 21.41V20.42C157.501 19.055 157.216 18.0725 156.646 17.4725C156.091 16.8575 155.296 16.55 154.261 16.55C153.436 16.55 152.761 16.64 152.236 16.82C151.711 17 151.239 17.2025 150.819 17.4275C150.414 17.6525 150.016 17.855 149.626 18.035C149.236 18.215 148.771 18.305 148.231 18.305C147.751 18.305 147.339 18.1925 146.994 17.9675C146.664 17.7275 146.401 17.435 146.206 17.09L144.946 14.9075C146.356 13.6625 147.916 12.74 149.626 12.14C151.351 11.525 153.196 11.2175 155.161 11.2175C156.571 11.2175 157.839 11.45 158.964 11.915C160.104 12.365 161.064 13.0025 161.844 13.8275C162.639 14.6375 163.246 15.605 163.666 16.73C164.086 17.855 164.296 19.085 164.296 20.42V35H161.101ZM153.091 30.7475C153.991 30.7475 154.779 30.59 155.454 30.275C156.129 29.96 156.811 29.45 157.501 28.745V25.505C156.106 25.565 154.959 25.685 154.059 25.865C153.159 26.045 152.446 26.27 151.921 26.54C151.396 26.81 151.029 27.1175 150.819 27.4625C150.624 27.8075 150.526 28.1825 150.526 28.5875C150.526 29.3825 150.744 29.945 151.179 30.275C151.614 30.59 152.251 30.7475 153.091 30.7475ZM179.885 35V16.46L178.355 16.145C177.83 16.025 177.403 15.8375 177.073 15.5825C176.758 15.3275 176.6 14.9525 176.6 14.4575V11.7125H179.885V10.385C179.885 9.05 180.095 7.8425 180.515 6.7625C180.95 5.6825 181.565 4.76 182.36 3.995C183.17 3.23 184.153 2.6375 185.308 2.2175C186.463 1.7975 187.775 1.5875 189.245 1.5875C189.815 1.5875 190.34 1.625 190.82 1.7C191.315 1.76 191.825 1.865 192.35 2.015L192.215 5.4125C192.2 5.6525 192.133 5.855 192.013 6.02C191.908 6.17 191.773 6.2975 191.608 6.4025C191.443 6.4925 191.255 6.56 191.045 6.605C190.85 6.65 190.655 6.6725 190.46 6.6725C189.845 6.6725 189.298 6.7325 188.818 6.8525C188.338 6.9725 187.933 7.19 187.603 7.505C187.288 7.805 187.048 8.21 186.883 8.72C186.718 9.215 186.635 9.845 186.635 10.61V11.7125H192.125V16.4825H186.86V35H179.885ZM195.604 35V11.6675H199.744C200.089 11.6675 200.374 11.6975 200.599 11.7575C200.839 11.8175 201.034 11.915 201.184 12.05C201.349 12.17 201.469 12.335 201.544 12.545C201.634 12.755 201.709 13.01 201.769 13.31L202.152 15.4925C203.007 14.1725 203.967 13.13 205.032 12.365C206.097 11.6 207.259 11.2175 208.519 11.2175C209.584 11.2175 210.439 11.4725 211.084 11.9825L210.184 17.1125C210.124 17.4275 210.004 17.6525 209.824 17.7875C209.644 17.9075 209.404 17.9675 209.104 17.9675C208.849 17.9675 208.549 17.9375 208.204 17.8775C207.859 17.8025 207.424 17.765 206.899 17.765C205.069 17.765 203.629 18.74 202.579 20.69V35H195.604ZM225.038 11.3075C226.808 11.3075 228.42 11.585 229.875 12.14C231.33 12.695 232.575 13.49 233.61 14.525C234.66 15.56 235.47 16.82 236.04 18.305C236.625 19.775 236.918 21.4325 236.918 23.2775C236.918 25.1375 236.625 26.8175 236.04 28.3175C235.47 29.8025 234.66 31.07 233.61 32.12C232.575 33.155 231.33 33.9575 229.875 34.5275C228.42 35.0825 226.808 35.36 225.038 35.36C223.253 35.36 221.625 35.0825 220.155 34.5275C218.7 33.9575 217.44 33.155 216.375 32.12C215.325 31.07 214.508 29.8025 213.923 28.3175C213.353 26.8175 213.068 25.1375 213.068 23.2775C213.068 21.4325 213.353 19.775 213.923 18.305C214.508 16.82 215.325 15.56 216.375 14.525C217.44 13.49 218.7 12.695 220.155 12.14C221.625 11.585 223.253 11.3075 225.038 11.3075ZM225.038 30.185C226.643 30.185 227.82 29.6225 228.57 28.4975C229.335 27.3575 229.718 25.6325 229.718 23.3225C229.718 21.0125 229.335 19.295 228.57 18.17C227.82 17.045 226.643 16.4825 225.038 16.4825C223.388 16.4825 222.18 17.045 221.415 18.17C220.65 19.295 220.268 21.0125 220.268 23.3225C220.268 25.6325 220.65 27.3575 221.415 28.4975C222.18 29.6225 223.388 30.185 225.038 30.185ZM241.196 35V11.6675H245.516C245.951 11.6675 246.311 11.765 246.596 11.96C246.896 12.155 247.106 12.4475 247.226 12.8375L247.631 14.1875C248.081 13.7675 248.546 13.3775 249.026 13.0175C249.506 12.6575 250.016 12.3575 250.556 12.1175C251.111 11.8625 251.704 11.6675 252.334 11.5325C252.979 11.3825 253.676 11.3075 254.426 11.3075C255.701 11.3075 256.826 11.5325 257.801 11.9825C258.791 12.4175 259.624 13.0325 260.299 13.8275C260.974 14.6075 261.484 15.545 261.829 16.64C262.174 17.72 262.346 18.8975 262.346 20.1725V35H255.371V20.1725C255.371 19.0325 255.109 18.1475 254.584 17.5175C254.059 16.8725 253.286 16.55 252.266 16.55C251.501 16.55 250.781 16.715 250.106 17.045C249.431 17.375 248.786 17.8175 248.171 18.3725V35H241.196ZM275.94 35.36C274.83 35.36 273.847 35.2025 272.992 34.8875C272.152 34.5575 271.44 34.1 270.855 33.515C270.285 32.915 269.85 32.195 269.55 31.355C269.25 30.515 269.1 29.5775 269.1 28.5425V16.4825H267.12C266.76 16.4825 266.452 16.37 266.197 16.145C265.942 15.905 265.815 15.56 265.815 15.11V12.3875L269.527 11.6675L270.9 5.975C271.08 5.255 271.59 4.895 272.43 4.895H276.075V11.7125H281.745V16.4825H276.075V28.07C276.075 28.61 276.202 29.06 276.457 29.42C276.727 29.765 277.11 29.9375 277.605 29.9375C277.86 29.9375 278.07 29.915 278.235 29.87C278.415 29.81 278.565 29.75 278.685 29.69C278.82 29.615 278.94 29.555 279.045 29.51C279.165 29.45 279.3 29.42 279.45 29.42C279.66 29.42 279.825 29.4725 279.945 29.5775C280.08 29.6675 280.215 29.8175 280.35 30.0275L282.465 33.335C281.565 34.01 280.552 34.52 279.427 34.865C278.302 35.195 277.14 35.36 275.94 35.36ZM285.768 18.5075H297.918V24.1325H285.768V18.5075ZM313.313 11.3075C314.858 11.3075 316.268 11.5475 317.543 12.0275C318.833 12.5075 319.935 13.205 320.85 14.12C321.78 15.035 322.5 16.16 323.01 17.495C323.535 18.815 323.798 20.315 323.798 21.995C323.798 22.52 323.775 22.9475 323.73 23.2775C323.685 23.6075 323.603 23.87 323.483 24.065C323.363 24.26 323.198 24.395 322.988 24.47C322.793 24.545 322.538 24.5825 322.223 24.5825H308.768C308.993 26.5325 309.585 27.95 310.545 28.835C311.505 29.705 312.743 30.14 314.258 30.14C315.068 30.14 315.765 30.0425 316.35 29.8475C316.935 29.6525 317.453 29.435 317.903 29.195C318.368 28.955 318.788 28.7375 319.163 28.5425C319.553 28.3475 319.958 28.25 320.378 28.25C320.933 28.25 321.353 28.4525 321.638 28.8575L323.663 31.355C322.943 32.18 322.163 32.855 321.323 33.38C320.498 33.89 319.643 34.295 318.758 34.595C317.888 34.88 317.01 35.075 316.125 35.18C315.255 35.3 314.423 35.36 313.628 35.36C311.993 35.36 310.455 35.0975 309.015 34.5725C307.59 34.0325 306.338 33.2375 305.258 32.1875C304.193 31.1375 303.345 29.8325 302.715 28.2725C302.1 26.7125 301.793 24.8975 301.793 22.8275C301.793 21.2675 302.055 19.79 302.58 18.395C303.12 17 303.885 15.7775 304.875 14.7275C305.88 13.6775 307.088 12.845 308.498 12.23C309.923 11.615 311.528 11.3075 313.313 11.3075ZM313.448 16.1225C312.113 16.1225 311.07 16.505 310.32 17.27C309.57 18.02 309.075 19.1075 308.835 20.5325H317.543C317.543 19.9775 317.468 19.4375 317.318 18.9125C317.183 18.3875 316.95 17.9225 316.62 17.5175C316.305 17.0975 315.885 16.76 315.36 16.505C314.835 16.25 314.198 16.1225 313.448 16.1225ZM328.25 35V11.6675H332.57C333.005 11.6675 333.365 11.765 333.65 11.96C333.95 12.155 334.16 12.4475 334.28 12.8375L334.685 14.1875C335.135 13.7675 335.6 13.3775 336.08 13.0175C336.56 12.6575 337.07 12.3575 337.61 12.1175C338.165 11.8625 338.758 11.6675 339.388 11.5325C340.033 11.3825 340.73 11.3075 341.48 11.3075C342.755 11.3075 343.88 11.5325 344.855 11.9825C345.845 12.4175 346.678 13.0325 347.353 13.8275C348.028 14.6075 348.538 15.545 348.883 16.64C349.228 17.72 349.4 18.8975 349.4 20.1725V35H342.425V20.1725C342.425 19.0325 342.163 18.1475 341.638 17.5175C341.113 16.8725 340.34 16.55 339.32 16.55C338.555 16.55 337.835 16.715 337.16 17.045C336.485 17.375 335.84 17.8175 335.225 18.3725V35H328.25ZM371.184 35C370.749 35 370.381 34.9025 370.081 34.7075C369.796 34.5125 369.594 34.22 369.474 33.83L368.934 32.0525C368.469 32.5475 367.981 32.9975 367.471 33.4025C366.961 33.8075 366.406 34.16 365.806 34.46C365.221 34.745 364.584 34.9625 363.894 35.1125C363.219 35.2775 362.484 35.36 361.689 35.36C360.474 35.36 359.349 35.09 358.314 34.55C357.279 34.01 356.386 33.23 355.636 32.21C354.886 31.19 354.294 29.945 353.859 28.475C353.439 26.99 353.229 25.3025 353.229 23.4125C353.229 21.6725 353.469 20.06 353.949 18.575C354.429 17.075 355.104 15.785 355.974 14.705C356.859 13.61 357.916 12.755 359.146 12.14C360.376 11.525 361.734 11.2175 363.219 11.2175C364.419 11.2175 365.431 11.3975 366.256 11.7575C367.096 12.1025 367.854 12.56 368.529 13.13V1.3175H375.504V35H371.184ZM364.119 30.005C364.629 30.005 365.086 29.96 365.491 29.87C365.911 29.765 366.294 29.6225 366.639 29.4425C366.984 29.2625 367.306 29.0375 367.606 28.7675C367.921 28.4975 368.229 28.1825 368.529 27.8225V17.9225C367.989 17.3375 367.411 16.9325 366.796 16.7075C366.196 16.4675 365.559 16.3475 364.884 16.3475C364.239 16.3475 363.646 16.475 363.106 16.73C362.566 16.985 362.094 17.3975 361.689 17.9675C361.299 18.5225 360.991 19.25 360.766 20.15C360.541 21.05 360.429 22.1375 360.429 23.4125C360.429 24.6425 360.519 25.6775 360.699 26.5175C360.879 27.3575 361.126 28.04 361.441 28.565C361.771 29.075 362.161 29.4425 362.611 29.6675C363.061 29.8925 363.564 30.005 364.119 30.005ZM406.889 35C406.454 35 406.086 34.9025 405.786 34.7075C405.501 34.5125 405.299 34.22 405.179 33.83L404.639 32.0525C404.174 32.5475 403.686 32.9975 403.176 33.4025C402.666 33.8075 402.111 34.16 401.511 34.46C400.926 34.745 400.289 34.9625 399.599 35.1125C398.924 35.2775 398.189 35.36 397.394 35.36C396.179 35.36 395.054 35.09 394.019 34.55C392.984 34.01 392.091 33.23 391.341 32.21C390.591 31.19 389.999 29.945 389.564 28.475C389.144 26.99 388.934 25.3025 388.934 23.4125C388.934 21.6725 389.174 20.06 389.654 18.575C390.134 17.075 390.809 15.785 391.679 14.705C392.564 13.61 393.621 12.755 394.851 12.14C396.081 11.525 397.439 11.2175 398.924 11.2175C400.124 11.2175 401.136 11.3975 401.961 11.7575C402.801 12.1025 403.559 12.56 404.234 13.13V1.3175H411.209V35H406.889ZM399.824 30.005C400.334 30.005 400.791 29.96 401.196 29.87C401.616 29.765 401.999 29.6225 402.344 29.4425C402.689 29.2625 403.011 29.0375 403.311 28.7675C403.626 28.4975 403.934 28.1825 404.234 27.8225V17.9225C403.694 17.3375 403.116 16.9325 402.501 16.7075C401.901 16.4675 401.264 16.3475 400.589 16.3475C399.944 16.3475 399.351 16.475 398.811 16.73C398.271 16.985 397.799 17.3975 397.394 17.9675C397.004 18.5225 396.696 19.25 396.471 20.15C396.246 21.05 396.134 22.1375 396.134 23.4125C396.134 24.6425 396.224 25.6775 396.404 26.5175C396.584 27.3575 396.831 28.04 397.146 28.565C397.476 29.075 397.866 29.4425 398.316 29.6675C398.766 29.8925 399.269 30.005 399.824 30.005ZM427.052 11.3075C428.597 11.3075 430.007 11.5475 431.282 12.0275C432.572 12.5075 433.675 13.205 434.59 14.12C435.52 15.035 436.24 16.16 436.75 17.495C437.275 18.815 437.537 20.315 437.537 21.995C437.537 22.52 437.515 22.9475 437.47 23.2775C437.425 23.6075 437.342 23.87 437.222 24.065C437.102 24.26 436.937 24.395 436.727 24.47C436.532 24.545 436.277 24.5825 435.962 24.5825H422.507C422.732 26.5325 423.325 27.95 424.285 28.835C425.245 29.705 426.482 30.14 427.997 30.14C428.807 30.14 429.505 30.0425 430.09 29.8475C430.675 29.6525 431.192 29.435 431.642 29.195C432.107 28.955 432.527 28.7375 432.902 28.5425C433.292 28.3475 433.697 28.25 434.117 28.25C434.672 28.25 435.092 28.4525 435.377 28.8575L437.402 31.355C436.682 32.18 435.902 32.855 435.062 33.38C434.237 33.89 433.382 34.295 432.497 34.595C431.627 34.88 430.75 35.075 429.865 35.18C428.995 35.3 428.162 35.36 427.367 35.36C425.732 35.36 424.195 35.0975 422.755 34.5725C421.33 34.0325 420.077 33.2375 418.997 32.1875C417.932 31.1375 417.085 29.8325 416.455 28.2725C415.84 26.7125 415.532 24.8975 415.532 22.8275C415.532 21.2675 415.795 19.79 416.32 18.395C416.86 17 417.625 15.7775 418.615 14.7275C419.62 13.6775 420.827 12.845 422.237 12.23C423.662 11.615 425.267 11.3075 427.052 11.3075ZM427.187 16.1225C425.852 16.1225 424.81 16.505 424.06 17.27C423.31 18.02 422.815 19.1075 422.575 20.5325H431.282C431.282 19.9775 431.207 19.4375 431.057 18.9125C430.922 18.3875 430.69 17.9225 430.36 17.5175C430.045 17.0975 429.625 16.76 429.1 16.505C428.575 16.25 427.937 16.1225 427.187 16.1225ZM454.026 35H447.681L438.636 11.6675H444.441C444.936 11.6675 445.348 11.7875 445.678 12.0275C446.023 12.2525 446.256 12.5375 446.376 12.8825L449.616 23.345C449.871 24.2 450.111 25.0325 450.336 25.8425C450.576 26.6525 450.778 27.4625 450.943 28.2725C451.108 27.4625 451.311 26.6525 451.551 25.8425C451.791 25.0325 452.046 24.2 452.316 23.345L455.691 12.8825C455.811 12.5375 456.036 12.2525 456.366 12.0275C456.696 11.7875 457.086 11.6675 457.536 11.6675H463.071L454.026 35ZM475.545 11.3075C477.09 11.3075 478.5 11.5475 479.775 12.0275C481.065 12.5075 482.167 13.205 483.082 14.12C484.012 15.035 484.732 16.16 485.242 17.495C485.767 18.815 486.03 20.315 486.03 21.995C486.03 22.52 486.007 22.9475 485.962 23.2775C485.917 23.6075 485.835 23.87 485.715 24.065C485.595 24.26 485.43 24.395 485.22 24.47C485.025 24.545 484.77 24.5825 484.455 24.5825H471C471.225 26.5325 471.817 27.95 472.777 28.835C473.737 29.705 474.975 30.14 476.49 30.14C477.3 30.14 477.997 30.0425 478.582 29.8475C479.167 29.6525 479.685 29.435 480.135 29.195C480.6 28.955 481.02 28.7375 481.395 28.5425C481.785 28.3475 482.19 28.25 482.61 28.25C483.165 28.25 483.585 28.4525 483.87 28.8575L485.895 31.355C485.175 32.18 484.395 32.855 483.555 33.38C482.73 33.89 481.875 34.295 480.99 34.595C480.12 34.88 479.242 35.075 478.357 35.18C477.487 35.3 476.655 35.36 475.86 35.36C474.225 35.36 472.687 35.0975 471.247 34.5725C469.822 34.0325 468.57 33.2375 467.49 32.1875C466.425 31.1375 465.577 29.8325 464.947 28.2725C464.332 26.7125 464.025 24.8975 464.025 22.8275C464.025 21.2675 464.287 19.79 464.812 18.395C465.352 17 466.117 15.7775 467.107 14.7275C468.112 13.6775 469.32 12.845 470.73 12.23C472.155 11.615 473.76 11.3075 475.545 11.3075ZM475.68 16.1225C474.345 16.1225 473.302 16.505 472.552 17.27C471.802 18.02 471.307 19.1075 471.067 20.5325H479.775C479.775 19.9775 479.7 19.4375 479.55 18.9125C479.415 18.3875 479.182 17.9225 478.852 17.5175C478.537 17.0975 478.117 16.76 477.592 16.505C477.067 16.25 476.43 16.1225 475.68 16.1225ZM497.682 1.3175V35H490.707V1.3175H497.682ZM514.159 11.3075C515.929 11.3075 517.542 11.585 518.997 12.14C520.452 12.695 521.697 13.49 522.732 14.525C523.782 15.56 524.592 16.82 525.162 18.305C525.747 19.775 526.039 21.4325 526.039 23.2775C526.039 25.1375 525.747 26.8175 525.162 28.3175C524.592 29.8025 523.782 31.07 522.732 32.12C521.697 33.155 520.452 33.9575 518.997 34.5275C517.542 35.0825 515.929 35.36 514.159 35.36C512.374 35.36 510.747 35.0825 509.277 34.5275C507.822 33.9575 506.562 33.155 505.497 32.12C504.447 31.07 503.629 29.8025 503.044 28.3175C502.474 26.8175 502.189 25.1375 502.189 23.2775C502.189 21.4325 502.474 19.775 503.044 18.305C503.629 16.82 504.447 15.56 505.497 14.525C506.562 13.49 507.822 12.695 509.277 12.14C510.747 11.585 512.374 11.3075 514.159 11.3075ZM514.159 30.185C515.764 30.185 516.942 29.6225 517.692 28.4975C518.457 27.3575 518.839 25.6325 518.839 23.3225C518.839 21.0125 518.457 19.295 517.692 18.17C516.942 17.045 515.764 16.4825 514.159 16.4825C512.509 16.4825 511.302 17.045 510.537 18.17C509.772 19.295 509.389 21.0125 509.389 23.3225C509.389 25.6325 509.772 27.3575 510.537 28.4975C511.302 29.6225 512.509 30.185 514.159 30.185ZM530.318 42.4025V11.6675H534.638C535.073 11.6675 535.433 11.765 535.718 11.96C536.018 12.155 536.228 12.4475 536.348 12.8375L536.865 14.5475C537.315 14.0525 537.795 13.6025 538.305 13.1975C538.83 12.7925 539.385 12.4475 539.97 12.1625C540.57 11.8625 541.208 11.63 541.883 11.465C542.573 11.3 543.323 11.2175 544.133 11.2175C545.348 11.2175 546.473 11.4875 547.508 12.0275C548.543 12.5675 549.435 13.3475 550.185 14.3675C550.935 15.3875 551.52 16.64 551.94 18.125C552.375 19.595 552.593 21.2675 552.593 23.1425C552.593 24.8975 552.345 26.5175 551.85 28.0025C551.37 29.4875 550.688 30.7775 549.803 31.8725C548.933 32.9675 547.883 33.8225 546.653 34.4375C545.438 35.0525 544.088 35.36 542.603 35.36C541.388 35.36 540.368 35.1875 539.543 34.8425C538.718 34.4975 537.968 34.0325 537.293 33.4475V42.4025H530.318ZM541.703 16.55C541.193 16.55 540.728 16.6025 540.308 16.7075C539.903 16.7975 539.52 16.9325 539.16 17.1125C538.815 17.2925 538.493 17.525 538.193 17.81C537.893 18.08 537.593 18.395 537.293 18.755V28.655C537.818 29.24 538.388 29.6525 539.003 29.8925C539.618 30.1175 540.263 30.23 540.938 30.23C541.583 30.23 542.175 30.1025 542.715 29.8475C543.255 29.5925 543.72 29.1875 544.11 28.6325C544.515 28.0625 544.83 27.3275 545.055 26.4275C545.28 25.5275 545.393 24.4325 545.393 23.1425C545.393 21.9125 545.303 20.8775 545.123 20.0375C544.943 19.1975 544.688 18.5225 544.358 18.0125C544.043 17.4875 543.66 17.1125 543.21 16.8875C542.76 16.6625 542.258 16.55 541.703 16.55ZM566.774 11.3075C568.319 11.3075 569.729 11.5475 571.004 12.0275C572.294 12.5075 573.396 13.205 574.311 14.12C575.241 15.035 575.961 16.16 576.471 17.495C576.996 18.815 577.259 20.315 577.259 21.995C577.259 22.52 577.236 22.9475 577.191 23.2775C577.146 23.6075 577.064 23.87 576.944 24.065C576.824 24.26 576.659 24.395 576.449 24.47C576.254 24.545 575.999 24.5825 575.684 24.5825H562.229C562.454 26.5325 563.046 27.95 564.006 28.835C564.966 29.705 566.204 30.14 567.719 30.14C568.529 30.14 569.226 30.0425 569.811 29.8475C570.396 29.6525 570.914 29.435 571.364 29.195C571.829 28.955 572.249 28.7375 572.624 28.5425C573.014 28.3475 573.419 28.25 573.839 28.25C574.394 28.25 574.814 28.4525 575.099 28.8575L577.124 31.355C576.404 32.18 575.624 32.855 574.784 33.38C573.959 33.89 573.104 34.295 572.219 34.595C571.349 34.88 570.471 35.075 569.586 35.18C568.716 35.3 567.884 35.36 567.089 35.36C565.454 35.36 563.916 35.0975 562.476 34.5725C561.051 34.0325 559.799 33.2375 558.719 32.1875C557.654 31.1375 556.806 29.8325 556.176 28.2725C555.561 26.7125 555.254 24.8975 555.254 22.8275C555.254 21.2675 555.516 19.79 556.041 18.395C556.581 17 557.346 15.7775 558.336 14.7275C559.341 13.6775 560.549 12.845 561.959 12.23C563.384 11.615 564.989 11.3075 566.774 11.3075ZM566.909 16.1225C565.574 16.1225 564.531 16.505 563.781 17.27C563.031 18.02 562.536 19.1075 562.296 20.5325H571.004C571.004 19.9775 570.929 19.4375 570.779 18.9125C570.644 18.3875 570.411 17.9225 570.081 17.5175C569.766 17.0975 569.346 16.76 568.821 16.505C568.296 16.25 567.659 16.1225 566.909 16.1225ZM581.711 35V11.6675H585.851C586.196 11.6675 586.481 11.6975 586.706 11.7575C586.946 11.8175 587.141 11.915 587.291 12.05C587.456 12.17 587.576 12.335 587.651 12.545C587.741 12.755 587.816 13.01 587.876 13.31L588.259 15.4925C589.114 14.1725 590.074 13.13 591.139 12.365C592.204 11.6 593.366 11.2175 594.626 11.2175C595.691 11.2175 596.546 11.4725 597.191 11.9825L596.291 17.1125C596.231 17.4275 596.111 17.6525 595.931 17.7875C595.751 17.9075 595.511 17.9675 595.211 17.9675C594.956 17.9675 594.656 17.9375 594.311 17.8775C593.966 17.8025 593.531 17.765 593.006 17.765C591.176 17.765 589.736 18.74 588.686 20.69V35H581.711ZM0 65.6675H5.58C6.075 65.6675 6.5025 65.78 6.8625 66.005C7.2225 66.23 7.44 66.5225 7.515 66.8825L9.855 77.345C10.035 78.14 10.2 78.9125 10.35 79.6625C10.5 80.4125 10.635 81.155 10.755 81.89C10.965 81.155 11.1825 80.42 11.4075 79.685C11.6475 78.935 11.88 78.155 12.105 77.345L15.03 66.86C15.12 66.515 15.3375 66.23 15.6825 66.005C16.0275 65.765 16.425 65.645 16.875 65.645H19.98C20.475 65.645 20.895 65.765 21.24 66.005C21.6 66.23 21.825 66.515 21.915 66.86L24.705 77.345C24.915 78.14 25.125 78.9125 25.335 79.6625C25.56 80.4125 25.77 81.17 25.965 81.935C26.085 81.185 26.2275 80.4425 26.3925 79.7075C26.5725 78.9575 26.76 78.17 26.955 77.345L29.43 66.8825C29.505 66.5225 29.715 66.23 30.06 66.005C30.42 65.78 30.825 65.6675 31.275 65.6675H36.585L29.34 89H23.67C23.37 89 23.115 88.91 22.905 88.73C22.695 88.55 22.53 88.25 22.41 87.83L19.08 76.1975C18.93 75.6725 18.7875 75.155 18.6525 74.645C18.5175 74.135 18.3975 73.625 18.2925 73.115C18.1875 73.64 18.0675 74.165 17.9325 74.69C17.8125 75.2 17.67 75.7175 17.505 76.2425L14.13 87.83C13.905 88.61 13.41 89 12.645 89H7.245L0 65.6675ZM39.7564 89V55.3175H46.7314V67.715C47.5714 66.995 48.4789 66.4175 49.4539 65.9825C50.4439 65.5325 51.6214 65.3075 52.9864 65.3075C54.2614 65.3075 55.3864 65.5325 56.3614 65.9825C57.3514 66.4175 58.1839 67.0325 58.8589 67.8275C59.5339 68.6075 60.0439 69.545 60.3889 70.64C60.7339 71.72 60.9064 72.8975 60.9064 74.1725V89H53.9314V74.1725C53.9314 73.0325 53.6689 72.1475 53.1439 71.5175C52.6189 70.8725 51.8464 70.55 50.8264 70.55C50.0614 70.55 49.3414 70.715 48.6664 71.045C47.9914 71.375 47.3464 71.8175 46.7314 72.3725V89H39.7564ZM76.705 65.3075C78.475 65.3075 80.0875 65.585 81.5425 66.14C82.9975 66.695 84.2425 67.49 85.2775 68.525C86.3275 69.56 87.1375 70.82 87.7075 72.305C88.2925 73.775 88.585 75.4325 88.585 77.2775C88.585 79.1375 88.2925 80.8175 87.7075 82.3175C87.1375 83.8025 86.3275 85.07 85.2775 86.12C84.2425 87.155 82.9975 87.9575 81.5425 88.5275C80.0875 89.0825 78.475 89.36 76.705 89.36C74.92 89.36 73.2925 89.0825 71.8225 88.5275C70.3675 87.9575 69.1075 87.155 68.0425 86.12C66.9925 85.07 66.175 83.8025 65.59 82.3175C65.02 80.8175 64.735 79.1375 64.735 77.2775C64.735 75.4325 65.02 73.775 65.59 72.305C66.175 70.82 66.9925 69.56 68.0425 68.525C69.1075 67.49 70.3675 66.695 71.8225 66.14C73.2925 65.585 74.92 65.3075 76.705 65.3075ZM76.705 84.185C78.31 84.185 79.4875 83.6225 80.2375 82.4975C81.0025 81.3575 81.385 79.6325 81.385 77.3225C81.385 75.0125 81.0025 73.295 80.2375 72.17C79.4875 71.045 78.31 70.4825 76.705 70.4825C75.055 70.4825 73.8475 71.045 73.0825 72.17C72.3175 73.295 71.935 75.0125 71.935 77.3225C71.935 79.6325 72.3175 81.3575 73.0825 82.4975C73.8475 83.6225 75.055 84.185 76.705 84.185ZM118.845 71.2025C118.635 71.4575 118.432 71.66 118.237 71.81C118.042 71.96 117.765 72.035 117.405 72.035C117.06 72.035 116.745 71.9525 116.46 71.7875C116.19 71.6225 115.882 71.4425 115.537 71.2475C115.192 71.0375 114.787 70.85 114.322 70.685C113.857 70.52 113.28 70.4375 112.59 70.4375C111.735 70.4375 110.992 70.595 110.362 70.91C109.747 71.225 109.237 71.675 108.832 72.26C108.427 72.845 108.127 73.565 107.932 74.42C107.737 75.26 107.64 76.2125 107.64 77.2775C107.64 79.5125 108.067 81.23 108.922 82.43C109.792 83.63 110.985 84.23 112.5 84.23C113.31 84.23 113.947 84.1325 114.412 83.9375C114.892 83.7275 115.297 83.5025 115.627 83.2625C115.957 83.0075 116.257 82.775 116.527 82.565C116.812 82.355 117.165 82.25 117.585 82.25C118.14 82.25 118.56 82.4525 118.845 82.8575L120.87 85.355C120.15 86.18 119.392 86.855 118.597 87.38C117.802 87.89 116.985 88.295 116.145 88.595C115.32 88.88 114.487 89.075 113.647 89.18C112.807 89.3 111.99 89.36 111.195 89.36C109.77 89.36 108.405 89.09 107.1 88.55C105.81 88.01 104.67 87.23 103.68 86.21C102.705 85.175 101.925 83.9075 101.34 82.4075C100.77 80.9075 100.485 79.1975 100.485 77.2775C100.485 75.5975 100.732 74.03 101.227 72.575C101.737 71.105 102.48 69.8375 103.455 68.7725C104.445 67.6925 105.66 66.845 107.1 66.23C108.555 65.615 110.235 65.3075 112.14 65.3075C113.97 65.3075 115.575 65.6 116.955 66.185C118.335 66.77 119.58 67.625 120.69 68.75L118.845 71.2025ZM140.459 89C139.799 89 139.297 88.91 138.952 88.73C138.622 88.55 138.344 88.175 138.119 87.605L137.624 86.3225C137.039 86.8175 136.477 87.2525 135.937 87.6275C135.397 88.0025 134.834 88.325 134.249 88.595C133.679 88.85 133.064 89.0375 132.404 89.1575C131.759 89.2925 131.039 89.36 130.244 89.36C129.179 89.36 128.212 89.225 127.342 88.955C126.472 88.67 125.729 88.2575 125.114 87.7175C124.514 87.1775 124.049 86.51 123.719 85.715C123.389 84.905 123.224 83.975 123.224 82.925C123.224 82.1 123.434 81.2525 123.854 80.3825C124.274 79.5125 125.002 78.725 126.037 78.02C127.072 77.3 128.467 76.7 130.222 76.22C131.977 75.74 134.189 75.47 136.859 75.41V74.42C136.859 73.055 136.574 72.0725 136.004 71.4725C135.449 70.8575 134.654 70.55 133.619 70.55C132.794 70.55 132.119 70.64 131.594 70.82C131.069 71 130.597 71.2025 130.177 71.4275C129.772 71.6525 129.374 71.855 128.984 72.035C128.594 72.215 128.129 72.305 127.589 72.305C127.109 72.305 126.697 72.1925 126.352 71.9675C126.022 71.7275 125.759 71.435 125.564 71.09L124.304 68.9075C125.714 67.6625 127.274 66.74 128.984 66.14C130.709 65.525 132.554 65.2175 134.519 65.2175C135.929 65.2175 137.197 65.45 138.322 65.915C139.462 66.365 140.422 67.0025 141.202 67.8275C141.997 68.6375 142.604 69.605 143.024 70.73C143.444 71.855 143.654 73.085 143.654 74.42V89H140.459ZM132.449 84.7475C133.349 84.7475 134.137 84.59 134.812 84.275C135.487 83.96 136.169 83.45 136.859 82.745V79.505C135.464 79.565 134.317 79.685 133.417 79.865C132.517 80.045 131.804 80.27 131.279 80.54C130.754 80.81 130.387 81.1175 130.177 81.4625C129.982 81.8075 129.884 82.1825 129.884 82.5875C129.884 83.3825 130.102 83.945 130.537 84.275C130.972 84.59 131.609 84.7475 132.449 84.7475ZM149.057 89V65.6675H153.377C153.812 65.6675 154.172 65.765 154.457 65.96C154.757 66.155 154.967 66.4475 155.087 66.8375L155.492 68.1875C155.942 67.7675 156.407 67.3775 156.887 67.0175C157.367 66.6575 157.877 66.3575 158.417 66.1175C158.972 65.8625 159.565 65.6675 160.195 65.5325C160.84 65.3825 161.537 65.3075 162.287 65.3075C163.562 65.3075 164.687 65.5325 165.662 65.9825C166.652 66.4175 167.485 67.0325 168.16 67.8275C168.835 68.6075 169.345 69.545 169.69 70.64C170.035 71.72 170.207 72.8975 170.207 74.1725V89H163.232V74.1725C163.232 73.0325 162.97 72.1475 162.445 71.5175C161.92 70.8725 161.147 70.55 160.127 70.55C159.362 70.55 158.642 70.715 157.967 71.045C157.292 71.375 156.647 71.8175 156.032 72.3725V89H149.057ZM201.142 89C200.707 89 200.339 88.9025 200.039 88.7075C199.754 88.5125 199.552 88.22 199.432 87.83L198.892 86.0525C198.427 86.5475 197.939 86.9975 197.429 87.4025C196.919 87.8075 196.364 88.16 195.764 88.46C195.179 88.745 194.542 88.9625 193.852 89.1125C193.177 89.2775 192.442 89.36 191.647 89.36C190.432 89.36 189.307 89.09 188.272 88.55C187.237 88.01 186.344 87.23 185.594 86.21C184.844 85.19 184.252 83.945 183.817 82.475C183.397 80.99 183.187 79.3025 183.187 77.4125C183.187 75.6725 183.427 74.06 183.907 72.575C184.387 71.075 185.062 69.785 185.932 68.705C186.817 67.61 187.874 66.755 189.104 66.14C190.334 65.525 191.692 65.2175 193.177 65.2175C194.377 65.2175 195.389 65.3975 196.214 65.7575C197.054 66.1025 197.812 66.56 198.487 67.13V55.3175H205.462V89H201.142ZM194.077 84.005C194.587 84.005 195.044 83.96 195.449 83.87C195.869 83.765 196.252 83.6225 196.597 83.4425C196.942 83.2625 197.264 83.0375 197.564 82.7675C197.879 82.4975 198.187 82.1825 198.487 81.8225V71.9225C197.947 71.3375 197.369 70.9325 196.754 70.7075C196.154 70.4675 195.517 70.3475 194.842 70.3475C194.197 70.3475 193.604 70.475 193.064 70.73C192.524 70.985 192.052 71.3975 191.647 71.9675C191.257 72.5225 190.949 73.25 190.724 74.15C190.499 75.05 190.387 76.1375 190.387 77.4125C190.387 78.6425 190.477 79.6775 190.657 80.5175C190.837 81.3575 191.084 82.04 191.399 82.565C191.729 83.075 192.119 83.4425 192.569 83.6675C193.019 83.8925 193.522 84.005 194.077 84.005ZM221.305 65.3075C222.85 65.3075 224.26 65.5475 225.535 66.0275C226.825 66.5075 227.928 67.205 228.843 68.12C229.773 69.035 230.493 70.16 231.003 71.495C231.528 72.815 231.79 74.315 231.79 75.995C231.79 76.52 231.768 76.9475 231.723 77.2775C231.678 77.6075 231.595 77.87 231.475 78.065C231.355 78.26 231.19 78.395 230.98 78.47C230.785 78.545 230.53 78.5825 230.215 78.5825H216.76C216.985 80.5325 217.578 81.95 218.538 82.835C219.498 83.705 220.735 84.14 222.25 84.14C223.06 84.14 223.758 84.0425 224.343 83.8475C224.928 83.6525 225.445 83.435 225.895 83.195C226.36 82.955 226.78 82.7375 227.155 82.5425C227.545 82.3475 227.95 82.25 228.37 82.25C228.925 82.25 229.345 82.4525 229.63 82.8575L231.655 85.355C230.935 86.18 230.155 86.855 229.315 87.38C228.49 87.89 227.635 88.295 226.75 88.595C225.88 88.88 225.003 89.075 224.118 89.18C223.248 89.3 222.415 89.36 221.62 89.36C219.985 89.36 218.448 89.0975 217.008 88.5725C215.583 88.0325 214.33 87.2375 213.25 86.1875C212.185 85.1375 211.338 83.8325 210.708 82.2725C210.093 80.7125 209.785 78.8975 209.785 76.8275C209.785 75.2675 210.048 73.79 210.573 72.395C211.113 71 211.878 69.7775 212.868 68.7275C213.873 67.6775 215.08 66.845 216.49 66.23C217.915 65.615 219.52 65.3075 221.305 65.3075ZM221.44 70.1225C220.105 70.1225 219.063 70.505 218.313 71.27C217.563 72.02 217.068 73.1075 216.828 74.5325H225.535C225.535 73.9775 225.46 73.4375 225.31 72.9125C225.175 72.3875 224.943 71.9225 224.613 71.5175C224.298 71.0975 223.878 70.76 223.353 70.505C222.828 70.25 222.19 70.1225 221.44 70.1225ZM250.508 70.775C250.328 71.06 250.133 71.2625 249.923 71.3825C249.728 71.5025 249.473 71.5625 249.158 71.5625C248.828 71.5625 248.498 71.495 248.168 71.36C247.838 71.21 247.478 71.0525 247.088 70.8875C246.713 70.7225 246.285 70.5725 245.805 70.4375C245.325 70.2875 244.778 70.2125 244.163 70.2125C243.278 70.2125 242.595 70.385 242.115 70.73C241.65 71.06 241.418 71.525 241.418 72.125C241.418 72.56 241.568 72.92 241.868 73.205C242.183 73.49 242.595 73.745 243.105 73.97C243.615 74.18 244.193 74.3825 244.838 74.5775C245.483 74.7725 246.143 74.99 246.818 75.23C247.493 75.47 248.153 75.755 248.798 76.085C249.443 76.4 250.02 76.7975 250.53 77.2775C251.04 77.7425 251.445 78.3125 251.745 78.9875C252.06 79.6625 252.218 80.4725 252.218 81.4175C252.218 82.5725 252.008 83.6375 251.588 84.6125C251.168 85.5875 250.538 86.4275 249.698 87.1325C248.873 87.8375 247.845 88.385 246.615 88.775C245.4 89.165 243.998 89.36 242.408 89.36C241.613 89.36 240.818 89.285 240.023 89.135C239.228 88.985 238.455 88.7825 237.705 88.5275C236.97 88.2725 236.288 87.9725 235.658 87.6275C235.028 87.2675 234.488 86.885 234.038 86.48L235.658 83.915C235.853 83.615 236.085 83.3825 236.355 83.2175C236.625 83.0375 236.978 82.9475 237.413 82.9475C237.818 82.9475 238.178 83.0375 238.493 83.2175C238.823 83.3975 239.175 83.5925 239.55 83.8025C239.925 84.0125 240.36 84.2075 240.855 84.3875C241.365 84.5675 242.003 84.6575 242.768 84.6575C243.308 84.6575 243.765 84.605 244.14 84.5C244.515 84.38 244.815 84.2225 245.04 84.0275C245.265 83.8325 245.43 83.615 245.535 83.375C245.64 83.135 245.693 82.8875 245.693 82.6325C245.693 82.1675 245.535 81.785 245.22 81.485C244.905 81.185 244.493 80.93 243.983 80.72C243.473 80.495 242.888 80.2925 242.228 80.1125C241.583 79.9175 240.923 79.7 240.248 79.46C239.573 79.22 238.905 78.935 238.245 78.605C237.6 78.26 237.023 77.8325 236.513 77.3225C236.003 76.7975 235.59 76.16 235.275 75.41C234.96 74.66 234.803 73.7525 234.803 72.6875C234.803 71.6975 234.99 70.76 235.365 69.875C235.755 68.975 236.333 68.1875 237.098 67.5125C237.863 66.8375 238.823 66.305 239.978 65.915C241.133 65.51 242.483 65.3075 244.028 65.3075C244.868 65.3075 245.678 65.3825 246.458 65.5325C247.253 65.6825 247.995 65.8925 248.685 66.1625C249.375 66.4325 250.005 66.755 250.575 67.13C251.145 67.49 251.648 67.8875 252.083 68.3225L250.508 70.775ZM263.712 65.6675V89H256.737V65.6675H263.712ZM264.522 59.2775C264.522 59.8325 264.41 60.3575 264.185 60.8525C263.96 61.3325 263.652 61.76 263.262 62.135C262.872 62.495 262.415 62.7875 261.89 63.0125C261.38 63.2225 260.832 63.3275 260.247 63.3275C259.677 63.3275 259.145 63.2225 258.65 63.0125C258.155 62.7875 257.712 62.495 257.322 62.135C256.947 61.76 256.647 61.3325 256.422 60.8525C256.212 60.3575 256.107 59.8325 256.107 59.2775C256.107 58.7075 256.212 58.175 256.422 57.68C256.647 57.185 256.947 56.75 257.322 56.375C257.712 56 258.155 55.7075 258.65 55.4975C259.145 55.2875 259.677 55.1825 260.247 55.1825C260.832 55.1825 261.38 55.2875 261.89 55.4975C262.415 55.7075 262.872 56 263.262 56.375C263.652 56.75 263.96 57.185 264.185 57.68C264.41 58.175 264.522 58.7075 264.522 59.2775ZM278.029 65.2625C279.019 65.2625 279.949 65.36 280.819 65.555C281.704 65.75 282.522 66.0275 283.272 66.3875H290.314V68.93C290.314 69.32 290.202 69.6275 289.977 69.8525C289.767 70.0775 289.399 70.25 288.874 70.37L287.164 70.7525C287.374 71.4275 287.479 72.125 287.479 72.845C287.479 74.015 287.232 75.065 286.737 75.995C286.257 76.925 285.589 77.72 284.734 78.38C283.894 79.025 282.897 79.5275 281.742 79.8875C280.587 80.2325 279.349 80.405 278.029 80.405C277.294 80.405 276.604 80.36 275.959 80.27C275.449 80.57 275.194 80.915 275.194 81.305C275.194 81.695 275.397 81.98 275.802 82.16C276.222 82.325 276.769 82.445 277.444 82.52C278.119 82.58 278.892 82.625 279.762 82.655C280.632 82.67 281.517 82.7225 282.417 82.8125C283.317 82.8875 284.202 83.0225 285.072 83.2175C285.942 83.4125 286.714 83.7275 287.389 84.1625C288.064 84.5975 288.604 85.1825 289.009 85.9175C289.429 86.6375 289.639 87.56 289.639 88.685C289.639 89.735 289.384 90.7625 288.874 91.7675C288.364 92.7725 287.614 93.665 286.624 94.445C285.634 95.225 284.419 95.8475 282.979 96.3125C281.539 96.7925 279.889 97.0325 278.029 97.0325C276.199 97.0325 274.617 96.86 273.282 96.515C271.962 96.17 270.859 95.7125 269.974 95.1425C269.104 94.5875 268.459 93.9425 268.039 93.2075C267.619 92.4725 267.409 91.7075 267.409 90.9125C267.409 89.8775 267.724 89.0075 268.354 88.3025C268.984 87.5825 269.847 87.02 270.942 86.615C270.417 86.27 269.997 85.8275 269.682 85.2875C269.367 84.7475 269.209 84.065 269.209 83.24C269.209 82.895 269.269 82.535 269.389 82.16C269.509 81.77 269.697 81.395 269.952 81.035C270.207 80.675 270.529 80.33 270.919 80C271.309 79.67 271.774 79.3775 272.314 79.1225C271.099 78.4775 270.139 77.6225 269.434 76.5575C268.744 75.4925 268.399 74.255 268.399 72.845C268.399 71.675 268.647 70.625 269.142 69.695C269.637 68.75 270.312 67.955 271.167 67.31C272.037 66.65 273.057 66.1475 274.227 65.8025C275.397 65.4425 276.664 65.2625 278.029 65.2625ZM283.204 89.855C283.204 89.48 283.084 89.18 282.844 88.955C282.619 88.73 282.304 88.55 281.899 88.415C281.509 88.28 281.044 88.1825 280.504 88.1225C279.979 88.0625 279.409 88.0175 278.794 87.9875C278.179 87.9575 277.542 87.935 276.882 87.92C276.222 87.89 275.569 87.8375 274.924 87.7625C274.489 88.0625 274.129 88.4 273.844 88.775C273.574 89.135 273.439 89.5475 273.439 90.0125C273.439 90.3425 273.507 90.6425 273.642 90.9125C273.792 91.1825 274.047 91.415 274.407 91.61C274.767 91.805 275.247 91.955 275.847 92.06C276.462 92.18 277.234 92.24 278.164 92.24C279.169 92.24 279.994 92.18 280.639 92.06C281.284 91.94 281.794 91.775 282.169 91.565C282.559 91.355 282.829 91.1 282.979 90.8C283.129 90.515 283.204 90.2 283.204 89.855ZM278.029 76.1075C279.184 76.1075 280.017 75.8225 280.527 75.2525C281.052 74.6675 281.314 73.9175 281.314 73.0025C281.314 72.0575 281.052 71.315 280.527 70.775C280.017 70.235 279.184 69.965 278.029 69.965C276.874 69.965 276.034 70.235 275.509 70.775C274.999 71.315 274.744 72.0575 274.744 73.0025C274.744 73.4525 274.804 73.865 274.924 74.24C275.059 74.615 275.262 74.945 275.532 75.23C275.802 75.5 276.139 75.7175 276.544 75.8825C276.964 76.0325 277.459 76.1075 278.029 76.1075ZM293.799 89V65.6675H298.119C298.554 65.6675 298.914 65.765 299.199 65.96C299.499 66.155 299.709 66.4475 299.829 66.8375L300.234 68.1875C300.684 67.7675 301.149 67.3775 301.629 67.0175C302.109 66.6575 302.619 66.3575 303.159 66.1175C303.714 65.8625 304.307 65.6675 304.937 65.5325C305.582 65.3825 306.279 65.3075 307.029 65.3075C308.304 65.3075 309.429 65.5325 310.404 65.9825C311.394 66.4175 312.227 67.0325 312.902 67.8275C313.577 68.6075 314.087 69.545 314.432 70.64C314.777 71.72 314.949 72.8975 314.949 74.1725V89H307.974V74.1725C307.974 73.0325 307.712 72.1475 307.187 71.5175C306.662 70.8725 305.889 70.55 304.869 70.55C304.104 70.55 303.384 70.715 302.709 71.045C302.034 71.375 301.389 71.8175 300.774 72.3725V89H293.799ZM319.003 85.4675C319.003 84.9275 319.1 84.425 319.295 83.96C319.505 83.495 319.783 83.09 320.128 82.745C320.488 82.4 320.908 82.13 321.388 81.935C321.868 81.725 322.393 81.62 322.963 81.62C323.518 81.62 324.035 81.725 324.515 81.935C324.995 82.13 325.415 82.4 325.775 82.745C326.135 83.09 326.413 83.495 326.608 83.96C326.818 84.425 326.923 84.9275 326.923 85.4675C326.923 86.0075 326.818 86.5175 326.608 86.9975C326.413 87.4625 326.135 87.8675 325.775 88.2125C325.415 88.5575 324.995 88.8275 324.515 89.0225C324.035 89.2175 323.518 89.315 322.963 89.315C322.393 89.315 321.868 89.2175 321.388 89.0225C320.908 88.8275 320.488 88.5575 320.128 88.2125C319.783 87.8675 319.505 87.4625 319.295 86.9975C319.1 86.5175 319.003 86.0075 319.003 85.4675Z" fill="#121111"/>
</svg>
