<svg fill="none" height="24" viewBox="0 0 129 24" width="129" xmlns="http://www.w3.org/2000/svg"><path d="m11.54 23c-.44 0-.775-.06-1.005-.18-.22-.12-.405-.37-.555-.75l-.33-.855c-.39.33-.765.62-1.125.87s-.735.465-1.125.645c-.38.17-.79.295-1.23.375-.43.09-.91.135-1.44.135-.71 0-1.355-.09-1.935-.27-.58-.19-1.075-.465-1.485-.825-.4-.36-.71-.805-.93-1.335-.22-.54-.33-1.16-.33-1.86 0-.55.14-1.115.42-1.695s.765-1.105 1.455-1.575c.69-.48 1.62-.88 2.79-1.2s2.645-.5 4.425-.54v-.66c0-.91-.19-1.565-.57-1.965-.37-.41-.9-.615-1.59-.615-.55 0-1 .06-1.35.18s-.665.255-.945.405c-.27.15-.535.285-.795.405s-.57.18-.93.18c-.32 0-.595-.075-.825-.225-.22-.16-.395-.355-.525-.585l-.84-1.455c.94-.83 1.98-1.445 3.12-1.845 1.15-.41 2.38-.615 3.69-.615.94 0 1.785.155 2.535.465.76.3 1.4.725 1.92 1.275.53.54.935 1.185 1.215 1.935s.42 1.57.42 2.46v9.72zm-5.34-2.835c.6 0 1.125-.105 1.575-.315s.905-.55 1.365-1.02v-2.16c-.93.04-1.695.12-2.295.24s-1.075.27-1.425.45-.595.385-.735.615c-.13.23-.195.48-.195.75 0 .53.145.905.435 1.125.29.21.715.315 1.275.315zm11.0719 2.835v-22.455001h4.65v8.550001c.58-.57 1.235-1.025 1.965-1.365.74-.35 1.605-.525 2.595-.525.81 0 1.56.175 2.25.525s1.285.865 1.785 1.545c.5.67.89 1.495 1.17 2.475.29.98.435 2.095.435 3.345 0 1.17-.165 2.25-.495 3.24-.32.99-.775 1.85-1.365 2.58-.58.73-1.28 1.3-2.1 1.71-.81.41-1.71.615-2.7.615-.46 0-.875-.045-1.245-.135-.36-.09-.695-.215-1.005-.375-.3-.17-.58-.37-.84-.6-.25-.23-.495-.48-.735-.75l-.165.78c-.07.32-.2.54-.39.66-.18.12-.42.18-.72.18zm7.59-12.3c-.34 0-.65.035-.93.105-.27.06-.525.15-.765.27-.23.12-.445.275-.645.465-.2.18-.4.39-.6.63v6.6c.35.39.73.665 1.14.825.41.15.84.225 1.29.225.43 0 .825-.085 1.185-.255s.67-.44.93-.81c.27-.38.48-.87.63-1.47s.225-1.33.225-2.19c0-.82-.06-1.51-.18-2.07s-.29-1.01-.51-1.35c-.21-.35-.465-.6-.765-.75s-.635-.225-1.005-.225zm17.0423-3.495c1.18 0 2.255.185 3.225.555s1.8.9 2.49 1.59c.7.69 1.24 1.53 1.62 2.52.39.98.585 2.085.585 3.315 0 1.24-.195 2.36-.585 3.36-.38.99-.92 1.835-1.62 2.535-.69.69-1.52 1.225-2.49 1.605-.97.37-2.045.555-3.225.555-1.19 0-2.275-.185-3.255-.555-.97-.38-1.81-.915-2.52-1.605-.7-.7-1.245-1.545-1.635-2.535-.38-1-.57-2.12-.57-3.36 0-1.23.19-2.335.57-3.315.39-.99.935-1.83 1.635-2.52.71-.69 1.55-1.22 2.52-1.59.98-.37 2.065-.555 3.255-.555zm0 12.585c1.07 0 1.855-.375 2.355-1.125.51-.76.765-1.91.765-3.45s-.255-2.685-.765-3.435c-.5-.75-1.285-1.125-2.355-1.125-1.1 0-1.905.375-2.415 1.125s-.765 1.895-.765 3.435.255 2.69.765 3.45c.51.75 1.315 1.125 2.415 1.125zm15.1224-12.345v9.87c0 .77.175 1.365.525 1.785s.865.63 1.545.63c.51 0 .985-.105 1.425-.315.45-.21.885-.505 1.305-.885v-11.085h4.65v15.555h-2.88c-.58 0-.96-.26-1.14-.78l-.285-.9c-.3.29-.61.555-.93.795-.32.23-.665.43-1.035.6-.36.16-.75.285-1.17.375-.42.1-.88.15-1.38.15-.85 0-1.605-.145-2.265-.435-.65-.3-1.2-.715-1.65-1.245s-.79-1.155-1.02-1.875-.345-1.51-.345-2.37v-9.87zm18.8123 15.795c-.74 0-1.395-.105-1.965-.315-.56-.22-1.035-.525-1.425-.915-.38-.4-.67-.88-.87-1.44s-.3-1.185-.3-1.875v-8.04h-1.32c-.24 0-.445-.075-.615-.225-.17-.16-.255-.39-.255-.69v-1.815l2.475-.48.915-3.795c.12-.48.46-.72 1.02-.72h2.43v4.545h3.78v3.18h-3.78v7.725c0 .36.085.66.255.9.18.23.435.345.765.345.17 0 .31-.015.42-.045.12-.04.22-.08.3-.12.09-.05.17-.09.24-.12.08-.04.17-.06.27-.06.14 0 .25.035.33.105.09.06.18.16.27.3l1.41 2.205c-.6.45-1.275.79-2.025 1.02-.75.22-1.525.33-2.325.33zm12.9525-.24v-15.555h2.88c.29 0 .53.065.72.195.2.13.34.325.42.585l.255.84c.26-.27.53-.515.81-.735.28-.23.58-.425.9-.585.33-.17.68-.3 1.05-.39.38-.1.795-.15 1.245-.15.94 0 1.715.245 2.325.735.6196.48 1.0896 1.125 1.4096 1.935.26-.48.575-.89.945-1.23.38-.34.785-.615 1.215-.825.44-.21.9-.365 1.38-.465.49-.1.975-.15 1.455-.15.89 0 1.68.135 2.37.405.69.26 1.265.645 1.725 1.155.47.5.825 1.12 1.065 1.86.24.73.36 1.56.36 2.49v9.885h-4.65v-9.885c0-1.61-.69-2.415-2.07-2.415-.63 0-1.155.21-1.575.63-.41.41-.615 1.005-.615 1.785v9.885h-4.6496v-9.885c0-.89-.175-1.515-.525-1.875s-.865-.54-1.545-.54c-.42 0-.82.095-1.2.285-.37.19-.72.445-1.05.765v11.25zm32.7996-15.795c1.03 0 1.97.16 2.82.48.86.32 1.595.785 2.205 1.395.62.61 1.1 1.36 1.44 2.25.35.88.525 1.88.525 3 0 .35-.015.635-.045.855s-.085.395-.165.525-.19.22-.33.27c-.13.05-.3.075-.51.075h-8.97c.15 1.3.545 2.245 1.185 2.835.64.58 1.465.87 2.475.87.54 0 1.005-.065 1.395-.195s.735-.275 1.035-.435c.31-.16.59-.305.84-.435.26-.13.53-.195.81-.195.37 0 .65.135.84.405l1.35 1.665c-.48.55-1 1-1.56 1.35-.55.34-1.12.61-1.71.81-.58.19-1.165.32-1.755.39-.58.08-1.135.12-1.665.12-1.09 0-2.115-.175-3.075-.525-.95-.36-1.785-.89-2.505-1.59-.71-.7-1.275-1.57-1.695-2.61-.41-1.04-.615-2.25-.615-3.63 0-1.04.175-2.025.525-2.955.36-.93.87-1.745 1.53-2.445.67-.7 1.475-1.255 2.415-1.665.95-.41 2.02-.615 3.21-.615zm.09 3.21c-.89 0-1.585.255-2.085.765-.5.5-.83 1.225-.99 2.175h5.805c0-.37-.05-.73-.15-1.08-.09-.35-.245-.66-.465-.93-.21-.28-.49-.505-.84-.675s-.775-.255-1.275-.255z" fill="#121111"/></svg>