<svg width="51" height="13" fill="none" xmlns="http://www.w3.org/2000/svg"><path d="M6.045 10.17c.35 0 .66-.03.93-.09s.525-.14.765-.24V8.182H6.66a.524.524 0 0 1-.375-.127.425.425 0 0 1-.135-.322V6.338h3.885v4.612c-.28.205-.572.383-.877.533a5.87 5.87 0 0 1-.968.36c-.34.095-.705.165-1.095.21-.385.044-.8.067-1.245.067-.8 0-1.54-.14-2.22-.42a5.518 5.518 0 0 1-1.77-1.17A5.518 5.518 0 0 1 .69 8.76a5.83 5.83 0 0 1-.42-2.228c0-.814.135-1.562.405-2.242A5.078 5.078 0 0 1 1.83 2.52a5.304 5.304 0 0 1 1.822-1.155C4.367 1.09 5.165.953 6.045.953c.455 0 .883.037 1.282.112.4.075.768.177 1.103.308a5.047 5.047 0 0 1 1.68 1.05L9.375 3.54a.801.801 0 0 1-.255.248c-.095.06-.2.09-.315.09a.878.878 0 0 1-.465-.15c-.2-.12-.39-.223-.57-.308a3.127 3.127 0 0 0-.54-.217 3.564 3.564 0 0 0-.585-.12 5.74 5.74 0 0 0-.69-.038c-.475 0-.902.085-1.282.255-.38.165-.706.4-.976.705-.264.305-.47.673-.615 1.103-.144.425-.217.9-.217 1.425 0 .58.08 1.095.24 1.545.16.45.38.83.66 1.14.285.31.62.547 1.005.712.39.16.815.24 1.275.24zm16.619-3.638c0 .79-.138 1.525-.413 2.206a5.308 5.308 0 0 1-1.147 1.777 5.3 5.3 0 0 1-1.793 1.178c-.695.284-1.467.427-2.317.427-.85 0-1.625-.143-2.325-.427-.7-.285-1.3-.678-1.8-1.178a5.405 5.405 0 0 1-1.155-1.777 5.92 5.92 0 0 1-.405-2.205c0-.79.135-1.526.405-2.206.275-.68.66-1.27 1.155-1.77.5-.5 1.1-.892 1.8-1.177.7-.285 1.475-.427 2.325-.427.85 0 1.622.144 2.317.434a5.3 5.3 0 0 1 1.793 1.178c.495.5.877 1.09 1.147 1.77.275.68.413 1.412.413 2.197zm-2.595 0c0-.54-.07-1.024-.21-1.455a3.054 3.054 0 0 0-.608-1.102c-.26-.3-.58-.53-.96-.69-.38-.16-.812-.24-1.297-.24-.49 0-.928.08-1.313.24-.38.16-.702.39-.967.69-.26.3-.46.667-.6 1.102-.14.43-.21.915-.21 1.455 0 .545.07 1.035.21 1.47.14.43.34.795.6 1.095.265.3.587.53.967.69a3.49 3.49 0 0 0 1.313.233c.485 0 .917-.077 1.297-.232.38-.16.7-.39.96-.69.265-.3.468-.666.608-1.096.14-.435.21-.925.21-1.47zM33.892 12h-1.965a.942.942 0 0 1-.548-.15.822.822 0 0 1-.292-.397l-.645-1.905h-4.155l-.645 1.905a.855.855 0 0 1-.825.547h-1.98l4.23-10.928h2.595L33.892 12zm-7.02-4.178h2.985L28.852 4.83c-.065-.19-.143-.412-.233-.668-.085-.26-.17-.54-.255-.84-.08.305-.162.588-.247.848-.085.26-.165.485-.24.675l-1.005 2.978zm10.744 2.153h4.05V12h-6.585V1.072h2.535v8.903zM49.25 3.293a.922.922 0 0 1-.24.27.512.512 0 0 1-.315.09.822.822 0 0 1-.375-.106 14.28 14.28 0 0 0-.45-.247 3.37 3.37 0 0 0-.57-.24 2.225 2.225 0 0 0-.735-.113c-.475 0-.83.103-1.065.308-.23.2-.345.473-.345.817 0 .22.07.403.21.548.14.145.322.27.547.375.23.105.49.202.78.292.295.085.595.183.9.293.305.105.603.23.893.375.295.145.555.33.78.555.23.225.415.5.555.825.14.32.21.708.21 1.163a3.8 3.8 0 0 1-.263 1.417c-.175.44-.43.825-.765 1.155a3.56 3.56 0 0 1-1.23.772c-.485.185-1.037.278-1.657.278-.34 0-.688-.035-1.043-.105a6.44 6.44 0 0 1-1.02-.293 6.18 6.18 0 0 1-.93-.457 3.952 3.952 0 0 1-.757-.585l.75-1.185a.659.659 0 0 1 .555-.3c.15 0 .3.047.45.143l.517.315c.195.114.418.22.668.314.25.095.545.143.885.143.46 0 .817-.1 1.072-.3.255-.205.383-.527.383-.968 0-.255-.07-.462-.21-.622a1.615 1.615 0 0 0-.555-.398 4.933 4.933 0 0 0-.773-.277c-.29-.08-.587-.167-.892-.263-.305-.1-.603-.22-.893-.36a2.983 2.983 0 0 1-.78-.562 2.72 2.72 0 0 1-.547-.87c-.14-.35-.21-.78-.21-1.29a3.098 3.098 0 0 1 .975-2.243c.32-.304.712-.547 1.177-.727.465-.185.998-.277 1.598-.277.335 0 .66.027.975.082.32.05.622.128.907.233.285.1.55.222.795.367.25.14.473.3.668.48l-.63 1.177z" fill="#121111"/></svg>