<svg width="80" height="13" fill="none" xmlns="http://www.w3.org/2000/svg"><path d="M4.515.953c.54 0 1.025.08 1.455.24.435.154.805.372 1.11.652.305.28.537.615.697 1.005.165.385.248.81.248 1.275 0 .4-.058.77-.173 1.11-.11.34-.262.665-.457.975a6.936 6.936 0 0 1-.682.893c-.256.285-.528.575-.818.87l-2.137 2.19a7.24 7.24 0 0 1 .81-.188c.27-.05.522-.075.757-.075h2.04c.25 0 .447.07.592.21a.703.703 0 0 1 .218.54V12H.495v-.75c0-.145.03-.3.09-.465.06-.165.165-.315.315-.45l3.15-3.173c.27-.27.505-.527.705-.772.2-.245.365-.485.495-.72.13-.24.228-.478.293-.713.064-.24.097-.492.097-.757 0-.435-.105-.768-.315-.998-.205-.235-.52-.352-.945-.352a1.442 1.442 0 0 0-1.17.578c-.08.115-.145.24-.195.375-.08.224-.183.387-.308.487-.12.1-.284.15-.494.15a2 2 0 0 1-.338-.03l-1.23-.218c.08-.545.232-1.02.458-1.425.23-.405.512-.742.847-1.012.34-.27.728-.47 1.162-.6A4.708 4.708 0 0 1 4.515.952zm12.436 5.58c0 .954-.102 1.782-.307 2.482-.205.7-.49 1.28-.855 1.74-.36.46-.79.802-1.29 1.027a3.85 3.85 0 0 1-1.613.338 3.85 3.85 0 0 1-1.612-.337 3.427 3.427 0 0 1-1.275-1.028c-.36-.46-.643-1.04-.848-1.74-.2-.7-.3-1.528-.3-2.483 0-.955.1-1.782.3-2.482.205-.7.488-1.28.848-1.74.36-.46.785-.8 1.275-1.02a3.85 3.85 0 0 1 1.612-.338c.58 0 1.118.113 1.613.338.5.22.93.56 1.29 1.02.365.46.65 1.04.855 1.74.205.7.307 1.527.307 2.482zm-2.4 0c0-.756-.047-1.373-.142-1.853-.095-.485-.223-.865-.383-1.14-.155-.275-.332-.462-.532-.563a1.294 1.294 0 0 0-.608-.157c-.205 0-.407.053-.607.158-.195.1-.37.287-.525.562-.15.275-.273.655-.368 1.14-.09.48-.135 1.098-.135 1.853 0 .76.045 1.38.135 1.86.095.48.218.86.368 1.14.155.274.33.465.525.57.2.1.402.15.607.15.205 0 .408-.05.608-.15.2-.105.377-.296.532-.57.16-.28.288-.66.383-1.14.095-.48.142-1.1.142-1.86zm4.441 3.787h2.1V4.807c0-.27.008-.552.023-.847l-1.238 1.027a.867.867 0 0 1-.24.143.778.778 0 0 1-.585-.045.798.798 0 0 1-.225-.188l-.735-.975 3.405-2.857h1.92v9.255h1.8V12h-6.225v-1.68zm11.011 1.8c-.58 0-1.11-.077-1.59-.232a3.788 3.788 0 0 1-1.237-.653 3.012 3.012 0 0 1-.795-1.027 3.142 3.142 0 0 1-.277-1.335c0-.295.032-.573.097-.833a2.35 2.35 0 0 1 .322-.72c.15-.22.34-.415.57-.585.235-.17.518-.313.848-.428-.5-.225-.872-.537-1.117-.937-.24-.4-.36-.88-.36-1.44 0-.425.087-.818.262-1.178.175-.364.42-.68.735-.944a3.514 3.514 0 0 1 1.117-.623c.436-.155.91-.233 1.425-.233s.988.078 1.418.233c.435.15.81.357 1.125.623.315.264.56.58.735.944.175.36.263.753.263 1.178 0 .56-.123 1.04-.368 1.44-.245.4-.615.712-1.11.938.325.115.602.257.832.427.235.17.425.365.57.585.15.215.26.455.33.72.07.26.105.538.105.833 0 .49-.094.934-.285 1.335-.184.4-.45.742-.794 1.027a3.7 3.7 0 0 1-1.23.652c-.48.155-1.01.233-1.59.233zm0-1.755c.26 0 .485-.04.675-.12.19-.08.345-.188.465-.322.125-.14.215-.303.27-.488.06-.19.09-.393.09-.607 0-.236-.024-.45-.075-.646a1.216 1.216 0 0 0-.247-.495 1.095 1.095 0 0 0-.465-.322c-.19-.08-.428-.12-.713-.12s-.524.04-.72.12c-.19.075-.342.183-.457.322-.115.135-.198.3-.248.495-.05.195-.075.41-.075.646 0 .215.028.417.083.607.06.185.15.348.27.487.125.135.28.243.465.323.19.08.417.12.682.12zm0-4.89c.26 0 .473-.042.638-.127a1.03 1.03 0 0 0 .39-.338c.095-.14.16-.3.195-.48s.053-.365.053-.555c0-.17-.023-.335-.068-.495-.045-.16-.12-.3-.225-.42a1.06 1.06 0 0 0-.398-.3 1.372 1.372 0 0 0-.585-.112 1.39 1.39 0 0 0-.592.112c-.16.075-.293.175-.398.3-.1.12-.172.26-.217.42a1.82 1.82 0 0 0-.067.495c0 .19.017.375.052.555.035.18.1.34.195.48.095.14.225.253.39.338.165.085.378.127.637.127zm7.702 1.028h4.05v1.874h-4.05V6.502zM49.622.953c.54 0 1.025.08 1.455.24.435.154.805.372 1.11.652.305.28.538.615.698 1.005.165.385.247.81.247 1.275 0 .4-.057.77-.172 1.11a4.33 4.33 0 0 1-.458.975 6.936 6.936 0 0 1-.682.893c-.255.285-.528.575-.818.87l-2.137 2.19a7.24 7.24 0 0 1 .81-.188c.27-.05.522-.075.757-.075h2.04c.25 0 .448.07.593.21a.703.703 0 0 1 .217.54V12h-7.68v-.75c0-.145.03-.3.09-.465.06-.165.165-.315.315-.45l3.15-3.173c.27-.27.505-.527.705-.772.2-.245.365-.485.495-.72.13-.24.228-.478.293-.713.065-.24.097-.492.097-.757 0-.435-.105-.768-.315-.998-.205-.235-.52-.352-.945-.352a1.442 1.442 0 0 0-1.17.578c-.08.115-.145.24-.195.375-.08.224-.182.387-.307.487-.12.1-.285.15-.495.15a2 2 0 0 1-.338-.03l-1.23-.218c.08-.545.233-1.02.458-1.425.23-.405.512-.742.847-1.012.34-.27.728-.47 1.163-.6a4.708 4.708 0 0 1 1.402-.203zm12.436 5.58c0 .954-.102 1.782-.307 2.482-.205.7-.49 1.28-.855 1.74-.36.46-.79.802-1.29 1.027a3.85 3.85 0 0 1-1.613.338 3.85 3.85 0 0 1-1.612-.337 3.427 3.427 0 0 1-1.275-1.028c-.36-.46-.643-1.04-.848-1.74-.2-.7-.3-1.528-.3-2.483 0-.955.1-1.782.3-2.482.205-.7.488-1.28.848-1.74.36-.46.785-.8 1.275-1.02a3.85 3.85 0 0 1 1.612-.338c.58 0 1.118.113 1.613.338.5.22.93.56 1.29 1.02.365.46.65 1.04.855 1.74.205.7.307 1.527.307 2.482zm-2.4 0c0-.756-.047-1.373-.142-1.853-.095-.485-.223-.865-.383-1.14-.155-.275-.332-.462-.532-.563a1.294 1.294 0 0 0-.608-.157c-.205 0-.407.053-.607.158-.195.1-.37.287-.525.562-.15.275-.273.655-.368 1.14-.09.48-.135 1.098-.135 1.853 0 .76.045 1.38.135 1.86.095.48.218.86.368 1.14.155.274.33.465.525.57.2.1.402.15.607.15.205 0 .408-.05.608-.15.2-.105.377-.296.532-.57.16-.28.288-.66.383-1.14.095-.48.142-1.1.142-1.86zM64.1 10.32h2.1V4.807c0-.27.007-.552.022-.847l-1.237 1.027a.867.867 0 0 1-.24.143.778.778 0 0 1-.585-.045.798.798 0 0 1-.225-.188l-.735-.975 3.405-2.857h1.92v9.255h1.8V12H64.1v-1.68zm10.5-2.58c-.354 0-.71-.063-1.064-.188a2.968 2.968 0 0 1-.968-.584 2.983 2.983 0 0 1-.697-.983c-.18-.395-.27-.863-.27-1.403 0-.494.09-.962.27-1.402.185-.44.445-.825.78-1.155.34-.33.745-.59 1.215-.78.47-.195.995-.293 1.575-.293.59 0 1.117.09 1.582.27a3.241 3.241 0 0 1 1.92 1.92c.175.446.263.938.263 1.478 0 .36-.03.697-.09 1.013a5.377 5.377 0 0 1-.24.907c-.1.285-.223.56-.368.825-.145.26-.307.518-.487.772l-2.355 3.345c-.1.146-.258.268-.473.368-.215.1-.457.15-.727.15H72.32l3.465-4.14a21.879 21.879 0 0 0 .382-.48c-.225.12-.47.21-.735.27a3.76 3.76 0 0 1-.832.09zm2.386-3.33c0-.265-.04-.498-.12-.698a1.33 1.33 0 0 0-.818-.817 1.874 1.874 0 0 0-.637-.105c-.235 0-.445.042-.63.127a1.36 1.36 0 0 0-.465.338 1.585 1.585 0 0 0-.293.518 2.005 2.005 0 0 0-.097.637c0 1.09.505 1.635 1.515 1.635.495 0 .875-.147 1.14-.442.27-.3.405-.698.405-1.193z" fill="#121111"/></svg>