<svg fill="none" height="13" viewBox="0 0 81 13" width="81" xmlns="http://www.w3.org/2000/svg"><g fill="#121111"><path d="m7.3425 10.1025c.225 0 .4.0625.525.1875.13.125.195.29.195.495v1.215h-7.545v-.675c0-.13.0275-.27.0825-.42.055-.155.1475-.295.2775-.42l3.225-3.2325c.275-.275.5175-.5375.7275-.7875.21-.255.385-.5025.525-.7425.14-.245.245-.4925.315-.7425s.105-.5125.105-.7875c0-.485-.125-.8525-.375-1.1025-.25-.255-.6025-.3825-1.0575-.3825-.2 0-.385.03-.555.09-.165.055-.315.1325-.45.2325-.13.1-.2425.2175-.3375.3525s-.165.2825-.21.4425c-.09.25-.2125.4175-.3675.5025-.15.08-.365.0975-.645.0525l-1.095-.195c.08-.53.23-.995.45-1.395s.495-.7325.825-.9975.7075-.4625 1.1325-.5925c.425-.135.8825-.202501 1.3725-.202501.515 0 .9825.077501 1.4025.232501.425.15.7875.3625 1.0875.6375.3.27.5325.5975.6975.9825s.2475.81.2475 1.275c0 .4-.0575.77-.1725 1.11s-.2725.665-.4725.975c-.195.305-.4225.6025-.6825.8925s-.535.5825-.825.8775l-2.31 2.3625c.255-.075.5075-.1325.7575-.1725.25-.045.485-.0675.705-.0675zm9.5712-3.5475c0 .95-.1025 1.775-.3075 2.475s-.4875 1.28-.8475 1.74c-.36.455-.7875.795-1.2825 1.02-.49.22-1.02.33-1.59.33s-1.1-.11-1.59-.33c-.49-.225-.9125-.565-1.2675-1.02-.35503-.46-.63503-1.04-.84003-1.74-.2-.7-.3-1.525-.3-2.475s.1-1.7725.3-2.4675c.205-.7.485-1.2775.84003-1.7325.355-.46.7775-.8 1.2675-1.02.49-.225 1.02-.337501 1.59-.337501s1.1.112501 1.59.337501c.495.22.9225.56 1.2825 1.02.36.455.6425 1.0325.8475 1.7325.205.695.3075 1.5175.3075 2.4675zm-2.1375 0c0-.77-.055-1.405-.165-1.905-.105-.5-.245-.895-.42-1.185s-.3775-.4925-.6075-.6075c-.225-.115-.4575-.1725-.6975-.1725s-.4725.0575-.6975.1725c-.22.115-.4175.3175-.5925.6075-.17.29-.3075.685-.4125 1.185s-.1575 1.135-.1575 1.905c0 .775.0525 1.4125.1575 1.9125s.2425.895.4125 1.185c.175.29.3725.4925.5925.6075.225.115.4575.1725.6975.1725s.4725-.0575.6975-.1725c.23-.115.4325-.3175.6075-.6075s.315-.685.42-1.185c.11-.5.165-1.1375.165-1.9125zm10.1411 3.9225v1.5225h-6.105v-1.5225h2.16v-5.955c0-.13.0025-.2625.0075-.3975s.0125-.2725.0225-.4125l-1.425 1.185c-.1.075-.1975.1225-.2925.1425s-.185.0225-.27.0075c-.085-.02-.16-.05-.225-.09-.065-.045-.115-.09-.15-.135l-.6525-.8775 3.345-2.835h1.7025v9.3675zm3.3612-6.0675c0 .575.14 1.0125.42 1.3125.285.3.7.45 1.245.45.275 0 .52-.0425.735-.1275.22-.09.4025-.2125.5475-.3675s.255-.34.33-.555c.08-.215.12-.45.12-.705 0-.285-.0425-.535-.1275-.75-.085-.22-.205-.405-.36-.555-.15-.15-.33-.2625-.54-.3375-.21-.08-.4425-.12-.6975-.12-.26 0-.4925.045-.6975.135-.205.085-.38.2075-.525.3675-.145.155-.2575.34-.3375.555-.075.215-.1125.4475-.1125.6975zm2.1825 3.4125c.075-.095.1475-.1875.2175-.2775s.14-.18.21-.27c-.24.14-.5025.2475-.7875.3225-.28.07-.5775.105-.8925.105-.365 0-.7275-.065-1.0875-.195-.355-.13-.675-.325-.96-.585s-.515-.585-.69-.975c-.175-.395-.2625-.8575-.2625-1.3875 0-.485.09-.9425.27-1.3725.18-.435.435-.8125.765-1.1325.33-.325.725-.5825 1.185-.7725.465-.19.98-.285001 1.545-.285001.57 0 1.0825.090001 1.5375.270001.455.175.84.4225 1.155.7425s.5575.7025.7275 1.1475c.17.44.255.925.255 1.455 0 .345-.0275.6725-.0825.9825s-.135.605-.24.885-.2325.5525-.3825.8175c-.145.265-.31.525-.495.78l-2.4225 3.4575c-.1.13-.245.24-.435.33-.185.09-.3975.135-.6375.135h-1.905zm7.9708-1.215h3.96v1.695h-3.96zm15.3802 3.495c.225 0 .4.0625.525.1875.13.125.195.29.195.495v1.215h-7.545v-.675c0-.13.0275-.27.0825-.42.055-.155.1475-.295.2775-.42l3.225-3.2325c.275-.275.5175-.5375.7275-.7875.21-.255.385-.5025.525-.7425.14-.245.245-.4925.315-.7425s.105-.5125.105-.7875c0-.485-.125-.8525-.375-1.1025-.25-.255-.6025-.3825-1.0575-.3825-.2 0-.385.03-.555.09-.165.055-.315.1325-.45.2325-.13.1-.2425.2175-.3375.3525s-.165.2825-.21.4425c-.09.25-.2125.4175-.3675.5025-.15.08-.365.0975-.645.0525l-1.095-.195c.08-.53.23-.995.45-1.395s.495-.7325.825-.9975.7075-.4625 1.1325-.5925c.425-.135.8825-.202501 1.3725-.202501.515 0 .9825.077501 1.4025.232501.425.15.7875.3625 1.0875.6375.3.27.5325.5975.6975.9825s.2475.81.2475 1.275c0 .4-.0575.77-.1725 1.11s-.2725.665-.4725.975c-.195.305-.4225.6025-.6825.8925s-.535.5825-.825.8775l-2.31 2.3625c.255-.075.5075-.1325.7575-.1725.25-.045.485-.0675.705-.0675zm9.5712-3.5475c0 .95-.1025 1.775-.3075 2.475s-.4875 1.28-.8475 1.74c-.36.455-.7875.795-1.2825 1.02-.49.22-1.02.33-1.59.33s-1.1-.11-1.59-.33c-.49-.225-.9125-.565-1.2675-1.02-.355-.46-.635-1.04-.84-1.74-.2-.7-.3-1.525-.3-2.475s.1-1.7725.3-2.4675c.205-.7.485-1.2775.84-1.7325.355-.46.7775-.8 1.2675-1.02.49-.225 1.02-.337501 1.59-.337501s1.1.112501 1.59.337501c.495.22.9225.56 1.2825 1.02.36.455.6425 1.0325.8475 1.7325.205.695.3075 1.5175.3075 2.4675zm-2.1375 0c0-.77-.055-1.405-.165-1.905-.105-.5-.245-.895-.42-1.185s-.3775-.4925-.6075-.6075c-.225-.115-.4575-.1725-.6975-.1725s-.4725.0575-.6975.1725c-.22.115-.4175.3175-.5925.6075-.17.29-.3075.685-.4125 1.185s-.1575 1.135-.1575 1.905c0 .775.0525 1.4125.1575 1.9125s.2425.895.4125 1.185c.175.29.3725.4925.5925.6075.225.115.4575.1725.6975.1725s.4725-.0575.6975-.1725c.23-.115.4325-.3175.6075-.6075s.315-.685.42-1.185c.11-.5.165-1.1375.165-1.9125zm9.6687 3.5475c.225 0 .4.0625.525.1875.13.125.195.29.195.495v1.215h-7.545v-.675c0-.13.0275-.27.0825-.42.055-.155.1475-.295.2775-.42l3.225-3.2325c.275-.275.5175-.5375.7275-.7875.21-.255.385-.5025.525-.7425.14-.245.245-.4925.315-.7425s.105-.5125.105-.7875c0-.485-.125-.8525-.375-1.1025-.25-.255-.6025-.3825-1.0575-.3825-.2 0-.385.03-.555.09-.165.055-.315.1325-.45.2325-.13.1-.2425.2175-.3375.3525s-.165.2825-.21.4425c-.09.25-.2125.4175-.3675.5025-.15.08-.365.0975-.645.0525l-1.095-.195c.08-.53.23-.995.45-1.395s.495-.7325.825-.9975.7075-.4625 1.1325-.5925c.425-.135.8825-.202501 1.3725-.202501.515 0 .9825.077501 1.4025.232501.425.15.7875.3625 1.0875.6375.3.27.5325.5975.6975.9825s.2475.81.2475 1.275c0 .4-.0575.77-.1725 1.11s-.2725.665-.4725.975c-.195.305-.4225.6025-.6825.8925s-.535.5825-.825.8775l-2.31 2.3625c.255-.075.5075-.1325.7575-.1725.25-.045.485-.0675.705-.0675zm9.5711-3.5475c0 .95-.1025 1.775-.3075 2.475s-.4875 1.28-.8475 1.74c-.36.455-.7875.795-1.2825 1.02-.49.22-1.02.33-1.59.33s-1.1-.11-1.59-.33c-.49-.225-.9125-.565-1.2675-1.02-.355-.46-.635-1.04-.84-1.74-.2-.7-.3-1.525-.3-2.475s.1-1.7725.3-2.4675c.205-.7.485-1.2775.84-1.7325.355-.46.7775-.8 1.2675-1.02.49-.225 1.02-.337501 1.59-.337501s1.1.112501 1.59.337501c.495.22.9225.56 1.2825 1.02.36.455.6425 1.0325.8475 1.7325.205.695.3075 1.5175.3075 2.4675zm-2.1375 0c0-.77-.055-1.405-.165-1.905-.105-.5-.245-.895-.42-1.185s-.3775-.4925-.6075-.6075c-.225-.115-.4575-.1725-.6975-.1725s-.4725.0575-.6975.1725c-.22.115-.4175.3175-.5925.6075-.17.29-.3075.685-.4125 1.185s-.1575 1.135-.1575 1.905c0 .775.0525 1.4125.1575 1.9125s.2425.895.4125 1.185c.175.29.3725.4925.5925.6075.225.115.4575.1725.6975.1725s.4725-.0575.6975-.1725c.23-.115.4325-.3175.6075-.6075s.315-.685.42-1.185c.11-.5.165-1.1375.165-1.9125z"/><path d="m7.8675 10.29-.07072.0707.00141.0014zm.195 1.71v.1h.1v-.1zm-7.545 0h-.1v.1h.1zm.0825-1.095.093893.0344.00035-.001zm.2775-.42.069326.0721.001467-.0015zm3.225-3.2325-.07071-.07071-.00008.00008zm.7275-.7875.07657.06432.00062-.00075zm.525-.7425.08638.05039.00044-.00078zm.045-2.6325-.07141.07001.0007.0007zm-1.6125-.2925.03163.09488.00165-.00058zm-.45.2325-.05953-.08037-.00144.00111zm-.3375.3525-.08178-.05755zm-.21.4425.09433.03396.00194-.00689zm-.3675.5025.04706.08824.00102-.00056zm-.645.0525-.01753.09846.00166.00027zm-1.095-.195-.09888-.01493-.014536.09631.095884.01707zm1.275-2.3925-.06261-.07797zm1.1325-.5925.02925.09563.00102-.00032zm2.775.03-.03463.09382.00135.00048zm1.0875.6375-.06757.07372.00067.00061zm.6975.9825.09192-.03939zm.075 2.385-.09473-.03204zm-.4725.975-.08403-.05421-.00022.00034zm-.6825.8925-.07446-.06675zm-.825.8775-.07131-.0701-.00019.00019zm-2.31 2.3625-.0715-.0699-.26788.274.3676-.1082zm.7575-.1725.0158.0988.00192-.0004zm3.15.0325c.20607 0 .35281.0567.45429.1582l.14142-.1414c-.14852-.1485-.35178-.2168-.59571-.2168zm.45569.1596c.10764.1035.16431.241.16431.4229h.2c0-.2281-.07333-.4206-.22569-.5671zm.16431.4229v1.215h.2v-1.215zm.1 1.115h-7.545v.2h7.545zm-7.445.1v-.675h-.2v.675zm0-.675c0-.1159.024537-.2442.076388-.3856l-.187776-.0688c-.058149.1586-.088612.3103-.088612.4544zm.076743-.3866c.049317-.1389.132669-.266.252568-.3813l-.138622-.1442c-.1401.1347-.241749.2876-.302432.4587zm.25405-.3828 3.224997-3.23247-.14158-.14126-3.225003 3.23253zm3.224917-3.23239c.27667-.27667.52119-.54131.73336-.79389l-.15314-.12864c-.20783.24742-.44831.50778-.72164.78111zm.73398-.79464c.2128-.25839.39104-.51028.53419-.75568l-.17276-.10078c-.13685.2346-.30861.47771-.51581.72932zm.53463-.75646c.14373-.25152.25208-.50658.32448-.76515l-.1926-.05392c-.0676.24143-.16925.48137-.30552.71985zm.32448-.76515c.0726-.25928.1087-.53089.1087-.81446h-.2c0 .26642-.03389.51982-.1013.76054zm.1087-.81446c0-.50144-.12944-.89836-.40429-1.17321l-.14142.14142c.22515.22515.34571.56323.34571 1.03179zm-.40359-1.17251c-.27362-.27909-.6548-.41249-1.12891-.41249v.2c.43589 0 .75971.1216.98609.35251zm-1.12891-.41249c-.2101 0-.40649.03154-.58828.0957l.06656.1886c.15821-.05584.33182-.0843.52172-.0843zm-.58662.09513c-.17465.05822-.33413.14052-.4779.24701l.11904.16072c.12623-.09351.26675-.16621.4221-.21799zm-.47935.24811c-.13804.10619-.25755.23102-.35831.37421l.16356.1151c.08924-.12681.19474-.23698.31669-.33079zm-.35831.37421c-.10157.14433-.17644.30215-.22449.47298l.19254.05414c.04195-.14917.10708-.28635.19551-.41202zm-.22231.46618c-.08577.23825-.19641.38009-.32149.44869l.09616.17536c.18492-.1014.31928-.29456.41351-.55631zm-.32047.44813c-.12161.06486-.31051.08565-.58207.04201l-.03174.19746c.28844.04636.52954.03215.70793-.06299zm-.58041.04229-1.094998-.195-.035064.1969 1.095002.195zm-1.01365-.08163c.078539-.52032.22532-.97369.43874-1.36173l-.17524-.09638c-.226582.41196-.379799.88859-.46126 1.42826zm.43874-1.36173c.2142-.38944.48098-.71154.79999-.96772l-.12522-.15594c-.34099.27382-.6242.61672-.85001 1.02728zm.79999-.96772c.31961-.25665.68566-.44837 1.09914-.57484l-.0585-.19126c-.43652.13353-.82547.33681-1.16586.61016zm1.10016-.57516c.4143-.1316.86149-.19781 1.34223-.19781v-.200001c-.49926 0-.96707.068792-1.40277.207191zm1.34223-.19781c.50494 0 .96049.07597 1.36788.22631l.06924-.18763c-.43261-.159652-.91206-.238681-1.43712-.238681zm1.36922.2268c.41367.146.76415.35195 1.05321.61691l.13514-.14743c-.31094-.28503-.68546-.50408-1.12179-.65808zm1.05388.61753c.28882.25993.51297.57537.67249.94756l.18383-.07878c-.17049-.39781-.41134-.73738-.72252-1.01744zm.67249.94756c.1591.37125.23941.78266.23941 1.23561h.2c0-.47705-.08469-.91564-.25558-1.31439zm.23941 1.23561c0 .39034-.05609.74939-.16723 1.07796l.18946.06408c.11887-.35143.17777-.73238.17777-1.14204zm-.16723 1.07796c-.11229.33198-.26614.64956-.4618.95283l.16806.10842c.20434-.31673.36549-.64915.4832-.99717zm-.46202.95317c-.19188.30012-.41604.59334-.67271.87962l.14892.1335c.26334-.29372.49417-.5955.69229-.90538zm-.67271.87962c-.25891.28879-.53286.58017-.82185.87415l.14262.1402c.29101-.29602.56706-.58964.82815-.88085zm-.82204.87434-2.31 2.36251.143.1398 2.31-2.36249zm-2.21028 2.52831c.25112-.0738.49948-.1304.74508-.1697l-.0316-.1974c-.2544.0407-.51104.0991-.76992.1753zm.747-.17c.24502-.0441.47405-.0659.68728-.0659v-.2c-.22677 0-.46774.0232-.72272.0691zm.68728-.0659h2.445v-.2h-2.445zm11.7087-1.1725-.096-.02811zm-.8475 1.74.0784.062.0003-.0004zm-1.2825 1.02.0409.0912.0005-.0002zm-3.18 0-.0418.0909.0008.0003zm-1.2675-1.02-.0792.0611.00033.0004zm-.84003-1.74-.09615.02747.00018.00064zm0-4.9425-.09597-.02811-.00013.00045zm.84003-1.7325.0788.06151.0003-.00041zm1.2675-1.02.0409.09123.0008-.00035zm3.18 0-.0418.09088.0012.0005zm1.2825 1.02-.0788.06163.0004.00042zm.8475 1.7325-.096.0281.0001.00019zm-1.995.5625-.0979.02055.0002.00094zm-.42-1.185-.0856.05167zm-.6075-.6075-.0455.08905.0008.00039zm-1.395 0-.0455-.08905-.0009.00043zm-.5925.6075-.0857-.05167-.0006.0011zm-.4125 1.185.0978.02055zm0 3.8175-.0979.02055zm.4125 1.185-.0863.05058.0007.00109zm.5925.6075-.0464.0886.0009.0004zm1.395 0-.0448-.0894-.0007.0004zm1.0275-1.7925-.0977-.02149-.0002.00094zm2.2025-1.9125c0 .94319-.1018 1.7583-.3035 2.44689l.1919.05622c.2084-.71141.3116-1.5463.3116-2.50311zm-.3035 2.44689c-.2023.69076-.4798 1.25861-.8303 1.70651l.1575.1232c.3695-.4721.657-1.06425.8647-1.77349zm-.8299 1.70611c-.3509.4433-.7659.773-1.2455.991l.0828.182c.5104-.232.9503-.5823 1.3195-1.049zm-1.2451.9908c-.4763.2138-.9923.3212-1.549.3212v.2c.5832 0 1.1273-.1126 1.6309-.3388zm-1.549.3212c-.5568 0-1.0727-.1074-1.5491-.3212l-.0819.1824c.5037.2262 1.0477.3388 1.631.3388zm-1.5483-.3209c-.4744-.2178-.8845-.5473-1.2304-.9906l-.15767.123c.36417.4667.79907.8172 1.30457 1.0494zm-1.2301-.9902c-.34569-.448-.6208-1.01602-.82316-1.70701l-.19194.05622c.20764.70901.49253 1.30099.85681 1.77299zm-.82298-1.70637c-.1968-.68883-.29615-1.50416-.29615-2.44753h-.2c0 .95663.10066 1.7913.30385 2.50247zm-.29615-2.44753c0-.94339.09935-1.75614.2961-2.43985l-.1922-.05531c-.20325.7063-.3039 1.53855-.3039 2.49516zm.29597-2.4394c.20235-.69095.47739-1.25629.82286-1.69909l-.15767-.12302c-.36452.4672-.64948 1.05686-.85713 1.7659zm.82316-1.6995c.3458-.44806.7556-.77716 1.2293-.98987l-.0819-.18246c-.5062.22729-.9415.57819-1.30569 1.05013zm1.2301-.99022c.4762-.21865.9918-.32838 1.5483-.32838v-.200001c-.5836 0-1.1279.115271-1.6318.346621zm1.5483-.32838c.5564 0 1.0721.10973 1.5482.32838l.0835-.18176c-.5038-.23135-1.0482-.346621-1.6317-.346621zm1.5494.32888c.4788.21284.8936.5421 1.2443.99025l.1575-.12326c-.3693-.47185-.8095-.82259-1.3206-1.04975zm1.2447.99067c.3502.44269.6276 1.00784.8299 1.69855l.1919-.05621c-.2077-.70928-.4953-1.29913-.865-1.76644zm.83 1.69874c.2016.68347.3034 1.49599.3034 2.43921h.2c0-.95678-.1032-1.78926-.3116-2.49579zm-1.6341 2.43921c0-.774-.0552-1.41685-.1674-1.92649l-.1953.04298c.1079.49036.1627 1.11751.1627 1.88351zm-.1672-1.92555c-.1062-.50598-.2493-.91293-.4322-1.21612l-.1712.10334c.167.27681.304.65986.4077 1.15388zm-.4322-1.21612c-.1818-.30117-.3969-.51951-.6484-.64527l-.0894.17888c.2084.10424.3983.2909.5666.56973zm-.6476-.64487c-.2383-.12181-.4864-.18346-.743-.18346v.2c.2233 0 .4403.05335.652.16154zm-.743-.18346c-.2567 0-.5047.06165-.743.18346l.091.17808c.2117-.10819.4286-.16154.652-.16154zm-.7439.18388c-.2411.12604-.4506.34427-.6317.64445l.1712.10334c.1688-.27983.3543-.46659.5532-.57055zm-.6324.64555c-.1775.30283-.3179.70935-.4241 1.21502l.1957.0411c.1038-.49433.2385-.87781.4009-1.15498zm-.4241 1.21502c-.1069.50923-.1596 1.15174-.1596 1.92555h.2c0-.76619.0523-1.39368.1553-1.88445zm-.1596 1.92555c0 .77875.0527 1.42378.1596 1.93305l.1957-.0411c-.103-.49073-.1553-1.1207-.1553-1.89195zm.1596 1.93305c.1062.50567.2466.91219.4241 1.21502l.1725-.10114c-.1624-.27717-.2971-.66065-.4009-1.15498zm.4248 1.21612c.1811.30013.3906.51843.6317.64443l.0927-.1772c-.1989-.104-.3844-.29075-.5532-.57057zm.6326.64483c.2383.1219.4863.1835.743.1835v-.2c-.2234 0-.4403-.0534-.652-.1615zm.743.1835c.2566 0 .5047-.0616.743-.1835l-.091-.178c-.2117.1081-.4287.1615-.652.1615zm.7422-.1831c.2515-.1257.4666-.3441.6484-.64523l-.1712-.10334c-.1683.27883-.3582.46547-.5666.56977zm.6484-.64523c.1829-.30319.326-.71014.4322-1.21612l-.1957-.0411c-.1037.49402-.2407.87707-.4077 1.15388zm.432-1.21518c.1122-.50967.1674-1.15505.1674-1.93399h-.2c0 .77106-.0548 1.40068-.1627 1.89101zm10.2085 1.98851h.1v-.1h-.1zm0 1.5225v.1h.1v-.1zm-6.105 0h-.1v.1h.1zm0-1.5225v-.1h-.1v.1zm2.16 0v.1h.1v-.1zm.0075-6.3525-.0999-.0037zm.0225-.4125.0998.00712.0167-.23403-.1804.15002zm-1.425 1.185.0601.0801.0039-.00321zm-.5625.15-.0229.0975.0056.00098zm-.225-.09-.057.08234.0046.00283zm-.15-.135-.0802.05968.0013.00171zm-.6525-.8775-.0646-.07629-.0716.06067.056.07529zm3.345-2.835v-.1h-.0366l-.028.02371zm1.7025 0h.1v-.1h-.1zm0 9.3675h-.1v.1h.1zm1.7825 0v1.5225h.2v-1.5225zm.1 1.4225h-6.105v.2h6.105zm-6.005.1v-1.5225h-.2v1.5225zm-.1-1.4225h2.16v-.2h-2.16zm2.26-.1v-5.955h-.2v5.955zm0-5.955c0-.12872.0025-.25998.0075-.3938l-.1999-.0074c-.005.13618-.0076.26992-.0076.4012zm.0075-.3938c.0049-.13381.0124-.27017.0223-.40908l-.1995-.01424c-.0101.14109-.0176.27973-.0227.41592zm-.1414-.49309-1.425 1.185.1279.15378 1.425-1.185zm-1.4211 1.18189c-.0915.06867-.1758.10838-.2531.12464l.0412.19571c.1128-.02374.2235-.07902.3319-.16035zm-.2531.12464c-.084.0177-.161.0194-.232.00688l-.0347.19696c.099.01748.202.01418.3079-.00813zm-.2265.00802c-.076-.0179-.1408-.04418-.1954-.07783l-.1049.17034c.0754.04635.1606.08007.2545.10217zm-.1909-.07488c-.0597-.04128-.1011-.07962-.128-.11417l-.1579.12278c.0431.05545.1016.10711.172.15583zm-.1267-.11245-.6525-.8775-.1605.11934.6525.8775zm-.6681-.74154 3.345-2.835-.1293-.15258-3.345 2.835zm3.2803-2.81129h1.7025v-.2h-1.7025zm1.6025-.1v9.3675h.2v-9.3675zm.1 9.4675h1.8825v-.2h-1.8825zm5.6637-4.855-.0731.06823.0006.00064zm1.98.3225.0368.093.0011-.00045zm.5475-.3675-.073-.06832zm.33-.555-.0937-.03488-.0007.00194zm-.0075-1.455-.0933.03604.0003.00073zm-.36-.555-.0707.07072.0012.00114zm-.54-.3375-.0356.09347.002.0007zm-1.395.015.0383.09239.0019-.00083zm-.525.3675.0731.06832.001-.00117zm-.3375.555-.0937-.03488-.0007.00194zm2.07 4.11.0775.06327.001-.00131zm.4275-.5475.079.06139-.1294-.14777zm-.7875.3225.0243.09702.0012-.00031zm-1.98-.09-.0344.0939.0005.00016zm-.96-.585.0674-.07388zm-.69-.975-.0914.04051.0002.00043zm.0075-2.76.0923.03861.0001-.00038zm.765-1.1325.0696.07179.0006-.00054zm1.185-.7725-.0378-.09257-.0004.00014zm3.0825-.015-.0368.09299.0009.00034zm1.155.7425.0713-.07015zm.7275 1.1475-.0934.03569.0001.00035zm.1725 2.4375.0985.01747zm-.24.885-.0936-.03511zm-.3825.8175-.087-.04927-.0007.00127zm-.495.78-.0809-.05873-.001.00135zm-2.4225 3.4575.0794.061.0025-.0036zm-.435.33-.0428-.0904-.0009.0005zm-2.5425.135-.0774-.0633-.1334.1633h.2108zm1.13-7.59c0 .59013.1437 1.0559.4469 1.38073l.1462-.13646c-.2568-.27517-.3931-.6844-.3931-1.24427zm.4475 1.38137c.3094.32563.7542.48113 1.3175.48113v-.2c-.5267 0-.9118-.1445-1.1725-.41888zm1.3175.48113c.2853 0 .5431-.04409.7718-.1345l-.0736-.186c-.2013.07959-.4334.1205-.6982.1205zm.7729-.13495c.2317-.09479.4267-.22502.5826-.39173l-.146-.13664c-.1341.14329-.3041.25806-.5123.34327zm.5826-.39173c.1552-.1659.2722-.3632.3514-.59038l-.1888-.06588c-.0708.20282-.1738.37552-.3086.51962zm.3507-.58845c.0846-.22733.1263-.47429.1263-.73987h-.2c0 .24442-.0383.46746-.1137.67013zm.1263-.73987c0-.29475-.0439-.55769-.1345-.78677l-.186.07354c.0795.20091.1205.43798.1205.71323zm-.1342-.78604c-.0897-.23224-.2174-.42983-.3837-.59082l-.1391.14372c.1436.13901.256.31142.3362.51918zm-.3826-.58967c-.161-.16101-.3538-.28125-.5771-.36096l-.0672.18834c.1968.07029.3639.17505.5029.31404zm-.5751-.36024c-.2228-.08487-.4675-.12655-.7331-.12655v.2c.2445 0 .4647.03832.6619.11345zm-.7331-.12655c-.2716 0-.5181.04705-.7377.14344l.0804.18312c.1905-.08361.4089-.12656.6573-.12656zm-.7358.14263c-.2182.09049-.4056.22146-.5608.39272l.1482.1343c.1348-.14874.2975-.26277.4892-.34228zm-.5597.39155c-.1548.16543-.274.36205-.3582.58845l.1874.06974c.0758-.2036.1816-.37698.3168-.52155zm-.3589.59038c-.079.22658-.1181.47032-.1181.73044h.2c0-.23988.036-.46114.1069-.66456zm2.2429 4.2049c.0751-.09517.1478-.18786.218-.27807l-.1579-.12278c-.0699.08979-.1422.1821-.2171.27693zm.218-.27807c.0001-.00017.0002-.00035.0004-.00052.0001-.00018.0002-.00036.0004-.00053.0001-.00018.0002-.00035.0004-.00053.0001-.00017.0003-.00035.0004-.00053.0001-.00017.0003-.00035.0004-.00052.0001-.00018.0003-.00035.0004-.00053s.0003-.00035.0004-.00053c.0002-.00017.0003-.00035.0004-.00053.0002-.00017.0003-.00035.0004-.00052.0002-.00018.0003-.00035.0005-.00053.0001-.00018.0002-.00035.0004-.00053.0001-.00017.0002-.00035.0004-.00052.0001-.00018.0002-.00036.0004-.00053.0001-.00018.0003-.00035.0004-.00053.0001-.00017.0003-.00035.0004-.00053.0001-.00017.0003-.00035.0004-.00052.0001-.00018.0003-.00036.0004-.00053.0002-.00018.0003-.00035.0004-.00053.0002-.00017.0003-.00035.0004-.00053.0002-.00017.0003-.00035.0005-.00052.0001-.00018.0002-.00035.0004-.00053.0001-.00018.0002-.00035.0004-.00053.0001-.00017.0002-.00035.0004-.00053.0001-.00017.0003-.00035.0004-.00052.0001-.00018.0003-.00035.0004-.00053s.0003-.00035.0004-.00053c.0002-.00017.0003-.00035.0004-.00052.0002-.00018.0003-.00036.0004-.00053.0002-.00018.0003-.00035.0004-.00053.0002-.00018.0003-.00035.0005-.00053.0001-.00017.0002-.00035.0004-.00052.0001-.00018.0002-.00036.0004-.00053.0001-.00018.0002-.00035.0004-.00053.0001-.00017.0003-.00035.0004-.00053.0001-.00017.0003-.00035.0004-.00052.0001-.00018.0003-.00035.0004-.00053.0002-.00018.0003-.00035.0004-.00053.0002-.00017.0003-.00035.0004-.00053.0002-.00017.0003-.00035.0004-.00052.0002-.00018.0003-.00035.0005-.00053.0001-.00018.0002-.00035.0004-.00053.0001-.00017.0002-.00035.0004-.00052.0001-.00018.0003-.00036.0004-.00053.0001-.00018.0003-.00035.0004-.00053s.0003-.00035.0004-.00053c.0001-.00017.0003-.00035.0004-.00052.0002-.00018.0003-.00036.0004-.00053.0002-.00018.0003-.00035.0004-.00053.0002-.00017.0003-.00035.0004-.00053.0002-.00017.0003-.00035.0005-.00052.0001-.00018.0002-.00036.0004-.00053.0001-.00018.0002-.00035.0004-.00053.0001-.00017.0003-.00035.0004-.00053.0001-.00017.0003-.00035.0004-.00052.0001-.00018.0003-.00035.0004-.00053s.0003-.00035.0004-.00053c.0002-.00017.0003-.00035.0004-.00052.0002-.00018.0003-.00036.0004-.00053.0002-.00018.0003-.00035.0004-.00053.0002-.00018.0003-.00035.0005-.00053.0001-.00017.0002-.00035.0004-.00052.0001-.00018.0002-.00036.0004-.00053.0001-.00018.0003-.00035.0004-.00053.0001-.00017.0003-.00035.0004-.00053.0001-.00017.0003-.00035.0004-.00052.0001-.00018.0003-.00036.0004-.00053.0002-.00018.0003-.00035.0004-.00053.0002-.00017.0003-.00035.0004-.00053.0002-.00017.0003-.00035.0005-.00052.0001-.00018.0002-.00035.0004-.00053.0001-.00018.0002-.00035.0004-.00053.0001-.00017.0002-.00035.0004-.00053.0001-.00017.0003-.00035.0004-.00052.0001-.00018.0003-.00035.0004-.00053s.0003-.00035.0004-.00053c.0001-.00017.0003-.00035.0004-.00052.0002-.00018.0003-.00036.0004-.00053.0002-.00018.0003-.00035.0004-.00053.0002-.00017.0003-.00035.0005-.00053.0001-.00017.0002-.00035.0004-.00052.0001-.00018.0002-.00036.0004-.00053.0001-.00018.0002-.00035.0004-.00053.0001-.00017.0003-.00035.0004-.00053.0001-.00017.0003-.00035.0004-.00052.0001-.00018.0003-.00035.0004-.00053.0002-.00018.0003-.00035.0004-.00053.0002-.00017.0003-.00035.0004-.00053.0002-.00017.0003-.00035.0004-.00052.0002-.00018.0003-.00035.0005-.00053.0001-.00018.0002-.00035.0004-.00053.0001-.00017.0002-.00035.0004-.00052.0001-.00018.0002-.00036.0004-.00053.0001-.00018.0003-.00035.0004-.00053s.0003-.00035.0004-.00053c.0001-.00017.0003-.00035.0004-.00052.0002-.00018.0003-.00036.0004-.00053.0002-.00018.0003-.00035.0004-.00053.0002-.00017.0003-.00035.0004-.00053.0002-.00017.0003-.00035.0005-.00052.0001-.00018.0002-.00035.0004-.00053.0001-.00018.0002-.00035.0004-.00053.0001-.00017.0002-.00035.0004-.00053.0001-.00017.0003-.00035.0004-.00052.0001-.00018.0003-.00035.0004-.00053s.0003-.00035.0004-.00053c.0002-.00017.0003-.00035.0004-.00052.0002-.00018.0003-.00036.0004-.00053.0002-.00018.0003-.00035.0004-.00053.0002-.00018.0003-.00035.0005-.00053.0001-.00017.0002-.00035.0004-.00052.0001-.00018.0002-.00036.0004-.00053.0001-.00018.0003-.00035.0004-.00053.0001-.00017.0003-.00035.0004-.00053.0001-.00017.0003-.00035.0004-.00052.0001-.00018.0003-.00036.0004-.00053.0002-.00018.0003-.00035.0004-.00053.0002-.00017.0003-.00035.0004-.00053.0002-.00017.0003-.00035.0004-.00052.0002-.00018.0003-.00035.0005-.00053.0001-.00018.0002-.00035.0004-.00053.0001-.00017.0002-.00035.0004-.00052.0001-.00018.0003-.00036.0004-.00053.0001-.00018.0003-.00035.0004-.00053s.0003-.00035.0004-.00053c.0001-.00017.0003-.00035.0004-.00052.0002-.00018.0003-.00036.0004-.00053.0002-.00018.0003-.00035.0004-.00053.0002-.00017.0003-.00035.0005-.00053.0001-.00017.0002-.00035.0004-.00052.0001-.00018.0002-.00036.0004-.00053.0001-.00018.0002-.00035.0004-.00053.0001-.00017.0003-.00035.0004-.00053.0001-.00017.0003-.00035.0004-.00052.0001-.00018.0003-.00035.0004-.00053s.0003-.00035.0004-.00053c.0002-.00017.0003-.00035.0004-.00053.0002-.00017.0003-.00035.0004-.00052.0002-.00018.0003-.00035.0005-.00053.0001-.00018.0002-.00035.0004-.00053.0001-.00017.0002-.00035.0004-.00052.0001-.00018.0002-.00036.0004-.00053.0001-.00018.0003-.00035.0004-.00053.0001-.00017.0003-.00035.0004-.00053.0001-.00017.0003-.00035.0004-.00052.0001-.00018.0003-.00036.0004-.00053.0002-.00018.0003-.00035.0004-.00053.0002-.00017.0003-.00035.0004-.00053.0002-.00017.0003-.00035.0005-.00052.0001-.00018.0002-.00035.0004-.00053.0001-.00018.0002-.00035.0004-.00053.0001-.00017.0002-.00035.0004-.00053.0001-.00017.0003-.00035.0004-.00052.0001-.00018.0003-.00035.0004-.00053s.0003-.00035.0004-.00053c.0002-.00017.0003-.00035.0004-.00052.0002-.00018.0003-.00036.0004-.00053.0002-.00018.0003-.00035.0004-.00053.0002-.00018.0003-.00035.0005-.00053.0001-.00017.0002-.00035.0004-.00052.0001-.00018.0002-.00036.0004-.00053.0001-.00018.0002-.00035.0004-.00053.0001-.00017.0003-.00035.0004-.00053.0001-.00017.0003-.00035.0004-.00052.0001-.00018.0003-.00035.0004-.00053.0002-.00018.0003-.00035.0004-.00053.0002-.00017.0003-.00035.0004-.00053.0002-.00017.0003-.00035.0004-.00052.0002-.00018.0003-.00035.0005-.00053.0001-.00018.0002-.00035.0004-.00053.0001-.00017.0002-.00035.0004-.00052.0001-.00018.0003-.00036.0004-.00053.0001-.00018.0003-.00035.0004-.00053s.0003-.00035.0004-.00053c.0001-.00017.0003-.00035.0004-.00052.0002-.00018.0003-.00036.0004-.00053.0002-.00018.0003-.00035.0004-.00053.0002-.00017.0003-.00035.0004-.00053.0002-.00017.0003-.00035.0005-.00052.0001-.00018.0002-.00036.0004-.00053.0001-.00018.0002-.00035.0004-.00053.0001-.00017.0003-.00035.0004-.00053.0001-.00017.0003-.00035.0004-.00052.0001-.00018.0003-.00035.0004-.00053s.0003-.00035.0004-.00053c.0002-.00017.0003-.00035.0004-.00052.0002-.00018.0003-.00036.0004-.00053.0002-.00018.0003-.00035.0004-.00053.0002-.00018.0003-.00035.0005-.00053.0001-.00017.0002-.00035.0004-.00052.0001-.00018.0002-.00036.0004-.00053.0001-.00018.0003-.00035.0004-.00053.0001-.00017.0003-.00035.0004-.00053.0001-.00017.0003-.00035.0004-.00052.0001-.00018.0003-.00036.0004-.00053.0002-.00018.0003-.00035.0004-.00053.0002-.00017.0003-.00035.0004-.00053.0002-.00017.0003-.00035.0005-.00052.0001-.00018.0002-.00035.0004-.00053.0001-.00018.0002-.00035.0004-.00053.0001-.00017.0002-.00035.0004-.00053.0001-.00017.0003-.00035.0004-.00052.0001-.00018.0003-.00035.0004-.00053s.0003-.00035.0004-.00053c.0001-.00017.0003-.00035.0004-.00052.0002-.00018.0003-.00036.0004-.00053.0002-.00018.0003-.00035.0004-.00053.0002-.00017.0003-.00035.0005-.00053.0001-.00017.0002-.00035.0004-.00052.0001-.00018.0002-.00036.0004-.00053.0001-.00018.0002-.00035.0004-.00053.0001-.00017.0003-.00035.0004-.00053.0001-.00017.0003-.00035.0004-.00052.0001-.00018.0003-.00035.0004-.00053.0002-.00018.0003-.00035.0004-.00053.0002-.00017.0003-.00035.0004-.00053.0002-.00017.0003-.00035.0004-.00052.0002-.00018.0003-.00035.0005-.00053.0001-.00018.0002-.00035.0004-.00053.0001-.00017.0002-.00035.0004-.00052.0001-.00018.0002-.00036.0004-.00053.0001-.00018.0003-.00035.0004-.00053s.0003-.00035.0004-.00053c.0001-.00017.0003-.00035.0004-.00052.0002-.00018.0003-.00036.0004-.00053.0002-.00018.0003-.00035.0004-.00053.0002-.00017.0003-.00035.0004-.00053.0002-.00017.0003-.00035.0005-.00052.0001-.00018.0002-.00035.0004-.00053.0001-.00018.0002-.00035.0004-.00053.0001-.00017.0002-.00035.0004-.00053.0001-.00017.0003-.00035.0004-.00052.0001-.00018.0003-.00035.0004-.00053s.0003-.00035.0004-.00053c.0002-.00017.0003-.00035.0004-.00052.0002-.00018.0003-.00036.0004-.00053.0002-.00018.0003-.00035.0004-.00053.0002-.00018.0003-.00035.0005-.00053.0001-.00017.0002-.00035.0004-.00052.0001-.00018.0002-.00036.0004-.00053.0001-.00018.0003-.00035.0004-.00053.0001-.00017.0003-.00035.0004-.00053.0001-.00017.0003-.00035.0004-.00052.0001-.00018.0003-.00036.0004-.00053.0002-.00018.0003-.00035.0004-.00053.0002-.00017.0003-.00035.0004-.00053.0002-.00017.0003-.00035.0004-.00052.0002-.00018.0003-.00035.0005-.00053.0001-.00018.0002-.00035.0004-.00053.0001-.00017.0002-.00035.0004-.00052.0001-.00018.0003-.00036.0004-.00053.0001-.00018.0003-.00035.0004-.00053s.0003-.00035.0004-.00053c.0001-.00017.0003-.00035.0004-.00052.0002-.00018.0003-.00036.0004-.00053.0002-.00018.0003-.00035.0004-.00053.0002-.00017.0003-.00035.0005-.00053.0001-.00017.0002-.00035.0004-.00052.0001-.00018.0002-.00036.0004-.00053.0001-.00018.0002-.00035.0004-.00053.0001-.00017.0003-.00035.0004-.00053.0001-.00017.0003-.00035.0004-.00052.0001-.00018.0003-.00035.0004-.00053s.0003-.00035.0004-.00053c.0002-.00017.0003-.00035.0004-.00053.0002-.00017.0003-.00035.0004-.00052.0002-.00018.0003-.00035.0005-.00053.0001-.00018.0002-.00035.0004-.00053.0001-.00017.0002-.00035.0004-.00052.0001-.00018.0002-.00036.0004-.00053.0001-.00018.0003-.00035.0004-.00053.0001-.00017.0003-.00035.0004-.00053.0001-.00017.0003-.00035.0004-.00052.0001-.00018.0003-.00036.0004-.00053.0002-.00018.0003-.00035.0004-.00053.0002-.00017.0003-.00035.0004-.00053.0002-.00017.0003-.00035.0005-.00052.0001-.00018.0002-.00035.0004-.00053.0001-.00018.0002-.00035.0004-.00053.0001-.00017.0002-.00035.0004-.00053.0001-.00017.0003-.00035.0004-.00052.0001-.00018.0003-.00035.0004-.00053s.0003-.00035.0004-.00053c.0002-.00017.0003-.00035.0004-.00052.0002-.00018.0003-.00036.0004-.00053.0002-.00018.0003-.00035.0004-.00053.0002-.00018.0003-.00035.0005-.00053.0001-.00017.0002-.00035.0004-.00052.0001-.00018.0002-.00036.0004-.00053.0001-.00018.0002-.00035.0004-.00053.0001-.00017.0003-.00035.0004-.00053.0001-.00017.0003-.00035.0004-.00052.0001-.00018.0003-.00035.0004-.00053.0002-.00018.0003-.00035.0004-.00053.0002-.00017.0003-.00035.0004-.00053.0002-.00017.0003-.00035.0004-.00052.0002-.00018.0003-.00035.0005-.00053.0001-.00018.0002-.00035.0004-.00053.0001-.00017.0002-.00035.0004-.00052.0001-.00018.0003-.00036.0004-.00053.0001-.00018.0003-.00035.0004-.00053s.0003-.00035.0004-.00053c.0001-.00017.0003-.00035.0004-.00052.0002-.00018.0003-.00036.0004-.00053.0002-.00018.0003-.00035.0004-.00053.0002-.00017.0003-.00035.0004-.00053.0002-.00017.0003-.00035.0005-.00052.0001-.00018.0002-.00036.0004-.00053.0001-.00018.0002-.00035.0004-.00053.0001-.00017.0003-.00035.0004-.00053.0001-.00017.0003-.00035.0004-.00052.0001-.00018.0003-.00035.0004-.00053s.0003-.00035.0004-.00053c.0002-.00017.0003-.00035.0004-.00052.0002-.00018.0003-.00036.0004-.00053.0002-.00018.0003-.00035.0004-.00053.0002-.00018.0003-.00035.0005-.00053.0001-.00017.0002-.00035.0004-.00052.0001-.00018.0002-.00036.0004-.00053.0001-.00018.0003-.00035.0004-.00053.0001-.00017.0003-.00035.0004-.00053.0001-.00017.0003-.00035.0004-.00052.0001-.00018.0003-.00036.0004-.00053.0002-.00018.0003-.00035.0004-.00053.0002-.00017.0003-.00035.0004-.00053.0002-.00017.0003-.00035.0005-.00052.0001-.00018.0002-.00035.0004-.00053.0001-.00018.0002-.00035.0004-.00053.0001-.00017.0002-.00035.0004-.00053.0001-.00017.0003-.00035.0004-.00052.0001-.00018.0003-.00035.0004-.00053s.0003-.00035.0004-.00053c.0001-.00017.0003-.00035.0004-.00052.0002-.00018.0003-.00036.0004-.00053.0002-.00018.0003-.00035.0004-.00053.0002-.00017.0003-.00035.0005-.00053.0001-.00017.0002-.00035.0004-.00052.0001-.00018.0002-.00036.0004-.00053.0001-.00018.0002-.00035.0004-.00053.0001-.00017.0003-.00035.0004-.00053.0001-.00017.0003-.00035.0004-.00052.0001-.00018.0003-.00035.0004-.00053.0002-.00018.0003-.00035.0004-.00053.0002-.00017.0003-.00035.0004-.00053.0002-.00017.0003-.00035.0004-.00052.0002-.00018.0003-.00035.0005-.00053.0001-.00018.0002-.00035.0004-.00053.0001-.00017.0002-.00035.0004-.00052.0001-.00018.0002-.00036.0004-.00053.0001-.00018.0003-.00035.0004-.00053s.0003-.00035.0004-.00053c.0001-.00017.0003-.00035.0004-.00052.0002-.00018.0003-.00036.0004-.00053.0002-.00018.0003-.00035.0004-.00053.0002-.00017.0003-.00035.0004-.00053.0002-.00017.0003-.00035.0005-.00052.0001-.00018.0002-.00035.0004-.00053.0001-.00018.0002-.00035.0004-.00053.0001-.00017.0002-.00035.0004-.00053.0001-.00017.0003-.00035.0004-.00052.0001-.00018.0003-.00035.0004-.00053s.0003-.00035.0004-.00053c.0002-.00017.0003-.00035.0004-.00052.0002-.00018.0003-.00036.0004-.00053.0002-.00018.0003-.00035.0004-.00053.0002-.00018.0003-.00035.0005-.00053.0001-.00017.0002-.00035.0004-.00052.0001-.00018.0002-.00036.0004-.00053.0001-.00018.0003-.00035.0004-.00053.0001-.00017.0003-.00035.0004-.00053.0001-.00017.0003-.00035.0004-.00052.0001-.00018.0003-.00036.0004-.00053.0002-.00018.0003-.00035.0004-.00053.0002-.00017.0003-.00035.0004-.00053.0002-.00017.0003-.00035.0004-.00052.0002-.00018.0003-.00035.0005-.00053.0001-.00018.0002-.00035.0004-.00053.0001-.00017.0002-.00035.0004-.00052.0001-.00018.0003-.00036.0004-.00053.0001-.00018.0003-.00035.0004-.00053s.0003-.00035.0004-.00053c.0001-.00017.0003-.00035.0004-.00052.0002-.00018.0003-.00036.0004-.00053.0002-.00018.0003-.00035.0004-.00053.0002-.00017.0003-.00035.0005-.00053.0001-.00017.0002-.00035.0004-.00052.0001-.00018.0002-.00036.0004-.00053.0001-.00018.0002-.00035.0004-.00053.0001-.00017.0003-.00035.0004-.00053.0001-.00017.0003-.00035.0004-.00052.0001-.00018.0003-.00035.0004-.00053s.0003-.00035.0004-.00053c.0002-.00017.0003-.00035.0004-.00053.0002-.00017.0003-.00035.0004-.00052.0002-.00018.0003-.00035.0005-.00053.0001-.00018.0002-.00035.0004-.00053.0001-.00017.0002-.00035.0004-.00052.0001-.00018.0002-.00036.0004-.00053.0001-.00018.0003-.00035.0004-.00053.0001-.00017.0003-.00035.0004-.00053.0001-.00017.0003-.00035.0004-.00052.0001-.00018.0003-.00036.0004-.00053.0002-.00018.0003-.00035.0004-.00053.0002-.00017.0003-.00035.0004-.00053.0002-.00017.0003-.00035.0005-.00052.0001-.00018.0002-.00035.0004-.00053.0001-.00018.0002-.00035.0004-.00053.0001-.00017.0002-.00035.0004-.00053.0001-.00017.0003-.00035.0004-.00052.0001-.00018.0003-.00035.0004-.00053s.0003-.00035.0004-.00053c.0002-.00017.0003-.00035.0004-.00052.0002-.00018.0003-.00036.0004-.00053.0002-.00018.0003-.00035.0004-.00053.0002-.00018.0003-.00035.0005-.00053.0001-.00017.0002-.00035.0004-.00052.0001-.00018.0002-.00036.0004-.00053.0001-.00018.0002-.00035.0004-.00053.0001-.00017.0003-.00035.0004-.00053.0001-.00017.0003-.00035.0004-.00052.0001-.00018.0003-.00035.0004-.00053.0002-.00018.0003-.00035.0004-.00053.0002-.00017.0003-.00035.0004-.00053.0002-.00017.0003-.00035.0004-.00052.0002-.00018.0003-.00035.0005-.00053.0001-.00018.0002-.00035.0004-.00053.0001-.00017.0002-.00035.0004-.00052.0001-.00018.0003-.00036.0004-.00053.0001-.00018.0003-.00035.0004-.00053s.0003-.00035.0004-.00053c.0001-.00017.0003-.00035.0004-.00052.0002-.00018.0003-.00036.0004-.00053.0002-.00018.0003-.00035.0004-.00053.0002-.00017.0003-.00035.0004-.00053.0002-.00017.0003-.00035.0005-.00052.0001-.00018.0002-.00036.0004-.00053.0001-.00018.0002-.00035.0004-.00053.0001-.00017.0003-.00035.0004-.00053.0001-.00017.0003-.00035.0004-.00052.0001-.00018.0003-.00035.0004-.00053s.0003-.00035.0004-.00053c.0002-.00017.0003-.00035.0004-.00052.0002-.00018.0003-.00036.0004-.00053.0002-.00018.0003-.00035.0004-.00053.0002-.00018.0003-.00035.0005-.00053.0001-.00017.0002-.00035.0004-.00052.0001-.00018.0002-.00036.0004-.00053.0001-.00018.0003-.00035.0004-.00053.0001-.00017.0003-.00035.0004-.00053.0001-.00017.0003-.00035.0004-.00052.0001-.00018.0003-.00036.0004-.00053.0002-.00018.0003-.00035.0004-.00053.0002-.00017.0003-.00035.0004-.00053.0002-.00017.0003-.00035.0005-.00052.0001-.00018.0002-.00035.0004-.00053.0001-.00018.0002-.00035.0004-.00053.0001-.00017.0002-.00035.0004-.00053.0001-.00017.0003-.00035.0004-.00052.0001-.00018.0003-.00035.0004-.00053s.0003-.00035.0004-.00053c.0001-.00017.0003-.00035.0004-.00052.0002-.00018.0003-.00036.0004-.00053.0002-.00018.0003-.00035.0004-.00053.0002-.00017.0003-.00035.0005-.00053.0001-.00017.0002-.00035.0004-.00052.0001-.00018.0002-.00036.0004-.00053.0001-.00018.0002-.00035.0004-.00053.0001-.00017.0003-.00035.0004-.00053.0001-.00017.0003-.00035.0004-.00052.0001-.00018.0003-.00035.0004-.00053.0002-.00018.0003-.00035.0004-.00053.0002-.00017.0003-.00035.0004-.00053.0002-.00017.0003-.00035.0004-.00052.0002-.00018.0003-.00035.0005-.00053.0001-.00018.0002-.00035.0004-.00053.0001-.00017.0002-.00035.0004-.00052.0001-.00018.0002-.00036.0004-.00053.0001-.00018.0003-.00035.0004-.00053s.0003-.00035.0004-.00053c.0001-.00017.0003-.00035.0004-.00052.0002-.00018.0003-.00036.0004-.00053.0002-.00018.0003-.00035.0004-.00053.0002-.00017.0003-.00035.0004-.00053.0002-.00017.0003-.00035.0005-.00052.0001-.00018.0002-.00035.0004-.00053.0001-.00018.0002-.00035.0004-.00053.0001-.00017.0002-.00035.0004-.00053.0001-.00017.0003-.00035.0004-.00052.0001-.00018.0003-.00035.0004-.00053s.0003-.00035.0004-.00053c.0002-.00017.0003-.00035.0004-.00052.0002-.00018.0003-.00036.0004-.00053.0002-.00018.0003-.00035.0004-.00053.0002-.00018.0003-.00035.0005-.00053.0001-.00017.0002-.00035.0004-.00052.0001-.00018.0002-.00036.0004-.00053.0001-.00018.0003-.00035.0004-.00053.0001-.00017.0003-.00035.0004-.00053.0001-.00017.0003-.00035.0004-.00052.0001-.00018.0003-.00036.0004-.00053.0002-.00018.0003-.00035.0004-.00053.0002-.00017.0003-.00035.0004-.00053.0002-.00017.0003-.00035.0004-.00052.0002-.00018.0003-.00035.0005-.00053.0001-.00018.0002-.00035.0004-.00053.0001-.00017.0002-.00035.0004-.00052.0001-.00018.0003-.00036.0004-.00053.0001-.00018.0003-.00035.0004-.00053s.0003-.00035.0004-.00053c.0001-.00017.0003-.00035.0004-.00052.0002-.00018.0003-.00036.0004-.00053.0002-.00018.0003-.00035.0004-.00053.0002-.00017.0003-.00035.0005-.00053l-.1579-.12278c-.0002.00017-.0003.00035-.0004.00052-.0002.00018-.0003.00035-.0004.00053-.0002.00018-.0003.00035-.0005.00053-.0001.00017-.0002.00035-.0004.00052-.0001.00018-.0002.00036-.0004.00053-.0001.00018-.0002.00035-.0004.00053-.0001.00018-.0003.00035-.0004.00053-.0001.00017-.0003.00035-.0004.00052-.0001.00018-.0003.00036-.0004.00053-.0001.00018-.0003.00035-.0004.00053-.0002.00017-.0003.00035-.0004.00053-.0002.00017-.0003.00035-.0004.00052-.0002.00018-.0003.00036-.0005.00053-.0001.00018-.0002.00035-.0004.00053-.0001.00017-.0002.00035-.0004.00053-.0001.00017-.0002.00035-.0004.00052-.0001.00018-.0003.00035-.0004.00053s-.0003.00035-.0004.00053c-.0001.00017-.0003.00035-.0004.00053-.0001.00017-.0003.00035-.0004.00052-.0002.00018-.0003.00035-.0004.00053-.0002.00018-.0003.00035-.0004.00053-.0002.00017-.0003.00035-.0005.00052-.0001.00018-.0002.00036-.0004.00053-.0001.00018-.0002.00035-.0004.00053-.0001.00017-.0002.00035-.0004.00053-.0001.00017-.0003.00035-.0004.00052-.0001.00018-.0003.00036-.0004.00053-.0001.00018-.0003.00035-.0004.00053-.0002.00017-.0003.00035-.0004.00053-.0002.00017-.0003.00035-.0004.00052-.0002.00018-.0003.00035-.0004.00053-.0002.00018-.0003.00035-.0005.00053-.0001.00017-.0002.00035-.0004.00053-.0001.00017-.0002.00035-.0004.00052-.0001.00018-.0002.00035-.0004.00053-.0001.00018-.0003.00035-.0004.00053-.0001.00017-.0003.00035-.0004.00052-.0001.00018-.0003.00036-.0004.00053-.0002.00018-.0003.00035-.0004.00053-.0002.00018-.0003.00035-.0004.00053-.0002.00017-.0003.00035-.0004.00052-.0002.00018-.0003.00036-.0005.00053-.0001.00018-.0002.00035-.0004.00053-.0001.00017-.0002.00035-.0004.00053-.0001.00017-.0003.00035-.0004.00052-.0001.00018-.0003.00035-.0004.00053s-.0003.00035-.0004.00053c-.0001.00017-.0003.00035-.0004.00053-.0002.00017-.0003.00035-.0004.00052-.0002.00018-.0003.00035-.0004.00053-.0002.00018-.0003.00035-.0004.00053-.0002.00017-.0003.00035-.0005.00052-.0001.00018-.0002.00036-.0004.00053-.0001.00018-.0002.00035-.0004.00053-.0001.00018-.0003.00035-.0004.00053-.0001.00017-.0003.00035-.0004.00052-.0001.00018-.0003.00036-.0004.00053-.0001.00018-.0003.00035-.0004.00053-.0002.00017-.0003.00035-.0004.00053-.0002.00017-.0003.00035-.0004.00052-.0002.00018-.0003.00036-.0004.00053-.0002.00018-.0003.00035-.0005.00053-.0001.00017-.0002.00035-.0004.00053-.0001.00017-.0002.00035-.0004.00052-.0001.00018-.0003.00035-.0004.00053s-.0003.00035-.0004.00053c-.0001.00017-.0003.00035-.0004.00052-.0001.00018-.0003.00036-.0004.00053-.0002.00018-.0003.00035-.0004.00053-.0002.00018-.0003.00035-.0004.00053-.0002.00017-.0003.00035-.0005.00052-.0001.00018-.0002.00036-.0004.00053-.0001.00018-.0002.00035-.0004.00053-.0001.00017-.0002.00035-.0004.00053-.0001.00017-.0003.00035-.0004.00052-.0001.00018-.0003.00036-.0004.00053-.0001.00018-.0003.00035-.0004.00053-.0001.00017-.0003.00035-.0004.00053-.0002.00017-.0003.00035-.0004.00052-.0002.00018-.0003.00035-.0004.00053-.0002.00018-.0003.00035-.0005.00053-.0001.00017-.0002.00035-.0004.00053-.0001.00017-.0002.00035-.0004.00052-.0001.00018-.0002.00035-.0004.00053-.0001.00018-.0003.00035-.0004.00053-.0001.00017-.0003.00035-.0004.00052-.0001.00018-.0003.00036-.0004.00053-.0002.00018-.0003.00035-.0004.00053-.0002.00017-.0003.00035-.0004.00053-.0002.00017-.0003.00035-.0004.00052-.0002.00018-.0003.00036-.0005.00053-.0001.00018-.0002.00035-.0004.00053-.0001.00017-.0002.00035-.0004.00053-.0001.00017-.0002.00035-.0004.00052-.0001.00018-.0003.00035-.0004.00053s-.0003.00035-.0004.00053c-.0001.00017-.0003.00035-.0004.00053-.0002.00017-.0003.00035-.0004.00052-.0002.00018-.0003.00035-.0004.00053-.0002.00018-.0003.00035-.0004.00053-.0002.00017-.0003.00035-.0005.00052-.0001.00018-.0002.00036-.0004.00053-.0001.00018-.0002.00035-.0004.00053-.0001.00018-.0002.00035-.0004.00053-.0001.00017-.0003.00035-.0004.00052-.0001.00018-.0003.00036-.0004.00053-.0001.00018-.0003.00035-.0004.00053-.0002.00017-.0003.00035-.0004.00053-.0002.00017-.0003.00035-.0004.00052-.0002.00018-.0003.00035-.0004.00053-.0002.00018-.0003.00035-.0005.00053-.0001.00017-.0002.00035-.0004.00053-.0001.00017-.0002.00035-.0004.00052-.0001.00018-.0003.00035-.0004.00053s-.0003.00035-.0004.00053c-.0001.00017-.0003.00035-.0004.00052-.0001.00018-.0003.00036-.0004.00053-.0002.00018-.0003.00035-.0004.00053-.0002.00018-.0003.00035-.0004.00053-.0002.00017-.0003.00035-.0004.00052-.0002.00018-.0003.00036-.0005.00053-.0001.00018-.0002.00035-.0004.00053-.0001.00017-.0002.00035-.0004.00053-.0001.00017-.0003.00035-.0004.00052-.0001.00018-.0003.00036-.0004.00053-.0001.00018-.0003.00035-.0004.00053-.0001.00017-.0003.00035-.0004.00053-.0002.00017-.0003.00035-.0004.00052-.0002.00018-.0003.00035-.0004.00053-.0002.00018-.0003.00035-.0005.00053-.0001.00017-.0002.00035-.0004.00052-.0001.00018-.0002.00036-.0004.00053-.0001.00018-.0002.00035-.0004.00053-.0001.00018-.0003.00035-.0004.00053-.0001.00017-.0003.00035-.0004.00052-.0001.00018-.0003.00036-.0004.00053-.0001.00018-.0003.00035-.0004.00053-.0002.00017-.0003.00035-.0004.00053-.0002.00017-.0003.00035-.0004.00052-.0002.00018-.0003.00036-.0005.00053-.0001.00018-.0002.00035-.0004.00053-.0001.00017-.0002.00035-.0004.00053-.0001.00017-.0002.00035-.0004.00052-.0001.00018-.0003.00035-.0004.00053s-.0003.00035-.0004.00053c-.0001.00017-.0003.00035-.0004.00053-.0001.00017-.0003.00035-.0004.00052-.0002.00018-.0003.00035-.0004.00053-.0002.00018-.0003.00035-.0004.00053-.0002.00017-.0003.00035-.0005.00052-.0001.00018-.0002.00036-.0004.00053-.0001.00018-.0002.00035-.0004.00053-.0001.00017-.0002.00035-.0004.00053-.0001.00017-.0003.00035-.0004.00052-.0001.00018-.0003.00036-.0004.00053-.0001.00018-.0003.00035-.0004.00053-.0002.00017-.0003.00035-.0004.00053-.0002.00017-.0003.00035-.0004.00052-.0002.00018-.0003.00035-.0004.00053-.0002.00018-.0003.00035-.0005.00053-.0001.00017-.0002.00035-.0004.00053-.0001.00017-.0002.00035-.0004.00052-.0001.00018-.0002.00035-.0004.00053-.0001.00018-.0003.00035-.0004.00053-.0001.00017-.0003.00035-.0004.00052-.0001.00018-.0003.00036-.0004.00053-.0002.00018-.0003.00035-.0004.00053-.0002.00018-.0003.00035-.0004.00053-.0002.00017-.0003.00035-.0004.00052-.0002.00018-.0003.00036-.0005.00053-.0001.00018-.0002.00035-.0004.00053-.0001.00017-.0002.00035-.0004.00053-.0001.00017-.0003.00035-.0004.00052-.0001.00018-.0003.00035-.0004.00053s-.0003.00035-.0004.00053c-.0001.00017-.0003.00035-.0004.00053-.0002.00017-.0003.00035-.0004.00052-.0002.00018-.0003.00035-.0004.00053-.0002.00018-.0003.00035-.0004.00053-.0002.00017-.0003.00035-.0005.00052-.0001.00018-.0002.00036-.0004.00053-.0001.00018-.0002.00035-.0004.00053-.0001.00018-.0003.00035-.0004.00053-.0001.00017-.0003.00035-.0004.00052-.0001.00018-.0003.00036-.0004.00053-.0001.00018-.0003.00035-.0004.00053-.0002.00017-.0003.00035-.0004.00053-.0002.00017-.0003.00035-.0004.00052-.0002.00018-.0003.00036-.0004.00053-.0002.00018-.0003.00035-.0005.00053-.0001.00017-.0002.00035-.0004.00053-.0001.00017-.0002.00035-.0004.00052-.0001.00018-.0003.00035-.0004.00053s-.0003.00035-.0004.00053c-.0001.00017-.0003.00035-.0004.00052-.0001.00018-.0003.00036-.0004.00053-.0002.00018-.0003.00035-.0004.00053-.0002.00018-.0003.00035-.0004.00053-.0002.00017-.0003.00035-.0005.00052-.0001.00018-.0002.00036-.0004.00053-.0001.00018-.0002.00035-.0004.00053-.0001.00017-.0002.00035-.0004.00053-.0001.00017-.0003.00035-.0004.00052-.0001.00018-.0003.00036-.0004.00053-.0001.00018-.0003.00035-.0004.00053-.0001.00017-.0003.00035-.0004.00053-.0002.00017-.0003.00035-.0004.00052-.0002.00018-.0003.00035-.0004.00053-.0002.00018-.0003.00035-.0005.00053-.0001.00017-.0002.00035-.0004.00053-.0001.00017-.0002.00035-.0004.00052-.0001.00018-.0002.00035-.0004.00053-.0001.00018-.0003.00035-.0004.00053-.0001.00017-.0003.00035-.0004.00052-.0001.00018-.0003.00036-.0004.00053-.0002.00018-.0003.00035-.0004.00053-.0002.00017-.0003.00035-.0004.00053-.0002.00017-.0003.00035-.0004.00052-.0002.00018-.0003.00036-.0005.00053-.0001.00018-.0002.00035-.0004.00053-.0001.00017-.0002.00035-.0004.00053-.0001.00017-.0002.00035-.0004.00052-.0001.00018-.0003.00035-.0004.00053s-.0003.00035-.0004.00053c-.0001.00017-.0003.00035-.0004.00053-.0002.00017-.0003.00035-.0004.00052-.0002.00018-.0003.00035-.0004.00053-.0002.00018-.0003.00035-.0004.00053-.0002.00017-.0003.00035-.0005.00052-.0001.00018-.0002.00036-.0004.00053-.0001.00018-.0002.00035-.0004.00053-.0001.00018-.0002.00035-.0004.00053-.0001.00017-.0003.00035-.0004.00052-.0001.00018-.0003.00036-.0004.00053-.0001.00018-.0003.00035-.0004.00053-.0002.00017-.0003.00035-.0004.00053-.0002.00017-.0003.00035-.0004.00052-.0002.00018-.0003.00035-.0004.00053-.0002.00018-.0003.00035-.0005.00053-.0001.00017-.0002.00035-.0004.00053-.0001.00017-.0002.00035-.0004.00052-.0001.00018-.0003.00035-.0004.00053s-.0003.00035-.0004.00053c-.0001.00017-.0003.00035-.0004.00052-.0001.00018-.0003.00036-.0004.00053-.0002.00018-.0003.00035-.0004.00053-.0002.00018-.0003.00035-.0004.00053-.0002.00017-.0003.00035-.0004.00052-.0002.00018-.0003.00036-.0005.00053-.0001.00018-.0002.00035-.0004.00053-.0001.00017-.0002.00035-.0004.00053-.0001.00017-.0003.00035-.0004.00052-.0001.00018-.0003.00036-.0004.00053-.0001.00018-.0003.00035-.0004.00053-.0001.00017-.0003.00035-.0004.00053-.0002.00017-.0003.00035-.0004.00052-.0002.00018-.0003.00035-.0004.00053-.0002.00018-.0003.00035-.0005.00053-.0001.00017-.0002.00035-.0004.00052-.0001.00018-.0002.00036-.0004.00053-.0001.00018-.0002.00035-.0004.00053-.0001.00018-.0003.00035-.0004.00053-.0001.00017-.0003.00035-.0004.00052-.0001.00018-.0003.00036-.0004.00053-.0001.00018-.0003.00035-.0004.00053-.0002.00017-.0003.00035-.0004.00053-.0002.00017-.0003.00035-.0004.00052-.0002.00018-.0003.00036-.0005.00053-.0001.00018-.0002.00035-.0004.00053-.0001.00017-.0002.00035-.0004.00053-.0001.00017-.0002.00035-.0004.00052-.0001.00018-.0003.00035-.0004.00053s-.0003.00035-.0004.00053c-.0001.00017-.0003.00035-.0004.00053-.0001.00017-.0003.00035-.0004.00052-.0002.00018-.0003.00035-.0004.00053-.0002.00018-.0003.00035-.0004.00053-.0002.00017-.0003.00035-.0005.00052-.0001.00018-.0002.00036-.0004.00053-.0001.00018-.0002.00035-.0004.00053-.0001.00017-.0002.00035-.0004.00053-.0001.00017-.0003.00035-.0004.00052-.0001.00018-.0003.00036-.0004.00053-.0001.00018-.0003.00035-.0004.00053-.0002.00017-.0003.00035-.0004.00053-.0002.00017-.0003.00035-.0004.00052-.0002.00018-.0003.00035-.0004.00053-.0002.00018-.0003.00035-.0005.00053-.0001.00017-.0002.00035-.0004.00053-.0001.00017-.0002.00035-.0004.00052-.0001.00018-.0002.00035-.0004.00053-.0001.00018-.0003.00035-.0004.00053-.0001.00017-.0003.00035-.0004.00052-.0001.00018-.0003.00036-.0004.00053-.0002.00018-.0003.00035-.0004.00053-.0002.00018-.0003.00035-.0004.00053-.0002.00017-.0003.00035-.0004.00052-.0002.00018-.0003.00036-.0005.00053-.0001.00018-.0002.00035-.0004.00053-.0001.00017-.0002.00035-.0004.00053-.0001.00017-.0003.00035-.0004.00052-.0001.00018-.0003.00035-.0004.00053s-.0003.00035-.0004.00053c-.0001.00017-.0003.00035-.0004.00053-.0002.00017-.0003.00035-.0004.00052-.0002.00018-.0003.00035-.0004.00053-.0002.00018-.0003.00035-.0004.00053-.0002.00017-.0003.00035-.0005.00052-.0001.00018-.0002.00036-.0004.00053-.0001.00018-.0002.00035-.0004.00053-.0001.00018-.0003.00035-.0004.00053-.0001.00017-.0003.00035-.0004.00052-.0001.00018-.0003.00036-.0004.00053-.0001.00018-.0003.00035-.0004.00053-.0002.00017-.0003.00035-.0004.00053-.0002.00017-.0003.00035-.0004.00052-.0002.00018-.0003.00036-.0004.00053-.0002.00018-.0003.00035-.0005.00053-.0001.00017-.0002.00035-.0004.00053-.0001.00017-.0002.00035-.0004.00052-.0001.00018-.0003.00035-.0004.00053s-.0003.00035-.0004.00053c-.0001.00017-.0003.00035-.0004.00052-.0001.00018-.0003.00036-.0004.00053-.0002.00018-.0003.00035-.0004.00053-.0002.00018-.0003.00035-.0004.00053-.0002.00017-.0003.00035-.0005.00052-.0001.00018-.0002.00036-.0004.00053-.0001.00018-.0002.00035-.0004.00053-.0001.00017-.0002.00035-.0004.00053-.0001.00017-.0003.00035-.0004.00052-.0001.00018-.0003.00036-.0004.00053-.0001.00018-.0003.00035-.0004.00053-.0001.00017-.0003.00035-.0004.00053-.0002.00017-.0003.00035-.0004.00052-.0002.00018-.0003.00035-.0004.00053-.0002.00018-.0003.00035-.0005.00053-.0001.00017-.0002.00035-.0004.00053-.0001.00017-.0002.00035-.0004.00052-.0001.00018-.0002.00035-.0004.00053-.0001.00018-.0003.00035-.0004.00053-.0001.00017-.0003.00035-.0004.00052-.0001.00018-.0003.00036-.0004.00053-.0002.00018-.0003.00035-.0004.00053-.0002.00017-.0003.00035-.0004.00053-.0002.00017-.0003.00035-.0004.00052-.0002.00018-.0003.00036-.0005.00053-.0001.00018-.0002.00035-.0004.00053-.0001.00017-.0002.00035-.0004.00053-.0001.00017-.0002.00035-.0004.00052-.0001.00018-.0003.00035-.0004.00053s-.0003.00035-.0004.00053c-.0001.00017-.0003.00035-.0004.00053-.0002.00017-.0003.00035-.0004.00052-.0002.00018-.0003.00035-.0004.00053-.0002.00018-.0003.00035-.0004.00053-.0002.00017-.0003.00035-.0005.00052-.0001.00018-.0002.00036-.0004.00053-.0001.00018-.0002.00035-.0004.00053-.0001.00018-.0002.00035-.0004.00053-.0001.00017-.0003.00035-.0004.00052-.0001.00018-.0003.00036-.0004.00053-.0001.00018-.0003.00035-.0004.00053-.0002.00017-.0003.00035-.0004.00053-.0002.00017-.0003.00035-.0004.00052-.0002.00018-.0003.00035-.0004.00053-.0002.00018-.0003.00035-.0005.00053-.0001.00017-.0002.00035-.0004.00053-.0001.00017-.0002.00035-.0004.00052-.0001.00018-.0003.00035-.0004.00053s-.0003.00035-.0004.00053c-.0001.00017-.0003.00035-.0004.00052-.0001.00018-.0003.00036-.0004.00053-.0002.00018-.0003.00035-.0004.00053-.0002.00018-.0003.00035-.0004.00053-.0002.00017-.0003.00035-.0004.00052-.0002.00018-.0003.00036-.0005.00053-.0001.00018-.0002.00035-.0004.00053-.0001.00017-.0002.00035-.0004.00053-.0001.00017-.0003.00035-.0004.00052-.0001.00018-.0003.00036-.0004.00053-.0001.00018-.0003.00035-.0004.00053-.0001.00017-.0003.00035-.0004.00053-.0002.00017-.0003.00035-.0004.00052-.0002.00018-.0003.00035-.0004.00053-.0002.00018-.0003.00035-.0005.00053-.0001.00017-.0002.00035-.0004.00052-.0001.00018-.0002.00036-.0004.00053-.0001.00018-.0002.00035-.0004.00053-.0001.00018-.0003.00035-.0004.00053-.0001.00017-.0003.00035-.0004.00052-.0001.00018-.0003.00036-.0004.00053-.0001.00018-.0003.00035-.0004.00053-.0002.00017-.0003.00035-.0004.00053-.0002.00017-.0003.00035-.0004.00052-.0002.00018-.0003.00036-.0005.00053-.0001.00018-.0002.00035-.0004.00053-.0001.00017-.0002.00035-.0004.00053-.0001.00017-.0002.00035-.0004.00052-.0001.00018-.0003.00035-.0004.00053s-.0003.00035-.0004.00053c-.0001.00017-.0003.00035-.0004.00053-.0001.00017-.0003.00035-.0004.00052-.0002.00018-.0003.00035-.0004.00053-.0002.00018-.0003.00035-.0004.00053-.0002.00017-.0003.00035-.0005.00052-.0001.00018-.0002.00036-.0004.00053-.0001.00018-.0002.00035-.0004.00053-.0001.00017-.0002.00035-.0004.00053-.0001.00017-.0003.00035-.0004.00052-.0001.00018-.0003.00036-.0004.00053-.0001.00018-.0003.00035-.0004.00053-.0002.00017-.0003.00035-.0004.00053-.0002.00017-.0003.00035-.0004.00052-.0002.00018-.0003.00035-.0004.00053-.0002.00018-.0003.00035-.0005.00053-.0001.00017-.0002.00035-.0004.00053-.0001.00017-.0002.00035-.0004.00052-.0001.00018-.0002.00035-.0004.00053-.0001.00018-.0003.00035-.0004.00053-.0001.00017-.0003.00035-.0004.00052-.0001.00018-.0003.00036-.0004.00053-.0002.00018-.0003.00035-.0004.00053-.0002.00018-.0003.00035-.0004.00053-.0002.00017-.0003.00035-.0004.00052-.0002.00018-.0003.00036-.0005.00053-.0001.00018-.0002.00035-.0004.00053-.0001.00017-.0002.00035-.0004.00053-.0001.00017-.0003.00035-.0004.00052-.0001.00018-.0003.00036-.0004.00053-.0001.00018-.0003.00035-.0004.00053-.0001.00017-.0003.00035-.0004.00053-.0002.00017-.0003.00035-.0004.00052-.0002.00018-.0003.00035-.0004.00053-.0002.00018-.0003.00035-.0004.00053-.0002.00017-.0003.00035-.0005.00052-.0001.00018-.0002.00036-.0004.00053-.0001.00018-.0002.00035-.0004.00053-.0001.00018-.0003.00035-.0004.00053-.0001.00017-.0003.00035-.0004.00052-.0001.00018-.0003.00036-.0004.00053-.0001.00018-.0003.00035-.0004.00053-.0002.00017-.0003.00035-.0004.00053-.0002.00017-.0003.00035-.0004.00052-.0002.00018-.0003.00036-.0004.00053-.0002.00018-.0003.00035-.0005.00053-.0001.00017-.0002.00035-.0004.00053-.0001.00017-.0002.00035-.0004.00052-.0001.00018-.0003.00035-.0004.00053s-.0003.00035-.0004.00053c-.0001.00017-.0003.00035-.0004.00053-.0001.00017-.0003.00035-.0004.00052-.0002.00018-.0003.00035-.0004.00053-.0002.00018-.0003.00035-.0004.00053-.0002.00017-.0003.00035-.0005.00052-.0001.00018-.0002.00036-.0004.00053-.0001.00018-.0002.00035-.0004.00053-.0001.00017-.0002.00035-.0004.00053-.0001.00017-.0003.00035-.0004.00052-.0001.00018-.0003.00036-.0004.00053-.0001.00018-.0003.00035-.0004.00053-.0001.00017-.0003.00035-.0004.00053-.0002.00017-.0003.00035-.0004.00052-.0002.00018-.0003.00035-.0004.00053-.0002.00018-.0003.00035-.0005.00053-.0001.00017-.0002.00035-.0004.00053-.0001.00017-.0002.00035-.0004.00052-.0001.00018-.0002.00035-.0004.00053-.0001.00018-.0003.00035-.0004.00053-.0001.00017-.0003.00035-.0004.00052-.0001.00018-.0003.00036-.0004.00053-.0002.00018-.0003.00035-.0004.00053-.0002.00018-.0003.00035-.0004.00053-.0002.00017-.0003.00035-.0004.00052-.0002.00018-.0003.00036-.0005.00053-.0001.00018-.0002.00035-.0004.00053-.0001.00017-.0002.00035-.0004.00053-.0001.00017-.0002.00035-.0004.00052-.0001.00018-.0003.00035-.0004.00053s-.0003.00035-.0004.00053c-.0001.00017-.0003.00035-.0004.00053-.0002.00017-.0003.00035-.0004.00052-.0002.00018-.0003.00035-.0004.00053-.0002.00018-.0003.00035-.0004.00053-.0002.00017-.0003.00035-.0005.00052-.0001.00018-.0002.00036-.0004.00053-.0001.00018-.0002.00035-.0004.00053-.0001.00018-.0002.00035-.0004.00053-.0001.00017-.0003.00035-.0004.00052-.0001.00018-.0003.00036-.0004.00053-.0001.00018-.0003.00035-.0004.00053-.0002.00017-.0003.00035-.0004.00053-.0002.00017-.0003.00035-.0004.00052-.0002.00018-.0003.00036-.0004.00053-.0002.00018-.0003.00035-.0005.00053-.0001.00017-.0002.00035-.0004.00053-.0001.00017-.0002.00035-.0004.00052-.0001.00018-.0003.00035-.0004.00053s-.0003.00035-.0004.00053c-.0001.00017-.0003.00035-.0004.00052-.0001.00018-.0003.00036-.0004.00053-.0002.00018-.0003.00035-.0004.00053-.0002.00018-.0003.00035-.0004.00053-.0002.00017-.0003.00035-.0004.00052-.0002.00018-.0003.00036-.0005.00053-.0001.00018-.0002.00035-.0004.00053-.0001.00017-.0002.00035-.0004.00053-.0001.00017-.0003.00035-.0004.00052-.0001.00018-.0003.00036-.0004.00053-.0001.00018-.0003.00035-.0004.00053-.0001.00017-.0003.00035-.0004.00053zm.0806-.41777c-.2317.13518-.4857.23933-.7625.31217l.0509.19342c.2932-.07716.5641-.18801.8124-.33283zm-.7613.31187c-.2714.06784-.5607.10201-.8683.10201v.2c.3225 0 .6282-.03583.9168-.10799zm-.8683.10201c-.3528 0-.7039-.0628-1.0535-.18906l-.0679.18812c.3703.13374.7443.20094 1.1214.20094zm-1.0531-.1889c-.3425-.12544-.6514-.31355-.927-.56498l-.1348.14776c.2944.26857.6256.47046.993.60502zm-.927-.56498c-.2738-.24981-.4961-.5632-.6661-.94206l-.1825.08188c.18.40114.4177.73775.7138 1.00794zm-.666-.94163c-.1682-.37969-.2539-.82786-.2539-1.34699h-.2c0 .54087.0893 1.0177.2711 1.42801zm-.2539-1.34699c0-.47229.0876-.91661.2623-1.33389l-.1845-.07722c-.1854.44272-.2778.9134-.2778 1.41111zm.2624-1.33427c.1749-.42268.4223-.78868.7422-1.09894l-.1392-.14358c-.34.32974-.6027.71874-.7878 1.16605zm.7428-1.09948c.3201-.31529.704-.56588 1.153-.75132l-.0764-.18486c-.471.19456-.8771.45897-1.217.79368zm1.1526-.75118c.4516-.18452.9536-.27757 1.5072-.27757v-.200001c-.5763 0-1.1044.096948-1.5828.292431zm1.5072-.27757c.5595 0 1.0592.08832 1.5007.26299l.0736-.18598c-.4685-.185329-.9937-.277011-1.5743-.277011zm1.5016.26333c.4429.17033.8155.41033 1.1197.71932l.1425-.1403c-.3259-.33101-.7232-.58601-1.1904-.76569zm1.1197.71932c.3047.30957.5399.68013.7053 1.11304l.1868-.07138c-.1746-.45709-.4244-.85153-.7496-1.18196zm.7054 1.11339c.1651.42717.2483.89977.2483 1.41896h.2c0-.54081-.0867-1.03821-.2617-1.49104zm.2483 1.41896c0 .33969-.0271.66132-.0809.96503l.1969.03494c.0561-.31629.084-.64966.084-.99997zm-.0809.96503c-.054.3043-.1325.59337-.2352.86736l.1872.07022c.1073-.28601.1889-.58694.2449-.90264zm-.2352.86736c-.1032.27503-.2284.5428-.3759.80335l.174.09852c.1526-.26945.2823-.54668.3891-.83165zm-.3766.80461c-.1429.26113-.3056.51756-.4882.76928l.1619.11744c.1873-.25828.3546-.52185.5017-.79072zm-.4892.77062-2.4225 3.45748.1638.1148 2.4225-3.45752zm-2.4198 3.45388c-.0881.1144-.219.2155-.3986.3006l.0856.1808c.2004-.0949.3595-.2138.4715-.3594zm-.3995.3011c-.1693.0823-.3664.1249-.5938.1249v.2c.2527 0 .4805-.0474.6813-.1451zm-.5938.1249h-1.905v.2h1.905zm-1.8275.1633 3.4125-4.17754-.1549-.12652-3.4125 4.17746zm11.3058-5.4558v-.1h-.1v.1zm3.96 0h.1v-.1h-.1zm0 1.695v.1h.1v-.1zm-3.96 0h-.1v.1h.1zm0-1.595h3.96v-.2h-3.96zm3.86-.1v1.695h.2v-1.695zm.1 1.595h-3.96v.2h3.96zm-3.86.1v-1.695h-.2v1.695zm15.8052 1.9875-.0707.0707.0014.0014zm.195 1.71v.1h.1v-.1zm-7.545 0h-.1v.1h.1zm.0825-1.095.0939.0344.0004-.001zm.2775-.42.0694.0721.0014-.0015zm3.225-3.2325-.0707-.07071-.0001.00008zm.7275-.7875.0766.06432.0006-.00075zm.525-.7425.0864.05039.0005-.00078zm.045-2.6325-.0714.07001.0007.0007zm-1.6125-.2925.0317.09488.0016-.00058zm-.45.2325-.0595-.08037-.0014.00111zm-.3375.3525-.0817-.05755zm-.21.4425.0944.03396.0019-.00689zm-.3675.5025.0471.08824.001-.00056zm-.645.0525-.0175.09846.0017.00027zm-1.095-.195-.0988-.01493-.0146.09631.0959.01707zm1.275-2.3925-.0626-.07797zm1.1325-.5925.0293.09563.001-.00032zm2.775.03-.0346.09382.0014.00048zm1.0875.6375-.0675.07372.0006.00061zm.6975.9825.0919-.03939zm.075 2.385-.0947-.03204zm-.4725.975-.084-.05421-.0002.00034zm-.6825.8925-.0744-.06675zm-.825.8775-.0713-.0701-.0002.00019zm-2.31 2.3625-.0715-.0699-.2678.274.3675-.1082zm.7575-.1725.0158.0988.0019-.0004zm3.15.0325c.2061 0 .3528.0567.4543.1582l.1414-.1414c-.1485-.1485-.3517-.2168-.5957-.2168zm.4557.1596c.1077.1035.1643.241.1643.4229h.2c0-.2281-.0733-.4206-.2257-.5671zm.1643.4229v1.215h.2v-1.215zm.1 1.115h-7.545v.2h7.545zm-7.445.1v-.675h-.2v.675zm0-.675c0-.1159.0246-.2442.0764-.3856l-.1878-.0688c-.0581.1586-.0886.3103-.0886.4544zm.0768-.3866c.0493-.1389.1326-.266.2525-.3813l-.1386-.1442c-.1401.1347-.2417.2876-.3024.4587zm.254-.3828 3.225-3.23247-.1416-.14126-3.225 3.23253zm3.2249-3.23239c.2767-.27667.5212-.54131.7334-.79389l-.1531-.12864c-.2079.24742-.4484.50778-.7217.78111zm.734-.79464c.2128-.25839.3911-.51028.5342-.75568l-.1727-.10078c-.1369.2346-.3087.47771-.5159.72932zm.5347-.75646c.1437-.25152.252-.50658.3244-.76515l-.1926-.05392c-.0676.24143-.1692.48137-.3055.71985zm.3244-.76515c.0726-.25928.1087-.53089.1087-.81446h-.2c0 .26642-.0339.51982-.1013.76054zm.1087-.81446c0-.50144-.1294-.89836-.4043-1.17321l-.1414.14142c.2252.22515.3457.56323.3457 1.03179zm-.4036-1.17251c-.2736-.27909-.6548-.41249-1.1289-.41249v.2c.4359 0 .7597.1216.9861.35251zm-1.1289-.41249c-.2101 0-.4065.03154-.5882.0957l.0665.1886c.1582-.05584.3318-.0843.5217-.0843zm-.5866.09513c-.1746.05822-.3341.14052-.4779.24701l.1191.16072c.1262-.09351.2667-.16621.4221-.21799zm-.4793.24811c-.1381.10619-.2576.23102-.3583.37421l.1635.1151c.0892-.12681.1947-.23698.3167-.33079zm-.3583.37421c-.1016.14433-.1765.30215-.2245.47298l.1925.05414c.042-.14917.1071-.28635.1955-.41202zm-.2224.46618c-.0857.23825-.1964.38009-.3215.44869l.0962.17536c.1849-.1014.3193-.29456.4135-.55631zm-.3204.44813c-.1216.06486-.3105.08565-.5821.04201l-.0317.19746c.2884.04636.5295.03215.7079-.06299zm-.5804.04229-1.095-.195-.0351.1969 1.095.195zm-1.0137-.08163c.0786-.52032.2253-.97369.4388-1.36173l-.1753-.09638c-.2266.41196-.3798.88859-.4612 1.42826zm.4388-1.36173c.2141-.38944.4809-.71154.7999-.96772l-.1252-.15594c-.341.27382-.6242.61672-.85 1.02728zm.7999-.96772c.3197-.25665.6857-.44837 1.0992-.57484l-.0585-.19126c-.4365.13353-.8255.33681-1.1659.61016zm1.1002-.57516c.4143-.1316.8615-.19781 1.3422-.19781v-.200001c-.4992 0-.967.068792-1.4027.207191zm1.3422-.19781c.505 0 .9605.07597 1.3679.22631l.0693-.18763c-.4327-.159652-.9121-.238681-1.4372-.238681zm1.3693.2268c.4136.146.7641.35195 1.0532.61691l.1351-.14743c-.3109-.28503-.6855-.50408-1.1218-.65808zm1.0538.61753c.2889.25993.513.57537.6725.94756l.1838-.07878c-.1704-.39781-.4113-.73738-.7225-1.01744zm.6725.94756c.1591.37125.2394.78266.2394 1.23561h.2c0-.47705-.0847-.91564-.2556-1.31439zm.2394 1.23561c0 .39034-.0561.74939-.1672 1.07796l.1895.06408c.1188-.35143.1777-.73238.1777-1.14204zm-.1672 1.07796c-.1123.33198-.2661.64956-.4618.95283l.1681.10842c.2043-.31673.3654-.64915.4832-.99717zm-.462.95317c-.1919.30012-.4161.59334-.6727.87962l.1489.1335c.2633-.29372.4942-.5955.6923-.90538zm-.6727.87962c-.2589.28879-.5329.58017-.8219.87415l.1426.1402c.2911-.29602.5671-.58964.8282-.88085zm-.8221.87434-2.31 2.36251.143.1398 2.31-2.36249zm-2.2103 2.52831c.2512-.0738.4995-.1304.7451-.1697l-.0316-.1974c-.2544.0407-.511.0991-.7699.1753zm.747-.17c.2451-.0441.4741-.0659.6873-.0659v-.2c-.2267 0-.4677.0232-.7227.0691zm.6873-.0659h2.445v-.2h-2.445zm11.7087-1.1725-.096-.02811zm-.8475 1.74.0784.062.0004-.0004zm-1.2825 1.02.041.0912.0004-.0002zm-3.18 0-.0417.0909.0007.0003zm-1.2675-1.02-.0792.0611.0004.0004zm-.84-1.74-.0962.02747.0002.00064zm0-4.9425-.096-.02811-.0001.00045zm.84-1.7325.0788.06151.0004-.00041zm1.2675-1.02.041.09123.0007-.00035zm3.18 0-.0417.09088.0011.0005zm1.2825 1.02-.0787.06163.0003.00042zm.8475 1.7325-.096.0281.0001.00019zm-1.995.5625-.0979.02055.0002.00094zm-.42-1.185-.0856.05167zm-.6075-.6075-.0455.08905.0008.00039zm-1.395 0-.0455-.08905-.0008.00043zm-.5925.6075-.0856-.05167-.0007.0011zm-.4125 1.185.0979.02055zm0 3.8175-.0979.02055zm.4125 1.185-.0863.05058.0007.00109zm.5925.6075-.0463.0886.0008.0004zm1.395 0-.0447-.0894-.0008.0004zm1.0275-1.7925-.0977-.02149-.0002.00094zm2.2025-1.9125c0 .94319-.1018 1.7583-.3035 2.44689l.192.05622c.2083-.71141.3115-1.5463.3115-2.50311zm-.3035 2.44689c-.2023.69076-.4797 1.25861-.8302 1.70651l.1575.1232c.3694-.4721.657-1.06425.8647-1.77349zm-.8299 1.70611c-.3508.4433-.7659.773-1.2455.991l.0828.182c.5104-.232.9503-.5823 1.3195-1.049zm-1.2451.9908c-.4763.2138-.9922.3212-1.549.3212v.2c.5832 0 1.1273-.1126 1.631-.3388zm-1.549.3212c-.5568 0-1.0727-.1074-1.549-.3212l-.082.1824c.5037.2262 1.0478.3388 1.631.3388zm-1.5483-.3209c-.4744-.2178-.8845-.5473-1.2304-.9906l-.1576.123c.3641.4667.799.8172 1.3046 1.0494zm-1.23-.9902c-.3458-.448-.6209-1.01602-.8232-1.70701l-.192.05622c.2077.70901.4926 1.30099.8568 1.77299zm-.823-1.70637c-.1969-.68883-.2962-1.50416-.2962-2.44753h-.2c0 .95663.1007 1.7913.3038 2.50247zm-.2962-2.44753c0-.94339.0994-1.75614.2961-2.43985l-.1922-.05531c-.2032.7063-.3039 1.53855-.3039 2.49516zm.296-2.4394c.2023-.69095.4774-1.25629.8228-1.69909l-.1576-.12302c-.3646.4672-.6495 1.05686-.8572 1.7659zm.8232-1.6995c.3458-.44806.7555-.77716 1.2293-.98987l-.082-.18246c-.5062.22729-.9414.57819-1.3057 1.05013zm1.23-.99022c.4762-.21865.9919-.32838 1.5483-.32838v-.200001c-.5836 0-1.1279.115271-1.6317.346621zm1.5483-.32838c.5564 0 1.0721.10973 1.5483.32838l.0834-.18176c-.5038-.23135-1.0481-.346621-1.6317-.346621zm1.5494.32888c.4789.21284.8936.5421 1.2444.99025l.1575-.12326c-.3693-.47185-.8096-.82259-1.3207-1.04975zm1.2447.99067c.3502.44269.6277 1.00784.8299 1.69855l.192-.05621c-.2077-.70928-.4953-1.29913-.8651-1.76644zm.83 1.69874c.2016.68347.3034 1.49599.3034 2.43921h.2c0-.95678-.1032-1.78926-.3116-2.49579zm-1.6341 2.43921c0-.774-.0552-1.41685-.1673-1.92649l-.1954.04298c.1079.49036.1627 1.11751.1627 1.88351zm-.1671-1.92555c-.1063-.50598-.2493-.91293-.4323-1.21612l-.1712.10334c.167.27681.304.65986.4077 1.15388zm-.4323-1.21612c-.1817-.30117-.3969-.51951-.6484-.64527l-.0894.17888c.2085.10424.3983.2909.5666.56973zm-.6476-.64487c-.2383-.12181-.4863-.18346-.743-.18346v.2c.2233 0 .4403.05335.652.16154zm-.743-.18346c-.2567 0-.5047.06165-.743.18346l.091.17808c.2117-.10819.4287-.16154.652-.16154zm-.7438.18388c-.2411.12604-.4507.34427-.6318.64445l.1712.10334c.1689-.27983.3543-.46659.5532-.57055zm-.6325.64555c-.1775.30283-.3179.70935-.4241 1.21502l.1958.0411c.1038-.49433.2384-.87781.4009-1.15498zm-.4241 1.21502c-.1069.50923-.1596 1.15174-.1596 1.92555h.2c0-.76619.0523-1.39368.1554-1.88445zm-.1596 1.92555c0 .77875.0527 1.42378.1596 1.93305l.1958-.0411c-.1031-.49073-.1554-1.1207-.1554-1.89195zm.1596 1.93305c.1062.50567.2466.91219.4241 1.21502l.1726-.10114c-.1625-.27717-.2971-.66065-.4009-1.15498zm.4248 1.21612c.1811.30013.3907.51843.6318.64443l.0926-.1772c-.1989-.104-.3843-.29075-.5532-.57057zm.6326.64483c.2383.1219.4863.1835.743.1835v-.2c-.2233 0-.4403-.0534-.652-.1615zm.743.1835c.2567 0 .5047-.0616.743-.1835l-.091-.178c-.2117.1081-.4287.1615-.652.1615zm.7422-.1831c.2515-.1257.4667-.3441.6484-.64523l-.1712-.10334c-.1683.27883-.3581.46547-.5666.56977zm.6484-.64523c.183-.30319.326-.71014.4323-1.21612l-.1958-.0411c-.1037.49402-.2407.87707-.4077 1.15388zm.4321-1.21518c.1121-.50967.1673-1.15505.1673-1.93399h-.2c0 .77106-.0548 1.40068-.1627 1.89101zm10.261 1.80101-.0707.0707.0014.0014zm.195 1.71v.1h.1v-.1zm-7.545 0h-.1v.1h.1zm.0825-1.095.0939.0344.0003-.001zm.2775-.42.0693.0721.0015-.0015zm3.225-3.2325-.0707-.07071-.0001.00008zm.7275-.7875.0766.06432.0006-.00075zm.525-.7425.0864.05039.0004-.00078zm.045-2.6325-.0714.07001.0007.0007zm-1.6125-.2925.0316.09488.0017-.00058zm-.45.2325-.0596-.08037-.0014.00111zm-.3375.3525-.0818-.05755zm-.21.4425.0943.03396.0019-.00689zm-.3675.5025.047.08824.0011-.00056zm-.645.0525-.0176.09846.0017.00027zm-1.095-.195-.0989-.01493-.0145.09631.0958.01707zm1.275-2.3925-.0626-.07797zm1.1325-.5925.0292.09563.0011-.00032zm2.775.03-.0346.09382.0013.00048zm1.0875.6375-.0676.07372.0007.00061zm.6975.9825.0919-.03939zm.075 2.385-.0948-.03204zm-.4725.975-.0841-.05421-.0002.00034zm-.6825.8925-.0745-.06675zm-.825.8775-.0713-.0701-.0002.00019zm-2.31 2.3625-.0715-.0699-.2679.274.3676-.1082zm.7575-.1725.0158.0988.0019-.0004zm3.15.0325c.2061 0 .3528.0567.4543.1582l.1414-.1414c-.1485-.1485-.3518-.2168-.5957-.2168zm.4557.1596c.1076.1035.1643.241.1643.4229h.2c0-.2281-.0734-.4206-.2257-.5671zm.1643.4229v1.215h.2v-1.215zm.1 1.115h-7.545v.2h7.545zm-7.445.1v-.675h-.2v.675zm0-.675c0-.1159.0245-.2442.0764-.3856l-.1878-.0688c-.0582.1586-.0886.3103-.0886.4544zm.0767-.3866c.0493-.1389.1327-.266.2526-.3813l-.1386-.1442c-.1401.1347-.2418.2876-.3025.4587zm.2541-.3828 3.225-3.23247-.1416-.14126-3.225 3.23253zm3.2249-3.23239c.2767-.27667.5212-.54131.7333-.79389l-.1531-.12864c-.2078.24742-.4483.50778-.7216.78111zm.734-.79464c.2128-.25839.391-.51028.5342-.75568l-.1728-.10078c-.1368.2346-.3086.47771-.5158.72932zm.5346-.75646c.1437-.25152.2521-.50658.3245-.76515l-.1926-.05392c-.0676.24143-.1693.48137-.3055.71985zm.3245-.76515c.0726-.25928.1087-.53089.1087-.81446h-.2c0 .26642-.0339.51982-.1013.76054zm.1087-.81446c0-.50144-.1295-.89836-.4043-1.17321l-.1414.14142c.2251.22515.3457.56323.3457 1.03179zm-.4036-1.17251c-.2736-.27909-.6548-.41249-1.1289-.41249v.2c.4359 0 .7597.1216.9861.35251zm-1.1289-.41249c-.2101 0-.4065.03154-.5883.0957l.0666.1886c.1582-.05584.3318-.0843.5217-.0843zm-.5866.09513c-.1747.05822-.3342.14052-.4779.24701l.119.16072c.1262-.09351.2668-.16621.4221-.21799zm-.4794.24811c-.138.10619-.2575.23102-.3583.37421l.1636.1151c.0892-.12681.1947-.23698.3166-.33079zm-.3583.37421c-.1016.14433-.1764.30215-.2245.47298l.1925.05414c.042-.14917.1071-.28635.1956-.41202zm-.2223.46618c-.0858.23825-.1964.38009-.3215.44869l.0962.17536c.1849-.1014.3192-.29456.4135-.55631zm-.3205.44813c-.1216.06486-.3105.08565-.5821.04201l-.0317.19746c.2884.04636.5295.03215.7079-.06299zm-.5804.04229-1.095-.195-.0351.1969 1.095.195zm-1.0136-.08163c.0785-.52032.2253-.97369.4387-1.36173l-.1752-.09638c-.2266.41196-.3798.88859-.4613 1.42826zm.4387-1.36173c.2142-.38944.481-.71154.8-.96772l-.1252-.15594c-.341.27382-.6242.61672-.85 1.02728zm.8-.96772c.3196-.25665.6857-.44837 1.0991-.57484l-.0585-.19126c-.4365.13353-.8254.33681-1.1658.61016zm1.1002-.57516c.4142-.1316.8614-.19781 1.3422-.19781v-.200001c-.4993 0-.9671.068792-1.4028.207191zm1.3422-.19781c.5049 0 .9605.07597 1.3679.22631l.0692-.18763c-.4326-.159652-.9121-.238681-1.4371-.238681zm1.3692.2268c.4137.146.7641.35195 1.0532.61691l.1351-.14743c-.3109-.28503-.6854-.50408-1.1217-.65808zm1.0539.61753c.2888.25993.513.57537.6725.94756l.1838-.07878c-.1705-.39781-.4113-.73738-.7225-1.01744zm.6725.94756c.1591.37125.2394.78266.2394 1.23561h.2c0-.47705-.0847-.91564-.2556-1.31439zm.2394 1.23561c0 .39034-.0561.74939-.1673 1.07796l.1895.06408c.1189-.35143.1778-.73238.1778-1.14204zm-.1673 1.07796c-.1122.33198-.2661.64956-.4618.95283l.1681.10842c.2043-.31673.3655-.64915.4832-.99717zm-.462.95317c-.1919.30012-.416.59334-.6727.87962l.1489.1335c.2634-.29372.4942-.5955.6923-.90538zm-.6727.87962c-.2589.28879-.5328.58017-.8218.87415l.1426.1402c.291-.29602.5671-.58964.8281-.88085zm-.822.87434-2.31 2.36251.143.1398 2.31-2.36249zm-2.2103 2.52831c.2511-.0738.4995-.1304.7451-.1697l-.0316-.1974c-.2544.0407-.5111.0991-.7699.1753zm.747-.17c.245-.0441.474-.0659.6873-.0659v-.2c-.2268 0-.4678.0232-.7227.0691zm.6873-.0659h2.445v-.2h-2.445zm11.7086-1.1725-.0959-.02811zm-.8475 1.74.0785.062.0003-.0004zm-1.2825 1.02.041.0912.0004-.0002zm-3.18 0-.0417.0909.0008.0003zm-1.2675-1.02-.0791.0611.0003.0004zm-.84-1.74-.0961.02747.0002.00064zm0-4.9425-.0959-.02811-.0002.00045zm.84-1.7325.0789.06151.0003-.00041zm1.2675-1.02.041.09123.0008-.00035zm3.18 0-.0417.09088.0011.0005zm1.2825 1.02-.0787.06163.0003.00042zm.8475 1.7325-.0959.0281v.00019zm-1.995.5625-.0978.02055.0002.00094zm-.42-1.185-.0856.05167zm-.6075-.6075-.0455.08905.0008.00039zm-1.395 0-.0455-.08905-.0008.00043zm-.5925.6075-.0856-.05167-.0006.0011zm-.4125 1.185.0979.02055zm0 3.8175-.0978.02055zm.4125 1.185-.0862.05058.0006.00109zm.5925.6075-.0463.0886.0008.0004zm1.395 0-.0447-.0894-.0008.0004zm1.0275-1.7925-.0976-.02149-.0002.00094zm2.2025-1.9125c0 .94319-.1018 1.7583-.3034 2.44689l.1919.05622c.2084-.71141.3115-1.5463.3115-2.50311zm-.3034 2.44689c-.2023.69076-.4798 1.25861-.8303 1.70651l.1575.1232c.3695-.4721.657-1.06425.8647-1.77349zm-.83 1.70611c-.3508.4433-.7659.773-1.2454.991l.0827.182c.5105-.232.9504-.5823 1.3196-1.049zm-1.245.9908c-.4764.2138-.9923.3212-1.5491.3212v.2c.5833 0 1.1273-.1126 1.631-.3388zm-1.5491.3212c-.5567 0-1.0727-.1074-1.549-.3212l-.0819.1824c.5036.2262 1.0477.3388 1.6309.3388zm-1.5482-.3209c-.4745-.2178-.8845-.5473-1.2304-.9906l-.1577.123c.3641.4667.7991.8172 1.3046 1.0494zm-1.2301-.9902c-.3457-.448-.6208-1.01602-.8232-1.70701l-.1919.05622c.2076.70901.4925 1.30099.8568 1.77299zm-.823-1.70637c-.1968-.68883-.2962-1.50416-.2962-2.44753h-.2c0 .95663.1007 1.7913.3039 2.50247zm-.2962-2.44753c0-.94339.0994-1.75614.2961-2.43985l-.1922-.05531c-.2032.7063-.3039 1.53855-.3039 2.49516zm.296-2.4394c.2024-.69095.4774-1.25629.8229-1.69909l-.1577-.12302c-.3645.4672-.6495 1.05686-.8571 1.7659zm.8232-1.6995c.3458-.44806.7555-.77716 1.2293-.98987l-.0819-.18246c-.5062.22729-.9415.57819-1.3057 1.05013zm1.2301-.99022c.4761-.21865.9918-.32838 1.5482-.32838v-.200001c-.5835 0-1.1278.115271-1.6317.346621zm1.5482-.32838c.5565 0 1.0722.10973 1.5483.32838l.0835-.18176c-.5039-.23135-1.0482-.346621-1.6318-.346621zm1.5494.32888c.4789.21284.8937.5421 1.2444.99025l.1575-.12326c-.3693-.47185-.8095-.82259-1.3206-1.04975zm1.2447.99067c.3503.44269.6277 1.00784.83 1.69855l.1919-.05621c-.2077-.70928-.4953-1.29913-.865-1.76644zm.83 1.69874c.2016.68347.3034 1.49599.3034 2.43921h.2c0-.95678-.1031-1.78926-.3115-2.49579zm-1.6341 2.43921c0-.774-.0552-1.41685-.1673-1.92649l-.1953.04298c.1079.49036.1626 1.11751.1626 1.88351zm-.1671-1.92555c-.1062-.50598-.2493-.91293-.4322-1.21612l-.1713.10334c.1671.27681.304.65986.4078 1.15388zm-.4322-1.21612c-.1818-.30117-.3969-.51951-.6484-.64527l-.0895.17888c.2085.10424.3984.2909.5666.56973zm-.6476-.64487c-.2384-.12181-.4864-.18346-.7431-.18346v.2c.2234 0 .4404.05335.652.16154zm-.7431-.18346c-.2566 0-.5046.06165-.743.18346l.0911.17808c.2116-.10819.4286-.16154.6519-.16154zm-.7438.18388c-.2411.12604-.4506.34427-.6318.64445l.1713.10334c.1688-.27983.3543-.46659.5532-.57055zm-.6324.64555c-.1775.30283-.3179.70935-.4241 1.21502l.1957.0411c.1038-.49433.2384-.87781.4009-1.15498zm-.4241 1.21502c-.107.50923-.1597 1.15174-.1597 1.92555h.2c0-.76619.0524-1.39368.1554-1.88445zm-.1597 1.92555c0 .77875.0527 1.42378.1597 1.93305l.1957-.0411c-.103-.49073-.1554-1.1207-.1554-1.89195zm.1597 1.93305c.1062.50567.2466.91219.4241 1.21502l.1725-.10114c-.1625-.27717-.2971-.66065-.4009-1.15498zm.4247 1.21612c.1812.30013.3907.51843.6318.64443l.0927-.1772c-.1989-.104-.3844-.29075-.5532-.57057zm.6326.64483c.2384.1219.4864.1835.743.1835v-.2c-.2233 0-.4403-.0534-.6519-.1615zm.743.1835c.2567 0 .5047-.0616.7431-.1835l-.0911-.178c-.2116.1081-.4286.1615-.652.1615zm.7423-.1831c.2515-.1257.4666-.3441.6484-.64523l-.1713-.10334c-.1682.27883-.3581.46547-.5666.56977zm.6484-.64523c.1829-.30319.326-.71014.4322-1.21612l-.1957-.0411c-.1038.49402-.2407.87707-.4078 1.15388zm.432-1.21518c.1121-.50967.1673-1.15505.1673-1.93399h-.2c0 .77106-.0547 1.40068-.1626 1.89101z"/></g></svg>