<svg width="300" height="107" fill="none" xmlns="http://www.w3.org/2000/svg"><path d="M22.272 25h-5.44v-9.856H7.36V25H1.92V1.688h5.44v9.744h9.472V1.688h5.44V25zm9.276-16.592V25h-4.96V8.408h4.96zm.576-4.544c0 .395-.08.768-.24 1.12-.16.341-.38.645-.657.912a3.397 3.397 0 0 1-.976.624c-.362.15-.752.224-1.168.224-.405 0-.784-.075-1.135-.224a3.542 3.542 0 0 1-.945-.624 3.202 3.202 0 0 1-.64-.912 2.839 2.839 0 0 1-.223-1.12c0-.405.074-.784.223-1.136.16-.352.374-.661.64-.928.278-.267.593-.475.945-.624a2.86 2.86 0 0 1 1.136-.224c.416 0 .805.075 1.168.224a2.999 2.999 0 0 1 1.632 1.552c.16.352.24.73.24 1.136zm2.916 18.32a2.3 2.3 0 0 1 .193-.944 2.19 2.19 0 0 1 .544-.768c.245-.224.527-.4.847-.528.331-.128.7-.192 1.104-.192.48 0 .896.085 1.248.256.352.16.646.384.88.672.235.277.406.603.512.976.118.363.176.747.176 1.152 0 .533-.085 1.104-.255 1.712a8.429 8.429 0 0 1-.769 1.808 10.4 10.4 0 0 1-1.248 1.792 10.314 10.314 0 0 1-1.727 1.6l-.864-.768a1.79 1.79 0 0 1-.273-.336.753.753 0 0 1-.08-.368.71.71 0 0 1 .112-.352 1.56 1.56 0 0 1 .273-.32c.127-.128.277-.283.447-.464.171-.181.342-.384.513-.608.17-.224.325-.47.463-.736.15-.267.262-.55.336-.848a2.76 2.76 0 0 1-1.008-.272 2.47 2.47 0 0 1-.767-.592 2.922 2.922 0 0 1-.48-.832 3 3 0 0 1-.176-1.04zM56.183 25h-5.44V1.688h5.44V25zM64.32.184c.427.672.742 1.344.945 2.016.213.672.32 1.339.32 2 0 1.141-.3 2.235-.896 3.28-.598 1.045-1.478 2.01-2.64 2.896l-1.569-.928a1.016 1.016 0 0 1-.287-.272.71.71 0 0 1 0-.656 1.02 1.02 0 0 1 .192-.272c.117-.128.245-.283.384-.464a4.222 4.222 0 0 0 .736-1.488c.095-.31.143-.64.143-.992 0-.384-.069-.795-.208-1.232-.127-.437-.346-.907-.655-1.408a.96.96 0 0 1-.16-.512c0-.192.063-.363.191-.512.128-.15.304-.267.528-.352L64.32.184zM68.715 25V8.408h3.072c.31 0 .565.07.768.208a1.1 1.1 0 0 1 .448.624l.272.896a8.43 8.43 0 0 1 .864-.784 5.16 5.16 0 0 1 .96-.624c.352-.181.725-.32 1.12-.416.405-.107.848-.16 1.328-.16 1.003 0 1.83.261 2.48.784.661.512 1.163 1.2 1.504 2.064a4.99 4.99 0 0 1 1.008-1.312 5.678 5.678 0 0 1 1.296-.88c.47-.224.96-.39 1.472-.496a7.746 7.746 0 0 1 1.552-.16c.95 0 1.792.144 2.528.432a4.63 4.63 0 0 1 1.84 1.232c.501.533.88 1.195 1.136 1.984.256.779.384 1.664.384 2.656V25h-4.96V14.456c0-1.717-.736-2.576-2.208-2.576-.672 0-1.232.224-1.68.672-.437.437-.656 1.072-.656 1.904V25h-4.96V14.456c0-.95-.187-1.616-.56-2-.373-.384-.923-.576-1.648-.576a2.82 2.82 0 0 0-1.28.304 4.69 4.69 0 0 0-1.12.816v12h-4.96zm45.846 0c-.469 0-.827-.064-1.072-.192-.235-.128-.432-.395-.592-.8l-.352-.912c-.416.352-.816.661-1.2.928a7.916 7.916 0 0 1-1.2.688 5.695 5.695 0 0 1-1.312.4 7.525 7.525 0 0 1-1.536.144 6.948 6.948 0 0 1-2.064-.288 4.476 4.476 0 0 1-1.584-.88 3.892 3.892 0 0 1-.992-1.424c-.235-.576-.352-1.237-.352-1.984 0-.587.149-1.19.448-1.808.299-.619.816-1.179 1.552-1.68.736-.512 1.728-.939 2.976-1.28 1.248-.341 2.821-.533 4.72-.576v-.704c0-.97-.203-1.67-.608-2.096-.395-.437-.96-.656-1.696-.656-.587 0-1.067.064-1.44.192a6.847 6.847 0 0 0-1.008.432c-.288.16-.571.304-.848.432s-.608.192-.992.192c-.341 0-.635-.08-.88-.24a1.955 1.955 0 0 1-.56-.624l-.896-1.552a9.995 9.995 0 0 1 3.328-1.968c1.227-.437 2.539-.656 3.936-.656 1.003 0 1.904.165 2.704.496a5.6 5.6 0 0 1 2.048 1.36 5.812 5.812 0 0 1 1.296 2.064c.299.8.448 1.675.448 2.624V25h-2.272zm-5.696-3.024c.64 0 1.2-.112 1.68-.336.48-.224.965-.587 1.456-1.088v-2.304c-.992.043-1.808.128-2.448.256-.64.128-1.147.288-1.52.48s-.635.41-.784.656a1.595 1.595 0 0 0-.208.8c0 .565.155.965.464 1.2.309.224.763.336 1.36.336zM2.656 63V49.816l-1.088-.224c-.373-.085-.677-.219-.912-.4-.224-.181-.336-.448-.336-.8V46.44h2.336v-.944c0-.95.15-1.808.448-2.576a5.591 5.591 0 0 1 1.312-1.968c.576-.544 1.275-.965 2.096-1.264.821-.299 1.755-.448 2.8-.448.405 0 .779.027 1.12.08.352.043.715.117 1.088.224l-.096 2.416a.803.803 0 0 1-.144.432 1 1 0 0 1-.288.272c-.117.064-.25.112-.4.144a1.845 1.845 0 0 1-.416.048 4.85 4.85 0 0 0-1.168.128c-.341.085-.63.24-.864.464-.224.213-.395.501-.512.864-.117.352-.176.8-.176 1.344v.784h3.904v3.392H7.616V63h-4.96zm11.178 0V46.408h2.944c.245 0 .448.021.608.064a.96.96 0 0 1 .416.208.723.723 0 0 1 .256.352c.064.15.117.33.16.544l.272 1.552c.608-.939 1.29-1.68 2.048-2.224.757-.544 1.584-.816 2.48-.816.757 0 1.365.181 1.824.544l-.64 3.648c-.043.224-.128.384-.256.48-.128.085-.299.128-.512.128a3.76 3.76 0 0 1-.64-.064 4.479 4.479 0 0 0-.928-.08c-1.302 0-2.326.693-3.072 2.08V63h-4.96zm20.93-16.848c1.26 0 2.406.197 3.44.592 1.035.395 1.92.96 2.657 1.696.746.736 1.322 1.632 1.728 2.688.416 1.045.623 2.224.623 3.536 0 1.323-.208 2.517-.623 3.584-.406 1.056-.982 1.957-1.728 2.704a7.649 7.649 0 0 1-2.656 1.712c-1.035.395-2.182.592-3.44.592-1.27 0-2.427-.197-3.473-.592a7.99 7.99 0 0 1-2.688-1.712c-.746-.747-1.328-1.648-1.744-2.704-.405-1.067-.607-2.261-.607-3.584 0-1.312.202-2.49.607-3.536.416-1.056.998-1.952 1.745-2.688a7.792 7.792 0 0 1 2.688-1.696c1.045-.395 2.202-.592 3.471-.592zm0 13.424c1.142 0 1.98-.4 2.512-1.2.544-.81.816-2.037.816-3.68 0-1.643-.271-2.864-.816-3.664-.533-.8-1.37-1.2-2.512-1.2-1.173 0-2.032.4-2.576 1.2-.544.8-.816 2.021-.816 3.664 0 1.643.273 2.87.816 3.68.544.8 1.403 1.2 2.576 1.2zM46.255 63V46.408h3.072c.31 0 .565.07.768.208a1.1 1.1 0 0 1 .448.624l.288.96c.32-.299.65-.576.992-.832.341-.256.704-.47 1.088-.64a6.06 6.06 0 0 1 1.264-.416 6.56 6.56 0 0 1 1.488-.16c.907 0 1.707.16 2.4.48.704.31 1.296.747 1.776 1.312.48.555.843 1.221 1.088 2 .245.768.368 1.605.368 2.512V63h-4.96V52.456c0-.81-.187-1.44-.56-1.888-.373-.459-.923-.688-1.648-.688a3.45 3.45 0 0 0-1.536.352c-.48.235-.939.55-1.376.944V63h-4.96zm24.706.256c-.789 0-1.487-.112-2.096-.336a4.386 4.386 0 0 1-1.52-.976 4.296 4.296 0 0 1-.927-1.536c-.214-.597-.32-1.264-.32-2v-8.576h-1.409a.957.957 0 0 1-.655-.24c-.182-.17-.273-.416-.273-.736V46.92l2.64-.512.977-4.048c.127-.512.49-.768 1.088-.768h2.592v4.848h4.031v3.392h-4.031v8.24c0 .384.09.704.271.96.193.245.465.368.817.368.18 0 .33-.016.448-.048.128-.043.234-.085.32-.128.096-.053.18-.096.255-.128a.634.634 0 0 1 .288-.064c.15 0 .267.037.353.112.096.064.191.17.287.32l1.505 2.352a6.97 6.97 0 0 1-2.16 1.088c-.8.235-1.627.352-2.48.352zm6.989-11.984h8.64v4h-8.64v-4zm19.588-5.12c1.098 0 2.101.17 3.008.512a6.47 6.47 0 0 1 2.352 1.488c.661.65 1.173 1.45 1.536 2.4.373.939.56 2.005.56 3.2 0 .373-.016.677-.048.912a1.45 1.45 0 0 1-.176.56.67.67 0 0 1-.352.288 1.55 1.55 0 0 1-.544.08h-9.568c.16 1.387.581 2.395 1.264 3.024.682.619 1.562.928 2.64.928.576 0 1.072-.07 1.488-.208a7.155 7.155 0 0 0 1.104-.464l.896-.464c.277-.139.565-.208.864-.208.394 0 .693.144.896.432l1.44 1.776a7.475 7.475 0 0 1-1.664 1.44 8.903 8.903 0 0 1-1.824.864 9.664 9.664 0 0 1-1.872.416 13.06 13.06 0 0 1-1.776.128 9.503 9.503 0 0 1-3.28-.56A7.71 7.71 0 0 1 91.81 61c-.758-.747-1.36-1.675-1.808-2.784-.438-1.11-.656-2.4-.656-3.872 0-1.11.186-2.16.56-3.152a7.935 7.935 0 0 1 1.632-2.608 7.881 7.881 0 0 1 2.576-1.776c1.013-.437 2.154-.656 3.424-.656zm.096 3.424c-.95 0-1.69.272-2.224.816-.534.533-.886 1.307-1.056 2.32h6.192c0-.395-.054-.779-.16-1.152a2.564 2.564 0 0 0-.496-.992 2.412 2.412 0 0 0-.896-.72c-.374-.181-.827-.272-1.36-.272zM108.16 63V46.408h3.072c.309 0 .565.07.768.208a1.1 1.1 0 0 1 .448.624l.288.96a12.1 12.1 0 0 1 .992-.832 5.59 5.59 0 0 1 1.088-.64c.395-.181.816-.32 1.264-.416.459-.107.955-.16 1.488-.16.907 0 1.707.16 2.4.48.704.31 1.296.747 1.776 1.312.48.555.843 1.221 1.088 2 .245.768.368 1.605.368 2.512V63h-4.96V52.456c0-.81-.187-1.44-.56-1.888-.373-.459-.923-.688-1.648-.688a3.45 3.45 0 0 0-1.536.352c-.48.235-.939.55-1.376.944V63h-4.96zm30.53 0c-.309 0-.57-.07-.784-.208-.202-.139-.346-.347-.432-.624l-.384-1.264c-.33.352-.677.672-1.04.96a6.716 6.716 0 0 1-1.184.752 6 6 0 0 1-1.36.464 6.594 6.594 0 0 1-1.568.176 5.11 5.11 0 0 1-2.4-.576c-.736-.384-1.37-.939-1.904-1.664-.533-.725-.954-1.61-1.264-2.656-.298-1.056-.448-2.256-.448-3.6 0-1.237.171-2.384.512-3.44.342-1.067.822-1.984 1.44-2.752a6.776 6.776 0 0 1 2.256-1.824c.875-.437 1.84-.656 2.896-.656.854 0 1.574.128 2.16.384.598.245 1.136.57 1.616.976v-8.4h4.96V63h-3.072zm-5.024-3.552c.363 0 .688-.032.976-.096.299-.075.571-.176.816-.304a3.3 3.3 0 0 0 .688-.48c.224-.192.443-.416.656-.672v-7.04c-.384-.416-.794-.704-1.232-.864a3.624 3.624 0 0 0-1.36-.256c-.458 0-.88.09-1.264.272-.384.181-.72.475-1.008.88-.277.395-.496.912-.656 1.552-.16.64-.24 1.413-.24 2.32 0 .875.064 1.61.192 2.208.128.597.304 1.083.528 1.456.235.363.512.624.832.784.32.16.678.24 1.072.24zM164.08 63c-.309 0-.57-.07-.784-.208-.202-.139-.346-.347-.432-.624l-.384-1.264c-.33.352-.677.672-1.04.96a6.716 6.716 0 0 1-1.184.752 6 6 0 0 1-1.36.464 6.594 6.594 0 0 1-1.568.176 5.11 5.11 0 0 1-2.4-.576c-.736-.384-1.37-.939-1.904-1.664-.533-.725-.954-1.61-1.264-2.656-.298-1.056-.448-2.256-.448-3.6 0-1.237.171-2.384.512-3.44.342-1.067.822-1.984 1.44-2.752a6.776 6.776 0 0 1 2.256-1.824c.875-.437 1.84-.656 2.896-.656.854 0 1.574.128 2.16.384.598.245 1.136.57 1.616.976v-8.4h4.96V63h-3.072zm-5.024-3.552c.363 0 .688-.032.976-.096.299-.075.571-.176.816-.304a3.3 3.3 0 0 0 .688-.48c.224-.192.443-.416.656-.672v-7.04c-.384-.416-.794-.704-1.232-.864a3.624 3.624 0 0 0-1.36-.256c-.458 0-.88.09-1.264.272-.384.181-.72.475-1.008.88-.277.395-.496.912-.656 1.552-.16.64-.24 1.413-.24 2.32 0 .875.064 1.61.192 2.208.128.597.304 1.083.528 1.456.235.363.512.624.832.784.32.16.678.24 1.072.24zm19.363-13.296c1.099 0 2.101.17 3.008.512a6.47 6.47 0 0 1 2.352 1.488c.661.65 1.173 1.45 1.536 2.4.373.939.56 2.005.56 3.2 0 .373-.016.677-.048.912a1.45 1.45 0 0 1-.176.56.667.667 0 0 1-.352.288 1.55 1.55 0 0 1-.544.08h-9.568c.16 1.387.581 2.395 1.264 3.024.683.619 1.563.928 2.64.928.576 0 1.072-.07 1.488-.208a7.164 7.164 0 0 0 1.104-.464c.331-.17.629-.325.896-.464.277-.139.565-.208.864-.208.395 0 .693.144.896.432l1.44 1.776a7.475 7.475 0 0 1-1.664 1.44 8.903 8.903 0 0 1-1.824.864 9.666 9.666 0 0 1-1.872.416 13.07 13.07 0 0 1-1.776.128 9.5 9.5 0 0 1-3.28-.56A7.713 7.713 0 0 1 172.691 61c-.757-.747-1.36-1.675-1.808-2.784-.437-1.11-.656-2.4-.656-3.872 0-1.11.187-2.16.56-3.152a7.935 7.935 0 0 1 1.632-2.608 7.88 7.88 0 0 1 2.576-1.776c1.013-.437 2.155-.656 3.424-.656zm.096 3.424c-.949 0-1.691.272-2.224.816-.533.533-.885 1.307-1.056 2.32h6.192a4.16 4.16 0 0 0-.16-1.152 2.554 2.554 0 0 0-.496-.992 2.415 2.415 0 0 0-.896-.72c-.373-.181-.827-.272-1.36-.272zM197.6 63h-4.512l-6.432-16.592h4.128c.352 0 .646.085.88.256.246.16.411.363.496.608l2.304 7.44c.182.608.352 1.2.512 1.776.171.576.315 1.152.432 1.728.118-.576.262-1.152.432-1.728.171-.576.352-1.168.544-1.776l2.4-7.44c.086-.245.246-.448.48-.608.235-.17.512-.256.832-.256h3.936L197.6 63zm15.303-16.848c1.098 0 2.101.17 3.008.512a6.47 6.47 0 0 1 2.352 1.488c.661.65 1.173 1.45 1.536 2.4.373.939.56 2.005.56 3.2 0 .373-.016.677-.048.912a1.45 1.45 0 0 1-.176.56.67.67 0 0 1-.352.288 1.55 1.55 0 0 1-.544.08h-9.568c.16 1.387.581 2.395 1.264 3.024.682.619 1.562.928 2.64.928.576 0 1.072-.07 1.488-.208a7.164 7.164 0 0 0 1.104-.464l.896-.464c.277-.139.565-.208.864-.208.394 0 .693.144.896.432l1.44 1.776a7.475 7.475 0 0 1-1.664 1.44 8.903 8.903 0 0 1-1.824.864 9.666 9.666 0 0 1-1.872.416 13.07 13.07 0 0 1-1.776.128 9.5 9.5 0 0 1-3.28-.56A7.704 7.704 0 0 1 207.175 61c-.758-.747-1.36-1.675-1.808-2.784-.438-1.11-.656-2.4-.656-3.872 0-1.11.186-2.16.56-3.152a7.935 7.935 0 0 1 1.632-2.608 7.87 7.87 0 0 1 2.576-1.776c1.013-.437 2.154-.656 3.424-.656zm.096 3.424c-.95 0-1.691.272-2.224.816-.534.533-.886 1.307-1.056 2.32h6.192c0-.395-.054-.779-.16-1.152a2.568 2.568 0 0 0-.496-.992 2.415 2.415 0 0 0-.896-.72c-.374-.181-.827-.272-1.36-.272zm15.646-10.528V63h-4.96V39.048h4.96zm11.717 7.104c1.259 0 2.405.197 3.44.592 1.035.395 1.92.96 2.656 1.696.747.736 1.323 1.632 1.728 2.688.416 1.045.624 2.224.624 3.536 0 1.323-.208 2.517-.624 3.584-.405 1.056-.981 1.957-1.728 2.704a7.646 7.646 0 0 1-2.656 1.712c-1.035.395-2.181.592-3.44.592-1.269 0-2.427-.197-3.472-.592a7.984 7.984 0 0 1-2.688-1.712c-.747-.747-1.328-1.648-1.744-2.704-.405-1.067-.608-2.261-.608-3.584 0-1.312.203-2.49.608-3.536.416-1.056.997-1.952 1.744-2.688a7.786 7.786 0 0 1 2.688-1.696c1.045-.395 2.203-.592 3.472-.592zm0 13.424c1.141 0 1.979-.4 2.512-1.2.544-.81.816-2.037.816-3.68 0-1.643-.272-2.864-.816-3.664-.533-.8-1.371-1.2-2.512-1.2-1.173 0-2.032.4-2.576 1.2-.544.8-.816 2.021-.816 3.664 0 1.643.272 2.87.816 3.68.544.8 1.403 1.2 2.576 1.2zm11.49 8.688V46.408h3.072c.31 0 .566.07.768.208.214.139.363.347.448.624l.368 1.216c.32-.352.662-.672 1.024-.96a6.865 6.865 0 0 1 1.184-.736c.427-.213.88-.379 1.36-.496a6.876 6.876 0 0 1 1.6-.176 5.11 5.11 0 0 1 2.4.576c.736.384 1.371.939 1.904 1.664.534.725.95 1.616 1.248 2.672.31 1.045.464 2.235.464 3.568 0 1.248-.176 2.4-.528 3.456-.341 1.056-.826 1.973-1.456 2.752a6.594 6.594 0 0 1-2.24 1.824c-.864.437-1.824.656-2.88.656-.864 0-1.589-.123-2.176-.368a5.917 5.917 0 0 1-1.6-.992v6.368h-4.96zm8.096-18.384a4.08 4.08 0 0 0-.992.112c-.288.064-.56.16-.816.288a3.06 3.06 0 0 0-.688.496 6.61 6.61 0 0 0-.64.672v7.04c.374.416.779.71 1.216.88.438.16.896.24 1.376.24.459 0 .88-.09 1.264-.272.384-.181.715-.47.992-.864.288-.405.512-.928.672-1.568.16-.64.24-1.419.24-2.336 0-.875-.064-1.61-.192-2.208-.128-.597-.309-1.077-.544-1.44-.224-.373-.496-.64-.816-.8-.32-.16-.677-.24-1.072-.24zm17.829-3.728c1.098 0 2.101.17 3.008.512a6.47 6.47 0 0 1 2.352 1.488c.661.65 1.173 1.45 1.536 2.4.373.939.56 2.005.56 3.2 0 .373-.016.677-.048.912a1.45 1.45 0 0 1-.176.56.67.67 0 0 1-.352.288 1.55 1.55 0 0 1-.544.08h-9.568c.16 1.387.581 2.395 1.264 3.024.682.619 1.562.928 2.64.928.576 0 1.072-.07 1.488-.208a7.164 7.164 0 0 0 1.104-.464l.896-.464c.277-.139.565-.208.864-.208.394 0 .693.144.896.432l1.44 1.776a7.475 7.475 0 0 1-1.664 1.44 8.903 8.903 0 0 1-1.824.864 9.666 9.666 0 0 1-1.872.416 13.07 13.07 0 0 1-1.776.128 9.5 9.5 0 0 1-3.28-.56A7.704 7.704 0 0 1 272.049 61c-.758-.747-1.36-1.675-1.808-2.784-.438-1.11-.656-2.4-.656-3.872 0-1.11.186-2.16.56-3.152a7.935 7.935 0 0 1 1.632-2.608 7.87 7.87 0 0 1 2.576-1.776c1.013-.437 2.154-.656 3.424-.656zm.096 3.424c-.95 0-1.691.272-2.224.816-.534.533-.886 1.307-1.056 2.32h6.192c0-.395-.054-.779-.16-1.152a2.568 2.568 0 0 0-.496-.992 2.415 2.415 0 0 0-.896-.72c-.374-.181-.827-.272-1.36-.272zM288.399 63V46.408h2.944c.245 0 .448.021.608.064.17.043.309.112.416.208a.729.729 0 0 1 .256.352c.064.15.117.33.16.544l.272 1.552c.608-.939 1.29-1.68 2.048-2.224.757-.544 1.584-.816 2.48-.816.757 0 1.365.181 1.824.544l-.64 3.648c-.043.224-.128.384-.256.48-.128.085-.299.128-.512.128a3.76 3.76 0 0 1-.64-.064 4.487 4.487 0 0 0-.928-.08c-1.302 0-2.326.693-3.072 2.08V63h-4.96zM0 84.408h3.968c.352 0 .656.08.912.24.256.16.41.368.464.624l1.664 7.44c.128.565.245 1.115.352 1.648.107.533.203 1.061.288 1.584.15-.523.304-1.045.464-1.568.17-.533.336-1.088.496-1.664l2.08-7.456c.064-.245.219-.448.464-.608.245-.17.528-.256.848-.256h2.208c.352 0 .65.085.896.256.256.16.416.363.48.608l1.984 7.456c.15.565.299 1.115.448 1.648.16.533.31 1.072.448 1.616a25.95 25.95 0 0 1 .304-1.584c.128-.533.261-1.093.4-1.68l1.76-7.44c.053-.256.203-.464.448-.624.256-.16.544-.24.864-.24h3.776L20.864 101h-4.032a.807.807 0 0 1-.544-.192c-.15-.128-.267-.341-.352-.64l-2.368-8.272a58.259 58.259 0 0 1-.304-1.104 20.088 20.088 0 0 1-.256-1.088c-.075.373-.16.747-.256 1.12-.085.363-.187.73-.304 1.104l-2.4 8.24c-.16.555-.512.832-1.056.832h-3.84L0 84.408zM28.271 101V77.048h4.96v8.816a7.93 7.93 0 0 1 1.936-1.232c.704-.32 1.542-.48 2.512-.48.907 0 1.707.16 2.4.48.704.31 1.296.747 1.776 1.312.48.555.843 1.221 1.088 2 .246.768.368 1.605.368 2.512V101h-4.96V90.456c0-.81-.186-1.44-.56-1.888-.373-.459-.922-.688-1.648-.688a3.45 3.45 0 0 0-1.536.352c-.48.235-.938.55-1.376.944V101h-4.96zm26.275-16.848c1.258 0 2.405.197 3.44.592 1.034.395 1.92.96 2.656 1.696.746.736 1.322 1.632 1.728 2.688.416 1.045.624 2.224.624 3.536 0 1.323-.208 2.517-.624 3.584-.406 1.056-.982 1.957-1.728 2.704a7.645 7.645 0 0 1-2.656 1.712c-1.035.395-2.182.592-3.44.592-1.27 0-2.427-.197-3.472-.592a7.987 7.987 0 0 1-2.688-1.712c-.747-.747-1.328-1.648-1.744-2.704-.406-1.067-.608-2.261-.608-3.584 0-1.312.202-2.49.608-3.536.416-1.056.997-1.952 1.744-2.688a7.794 7.794 0 0 1 2.688-1.696c1.045-.395 2.202-.592 3.472-.592zm0 13.424c1.141 0 1.978-.4 2.512-1.2.544-.81.816-2.037.816-3.68 0-1.643-.272-2.864-.816-3.664-.534-.8-1.37-1.2-2.512-1.2-1.174 0-2.032.4-2.576 1.2-.544.8-.816 2.021-.816 3.664 0 1.643.272 2.87.816 3.68.544.8 1.402 1.2 2.576 1.2zm29.966-9.232a2.83 2.83 0 0 1-.432.432c-.139.107-.336.16-.592.16-.246 0-.47-.059-.672-.176a23.15 23.15 0 0 0-.656-.384 4.655 4.655 0 0 0-.864-.4c-.33-.117-.742-.176-1.232-.176-.608 0-1.136.112-1.584.336a2.93 2.93 0 0 0-1.088.96c-.288.416-.502.928-.64 1.536a9.024 9.024 0 0 0-.208 2.032c0 1.59.304 2.81.912 3.664.618.853 1.466 1.28 2.544 1.28.576 0 1.03-.07 1.36-.208.341-.15.63-.31.864-.48l.64-.496c.202-.15.453-.224.752-.224.394 0 .693.144.896.432l1.44 1.776a8.041 8.041 0 0 1-1.616 1.44 8.52 8.52 0 0 1-1.744.864 8.75 8.75 0 0 1-1.776.416c-.598.085-1.179.128-1.744.128a7.543 7.543 0 0 1-2.912-.576 7.273 7.273 0 0 1-2.432-1.664c-.694-.736-1.248-1.637-1.664-2.704-.406-1.067-.608-2.283-.608-3.648 0-1.195.176-2.31.528-3.344.362-1.045.89-1.947 1.584-2.704.704-.768 1.568-1.37 2.592-1.808 1.034-.437 2.23-.656 3.584-.656 1.301 0 2.442.208 3.424.624a8.215 8.215 0 0 1 2.656 1.824l-1.312 1.744zM99.882 101c-.47 0-.826-.064-1.072-.192-.234-.128-.432-.395-.592-.8l-.352-.912c-.416.352-.816.661-1.2.928a7.89 7.89 0 0 1-1.2.688 5.693 5.693 0 0 1-1.312.4 7.52 7.52 0 0 1-1.536.144 6.945 6.945 0 0 1-2.064-.288 4.488 4.488 0 0 1-1.584-.88 3.893 3.893 0 0 1-.992-1.424c-.234-.576-.352-1.237-.352-1.984 0-.587.15-1.19.448-1.808.299-.619.816-1.179 1.552-1.68.736-.512 1.728-.939 2.976-1.28 1.248-.341 2.822-.533 4.72-.576v-.704c0-.97-.202-1.67-.608-2.096-.394-.437-.96-.656-1.696-.656-.586 0-1.066.064-1.44.192a6.82 6.82 0 0 0-1.008.432c-.288.16-.57.304-.848.432-.277.128-.608.192-.992.192-.341 0-.634-.08-.88-.24a1.956 1.956 0 0 1-.56-.624l-.896-1.552a9.994 9.994 0 0 1 3.328-1.968c1.227-.437 2.539-.656 3.936-.656 1.003 0 1.904.165 2.704.496a5.6 5.6 0 0 1 2.048 1.36 5.785 5.785 0 0 1 1.296 2.064c.299.8.448 1.675.448 2.624V101h-2.272zm-5.696-3.024c.64 0 1.2-.112 1.68-.336.48-.224.966-.587 1.456-1.088v-2.304c-.992.043-1.808.128-2.448.256-.64.128-1.146.288-1.52.48-.373.192-.634.41-.784.656a1.6 1.6 0 0 0-.208.8c0 .565.155.965.464 1.2.31.224.763.336 1.36.336zm11.81 3.024V84.408h3.072c.31 0 .566.07.768.208.214.139.363.347.448.624l.288.96a12.1 12.1 0 0 1 .992-.832 5.62 5.62 0 0 1 1.088-.64c.395-.181.816-.32 1.264-.416.459-.107.955-.16 1.488-.16.907 0 1.707.16 2.4.48.704.31 1.296.747 1.776 1.312.48.555.843 1.221 1.088 2 .246.768.368 1.605.368 2.512V101h-4.96V90.456c0-.81-.186-1.44-.56-1.888-.373-.459-.922-.688-1.648-.688a3.45 3.45 0 0 0-1.536.352c-.48.235-.938.55-1.376.944V101h-4.96zm37.038 0c-.309 0-.57-.069-.784-.208-.202-.139-.346-.347-.432-.624l-.384-1.264c-.33.352-.677.672-1.04.96a6.699 6.699 0 0 1-1.184.752 6 6 0 0 1-1.36.464 6.61 6.61 0 0 1-1.568.176 5.11 5.11 0 0 1-2.4-.576c-.736-.384-1.37-.939-1.904-1.664-.533-.725-.954-1.61-1.264-2.656-.298-1.056-.448-2.256-.448-3.6 0-1.237.171-2.384.512-3.44.342-1.067.822-1.984 1.44-2.752a6.776 6.776 0 0 1 2.256-1.824c.875-.437 1.84-.656 2.896-.656.854 0 1.574.128 2.16.384.598.245 1.136.57 1.616.976v-8.4h4.96V101h-3.072zm-5.024-3.552c.363 0 .688-.032.976-.096.299-.075.571-.176.816-.304a3.3 3.3 0 0 0 .688-.48c.224-.192.443-.416.656-.672v-7.04c-.384-.416-.794-.704-1.232-.864a3.624 3.624 0 0 0-1.36-.256c-.458 0-.88.09-1.264.272-.384.181-.72.475-1.008.88-.277.395-.496.912-.656 1.552-.16.64-.24 1.413-.24 2.32 0 .875.064 1.61.192 2.208.128.597.304 1.083.528 1.456.235.363.512.624.832.784.32.16.678.24 1.072.24zm19.363-13.296c1.098 0 2.101.17 3.008.512a6.47 6.47 0 0 1 2.352 1.488c.661.65 1.173 1.45 1.536 2.4.373.939.56 2.005.56 3.2 0 .373-.016.677-.048.912a1.45 1.45 0 0 1-.176.56.67.67 0 0 1-.352.288 1.55 1.55 0 0 1-.544.08h-9.568c.16 1.387.581 2.395 1.264 3.024.682.619 1.562.928 2.64.928.576 0 1.072-.07 1.488-.208a7.164 7.164 0 0 0 1.104-.464l.896-.464c.277-.139.565-.208.864-.208.394 0 .693.144.896.432l1.44 1.776a7.475 7.475 0 0 1-1.664 1.44 8.871 8.871 0 0 1-1.824.864 9.666 9.666 0 0 1-1.872.416 13.07 13.07 0 0 1-1.776.128 9.508 9.508 0 0 1-3.28-.56A7.704 7.704 0 0 1 151.645 99c-.758-.747-1.36-1.675-1.808-2.784-.438-1.11-.656-2.4-.656-3.872 0-1.11.186-2.16.56-3.152a7.935 7.935 0 0 1 1.632-2.608 7.87 7.87 0 0 1 2.576-1.776c1.013-.437 2.154-.656 3.424-.656zm.096 3.424c-.95 0-1.691.272-2.224.816-.534.533-.886 1.307-1.056 2.32h6.192c0-.395-.054-.779-.16-1.152a2.568 2.568 0 0 0-.496-.992 2.415 2.415 0 0 0-.896-.72c-.374-.181-.827-.272-1.36-.272zm20.67.464a1.25 1.25 0 0 1-.416.432c-.139.085-.32.128-.544.128-.235 0-.469-.048-.704-.144a32.838 32.838 0 0 0-.768-.336 6.974 6.974 0 0 0-.912-.32 3.914 3.914 0 0 0-1.168-.16c-.629 0-1.115.123-1.456.368-.331.235-.496.565-.496.992 0 .31.107.565.32.768.224.203.517.384.88.544.363.15.773.293 1.232.432.459.139.928.293 1.408.464.48.17.949.373 1.408.608.459.224.869.507 1.232.848.363.33.651.736.864 1.216.224.48.336 1.056.336 1.728 0 .821-.149 1.579-.448 2.272a4.796 4.796 0 0 1-1.344 1.792c-.587.501-1.317.891-2.192 1.168-.864.277-1.861.416-2.992.416a9.1 9.1 0 0 1-1.696-.16 12.155 12.155 0 0 1-1.648-.432 9.511 9.511 0 0 1-1.456-.64 6.642 6.642 0 0 1-1.152-.816l1.152-1.824c.139-.213.304-.379.496-.496.192-.128.443-.192.752-.192.288 0 .544.064.768.192.235.128.485.267.752.416.267.15.576.288.928.416.363.128.816.192 1.36.192.384 0 .709-.037.976-.112.267-.085.48-.197.64-.336.16-.139.277-.293.352-.464a1.3 1.3 0 0 0 .112-.528c0-.33-.112-.603-.336-.816a2.811 2.811 0 0 0-.88-.544 8.945 8.945 0 0 0-1.248-.432 30.753 30.753 0 0 1-1.408-.464 12.66 12.66 0 0 1-1.424-.608 5.199 5.199 0 0 1-1.232-.912 4.33 4.33 0 0 1-.88-1.36c-.224-.533-.336-1.179-.336-1.936 0-.704.133-1.37.4-2 .277-.64.688-1.2 1.232-1.68s1.227-.859 2.048-1.136c.821-.288 1.781-.432 2.88-.432a9.11 9.11 0 0 1 1.728.16 8.851 8.851 0 0 1 1.584.448c.491.192.939.421 1.344.688a6.16 6.16 0 0 1 1.072.848l-1.12 1.744zm9.39-3.632V101h-4.96V84.408h4.96zm.576-4.544c0 .395-.08.768-.24 1.12a3.07 3.07 0 0 1-.656.912 3.411 3.411 0 0 1-.976.624 3.04 3.04 0 0 1-1.168.224c-.406 0-.784-.075-1.136-.224a3.537 3.537 0 0 1-.944-.624 3.197 3.197 0 0 1-.64-.912 2.826 2.826 0 0 1-.224-1.12c0-.405.074-.784.224-1.136.16-.352.373-.661.64-.928a3.09 3.09 0 0 1 .944-.624c.352-.15.73-.224 1.136-.224.416 0 .805.075 1.168.224a3 3 0 0 1 1.632 1.552c.16.352.24.73.24 1.136zm9.605 4.256a9.1 9.1 0 0 1 1.984.208c.629.139 1.21.336 1.744.592h5.008v1.808c0 .277-.08.496-.24.656-.15.16-.411.283-.784.368l-1.216.272c.149.48.224.976.224 1.488 0 .832-.176 1.579-.528 2.24a5.058 5.058 0 0 1-1.424 1.696c-.598.459-1.307.816-2.128 1.072a9.19 9.19 0 0 1-2.64.368c-.523 0-1.014-.032-1.472-.096-.363.213-.544.459-.544.736 0 .277.144.48.432.608.298.117.688.203 1.168.256.48.043 1.029.075 1.648.096.618.01 1.248.048 1.888.112.64.053 1.269.15 1.888.288a5.062 5.062 0 0 1 1.648.672c.48.31.864.725 1.152 1.248.298.512.448 1.168.448 1.968 0 .747-.182 1.477-.544 2.192-.363.715-.896 1.349-1.6 1.904-.704.555-1.568.997-2.592 1.328-1.024.341-2.198.512-3.52.512-1.302 0-2.427-.123-3.376-.368-.939-.245-1.723-.571-2.352-.976-.619-.395-1.078-.853-1.376-1.376a3.243 3.243 0 0 1-.448-1.632c0-.736.224-1.355.672-1.856.448-.512 1.061-.912 1.84-1.2a2.802 2.802 0 0 1-.896-.944c-.224-.384-.336-.87-.336-1.456a2.5 2.5 0 0 1 .128-.768 2.79 2.79 0 0 1 .4-.8c.181-.256.41-.501.688-.736a4.47 4.47 0 0 1 .992-.624c-.864-.459-1.547-1.067-2.048-1.824-.491-.757-.736-1.637-.736-2.64 0-.832.176-1.579.528-2.24a5.014 5.014 0 0 1 1.44-1.696c.618-.47 1.344-.827 2.176-1.072a9.152 9.152 0 0 1 2.704-.384zm3.68 17.488c0-.267-.086-.48-.256-.64-.16-.16-.384-.288-.672-.384a4.643 4.643 0 0 0-.992-.208 18.423 18.423 0 0 0-1.216-.096 55.663 55.663 0 0 0-1.36-.048 19.79 19.79 0 0 1-1.392-.112 3.28 3.28 0 0 0-.768.72 1.427 1.427 0 0 0-.288.88c0 .235.048.448.144.64.106.192.288.357.544.496.256.139.597.245 1.024.32.437.085.986.128 1.648.128.714 0 1.301-.043 1.76-.128.458-.085.821-.203 1.088-.352.277-.149.469-.331.576-.544a1.43 1.43 0 0 0 .16-.672zm-3.68-9.776c.821 0 1.413-.203 1.776-.608.373-.416.56-.95.56-1.6 0-.672-.187-1.2-.56-1.584-.363-.384-.955-.576-1.776-.576-.822 0-1.419.192-1.792.576-.363.384-.544.912-.544 1.584 0 .32.042.613.128.88.096.267.24.501.432.704.192.192.432.347.72.464.298.107.65.16 1.056.16zM208.924 101V84.408h3.072c.309 0 .565.07.768.208.213.139.362.347.448.624l.288.96c.32-.299.65-.576.992-.832a5.59 5.59 0 0 1 1.088-.64c.394-.181.816-.32 1.264-.416.458-.107.954-.16 1.488-.16.906 0 1.706.16 2.4.48.704.31 1.296.747 1.776 1.312.48.555.842 1.221 1.088 2 .245.768.368 1.605.368 2.512V101h-4.96V90.456c0-.81-.187-1.44-.56-1.888-.374-.459-.923-.688-1.648-.688a3.45 3.45 0 0 0-1.536.352c-.48.235-.939.55-1.376.944V101h-4.96zm17.922-2.512c0-.384.07-.741.208-1.072.15-.33.347-.619.592-.864.256-.245.555-.437.896-.576.342-.15.715-.224 1.12-.224.395 0 .763.075 1.104.224.342.139.64.33.896.576.256.245.454.533.592.864.15.33.224.688.224 1.072 0 .384-.074.747-.224 1.088-.138.33-.336.619-.592.864a2.813 2.813 0 0 1-.896.576 2.896 2.896 0 0 1-1.104.208c-.405 0-.778-.069-1.12-.208a2.824 2.824 0 0 1-.896-.576 2.907 2.907 0 0 1-.592-.864 2.876 2.876 0 0 1-.208-1.088z" fill="#121111"/></svg>