<svg width="598" height="98" fill="none" xmlns="http://www.w3.org/2000/svg"><path d="M31.32 35h-7.65V21.14H10.35V35H2.7V2.218h7.65V15.92h13.32V2.217h7.65V35zm13.044-23.332V35h-6.975V11.668h6.975zm.81-6.39c0 .554-.113 1.08-.338 1.575-.225.48-.532.907-.922 1.282-.39.36-.848.652-1.373.877a4.27 4.27 0 0 1-1.642.316c-.57 0-1.103-.105-1.598-.316a4.982 4.982 0 0 1-1.327-.877 4.503 4.503 0 0 1-.9-1.282 3.99 3.99 0 0 1-.315-1.575c0-.57.105-1.103.315-1.598.225-.495.525-.93.9-1.305a4.35 4.35 0 0 1 1.327-.877 4.048 4.048 0 0 1 1.598-.315c.585 0 1.132.105 1.642.315a4.217 4.217 0 0 1 2.295 2.182c.225.495.338 1.027.338 1.597zm4.102 25.762c0-.48.09-.922.27-1.328.18-.42.435-.78.765-1.08a3.899 3.899 0 0 1 1.192-.742 4.27 4.27 0 0 1 1.553-.27c.675 0 1.26.12 1.755.36.495.225.907.54 1.237.945.33.39.57.848.72 1.372.165.51.248 1.05.248 1.62 0 .75-.12 1.553-.36 2.408-.24.84-.6 1.688-1.08 2.542a14.712 14.712 0 0 1-1.755 2.52 14.51 14.51 0 0 1-2.43 2.25l-1.215-1.08a2.517 2.517 0 0 1-.383-.472 1.058 1.058 0 0 1-.112-.517c0-.15.052-.316.157-.495.105-.166.233-.316.383-.45.18-.18.39-.398.63-.653s.48-.54.72-.855c.24-.315.457-.66.652-1.035.21-.375.368-.773.473-1.192a3.881 3.881 0 0 1-1.418-.383c-.42-.21-.78-.488-1.08-.833a4.111 4.111 0 0 1-.675-1.17 4.217 4.217 0 0 1-.247-1.462zM79.006 35h-7.65V2.218h7.65V35zM90.452.102c.6.946 1.042 1.89 1.327 2.836.3.944.45 1.882.45 2.812 0 1.605-.42 3.143-1.26 4.613-.84 1.47-2.077 2.827-3.712 4.072L85.05 13.13a1.429 1.429 0 0 1-.405-.383.998.998 0 0 1 0-.922c.075-.15.165-.277.27-.382.165-.18.345-.398.54-.653a5.94 5.94 0 0 0 1.035-2.092c.135-.436.202-.9.202-1.396 0-.54-.097-1.117-.292-1.732-.18-.615-.488-1.275-.923-1.98a1.35 1.35 0 0 1-.225-.72c0-.27.09-.51.27-.72.18-.21.428-.375.743-.495L90.45.102zM96.63 35V11.668h4.319c.435 0 .795.097 1.08.292.3.195.51.487.63.877l.383 1.26c.39-.404.795-.772 1.215-1.102a7.18 7.18 0 0 1 1.35-.877 7.08 7.08 0 0 1 1.575-.585 7.321 7.321 0 0 1 1.867-.226c1.41 0 2.573.368 3.488 1.103.93.72 1.635 1.688 2.115 2.902.39-.72.862-1.335 1.417-1.845a7.99 7.99 0 0 1 1.823-1.237 9.094 9.094 0 0 1 2.07-.697 10.89 10.89 0 0 1 2.182-.226c1.335 0 2.52.203 3.555.608 1.035.39 1.898.968 2.588 1.733.705.75 1.237 1.68 1.597 2.79.36 1.095.54 2.34.54 3.735V35h-6.975V20.172c0-2.415-1.035-3.622-3.105-3.622-.945 0-1.732.315-2.362.945-.615.615-.923 1.508-.923 2.677V35h-6.975V20.172c0-1.335-.262-2.272-.787-2.812s-1.298-.81-2.318-.81c-.63 0-1.23.142-1.8.427a6.593 6.593 0 0 0-1.575 1.148V35H96.63zm64.47 0c-.66 0-1.162-.09-1.507-.27-.33-.18-.608-.555-.833-1.125l-.495-1.282c-.585.495-1.147.93-1.687 1.304a11.14 11.14 0 0 1-1.688.968 8.008 8.008 0 0 1-1.845.563c-.645.134-1.365.202-2.16.202-1.065 0-2.032-.135-2.902-.405-.87-.285-1.613-.697-2.228-1.237a5.473 5.473 0 0 1-1.395-2.003c-.33-.81-.495-1.74-.495-2.79 0-.825.21-1.672.63-2.543.42-.87 1.148-1.657 2.183-2.362 1.035-.72 2.43-1.32 4.185-1.8 1.755-.48 3.967-.75 6.637-.81v-.99c0-1.365-.285-2.348-.855-2.948-.555-.614-1.35-.922-2.385-.922-.825 0-1.5.09-2.025.27-.525.18-.997.383-1.417.607-.405.226-.803.428-1.193.608s-.855.27-1.395.27c-.48 0-.892-.113-1.237-.337a2.75 2.75 0 0 1-.788-.878l-1.26-2.182a14.051 14.051 0 0 1 4.68-2.768c1.725-.615 3.57-.923 5.535-.923 1.41 0 2.678.233 3.803.698 1.14.45 2.1 1.088 2.88 1.913a8.16 8.16 0 0 1 1.822 2.902c.42 1.125.63 2.355.63 3.69V35H161.1zm-8.01-4.253c.9 0 1.688-.157 2.363-.472.675-.315 1.357-.825 2.047-1.53v-3.24c-1.395.06-2.542.18-3.442.36-.9.18-1.613.405-2.138.675-.525.27-.892.578-1.102.922-.195.346-.293.72-.293 1.125 0 .796.218 1.358.653 1.688.435.315 1.072.473 1.912.473zM179.885 35V16.46l-1.53-.315c-.525-.12-.952-.307-1.282-.563-.315-.255-.473-.63-.473-1.125v-2.745h3.285v-1.327c0-1.335.21-2.542.63-3.622a7.863 7.863 0 0 1 1.845-2.768c.81-.765 1.793-1.357 2.948-1.778 1.155-.42 2.467-.63 3.937-.63.57 0 1.095.038 1.575.113.495.06 1.005.165 1.53.315l-.135 3.397a1.13 1.13 0 0 1-.202.608c-.105.15-.24.278-.405.383a2.08 2.08 0 0 1-.563.202c-.195.045-.39.067-.585.067-.615 0-1.162.06-1.642.18s-.885.338-1.215.653c-.315.3-.555.705-.72 1.215-.165.495-.248 1.125-.248 1.89v1.103h5.49v4.77h-5.265V35h-6.975zm15.719 0V11.668h4.14c.345 0 .63.03.855.09.24.06.435.157.585.292.165.12.285.285.36.495.09.21.165.465.225.765l.383 2.182c.855-1.32 1.815-2.362 2.88-3.127 1.065-.765 2.227-1.148 3.487-1.148 1.065 0 1.92.255 2.565.765l-.9 5.13c-.06.316-.18.54-.36.676-.18.12-.42.18-.72.18a5.35 5.35 0 0 1-.9-.09c-.345-.076-.78-.113-1.305-.113-1.83 0-3.27.975-4.32 2.925V35h-6.975zm29.434-23.693c1.77 0 3.382.278 4.837.833 1.455.555 2.7 1.35 3.735 2.385 1.05 1.035 1.86 2.295 2.43 3.78.585 1.47.878 3.128.878 4.973 0 1.86-.293 3.54-.878 5.04-.57 1.484-1.38 2.752-2.43 3.802-1.035 1.035-2.28 1.838-3.735 2.408-1.455.555-3.067.832-4.837.832-1.785 0-3.413-.277-4.883-.832-1.455-.57-2.715-1.373-3.78-2.408-1.05-1.05-1.867-2.317-2.452-3.802-.57-1.5-.855-3.18-.855-5.04 0-1.845.285-3.503.855-4.973.585-1.485 1.402-2.745 2.452-3.78 1.065-1.035 2.325-1.83 3.78-2.385 1.47-.555 3.098-.833 4.883-.833zm0 18.878c1.605 0 2.782-.563 3.532-1.688.765-1.14 1.148-2.864 1.148-5.174 0-2.31-.383-4.028-1.148-5.153-.75-1.125-1.927-1.688-3.532-1.688-1.65 0-2.858.563-3.623 1.688-.765 1.125-1.147 2.842-1.147 5.152s.382 4.036 1.147 5.175c.765 1.125 1.973 1.688 3.623 1.688zM241.196 35V11.668h4.32c.435 0 .795.097 1.08.292.3.195.51.487.63.877l.405 1.35c.45-.42.915-.81 1.395-1.17.48-.36.99-.66 1.53-.9a8.522 8.522 0 0 1 1.778-.585 9.223 9.223 0 0 1 2.092-.225c1.275 0 2.4.226 3.375.675a6.832 6.832 0 0 1 2.498 1.846c.675.78 1.185 1.717 1.53 2.812.345 1.08.517 2.258.517 3.532V35h-6.975V20.172c0-1.14-.262-2.024-.787-2.655-.525-.645-1.298-.967-2.318-.967-.765 0-1.485.165-2.16.495-.675.33-1.32.772-1.935 1.327V35h-6.975zm34.744.36c-1.11 0-2.093-.157-2.948-.472a6.165 6.165 0 0 1-2.137-1.373 6.04 6.04 0 0 1-1.305-2.16c-.3-.84-.45-1.777-.45-2.813v-12.06h-1.98c-.36 0-.668-.112-.923-.337-.255-.24-.382-.585-.382-1.035v-2.723l3.712-.72 1.373-5.692c.18-.72.69-1.08 1.53-1.08h3.645v6.818h5.67v4.77h-5.67V28.07c0 .54.127.99.382 1.35.27.345.653.517 1.148.517.255 0 .465-.022.63-.067.18-.06.33-.12.45-.18.135-.075.255-.135.36-.18.12-.06.255-.09.405-.09.21 0 .375.052.495.157.135.09.27.24.405.45l2.115 3.308a9.814 9.814 0 0 1-3.038 1.53c-1.125.33-2.287.495-3.487.495zm9.828-16.852h12.15v5.625h-12.15v-5.625zm27.545-7.2c1.545 0 2.955.24 4.23.72 1.29.48 2.392 1.177 3.307 2.092.93.915 1.65 2.04 2.16 3.375.525 1.32.788 2.82.788 4.5 0 .525-.023.953-.068 1.282-.045.33-.127.593-.247.788a.938.938 0 0 1-.495.405c-.195.075-.45.113-.765.113h-13.455c.225 1.95.817 3.367 1.777 4.252.96.87 2.198 1.305 3.713 1.305.81 0 1.507-.098 2.092-.293a10.08 10.08 0 0 0 1.553-.652l1.26-.652c.39-.195.795-.293 1.215-.293.555 0 .975.203 1.26.608l2.025 2.497c-.72.825-1.5 1.5-2.34 2.025-.825.51-1.68.915-2.565 1.215-.87.285-1.748.48-2.633.585-.87.12-1.702.18-2.497.18-1.635 0-3.173-.263-4.613-.788a10.84 10.84 0 0 1-3.757-2.385c-1.065-1.05-1.913-2.354-2.543-3.914-.615-1.56-.922-3.375-.922-5.445 0-1.56.262-3.038.787-4.433a11.158 11.158 0 0 1 2.295-3.668c1.005-1.05 2.213-1.882 3.623-2.497 1.425-.615 3.03-.923 4.815-.923zm.135 4.814c-1.335 0-2.378.383-3.128 1.148-.75.75-1.245 1.838-1.485 3.262h8.708c0-.555-.075-1.095-.225-1.62a3.598 3.598 0 0 0-.698-1.395 3.394 3.394 0 0 0-1.26-1.012c-.525-.255-1.162-.383-1.912-.383zM328.25 35V11.668h4.32c.435 0 .795.097 1.08.292.3.195.51.487.63.877l.405 1.35c.45-.42.915-.81 1.395-1.17.48-.36.99-.66 1.53-.9a8.522 8.522 0 0 1 1.778-.585 9.223 9.223 0 0 1 2.092-.225c1.275 0 2.4.226 3.375.675a6.832 6.832 0 0 1 2.498 1.846c.675.78 1.185 1.717 1.53 2.812.345 1.08.517 2.258.517 3.532V35h-6.975V20.172c0-1.14-.262-2.024-.787-2.655-.525-.645-1.298-.967-2.318-.967-.765 0-1.485.165-2.16.495-.675.33-1.32.772-1.935 1.327V35h-6.975zm42.934 0c-.435 0-.803-.097-1.103-.292-.285-.195-.487-.488-.607-.878l-.54-1.777c-.465.495-.953.945-1.463 1.35a9.499 9.499 0 0 1-1.665 1.057 8.442 8.442 0 0 1-1.912.652 9.276 9.276 0 0 1-2.205.248c-1.215 0-2.34-.27-3.375-.81-1.035-.54-1.928-1.32-2.678-2.34-.75-1.02-1.342-2.265-1.777-3.735-.42-1.485-.63-3.173-.63-5.063 0-1.74.24-3.352.72-4.837.48-1.5 1.155-2.79 2.025-3.87a9.51 9.51 0 0 1 3.172-2.565c1.23-.615 2.588-.923 4.073-.923 1.2 0 2.212.18 3.037.54a8.51 8.51 0 0 1 2.273 1.373V1.317h6.975V35h-4.32zm-7.065-4.995c.51 0 .967-.045 1.372-.135a5.2 5.2 0 0 0 1.148-.428c.345-.18.667-.404.967-.675.315-.27.623-.584.923-.944v-9.9c-.54-.585-1.118-.99-1.733-1.215-.6-.24-1.237-.36-1.912-.36-.645 0-1.238.127-1.778.382s-1.012.668-1.417 1.238c-.39.555-.698 1.282-.923 2.182-.225.9-.337 1.988-.337 3.263 0 1.23.09 2.264.27 3.104.18.84.427 1.523.742 2.048.33.51.72.877 1.17 1.102.45.225.953.338 1.508.338zM406.889 35c-.435 0-.803-.097-1.103-.292-.285-.195-.487-.488-.607-.878l-.54-1.777c-.465.495-.953.945-1.463 1.35a9.499 9.499 0 0 1-1.665 1.057 8.442 8.442 0 0 1-1.912.652 9.276 9.276 0 0 1-2.205.248c-1.215 0-2.34-.27-3.375-.81-1.035-.54-1.928-1.32-2.678-2.34-.75-1.02-1.342-2.265-1.777-3.735-.42-1.485-.63-3.173-.63-5.063 0-1.74.24-3.352.72-4.837.48-1.5 1.155-2.79 2.025-3.87a9.51 9.51 0 0 1 3.172-2.565c1.23-.615 2.588-.923 4.073-.923 1.2 0 2.212.18 3.037.54a8.51 8.51 0 0 1 2.273 1.373V1.317h6.975V35h-4.32zm-7.065-4.995c.51 0 .967-.045 1.372-.135a5.2 5.2 0 0 0 1.148-.428c.345-.18.667-.404.967-.675.315-.27.623-.584.923-.944v-9.9c-.54-.585-1.118-.99-1.733-1.215-.6-.24-1.237-.36-1.912-.36-.645 0-1.238.127-1.778.382s-1.012.668-1.417 1.238c-.39.555-.698 1.282-.923 2.182-.225.9-.337 1.988-.337 3.263 0 1.23.09 2.264.27 3.104.18.84.427 1.523.742 2.048.33.51.72.877 1.17 1.102.45.225.953.338 1.508.338zm27.228-18.697c1.545 0 2.955.24 4.23.72 1.29.48 2.393 1.177 3.308 2.092.93.915 1.65 2.04 2.16 3.375.525 1.32.787 2.82.787 4.5 0 .525-.022.953-.067 1.282-.045.33-.128.593-.248.788a.938.938 0 0 1-.495.405c-.195.075-.45.113-.765.113h-13.455c.225 1.95.818 3.367 1.778 4.252.96.87 2.197 1.305 3.712 1.305.81 0 1.508-.098 2.093-.293a10.067 10.067 0 0 0 1.552-.652l1.26-.652c.39-.195.795-.293 1.215-.293.555 0 .975.203 1.26.608l2.025 2.497c-.72.825-1.5 1.5-2.34 2.025-.825.51-1.68.915-2.565 1.215-.87.285-1.747.48-2.632.585-.87.12-1.703.18-2.498.18-1.635 0-3.172-.263-4.612-.788a10.845 10.845 0 0 1-3.758-2.385c-1.065-1.05-1.912-2.354-2.542-3.914-.615-1.56-.923-3.375-.923-5.445 0-1.56.263-3.038.788-4.433a11.158 11.158 0 0 1 2.295-3.668c1.005-1.05 2.212-1.882 3.622-2.497 1.425-.615 3.03-.923 4.815-.923zm.135 4.814c-1.335 0-2.377.383-3.127 1.148-.75.75-1.245 1.838-1.485 3.262h8.707c0-.555-.075-1.095-.225-1.62a3.597 3.597 0 0 0-.697-1.395 3.394 3.394 0 0 0-1.26-1.012c-.525-.255-1.163-.383-1.913-.383zM454.026 35h-6.345l-9.045-23.332h5.805c.495 0 .907.12 1.237.36.345.224.578.51.698.854l3.24 10.463c.255.855.495 1.688.72 2.498.24.81.442 1.62.607 2.43.165-.81.368-1.62.608-2.43s.495-1.643.765-2.498l3.375-10.462c.12-.345.345-.63.675-.855.33-.24.72-.36 1.17-.36h5.535L454.026 35zm21.519-23.693c1.545 0 2.955.24 4.23.72 1.29.48 2.392 1.178 3.307 2.093.93.915 1.65 2.04 2.16 3.375.525 1.32.788 2.82.788 4.5 0 .525-.023.953-.068 1.282-.045.33-.127.593-.247.788a.938.938 0 0 1-.495.405c-.195.075-.45.113-.765.113H471c.225 1.95.817 3.367 1.777 4.252.96.87 2.198 1.305 3.713 1.305.81 0 1.507-.098 2.092-.293a10.08 10.08 0 0 0 1.553-.652l1.26-.652c.39-.195.795-.293 1.215-.293.555 0 .975.203 1.26.608l2.025 2.497c-.72.825-1.5 1.5-2.34 2.025-.825.51-1.68.915-2.565 1.215-.87.285-1.748.48-2.633.585-.87.12-1.702.18-2.497.18-1.635 0-3.173-.263-4.613-.788a10.84 10.84 0 0 1-3.757-2.385c-1.065-1.05-1.913-2.354-2.543-3.914-.615-1.56-.922-3.375-.922-5.445 0-1.56.262-3.038.787-4.433a11.158 11.158 0 0 1 2.295-3.668c1.005-1.05 2.213-1.882 3.623-2.497 1.425-.615 3.03-.923 4.815-.923zm.135 4.815c-1.335 0-2.378.383-3.128 1.148-.75.75-1.245 1.838-1.485 3.262h8.708c0-.555-.075-1.095-.225-1.62a3.598 3.598 0 0 0-.698-1.395 3.394 3.394 0 0 0-1.26-1.012c-.525-.255-1.162-.383-1.912-.383zm22.002-14.805V35h-6.975V1.318h6.975zm16.477 9.99c1.77 0 3.383.278 4.838.833 1.455.555 2.7 1.35 3.735 2.385 1.05 1.035 1.86 2.295 2.43 3.78.585 1.47.877 3.128.877 4.973 0 1.86-.292 3.54-.877 5.04-.57 1.484-1.38 2.752-2.43 3.802-1.035 1.035-2.28 1.838-3.735 2.408-1.455.555-3.068.832-4.838.832-1.785 0-3.412-.277-4.882-.832-1.455-.57-2.715-1.373-3.78-2.408-1.05-1.05-1.868-2.317-2.453-3.802-.57-1.5-.855-3.18-.855-5.04 0-1.845.285-3.503.855-4.973.585-1.485 1.403-2.745 2.453-3.78 1.065-1.035 2.325-1.83 3.78-2.385 1.47-.555 3.097-.833 4.882-.833zm0 18.878c1.605 0 2.783-.563 3.533-1.688.765-1.14 1.147-2.864 1.147-5.174 0-2.31-.382-4.028-1.147-5.153-.75-1.125-1.928-1.688-3.533-1.688-1.65 0-2.857.563-3.622 1.688-.765 1.125-1.148 2.842-1.148 5.152s.383 4.036 1.148 5.175c.765 1.125 1.972 1.688 3.622 1.688zm16.159 12.218V11.668h4.32c.435 0 .795.097 1.08.292.3.195.51.487.63.877l.517 1.71c.45-.495.93-.945 1.44-1.35a9.615 9.615 0 0 1 1.665-1.034 9.09 9.09 0 0 1 1.913-.698 9.665 9.665 0 0 1 2.25-.248c1.215 0 2.34.27 3.375.81 1.035.54 1.927 1.32 2.677 2.34.75 1.02 1.335 2.273 1.755 3.758.435 1.47.653 3.142.653 5.017 0 1.756-.248 3.375-.743 4.86-.48 1.486-1.162 2.776-2.047 3.87a9.287 9.287 0 0 1-3.15 2.566c-1.215.614-2.565.922-4.05.922-1.215 0-2.235-.172-3.06-.517a8.308 8.308 0 0 1-2.25-1.396v8.956h-6.975zm11.385-25.853c-.51 0-.975.052-1.395.157-.405.09-.788.226-1.148.405a4.27 4.27 0 0 0-.967.698c-.3.27-.6.585-.9.945v9.9c.525.585 1.095.997 1.71 1.237.615.226 1.26.338 1.935.338.645 0 1.237-.128 1.777-.383.54-.255 1.005-.66 1.395-1.215.405-.57.72-1.305.945-2.205.225-.9.338-1.994.338-3.285 0-1.23-.09-2.264-.27-3.104-.18-.84-.435-1.515-.765-2.026-.315-.524-.698-.9-1.148-1.125a3.322 3.322 0 0 0-1.507-.337zm25.071-5.243c1.545 0 2.955.24 4.23.72 1.29.48 2.392 1.178 3.307 2.093.93.915 1.65 2.04 2.16 3.375.525 1.32.788 2.82.788 4.5 0 .525-.023.953-.068 1.282-.045.33-.127.593-.247.788a.938.938 0 0 1-.495.405c-.195.075-.45.113-.765.113h-13.455c.225 1.95.817 3.367 1.777 4.252.96.87 2.198 1.305 3.713 1.305.81 0 1.507-.098 2.092-.293a10.08 10.08 0 0 0 1.553-.652l1.26-.652c.39-.195.795-.293 1.215-.293.555 0 .975.203 1.26.608l2.025 2.497c-.72.825-1.5 1.5-2.34 2.025-.825.51-1.68.915-2.565 1.215-.87.285-1.748.48-2.633.585-.87.12-1.702.18-2.497.18-1.635 0-3.173-.263-4.613-.788a10.84 10.84 0 0 1-3.757-2.385c-1.065-1.05-1.913-2.354-2.543-3.914-.615-1.56-.922-3.375-.922-5.445 0-1.56.262-3.038.787-4.433a11.158 11.158 0 0 1 2.295-3.668c1.005-1.05 2.213-1.882 3.623-2.497 1.425-.615 3.03-.923 4.815-.923zm.135 4.815c-1.335 0-2.378.383-3.128 1.148-.75.75-1.245 1.838-1.485 3.262h8.708c0-.555-.075-1.095-.225-1.62a3.598 3.598 0 0 0-.698-1.395 3.394 3.394 0 0 0-1.26-1.012c-.525-.255-1.162-.383-1.912-.383zM581.711 35V11.668h4.14c.345 0 .63.03.855.09.24.06.435.157.585.292.165.12.285.285.36.495.09.21.165.465.225.765l.383 2.182c.855-1.32 1.815-2.362 2.88-3.127 1.065-.765 2.227-1.148 3.487-1.148 1.065 0 1.92.255 2.565.765l-.9 5.13c-.06.316-.18.54-.36.676-.18.12-.42.18-.72.18a5.35 5.35 0 0 1-.9-.09c-.345-.076-.78-.113-1.305-.113-1.83 0-3.27.975-4.32 2.925V35h-6.975zM0 65.668h5.58c.495 0 .923.112 1.282.337.36.225.578.517.653.877l2.34 10.463c.18.795.345 1.567.495 2.317.15.75.285 1.493.405 2.228.21-.735.427-1.47.652-2.205.24-.75.473-1.53.698-2.34L15.03 66.86c.09-.345.308-.63.652-.855.345-.24.743-.36 1.193-.36h3.105c.495 0 .915.12 1.26.36.36.225.585.51.675.855l2.79 10.485c.21.795.42 1.567.63 2.317.225.75.435 1.508.63 2.273.12-.75.262-1.493.427-2.228.18-.75.368-1.537.563-2.362l2.475-10.463c.075-.36.285-.652.63-.877.36-.225.765-.337 1.215-.337h5.31L29.34 89h-5.67c-.3 0-.555-.09-.765-.27-.21-.18-.375-.48-.495-.9l-3.33-11.632a82.475 82.475 0 0 1-.427-1.553c-.136-.51-.255-1.02-.36-1.53-.105.525-.226 1.05-.36 1.575a21.94 21.94 0 0 1-.428 1.553L14.13 87.83c-.225.78-.72 1.17-1.485 1.17h-5.4L0 65.668zM39.756 89V55.318h6.975v12.397a11.15 11.15 0 0 1 2.723-1.733c.99-.45 2.167-.674 3.532-.674 1.275 0 2.4.224 3.375.674a6.83 6.83 0 0 1 2.498 1.846c.675.78 1.185 1.717 1.53 2.812.345 1.08.517 2.257.517 3.532V89h-6.975V74.172c0-1.14-.262-2.025-.787-2.654-.525-.645-1.298-.968-2.318-.968-.765 0-1.485.165-2.16.495a8.37 8.37 0 0 0-1.935 1.328V89h-6.975zm36.949-23.692c1.77 0 3.383.277 4.838.832 1.454.555 2.7 1.35 3.734 2.385 1.05 1.035 1.86 2.295 2.43 3.78.586 1.47.878 3.127.878 4.972 0 1.86-.292 3.54-.877 5.04-.57 1.486-1.38 2.753-2.43 3.803-1.035 1.035-2.28 1.837-3.736 2.407-1.454.555-3.067.833-4.837.833-1.785 0-3.412-.278-4.882-.832-1.455-.57-2.715-1.373-3.78-2.408-1.05-1.05-1.868-2.318-2.453-3.803-.57-1.5-.855-3.18-.855-5.04 0-1.844.285-3.502.855-4.972.585-1.485 1.403-2.745 2.453-3.78 1.064-1.035 2.325-1.83 3.78-2.385 1.47-.555 3.097-.832 4.882-.832zm0 18.877c1.605 0 2.782-.563 3.532-1.688.766-1.14 1.148-2.865 1.148-5.174 0-2.31-.383-4.028-1.148-5.153-.75-1.125-1.927-1.688-3.532-1.688-1.65 0-2.858.563-3.623 1.688-.764 1.125-1.147 2.843-1.147 5.153 0 2.31.382 4.035 1.147 5.175.766 1.124 1.973 1.687 3.623 1.687zm42.14-12.983c-.21.255-.413.458-.608.608-.195.15-.472.225-.832.225-.345 0-.66-.082-.945-.248-.27-.165-.578-.345-.923-.54a6.549 6.549 0 0 0-1.215-.562c-.465-.165-1.042-.248-1.732-.248-.855 0-1.598.158-2.228.473a4.129 4.129 0 0 0-1.53 1.35c-.405.585-.705 1.305-.9 2.16-.195.84-.292 1.793-.292 2.858 0 2.234.427 3.952 1.282 5.152.87 1.2 2.063 1.8 3.578 1.8.81 0 1.447-.098 1.912-.293.48-.21.885-.434 1.215-.674l.9-.698c.285-.21.638-.315 1.058-.315.555 0 .975.203 1.26.608l2.025 2.497c-.72.825-1.478 1.5-2.273 2.025-.795.51-1.612.915-2.452 1.215-.825.285-1.658.48-2.498.585-.84.12-1.657.18-2.452.18-1.425 0-2.79-.27-4.095-.81-1.29-.54-2.43-1.32-3.42-2.34-.975-1.035-1.755-2.302-2.34-3.802-.57-1.5-.855-3.21-.855-5.13 0-1.68.247-3.248.742-4.703.51-1.47 1.253-2.737 2.228-3.803.99-1.08 2.205-1.927 3.645-2.542 1.455-.615 3.135-.922 5.04-.922 1.83 0 3.435.292 4.815.877 1.38.585 2.625 1.44 3.735 2.565l-1.845 2.453zM140.459 89c-.66 0-1.162-.09-1.507-.27-.33-.18-.608-.555-.833-1.125l-.495-1.282c-.585.495-1.147.93-1.687 1.305a11.14 11.14 0 0 1-1.688.967 8.008 8.008 0 0 1-1.845.563c-.645.135-1.365.202-2.16.202-1.065 0-2.032-.135-2.902-.405-.87-.285-1.613-.698-2.228-1.237a5.473 5.473 0 0 1-1.395-2.003c-.33-.81-.495-1.74-.495-2.79 0-.825.21-1.672.63-2.543.42-.87 1.148-1.657 2.183-2.362 1.035-.72 2.43-1.32 4.185-1.8 1.755-.48 3.967-.75 6.637-.81v-.99c0-1.365-.285-2.347-.855-2.948-.555-.614-1.35-.922-2.385-.922-.825 0-1.5.09-2.025.27-.525.18-.997.383-1.417.608-.405.225-.803.427-1.193.607s-.855.27-1.395.27c-.48 0-.892-.113-1.237-.338a2.75 2.75 0 0 1-.788-.877l-1.26-2.183a14.051 14.051 0 0 1 4.68-2.767c1.725-.615 3.57-.922 5.535-.922 1.41 0 2.678.232 3.803.697 1.14.45 2.1 1.087 2.88 1.912a8.16 8.16 0 0 1 1.822 2.903c.42 1.125.63 2.355.63 3.69V89h-3.195zm-8.01-4.252c.9 0 1.688-.158 2.363-.473.675-.315 1.357-.825 2.047-1.53v-3.24c-1.395.06-2.542.18-3.442.36-.9.18-1.613.405-2.138.675-.525.27-.892.578-1.102.922-.195.346-.293.72-.293 1.126 0 .794.218 1.357.653 1.687.435.315 1.072.472 1.912.472zM149.057 89V65.668h4.32c.435 0 .795.097 1.08.292.3.195.51.488.63.878l.405 1.35c.45-.42.915-.81 1.395-1.17.48-.36.99-.66 1.53-.9a8.522 8.522 0 0 1 1.778-.585 9.223 9.223 0 0 1 2.092-.225c1.275 0 2.4.224 3.375.674a6.832 6.832 0 0 1 2.498 1.846c.675.78 1.185 1.717 1.53 2.812.345 1.08.517 2.257.517 3.532V89h-6.975V74.172c0-1.14-.262-2.025-.787-2.654-.525-.645-1.298-.968-2.318-.968-.765 0-1.485.165-2.16.495a8.37 8.37 0 0 0-1.935 1.328V89h-6.975zm52.085 0c-.435 0-.803-.097-1.103-.293-.285-.194-.487-.487-.607-.877l-.54-1.778c-.465.495-.953.945-1.463 1.35a9.499 9.499 0 0 1-1.665 1.058 8.442 8.442 0 0 1-1.912.653 9.276 9.276 0 0 1-2.205.247c-1.215 0-2.34-.27-3.375-.81-1.035-.54-1.928-1.32-2.678-2.34-.75-1.02-1.342-2.265-1.777-3.735-.42-1.485-.63-3.172-.63-5.063 0-1.74.24-3.352.72-4.837.48-1.5 1.155-2.79 2.025-3.87a9.51 9.51 0 0 1 3.172-2.565c1.23-.615 2.588-.922 4.073-.922 1.2 0 2.212.18 3.037.54.84.345 1.598.802 2.273 1.372V55.318h6.975V89h-4.32zm-7.065-4.995c.51 0 .967-.045 1.372-.135a5.2 5.2 0 0 0 1.148-.428 4.67 4.67 0 0 0 .967-.674c.315-.27.623-.585.923-.945v-9.9c-.54-.585-1.118-.99-1.733-1.216-.6-.24-1.237-.36-1.912-.36-.645 0-1.238.128-1.778.383s-1.012.667-1.417 1.237c-.39.555-.698 1.283-.923 2.183-.225.9-.337 1.987-.337 3.262 0 1.23.09 2.265.27 3.105.18.84.427 1.523.742 2.048.33.51.72.877 1.17 1.103.45.224.953.337 1.508.337zm27.228-18.697c1.545 0 2.955.24 4.23.72 1.29.48 2.393 1.177 3.308 2.092.93.915 1.65 2.04 2.16 3.375.525 1.32.787 2.82.787 4.5 0 .525-.022.953-.067 1.282-.045.33-.128.593-.248.788a.938.938 0 0 1-.495.405c-.195.075-.45.112-.765.112H216.76c.225 1.95.818 3.368 1.778 4.253.96.87 2.197 1.305 3.712 1.305.81 0 1.508-.097 2.093-.293a10.067 10.067 0 0 0 1.552-.652l1.26-.652c.39-.196.795-.293 1.215-.293.555 0 .975.203 1.26.608l2.025 2.497c-.72.825-1.5 1.5-2.34 2.025-.825.51-1.68.915-2.565 1.215-.87.285-1.747.48-2.632.585-.87.12-1.703.18-2.498.18-1.635 0-3.172-.263-4.612-.787a10.845 10.845 0 0 1-3.758-2.385c-1.065-1.05-1.912-2.356-2.542-3.916-.615-1.56-.923-3.375-.923-5.445 0-1.56.263-3.037.788-4.432a11.158 11.158 0 0 1 2.295-3.667c1.005-1.05 2.212-1.883 3.622-2.498 1.425-.615 3.03-.922 4.815-.922zm.135 4.814c-1.335 0-2.377.383-3.127 1.148-.75.75-1.245 1.838-1.485 3.263h8.707c0-.555-.075-1.096-.225-1.62a3.597 3.597 0 0 0-.697-1.395 3.394 3.394 0 0 0-1.26-1.013c-.525-.255-1.163-.382-1.913-.382zm29.068.653c-.18.285-.375.487-.585.607-.195.12-.45.18-.765.18-.33 0-.66-.067-.99-.202-.33-.15-.69-.308-1.08-.472a9.76 9.76 0 0 0-1.283-.45 5.502 5.502 0 0 0-1.642-.225c-.885 0-1.568.172-2.048.517-.465.33-.697.795-.697 1.395 0 .435.15.795.45 1.08.315.285.727.54 1.237.765.51.21 1.088.412 1.733.608.645.194 1.305.412 1.98.652.675.24 1.335.525 1.98.855a6.977 6.977 0 0 1 1.732 1.193c.51.465.915 1.034 1.215 1.71.315.674.473 1.484.473 2.43 0 1.154-.21 2.22-.63 3.194a6.734 6.734 0 0 1-1.89 2.52c-.825.706-1.853 1.253-3.083 1.643-1.215.39-2.617.585-4.207.585-.795 0-1.59-.075-2.385-.225a16.963 16.963 0 0 1-2.318-.608 13.39 13.39 0 0 1-2.047-.9 9.34 9.34 0 0 1-1.62-1.147l1.62-2.565c.195-.3.427-.533.697-.698.27-.18.623-.27 1.058-.27.405 0 .765.09 1.08.27.33.18.682.376 1.057.585.375.21.81.405 1.305.585.51.18 1.148.27 1.913.27.54 0 .997-.052 1.372-.157.375-.12.675-.278.9-.472.225-.196.39-.413.495-.653.105-.24.158-.487.158-.743 0-.465-.158-.847-.473-1.147-.315-.3-.727-.555-1.237-.765a12.537 12.537 0 0 0-1.755-.608 43.437 43.437 0 0 1-1.98-.652 17.847 17.847 0 0 1-2.003-.855 7.31 7.31 0 0 1-1.732-1.282 6.1 6.1 0 0 1-1.238-1.913c-.315-.75-.472-1.657-.472-2.722 0-.99.187-1.928.562-2.813.39-.9.968-1.688 1.733-2.362.765-.675 1.725-1.208 2.88-1.598 1.155-.405 2.505-.608 4.05-.608.84 0 1.65.075 2.43.225.795.15 1.537.36 2.227.63s1.32.593 1.89.968c.57.36 1.073.758 1.508 1.193l-1.575 2.452zm13.204-5.108V89h-6.975V65.668h6.975zm.81-6.39c0 .556-.112 1.08-.337 1.575a4.3 4.3 0 0 1-.923 1.283c-.39.36-.847.653-1.372.878-.51.21-1.058.315-1.643.315-.57 0-1.102-.106-1.597-.316a4.985 4.985 0 0 1-1.328-.877 4.503 4.503 0 0 1-.9-1.282 3.99 3.99 0 0 1-.315-1.575c0-.57.105-1.103.315-1.598.225-.495.525-.93.9-1.305.39-.375.833-.667 1.328-.877a4.045 4.045 0 0 1 1.597-.316c.585 0 1.133.105 1.643.316a4.215 4.215 0 0 1 2.295 2.182c.225.495.337 1.028.337 1.598zm13.507 5.986c.99 0 1.92.097 2.79.292.885.195 1.703.472 2.453.832h7.042v2.543c0 .39-.112.697-.337.922-.21.225-.578.398-1.103.518l-1.71.382c.21.675.315 1.373.315 2.093 0 1.17-.247 2.22-.742 3.15a7.103 7.103 0 0 1-2.003 2.385c-.84.645-1.837 1.148-2.992 1.508a12.95 12.95 0 0 1-3.713.517c-.735 0-1.425-.045-2.07-.135-.51.3-.765.645-.765 1.035 0 .39.203.675.608.855.42.165.967.285 1.642.36.675.06 1.448.105 2.318.135.87.015 1.755.067 2.655.157.9.076 1.785.21 2.655.406.87.194 1.642.51 2.317.944a4.806 4.806 0 0 1 1.62 1.755c.42.72.63 1.643.63 2.768 0 1.05-.255 2.078-.765 3.082-.51 1.005-1.26 1.898-2.25 2.678s-2.205 1.403-3.645 1.868c-1.44.48-3.09.72-4.95.72-1.83 0-3.412-.173-4.747-.518-1.32-.345-2.423-.802-3.308-1.373-.87-.554-1.515-1.2-1.935-1.934-.42-.736-.63-1.5-.63-2.296 0-1.035.315-1.905.945-2.61.63-.72 1.493-1.282 2.588-1.687a3.95 3.95 0 0 1-1.26-1.328c-.315-.54-.473-1.222-.473-2.047 0-.345.06-.705.18-1.08.12-.39.308-.765.563-1.125.255-.36.577-.705.967-1.035.39-.33.855-.623 1.395-.877-1.215-.645-2.175-1.5-2.88-2.566-.69-1.064-1.035-2.302-1.035-3.712 0-1.17.248-2.22.743-3.15a7.051 7.051 0 0 1 2.025-2.385c.87-.66 1.89-1.163 3.06-1.508 1.17-.36 2.437-.54 3.802-.54zm5.175 24.592c0-.375-.12-.675-.36-.9-.225-.225-.54-.405-.945-.54a6.488 6.488 0 0 0-1.395-.293 26.483 26.483 0 0 0-1.71-.135 73.577 73.577 0 0 0-1.912-.067c-.66-.03-1.313-.082-1.958-.157a4.67 4.67 0 0 0-1.08 1.012c-.27.36-.405.772-.405 1.237 0 .33.068.63.203.9.15.27.405.503.765.698.36.195.84.345 1.44.45.615.12 1.387.18 2.317.18 1.005 0 1.83-.06 2.475-.18s1.155-.285 1.53-.495c.39-.21.66-.465.81-.765.15-.285.225-.6.225-.945zm-5.175-13.748c1.155 0 1.988-.284 2.498-.855.525-.584.787-1.334.787-2.25 0-.944-.262-1.687-.787-2.227-.51-.54-1.343-.81-2.498-.81-1.155 0-1.995.27-2.52.81-.51.54-.765 1.282-.765 2.227 0 .45.06.863.18 1.238.135.375.338.705.608.99.27.27.607.487 1.012.652.42.15.915.225 1.485.225zM293.799 89V65.668h4.32c.435 0 .795.097 1.08.292.3.195.51.488.63.878l.405 1.35c.45-.42.915-.81 1.395-1.17.48-.36.99-.66 1.53-.9a8.522 8.522 0 0 1 1.778-.585 9.223 9.223 0 0 1 2.092-.225c1.275 0 2.4.224 3.375.674a6.832 6.832 0 0 1 2.498 1.846c.675.78 1.185 1.717 1.53 2.812.345 1.08.517 2.257.517 3.532V89h-6.975V74.172c0-1.14-.262-2.025-.787-2.654-.525-.645-1.298-.968-2.318-.968-.765 0-1.485.165-2.16.495a8.37 8.37 0 0 0-1.935 1.328V89h-6.975zm25.204-3.532c0-.54.097-1.043.292-1.508.21-.465.488-.87.833-1.215a3.95 3.95 0 0 1 1.26-.81 3.887 3.887 0 0 1 1.575-.315c.555 0 1.072.105 1.552.315.48.195.9.465 1.26.81.36.345.638.75.833 1.215.21.465.315.968.315 1.508s-.105 1.05-.315 1.53c-.195.465-.473.87-.833 1.215a3.95 3.95 0 0 1-1.26.81c-.48.195-.997.292-1.552.292-.57 0-1.095-.097-1.575-.293a3.95 3.95 0 0 1-1.26-.81 4.07 4.07 0 0 1-.833-1.215 4.026 4.026 0 0 1-.292-1.53z" fill="#121111"/></svg>