<svg fill="none" height="29" viewBox="0 0 59 29" width="59" xmlns="http://www.w3.org/2000/svg"><path d="m.8 23v-22.455001h4.65v8.550001c.58-.57 1.235-1.025 1.965-1.365.74-.35 1.605-.525 2.595-.525.81 0 1.56.175 2.25.525s1.285.865 1.785 1.545c.5.67.89 1.495 1.17 2.475.29.98.435 2.095.435 3.345 0 1.17-.165 2.25-.495 3.24-.32.99-.775 1.85-1.365 2.58-.58.73-1.28 1.3-2.1 1.71-.81.41-1.71.615-2.7.615-.46 0-.875-.045-1.245-.135-.36-.09-.695-.215-1.005-.375-.3-.17-.58-.37-.84-.6-.25-.23-.495-.48-.735-.75l-.165.78c-.07.32-.2.54-.39.66-.18.12-.42.18-.72.18zm7.59-12.3c-.34 0-.65.035-.93.105-.27.06-.525.15-.765.27-.23.12-.445.275-.645.465-.2.18-.4.39-.6.63v6.6c.35.39.73.665 1.14.825.41.15.84.225 1.29.225.43 0 .825-.085 1.185-.255s.67-.44.93-.81c.27-.38.48-.87.63-1.47s.225-1.33.225-2.19c0-.82-.06-1.51-.18-2.07s-.29-1.01-.51-1.35c-.21-.35-.465-.6-.765-.75s-.635-.225-1.005-.225zm14.9123-10.155001v22.455001h-4.65v-22.455001zm10.9847 6.660001c1.18 0 2.255.185 3.225.555s1.8.9 2.49 1.59c.7.69 1.24 1.53 1.62 2.52.39.98.585 2.085.585 3.315 0 1.24-.195 2.36-.585 3.36-.38.99-.92 1.835-1.62 2.535-.69.69-1.52 1.225-2.49 1.605-.97.37-2.045.555-3.225.555-1.19 0-2.275-.185-3.255-.555-.97-.38-1.81-.915-2.52-1.605-.7-.7-1.245-1.545-1.635-2.535-.38-1-.57-2.12-.57-3.36 0-1.23.19-2.335.57-3.315.39-.99.935-1.83 1.635-2.52.71-.69 1.55-1.22 2.52-1.59.98-.37 2.065-.555 3.255-.555zm0 12.585c1.07 0 1.855-.375 2.355-1.125.51-.76.765-1.91.765-3.45s-.255-2.685-.765-3.435c-.5-.75-1.285-1.125-2.355-1.125-1.1 0-1.905.375-2.415 1.125s-.765 1.895-.765 3.435.255 2.69.765 3.45c.51.75 1.315 1.125 2.415 1.125zm16.2624-12.615c.66 0 1.28.065 1.86.195.59.13 1.135.315 1.635.555h4.695v1.695c0 .26-.075.465-.225.615-.14.15-.385.265-.735.345l-1.14.255c.14.45.21.915.21 1.395 0 .78-.165 1.48-.495 2.1-.32.62-.765 1.15-1.335 1.59-.56.43-1.225.765-1.995 1.005-.77.23-1.595.345-2.475.345-.49 0-.95-.03-1.38-.09-.34.2-.51.43-.51.69s.135.45.405.57c.28.11.645.19 1.095.24.45.04.965.07 1.545.09.58.01 1.17.045 1.77.105.6.05 1.19.14 1.77.27s1.095.34 1.545.63.81.68 1.08 1.17c.28.48.42 1.095.42 1.845 0 .7-.17 1.385-.51 2.055s-.84 1.265-1.5 1.785-1.47.935-2.43 1.245c-.96.32-2.06.48-3.3.48-1.22 0-2.275-.115-3.165-.345-.88-.23-1.615-.535-2.205-.915-.58-.37-1.01-.8-1.29-1.29s-.42-1-.42-1.53c0-.69.21-1.27.63-1.74.42-.48.995-.855 1.725-1.125-.35-.23-.63-.525-.84-.885s-.315-.815-.315-1.365c0-.23.04-.47.12-.72.08-.26.205-.51.375-.75s.385-.47.645-.69.57-.415.93-.585c-.81-.43-1.45-1-1.92-1.71-.46-.71-.69-1.535-.69-2.475 0-.78.165-1.48.495-2.1.33-.63.78-1.16 1.35-1.59.58-.44 1.26-.775 2.04-1.005.78-.24 1.625-.36 2.535-.36zm3.45 16.395c0-.25-.08-.45-.24-.6-.15-.15-.36-.27-.63-.36-.26-.09-.57-.155-.93-.195-.35-.04-.73-.07-1.14-.09s-.835-.035-1.275-.045c-.44-.02-.875-.055-1.305-.105-.29.2-.53.425-.72.675-.18.24-.27.515-.27.825 0 .22.045.42.135.6.1.18.27.335.51.465s.56.23.96.3c.41.08.925.12 1.545.12.67 0 1.22-.04 1.65-.12s.77-.19 1.02-.33c.26-.14.44-.31.54-.51.1-.19.15-.4.15-.63zm-3.45-9.165c.77 0 1.325-.19 1.665-.57.35-.39.525-.89.525-1.5 0-.63-.175-1.125-.525-1.485-.34-.36-.895-.54-1.665-.54s-1.33.18-1.68.54c-.34.36-.51.855-.51 1.485 0 .3.04.575.12.825.09.25.225.47.405.66.18.18.405.325.675.435.28.1.61.15.99.15z" fill="#121111"/></svg>