<svg fill="none" height="26" viewBox="0 0 331 26" width="331" xmlns="http://www.w3.org/2000/svg"><path d="m5.412 17.22h7.56v3.78h-12.292v-20.398h4.732zm15.4567-10.962c.9613 0 1.8386.14933 2.632.448.8026.29867 1.4886.73267 2.058 1.302.5786.56933 1.0266 1.26933 1.344 2.1.3266.8213.49 1.7547.49 2.8 0 .3267-.014.5927-.042.798s-.0794.3687-.154.49c-.0747.1213-.1774.2053-.308.252-.1214.0467-.28.07-.476.07h-8.372c.14 1.2133.5086 2.0953 1.106 2.646.5973.5413 1.3673.812 2.31.812.504 0 .938-.0607 1.302-.182s.686-.2567.966-.406c.2893-.1493.5506-.2847.784-.406.2426-.1213.4946-.182.756-.182.3453 0 .6066.126.784.378l1.26 1.554c-.448.5133-.9334.9333-1.456 1.26-.5134.3173-1.0454.5693-1.596.756-.5414.1773-1.0874.2987-1.638.364-.5414.0747-1.0594.112-1.554.112-1.0174 0-1.974-.1633-2.87-.49-.8867-.336-1.666-.8307-2.338-1.484-.6627-.6533-1.19-1.4653-1.582-2.436-.3827-.9707-.574-2.1-.574-3.388 0-.9707.1633-1.89.49-2.758.336-.868.812-1.62867 1.428-2.282.6253-.65333 1.3766-1.17133 2.254-1.554.8866-.38267 1.8853-.574 2.996-.574zm.084 2.996c-.8307 0-1.4794.238-1.946.714-.4667.4667-.7747 1.1433-.924 2.03h5.418c0-.3453-.0467-.6813-.14-1.008-.084-.3267-.2287-.616-.434-.868-.196-.26133-.4574-.47133-.784-.63-.3267-.15867-.7234-.238-1.19-.238zm14.0264 11.97c-.6906 0-1.302-.098-1.834-.294-.5226-.2053-.966-.49-1.33-.854-.3546-.3733-.6253-.8213-.812-1.344-.1866-.5227-.28-1.106-.28-1.75v-7.504h-1.232c-.224 0-.4153-.07-.574-.21-.1586-.14933-.238-.364-.238-.644v-1.694l2.31-.448.854-3.542c.112-.448.4294-.672.952-.672h2.268v4.242h3.528v2.968h-3.528v7.21c0 .336.0794.616.238.84.168.2147.406.322.714.322.1587 0 .2894-.014.392-.042.112-.0373.2054-.0747.28-.112.084-.0467.1587-.084.224-.112.0747-.0373.1587-.056.252-.056.1307 0 .2334.0327.308.098.084.056.168.1493.252.28l1.316 2.058c-.56.42-1.19.7373-1.89.952-.7.2053-1.4233.308-2.17.308zm11.529-.224v-14.518h2.688c.2707 0 .4947.06067.672.182.1867.12133.3174.30333.392.546l.238.784c.2427-.252.4947-.48067.756-.686.2614-.21467.5414-.39667.84-.546.308-.15867.6347-.28.98-.364.3547-.09333.742-.14 1.162-.14.8774 0 1.6007.22867 2.17.686.5787.448 1.0174 1.05 1.316 1.806.2427-.448.5367-.83067.882-1.148.3547-.31733.7327-.574 1.134-.77.4107-.196.84-.34067 1.288-.434.4574-.09333.91-.14 1.358-.14.8307 0 1.568.126 2.212.378.644.24267 1.1807.602 1.61 1.078.4387.46667.77 1.04533.994 1.736.224.6813.336 1.456.336 2.324v9.226h-4.34v-9.226c0-1.5027-.644-2.254-1.932-2.254-.588 0-1.078.196-1.47.588-.3826.3827-.574.938-.574 1.666v9.226h-4.34v-9.226c0-.8307-.1633-1.414-.49-1.75-.3266-.336-.8073-.504-1.442-.504-.392 0-.7653.08867-1.12.266-.3453.17733-.672.4153-.98.714v10.5zm30.3332-14.742c.9613 0 1.8387.14933 2.632.448.8027.29867 1.4887.73267 2.058 1.302.5787.56933 1.0267 1.26933 1.344 2.1.3267.8213.49 1.7547.49 2.8 0 .3267-.014.5927-.042.798s-.0793.3687-.154.49-.1773.2053-.308.252c-.1213.0467-.28.07-.476.07h-8.372c.14 1.2133.5087 2.0953 1.106 2.646.5973.5413 1.3673.812 2.31.812.504 0 .938-.0607 1.302-.182s.686-.2567.966-.406c.2893-.1493.5507-.2847.784-.406.2427-.1213.4947-.182.756-.182.3453 0 .6067.126.784.378l1.26 1.554c-.448.5133-.9333.9333-1.456 1.26-.5133.3173-1.0453.5693-1.596.756-.5413.1773-1.0873.2987-1.638.364-.5413.0747-1.0593.112-1.554.112-1.0173 0-1.974-.1633-2.87-.49-.8867-.336-1.666-.8307-2.338-1.484-.6627-.6533-1.19-1.4653-1.582-2.436-.3827-.9707-.574-2.1-.574-3.388 0-.9707.1633-1.89.49-2.758.336-.868.812-1.62867 1.428-2.282.6253-.65333 1.3767-1.17133 2.254-1.554.8867-.38267 1.8853-.574 2.996-.574zm.084 2.996c-.8307 0-1.4793.238-1.946.714-.4667.4667-.7747 1.1433-.924 2.03h5.418c0-.3453-.0467-.6813-.14-1.008-.084-.3267-.2287-.616-.434-.868-.196-.26133-.4573-.47133-.784-.63s-.7233-.238-1.19-.238zm23.2207.406c-.112.17733-.2335.30333-.3642.378-.1213.0747-.28.112-.476.112-.2053 0-.4106-.042-.616-.126-.2053-.09333-.4293-.19133-.672-.294-.2333-.10267-.4993-.196-.798-.28-.2986-.09333-.6393-.14-1.022-.14-.5506 0-.9753.10733-1.274.322-.2893.20533-.434.4947-.434.868 0 .2707.0934.4947.28.672.196.1773.4527.336.77.476.3174.1307.6767.2567 1.078.378.4014.1213.812.2567 1.232.406s.8307.3267 1.232.532c.4014.196.7607.4433 1.0782.742.317.2893.569.644.756 1.064.196.42.294.924.294 1.512 0 .7187-.131 1.3813-.392 1.988s-.653 1.1293-1.1762 1.568c-.5133.4387-1.1526.7793-1.918 1.022-.756.2427-1.6286.364-2.618.364-.4946 0-.9893-.0467-1.484-.14-.4946-.0933-.9753-.2193-1.442-.378-.4573-.1587-.882-.3453-1.274-.56-.392-.224-.728-.462-1.008-.714l1.008-1.596c.1214-.1867.266-.3313.434-.434.168-.112.3874-.168.658-.168.252 0 .476.056.672.168.2054.112.4247.2333.658.364.2334.1307.504.252.812.364.3174.112.714.168 1.19.168.336 0 .6207-.0327.854-.098.2334-.0747.42-.1727.56-.294s.2427-.2567.308-.406c.0654-.1493.098-.3033.098-.462 0-.2893-.098-.5273-.294-.714s-.4526-.3453-.77-.476c-.3173-.14-.6813-.266-1.092-.378-.4013-.1213-.812-.2567-1.232-.406s-.8353-.3267-1.246-.532c-.4013-.2147-.7606-.4807-1.078-.798-.3173-.3267-.574-.7233-.77-1.19s-.294-1.0313-.294-1.694c0-.616.1167-1.19933.35-1.75.2427-.56.602-1.05 1.078-1.47s1.0734-.75133 1.792-.994c.7187-.252 1.5587-.378 2.52-.378.5227 0 1.0267.04667 1.512.14.4947.09333.9567.224 1.386.392.4294.168.8214.36867 1.1762.602.355.224.667.47133.938.742zm3.456 11.34v-20.9580014h4.34v7.7140014c.523-.448 1.087-.80733 1.694-1.078.616-.28 1.349-.42 2.198-.42.793 0 1.493.14 2.1.42.616.27067 1.134.65333 1.554 1.148.42.48533.737 1.06867.952 1.75.215.672.322 1.4047.322 2.198v9.226h-4.34v-9.226c0-.7093-.163-1.26-.49-1.652-.327-.40133-.807-.602-1.442-.602-.476 0-.924.10267-1.344.308-.42.2053-.821.4807-1.204.826v10.346zm26.266 0c-.411 0-.723-.056-.938-.168-.205-.112-.378-.3453-.518-.7l-.308-.798c-.364.308-.714.5787-1.05.812s-.686.434-1.05.602c-.355.1587-.737.2753-1.148.35-.401.084-.849.126-1.344.126-.663 0-1.265-.084-1.806-.252-.541-.1773-1.003-.434-1.386-.77-.373-.336-.663-.7513-.868-1.246-.205-.504-.308-1.0827-.308-1.736 0-.5133.131-1.0407.392-1.582s.714-1.0313 1.358-1.47c.644-.448 1.512-.8213 2.604-1.12s2.469-.4667 4.13-.504v-.616c0-.8493-.177-1.4607-.532-1.834-.345-.38267-.84-.574-1.484-.574-.513 0-.933.056-1.26.168s-.621.238-.882.378c-.252.14-.499.266-.742.378s-.532.168-.868.168c-.299 0-.555-.07-.77-.21-.205-.1493-.369-.3313-.49-.546l-.784-1.358c.877-.77467 1.848-1.34867 2.912-1.722 1.073-.38267 2.221-.574 3.444-.574.877 0 1.666.14467 2.366.434.709.28 1.307.67667 1.792 1.19.495.504.873 1.106 1.134 1.806s.392 1.4653.392 2.296v9.072zm-4.984-2.646c.56 0 1.05-.098 1.47-.294s.845-.5133 1.274-.952v-2.016c-.868.0373-1.582.112-2.142.224s-1.003.252-1.33.42-.555.3593-.686.574c-.121.2147-.182.448-.182.7 0 .4947.135.8447.406 1.05.271.196.667.294 1.19.294zm10.054 2.646v-14.518h2.576c.214 0 .392.01867.532.056.149.03733.27.098.364.182.102.07467.177.17733.224.308.056.13067.102.28933.14.476l.238 1.358c.532-.82133 1.129-1.47 1.792-1.946.662-.476 1.386-.714 2.17-.714.662 0 1.194.15867 1.596.476l-.56 3.192c-.038.196-.112.336-.224.42-.112.0747-.262.112-.448.112-.159 0-.346-.0187-.56-.056-.215-.0467-.486-.07-.812-.07-1.139 0-2.035.6067-2.688 1.82v8.904zm17.782-14.742c.962 0 1.839.14933 2.632.448.803.29867 1.489.73267 2.058 1.302.579.56933 1.027 1.26933 1.344 2.1.327.8213.49 1.7547.49 2.8 0 .3267-.014.5927-.042.798s-.079.3687-.154.49c-.074.1213-.177.2053-.308.252-.121.0467-.28.07-.476.07h-8.372c.14 1.2133.509 2.0953 1.106 2.646.598.5413 1.368.812 2.31.812.504 0 .938-.0607 1.302-.182s.686-.2567.966-.406c.29-.1493.551-.2847.784-.406.243-.1213.495-.182.756-.182.346 0 .607.126.784.378l1.26 1.554c-.448.5133-.933.9333-1.456 1.26-.513.3173-1.045.5693-1.596.756-.541.1773-1.087.2987-1.638.364-.541.0747-1.059.112-1.554.112-1.017 0-1.974-.1633-2.87-.49-.886-.336-1.666-.8307-2.338-1.484-.662-.6533-1.19-1.4653-1.582-2.436-.382-.9707-.574-2.1-.574-3.388 0-.9707.164-1.89.49-2.758.336-.868.812-1.62867 1.428-2.282.626-.65333 1.377-1.17133 2.254-1.554.887-.38267 1.886-.574 2.996-.574zm.084 2.996c-.83 0-1.479.238-1.946.714-.466.4667-.774 1.1433-.924 2.03h5.418c0-.3453-.046-.6813-.14-1.008-.084-.3267-.228-.616-.434-.868-.196-.26133-.457-.47133-.784-.63-.326-.15867-.723-.238-1.19-.238zm14.345 11.746v-14.518h2.688c.27 0 .494.06067.672.182.186.12133.317.30333.392.546l.238.784c.242-.252.494-.48067.756-.686.261-.21467.541-.39667.84-.546.308-.15867.634-.28.98-.364.354-.09333.742-.14 1.162-.14.877 0 1.6.22867 2.17.686.578.448 1.017 1.05 1.316 1.806.242-.448.536-.83067.882-1.148.354-.31733.732-.574 1.134-.77.41-.196.84-.34067 1.288-.434.457-.09333.91-.14 1.358-.14.83 0 1.568.126 2.212.378.644.24267 1.18.602 1.61 1.078.438.46667.77 1.04533.994 1.736.224.6813.336 1.456.336 2.324v9.226h-4.34v-9.226c0-1.5027-.644-2.254-1.932-2.254-.588 0-1.078.196-1.47.588-.383.3827-.574.938-.574 1.666v9.226h-4.34v-9.226c0-.8307-.164-1.414-.49-1.75-.327-.336-.808-.504-1.442-.504-.392 0-.766.08867-1.12.266-.346.17733-.672.4153-.98.714v10.5zm29.506 3.766c-.131.2893-.289.4993-.476.63-.187.14-.485.21-.896.21h-3.248l2.8-5.88-5.796-13.244h3.836c.336 0 .597.07467.784.224s.317.32667.392.532l2.38 6.258c.224.5787.406 1.1573.546 1.736.093-.2987.196-.5927.308-.882s.219-.5833.322-.882l2.156-6.23c.075-.21467.219-.392.434-.532.224-.14933.462-.224.714-.224h3.5zm20.051-3.542c-.691 0-1.302-.098-1.834-.294-.523-.2053-.966-.49-1.33-.854-.355-.3733-.626-.8213-.812-1.344-.187-.5227-.28-1.106-.28-1.75v-7.504h-1.232c-.224 0-.416-.07-.574-.21-.159-.14933-.238-.364-.238-.644v-1.694l2.31-.448.854-3.542c.112-.448.429-.672.952-.672h2.268v4.242h3.528v2.968h-3.528v7.21c0 .336.079.616.238.84.168.2147.406.322.714.322.158 0 .289-.014.392-.042.112-.0373.205-.0747.28-.112.084-.0467.158-.084.224-.112.074-.0373.158-.056.252-.056.13 0 .233.0327.308.098.084.056.168.1493.252.28l1.316 2.058c-.56.42-1.19.7373-1.89.952-.7.2053-1.424.308-2.17.308zm6.115-.224v-20.9580014h4.34v7.7140014c.522-.448 1.087-.80733 1.694-1.078.616-.28 1.348-.42 2.198-.42.793 0 1.493.14 2.1.42.616.27067 1.134.65333 1.554 1.148.42.48533.737 1.06867.952 1.75.214.672.322 1.4047.322 2.198v9.226h-4.34v-9.226c0-.7093-.164-1.26-.49-1.652-.327-.40133-.808-.602-1.442-.602-.476 0-.924.10267-1.344.308-.42.2053-.822.4807-1.204.826v10.346zm22.71-14.742c1.101 0 2.104.17267 3.01.518.905.34533 1.68.84 2.324 1.484.653.644 1.157 1.428 1.512 2.352.364.9147.546 1.946.546 3.094 0 1.1573-.182 2.2027-.546 3.136-.355.924-.859 1.7127-1.512 2.366-.644.644-1.419 1.1433-2.324 1.498-.906.3453-1.909.518-3.01.518-1.111 0-2.124-.1727-3.038-.518-.906-.3547-1.69-.854-2.352-1.498-.654-.6533-1.162-1.442-1.526-2.366-.355-.9333-.532-1.9787-.532-3.136 0-1.148.177-2.1793.532-3.094.364-.924.872-1.708 1.526-2.352.662-.644 1.446-1.13867 2.352-1.484.914-.34533 1.927-.518 3.038-.518zm0 11.746c.998 0 1.731-.35 2.198-1.05.476-.7093.714-1.7827.714-3.22s-.238-2.506-.714-3.206c-.467-.7-1.2-1.05-2.198-1.05-1.027 0-1.778.35-2.254 1.05s-.714 1.7687-.714 3.206.238 2.5107.714 3.22c.476.7 1.227 1.05 2.254 1.05zm13.834-11.522v9.212c0 .7187.163 1.274.49 1.666s.807.588 1.442.588c.476 0 .919-.098 1.33-.294.42-.196.826-.4713 1.218-.826v-10.346h4.34v14.518h-2.688c-.541 0-.896-.2427-1.064-.728l-.266-.84c-.28.2707-.569.518-.868.742-.299.2147-.621.4013-.966.56-.336.1493-.7.266-1.092.35-.392.0933-.821.14-1.288.14-.793 0-1.498-.1353-2.114-.406-.607-.28-1.12-.6673-1.54-1.162s-.737-1.078-.952-1.75-.322-1.4093-.322-2.212v-9.212zm17.306-.252c.616 0 1.195.06067 1.736.182.551.12133 1.06.294 1.526.518h4.382v1.582c0 .24267-.07.434-.21.574-.13.14-.359.24733-.686.322l-1.064.238c.131.42.196.854.196 1.302 0 .728-.154 1.3813-.462 1.96-.298.5787-.714 1.0733-1.246 1.484-.522.4013-1.143.714-1.862.938-.718.2147-1.488.322-2.31.322-.457 0-.886-.028-1.288-.084-.317.1867-.476.4013-.476.644s.126.42.378.532c.262.1027.602.1773 1.022.224.42.0373.901.0653 1.442.084.542.0093 1.092.042 1.652.098.56.0467 1.111.1307 1.652.252.542.1213 1.022.3173 1.442.588s.756.6347 1.008 1.092c.262.448.392 1.022.392 1.722 0 .6533-.158 1.2927-.476 1.918-.317.6253-.784 1.1807-1.4 1.666s-1.372.8727-2.268 1.162c-.896.2987-1.922.448-3.08.448-1.138 0-2.123-.1073-2.954-.322-.821-.2147-1.507-.4993-2.058-.854-.541-.3453-.942-.7467-1.204-1.204-.261-.4573-.392-.9333-.392-1.428 0-.644.196-1.1853.588-1.624.392-.448.929-.798 1.61-1.05-.326-.2147-.588-.49-.784-.826s-.294-.7607-.294-1.274c0-.2147.038-.4387.112-.672.075-.2427.192-.476.35-.7.159-.224.36-.4387.602-.644.243-.2053.532-.3873.868-.546-.756-.4013-1.353-.9333-1.792-1.596-.429-.6627-.644-1.4327-.644-2.31 0-.728.154-1.38133.462-1.96.308-.588.728-1.08267 1.26-1.484.542-.41067 1.176-.72333 1.904-.938.728-.224 1.517-.336 2.366-.336zm3.22 15.302c0-.2333-.074-.42-.224-.56-.14-.14-.336-.252-.588-.336-.242-.084-.532-.1447-.868-.182-.326-.0373-.681-.0653-1.064-.084-.382-.0187-.779-.0327-1.19-.042-.41-.0187-.816-.0513-1.218-.098-.27.1867-.494.3967-.672.63-.168.224-.252.4807-.252.77 0 .2053.042.392.126.56.094.168.252.3127.476.434s.523.2147.896.28c.383.0747.864.112 1.442.112.626 0 1.139-.0373 1.54-.112.402-.0747.719-.1773.952-.308.243-.1307.411-.2893.504-.476.094-.1773.14-.3733.14-.588zm-3.22-8.554c.719 0 1.237-.1773 1.554-.532.327-.364.49-.8307.49-1.4 0-.588-.163-1.05-.49-1.386-.317-.336-.835-.504-1.554-.504-.718 0-1.241.168-1.568.504-.317.336-.476.798-.476 1.386 0 .28.038.5367.112.77.084.2333.21.4387.378.616.168.168.378.3033.63.406.262.0933.57.14.924.14zm9.532 8.022v-20.9580014h4.34v7.7140014c.523-.448 1.088-.80733 1.694-1.078.616-.28 1.349-.42 2.198-.42.794 0 1.494.14 2.1.42.616.27067 1.134.65333 1.554 1.148.42.48533.738 1.06867.952 1.75.215.672.322 1.4047.322 2.198v9.226h-4.34v-9.226c0-.7093-.163-1.26-.49-1.652-.326-.40133-.807-.602-1.442-.602-.476 0-.924.10267-1.344.308-.42.2053-.821.4807-1.204.826v10.346zm21.339.224c-.691 0-1.302-.098-1.834-.294-.523-.2053-.966-.49-1.33-.854-.355-.3733-.626-.8213-.812-1.344-.187-.5227-.28-1.106-.28-1.75v-7.504h-1.232c-.224 0-.416-.07-.574-.21-.159-.14933-.238-.364-.238-.644v-1.694l2.31-.448.854-3.542c.112-.448.429-.672.952-.672h2.268v4.242h3.528v2.968h-3.528v7.21c0 .336.079.616.238.84.168.2147.406.322.714.322.158 0 .289-.014.392-.042.112-.0373.205-.0747.28-.112.084-.0467.158-.084.224-.112.074-.0373.158-.056.252-.056.13 0 .233.0327.308.098.084.056.168.1493.252.28l1.316 2.058c-.56.42-1.19.7373-1.89.952-.7.2053-1.424.308-2.17.308zm14.991-11.564c-.112.17733-.234.30333-.364.378-.122.0747-.28.112-.476.112-.206 0-.411-.042-.616-.126-.206-.09333-.43-.19133-.672-.294-.234-.10267-.5-.196-.798-.28-.299-.09333-.64-.14-1.022-.14-.551 0-.976.10733-1.274.322-.29.20533-.434.4947-.434.868 0 .2707.093.4947.28.672.196.1773.452.336.77.476.317.1307.676.2567 1.078.378.401.1213.812.2567 1.232.406s.83.3267 1.232.532c.401.196.76.4433 1.078.742.317.2893.569.644.756 1.064.196.42.294.924.294 1.512 0 .7187-.131 1.3813-.392 1.988-.262.6067-.654 1.1293-1.176 1.568-.514.4387-1.153.7793-1.918 1.022-.756.2427-1.629.364-2.618.364-.495 0-.99-.0467-1.484-.14-.495-.0933-.976-.2193-1.442-.378-.458-.1587-.882-.3453-1.274-.56-.392-.224-.728-.462-1.008-.714l1.008-1.596c.121-.1867.266-.3313.434-.434.168-.112.387-.168.658-.168.252 0 .476.056.672.168.205.112.424.2333.658.364.233.1307.504.252.812.364.317.112.714.168 1.19.168.336 0 .62-.0327.854-.098.233-.0747.42-.1727.56-.294s.242-.2567.308-.406c.065-.1493.098-.3033.098-.462 0-.2893-.098-.5273-.294-.714s-.453-.3453-.77-.476c-.318-.14-.682-.266-1.092-.378-.402-.1213-.812-.2567-1.232-.406s-.836-.3267-1.246-.532c-.402-.2147-.761-.4807-1.078-.798-.318-.3267-.574-.7233-.77-1.19s-.294-1.0313-.294-1.694c0-.616.116-1.19933.35-1.75.242-.56.602-1.05 1.078-1.47s1.073-.75133 1.792-.994c.718-.252 1.558-.378 2.52-.378.522 0 1.026.04667 1.512.14.494.09333.956.224 1.386.392.429.168.821.36867 1.176.602.354.224.667.47133.938.742zm2.616 9.142c0-.336.06-.6487.182-.938.13-.2893.303-.5413.518-.756.224-.2147.485-.3827.784-.504.298-.1307.625-.196.98-.196.345 0 .667.0653.966.196.298.1213.56.2893.784.504s.396.4667.518.756c.13.2893.196.602.196.938s-.066.6533-.196.952c-.122.2893-.294.5413-.518.756s-.486.3827-.784.504c-.299.1213-.621.182-.966.182-.355 0-.682-.0607-.98-.182-.299-.1213-.56-.2893-.784-.504-.215-.2147-.388-.4667-.518-.756-.122-.2987-.182-.616-.182-.952z" fill="#121111"/></svg>