<svg width="275" height="68" viewBox="0 0 275 68" fill="none" xmlns="http://www.w3.org/2000/svg">
<path d="M7.328 19.68H15.968V24H1.92V0.688H7.328V19.68ZM24.9928 7.152C26.0914 7.152 27.0941 7.32267 28.0008 7.664C28.9181 8.00533 29.7021 8.50133 30.3528 9.152C31.0141 9.80267 31.5261 10.6027 31.8888 11.552C32.2621 12.4907 32.4488 13.5573 32.4488 14.752C32.4488 15.1253 32.4328 15.4293 32.4008 15.664C32.3688 15.8987 32.3101 16.0853 32.2248 16.224C32.1394 16.3627 32.0221 16.4587 31.8728 16.512C31.7341 16.5653 31.5528 16.592 31.3288 16.592H21.7608C21.9208 17.9787 22.3421 18.9867 23.0248 19.616C23.7074 20.2347 24.5874 20.544 25.6648 20.544C26.2408 20.544 26.7368 20.4747 27.1528 20.336C27.5688 20.1973 27.9368 20.0427 28.2568 19.872C28.5874 19.7013 28.8861 19.5467 29.1528 19.408C29.4301 19.2693 29.7181 19.2 30.0168 19.2C30.4114 19.2 30.7101 19.344 30.9128 19.632L32.3528 21.408C31.8408 21.9947 31.2861 22.4747 30.6888 22.848C30.1021 23.2107 29.4941 23.4987 28.8648 23.712C28.2461 23.9147 27.6221 24.0533 26.9928 24.128C26.3741 24.2133 25.7821 24.256 25.2168 24.256C24.0541 24.256 22.9608 24.0693 21.9368 23.696C20.9234 23.312 20.0328 22.7467 19.2648 22C18.5074 21.2533 17.9048 20.3253 17.4568 19.216C17.0194 18.1067 16.8008 16.816 16.8008 15.344C16.8008 14.2347 16.9874 13.184 17.3608 12.192C17.7448 11.2 18.2888 10.3307 18.9928 9.584C19.7074 8.83733 20.5661 8.24533 21.5688 7.808C22.5821 7.37067 23.7234 7.152 24.9928 7.152ZM25.0888 10.576C24.1394 10.576 23.3981 10.848 22.8648 11.392C22.3314 11.9253 21.9794 12.6987 21.8088 13.712H28.0008C28.0008 13.3173 27.9474 12.9333 27.8408 12.56C27.7448 12.1867 27.5794 11.856 27.3448 11.568C27.1208 11.2693 26.8221 11.0293 26.4488 10.848C26.0754 10.6667 25.6221 10.576 25.0888 10.576ZM41.119 24.256C40.3297 24.256 39.631 24.144 39.023 23.92C38.4257 23.6853 37.919 23.36 37.503 22.944C37.0977 22.5173 36.7883 22.0053 36.575 21.408C36.3617 20.8107 36.255 20.144 36.255 19.408V10.832H34.847C34.591 10.832 34.3723 10.752 34.191 10.592C34.0097 10.4213 33.919 10.176 33.919 9.856V7.92L36.559 7.408L37.535 3.36C37.663 2.848 38.0257 2.592 38.623 2.592H41.215V7.44H45.247V10.832H41.215V19.072C41.215 19.456 41.3057 19.776 41.487 20.032C41.679 20.2773 41.951 20.4 42.303 20.4C42.4843 20.4 42.6337 20.384 42.751 20.352C42.879 20.3093 42.9857 20.2667 43.071 20.224C43.167 20.1707 43.2523 20.128 43.327 20.096C43.4123 20.0533 43.5083 20.032 43.615 20.032C43.7643 20.032 43.8817 20.0693 43.967 20.144C44.063 20.208 44.159 20.3147 44.255 20.464L45.759 22.816C45.119 23.296 44.399 23.6587 43.599 23.904C42.799 24.1387 41.9723 24.256 41.119 24.256ZM54.295 24V7.408H57.367C57.6763 7.408 57.9323 7.47733 58.135 7.616C58.3483 7.75467 58.4977 7.96267 58.583 8.24L58.855 9.136C59.1323 8.848 59.4203 8.58667 59.719 8.352C60.0177 8.10667 60.3377 7.89867 60.679 7.728C61.031 7.54667 61.4043 7.408 61.799 7.312C62.2043 7.20533 62.647 7.152 63.127 7.152C64.1297 7.152 64.9563 7.41333 65.607 7.936C66.2683 8.448 66.7697 9.136 67.111 10C67.3883 9.488 67.7243 9.05067 68.119 8.688C68.5243 8.32533 68.9563 8.032 69.415 7.808C69.8843 7.584 70.375 7.41867 70.887 7.312C71.4097 7.20533 71.927 7.152 72.439 7.152C73.3883 7.152 74.231 7.296 74.967 7.584C75.703 7.86133 76.3163 8.272 76.807 8.816C77.3083 9.34933 77.687 10.0107 77.943 10.8C78.199 11.5787 78.327 12.464 78.327 13.456V24H73.367V13.456C73.367 11.7387 72.631 10.88 71.159 10.88C70.487 10.88 69.927 11.104 69.479 11.552C69.0417 11.9893 68.823 12.624 68.823 13.456V24H63.863V13.456C63.863 12.5067 63.6763 11.84 63.303 11.456C62.9297 11.072 62.3803 10.88 61.655 10.88C61.207 10.88 60.7803 10.9813 60.375 11.184C59.9803 11.3867 59.607 11.6587 59.255 12V24H54.295ZM88.9615 7.152C90.0602 7.152 91.0628 7.32267 91.9695 7.664C92.8868 8.00533 93.6708 8.50133 94.3215 9.152C94.9828 9.80267 95.4948 10.6027 95.8575 11.552C96.2308 12.4907 96.4175 13.5573 96.4175 14.752C96.4175 15.1253 96.4015 15.4293 96.3695 15.664C96.3375 15.8987 96.2788 16.0853 96.1935 16.224C96.1082 16.3627 95.9908 16.4587 95.8415 16.512C95.7028 16.5653 95.5215 16.592 95.2975 16.592H85.7295C85.8895 17.9787 86.3108 18.9867 86.9935 19.616C87.6762 20.2347 88.5562 20.544 89.6335 20.544C90.2095 20.544 90.7055 20.4747 91.1215 20.336C91.5375 20.1973 91.9055 20.0427 92.2255 19.872C92.5562 19.7013 92.8548 19.5467 93.1215 19.408C93.3988 19.2693 93.6868 19.2 93.9855 19.2C94.3802 19.2 94.6788 19.344 94.8815 19.632L96.3215 21.408C95.8095 21.9947 95.2548 22.4747 94.6575 22.848C94.0708 23.2107 93.4628 23.4987 92.8335 23.712C92.2148 23.9147 91.5908 24.0533 90.9615 24.128C90.3428 24.2133 89.7508 24.256 89.1855 24.256C88.0228 24.256 86.9295 24.0693 85.9055 23.696C84.8922 23.312 84.0015 22.7467 83.2335 22C82.4762 21.2533 81.8735 20.3253 81.4255 19.216C80.9882 18.1067 80.7695 16.816 80.7695 15.344C80.7695 14.2347 80.9562 13.184 81.3295 12.192C81.7135 11.2 82.2575 10.3307 82.9615 9.584C83.6762 8.83733 84.5348 8.24533 85.5375 7.808C86.5508 7.37067 87.6922 7.152 88.9615 7.152ZM89.0575 10.576C88.1082 10.576 87.3668 10.848 86.8335 11.392C86.3002 11.9253 85.9482 12.6987 85.7775 13.712H91.9695C91.9695 13.3173 91.9162 12.9333 91.8095 12.56C91.7135 12.1867 91.5482 11.856 91.3135 11.568C91.0895 11.2693 90.7908 11.0293 90.4175 10.848C90.0442 10.6667 89.5908 10.576 89.0575 10.576ZM12.064 49.04C11.936 49.2427 11.7973 49.3867 11.648 49.472C11.5093 49.5573 11.328 49.6 11.104 49.6C10.8693 49.6 10.6347 49.552 10.4 49.456C10.1653 49.3493 9.90933 49.2373 9.632 49.12C9.36533 49.0027 9.06133 48.896 8.72 48.8C8.37867 48.6933 7.98933 48.64 7.552 48.64C6.92267 48.64 6.43733 48.7627 6.096 49.008C5.76533 49.2427 5.6 49.5733 5.6 50C5.6 50.3093 5.70667 50.5653 5.92 50.768C6.144 50.9707 6.43733 51.152 6.8 51.312C7.16267 51.4613 7.57333 51.6053 8.032 51.744C8.49067 51.8827 8.96 52.0373 9.44 52.208C9.92 52.3787 10.3893 52.5813 10.848 52.816C11.3067 53.04 11.7173 53.3227 12.08 53.664C12.4427 53.9947 12.7307 54.4 12.944 54.88C13.168 55.36 13.28 55.936 13.28 56.608C13.28 57.4293 13.1307 58.1867 12.832 58.88C12.5333 59.5733 12.0853 60.1707 11.488 60.672C10.9013 61.1733 10.1707 61.5627 9.296 61.84C8.432 62.1173 7.43467 62.256 6.304 62.256C5.73867 62.256 5.17333 62.2027 4.608 62.096C4.04267 61.9893 3.49333 61.8453 2.96 61.664C2.43733 61.4827 1.952 61.2693 1.504 61.024C1.056 60.768 0.672 60.496 0.352 60.208L1.504 58.384C1.64267 58.1707 1.808 58.0053 2 57.888C2.192 57.76 2.44267 57.696 2.752 57.696C3.04 57.696 3.296 57.76 3.52 57.888C3.75467 58.016 4.00533 58.1547 4.272 58.304C4.53867 58.4533 4.848 58.592 5.2 58.72C5.56267 58.848 6.016 58.912 6.56 58.912C6.944 58.912 7.26933 58.8747 7.536 58.8C7.80267 58.7147 8.016 58.6027 8.176 58.464C8.336 58.3253 8.45333 58.1707 8.528 58C8.60267 57.8293 8.64 57.6533 8.64 57.472C8.64 57.1413 8.528 56.8693 8.304 56.656C8.08 56.4427 7.78667 56.2613 7.424 56.112C7.06133 55.952 6.64533 55.808 6.176 55.68C5.71733 55.5413 5.248 55.3867 4.768 55.216C4.288 55.0453 3.81333 54.8427 3.344 54.608C2.88533 54.3627 2.47467 54.0587 2.112 53.696C1.74933 53.3227 1.456 52.8693 1.232 52.336C1.008 51.8027 0.896 51.1573 0.896 50.4C0.896 49.696 1.02933 49.0293 1.296 48.4C1.57333 47.76 1.984 47.2 2.528 46.72C3.072 46.24 3.75467 45.8613 4.576 45.584C5.39733 45.296 6.35733 45.152 7.456 45.152C8.05333 45.152 8.62933 45.2053 9.184 45.312C9.74933 45.4187 10.2773 45.568 10.768 45.76C11.2587 45.952 11.7067 46.1813 12.112 46.448C12.5173 46.704 12.8747 46.9867 13.184 47.296L12.064 49.04ZM16.0138 62V38.048H20.9738V46.864C21.5711 46.352 22.2164 45.9413 22.9097 45.632C23.6138 45.312 24.4511 45.152 25.4218 45.152C26.3284 45.152 27.1284 45.312 27.8218 45.632C28.5258 45.9413 29.1178 46.3787 29.5978 46.944C30.0778 47.4987 30.4404 48.1653 30.6858 48.944C30.9311 49.712 31.0538 50.5493 31.0538 51.456V62H26.0938V51.456C26.0938 50.6453 25.9071 50.016 25.5338 49.568C25.1604 49.1093 24.6111 48.88 23.8858 48.88C23.3418 48.88 22.8298 48.9973 22.3498 49.232C21.8698 49.4667 21.4111 49.7813 20.9738 50.176V62H16.0138ZM46.0323 62C45.5629 62 45.2056 61.936 44.9603 61.808C44.7256 61.68 44.5283 61.4133 44.3683 61.008L44.0163 60.096C43.6003 60.448 43.2003 60.7573 42.8163 61.024C42.4323 61.2907 42.0323 61.52 41.6163 61.712C41.2109 61.8933 40.7736 62.0267 40.3043 62.112C39.8456 62.208 39.3336 62.256 38.7683 62.256C38.0109 62.256 37.3229 62.16 36.7043 61.968C36.0856 61.7653 35.5576 61.472 35.1203 61.088C34.6936 60.704 34.3629 60.2293 34.1283 59.664C33.8936 59.088 33.7763 58.4267 33.7763 57.68C33.7763 57.0933 33.9256 56.4907 34.2243 55.872C34.5229 55.2533 35.0403 54.6933 35.7763 54.192C36.5123 53.68 37.5043 53.2533 38.7523 52.912C40.0003 52.5707 41.5736 52.3787 43.4723 52.336V51.632C43.4723 50.6613 43.2696 49.9627 42.8643 49.536C42.4696 49.0987 41.9043 48.88 41.1683 48.88C40.5816 48.88 40.1016 48.944 39.7283 49.072C39.3549 49.2 39.0189 49.344 38.7203 49.504C38.4323 49.664 38.1496 49.808 37.8723 49.936C37.5949 50.064 37.2643 50.128 36.8802 50.128C36.5389 50.128 36.2456 50.048 36.0003 49.888C35.7656 49.7173 35.5789 49.5093 35.4403 49.264L34.5443 47.712C35.5469 46.8267 36.6563 46.1707 37.8723 45.744C39.0989 45.3067 40.4109 45.088 41.8083 45.088C42.8109 45.088 43.7123 45.2533 44.5123 45.584C45.3229 45.904 46.0056 46.3573 46.5603 46.944C47.1256 47.52 47.5576 48.208 47.8563 49.008C48.1549 49.808 48.3043 50.6827 48.3043 51.632V62H46.0323ZM40.3363 58.976C40.9763 58.976 41.5363 58.864 42.0163 58.64C42.4963 58.416 42.9816 58.0533 43.4723 57.552V55.248C42.4803 55.2907 41.6643 55.376 41.0243 55.504C40.3843 55.632 39.8776 55.792 39.5043 55.984C39.1309 56.176 38.8696 56.3947 38.7203 56.64C38.5816 56.8853 38.5123 57.152 38.5123 57.44C38.5123 58.0053 38.6669 58.4053 38.9763 58.64C39.2856 58.864 39.7389 58.976 40.3363 58.976ZM51.8263 62V45.408H54.7703C55.0156 45.408 55.2183 45.4293 55.3783 45.472C55.5489 45.5147 55.6876 45.584 55.7943 45.68C55.9116 45.7653 55.9969 45.8827 56.0503 46.032C56.1143 46.1813 56.1676 46.3627 56.2103 46.576L56.4823 48.128C57.0903 47.1893 57.7729 46.448 58.5303 45.904C59.2876 45.36 60.1143 45.088 61.0103 45.088C61.7676 45.088 62.3756 45.2693 62.8343 45.632L62.1943 49.28C62.1516 49.504 62.0663 49.664 61.9383 49.76C61.8103 49.8453 61.6396 49.888 61.4263 49.888C61.2449 49.888 61.0316 49.8667 60.7863 49.824C60.5409 49.7707 60.2316 49.744 59.8583 49.744C58.5569 49.744 57.5329 50.4373 56.7863 51.824V62H51.8263ZM72.149 45.152C73.2477 45.152 74.2503 45.3227 75.157 45.664C76.0743 46.0053 76.8583 46.5013 77.509 47.152C78.1703 47.8027 78.6823 48.6027 79.045 49.552C79.4183 50.4907 79.605 51.5573 79.605 52.752C79.605 53.1253 79.589 53.4293 79.557 53.664C79.525 53.8987 79.4663 54.0853 79.381 54.224C79.2957 54.3627 79.1783 54.4587 79.029 54.512C78.8903 54.5653 78.709 54.592 78.485 54.592H68.917C69.077 55.9787 69.4983 56.9867 70.181 57.616C70.8637 58.2347 71.7437 58.544 72.821 58.544C73.397 58.544 73.893 58.4747 74.309 58.336C74.725 58.1973 75.093 58.0427 75.413 57.872C75.7437 57.7013 76.0423 57.5467 76.309 57.408C76.5863 57.2693 76.8743 57.2 77.173 57.2C77.5677 57.2 77.8663 57.344 78.069 57.632L79.509 59.408C78.997 59.9947 78.4423 60.4747 77.845 60.848C77.2583 61.2107 76.6503 61.4987 76.021 61.712C75.4023 61.9147 74.7783 62.0533 74.149 62.128C73.5303 62.2133 72.9383 62.256 72.373 62.256C71.2103 62.256 70.117 62.0693 69.093 61.696C68.0797 61.312 67.189 60.7467 66.421 60C65.6637 59.2533 65.061 58.3253 64.613 57.216C64.1757 56.1067 63.957 54.816 63.957 53.344C63.957 52.2347 64.1437 51.184 64.517 50.192C64.901 49.2 65.445 48.3307 66.149 47.584C66.8637 46.8373 67.7223 46.2453 68.725 45.808C69.7383 45.3707 70.8797 45.152 72.149 45.152ZM72.245 48.576C71.2957 48.576 70.5543 48.848 70.021 49.392C69.4877 49.9253 69.1357 50.6987 68.965 51.712H75.157C75.157 51.3173 75.1037 50.9333 74.997 50.56C74.901 50.1867 74.7357 49.856 74.501 49.568C74.277 49.2693 73.9783 49.0293 73.605 48.848C73.2317 48.6667 72.7783 48.576 72.245 48.576ZM88.6388 62V45.408H91.7108C92.0201 45.408 92.2761 45.4773 92.4788 45.616C92.6921 45.7547 92.8414 45.9627 92.9268 46.24L93.1988 47.136C93.4761 46.848 93.7641 46.5867 94.0628 46.352C94.3614 46.1067 94.6814 45.8987 95.0228 45.728C95.3748 45.5467 95.7481 45.408 96.1428 45.312C96.5481 45.2053 96.9908 45.152 97.4708 45.152C98.4734 45.152 99.3001 45.4133 99.9508 45.936C100.612 46.448 101.113 47.136 101.455 48C101.732 47.488 102.068 47.0507 102.463 46.688C102.868 46.3253 103.3 46.032 103.759 45.808C104.228 45.584 104.719 45.4187 105.231 45.312C105.753 45.2053 106.271 45.152 106.783 45.152C107.732 45.152 108.575 45.296 109.311 45.584C110.047 45.8613 110.66 46.272 111.151 46.816C111.652 47.3493 112.031 48.0107 112.287 48.8C112.543 49.5787 112.671 50.464 112.671 51.456V62H107.711V51.456C107.711 49.7387 106.975 48.88 105.503 48.88C104.831 48.88 104.271 49.104 103.823 49.552C103.385 49.9893 103.167 50.624 103.167 51.456V62H98.2068V51.456C98.2068 50.5067 98.0201 49.84 97.6468 49.456C97.2734 49.072 96.7241 48.88 95.9988 48.88C95.5508 48.88 95.1241 48.9813 94.7188 49.184C94.3241 49.3867 93.9508 49.6587 93.5988 50V62H88.6388ZM122.36 66.304C122.211 66.6347 122.03 66.8747 121.816 67.024C121.603 67.184 121.262 67.264 120.792 67.264H117.08L120.28 60.544L113.656 45.408H118.04C118.424 45.408 118.723 45.4933 118.936 45.664C119.15 45.8347 119.299 46.0373 119.384 46.272L122.104 53.424C122.36 54.0853 122.568 54.7467 122.728 55.408C122.835 55.0667 122.952 54.7307 123.08 54.4C123.208 54.0693 123.331 53.7333 123.448 53.392L125.912 46.272C125.998 46.0267 126.163 45.824 126.408 45.664C126.664 45.4933 126.936 45.408 127.224 45.408H131.224L122.36 66.304ZM145.275 62.256C144.486 62.256 143.787 62.144 143.179 61.92C142.582 61.6853 142.075 61.36 141.659 60.944C141.254 60.5173 140.945 60.0053 140.731 59.408C140.518 58.8107 140.411 58.144 140.411 57.408V48.832H139.003C138.747 48.832 138.529 48.752 138.347 48.592C138.166 48.4213 138.075 48.176 138.075 47.856V45.92L140.715 45.408L141.691 41.36C141.819 40.848 142.182 40.592 142.779 40.592H145.371V45.44H149.403V48.832H145.371V57.072C145.371 57.456 145.462 57.776 145.643 58.032C145.835 58.2773 146.107 58.4 146.459 58.4C146.641 58.4 146.79 58.384 146.907 58.352C147.035 58.3093 147.142 58.2667 147.227 58.224C147.323 58.1707 147.409 58.128 147.483 58.096C147.569 58.0533 147.665 58.032 147.771 58.032C147.921 58.032 148.038 58.0693 148.123 58.144C148.219 58.208 148.315 58.3147 148.411 58.464L149.915 60.816C149.275 61.296 148.555 61.6587 147.755 61.904C146.955 62.1387 146.129 62.256 145.275 62.256ZM152.264 62V38.048H157.224V46.864C157.821 46.352 158.466 45.9413 159.16 45.632C159.864 45.312 160.701 45.152 161.672 45.152C162.578 45.152 163.378 45.312 164.072 45.632C164.776 45.9413 165.368 46.3787 165.848 46.944C166.328 47.4987 166.69 48.1653 166.936 48.944C167.181 49.712 167.304 50.5493 167.304 51.456V62H162.344V51.456C162.344 50.6453 162.157 50.016 161.784 49.568C161.41 49.1093 160.861 48.88 160.136 48.88C159.592 48.88 159.08 48.9973 158.6 49.232C158.12 49.4667 157.661 49.7813 157.224 50.176V62H152.264ZM178.218 45.152C179.477 45.152 180.624 45.3493 181.658 45.744C182.693 46.1387 183.578 46.704 184.314 47.44C185.061 48.176 185.637 49.072 186.042 50.128C186.458 51.1733 186.666 52.352 186.666 53.664C186.666 54.9867 186.458 56.1813 186.042 57.248C185.637 58.304 185.061 59.2053 184.314 59.952C183.578 60.688 182.693 61.2587 181.658 61.664C180.624 62.0587 179.477 62.256 178.218 62.256C176.949 62.256 175.792 62.0587 174.746 61.664C173.712 61.2587 172.816 60.688 172.058 59.952C171.312 59.2053 170.73 58.304 170.314 57.248C169.909 56.1813 169.706 54.9867 169.706 53.664C169.706 52.352 169.909 51.1733 170.314 50.128C170.73 49.072 171.312 48.176 172.058 47.44C172.816 46.704 173.712 46.1387 174.746 45.744C175.792 45.3493 176.949 45.152 178.218 45.152ZM178.218 58.576C179.36 58.576 180.197 58.176 180.73 57.376C181.274 56.5653 181.546 55.3387 181.546 53.696C181.546 52.0533 181.274 50.832 180.73 50.032C180.197 49.232 179.36 48.832 178.218 48.832C177.045 48.832 176.186 49.232 175.642 50.032C175.098 50.832 174.826 52.0533 174.826 53.696C174.826 55.3387 175.098 56.5653 175.642 57.376C176.186 58.176 177.045 58.576 178.218 58.576ZM194.029 45.408V55.936C194.029 56.7573 194.215 57.392 194.589 57.84C194.962 58.288 195.511 58.512 196.237 58.512C196.781 58.512 197.287 58.4 197.757 58.176C198.237 57.952 198.701 57.6373 199.149 57.232V45.408H204.109V62H201.037C200.418 62 200.013 61.7227 199.821 61.168L199.517 60.208C199.197 60.5173 198.866 60.8 198.525 61.056C198.183 61.3013 197.815 61.5147 197.421 61.696C197.037 61.8667 196.621 62 196.173 62.096C195.725 62.2027 195.234 62.256 194.701 62.256C193.794 62.256 192.989 62.1013 192.285 61.792C191.591 61.472 191.005 61.0293 190.525 60.464C190.045 59.8987 189.682 59.232 189.437 58.464C189.191 57.696 189.069 56.8533 189.069 55.936V45.408H194.029ZM213.807 45.12C214.511 45.12 215.173 45.1893 215.791 45.328C216.421 45.4667 217.002 45.664 217.535 45.92H222.543V47.728C222.543 48.0053 222.463 48.224 222.303 48.384C222.154 48.544 221.893 48.6667 221.519 48.752L220.303 49.024C220.453 49.504 220.527 50 220.527 50.512C220.527 51.344 220.351 52.0907 219.999 52.752C219.658 53.4133 219.183 53.9787 218.575 54.448C217.978 54.9067 217.269 55.264 216.447 55.52C215.626 55.7653 214.746 55.888 213.807 55.888C213.285 55.888 212.794 55.856 212.335 55.792C211.973 56.0053 211.791 56.2507 211.791 56.528C211.791 56.8053 211.935 57.008 212.223 57.136C212.522 57.2533 212.911 57.3387 213.391 57.392C213.871 57.4347 214.421 57.4667 215.039 57.488C215.658 57.4987 216.287 57.536 216.927 57.6C217.567 57.6533 218.197 57.7493 218.815 57.888C219.434 58.0267 219.983 58.2507 220.463 58.56C220.943 58.8693 221.327 59.2853 221.615 59.808C221.914 60.32 222.063 60.976 222.063 61.776C222.063 62.5227 221.882 63.2533 221.519 63.968C221.157 64.6827 220.623 65.3173 219.919 65.872C219.215 66.4267 218.351 66.8693 217.327 67.2C216.303 67.5413 215.13 67.712 213.807 67.712C212.506 67.712 211.381 67.5893 210.431 67.344C209.493 67.0987 208.709 66.7733 208.079 66.368C207.461 65.9733 207.002 65.5147 206.703 64.992C206.405 64.4693 206.255 63.9253 206.255 63.36C206.255 62.624 206.479 62.0053 206.927 61.504C207.375 60.992 207.989 60.592 208.767 60.304C208.394 60.0587 208.095 59.744 207.871 59.36C207.647 58.976 207.535 58.4907 207.535 57.904C207.535 57.6587 207.578 57.4027 207.663 57.136C207.749 56.8587 207.882 56.592 208.063 56.336C208.245 56.08 208.474 55.8347 208.751 55.6C209.029 55.3653 209.359 55.1573 209.743 54.976C208.879 54.5173 208.197 53.9093 207.695 53.152C207.205 52.3947 206.959 51.5147 206.959 50.512C206.959 49.68 207.135 48.9333 207.487 48.272C207.839 47.6 208.319 47.0347 208.927 46.576C209.546 46.1067 210.271 45.7493 211.103 45.504C211.935 45.248 212.837 45.12 213.807 45.12ZM217.487 62.608C217.487 62.3413 217.402 62.128 217.231 61.968C217.071 61.808 216.847 61.68 216.559 61.584C216.282 61.488 215.951 61.4187 215.567 61.376C215.194 61.3333 214.789 61.3013 214.351 61.28C213.914 61.2587 213.461 61.2427 212.991 61.232C212.522 61.2107 212.058 61.1733 211.599 61.12C211.29 61.3333 211.034 61.5733 210.831 61.84C210.639 62.096 210.543 62.3893 210.543 62.72C210.543 62.9547 210.591 63.168 210.687 63.36C210.794 63.552 210.975 63.7173 211.231 63.856C211.487 63.9947 211.829 64.1013 212.255 64.176C212.693 64.2613 213.242 64.304 213.903 64.304C214.618 64.304 215.205 64.2613 215.663 64.176C216.122 64.0907 216.485 63.9733 216.751 63.824C217.029 63.6747 217.221 63.4933 217.327 63.28C217.434 63.0773 217.487 62.8533 217.487 62.608ZM213.807 52.832C214.629 52.832 215.221 52.6293 215.583 52.224C215.957 51.808 216.143 51.2747 216.143 50.624C216.143 49.952 215.957 49.424 215.583 49.04C215.221 48.656 214.629 48.464 213.807 48.464C212.986 48.464 212.389 48.656 212.015 49.04C211.653 49.424 211.471 49.952 211.471 50.624C211.471 50.944 211.514 51.2373 211.599 51.504C211.695 51.7707 211.839 52.0053 212.031 52.208C212.223 52.4 212.463 52.5547 212.751 52.672C213.05 52.7787 213.402 52.832 213.807 52.832ZM224.701 62V38.048H229.661V46.864C230.259 46.352 230.904 45.9413 231.597 45.632C232.301 45.312 233.139 45.152 234.109 45.152C235.016 45.152 235.816 45.312 236.509 45.632C237.213 45.9413 237.805 46.3787 238.285 46.944C238.765 47.4987 239.128 48.1653 239.373 48.944C239.619 49.712 239.741 50.5493 239.741 51.456V62H234.781V51.456C234.781 50.6453 234.595 50.016 234.221 49.568C233.848 49.1093 233.299 48.88 232.573 48.88C232.029 48.88 231.517 48.9973 231.037 49.232C230.557 49.4667 230.099 49.7813 229.661 50.176V62H224.701ZM249.088 62.256C248.298 62.256 247.6 62.144 246.992 61.92C246.394 61.6853 245.888 61.36 245.472 60.944C245.066 60.5173 244.757 60.0053 244.544 59.408C244.33 58.8107 244.224 58.144 244.224 57.408V48.832H242.816C242.56 48.832 242.341 48.752 242.16 48.592C241.978 48.4213 241.888 48.176 241.888 47.856V45.92L244.528 45.408L245.504 41.36C245.632 40.848 245.994 40.592 246.592 40.592H249.184V45.44H253.216V48.832H249.184V57.072C249.184 57.456 249.274 57.776 249.456 58.032C249.648 58.2773 249.92 58.4 250.272 58.4C250.453 58.4 250.602 58.384 250.72 58.352C250.848 58.3093 250.954 58.2667 251.04 58.224C251.136 58.1707 251.221 58.128 251.296 58.096C251.381 58.0533 251.477 58.032 251.584 58.032C251.733 58.032 251.85 58.0693 251.936 58.144C252.032 58.208 252.128 58.3147 252.224 58.464L253.728 60.816C253.088 61.296 252.368 61.6587 251.568 61.904C250.768 62.1387 249.941 62.256 249.088 62.256ZM266.22 49.04C266.092 49.2427 265.954 49.3867 265.804 49.472C265.666 49.5573 265.484 49.6 265.26 49.6C265.026 49.6 264.791 49.552 264.556 49.456C264.322 49.3493 264.066 49.2373 263.788 49.12C263.522 49.0027 263.218 48.896 262.876 48.8C262.535 48.6933 262.146 48.64 261.708 48.64C261.079 48.64 260.594 48.7627 260.252 49.008C259.922 49.2427 259.756 49.5733 259.756 50C259.756 50.3093 259.863 50.5653 260.076 50.768C260.3 50.9707 260.594 51.152 260.956 51.312C261.319 51.4613 261.73 51.6053 262.188 51.744C262.647 51.8827 263.116 52.0373 263.596 52.208C264.076 52.3787 264.546 52.5813 265.004 52.816C265.463 53.04 265.874 53.3227 266.236 53.664C266.599 53.9947 266.887 54.4 267.1 54.88C267.324 55.36 267.436 55.936 267.436 56.608C267.436 57.4293 267.287 58.1867 266.988 58.88C266.69 59.5733 266.242 60.1707 265.644 60.672C265.058 61.1733 264.327 61.5627 263.452 61.84C262.588 62.1173 261.591 62.256 260.46 62.256C259.895 62.256 259.33 62.2027 258.764 62.096C258.199 61.9893 257.65 61.8453 257.116 61.664C256.594 61.4827 256.108 61.2693 255.66 61.024C255.212 60.768 254.828 60.496 254.508 60.208L255.66 58.384C255.799 58.1707 255.964 58.0053 256.156 57.888C256.348 57.76 256.599 57.696 256.908 57.696C257.196 57.696 257.452 57.76 257.676 57.888C257.911 58.016 258.162 58.1547 258.428 58.304C258.695 58.4533 259.004 58.592 259.356 58.72C259.719 58.848 260.172 58.912 260.716 58.912C261.1 58.912 261.426 58.8747 261.692 58.8C261.959 58.7147 262.172 58.6027 262.332 58.464C262.492 58.3253 262.61 58.1707 262.684 58C262.759 57.8293 262.796 57.6533 262.796 57.472C262.796 57.1413 262.684 56.8693 262.46 56.656C262.236 56.4427 261.943 56.2613 261.58 56.112C261.218 55.952 260.802 55.808 260.332 55.68C259.874 55.5413 259.404 55.3867 258.924 55.216C258.444 55.0453 257.97 54.8427 257.5 54.608C257.042 54.3627 256.631 54.0587 256.268 53.696C255.906 53.3227 255.612 52.8693 255.388 52.336C255.164 51.8027 255.052 51.1573 255.052 50.4C255.052 49.696 255.186 49.0293 255.452 48.4C255.73 47.76 256.14 47.2 256.684 46.72C257.228 46.24 257.911 45.8613 258.732 45.584C259.554 45.296 260.514 45.152 261.612 45.152C262.21 45.152 262.786 45.2053 263.34 45.312C263.906 45.4187 264.434 45.568 264.924 45.76C265.415 45.952 265.863 46.1813 266.268 46.448C266.674 46.704 267.031 46.9867 267.34 47.296L266.22 49.04ZM269.21 59.488C269.21 59.104 269.279 58.7467 269.418 58.416C269.567 58.0853 269.765 57.7973 270.01 57.552C270.266 57.3067 270.565 57.1147 270.906 56.976C271.247 56.8267 271.621 56.752 272.026 56.752C272.421 56.752 272.789 56.8267 273.13 56.976C273.471 57.1147 273.77 57.3067 274.026 57.552C274.282 57.7973 274.479 58.0853 274.618 58.416C274.767 58.7467 274.842 59.104 274.842 59.488C274.842 59.872 274.767 60.2347 274.618 60.576C274.479 60.9067 274.282 61.1947 274.026 61.44C273.77 61.6853 273.471 61.8773 273.13 62.016C272.789 62.1547 272.421 62.224 272.026 62.224C271.621 62.224 271.247 62.1547 270.906 62.016C270.565 61.8773 270.266 61.6853 270.01 61.44C269.765 61.1947 269.567 60.9067 269.418 60.576C269.279 60.2347 269.21 59.872 269.21 59.488Z" fill="#121111"/>
</svg>
