<svg width="331" height="26" viewBox="0 0 331 26" fill="none" xmlns="http://www.w3.org/2000/svg">
<path d="M5.412 17.22H12.972V21H0.68V0.602H5.412V17.22ZM20.8687 6.258C21.83 6.258 22.7073 6.40733 23.5007 6.706C24.3033 7.00467 24.9893 7.43867 25.5587 8.008C26.1373 8.57733 26.5853 9.27733 26.9027 10.108C27.2293 10.9293 27.3927 11.8627 27.3927 12.908C27.3927 13.2347 27.3787 13.5007 27.3507 13.706C27.3227 13.9113 27.2713 14.0747 27.1967 14.196C27.122 14.3173 27.0193 14.4013 26.8887 14.448C26.7673 14.4947 26.6087 14.518 26.4127 14.518H18.0407C18.1807 15.7313 18.5493 16.6133 19.1467 17.164C19.744 17.7053 20.514 17.976 21.4567 17.976C21.9607 17.976 22.3947 17.9153 22.7587 17.794C23.1227 17.6727 23.4447 17.5373 23.7247 17.388C24.014 17.2387 24.2753 17.1033 24.5087 16.982C24.7513 16.8607 25.0033 16.8 25.2647 16.8C25.61 16.8 25.8713 16.926 26.0487 17.178L27.3087 18.732C26.8607 19.2453 26.3753 19.6653 25.8527 19.992C25.3393 20.3093 24.8073 20.5613 24.2567 20.748C23.7153 20.9253 23.1693 21.0467 22.6187 21.112C22.0773 21.1867 21.5593 21.224 21.0647 21.224C20.0473 21.224 19.0907 21.0607 18.1947 20.734C17.308 20.398 16.5287 19.9033 15.8567 19.25C15.194 18.5967 14.6667 17.7847 14.2747 16.814C13.892 15.8433 13.7007 14.714 13.7007 13.426C13.7007 12.4553 13.864 11.536 14.1907 10.668C14.5267 9.8 15.0027 9.03933 15.6187 8.386C16.244 7.73267 16.9953 7.21467 17.8727 6.832C18.7593 6.44933 19.758 6.258 20.8687 6.258ZM20.9527 9.254C20.122 9.254 19.4733 9.492 19.0067 9.968C18.54 10.4347 18.232 11.1113 18.0827 11.998H23.5007C23.5007 11.6527 23.454 11.3167 23.3607 10.99C23.2767 10.6633 23.132 10.374 22.9267 10.122C22.7307 9.86067 22.4693 9.65067 22.1427 9.492C21.816 9.33333 21.4193 9.254 20.9527 9.254ZM34.9791 21.224C34.2885 21.224 33.6771 21.126 33.1451 20.93C32.6225 20.7247 32.1791 20.44 31.8151 20.076C31.4605 19.7027 31.1898 19.2547 31.0031 18.732C30.8165 18.2093 30.7231 17.626 30.7231 16.982V9.478H29.4911C29.2671 9.478 29.0758 9.408 28.9171 9.268C28.7585 9.11867 28.6791 8.904 28.6791 8.624V6.93L30.9891 6.482L31.8431 2.94C31.9551 2.492 32.2725 2.268 32.7951 2.268H35.0631V6.51H38.5911V9.478H35.0631V16.688C35.0631 17.024 35.1425 17.304 35.3011 17.528C35.4691 17.7427 35.7071 17.85 36.0151 17.85C36.1738 17.85 36.3045 17.836 36.4071 17.808C36.5191 17.7707 36.6125 17.7333 36.6871 17.696C36.7711 17.6493 36.8458 17.612 36.9111 17.584C36.9858 17.5467 37.0698 17.528 37.1631 17.528C37.2938 17.528 37.3965 17.5607 37.4711 17.626C37.5551 17.682 37.6391 17.7753 37.7231 17.906L39.0391 19.964C38.4791 20.384 37.8491 20.7013 37.1491 20.916C36.4491 21.1213 35.7258 21.224 34.9791 21.224ZM46.5081 21V6.482H49.1961C49.4668 6.482 49.6908 6.54267 49.8681 6.664C50.0548 6.78533 50.1855 6.96733 50.2601 7.21L50.4981 7.994C50.7408 7.742 50.9928 7.51333 51.2541 7.308C51.5155 7.09333 51.7955 6.91133 52.0941 6.762C52.4021 6.60333 52.7288 6.482 53.0741 6.398C53.4288 6.30467 53.8161 6.258 54.2361 6.258C55.1135 6.258 55.8368 6.48667 56.4061 6.944C56.9848 7.392 57.4235 7.994 57.7221 8.75C57.9648 8.302 58.2588 7.91933 58.6041 7.602C58.9588 7.28467 59.3368 7.028 59.7381 6.832C60.1488 6.636 60.5781 6.49133 61.0261 6.398C61.4835 6.30467 61.9361 6.258 62.3841 6.258C63.2148 6.258 63.9521 6.384 64.5961 6.636C65.2401 6.87867 65.7768 7.238 66.2061 7.714C66.6448 8.18067 66.9761 8.75933 67.2001 9.45C67.4241 10.1313 67.5361 10.906 67.5361 11.774V21H63.1961V11.774C63.1961 10.2713 62.5521 9.52 61.2641 9.52C60.6761 9.52 60.1861 9.716 59.7941 10.108C59.4115 10.4907 59.2201 11.046 59.2201 11.774V21H54.8801V11.774C54.8801 10.9433 54.7168 10.36 54.3901 10.024C54.0635 9.688 53.5828 9.52 52.9481 9.52C52.5561 9.52 52.1828 9.60867 51.8281 9.786C51.4828 9.96333 51.1561 10.2013 50.8481 10.5V21H46.5081ZM76.8413 6.258C77.8026 6.258 78.68 6.40733 79.4733 6.706C80.276 7.00467 80.962 7.43867 81.5313 8.008C82.11 8.57733 82.558 9.27733 82.8753 10.108C83.202 10.9293 83.3653 11.8627 83.3653 12.908C83.3653 13.2347 83.3513 13.5007 83.3233 13.706C83.2953 13.9113 83.244 14.0747 83.1693 14.196C83.0946 14.3173 82.992 14.4013 82.8613 14.448C82.74 14.4947 82.5813 14.518 82.3853 14.518H74.0133C74.1533 15.7313 74.522 16.6133 75.1193 17.164C75.7166 17.7053 76.4866 17.976 77.4293 17.976C77.9333 17.976 78.3673 17.9153 78.7313 17.794C79.0953 17.6727 79.4173 17.5373 79.6973 17.388C79.9866 17.2387 80.248 17.1033 80.4813 16.982C80.724 16.8607 80.976 16.8 81.2373 16.8C81.5826 16.8 81.844 16.926 82.0213 17.178L83.2813 18.732C82.8333 19.2453 82.348 19.6653 81.8253 19.992C81.312 20.3093 80.78 20.5613 80.2293 20.748C79.688 20.9253 79.142 21.0467 78.5913 21.112C78.05 21.1867 77.532 21.224 77.0373 21.224C76.02 21.224 75.0633 21.0607 74.1673 20.734C73.2806 20.398 72.5013 19.9033 71.8293 19.25C71.1666 18.5967 70.6393 17.7847 70.2473 16.814C69.8646 15.8433 69.6733 14.714 69.6733 13.426C69.6733 12.4553 69.8366 11.536 70.1633 10.668C70.4993 9.8 70.9753 9.03933 71.5913 8.386C72.2166 7.73267 72.968 7.21467 73.8453 6.832C74.732 6.44933 75.7306 6.258 76.8413 6.258ZM76.9253 9.254C76.0946 9.254 75.446 9.492 74.9793 9.968C74.5126 10.4347 74.2046 11.1113 74.0553 11.998H79.4733C79.4733 11.6527 79.4266 11.3167 79.3333 10.99C79.2493 10.6633 79.1046 10.374 78.8993 10.122C78.7033 9.86067 78.442 9.65067 78.1153 9.492C77.7886 9.33333 77.392 9.254 76.9253 9.254ZM100.146 9.66C100.034 9.83733 99.9125 9.96333 99.7818 10.038C99.6605 10.1127 99.5018 10.15 99.3058 10.15C99.1005 10.15 98.8952 10.108 98.6898 10.024C98.4845 9.93067 98.2605 9.83267 98.0178 9.73C97.7845 9.62733 97.5185 9.534 97.2198 9.45C96.9212 9.35667 96.5805 9.31 96.1978 9.31C95.6472 9.31 95.2225 9.41733 94.9238 9.632C94.6345 9.83733 94.4898 10.1267 94.4898 10.5C94.4898 10.7707 94.5832 10.9947 94.7698 11.172C94.9658 11.3493 95.2225 11.508 95.5398 11.648C95.8572 11.7787 96.2165 11.9047 96.6178 12.026C97.0192 12.1473 97.4298 12.2827 97.8498 12.432C98.2698 12.5813 98.6805 12.7587 99.0818 12.964C99.4832 13.16 99.8425 13.4073 100.16 13.706C100.477 13.9953 100.729 14.35 100.916 14.77C101.112 15.19 101.21 15.694 101.21 16.282C101.21 17.0007 101.079 17.6633 100.818 18.27C100.557 18.8767 100.165 19.3993 99.6418 19.838C99.1285 20.2767 98.4892 20.6173 97.7238 20.86C96.9678 21.1027 96.0952 21.224 95.1058 21.224C94.6112 21.224 94.1165 21.1773 93.6218 21.084C93.1272 20.9907 92.6465 20.8647 92.1798 20.706C91.7225 20.5473 91.2978 20.3607 90.9058 20.146C90.5138 19.922 90.1778 19.684 89.8978 19.432L90.9058 17.836C91.0272 17.6493 91.1718 17.5047 91.3398 17.402C91.5078 17.29 91.7272 17.234 91.9978 17.234C92.2498 17.234 92.4738 17.29 92.6698 17.402C92.8752 17.514 93.0945 17.6353 93.3278 17.766C93.5612 17.8967 93.8318 18.018 94.1398 18.13C94.4572 18.242 94.8538 18.298 95.3298 18.298C95.6658 18.298 95.9505 18.2653 96.1838 18.2C96.4172 18.1253 96.6038 18.0273 96.7438 17.906C96.8838 17.7847 96.9865 17.6493 97.0518 17.5C97.1172 17.3507 97.1498 17.1967 97.1498 17.038C97.1498 16.7487 97.0518 16.5107 96.8558 16.324C96.6598 16.1373 96.4032 15.9787 96.0858 15.848C95.7685 15.708 95.4045 15.582 94.9938 15.47C94.5925 15.3487 94.1818 15.2133 93.7618 15.064C93.3418 14.9147 92.9265 14.7373 92.5158 14.532C92.1145 14.3173 91.7552 14.0513 91.4378 13.734C91.1205 13.4073 90.8638 13.0107 90.6678 12.544C90.4718 12.0773 90.3738 11.5127 90.3738 10.85C90.3738 10.234 90.4905 9.65067 90.7238 9.1C90.9665 8.54 91.3258 8.05 91.8018 7.63C92.2778 7.21 92.8752 6.87867 93.5938 6.636C94.3125 6.384 95.1525 6.258 96.1138 6.258C96.6365 6.258 97.1405 6.30467 97.6258 6.398C98.1205 6.49133 98.5825 6.622 99.0118 6.79C99.4412 6.958 99.8332 7.15867 100.188 7.392C100.543 7.616 100.855 7.86333 101.126 8.134L100.146 9.66ZM103.602 21V0.0419986H107.942V7.756C108.465 7.308 109.029 6.94867 109.636 6.678C110.252 6.398 110.985 6.258 111.834 6.258C112.627 6.258 113.327 6.398 113.934 6.678C114.55 6.94867 115.068 7.33133 115.488 7.826C115.908 8.31133 116.225 8.89467 116.44 9.576C116.655 10.248 116.762 10.9807 116.762 11.774V21H112.422V11.774C112.422 11.0647 112.259 10.514 111.932 10.122C111.605 9.72067 111.125 9.52 110.49 9.52C110.014 9.52 109.566 9.62267 109.146 9.828C108.726 10.0333 108.325 10.3087 107.942 10.654V21H103.602ZM129.868 21C129.457 21 129.145 20.944 128.93 20.832C128.725 20.72 128.552 20.4867 128.412 20.132L128.104 19.334C127.74 19.642 127.39 19.9127 127.054 20.146C126.718 20.3793 126.368 20.58 126.004 20.748C125.649 20.9067 125.267 21.0233 124.856 21.098C124.455 21.182 124.007 21.224 123.512 21.224C122.849 21.224 122.247 21.14 121.706 20.972C121.165 20.7947 120.703 20.538 120.32 20.202C119.947 19.866 119.657 19.4507 119.452 18.956C119.247 18.452 119.144 17.8733 119.144 17.22C119.144 16.7067 119.275 16.1793 119.536 15.638C119.797 15.0967 120.25 14.6067 120.894 14.168C121.538 13.72 122.406 13.3467 123.498 13.048C124.59 12.7493 125.967 12.5813 127.628 12.544V11.928C127.628 11.0787 127.451 10.4673 127.096 10.094C126.751 9.71133 126.256 9.52 125.612 9.52C125.099 9.52 124.679 9.576 124.352 9.688C124.025 9.8 123.731 9.926 123.47 10.066C123.218 10.206 122.971 10.332 122.728 10.444C122.485 10.556 122.196 10.612 121.86 10.612C121.561 10.612 121.305 10.542 121.09 10.402C120.885 10.2527 120.721 10.0707 120.6 9.856L119.816 8.498C120.693 7.72333 121.664 7.14933 122.728 6.776C123.801 6.39333 124.949 6.202 126.172 6.202C127.049 6.202 127.838 6.34667 128.538 6.636C129.247 6.916 129.845 7.31267 130.33 7.826C130.825 8.33 131.203 8.932 131.464 9.632C131.725 10.332 131.856 11.0973 131.856 11.928V21H129.868ZM124.884 18.354C125.444 18.354 125.934 18.256 126.354 18.06C126.774 17.864 127.199 17.5467 127.628 17.108V15.092C126.76 15.1293 126.046 15.204 125.486 15.316C124.926 15.428 124.483 15.568 124.156 15.736C123.829 15.904 123.601 16.0953 123.47 16.31C123.349 16.5247 123.288 16.758 123.288 17.01C123.288 17.5047 123.423 17.8547 123.694 18.06C123.965 18.256 124.361 18.354 124.884 18.354ZM134.938 21V6.482H137.514C137.728 6.482 137.906 6.50067 138.046 6.538C138.195 6.57533 138.316 6.636 138.41 6.72C138.512 6.79467 138.587 6.89733 138.634 7.028C138.69 7.15867 138.736 7.31733 138.774 7.504L139.012 8.862C139.544 8.04067 140.141 7.392 140.804 6.916C141.466 6.44 142.19 6.202 142.974 6.202C143.636 6.202 144.168 6.36067 144.57 6.678L144.01 9.87C143.972 10.066 143.898 10.206 143.786 10.29C143.674 10.3647 143.524 10.402 143.338 10.402C143.179 10.402 142.992 10.3833 142.778 10.346C142.563 10.2993 142.292 10.276 141.966 10.276C140.827 10.276 139.931 10.8827 139.278 12.096V21H134.938ZM152.72 6.258C153.682 6.258 154.559 6.40733 155.352 6.706C156.155 7.00467 156.841 7.43867 157.41 8.008C157.989 8.57733 158.437 9.27733 158.754 10.108C159.081 10.9293 159.244 11.8627 159.244 12.908C159.244 13.2347 159.23 13.5007 159.202 13.706C159.174 13.9113 159.123 14.0747 159.048 14.196C158.974 14.3173 158.871 14.4013 158.74 14.448C158.619 14.4947 158.46 14.518 158.264 14.518H149.892C150.032 15.7313 150.401 16.6133 150.998 17.164C151.596 17.7053 152.366 17.976 153.308 17.976C153.812 17.976 154.246 17.9153 154.61 17.794C154.974 17.6727 155.296 17.5373 155.576 17.388C155.866 17.2387 156.127 17.1033 156.36 16.982C156.603 16.8607 156.855 16.8 157.116 16.8C157.462 16.8 157.723 16.926 157.9 17.178L159.16 18.732C158.712 19.2453 158.227 19.6653 157.704 19.992C157.191 20.3093 156.659 20.5613 156.108 20.748C155.567 20.9253 155.021 21.0467 154.47 21.112C153.929 21.1867 153.411 21.224 152.916 21.224C151.899 21.224 150.942 21.0607 150.046 20.734C149.16 20.398 148.38 19.9033 147.708 19.25C147.046 18.5967 146.518 17.7847 146.126 16.814C145.744 15.8433 145.552 14.714 145.552 13.426C145.552 12.4553 145.716 11.536 146.042 10.668C146.378 9.8 146.854 9.03933 147.47 8.386C148.096 7.73267 148.847 7.21467 149.724 6.832C150.611 6.44933 151.61 6.258 152.72 6.258ZM152.804 9.254C151.974 9.254 151.325 9.492 150.858 9.968C150.392 10.4347 150.084 11.1113 149.934 11.998H155.352C155.352 11.6527 155.306 11.3167 155.212 10.99C155.128 10.6633 154.984 10.374 154.778 10.122C154.582 9.86067 154.321 9.65067 153.994 9.492C153.668 9.33333 153.271 9.254 152.804 9.254ZM167.149 21V6.482H169.837C170.107 6.482 170.331 6.54267 170.509 6.664C170.695 6.78533 170.826 6.96733 170.901 7.21L171.139 7.994C171.381 7.742 171.633 7.51333 171.895 7.308C172.156 7.09333 172.436 6.91133 172.735 6.762C173.043 6.60333 173.369 6.482 173.715 6.398C174.069 6.30467 174.457 6.258 174.877 6.258C175.754 6.258 176.477 6.48667 177.047 6.944C177.625 7.392 178.064 7.994 178.363 8.75C178.605 8.302 178.899 7.91933 179.245 7.602C179.599 7.28467 179.977 7.028 180.379 6.832C180.789 6.636 181.219 6.49133 181.667 6.398C182.124 6.30467 182.577 6.258 183.025 6.258C183.855 6.258 184.593 6.384 185.237 6.636C185.881 6.87867 186.417 7.238 186.847 7.714C187.285 8.18067 187.617 8.75933 187.841 9.45C188.065 10.1313 188.177 10.906 188.177 11.774V21H183.837V11.774C183.837 10.2713 183.193 9.52 181.905 9.52C181.317 9.52 180.827 9.716 180.435 10.108C180.052 10.4907 179.861 11.046 179.861 11.774V21H175.521V11.774C175.521 10.9433 175.357 10.36 175.031 10.024C174.704 9.688 174.223 9.52 173.589 9.52C173.197 9.52 172.823 9.60867 172.469 9.786C172.123 9.96333 171.797 10.2013 171.489 10.5V21H167.149ZM196.655 24.766C196.524 25.0553 196.366 25.2653 196.179 25.396C195.992 25.536 195.694 25.606 195.283 25.606H192.035L194.835 19.726L189.039 6.482H192.875C193.211 6.482 193.472 6.55667 193.659 6.706C193.846 6.85533 193.976 7.03267 194.051 7.238L196.431 13.496C196.655 14.0747 196.837 14.6533 196.977 15.232C197.07 14.9333 197.173 14.6393 197.285 14.35C197.397 14.0607 197.504 13.7667 197.607 13.468L199.763 7.238C199.838 7.02333 199.982 6.846 200.197 6.706C200.421 6.55667 200.659 6.482 200.911 6.482H204.411L196.655 24.766ZM216.706 21.224C216.015 21.224 215.404 21.126 214.872 20.93C214.349 20.7247 213.906 20.44 213.542 20.076C213.187 19.7027 212.916 19.2547 212.73 18.732C212.543 18.2093 212.45 17.626 212.45 16.982V9.478H211.218C210.994 9.478 210.802 9.408 210.644 9.268C210.485 9.11867 210.406 8.904 210.406 8.624V6.93L212.716 6.482L213.57 2.94C213.682 2.492 213.999 2.268 214.522 2.268H216.79V6.51H220.318V9.478H216.79V16.688C216.79 17.024 216.869 17.304 217.028 17.528C217.196 17.7427 217.434 17.85 217.742 17.85C217.9 17.85 218.031 17.836 218.134 17.808C218.246 17.7707 218.339 17.7333 218.414 17.696C218.498 17.6493 218.572 17.612 218.638 17.584C218.712 17.5467 218.796 17.528 218.89 17.528C219.02 17.528 219.123 17.5607 219.198 17.626C219.282 17.682 219.366 17.7753 219.45 17.906L220.766 19.964C220.206 20.384 219.576 20.7013 218.876 20.916C218.176 21.1213 217.452 21.224 216.706 21.224ZM222.821 21V0.0419986H227.161V7.756C227.683 7.308 228.248 6.94867 228.855 6.678C229.471 6.398 230.203 6.258 231.053 6.258C231.846 6.258 232.546 6.398 233.153 6.678C233.769 6.94867 234.287 7.33133 234.707 7.826C235.127 8.31133 235.444 8.89467 235.659 9.576C235.873 10.248 235.981 10.9807 235.981 11.774V21H231.641V11.774C231.641 11.0647 231.477 10.514 231.151 10.122C230.824 9.72067 230.343 9.52 229.709 9.52C229.233 9.52 228.785 9.62267 228.365 9.828C227.945 10.0333 227.543 10.3087 227.161 10.654V21H222.821ZM245.531 6.258C246.632 6.258 247.635 6.43067 248.541 6.776C249.446 7.12133 250.221 7.616 250.865 8.26C251.518 8.904 252.022 9.688 252.377 10.612C252.741 11.5267 252.923 12.558 252.923 13.706C252.923 14.8633 252.741 15.9087 252.377 16.842C252.022 17.766 251.518 18.5547 250.865 19.208C250.221 19.852 249.446 20.3513 248.541 20.706C247.635 21.0513 246.632 21.224 245.531 21.224C244.42 21.224 243.407 21.0513 242.493 20.706C241.587 20.3513 240.803 19.852 240.141 19.208C239.487 18.5547 238.979 17.766 238.615 16.842C238.26 15.9087 238.083 14.8633 238.083 13.706C238.083 12.558 238.26 11.5267 238.615 10.612C238.979 9.688 239.487 8.904 240.141 8.26C240.803 7.616 241.587 7.12133 242.493 6.776C243.407 6.43067 244.42 6.258 245.531 6.258ZM245.531 18.004C246.529 18.004 247.262 17.654 247.729 16.954C248.205 16.2447 248.443 15.1713 248.443 13.734C248.443 12.2967 248.205 11.228 247.729 10.528C247.262 9.828 246.529 9.478 245.531 9.478C244.504 9.478 243.753 9.828 243.277 10.528C242.801 11.228 242.563 12.2967 242.563 13.734C242.563 15.1713 242.801 16.2447 243.277 16.954C243.753 17.654 244.504 18.004 245.531 18.004ZM259.365 6.482V15.694C259.365 16.4127 259.528 16.968 259.855 17.36C260.182 17.752 260.662 17.948 261.297 17.948C261.773 17.948 262.216 17.85 262.627 17.654C263.047 17.458 263.453 17.1827 263.845 16.828V6.482H268.185V21H265.497C264.956 21 264.601 20.7573 264.433 20.272L264.167 19.432C263.887 19.7027 263.598 19.95 263.299 20.174C263 20.3887 262.678 20.5753 262.333 20.734C261.997 20.8833 261.633 21 261.241 21.084C260.849 21.1773 260.42 21.224 259.953 21.224C259.16 21.224 258.455 21.0887 257.839 20.818C257.232 20.538 256.719 20.1507 256.299 19.656C255.879 19.1613 255.562 18.578 255.347 17.906C255.132 17.234 255.025 16.4967 255.025 15.694V6.482H259.365ZM276.671 6.23C277.287 6.23 277.866 6.29067 278.407 6.412C278.958 6.53333 279.467 6.706 279.933 6.93H284.315V8.512C284.315 8.75467 284.245 8.946 284.105 9.086C283.975 9.226 283.746 9.33333 283.419 9.408L282.355 9.646C282.486 10.066 282.551 10.5 282.551 10.948C282.551 11.676 282.397 12.3293 282.089 12.908C281.791 13.4867 281.375 13.9813 280.843 14.392C280.321 14.7933 279.7 15.106 278.981 15.33C278.263 15.5447 277.493 15.652 276.671 15.652C276.214 15.652 275.785 15.624 275.383 15.568C275.066 15.7547 274.907 15.9693 274.907 16.212C274.907 16.4547 275.033 16.632 275.285 16.744C275.547 16.8467 275.887 16.9213 276.307 16.968C276.727 17.0053 277.208 17.0333 277.749 17.052C278.291 17.0613 278.841 17.094 279.401 17.15C279.961 17.1967 280.512 17.2807 281.053 17.402C281.595 17.5233 282.075 17.7193 282.495 17.99C282.915 18.2607 283.251 18.6247 283.503 19.082C283.765 19.53 283.895 20.104 283.895 20.804C283.895 21.4573 283.737 22.0967 283.419 22.722C283.102 23.3473 282.635 23.9027 282.019 24.388C281.403 24.8733 280.647 25.2607 279.751 25.55C278.855 25.8487 277.829 25.998 276.671 25.998C275.533 25.998 274.548 25.8907 273.717 25.676C272.896 25.4613 272.21 25.1767 271.659 24.822C271.118 24.4767 270.717 24.0753 270.455 23.618C270.194 23.1607 270.063 22.6847 270.063 22.19C270.063 21.546 270.259 21.0047 270.651 20.566C271.043 20.118 271.58 19.768 272.261 19.516C271.935 19.3013 271.673 19.026 271.477 18.69C271.281 18.354 271.183 17.9293 271.183 17.416C271.183 17.2013 271.221 16.9773 271.295 16.744C271.37 16.5013 271.487 16.268 271.645 16.044C271.804 15.82 272.005 15.6053 272.247 15.4C272.49 15.1947 272.779 15.0127 273.115 14.854C272.359 14.4527 271.762 13.9207 271.323 13.258C270.894 12.5953 270.679 11.8253 270.679 10.948C270.679 10.22 270.833 9.56667 271.141 8.988C271.449 8.4 271.869 7.90533 272.401 7.504C272.943 7.09333 273.577 6.78067 274.305 6.566C275.033 6.342 275.822 6.23 276.671 6.23ZM279.891 21.532C279.891 21.2987 279.817 21.112 279.667 20.972C279.527 20.832 279.331 20.72 279.079 20.636C278.837 20.552 278.547 20.4913 278.211 20.454C277.885 20.4167 277.53 20.3887 277.147 20.37C276.765 20.3513 276.368 20.3373 275.957 20.328C275.547 20.3093 275.141 20.2767 274.739 20.23C274.469 20.4167 274.245 20.6267 274.067 20.86C273.899 21.084 273.815 21.3407 273.815 21.63C273.815 21.8353 273.857 22.022 273.941 22.19C274.035 22.358 274.193 22.5027 274.417 22.624C274.641 22.7453 274.94 22.8387 275.313 22.904C275.696 22.9787 276.177 23.016 276.755 23.016C277.381 23.016 277.894 22.9787 278.295 22.904C278.697 22.8293 279.014 22.7267 279.247 22.596C279.49 22.4653 279.658 22.3067 279.751 22.12C279.845 21.9427 279.891 21.7467 279.891 21.532ZM276.671 12.978C277.39 12.978 277.908 12.8007 278.225 12.446C278.552 12.082 278.715 11.6153 278.715 11.046C278.715 10.458 278.552 9.996 278.225 9.66C277.908 9.324 277.39 9.156 276.671 9.156C275.953 9.156 275.43 9.324 275.103 9.66C274.786 9.996 274.627 10.458 274.627 11.046C274.627 11.326 274.665 11.5827 274.739 11.816C274.823 12.0493 274.949 12.2547 275.117 12.432C275.285 12.6 275.495 12.7353 275.747 12.838C276.009 12.9313 276.317 12.978 276.671 12.978ZM286.203 21V0.0419986H290.543V7.756C291.066 7.308 291.631 6.94867 292.237 6.678C292.853 6.398 293.586 6.258 294.435 6.258C295.229 6.258 295.929 6.398 296.535 6.678C297.151 6.94867 297.669 7.33133 298.089 7.826C298.509 8.31133 298.827 8.89467 299.041 9.576C299.256 10.248 299.363 10.9807 299.363 11.774V21H295.023V11.774C295.023 11.0647 294.86 10.514 294.533 10.122C294.207 9.72067 293.726 9.52 293.091 9.52C292.615 9.52 292.167 9.62267 291.747 9.828C291.327 10.0333 290.926 10.3087 290.543 10.654V21H286.203ZM307.542 21.224C306.851 21.224 306.24 21.126 305.708 20.93C305.185 20.7247 304.742 20.44 304.378 20.076C304.023 19.7027 303.752 19.2547 303.566 18.732C303.379 18.2093 303.286 17.626 303.286 16.982V9.478H302.054C301.83 9.478 301.638 9.408 301.48 9.268C301.321 9.11867 301.242 8.904 301.242 8.624V6.93L303.552 6.482L304.406 2.94C304.518 2.492 304.835 2.268 305.358 2.268H307.626V6.51H311.154V9.478H307.626V16.688C307.626 17.024 307.705 17.304 307.864 17.528C308.032 17.7427 308.27 17.85 308.578 17.85C308.736 17.85 308.867 17.836 308.97 17.808C309.082 17.7707 309.175 17.7333 309.25 17.696C309.334 17.6493 309.408 17.612 309.474 17.584C309.548 17.5467 309.632 17.528 309.726 17.528C309.856 17.528 309.959 17.5607 310.034 17.626C310.118 17.682 310.202 17.7753 310.286 17.906L311.602 19.964C311.042 20.384 310.412 20.7013 309.712 20.916C309.012 21.1213 308.288 21.224 307.542 21.224ZM322.533 9.66C322.421 9.83733 322.299 9.96333 322.169 10.038C322.047 10.1127 321.889 10.15 321.693 10.15C321.487 10.15 321.282 10.108 321.077 10.024C320.871 9.93067 320.647 9.83267 320.405 9.73C320.171 9.62733 319.905 9.534 319.607 9.45C319.308 9.35667 318.967 9.31 318.585 9.31C318.034 9.31 317.609 9.41733 317.311 9.632C317.021 9.83733 316.877 10.1267 316.877 10.5C316.877 10.7707 316.97 10.9947 317.157 11.172C317.353 11.3493 317.609 11.508 317.927 11.648C318.244 11.7787 318.603 11.9047 319.005 12.026C319.406 12.1473 319.817 12.2827 320.237 12.432C320.657 12.5813 321.067 12.7587 321.469 12.964C321.87 13.16 322.229 13.4073 322.547 13.706C322.864 13.9953 323.116 14.35 323.303 14.77C323.499 15.19 323.597 15.694 323.597 16.282C323.597 17.0007 323.466 17.6633 323.205 18.27C322.943 18.8767 322.551 19.3993 322.029 19.838C321.515 20.2767 320.876 20.6173 320.111 20.86C319.355 21.1027 318.482 21.224 317.493 21.224C316.998 21.224 316.503 21.1773 316.009 21.084C315.514 20.9907 315.033 20.8647 314.567 20.706C314.109 20.5473 313.685 20.3607 313.293 20.146C312.901 19.922 312.565 19.684 312.285 19.432L313.293 17.836C313.414 17.6493 313.559 17.5047 313.727 17.402C313.895 17.29 314.114 17.234 314.385 17.234C314.637 17.234 314.861 17.29 315.057 17.402C315.262 17.514 315.481 17.6353 315.715 17.766C315.948 17.8967 316.219 18.018 316.527 18.13C316.844 18.242 317.241 18.298 317.717 18.298C318.053 18.298 318.337 18.2653 318.571 18.2C318.804 18.1253 318.991 18.0273 319.131 17.906C319.271 17.7847 319.373 17.6493 319.439 17.5C319.504 17.3507 319.537 17.1967 319.537 17.038C319.537 16.7487 319.439 16.5107 319.243 16.324C319.047 16.1373 318.79 15.9787 318.473 15.848C318.155 15.708 317.791 15.582 317.381 15.47C316.979 15.3487 316.569 15.2133 316.149 15.064C315.729 14.9147 315.313 14.7373 314.903 14.532C314.501 14.3173 314.142 14.0513 313.825 13.734C313.507 13.4073 313.251 13.0107 313.055 12.544C312.859 12.0773 312.761 11.5127 312.761 10.85C312.761 10.234 312.877 9.65067 313.111 9.1C313.353 8.54 313.713 8.05 314.189 7.63C314.665 7.21 315.262 6.87867 315.981 6.636C316.699 6.384 317.539 6.258 318.501 6.258C319.023 6.258 319.527 6.30467 320.013 6.398C320.507 6.49133 320.969 6.622 321.399 6.79C321.828 6.958 322.22 7.15867 322.575 7.392C322.929 7.616 323.242 7.86333 323.513 8.134L322.533 9.66ZM325.149 18.802C325.149 18.466 325.209 18.1533 325.331 17.864C325.461 17.5747 325.634 17.3227 325.849 17.108C326.073 16.8933 326.334 16.7253 326.633 16.604C326.931 16.4733 327.258 16.408 327.613 16.408C327.958 16.408 328.28 16.4733 328.579 16.604C328.877 16.7253 329.139 16.8933 329.363 17.108C329.587 17.3227 329.759 17.5747 329.881 17.864C330.011 18.1533 330.077 18.466 330.077 18.802C330.077 19.138 330.011 19.4553 329.881 19.754C329.759 20.0433 329.587 20.2953 329.363 20.51C329.139 20.7247 328.877 20.8927 328.579 21.014C328.28 21.1353 327.958 21.196 327.613 21.196C327.258 21.196 326.931 21.1353 326.633 21.014C326.334 20.8927 326.073 20.7247 325.849 20.51C325.634 20.2953 325.461 20.0433 325.331 19.754C325.209 19.4553 325.149 19.138 325.149 18.802Z" fill="#121111"/>
</svg>
