<svg width="541" height="43" viewBox="0 0 541 43" fill="none" xmlns="http://www.w3.org/2000/svg">
<path d="M8.305 27.925H20.455V34H0.7V1.2175H8.305V27.925ZM33.5961 10.3075C35.1411 10.3075 36.5511 10.5475 37.8261 11.0275C39.1161 11.5075 40.2186 12.205 41.1336 13.12C42.0636 14.035 42.7836 15.16 43.2936 16.495C43.8186 17.815 44.0811 19.315 44.0811 20.995C44.0811 21.52 44.0586 21.9475 44.0136 22.2775C43.9686 22.6075 43.8861 22.87 43.7661 23.065C43.6461 23.26 43.4811 23.395 43.2711 23.47C43.0761 23.545 42.8211 23.5825 42.5061 23.5825H29.0511C29.2761 25.5325 29.8686 26.95 30.8286 27.835C31.7886 28.705 33.0261 29.14 34.5411 29.14C35.3511 29.14 36.0486 29.0425 36.6336 28.8475C37.2186 28.6525 37.7361 28.435 38.1861 28.195C38.6511 27.955 39.0711 27.7375 39.4461 27.5425C39.8361 27.3475 40.2411 27.25 40.6611 27.25C41.2161 27.25 41.6361 27.4525 41.9211 27.8575L43.9461 30.355C43.2261 31.18 42.4461 31.855 41.6061 32.38C40.7811 32.89 39.9261 33.295 39.0411 33.595C38.1711 33.88 37.2936 34.075 36.4086 34.18C35.5386 34.3 34.7061 34.36 33.9111 34.36C32.2761 34.36 30.7386 34.0975 29.2986 33.5725C27.8736 33.0325 26.6211 32.2375 25.5411 31.1875C24.4761 30.1375 23.6286 28.8325 22.9986 27.2725C22.3836 25.7125 22.0761 23.8975 22.0761 21.8275C22.0761 20.2675 22.3386 18.79 22.8636 17.395C23.4036 16 24.1686 14.7775 25.1586 13.7275C26.1636 12.6775 27.3711 11.845 28.7811 11.23C30.2061 10.615 31.8111 10.3075 33.5961 10.3075ZM33.7311 15.1225C32.3961 15.1225 31.3536 15.505 30.6036 16.27C29.8536 17.02 29.3586 18.1075 29.1186 19.5325H37.8261C37.8261 18.9775 37.7511 18.4375 37.6011 17.9125C37.4661 17.3875 37.2336 16.9225 36.9036 16.5175C36.5886 16.0975 36.1686 15.76 35.6436 15.505C35.1186 15.25 34.4811 15.1225 33.7311 15.1225ZM56.7236 34.36C55.6136 34.36 54.6311 34.2025 53.7761 33.8875C52.9361 33.5575 52.2236 33.1 51.6386 32.515C51.0686 31.915 50.6336 31.195 50.3336 30.355C50.0336 29.515 49.8836 28.5775 49.8836 27.5425V15.4825H47.9036C47.5436 15.4825 47.2361 15.37 46.9811 15.145C46.7261 14.905 46.5986 14.56 46.5986 14.11V11.3875L50.3111 10.6675L51.6836 4.975C51.8636 4.255 52.3736 3.895 53.2136 3.895H56.8586V10.7125H62.5286V15.4825H56.8586V27.07C56.8586 27.61 56.9861 28.06 57.2411 28.42C57.5111 28.765 57.8936 28.9375 58.3886 28.9375C58.6436 28.9375 58.8536 28.915 59.0186 28.87C59.1986 28.81 59.3486 28.75 59.4686 28.69C59.6036 28.615 59.7236 28.555 59.8286 28.51C59.9486 28.45 60.0836 28.42 60.2336 28.42C60.4436 28.42 60.6086 28.4725 60.7286 28.5775C60.8636 28.6675 60.9986 28.8175 61.1336 29.0275L63.2486 32.335C62.3486 33.01 61.3361 33.52 60.2111 33.865C59.0861 34.195 57.9236 34.36 56.7236 34.36ZM76.1523 34V10.6675H80.4723C80.9073 10.6675 81.2673 10.765 81.5523 10.96C81.8523 11.155 82.0623 11.4475 82.1823 11.8375L82.5648 13.0975C82.9548 12.6925 83.3598 12.325 83.7798 11.995C84.1998 11.65 84.6498 11.3575 85.1298 11.1175C85.6248 10.8625 86.1498 10.6675 86.7048 10.5325C87.2748 10.3825 87.8973 10.3075 88.5723 10.3075C89.9823 10.3075 91.1448 10.675 92.0598 11.41C92.9898 12.13 93.6948 13.0975 94.1748 14.3125C94.5648 13.5925 95.0373 12.9775 95.5923 12.4675C96.1623 11.9575 96.7698 11.545 97.4148 11.23C98.0748 10.915 98.7648 10.6825 99.4848 10.5325C100.22 10.3825 100.947 10.3075 101.667 10.3075C103.002 10.3075 104.187 10.51 105.222 10.915C106.257 11.305 107.12 11.8825 107.81 12.6475C108.515 13.3975 109.047 14.3275 109.407 15.4375C109.767 16.5325 109.947 17.7775 109.947 19.1725V34H102.972V19.1725C102.972 16.7575 101.937 15.55 99.8673 15.55C98.9223 15.55 98.1348 15.865 97.5048 16.495C96.8898 17.11 96.5823 18.0025 96.5823 19.1725V34H89.6073V19.1725C89.6073 17.8375 89.3448 16.9 88.8198 16.36C88.2948 15.82 87.5223 15.55 86.5023 15.55C85.8723 15.55 85.2723 15.6925 84.7023 15.9775C84.1473 16.2625 83.6223 16.645 83.1273 17.125V34H76.1523ZM125.352 10.3075C126.897 10.3075 128.307 10.5475 129.582 11.0275C130.872 11.5075 131.975 12.205 132.89 13.12C133.82 14.035 134.54 15.16 135.05 16.495C135.575 17.815 135.837 19.315 135.837 20.995C135.837 21.52 135.815 21.9475 135.77 22.2775C135.725 22.6075 135.642 22.87 135.522 23.065C135.402 23.26 135.237 23.395 135.027 23.47C134.832 23.545 134.577 23.5825 134.262 23.5825H120.807C121.032 25.5325 121.625 26.95 122.585 27.835C123.545 28.705 124.782 29.14 126.297 29.14C127.107 29.14 127.805 29.0425 128.39 28.8475C128.975 28.6525 129.492 28.435 129.942 28.195C130.407 27.955 130.827 27.7375 131.202 27.5425C131.592 27.3475 131.997 27.25 132.417 27.25C132.972 27.25 133.392 27.4525 133.677 27.8575L135.702 30.355C134.982 31.18 134.202 31.855 133.362 32.38C132.537 32.89 131.682 33.295 130.797 33.595C129.927 33.88 129.05 34.075 128.165 34.18C127.295 34.3 126.462 34.36 125.667 34.36C124.032 34.36 122.495 34.0975 121.055 33.5725C119.63 33.0325 118.377 32.2375 117.297 31.1875C116.232 30.1375 115.385 28.8325 114.755 27.2725C114.14 25.7125 113.832 23.8975 113.832 21.8275C113.832 20.2675 114.095 18.79 114.62 17.395C115.16 16 115.925 14.7775 116.915 13.7275C117.92 12.6775 119.127 11.845 120.537 11.23C121.962 10.615 123.567 10.3075 125.352 10.3075ZM125.487 15.1225C124.152 15.1225 123.11 15.505 122.36 16.27C121.61 17.02 121.115 18.1075 120.875 19.5325H129.582C129.582 18.9775 129.507 18.4375 129.357 17.9125C129.222 17.3875 128.99 16.9225 128.66 16.5175C128.345 16.0975 127.925 15.76 127.4 15.505C126.875 15.25 126.237 15.1225 125.487 15.1225ZM163.706 15.775C163.526 16.06 163.331 16.2625 163.121 16.3825C162.926 16.5025 162.671 16.5625 162.356 16.5625C162.026 16.5625 161.696 16.495 161.366 16.36C161.036 16.21 160.676 16.0525 160.286 15.8875C159.911 15.7225 159.483 15.5725 159.003 15.4375C158.523 15.2875 157.976 15.2125 157.361 15.2125C156.476 15.2125 155.793 15.385 155.313 15.73C154.848 16.06 154.616 16.525 154.616 17.125C154.616 17.56 154.766 17.92 155.066 18.205C155.381 18.49 155.793 18.745 156.303 18.97C156.813 19.18 157.391 19.3825 158.036 19.5775C158.681 19.7725 159.341 19.99 160.016 20.23C160.691 20.47 161.351 20.755 161.996 21.085C162.641 21.4 163.218 21.7975 163.728 22.2775C164.238 22.7425 164.643 23.3125 164.943 23.9875C165.258 24.6625 165.416 25.4725 165.416 26.4175C165.416 27.5725 165.206 28.6375 164.786 29.6125C164.366 30.5875 163.736 31.4275 162.896 32.1325C162.071 32.8375 161.043 33.385 159.813 33.775C158.598 34.165 157.196 34.36 155.606 34.36C154.811 34.36 154.016 34.285 153.221 34.135C152.426 33.985 151.653 33.7825 150.903 33.5275C150.168 33.2725 149.486 32.9725 148.856 32.6275C148.226 32.2675 147.686 31.885 147.236 31.48L148.856 28.915C149.051 28.615 149.283 28.3825 149.553 28.2175C149.823 28.0375 150.176 27.9475 150.611 27.9475C151.016 27.9475 151.376 28.0375 151.691 28.2175C152.021 28.3975 152.373 28.5925 152.748 28.8025C153.123 29.0125 153.558 29.2075 154.053 29.3875C154.563 29.5675 155.201 29.6575 155.966 29.6575C156.506 29.6575 156.963 29.605 157.338 29.5C157.713 29.38 158.013 29.2225 158.238 29.0275C158.463 28.8325 158.628 28.615 158.733 28.375C158.838 28.135 158.891 27.8875 158.891 27.6325C158.891 27.1675 158.733 26.785 158.418 26.485C158.103 26.185 157.691 25.93 157.181 25.72C156.671 25.495 156.086 25.2925 155.426 25.1125C154.781 24.9175 154.121 24.7 153.446 24.46C152.771 24.22 152.103 23.935 151.443 23.605C150.798 23.26 150.221 22.8325 149.711 22.3225C149.201 21.7975 148.788 21.16 148.473 20.41C148.158 19.66 148.001 18.7525 148.001 17.6875C148.001 16.6975 148.188 15.76 148.563 14.875C148.953 13.975 149.531 13.1875 150.296 12.5125C151.061 11.8375 152.021 11.305 153.176 10.915C154.331 10.51 155.681 10.3075 157.226 10.3075C158.066 10.3075 158.876 10.3825 159.656 10.5325C160.451 10.6825 161.193 10.8925 161.883 11.1625C162.573 11.4325 163.203 11.755 163.773 12.13C164.343 12.49 164.846 12.8875 165.281 13.3225L163.706 15.775ZM169.71 34V0.317498H176.685V12.715C177.525 11.995 178.433 11.4175 179.408 10.9825C180.398 10.5325 181.575 10.3075 182.94 10.3075C184.215 10.3075 185.34 10.5325 186.315 10.9825C187.305 11.4175 188.138 12.0325 188.813 12.8275C189.488 13.6075 189.998 14.545 190.343 15.64C190.688 16.72 190.86 17.8975 190.86 19.1725V34H183.885V19.1725C183.885 18.0325 183.623 17.1475 183.098 16.5175C182.573 15.8725 181.8 15.55 180.78 15.55C180.015 15.55 179.295 15.715 178.62 16.045C177.945 16.375 177.3 16.8175 176.685 17.3725V34H169.71ZM212.374 34C211.714 34 211.211 33.91 210.866 33.73C210.536 33.55 210.259 33.175 210.034 32.605L209.539 31.3225C208.954 31.8175 208.391 32.2525 207.851 32.6275C207.311 33.0025 206.749 33.325 206.164 33.595C205.594 33.85 204.979 34.0375 204.319 34.1575C203.674 34.2925 202.954 34.36 202.159 34.36C201.094 34.36 200.126 34.225 199.256 33.955C198.386 33.67 197.644 33.2575 197.029 32.7175C196.429 32.1775 195.964 31.51 195.634 30.715C195.304 29.905 195.139 28.975 195.139 27.925C195.139 27.1 195.349 26.2525 195.769 25.3825C196.189 24.5125 196.916 23.725 197.951 23.02C198.986 22.3 200.381 21.7 202.136 21.22C203.891 20.74 206.104 20.47 208.774 20.41V19.42C208.774 18.055 208.489 17.0725 207.919 16.4725C207.364 15.8575 206.569 15.55 205.534 15.55C204.709 15.55 204.034 15.64 203.509 15.82C202.984 16 202.511 16.2025 202.091 16.4275C201.686 16.6525 201.289 16.855 200.899 17.035C200.509 17.215 200.044 17.305 199.504 17.305C199.024 17.305 198.611 17.1925 198.266 16.9675C197.936 16.7275 197.674 16.435 197.479 16.09L196.219 13.9075C197.629 12.6625 199.189 11.74 200.899 11.14C202.624 10.525 204.469 10.2175 206.434 10.2175C207.844 10.2175 209.111 10.45 210.236 10.915C211.376 11.365 212.336 12.0025 213.116 12.8275C213.911 13.6375 214.519 14.605 214.939 15.73C215.359 16.855 215.569 18.085 215.569 19.42V34H212.374ZM204.364 29.7475C205.264 29.7475 206.051 29.59 206.726 29.275C207.401 28.96 208.084 28.45 208.774 27.745V24.505C207.379 24.565 206.231 24.685 205.331 24.865C204.431 25.045 203.719 25.27 203.194 25.54C202.669 25.81 202.301 26.1175 202.091 26.4625C201.896 26.8075 201.799 27.1825 201.799 27.5875C201.799 28.3825 202.016 28.945 202.451 29.275C202.886 29.59 203.524 29.7475 204.364 29.7475ZM220.971 34V10.6675H225.111C225.456 10.6675 225.741 10.6975 225.966 10.7575C226.206 10.8175 226.401 10.915 226.551 11.05C226.716 11.17 226.836 11.335 226.911 11.545C227.001 11.755 227.076 12.01 227.136 12.31L227.519 14.4925C228.374 13.1725 229.334 12.13 230.399 11.365C231.464 10.6 232.626 10.2175 233.886 10.2175C234.951 10.2175 235.806 10.4725 236.451 10.9825L235.551 16.1125C235.491 16.4275 235.371 16.6525 235.191 16.7875C235.011 16.9075 234.771 16.9675 234.471 16.9675C234.216 16.9675 233.916 16.9375 233.571 16.8775C233.226 16.8025 232.791 16.765 232.266 16.765C230.436 16.765 228.996 17.74 227.946 19.69V34H220.971ZM250 10.3075C251.545 10.3075 252.955 10.5475 254.23 11.0275C255.52 11.5075 256.623 12.205 257.538 13.12C258.468 14.035 259.188 15.16 259.698 16.495C260.223 17.815 260.485 19.315 260.485 20.995C260.485 21.52 260.463 21.9475 260.418 22.2775C260.373 22.6075 260.29 22.87 260.17 23.065C260.05 23.26 259.885 23.395 259.675 23.47C259.48 23.545 259.225 23.5825 258.91 23.5825H245.455C245.68 25.5325 246.273 26.95 247.233 27.835C248.193 28.705 249.43 29.14 250.945 29.14C251.755 29.14 252.453 29.0425 253.038 28.8475C253.623 28.6525 254.14 28.435 254.59 28.195C255.055 27.955 255.475 27.7375 255.85 27.5425C256.24 27.3475 256.645 27.25 257.065 27.25C257.62 27.25 258.04 27.4525 258.325 27.8575L260.35 30.355C259.63 31.18 258.85 31.855 258.01 32.38C257.185 32.89 256.33 33.295 255.445 33.595C254.575 33.88 253.698 34.075 252.813 34.18C251.943 34.3 251.11 34.36 250.315 34.36C248.68 34.36 247.143 34.0975 245.703 33.5725C244.278 33.0325 243.025 32.2375 241.945 31.1875C240.88 30.1375 240.033 28.8325 239.403 27.2725C238.788 25.7125 238.48 23.8975 238.48 21.8275C238.48 20.2675 238.743 18.79 239.268 17.395C239.808 16 240.573 14.7775 241.563 13.7275C242.568 12.6775 243.775 11.845 245.185 11.23C246.61 10.615 248.215 10.3075 250 10.3075ZM250.135 15.1225C248.8 15.1225 247.758 15.505 247.008 16.27C246.258 17.02 245.763 18.1075 245.523 19.5325H254.23C254.23 18.9775 254.155 18.4375 254.005 17.9125C253.87 17.3875 253.638 16.9225 253.308 16.5175C252.993 16.0975 252.573 15.76 252.048 15.505C251.523 15.25 250.885 15.1225 250.135 15.1225ZM274.089 34V10.6675H278.409C278.844 10.6675 279.204 10.765 279.489 10.96C279.789 11.155 279.999 11.4475 280.119 11.8375L280.502 13.0975C280.892 12.6925 281.297 12.325 281.717 11.995C282.137 11.65 282.587 11.3575 283.067 11.1175C283.562 10.8625 284.087 10.6675 284.642 10.5325C285.212 10.3825 285.834 10.3075 286.509 10.3075C287.919 10.3075 289.082 10.675 289.997 11.41C290.927 12.13 291.632 13.0975 292.112 14.3125C292.502 13.5925 292.974 12.9775 293.529 12.4675C294.099 11.9575 294.707 11.545 295.352 11.23C296.012 10.915 296.702 10.6825 297.422 10.5325C298.157 10.3825 298.884 10.3075 299.604 10.3075C300.939 10.3075 302.124 10.51 303.159 10.915C304.194 11.305 305.057 11.8825 305.747 12.6475C306.452 13.3975 306.984 14.3275 307.344 15.4375C307.704 16.5325 307.884 17.7775 307.884 19.1725V34H300.909V19.1725C300.909 16.7575 299.874 15.55 297.804 15.55C296.859 15.55 296.072 15.865 295.442 16.495C294.827 17.11 294.519 18.0025 294.519 19.1725V34H287.544V19.1725C287.544 17.8375 287.282 16.9 286.757 16.36C286.232 15.82 285.459 15.55 284.439 15.55C283.809 15.55 283.209 15.6925 282.639 15.9775C282.084 16.2625 281.559 16.645 281.064 17.125V34H274.089ZM321.96 40.0525C321.75 40.5175 321.495 40.855 321.195 41.065C320.895 41.29 320.415 41.4025 319.755 41.4025H314.535L319.035 31.9525L309.72 10.6675H315.885C316.425 10.6675 316.845 10.7875 317.145 11.0275C317.445 11.2675 317.655 11.5525 317.775 11.8825L321.6 21.94C321.96 22.87 322.252 23.8 322.477 24.73C322.627 24.25 322.792 23.7775 322.972 23.3125C323.152 22.8475 323.325 22.375 323.49 21.895L326.955 11.8825C327.075 11.5375 327.307 11.2525 327.652 11.0275C328.012 10.7875 328.395 10.6675 328.8 10.6675H334.425L321.96 40.0525ZM355.084 34.36C353.974 34.36 352.992 34.2025 352.137 33.8875C351.297 33.5575 350.584 33.1 349.999 32.515C349.429 31.915 348.994 31.195 348.694 30.355C348.394 29.515 348.244 28.5775 348.244 27.5425V15.4825H346.264C345.904 15.4825 345.597 15.37 345.342 15.145C345.087 14.905 344.959 14.56 344.959 14.11V11.3875L348.672 10.6675L350.044 4.975C350.224 4.255 350.734 3.895 351.574 3.895H355.219V10.7125H360.889V15.4825H355.219V27.07C355.219 27.61 355.347 28.06 355.602 28.42C355.872 28.765 356.254 28.9375 356.749 28.9375C357.004 28.9375 357.214 28.915 357.379 28.87C357.559 28.81 357.709 28.75 357.829 28.69C357.964 28.615 358.084 28.555 358.189 28.51C358.309 28.45 358.444 28.42 358.594 28.42C358.804 28.42 358.969 28.4725 359.089 28.5775C359.224 28.6675 359.359 28.8175 359.494 29.0275L361.609 32.335C360.709 33.01 359.697 33.52 358.572 33.865C357.447 34.195 356.284 34.36 355.084 34.36ZM365.362 34V0.317498H372.337V12.715C373.177 11.995 374.084 11.4175 375.059 10.9825C376.049 10.5325 377.227 10.3075 378.592 10.3075C379.867 10.3075 380.992 10.5325 381.967 10.9825C382.957 11.4175 383.789 12.0325 384.464 12.8275C385.139 13.6075 385.649 14.545 385.994 15.64C386.339 16.72 386.512 17.8975 386.512 19.1725V34H379.537V19.1725C379.537 18.0325 379.274 17.1475 378.749 16.5175C378.224 15.8725 377.452 15.55 376.432 15.55C375.667 15.55 374.947 15.715 374.272 16.045C373.597 16.375 372.952 16.8175 372.337 17.3725V34H365.362ZM402.31 10.3075C404.08 10.3075 405.693 10.585 407.148 11.14C408.603 11.695 409.848 12.49 410.883 13.525C411.933 14.56 412.743 15.82 413.313 17.305C413.898 18.775 414.19 20.4325 414.19 22.2775C414.19 24.1375 413.898 25.8175 413.313 27.3175C412.743 28.8025 411.933 30.07 410.883 31.12C409.848 32.155 408.603 32.9575 407.148 33.5275C405.693 34.0825 404.08 34.36 402.31 34.36C400.525 34.36 398.898 34.0825 397.428 33.5275C395.973 32.9575 394.713 32.155 393.648 31.12C392.598 30.07 391.78 28.8025 391.195 27.3175C390.625 25.8175 390.34 24.1375 390.34 22.2775C390.34 20.4325 390.625 18.775 391.195 17.305C391.78 15.82 392.598 14.56 393.648 13.525C394.713 12.49 395.973 11.695 397.428 11.14C398.898 10.585 400.525 10.3075 402.31 10.3075ZM402.31 29.185C403.915 29.185 405.093 28.6225 405.843 27.4975C406.608 26.3575 406.99 24.6325 406.99 22.3225C406.99 20.0125 406.608 18.295 405.843 17.17C405.093 16.045 403.915 15.4825 402.31 15.4825C400.66 15.4825 399.453 16.045 398.688 17.17C397.923 18.295 397.54 20.0125 397.54 22.3225C397.54 24.6325 397.923 26.3575 398.688 27.4975C399.453 28.6225 400.66 29.185 402.31 29.185ZM424.994 10.6675V25.4725C424.994 26.6275 425.256 27.52 425.781 28.15C426.306 28.78 427.079 29.095 428.099 29.095C428.864 29.095 429.576 28.9375 430.236 28.6225C430.911 28.3075 431.564 27.865 432.194 27.295V10.6675H439.169V34H434.849C433.979 34 433.409 33.61 433.139 32.83L432.711 31.48C432.261 31.915 431.796 32.3125 431.316 32.6725C430.836 33.0175 430.319 33.3175 429.764 33.5725C429.224 33.8125 428.639 34 428.009 34.135C427.379 34.285 426.689 34.36 425.939 34.36C424.664 34.36 423.531 34.1425 422.541 33.7075C421.566 33.2575 420.741 32.635 420.066 31.84C419.391 31.045 418.881 30.1075 418.536 29.0275C418.191 27.9475 418.019 26.7625 418.019 25.4725V10.6675H424.994ZM453.257 10.2625C454.247 10.2625 455.177 10.36 456.047 10.555C456.932 10.75 457.75 11.0275 458.5 11.3875H465.542V13.93C465.542 14.32 465.43 14.6275 465.205 14.8525C464.995 15.0775 464.627 15.25 464.102 15.37L462.392 15.7525C462.602 16.4275 462.707 17.125 462.707 17.845C462.707 19.015 462.46 20.065 461.965 20.995C461.485 21.925 460.817 22.72 459.962 23.38C459.122 24.025 458.125 24.5275 456.97 24.8875C455.815 25.2325 454.577 25.405 453.257 25.405C452.522 25.405 451.832 25.36 451.187 25.27C450.677 25.57 450.422 25.915 450.422 26.305C450.422 26.695 450.625 26.98 451.03 27.16C451.45 27.325 451.997 27.445 452.672 27.52C453.347 27.58 454.12 27.625 454.99 27.655C455.86 27.67 456.745 27.7225 457.645 27.8125C458.545 27.8875 459.43 28.0225 460.3 28.2175C461.17 28.4125 461.942 28.7275 462.617 29.1625C463.292 29.5975 463.832 30.1825 464.237 30.9175C464.657 31.6375 464.867 32.56 464.867 33.685C464.867 34.735 464.612 35.7625 464.102 36.7675C463.592 37.7725 462.842 38.665 461.852 39.445C460.862 40.225 459.647 40.8475 458.207 41.3125C456.767 41.7925 455.117 42.0325 453.257 42.0325C451.427 42.0325 449.845 41.86 448.51 41.515C447.19 41.17 446.087 40.7125 445.202 40.1425C444.332 39.5875 443.687 38.9425 443.267 38.2075C442.847 37.4725 442.637 36.7075 442.637 35.9125C442.637 34.8775 442.952 34.0075 443.582 33.3025C444.212 32.5825 445.075 32.02 446.17 31.615C445.645 31.27 445.225 30.8275 444.91 30.2875C444.595 29.7475 444.437 29.065 444.437 28.24C444.437 27.895 444.497 27.535 444.617 27.16C444.737 26.77 444.925 26.395 445.18 26.035C445.435 25.675 445.757 25.33 446.147 25C446.537 24.67 447.002 24.3775 447.542 24.1225C446.327 23.4775 445.367 22.6225 444.662 21.5575C443.972 20.4925 443.627 19.255 443.627 17.845C443.627 16.675 443.875 15.625 444.37 14.695C444.865 13.75 445.54 12.955 446.395 12.31C447.265 11.65 448.285 11.1475 449.455 10.8025C450.625 10.4425 451.892 10.2625 453.257 10.2625ZM458.432 34.855C458.432 34.48 458.312 34.18 458.072 33.955C457.847 33.73 457.532 33.55 457.127 33.415C456.737 33.28 456.272 33.1825 455.732 33.1225C455.207 33.0625 454.637 33.0175 454.022 32.9875C453.407 32.9575 452.77 32.935 452.11 32.92C451.45 32.89 450.797 32.8375 450.152 32.7625C449.717 33.0625 449.357 33.4 449.072 33.775C448.802 34.135 448.667 34.5475 448.667 35.0125C448.667 35.3425 448.735 35.6425 448.87 35.9125C449.02 36.1825 449.275 36.415 449.635 36.61C449.995 36.805 450.475 36.955 451.075 37.06C451.69 37.18 452.462 37.24 453.392 37.24C454.397 37.24 455.222 37.18 455.867 37.06C456.512 36.94 457.022 36.775 457.397 36.565C457.787 36.355 458.057 36.1 458.207 35.8C458.357 35.515 458.432 35.2 458.432 34.855ZM453.257 21.1075C454.412 21.1075 455.245 20.8225 455.755 20.2525C456.28 19.6675 456.542 18.9175 456.542 18.0025C456.542 17.0575 456.28 16.315 455.755 15.775C455.245 15.235 454.412 14.965 453.257 14.965C452.102 14.965 451.262 15.235 450.737 15.775C450.227 16.315 449.972 17.0575 449.972 18.0025C449.972 18.4525 450.032 18.865 450.152 19.24C450.287 19.615 450.49 19.945 450.76 20.23C451.03 20.5 451.367 20.7175 451.772 20.8825C452.192 21.0325 452.687 21.1075 453.257 21.1075ZM469.027 34V0.317498H476.002V12.715C476.842 11.995 477.749 11.4175 478.724 10.9825C479.714 10.5325 480.892 10.3075 482.257 10.3075C483.532 10.3075 484.657 10.5325 485.632 10.9825C486.622 11.4175 487.454 12.0325 488.129 12.8275C488.804 13.6075 489.314 14.545 489.659 15.64C490.004 16.72 490.177 17.8975 490.177 19.1725V34H483.202V19.1725C483.202 18.0325 482.939 17.1475 482.414 16.5175C481.889 15.8725 481.117 15.55 480.097 15.55C479.332 15.55 478.612 15.715 477.937 16.045C477.262 16.375 476.617 16.8175 476.002 17.3725V34H469.027ZM503.77 34.36C502.66 34.36 501.678 34.2025 500.823 33.8875C499.983 33.5575 499.27 33.1 498.685 32.515C498.115 31.915 497.68 31.195 497.38 30.355C497.08 29.515 496.93 28.5775 496.93 27.5425V15.4825H494.95C494.59 15.4825 494.283 15.37 494.028 15.145C493.773 14.905 493.645 14.56 493.645 14.11V11.3875L497.358 10.6675L498.73 4.975C498.91 4.255 499.42 3.895 500.26 3.895H503.905V10.7125H509.575V15.4825H503.905V27.07C503.905 27.61 504.033 28.06 504.288 28.42C504.558 28.765 504.94 28.9375 505.435 28.9375C505.69 28.9375 505.9 28.915 506.065 28.87C506.245 28.81 506.395 28.75 506.515 28.69C506.65 28.615 506.77 28.555 506.875 28.51C506.995 28.45 507.13 28.42 507.28 28.42C507.49 28.42 507.655 28.4725 507.775 28.5775C507.91 28.6675 508.045 28.8175 508.18 29.0275L510.295 32.335C509.395 33.01 508.383 33.52 507.258 33.865C506.133 34.195 504.97 34.36 503.77 34.36ZM528.313 15.775C528.133 16.06 527.938 16.2625 527.728 16.3825C527.533 16.5025 527.278 16.5625 526.963 16.5625C526.633 16.5625 526.303 16.495 525.973 16.36C525.643 16.21 525.283 16.0525 524.893 15.8875C524.518 15.7225 524.091 15.5725 523.611 15.4375C523.131 15.2875 522.583 15.2125 521.968 15.2125C521.083 15.2125 520.401 15.385 519.921 15.73C519.456 16.06 519.223 16.525 519.223 17.125C519.223 17.56 519.373 17.92 519.673 18.205C519.988 18.49 520.401 18.745 520.911 18.97C521.421 19.18 521.998 19.3825 522.643 19.5775C523.288 19.7725 523.948 19.99 524.623 20.23C525.298 20.47 525.958 20.755 526.603 21.085C527.248 21.4 527.826 21.7975 528.336 22.2775C528.846 22.7425 529.251 23.3125 529.551 23.9875C529.866 24.6625 530.023 25.4725 530.023 26.4175C530.023 27.5725 529.813 28.6375 529.393 29.6125C528.973 30.5875 528.343 31.4275 527.503 32.1325C526.678 32.8375 525.651 33.385 524.421 33.775C523.206 34.165 521.803 34.36 520.213 34.36C519.418 34.36 518.623 34.285 517.828 34.135C517.033 33.985 516.261 33.7825 515.511 33.5275C514.776 33.2725 514.093 32.9725 513.463 32.6275C512.833 32.2675 512.293 31.885 511.843 31.48L513.463 28.915C513.658 28.615 513.891 28.3825 514.161 28.2175C514.431 28.0375 514.783 27.9475 515.218 27.9475C515.623 27.9475 515.983 28.0375 516.298 28.2175C516.628 28.3975 516.981 28.5925 517.356 28.8025C517.731 29.0125 518.166 29.2075 518.661 29.3875C519.171 29.5675 519.808 29.6575 520.573 29.6575C521.113 29.6575 521.571 29.605 521.946 29.5C522.321 29.38 522.621 29.2225 522.846 29.0275C523.071 28.8325 523.236 28.615 523.341 28.375C523.446 28.135 523.498 27.8875 523.498 27.6325C523.498 27.1675 523.341 26.785 523.026 26.485C522.711 26.185 522.298 25.93 521.788 25.72C521.278 25.495 520.693 25.2925 520.033 25.1125C519.388 24.9175 518.728 24.7 518.053 24.46C517.378 24.22 516.711 23.935 516.051 23.605C515.406 23.26 514.828 22.8325 514.318 22.3225C513.808 21.7975 513.396 21.16 513.081 20.41C512.766 19.66 512.608 18.7525 512.608 17.6875C512.608 16.6975 512.796 15.76 513.171 14.875C513.561 13.975 514.138 13.1875 514.903 12.5125C515.668 11.8375 516.628 11.305 517.783 10.915C518.938 10.51 520.288 10.3075 521.833 10.3075C522.673 10.3075 523.483 10.3825 524.263 10.5325C525.058 10.6825 525.801 10.8925 526.491 11.1625C527.181 11.4325 527.811 11.755 528.381 12.13C528.951 12.49 529.453 12.8875 529.888 13.3225L528.313 15.775ZM532.967 30.4675C532.967 29.9275 533.065 29.425 533.26 28.96C533.47 28.495 533.747 28.09 534.092 27.745C534.452 27.4 534.872 27.13 535.352 26.935C535.832 26.725 536.357 26.62 536.927 26.62C537.482 26.62 538 26.725 538.48 26.935C538.96 27.13 539.38 27.4 539.74 27.745C540.1 28.09 540.377 28.495 540.572 28.96C540.782 29.425 540.887 29.9275 540.887 30.4675C540.887 31.0075 540.782 31.5175 540.572 31.9975C540.377 32.4625 540.1 32.8675 539.74 33.2125C539.38 33.5575 538.96 33.8275 538.48 34.0225C538 34.2175 537.482 34.315 536.927 34.315C536.357 34.315 535.832 34.2175 535.352 34.0225C534.872 33.8275 534.452 33.5575 534.092 33.2125C533.747 32.8675 533.47 32.4625 533.26 31.9975C533.065 31.5175 532.967 31.0075 532.967 30.4675Z" fill="#121111"/>
</svg>
