<svg fill="none" height="43" viewBox="0 0 541 43" width="541" xmlns="http://www.w3.org/2000/svg"><path d="m8.305 27.925h12.15v6.075h-19.755v-32.7825h7.605zm25.2911-17.6175c1.545 0 2.955.24 4.23.72 1.29.48 2.3925 1.1775 3.3075 2.0925.93.915 1.65 2.04 2.16 3.375.525 1.32.7875 2.82.7875 4.5 0 .525-.0225.9525-.0675 1.2825s-.1275.5925-.2475.7875-.285.33-.495.405c-.195.075-.45.1125-.765.1125h-13.455c.225 1.95.8175 3.3675 1.7775 4.2525.96.87 2.1975 1.305 3.7125 1.305.81 0 1.5075-.0975 2.0925-.2925s1.1025-.4125 1.5525-.6525c.465-.24.885-.4575 1.26-.6525.39-.195.795-.2925 1.215-.2925.555 0 .975.2025 1.26.6075l2.025 2.4975c-.72.825-1.5 1.5-2.34 2.025-.825.51-1.68.915-2.565 1.215-.87.285-1.7475.48-2.6325.585-.87.12-1.7025.18-2.4975.18-1.635 0-3.1725-.2625-4.6125-.7875-1.425-.54-2.6775-1.335-3.7575-2.385-1.065-1.05-1.9125-2.355-2.5425-3.915-.615-1.56-.9225-3.375-.9225-5.445 0-1.56.2625-3.0375.7875-4.4325.54-1.395 1.305-2.6175 2.295-3.6675 1.005-1.05 2.2125-1.8825 3.6225-2.4975 1.425-.615 3.03-.9225 4.815-.9225zm.135 4.815c-1.335 0-2.3775.3825-3.1275 1.1475-.75.75-1.245 1.8375-1.485 3.2625h8.7075c0-.555-.075-1.095-.225-1.62-.135-.525-.3675-.99-.6975-1.395-.315-.42-.735-.7575-1.26-1.0125s-1.1625-.3825-1.9125-.3825zm22.9925 19.2375c-1.11 0-2.0925-.1575-2.9475-.4725-.84-.33-1.5525-.7875-2.1375-1.3725-.57-.6-1.005-1.32-1.305-2.16s-.45-1.7775-.45-2.8125v-12.06h-1.98c-.36 0-.6675-.1125-.9225-.3375-.255-.24-.3825-.585-.3825-1.035v-2.7225l3.7125-.72 1.3725-5.6925c.18-.72.69-1.08 1.53-1.08h3.645v6.8175h5.67v4.77h-5.67v11.5875c0 .54.1275.99.3825 1.35.27.345.6525.5175 1.1475.5175.255 0 .465-.0225.63-.0675.18-.06.33-.12.45-.18.135-.075.255-.135.36-.18.12-.06.255-.09.405-.09.21 0 .375.0525.495.1575.135.09.27.24.405.45l2.115 3.3075c-.9.675-1.9125 1.185-3.0375 1.53-1.125.33-2.2875.495-3.4875.495zm19.4287-.36v-23.3325h4.32c.435 0 .795.0975 1.08.2925.3.195.51.4875.63.8775l.3825 1.26c.39-.405.795-.7725 1.215-1.1025.42-.345.87-.6375 1.35-.8775.495-.255 1.02-.45 1.575-.585.57-.15 1.1925-.225 1.8675-.225 1.41 0 2.5725.3675 3.4875 1.1025.93.72 1.635 1.6875 2.115 2.9025.39-.72.8625-1.335 1.4175-1.845.57-.51 1.1775-.9225 1.8225-1.2375.66-.315 1.35-.5475 2.07-.6975.7352-.15 1.4622-.225 2.1822-.225 1.335 0 2.52.2025 3.555.6075 1.035.39 1.898.9675 2.588 1.7325.705.75 1.237 1.68 1.597 2.79.36 1.095.54 2.34.54 3.735v14.8275h-6.975v-14.8275c0-2.415-1.035-3.6225-3.1047-3.6225-.945 0-1.7325.315-2.3625.945-.615.615-.9225 1.5075-.9225 2.6775v14.8275h-6.975v-14.8275c0-1.335-.2625-2.2725-.7875-2.8125s-1.2975-.81-2.3175-.81c-.63 0-1.23.1425-1.8.4275-.555.285-1.08.6675-1.575 1.1475v16.875zm49.1997-23.6925c1.545 0 2.955.24 4.23.72 1.29.48 2.393 1.1775 3.308 2.0925.93.915 1.65 2.04 2.16 3.375.525 1.32.787 2.82.787 4.5 0 .525-.022.9525-.067 1.2825s-.128.5925-.248.7875-.285.33-.495.405c-.195.075-.45.1125-.765.1125h-13.455c.225 1.95.818 3.3675 1.778 4.2525.96.87 2.197 1.305 3.712 1.305.81 0 1.508-.0975 2.093-.2925s1.102-.4125 1.552-.6525c.465-.24.885-.4575 1.26-.6525.39-.195.795-.2925 1.215-.2925.555 0 .975.2025 1.26.6075l2.025 2.4975c-.72.825-1.5 1.5-2.34 2.025-.825.51-1.68.915-2.565 1.215-.87.285-1.747.48-2.632.585-.87.12-1.703.18-2.498.18-1.635 0-3.172-.2625-4.612-.7875-1.425-.54-2.678-1.335-3.758-2.385-1.065-1.05-1.912-2.355-2.542-3.915-.615-1.56-.923-3.375-.923-5.445 0-1.56.263-3.0375.788-4.4325.54-1.395 1.305-2.6175 2.295-3.6675 1.005-1.05 2.212-1.8825 3.622-2.4975 1.425-.615 3.03-.9225 4.815-.9225zm.135 4.815c-1.335 0-2.377.3825-3.127 1.1475-.75.75-1.245 1.8375-1.485 3.2625h8.707c0-.555-.075-1.095-.225-1.62-.135-.525-.367-.99-.697-1.395-.315-.42-.735-.7575-1.26-1.0125s-1.163-.3825-1.913-.3825zm38.219.6525c-.18.285-.375.4875-.585.6075-.195.12-.45.18-.765.18-.33 0-.66-.0675-.99-.2025-.33-.15-.69-.3075-1.08-.4725-.375-.165-.803-.315-1.283-.45-.48-.15-1.027-.225-1.642-.225-.885 0-1.568.1725-2.048.5175-.465.33-.697.795-.697 1.395 0 .435.15.795.45 1.08.315.285.727.54 1.237.765.51.21 1.088.4125 1.733.6075s1.305.4125 1.98.6525 1.335.525 1.98.855c.645.315 1.222.7125 1.732 1.1925.51.465.915 1.035 1.215 1.71.315.675.473 1.485.473 2.43 0 1.155-.21 2.22-.63 3.195s-1.05 1.815-1.89 2.52c-.825.705-1.853 1.2525-3.083 1.6425-1.215.39-2.617.585-4.207.585-.795 0-1.59-.075-2.385-.225s-1.568-.3525-2.318-.6075c-.735-.255-1.417-.555-2.047-.9-.63-.36-1.17-.7425-1.62-1.1475l1.62-2.565c.195-.3.427-.5325.697-.6975.27-.18.623-.27 1.058-.27.405 0 .765.09 1.08.27.33.18.682.375 1.057.585s.81.405 1.305.585c.51.18 1.148.27 1.913.27.54 0 .997-.0525 1.372-.1575.375-.12.675-.2775.9-.4725s.39-.4125.495-.6525.158-.4875.158-.7425c0-.465-.158-.8475-.473-1.1475s-.727-.555-1.237-.765c-.51-.225-1.095-.4275-1.755-.6075-.645-.195-1.305-.4125-1.98-.6525s-1.343-.525-2.003-.855c-.645-.345-1.222-.7725-1.732-1.2825-.51-.525-.923-1.1625-1.238-1.9125s-.472-1.6575-.472-2.7225c0-.99.187-1.9275.562-2.8125.39-.9.968-1.6875 1.733-2.3625s1.725-1.2075 2.88-1.5975c1.155-.405 2.505-.6075 4.05-.6075.84 0 1.65.075 2.43.225.795.15 1.537.36 2.227.63s1.32.5925 1.89.9675c.57.36 1.073.7575 1.508 1.1925zm6.004 18.225v-33.682502h6.975v12.397502c.84-.72 1.748-1.2975 2.723-1.7325.99-.45 2.167-.675 3.532-.675 1.275 0 2.4.225 3.375.675.99.435 1.823 1.05 2.498 1.845.675.78 1.185 1.7175 1.53 2.8125.345 1.08.517 2.2575.517 3.5325v14.8275h-6.975v-14.8275c0-1.14-.262-2.025-.787-2.655-.525-.645-1.298-.9675-2.318-.9675-.765 0-1.485.165-2.16.495s-1.32.7725-1.935 1.3275v16.6275zm42.664 0c-.66 0-1.163-.09-1.508-.27-.33-.18-.607-.555-.832-1.125l-.495-1.2825c-.585.495-1.148.93-1.688 1.305s-1.102.6975-1.687.9675c-.57.255-1.185.4425-1.845.5625-.645.135-1.365.2025-2.16.2025-1.065 0-2.033-.135-2.903-.405-.87-.285-1.612-.6975-2.227-1.2375-.6-.54-1.065-1.2075-1.395-2.0025-.33-.81-.495-1.74-.495-2.79 0-.825.21-1.6725.63-2.5425s1.147-1.6575 2.182-2.3625c1.035-.72 2.43-1.32 4.185-1.8s3.968-.75 6.638-.81v-.99c0-1.365-.285-2.3475-.855-2.9475-.555-.615-1.35-.9225-2.385-.9225-.825 0-1.5.09-2.025.27s-.998.3825-1.418.6075c-.405.225-.802.4275-1.192.6075s-.855.27-1.395.27c-.48 0-.893-.1125-1.238-.3375-.33-.24-.592-.5325-.787-.8775l-1.26-2.1825c1.41-1.245 2.97-2.1675 4.68-2.7675 1.725-.615 3.57-.9225 5.535-.9225 1.41 0 2.677.2325 3.802.6975 1.14.45 2.1 1.0875 2.88 1.9125.795.81 1.403 1.7775 1.823 2.9025s.63 2.355.63 3.69v14.58zm-8.01-4.2525c.9 0 1.687-.1575 2.362-.4725s1.358-.825 2.048-1.53v-3.24c-1.395.06-2.543.18-3.443.36s-1.612.405-2.137.675-.893.5775-1.103.9225c-.195.345-.292.72-.292 1.125 0 .795.217 1.3575.652 1.6875.435.315 1.073.4725 1.913.4725zm16.607 4.2525v-23.3325h4.14c.345 0 .63.03.855.09.24.06.435.1575.585.2925.165.12.285.285.36.495.09.21.165.465.225.765l.383 2.1825c.855-1.32 1.815-2.3625 2.88-3.1275s2.227-1.1475 3.487-1.1475c1.065 0 1.92.255 2.565.765l-.9 5.13c-.06.315-.18.54-.36.675-.18.12-.42.18-.72.18-.255 0-.555-.03-.9-.09-.345-.075-.78-.1125-1.305-.1125-1.83 0-3.27.975-4.32 2.925v14.31zm29.029-23.6925c1.545 0 2.955.24 4.23.72 1.29.48 2.393 1.1775 3.308 2.0925.93.915 1.65 2.04 2.16 3.375.525 1.32.787 2.82.787 4.5 0 .525-.022.9525-.067 1.2825s-.128.5925-.248.7875-.285.33-.495.405c-.195.075-.45.1125-.765.1125h-13.455c.225 1.95.818 3.3675 1.778 4.2525.96.87 2.197 1.305 3.712 1.305.81 0 1.508-.0975 2.093-.2925s1.102-.4125 1.552-.6525c.465-.24.885-.4575 1.26-.6525.39-.195.795-.2925 1.215-.2925.555 0 .975.2025 1.26.6075l2.025 2.4975c-.72.825-1.5 1.5-2.34 2.025-.825.51-1.68.915-2.565 1.215-.87.285-1.747.48-2.632.585-.87.12-1.703.18-2.498.18-1.635 0-3.172-.2625-4.612-.7875-1.425-.54-2.678-1.335-3.758-2.385-1.065-1.05-1.912-2.355-2.542-3.915-.615-1.56-.923-3.375-.923-5.445 0-1.56.263-3.0375.788-4.4325.54-1.395 1.305-2.6175 2.295-3.6675 1.005-1.05 2.212-1.8825 3.622-2.4975 1.425-.615 3.03-.9225 4.815-.9225zm.135 4.815c-1.335 0-2.377.3825-3.127 1.1475-.75.75-1.245 1.8375-1.485 3.2625h8.707c0-.555-.075-1.095-.225-1.62-.135-.525-.367-.99-.697-1.395-.315-.42-.735-.7575-1.26-1.0125s-1.163-.3825-1.913-.3825zm23.954 18.8775v-23.3325h4.32c.435 0 .795.0975 1.08.2925.3.195.51.4875.63.8775l.383 1.26c.39-.405.795-.7725 1.215-1.1025.42-.345.87-.6375 1.35-.8775.495-.255 1.02-.45 1.575-.585.57-.15 1.192-.225 1.867-.225 1.41 0 2.573.3675 3.488 1.1025.93.72 1.635 1.6875 2.115 2.9025.39-.72.862-1.335 1.417-1.845.57-.51 1.178-.9225 1.823-1.2375.66-.315 1.35-.5475 2.07-.6975.735-.15 1.462-.225 2.182-.225 1.335 0 2.52.2025 3.555.6075 1.035.39 1.898.9675 2.588 1.7325.705.75 1.237 1.68 1.597 2.79.36 1.095.54 2.34.54 3.735v14.8275h-6.975v-14.8275c0-2.415-1.035-3.6225-3.105-3.6225-.945 0-1.732.315-2.362.945-.615.615-.923 1.5075-.923 2.6775v14.8275h-6.975v-14.8275c0-1.335-.262-2.2725-.787-2.8125s-1.298-.81-2.318-.81c-.63 0-1.23.1425-1.8.4275-.555.285-1.08.6675-1.575 1.1475v16.875zm47.871 6.0525c-.21.465-.465.8025-.765 1.0125-.3.225-.78.3375-1.44.3375h-5.22l4.5-9.45-9.315-21.285h6.165c.54 0 .96.12 1.26.36s.51.525.63.855l3.825 10.0575c.36.93.652 1.86.877 2.79.15-.48.315-.9525.495-1.4175s.353-.9375.518-1.4175l3.465-10.0125c.12-.345.352-.63.697-.855.36-.24.743-.36 1.148-.36h5.625zm33.124-5.6925c-1.11 0-2.092-.1575-2.947-.4725-.84-.33-1.553-.7875-2.138-1.3725-.57-.6-1.005-1.32-1.305-2.16s-.45-1.7775-.45-2.8125v-12.06h-1.98c-.36 0-.667-.1125-.922-.3375-.255-.24-.383-.585-.383-1.035v-2.7225l3.713-.72 1.372-5.6925c.18-.72.69-1.08 1.53-1.08h3.645v6.8175h5.67v4.77h-5.67v11.5875c0 .54.128.99.383 1.35.27.345.652.5175 1.147.5175.255 0 .465-.0225.63-.0675.18-.06.33-.12.45-.18.135-.075.255-.135.36-.18.12-.06.255-.09.405-.09.21 0 .375.0525.495.1575.135.09.27.24.405.45l2.115 3.3075c-.9.675-1.912 1.185-3.037 1.53-1.125.33-2.288.495-3.488.495zm10.278-.36v-33.682502h6.975v12.397502c.84-.72 1.747-1.2975 2.722-1.7325.99-.45 2.168-.675 3.533-.675 1.275 0 2.4.225 3.375.675.99.435 1.822 1.05 2.497 1.845.675.78 1.185 1.7175 1.53 2.8125.345 1.08.518 2.2575.518 3.5325v14.8275h-6.975v-14.8275c0-1.14-.263-2.025-.788-2.655-.525-.645-1.297-.9675-2.317-.9675-.765 0-1.485.165-2.16.495s-1.32.7725-1.935 1.3275v16.6275zm36.948-23.6925c1.77 0 3.383.2775 4.838.8325s2.7 1.35 3.735 2.385c1.05 1.035 1.86 2.295 2.43 3.78.585 1.47.877 3.1275.877 4.9725 0 1.86-.292 3.54-.877 5.04-.57 1.485-1.38 2.7525-2.43 3.8025-1.035 1.035-2.28 1.8375-3.735 2.4075-1.455.555-3.068.8325-4.838.8325-1.785 0-3.412-.2775-4.882-.8325-1.455-.57-2.715-1.3725-3.78-2.4075-1.05-1.05-1.868-2.3175-2.453-3.8025-.57-1.5-.855-3.18-.855-5.04 0-1.845.285-3.5025.855-4.9725.585-1.485 1.403-2.745 2.453-3.78 1.065-1.035 2.325-1.83 3.78-2.385 1.47-.555 3.097-.8325 4.882-.8325zm0 18.8775c1.605 0 2.783-.5625 3.533-1.6875.765-1.14 1.147-2.865 1.147-5.175s-.382-4.0275-1.147-5.1525c-.75-1.125-1.928-1.6875-3.533-1.6875-1.65 0-2.857.5625-3.622 1.6875s-1.148 2.8425-1.148 5.1525.383 4.035 1.148 5.175c.765 1.125 1.972 1.6875 3.622 1.6875zm22.684-18.5175v14.805c0 1.155.262 2.0475.787 2.6775s1.298.945 2.318.945c.765 0 1.477-.1575 2.137-.4725.675-.315 1.328-.7575 1.958-1.3275v-16.6275h6.975v23.3325h-4.32c-.87 0-1.44-.39-1.71-1.17l-.428-1.35c-.45.435-.915.8325-1.395 1.1925-.48.345-.997.645-1.552.9-.54.24-1.125.4275-1.755.5625-.63.15-1.32.225-2.07.225-1.275 0-2.408-.2175-3.398-.6525-.975-.45-1.8-1.0725-2.475-1.8675s-1.185-1.7325-1.53-2.8125-.517-2.265-.517-3.555v-14.805zm28.263-.405c.99 0 1.92.0975 2.79.2925.885.195 1.703.4725 2.453.8325h7.042v2.5425c0 .39-.112.6975-.337.9225-.21.225-.578.3975-1.103.5175l-1.71.3825c.21.675.315 1.3725.315 2.0925 0 1.17-.247 2.22-.742 3.15-.48.93-1.148 1.725-2.003 2.385-.84.645-1.837 1.1475-2.992 1.5075-1.155.345-2.393.5175-3.713.5175-.735 0-1.425-.045-2.07-.135-.51.3-.765.645-.765 1.035s.203.675.608.855c.42.165.967.285 1.642.36.675.06 1.448.105 2.318.135.87.015 1.755.0675 2.655.1575.9.075 1.785.21 2.655.405s1.642.51 2.317.945 1.215 1.02 1.62 1.755c.42.72.63 1.6425.63 2.7675 0 1.05-.255 2.0775-.765 3.0825s-1.26 1.8975-2.25 2.6775-2.205 1.4025-3.645 1.8675c-1.44.48-3.09.72-4.95.72-1.83 0-3.412-.1725-4.747-.5175-1.32-.345-2.423-.8025-3.308-1.3725-.87-.555-1.515-1.2-1.935-1.935s-.63-1.5-.63-2.295c0-1.035.315-1.905.945-2.61.63-.72 1.493-1.2825 2.588-1.6875-.525-.345-.945-.7875-1.26-1.3275s-.473-1.2225-.473-2.0475c0-.345.06-.705.18-1.08.12-.39.308-.765.563-1.125s.577-.705.967-1.035.855-.6225 1.395-.8775c-1.215-.645-2.175-1.5-2.88-2.565-.69-1.065-1.035-2.3025-1.035-3.7125 0-1.17.248-2.22.743-3.15.495-.945 1.17-1.74 2.025-2.385.87-.66 1.89-1.1625 3.06-1.5075 1.17-.36 2.437-.54 3.802-.54zm5.175 24.5925c0-.375-.12-.675-.36-.9-.225-.225-.54-.405-.945-.54-.39-.135-.855-.2325-1.395-.2925-.525-.06-1.095-.105-1.71-.135s-1.252-.0525-1.912-.0675c-.66-.03-1.313-.0825-1.958-.1575-.435.3-.795.6375-1.08 1.0125-.27.36-.405.7725-.405 1.2375 0 .33.068.63.203.9.15.27.405.5025.765.6975s.84.345 1.44.45c.615.12 1.387.18 2.317.18 1.005 0 1.83-.06 2.475-.18s1.155-.285 1.53-.495c.39-.21.66-.465.81-.765.15-.285.225-.6.225-.945zm-5.175-13.7475c1.155 0 1.988-.285 2.498-.855.525-.585.787-1.335.787-2.25 0-.945-.262-1.6875-.787-2.2275-.51-.54-1.343-.81-2.498-.81s-1.995.27-2.52.81c-.51.54-.765 1.2825-.765 2.2275 0 .45.06.8625.18 1.2375.135.375.338.705.608.99.27.27.607.4875 1.012.6525.42.15.915.225 1.485.225zm15.77 12.8925v-33.682502h6.975v12.397502c.84-.72 1.747-1.2975 2.722-1.7325.99-.45 2.168-.675 3.533-.675 1.275 0 2.4.225 3.375.675.99.435 1.822 1.05 2.497 1.845.675.78 1.185 1.7175 1.53 2.8125.345 1.08.518 2.2575.518 3.5325v14.8275h-6.975v-14.8275c0-1.14-.263-2.025-.788-2.655-.525-.645-1.297-.9675-2.317-.9675-.765 0-1.485.165-2.16.495s-1.32.7725-1.935 1.3275v16.6275zm34.743.36c-1.11 0-2.092-.1575-2.947-.4725-.84-.33-1.553-.7875-2.138-1.3725-.57-.6-1.005-1.32-1.305-2.16s-.45-1.7775-.45-2.8125v-12.06h-1.98c-.36 0-.667-.1125-.922-.3375-.255-.24-.383-.585-.383-1.035v-2.7225l3.713-.72 1.372-5.6925c.18-.72.69-1.08 1.53-1.08h3.645v6.8175h5.67v4.77h-5.67v11.5875c0 .54.128.99.383 1.35.27.345.652.5175 1.147.5175.255 0 .465-.0225.63-.0675.18-.06.33-.12.45-.18.135-.075.255-.135.36-.18.12-.06.255-.09.405-.09.21 0 .375.0525.495.1575.135.09.27.24.405.45l2.115 3.3075c-.9.675-1.912 1.185-3.037 1.53-1.125.33-2.288.495-3.488.495zm24.543-18.585c-.18.285-.375.4875-.585.6075-.195.12-.45.18-.765.18-.33 0-.66-.0675-.99-.2025-.33-.15-.69-.3075-1.08-.4725-.375-.165-.802-.315-1.282-.45-.48-.15-1.028-.225-1.643-.225-.885 0-1.567.1725-2.047.5175-.465.33-.698.795-.698 1.395 0 .435.15.795.45 1.08.315.285.728.54 1.238.765.51.21 1.087.4125 1.732.6075s1.305.4125 1.98.6525 1.335.525 1.98.855c.645.315 1.223.7125 1.733 1.1925.51.465.915 1.035 1.215 1.71.315.675.472 1.485.472 2.43 0 1.155-.21 2.22-.63 3.195s-1.05 1.815-1.89 2.52c-.825.705-1.852 1.2525-3.082 1.6425-1.215.39-2.618.585-4.208.585-.795 0-1.59-.075-2.385-.225s-1.567-.3525-2.317-.6075c-.735-.255-1.418-.555-2.048-.9-.63-.36-1.17-.7425-1.62-1.1475l1.62-2.565c.195-.3.428-.5325.698-.6975.27-.18.622-.27 1.057-.27.405 0 .765.09 1.08.27.33.18.683.375 1.058.585s.81.405 1.305.585c.51.18 1.147.27 1.912.27.54 0 .998-.0525 1.373-.1575.375-.12.675-.2775.9-.4725s.39-.4125.495-.6525.157-.4875.157-.7425c0-.465-.157-.8475-.472-1.1475s-.728-.555-1.238-.765c-.51-.225-1.095-.4275-1.755-.6075-.645-.195-1.305-.4125-1.98-.6525s-1.342-.525-2.002-.855c-.645-.345-1.223-.7725-1.733-1.2825-.51-.525-.922-1.1625-1.237-1.9125s-.473-1.6575-.473-2.7225c0-.99.188-1.9275.563-2.8125.39-.9.967-1.6875 1.732-2.3625s1.725-1.2075 2.88-1.5975c1.155-.405 2.505-.6075 4.05-.6075.84 0 1.65.075 2.43.225.795.15 1.538.36 2.228.63s1.32.5925 1.89.9675c.57.36 1.072.7575 1.507 1.1925zm4.654 14.6925c0-.54.098-1.0425.293-1.5075.21-.465.487-.87.832-1.215.36-.345.78-.615 1.26-.81.48-.21 1.005-.315 1.575-.315.555 0 1.073.105 1.553.315.48.195.9.465 1.26.81s.637.75.832 1.215c.21.465.315.9675.315 1.5075s-.105 1.05-.315 1.53c-.195.465-.472.87-.832 1.215s-.78.615-1.26.81-.998.2925-1.553.2925c-.57 0-1.095-.0975-1.575-.2925s-.9-.465-1.26-.81c-.345-.345-.622-.75-.832-1.215-.195-.48-.293-.99-.293-1.53z" fill="#121111"/></svg>